<?xml version="1.0" encoding="UTF-8" standalone="no"?>
<!DOCTYPE svg PUBLIC "-//W3C//DTD SVG 1.1//EN"
 "http://www.w3.org/Graphics/SVG/1.1/DTD/svg11.dtd">
<!-- Generated by graphviz version 2.26.3 (20100126.1600)
 -->
<!-- Title: _anonymous_0 Pages: 1 -->
<svg width="2300pt" height="2114pt"
 viewBox="0.00 0.00 2299.64 2113.58" xmlns="http://www.w3.org/2000/svg" xmlns:xlink="http://www.w3.org/1999/xlink">
<g id="graph1" class="graph" transform="scale(1 1) rotate(0) translate(4 2109.58)">
<title>_anonymous_0</title>
<polygon fill="white" stroke="white" points="-4,5 -4,-2109.58 2296.64,-2109.58 2296.64,5 -4,5"/>
<!-- n22_1077592855 -->
<g id="node1" class="node"><title>n22_1077592855</title>
<polygon fill="none" stroke="black" points="756.901,-112.615 681.901,-86.6151 756.901,-60.6151 831.901,-86.6151 756.901,-112.615"/>
<text text-anchor="middle" x="756.901" y="-83.0151" font-family="Times Roman,serif" font-size="14.00">lazy_if_c</text>
</g>
<!-- n32_12465215423231841903 -->
<g id="node3" class="node"><title>n32_12465215423231841903</title>
<polygon fill="none" stroke="black" points="544.551,-184.04 549.995,-184.141 555.383,-184.291 560.692,-184.492 565.901,-184.741 570.99,-185.039 575.938,-185.384 580.727,-185.775 585.336,-186.213 589.751,-186.694 593.954,-187.219 597.932,-187.785 601.67,-188.391 605.157,-189.036 608.383,-189.717 611.339,-190.433 614.017,-191.181 616.412,-191.96 618.52,-192.768 620.338,-193.602 621.864,-194.46 623.1,-195.34 624.046,-196.239 624.705,-197.156 625.083,-198.086 625.185,-199.028 625.017,-199.979 624.587,-200.937 623.904,-201.899 622.977,-202.862 621.817,-203.824 620.433,-204.782 618.838,-205.733 617.042,-206.675 615.059,-207.606 612.899,-208.522 610.575,-209.421 608.099,-210.301 605.483,-211.159 602.739,-211.993 599.877,-212.801 596.909,-213.58 593.845,-214.329 590.695,-215.045 587.469,-215.726 584.176,-216.37 580.823,-216.976 577.418,-217.542 573.969,-218.067 570.482,-218.549 566.962,-218.986 563.414,-219.378 559.844,-219.723 556.255,-220.02 552.651,-220.27 549.035,-220.47 545.411,-220.621 541.78,-220.721 538.146,-220.772 534.511,-220.772 530.877,-220.721 527.246,-220.621 523.622,-220.47 520.006,-220.27 516.402,-220.02 512.813,-219.723 509.243,-219.378 505.695,-218.986 502.175,-218.549 498.687,-218.067 495.238,-217.542 491.834,-216.976 488.481,-216.37 485.187,-215.726 481.961,-215.045 478.812,-214.329 475.748,-213.58 472.78,-212.801 469.918,-211.993 467.174,-211.159 464.557,-210.301 462.082,-209.421 459.758,-208.522 457.598,-207.606 455.614,-206.675 453.819,-205.733 452.224,-204.782 450.84,-203.824 449.679,-202.862 448.752,-201.899 448.069,-200.937 447.639,-199.979 447.472,-199.028 447.573,-198.086 447.951,-197.156 448.611,-196.239 449.557,-195.34 450.793,-194.46 452.319,-193.602 454.136,-192.768 456.244,-191.96 458.639,-191.181 461.318,-190.433 464.274,-189.717 467.5,-189.036 470.987,-188.391 474.725,-187.785 478.703,-187.219 482.906,-186.694 487.32,-186.213 491.93,-185.775 496.718,-185.384 501.666,-185.039 506.755,-184.741 511.965,-184.492 517.274,-184.291 522.662,-184.141 528.106,-184.04 533.584,-183.99 539.073,-183.99 544.551,-184.04"/>
<text text-anchor="middle" x="536.328" y="-198.781" font-family="Times Roman,serif" font-size="14.00">original.cxx:12</text>
</g>
<!-- n22_1077592855&#45;&gt;n32_12465215423231841903 -->
<g id="edge2" class="edge"><title>n22_1077592855&#45;&gt;n32_12465215423231841903</title>
<path fill="none" stroke="black" d="M726.694,-102.469C688.361,-122.588 622.025,-157.404 578.659,-180.164"/>
<polygon fill="black" stroke="black" points="577,-177.081 569.772,-184.828 580.254,-183.28 577,-177.081"/>
<text text-anchor="middle" x="640.275" y="-125.027" font-family="Times Roman,serif" font-size="14.00">instantiation</text>
</g>
<!-- n8_1773484321 -->
<g id="node7" class="node"><title>n8_1773484321</title>
<ellipse fill="none" stroke="black" cx="756.901" cy="-2018.96" rx="29.9071" ry="30.4056"/>
<text text-anchor="middle" x="756.901" y="-2015.36" font-family="Times Roman,serif" font-size="14.00">0x0</text>
</g>
<!-- n22_1077592855&#45;&gt;n8_1773484321 -->
<g id="edge4" class="edge"><title>n22_1077592855&#45;&gt;n8_1773484321</title>
<path fill="none" stroke="red" d="M756.901,-112.832C756.901,-322.155 756.901,-1720.89 756.901,-1978.29"/>
<polygon fill="red" stroke="red" points="753.401,-1978.33 756.901,-1988.33 760.401,-1978.33 753.401,-1978.33"/>
<text text-anchor="middle" x="762.901" y="-1047.25" font-family="Times Roman,serif" font-size="14.00">2</text>
</g>
<!-- n22_1741378925 -->
<g id="node17" class="node"><title>n22_1741378925</title>
<polygon fill="none" stroke="black" points="1489.74,-112.615 1419.74,-86.6151 1489.74,-60.6151 1559.74,-86.6151 1489.74,-112.615"/>
<text text-anchor="middle" x="1489.74" y="-83.0151" font-family="Times Roman,serif" font-size="14.00">identity</text>
</g>
<!-- n22_1077592855&#45;&gt;n22_1741378925 -->
<g id="edge8" class="edge"><title>n22_1077592855&#45;&gt;n22_1741378925</title>
<path fill="none" stroke="red" d="M832.226,-86.6151C971.107,-86.6151 1266.35,-86.6151 1409.11,-86.6151"/>
<polygon fill="red" stroke="red" points="1409.54,-90.1152 1419.54,-86.6151 1409.54,-83.1152 1409.54,-90.1152"/>
<text text-anchor="middle" x="1126.24" y="-73.0151" font-family="Times Roman,serif" font-size="14.00">4</text>
</g>
<!-- n22_2871787445 -->
<g id="node18" class="node"><title>n22_2871787445</title>
<polygon fill="none" stroke="black" points="998.769,-53 928.769,-27 998.769,-1 1068.77,-27 998.769,-53"/>
<text text-anchor="middle" x="998.769" y="-23.4" font-family="Times Roman,serif" font-size="14.00">identity</text>
</g>
<!-- n22_1077592855&#45;&gt;n22_2871787445 -->
<g id="edge6" class="edge"><title>n22_1077592855&#45;&gt;n22_2871787445</title>
<path fill="none" stroke="red" d="M800.982,-75.7501C842.065,-65.624 903.353,-50.518 946.801,-39.809"/>
<polygon fill="red" stroke="red" points="947.74,-43.1825 956.611,-37.3909 946.064,-36.3859 947.74,-43.1825"/>
<text text-anchor="middle" x="876.468" y="-43.0515" font-family="Times Roman,serif" font-size="14.00">3</text>
</g>
<!-- n22_1772220736 -->
<g id="node2" class="node"><title>n22_1772220736</title>
<polygon fill="none" stroke="black" points="1710.32,-228.381 1635.32,-202.381 1710.32,-176.381 1785.32,-202.381 1710.32,-228.381"/>
<text text-anchor="middle" x="1710.32" y="-198.781" font-family="Times Roman,serif" font-size="14.00">lazy_if_c</text>
</g>
<!-- n22_1772220736&#45;&gt;n32_12465215423231841903 -->
<g id="edge10" class="edge"><title>n22_1772220736&#45;&gt;n32_12465215423231841903</title>
<path fill="none" stroke="black" d="M1635.09,-202.381C1430.24,-202.381 862.543,-202.381 633.755,-202.381"/>
<polygon fill="black" stroke="black" points="633.449,-198.881 623.448,-202.381 633.448,-205.881 633.449,-198.881"/>
<text text-anchor="middle" x="1129.03" y="-208.781" font-family="Times Roman,serif" font-size="14.00">instantiation</text>
</g>
<!-- n8_1030972443 -->
<g id="node4" class="node"><title>n8_1030972443</title>
<ellipse fill="none" stroke="black" cx="1710.32" cy="-1903.2" rx="29.9071" ry="30.4056"/>
<text text-anchor="middle" x="1710.32" y="-1899.6" font-family="Times Roman,serif" font-size="14.00">0x1</text>
</g>
<!-- n22_1772220736&#45;&gt;n8_1030972443 -->
<g id="edge12" class="edge"><title>n22_1772220736&#45;&gt;n8_1030972443</title>
<path fill="none" stroke="red" d="M1710.32,-228.416C1710.32,-421.05 1710.32,-1624.11 1710.32,-1862.26"/>
<polygon fill="red" stroke="red" points="1706.82,-1862.55 1710.32,-1872.55 1713.82,-1862.55 1706.82,-1862.55"/>
<text text-anchor="middle" x="1704.32" y="-1047.01" font-family="Times Roman,serif" font-size="14.00">2</text>
</g>
<!-- n22_1772220736&#45;&gt;n22_1741378925 -->
<g id="edge16" class="edge"><title>n22_1772220736&#45;&gt;n22_1741378925</title>
<path fill="none" stroke="red" d="M1680.11,-186.527C1640.54,-165.758 1571.12,-129.326 1527.94,-106.664"/>
<polygon fill="red" stroke="red" points="1529.37,-103.458 1518.88,-101.909 1526.11,-109.656 1529.37,-103.458"/>
<text text-anchor="middle" x="1594.53" y="-150.637" font-family="Times Roman,serif" font-size="14.00">4</text>
</g>
<!-- n22_1772220736&#45;&gt;n22_2871787445 -->
<g id="edge14" class="edge"><title>n22_1772220736&#45;&gt;n22_2871787445</title>
<path fill="none" stroke="red" d="M1666.34,-191.542C1541.58,-160.79 1185.7,-73.0754 1051.16,-39.9122"/>
<polygon fill="red" stroke="red" points="1051.65,-36.4283 1041.1,-37.4333 1049.97,-43.2249 1051.65,-36.4283"/>
<text text-anchor="middle" x="1351.53" y="-120.84" font-family="Times Roman,serif" font-size="14.00">3</text>
</g>
<!-- n1_40498944 -->
<g id="node5" class="node"><title>n1_40498944</title>
<polygon fill="none" stroke="black" points="2290.64,-1070.79 2228.64,-1070.79 2228.64,-1034.79 2290.64,-1034.79 2290.64,-1070.79"/>
<text text-anchor="middle" x="2259.64" y="-1049.19" font-family="Times Roman,serif" font-size="14.00">double</text>
</g>
<!-- n32_12883939255363387905 -->
<g id="node6" class="node"><title>n32_12883939255363387905</title>
<polygon fill="none" stroke="black" points="1256.1,-2060.24 1261.54,-2060.34 1266.93,-2060.49 1272.24,-2060.69 1277.45,-2060.94 1282.54,-2061.23 1287.49,-2061.58 1292.27,-2061.97 1296.88,-2062.41 1301.3,-2062.89 1305.5,-2063.41 1309.48,-2063.98 1313.22,-2064.59 1316.7,-2065.23 1319.93,-2065.91 1322.89,-2066.63 1325.56,-2067.38 1327.96,-2068.16 1330.07,-2068.96 1331.89,-2069.8 1333.41,-2070.66 1334.65,-2071.54 1335.59,-2072.44 1336.25,-2073.35 1336.63,-2074.28 1336.73,-2075.22 1336.56,-2076.18 1336.13,-2077.13 1335.45,-2078.09 1334.52,-2079.06 1333.36,-2080.02 1331.98,-2080.98 1330.38,-2081.93 1328.59,-2082.87 1326.61,-2083.8 1324.45,-2084.72 1322.12,-2085.62 1319.65,-2086.5 1317.03,-2087.36 1314.29,-2088.19 1311.42,-2089 1308.46,-2089.78 1305.39,-2090.52 1302.24,-2091.24 1299.02,-2091.92 1295.72,-2092.57 1292.37,-2093.17 1288.97,-2093.74 1285.52,-2094.26 1282.03,-2094.74 1278.51,-2095.18 1274.96,-2095.57 1271.39,-2095.92 1267.8,-2096.22 1264.2,-2096.47 1260.58,-2096.67 1256.96,-2096.82 1253.33,-2096.92 1249.69,-2096.97 1246.06,-2096.97 1242.42,-2096.92 1238.79,-2096.82 1235.17,-2096.67 1231.55,-2096.47 1227.95,-2096.22 1224.36,-2095.92 1220.79,-2095.57 1217.24,-2095.18 1213.72,-2094.74 1210.23,-2094.26 1206.79,-2093.74 1203.38,-2093.17 1200.03,-2092.57 1196.73,-2091.92 1193.51,-2091.24 1190.36,-2090.52 1187.3,-2089.78 1184.33,-2089 1181.47,-2088.19 1178.72,-2087.36 1176.1,-2086.5 1173.63,-2085.62 1171.3,-2084.72 1169.15,-2083.8 1167.16,-2082.87 1165.37,-2081.93 1163.77,-2080.98 1162.39,-2080.02 1161.23,-2079.06 1160.3,-2078.09 1159.62,-2077.13 1159.19,-2076.18 1159.02,-2075.22 1159.12,-2074.28 1159.5,-2073.35 1160.16,-2072.44 1161.1,-2071.54 1162.34,-2070.66 1163.87,-2069.8 1165.68,-2068.96 1167.79,-2068.16 1170.19,-2067.38 1172.87,-2066.63 1175.82,-2065.91 1179.05,-2065.23 1182.53,-2064.59 1186.27,-2063.98 1190.25,-2063.41 1194.45,-2062.89 1198.87,-2062.41 1203.48,-2061.97 1208.27,-2061.58 1213.21,-2061.23 1218.3,-2060.94 1223.51,-2060.69 1228.82,-2060.49 1234.21,-2060.34 1239.65,-2060.24 1245.13,-2060.19 1250.62,-2060.19 1256.1,-2060.24"/>
<text text-anchor="middle" x="1247.88" y="-2074.98" font-family="Times Roman,serif" font-size="14.00">original.cxx:42</text>
</g>
<!-- n22_1682610999 -->
<g id="node8" class="node"><title>n22_1682610999</title>
<polygon fill="none" stroke="black" points="2126.62,-831.498 2065.62,-805.498 2126.62,-779.498 2187.62,-805.498 2126.62,-831.498"/>
<text text-anchor="middle" x="2126.62" y="-801.898" font-family="Times Roman,serif" font-size="14.00">lazy_if</text>
</g>
<!-- n22_1682610999&#45;&gt;n22_1077592855 -->
<g id="edge26" class="edge"><title>n22_1682610999&#45;&gt;n22_1077592855</title>
<path fill="none" stroke="blue" d="M2099.26,-791.138C1927.51,-700.996 998.833,-213.591 796.033,-107.153"/>
<polygon fill="blue" stroke="blue" points="797.411,-103.924 786.93,-102.375 794.158,-110.122 797.411,-103.924"/>
</g>
<!-- n32_3683794977457051237 -->
<g id="node16" class="node"><title>n32_3683794977457051237</title>
<polygon fill="none" stroke="black" points="2046.51,-554.239 2051.95,-554.339 2057.34,-554.49 2062.65,-554.69 2067.86,-554.94 2072.95,-555.237 2077.89,-555.582 2082.68,-555.974 2087.29,-556.411 2091.71,-556.893 2095.91,-557.418 2099.89,-557.984 2103.63,-558.59 2107.11,-559.234 2110.34,-559.916 2113.29,-560.631 2115.97,-561.38 2118.37,-562.159 2120.48,-562.967 2122.29,-563.801 2123.82,-564.659 2125.06,-565.539 2126,-566.438 2126.66,-567.354 2127.04,-568.285 2127.14,-569.227 2126.97,-570.178 2126.54,-571.136 2125.86,-572.098 2124.93,-573.061 2123.77,-574.023 2122.39,-574.981 2120.79,-575.932 2119,-576.874 2117.01,-577.805 2114.85,-578.721 2112.53,-579.62 2110.05,-580.5 2107.44,-581.358 2104.69,-582.192 2101.83,-583 2098.86,-583.779 2095.8,-584.528 2092.65,-585.243 2089.42,-585.924 2086.13,-586.569 2082.78,-587.175 2079.37,-587.741 2075.92,-588.266 2072.44,-588.747 2068.92,-589.185 2065.37,-589.576 2061.8,-589.922 2058.21,-590.219 2054.61,-590.468 2050.99,-590.669 2047.37,-590.819 2043.74,-590.92 2040.1,-590.971 2036.47,-590.971 2032.83,-590.92 2029.2,-590.819 2025.58,-590.669 2021.96,-590.468 2018.36,-590.219 2014.77,-589.922 2011.2,-589.576 2007.65,-589.185 2004.13,-588.747 2000.64,-588.266 1997.19,-587.741 1993.79,-587.175 1990.44,-586.569 1987.14,-585.924 1983.92,-585.243 1980.77,-584.528 1977.7,-583.779 1974.74,-583 1971.87,-582.192 1969.13,-581.358 1966.51,-580.5 1964.04,-579.62 1961.71,-578.721 1959.55,-577.805 1957.57,-576.874 1955.77,-575.932 1954.18,-574.981 1952.8,-574.023 1951.63,-573.061 1950.71,-572.098 1950.02,-571.136 1949.59,-570.178 1949.43,-569.227 1949.53,-568.285 1949.91,-567.354 1950.57,-566.438 1951.51,-565.539 1952.75,-564.659 1954.27,-563.801 1956.09,-562.967 1958.2,-562.159 1960.59,-561.38 1963.27,-560.631 1966.23,-559.916 1969.46,-559.234 1972.94,-558.59 1976.68,-557.984 1980.66,-557.418 1984.86,-556.893 1989.28,-556.411 1993.89,-555.974 1998.67,-555.582 2003.62,-555.237 2008.71,-554.94 2013.92,-554.69 2019.23,-554.49 2024.62,-554.339 2030.06,-554.239 2035.54,-554.188 2041.03,-554.188 2046.51,-554.239"/>
<text text-anchor="middle" x="2038.28" y="-568.979" font-family="Times Roman,serif" font-size="14.00">original.cxx:22</text>
</g>
<!-- n22_1682610999&#45;&gt;n32_3683794977457051237 -->
<g id="edge18" class="edge"><title>n22_1682610999&#45;&gt;n32_3683794977457051237</title>
<path fill="none" stroke="black" d="M2117.99,-782.741C2101.73,-739.87 2066.61,-647.267 2048.92,-600.627"/>
<polygon fill="black" stroke="black" points="2052.14,-599.25 2045.32,-591.141 2045.6,-601.732 2052.14,-599.25"/>
<text text-anchor="middle" x="2100.7" y="-676.459" font-family="Times Roman,serif" font-size="14.00">instantiation</text>
</g>
<!-- n22_1682610999&#45;&gt;n22_1741378925 -->
<g id="edge24" class="edge"><title>n22_1682610999&#45;&gt;n22_1741378925</title>
<path fill="none" stroke="red" d="M2109.58,-786.27C2021.49,-686.837 1617.75,-231.102 1514.07,-114.071"/>
<polygon fill="red" stroke="red" points="1516.38,-111.404 1507.13,-106.24 1511.14,-116.046 1516.38,-111.404"/>
<text text-anchor="middle" x="1800.52" y="-449.841" font-family="Times Roman,serif" font-size="14.00">4</text>
</g>
<!-- n22_1682610999&#45;&gt;n22_2871787445 -->
<g id="edge22" class="edge"><title>n22_1682610999&#45;&gt;n22_2871787445</title>
<path fill="none" stroke="red" d="M2103.32,-789.417C1960.18,-690.614 1200.47,-166.222 1031.91,-49.8765"/>
<polygon fill="red" stroke="red" points="1033.88,-46.9825 1023.66,-44.1822 1029.9,-52.7434 1033.88,-46.9825"/>
<text text-anchor="middle" x="1557.4" y="-422.135" font-family="Times Roman,serif" font-size="14.00">3</text>
</g>
<!-- n22_30076986 -->
<g id="node25" class="node"><title>n22_30076986</title>
<polygon fill="none" stroke="black" points="2156.64,-1078.79 2085.64,-1052.79 2156.64,-1026.79 2227.64,-1052.79 2156.64,-1078.79"/>
<text text-anchor="middle" x="2156.64" y="-1049.19" font-family="Times Roman,serif" font-size="14.00">is_same</text>
</g>
<!-- n22_1682610999&#45;&gt;n22_30076986 -->
<g id="edge20" class="edge"><title>n22_1682610999&#45;&gt;n22_30076986</title>
<path fill="none" stroke="red" d="M2129.66,-830.57C2135.04,-874.82 2146.21,-966.865 2152.36,-1017.5"/>
<polygon fill="red" stroke="red" points="2148.91,-1018.14 2153.59,-1027.65 2155.86,-1017.3 2148.91,-1018.14"/>
<text text-anchor="middle" x="2148.61" y="-925.405" font-family="Times Roman,serif" font-size="14.00">2</text>
</g>
<!-- n22_3059588303 -->
<g id="node9" class="node"><title>n22_3059588303</title>
<polygon fill="none" stroke="black" points="1896.78,-393.569 1835.78,-367.569 1896.78,-341.569 1957.78,-367.569 1896.78,-393.569"/>
<text text-anchor="middle" x="1896.78" y="-363.969" font-family="Times Roman,serif" font-size="14.00">lazy_if</text>
</g>
<!-- n22_3059588303&#45;&gt;n22_1772220736 -->
<g id="edge36" class="edge"><title>n22_3059588303&#45;&gt;n22_1772220736</title>
<path fill="none" stroke="blue" d="M1876.82,-349.891C1843.75,-320.597 1777.47,-261.87 1739.26,-228.02"/>
<polygon fill="blue" stroke="blue" points="1741.36,-225.206 1731.55,-221.194 1736.72,-230.445 1741.36,-225.206"/>
</g>
<!-- n22_3059588303&#45;&gt;n32_3683794977457051237 -->
<g id="edge28" class="edge"><title>n22_3059588303&#45;&gt;n32_3683794977457051237</title>
<path fill="none" stroke="black" d="M1910.86,-387.976C1936.58,-425.23 1991.11,-504.237 2019.78,-545.775"/>
<polygon fill="black" stroke="black" points="2016.93,-547.8 2025.49,-554.042 2022.69,-543.823 2016.93,-547.8"/>
<text text-anchor="middle" x="1984.29" y="-456.57" font-family="Times Roman,serif" font-size="14.00">instantiation</text>
</g>
<!-- n22_3059588303&#45;&gt;n22_1741378925 -->
<g id="edge34" class="edge"><title>n22_3059588303&#45;&gt;n22_1741378925</title>
<path fill="none" stroke="red" d="M1873.43,-351.454C1804.71,-304.019 1602.96,-164.76 1522.97,-109.547"/>
<polygon fill="red" stroke="red" points="1524.49,-106.348 1514.27,-103.548 1520.52,-112.109 1524.49,-106.348"/>
<text text-anchor="middle" x="1699.92" y="-214.951" font-family="Times Roman,serif" font-size="14.00">4</text>
</g>
<!-- n22_3059588303&#45;&gt;n22_2871787445 -->
<g id="edge32" class="edge"><title>n22_3059588303&#45;&gt;n22_2871787445</title>
<path fill="none" stroke="red" d="M1864.28,-355.247C1727.69,-303.443 1199.83,-103.252 1042.97,-43.7631"/>
<polygon fill="red" stroke="red" points="1044.2,-40.4878 1033.61,-40.2142 1041.72,-47.0329 1044.2,-40.4878"/>
<text text-anchor="middle" x="1444.87" y="-204.101" font-family="Times Roman,serif" font-size="14.00">3</text>
</g>
<!-- n22_2956297009 -->
<g id="node26" class="node"><title>n22_2956297009</title>
<polygon fill="none" stroke="black" points="1896.78,-1764.01 1825.78,-1738.01 1896.78,-1712.01 1967.78,-1738.01 1896.78,-1764.01"/>
<text text-anchor="middle" x="1896.78" y="-1734.41" font-family="Times Roman,serif" font-size="14.00">is_same</text>
</g>
<!-- n22_3059588303&#45;&gt;n22_2956297009 -->
<g id="edge30" class="edge"><title>n22_3059588303&#45;&gt;n22_2956297009</title>
<path fill="none" stroke="red" d="M1896.78,-393.721C1896.78,-563.138 1896.78,-1504.44 1896.78,-1701.73"/>
<polygon fill="red" stroke="red" points="1893.28,-1701.86 1896.78,-1711.86 1900.28,-1701.86 1893.28,-1701.86"/>
<text text-anchor="middle" x="1890.78" y="-1049.33" font-family="Times Roman,serif" font-size="14.00">2</text>
</g>
<!-- n22_1213819723 -->
<g id="node10" class="node"><title>n22_1213819723</title>
<polygon fill="none" stroke="black" points="536.328,-1929.2 497.328,-1903.2 536.328,-1877.2 575.328,-1903.2 536.328,-1929.2"/>
<text text-anchor="middle" x="536.328" y="-1899.6" font-family="Times Roman,serif" font-size="14.00">if_c</text>
</g>
<!-- n22_1213819723&#45;&gt;n8_1773484321 -->
<g id="edge40" class="edge"><title>n22_1213819723&#45;&gt;n8_1773484321</title>
<path fill="none" stroke="red" d="M558.284,-1914.72C596.309,-1934.68 674.764,-1975.85 720.874,-2000.05"/>
<polygon fill="red" stroke="red" points="719.439,-2003.25 729.92,-2004.8 722.692,-1997.05 719.439,-2003.25"/>
<text text-anchor="middle" x="649.332" y="-1946.28" font-family="Times Roman,serif" font-size="14.00">2</text>
</g>
<!-- n32_11407624269635001793 -->
<g id="node13" class="node"><title>n32_11407624269635001793</title>
<polygon fill="none" stroke="black" points="98.2225,-1034.45 103.666,-1034.55 109.054,-1034.7 114.364,-1034.9 119.573,-1035.15 124.662,-1035.45 129.61,-1035.79 134.398,-1036.18 139.008,-1036.62 143.423,-1037.1 147.626,-1037.63 151.603,-1038.19 155.341,-1038.8 158.829,-1039.44 162.055,-1040.12 165.011,-1040.84 167.689,-1041.59 170.084,-1042.37 172.192,-1043.18 174.009,-1044.01 175.536,-1044.87 176.771,-1045.75 177.717,-1046.65 178.377,-1047.56 178.755,-1048.49 178.857,-1049.44 178.689,-1050.39 178.259,-1051.34 177.576,-1052.31 176.649,-1053.27 175.488,-1054.23 174.105,-1055.19 172.509,-1056.14 170.714,-1057.08 168.73,-1058.01 166.571,-1058.93 164.247,-1059.83 161.771,-1060.71 159.155,-1061.57 156.41,-1062.4 153.548,-1063.21 150.58,-1063.99 147.517,-1064.74 144.367,-1065.45 141.141,-1066.13 137.847,-1066.78 134.495,-1067.38 131.09,-1067.95 127.641,-1068.47 124.153,-1068.96 120.633,-1069.39 117.086,-1069.79 113.515,-1070.13 109.926,-1070.43 106.322,-1070.68 102.707,-1070.88 99.0822,-1071.03 95.4517,-1071.13 91.8176,-1071.18 88.1824,-1071.18 84.5483,-1071.13 80.9178,-1071.03 77.2933,-1070.88 73.6776,-1070.68 70.0736,-1070.43 66.4846,-1070.13 62.9143,-1069.79 59.3667,-1069.39 55.8466,-1068.96 52.3591,-1068.47 48.9099,-1067.95 45.5054,-1067.38 42.1526,-1066.78 38.8591,-1066.13 35.6331,-1065.45 32.4835,-1064.74 29.4197,-1063.99 26.4516,-1063.21 23.5898,-1062.4 20.8452,-1061.57 18.2291,-1060.71 15.7532,-1059.83 13.4293,-1058.93 11.2696,-1058.01 9.286,-1057.08 7.49062,-1056.14 5.89532,-1055.19 4.51171,-1054.23 3.35103,-1053.27 2.42405,-1052.31 1.74092,-1051.34 1.31108,-1050.39 1.14316,-1049.44 1.24486,-1048.49 1.62287,-1047.56 2.28273,-1046.65 3.22881,-1045.75 4.46417,-1044.87 5.99052,-1044.01 7.80815,-1043.18 9.91588,-1042.37 12.311,-1041.59 14.9894,-1040.84 17.9453,-1040.12 21.1713,-1039.44 24.6586,-1038.8 28.3968,-1038.19 32.3742,-1037.63 36.5774,-1037.1 40.992,-1036.62 45.6018,-1036.18 50.3899,-1035.79 55.338,-1035.45 60.4269,-1035.15 65.6365,-1034.9 70.9458,-1034.7 76.3335,-1034.55 81.7775,-1034.45 87.2554,-1034.4 92.7446,-1034.4 98.2225,-1034.45"/>
<text text-anchor="middle" x="90" y="-1049.19" font-family="Times Roman,serif" font-size="14.00">original.cxx:25</text>
</g>
<!-- n22_1213819723&#45;&gt;n32_11407624269635001793 -->
<g id="edge38" class="edge"><title>n22_1213819723&#45;&gt;n32_11407624269635001793</title>
<path fill="none" stroke="black" d="M526.168,-1883.84C467.556,-1772.16 172.887,-1210.72 104.287,-1080.01"/>
<polygon fill="black" stroke="black" points="107.316,-1078.25 99.5693,-1071.02 101.117,-1081.5 107.316,-1078.25"/>
<text text-anchor="middle" x="294.937" y="-1482.96" font-family="Times Roman,serif" font-size="14.00">instantiation</text>
</g>
<!-- n1_40498728 -->
<g id="node21" class="node"><title>n1_40498728</title>
<polygon fill="none" stroke="black" points="147.026,-1318.08 93.0265,-1318.08 93.0265,-1282.08 147.026,-1282.08 147.026,-1318.08"/>
<text text-anchor="middle" x="120.026" y="-1296.48" font-family="Times Roman,serif" font-size="14.00">int</text>
</g>
<!-- n22_1213819723&#45;&gt;n1_40498728 -->
<g id="edge42" class="edge"><title>n22_1213819723&#45;&gt;n1_40498728</title>
<path fill="none" stroke="red" d="M523.869,-1885.15C464.385,-1798.97 209.245,-1429.33 138.359,-1326.64"/>
<polygon fill="red" stroke="red" points="141.201,-1324.59 132.64,-1318.35 135.441,-1328.57 141.201,-1324.59"/>
<text text-anchor="middle" x="320.349" y="-1604.29" font-family="Times Roman,serif" font-size="14.00">3</text>
</g>
<!-- n1_40498704 -->
<g id="node24" class="node"><title>n1_40498704</title>
<polygon fill="none" stroke="black" points="376.869,-385.569 322.869,-385.569 322.869,-349.569 376.869,-349.569 376.869,-385.569"/>
<text text-anchor="middle" x="349.869" y="-363.969" font-family="Times Roman,serif" font-size="14.00">short</text>
</g>
<!-- n22_1213819723&#45;&gt;n1_40498704 -->
<g id="edge44" class="edge"><title>n22_1213819723&#45;&gt;n1_40498704</title>
<path fill="none" stroke="red" d="M533.4,-1879.07C511.743,-1700.72 376.663,-588.237 353.308,-395.887"/>
<polygon fill="red" stroke="red" points="356.756,-395.244 352.076,-385.738 349.807,-396.087 356.756,-395.244"/>
<text text-anchor="middle" x="449.721" y="-1128.67" font-family="Times Roman,serif" font-size="14.00">4</text>
</g>
<!-- n22_3039830998 -->
<g id="node11" class="node"><title>n22_3039830998</title>
<polygon fill="none" stroke="black" points="120.026,-831.498 81.0265,-805.498 120.026,-779.498 159.026,-805.498 120.026,-831.498"/>
<text text-anchor="middle" x="120.026" y="-801.898" font-family="Times Roman,serif" font-size="14.00">if_c</text>
</g>
<!-- n22_3039830998&#45;&gt;n8_1030972443 -->
<g id="edge48" class="edge"><title>n22_3039830998&#45;&gt;n8_1030972443</title>
<path fill="none" stroke="red" d="M139.276,-818.785C303.225,-931.951 1464.27,-1733.36 1676.91,-1880.14"/>
<polygon fill="red" stroke="red" points="1674.99,-1883.06 1685.2,-1885.86 1678.96,-1877.3 1674.99,-1883.06"/>
<text text-anchor="middle" x="906.077" y="-1357.61" font-family="Times Roman,serif" font-size="14.00">2</text>
</g>
<!-- n22_3039830998&#45;&gt;n32_11407624269635001793 -->
<g id="edge46" class="edge"><title>n22_3039830998&#45;&gt;n32_11407624269635001793</title>
<path fill="none" stroke="black" d="M117.093,-829.66C111.525,-875.515 99.4497,-974.963 93.4821,-1024.11"/>
<polygon fill="black" stroke="black" points="90.0031,-1023.73 92.2722,-1034.08 96.9521,-1024.57 90.0031,-1023.73"/>
<text text-anchor="middle" x="86.7053" y="-926.079" font-family="Times Roman,serif" font-size="14.00">instantiation</text>
</g>
<!-- n22_3039830998&#45;&gt;n1_40498728 -->
<g id="edge50" class="edge"><title>n22_3039830998&#45;&gt;n1_40498728</title>
<path fill="none" stroke="red" d="M120.026,-831.74C120.026,-916.762 120.026,-1184.22 120.026,-1271.92"/>
<polygon fill="red" stroke="red" points="116.527,-1271.93 120.026,-1281.93 123.527,-1271.93 116.527,-1271.93"/>
<text text-anchor="middle" x="114.026" y="-1052.92" font-family="Times Roman,serif" font-size="14.00">3</text>
</g>
<!-- n22_3039830998&#45;&gt;n1_40498704 -->
<g id="edge52" class="edge"><title>n22_3039830998&#45;&gt;n1_40498704</title>
<path fill="none" stroke="red" d="M130.199,-786.116C166.932,-716.127 292.802,-476.302 335.539,-394.874"/>
<polygon fill="red" stroke="red" points="338.779,-396.232 340.327,-385.751 332.58,-392.979 338.779,-396.232"/>
<text text-anchor="middle" x="227.229" y="-578.399" font-family="Times Roman,serif" font-size="14.00">4</text>
</g>
<!-- n32_9929354688704599018 -->
<g id="node12" class="node"><title>n32_9929354688704599018</title>
<polygon fill="none" stroke="black" points="216.583,-1514.66 222.027,-1514.76 227.415,-1514.91 232.724,-1515.11 237.934,-1515.36 243.023,-1515.65 247.971,-1516 252.759,-1516.39 257.369,-1516.83 261.783,-1517.31 265.987,-1517.84 269.964,-1518.4 273.702,-1519.01 277.19,-1519.65 280.416,-1520.33 283.371,-1521.05 286.05,-1521.8 288.445,-1522.58 290.553,-1523.38 292.37,-1524.22 293.897,-1525.08 295.132,-1525.96 296.078,-1526.86 296.738,-1527.77 297.116,-1528.7 297.218,-1529.64 297.05,-1530.6 296.62,-1531.55 295.937,-1532.52 295.01,-1533.48 293.849,-1534.44 292.466,-1535.4 290.87,-1536.35 289.075,-1537.29 287.091,-1538.22 284.932,-1539.14 282.608,-1540.04 280.132,-1540.92 277.516,-1541.78 274.771,-1542.61 271.909,-1543.42 268.941,-1544.2 265.877,-1544.95 262.728,-1545.66 259.502,-1546.34 256.208,-1546.99 252.855,-1547.59 249.451,-1548.16 246.002,-1548.68 242.514,-1549.17 238.994,-1549.6 235.447,-1549.99 231.876,-1550.34 228.287,-1550.64 224.683,-1550.89 221.068,-1551.09 217.443,-1551.24 213.813,-1551.34 210.178,-1551.39 206.543,-1551.39 202.909,-1551.34 199.279,-1551.24 195.654,-1551.09 192.038,-1550.89 188.434,-1550.64 184.845,-1550.34 181.275,-1549.99 177.728,-1549.6 174.207,-1549.17 170.72,-1548.68 167.271,-1548.16 163.866,-1547.59 160.513,-1546.99 157.22,-1546.34 153.994,-1545.66 150.844,-1544.95 147.781,-1544.2 144.812,-1543.42 141.951,-1542.61 139.206,-1541.78 136.59,-1540.92 134.114,-1540.04 131.79,-1539.14 129.63,-1538.22 127.647,-1537.29 125.851,-1536.35 124.256,-1535.4 122.873,-1534.44 121.712,-1533.48 120.785,-1532.52 120.102,-1531.55 119.672,-1530.6 119.504,-1529.64 119.606,-1528.7 119.984,-1527.77 120.644,-1526.86 121.59,-1525.96 122.825,-1525.08 124.351,-1524.22 126.169,-1523.38 128.277,-1522.58 130.672,-1521.8 133.35,-1521.05 136.306,-1520.33 139.532,-1519.65 143.019,-1519.01 146.758,-1518.4 150.735,-1517.84 154.938,-1517.31 159.353,-1516.83 163.963,-1516.39 168.751,-1516 173.699,-1515.65 178.788,-1515.36 183.997,-1515.11 189.307,-1514.91 194.694,-1514.76 200.138,-1514.66 205.616,-1514.61 211.105,-1514.61 216.583,-1514.66"/>
<text text-anchor="middle" x="208.361" y="-1529.4" font-family="Times Roman,serif" font-size="14.00">original.cxx:35</text>
</g>
<!-- n1_40498920 -->
<g id="node14" class="node"><title>n1_40498920</title>
<polygon fill="none" stroke="black" points="2065.28,-1551 2011.28,-1551 2011.28,-1515 2065.28,-1515 2065.28,-1551"/>
<text text-anchor="middle" x="2038.28" y="-1529.4" font-family="Times Roman,serif" font-size="14.00">float</text>
</g>
<!-- n32_17546584348293785403 -->
<g id="node15" class="node"><title>n32_17546584348293785403</title>
<polygon fill="none" stroke="black" points="1256.1,-8.65933 1261.54,-8.76001 1266.93,-8.91068 1272.24,-9.11094 1277.45,-9.36023 1282.54,-9.65786 1287.49,-10.003 1292.27,-10.3948 1296.88,-10.8321 1301.3,-11.3137 1305.5,-11.8382 1309.48,-12.4044 1313.22,-13.0105 1316.7,-13.655 1319.93,-14.3361 1322.89,-15.0519 1325.56,-15.8004 1327.96,-16.5796 1330.07,-17.3874 1331.89,-18.2215 1333.41,-19.0797 1334.65,-19.9596 1335.59,-20.8588 1336.25,-21.7749 1336.63,-22.7052 1336.73,-23.6473 1336.56,-24.5987 1336.13,-25.5566 1335.45,-26.5184 1334.52,-27.4816 1333.36,-28.4434 1331.98,-29.4013 1330.38,-30.3527 1328.59,-31.2948 1326.61,-32.2251 1324.45,-33.1412 1322.12,-34.0404 1319.65,-34.9203 1317.03,-35.7785 1314.29,-36.6126 1311.42,-37.4204 1308.46,-38.1996 1305.39,-38.9481 1302.24,-39.6639 1299.02,-40.345 1295.72,-40.9895 1292.37,-41.5956 1288.97,-42.1618 1285.52,-42.6863 1282.03,-43.1679 1278.51,-43.6052 1274.96,-43.997 1271.39,-44.3421 1267.8,-44.6398 1264.2,-44.8891 1260.58,-45.0893 1256.96,-45.24 1253.33,-45.3407 1249.69,-45.3911 1246.06,-45.3911 1242.42,-45.3407 1238.79,-45.24 1235.17,-45.0893 1231.55,-44.8891 1227.95,-44.6398 1224.36,-44.3421 1220.79,-43.997 1217.24,-43.6052 1213.72,-43.1679 1210.23,-42.6863 1206.79,-42.1618 1203.38,-41.5956 1200.03,-40.9895 1196.73,-40.345 1193.51,-39.6639 1190.36,-38.9481 1187.3,-38.1996 1184.33,-37.4204 1181.47,-36.6126 1178.72,-35.7785 1176.1,-34.9203 1173.63,-34.0404 1171.3,-33.1412 1169.15,-32.2251 1167.16,-31.2948 1165.37,-30.3527 1163.77,-29.4013 1162.39,-28.4434 1161.23,-27.4816 1160.3,-26.5184 1159.62,-25.5566 1159.19,-24.5987 1159.02,-23.6473 1159.12,-22.7052 1159.5,-21.7749 1160.16,-20.8588 1161.1,-19.9596 1162.34,-19.0797 1163.87,-18.2215 1165.68,-17.3874 1167.79,-16.5796 1170.19,-15.8004 1172.87,-15.0519 1175.82,-14.3361 1179.05,-13.655 1182.53,-13.0105 1186.27,-12.4044 1190.25,-11.8382 1194.45,-11.3137 1198.87,-10.8321 1203.48,-10.3948 1208.27,-10.003 1213.21,-9.65786 1218.3,-9.36023 1223.51,-9.11094 1228.82,-8.91068 1234.21,-8.76001 1239.65,-8.65933 1245.13,-8.60892 1250.62,-8.60892 1256.1,-8.65933"/>
<text text-anchor="middle" x="1247.88" y="-23.4" font-family="Times Roman,serif" font-size="14.00">original.cxx:38</text>
</g>
<!-- n22_1741378925&#45;&gt;n32_17546584348293785403 -->
<g id="edge54" class="edge"><title>n22_1741378925&#45;&gt;n32_17546584348293785403</title>
<path fill="none" stroke="black" d="M1447.61,-76.2309C1409.82,-66.9153 1353.84,-53.1167 1310.75,-42.4962"/>
<polygon fill="black" stroke="black" points="1311.47,-39.0708 1300.93,-40.0759 1309.8,-45.8674 1311.47,-39.0708"/>
<text text-anchor="middle" x="1377.37" y="-41.5783" font-family="Times Roman,serif" font-size="14.00">instantiation</text>
</g>
<!-- n22_1741378925&#45;&gt;n1_40498704 -->
<g id="edge56" class="edge"><title>n22_1741378925&#45;&gt;n1_40498704</title>
<path fill="none" stroke="red" d="M1447.48,-97.0317C1266.44,-141.653 557.834,-316.31 387.051,-358.404"/>
<polygon fill="red" stroke="red" points="386.139,-355.024 377.267,-360.816 387.814,-361.821 386.139,-355.024"/>
<text text-anchor="middle" x="914.449" y="-235.305" font-family="Times Roman,serif" font-size="14.00">2</text>
</g>
<!-- n22_2871787445&#45;&gt;n32_17546584348293785403 -->
<g id="edge58" class="edge"><title>n22_2871787445&#45;&gt;n32_17546584348293785403</title>
<path fill="none" stroke="black" d="M1068.82,-27C1094.09,-27 1123.08,-27 1150.27,-27"/>
<polygon fill="black" stroke="black" points="1150.59,-30.5001 1160.59,-27 1150.59,-23.5001 1150.59,-30.5001"/>
<text text-anchor="middle" x="1114.66" y="-33.4" font-family="Times Roman,serif" font-size="14.00">instantiation</text>
</g>
<!-- n22_2871787445&#45;&gt;n1_40498728 -->
<g id="edge60" class="edge"><title>n22_2871787445&#45;&gt;n1_40498728</title>
<path fill="none" stroke="red" d="M984.431,-47.7728C881.291,-197.196 253.343,-1106.94 138.165,-1273.8"/>
<polygon fill="red" stroke="red" points="135.281,-1271.82 132.481,-1282.03 141.042,-1275.79 135.281,-1271.82"/>
<text text-anchor="middle" x="550.524" y="-655.206" font-family="Times Roman,serif" font-size="14.00">2</text>
</g>
<!-- n22_2695967745 -->
<g id="node19" class="node"><title>n22_2695967745</title>
<polygon fill="none" stroke="black" points="349.869,-1764.01 317.869,-1738.01 349.869,-1712.01 381.869,-1738.01 349.869,-1764.01"/>
<text text-anchor="middle" x="349.869" y="-1734.41" font-family="Times Roman,serif" font-size="14.00">if_</text>
</g>
<!-- n22_2695967745&#45;&gt;n22_1213819723 -->
<g id="edge70" class="edge"><title>n22_2695967745&#45;&gt;n22_1213819723</title>
<path fill="none" stroke="blue" d="M365.446,-1751.81C397.805,-1780.47 472.53,-1846.68 511.566,-1881.26"/>
<polygon fill="blue" stroke="blue" points="509.52,-1884.12 519.326,-1888.13 514.162,-1878.88 509.52,-1884.12"/>
</g>
<!-- n22_2695967745&#45;&gt;n32_9929354688704599018 -->
<g id="edge62" class="edge"><title>n22_2695967745&#45;&gt;n32_9929354688704599018</title>
<path fill="none" stroke="black" d="M338.289,-1721.23C313.711,-1685.62 256.165,-1602.25 226.601,-1559.42"/>
<polygon fill="black" stroke="black" points="229.47,-1557.42 220.909,-1551.18 223.709,-1561.39 229.47,-1557.42"/>
<text text-anchor="middle" x="295.597" y="-1621.6" font-family="Times Roman,serif" font-size="14.00">instantiation</text>
</g>
<!-- n22_2695967745&#45;&gt;n1_40498728 -->
<g id="edge66" class="edge"><title>n22_2695967745&#45;&gt;n1_40498728</title>
<path fill="none" stroke="red" d="M340.286,-1719.75C304.364,-1651.3 177.564,-1409.71 134.478,-1327.61"/>
<polygon fill="red" stroke="red" points="137.397,-1325.64 129.651,-1318.42 131.199,-1328.9 137.397,-1325.64"/>
<text text-anchor="middle" x="242.95" y="-1511.45" font-family="Times Roman,serif" font-size="14.00">3</text>
</g>
<!-- n22_2695967745&#45;&gt;n1_40498704 -->
<g id="edge68" class="edge"><title>n22_2695967745&#45;&gt;n1_40498704</title>
<path fill="none" stroke="red" d="M349.869,-1711.86C349.869,-1540.05 349.869,-574.452 349.869,-395.948"/>
<polygon fill="red" stroke="red" points="353.37,-395.786 349.869,-385.786 346.37,-395.786 353.37,-395.786"/>
<text text-anchor="middle" x="355.869" y="-1045.29" font-family="Times Roman,serif" font-size="14.00">4</text>
</g>
<!-- n22_2695967745&#45;&gt;n22_30076986 -->
<g id="edge64" class="edge"><title>n22_2695967745&#45;&gt;n22_30076986</title>
<path fill="none" stroke="red" d="M371.739,-1729.71C556.411,-1659.68 1854.58,-1167.35 2112.25,-1069.63"/>
<polygon fill="red" stroke="red" points="2113.56,-1072.87 2121.67,-1066.05 2111.08,-1066.33 2113.56,-1072.87"/>
<text text-anchor="middle" x="1242.35" y="-1384.42" font-family="Times Roman,serif" font-size="14.00">2</text>
</g>
<!-- n22_1378728391 -->
<g id="node20" class="node"><title>n22_1378728391</title>
<polygon fill="none" stroke="black" points="208.361,-598.579 176.361,-572.579 208.361,-546.579 240.361,-572.579 208.361,-598.579"/>
<text text-anchor="middle" x="208.361" y="-568.979" font-family="Times Roman,serif" font-size="14.00">if_</text>
</g>
<!-- n22_1378728391&#45;&gt;n22_3039830998 -->
<g id="edge80" class="edge"><title>n22_1378728391&#45;&gt;n22_3039830998</title>
<path fill="none" stroke="blue" d="M200.676,-592.842C185.158,-633.76 150,-726.464 131.656,-774.832"/>
<polygon fill="blue" stroke="blue" points="128.284,-773.855 128.01,-784.446 134.829,-776.337 128.284,-773.855"/>
</g>
<!-- n22_1378728391&#45;&gt;n32_9929354688704599018 -->
<g id="edge72" class="edge"><title>n22_1378728391&#45;&gt;n32_9929354688704599018</title>
<path fill="none" stroke="black" d="M208.361,-598.766C208.361,-735.014 208.361,-1362.01 208.361,-1504.25"/>
<polygon fill="black" stroke="black" points="204.861,-1504.36 208.361,-1514.36 211.861,-1504.36 204.861,-1504.36"/>
<text text-anchor="middle" x="226.361" y="-1052.96" font-family="Times Roman,serif" font-size="14.00">instantiation</text>
</g>
<!-- n22_1378728391&#45;&gt;n1_40498728 -->
<g id="edge76" class="edge"><title>n22_1378728391&#45;&gt;n1_40498728</title>
<path fill="none" stroke="red" d="M205.472,-596.371C192.266,-705.132 137.676,-1154.72 123.436,-1272"/>
<polygon fill="red" stroke="red" points="119.954,-1271.64 122.223,-1281.99 126.903,-1272.48 119.954,-1271.64"/>
<text text-anchor="middle" x="156.841" y="-935.633" font-family="Times Roman,serif" font-size="14.00">3</text>
</g>
<!-- n22_1378728391&#45;&gt;n1_40498704 -->
<g id="edge78" class="edge"><title>n22_1378728391&#45;&gt;n1_40498704</title>
<path fill="none" stroke="red" d="M219.941,-555.803C244.519,-520.195 302.065,-436.825 331.629,-393.994"/>
<polygon fill="red" stroke="red" points="334.521,-395.966 337.321,-385.748 328.76,-391.99 334.521,-395.966"/>
<text text-anchor="middle" x="270.633" y="-461.173" font-family="Times Roman,serif" font-size="14.00">4</text>
</g>
<!-- n22_1378728391&#45;&gt;n22_2956297009 -->
<g id="edge74" class="edge"><title>n22_1378728391&#45;&gt;n22_2956297009</title>
<path fill="none" stroke="red" d="M225.9,-584.686C389.248,-697.437 1643.43,-1563.14 1863.78,-1715.23"/>
<polygon fill="red" stroke="red" points="1861.83,-1718.14 1872.05,-1720.94 1865.81,-1712.38 1861.83,-1718.14"/>
<text text-anchor="middle" x="1043.16" y="-1158.34" font-family="Times Roman,serif" font-size="14.00">2</text>
</g>
<!-- n22_2604720182 -->
<g id="node22" class="node"><title>n22_2604720182</title>
<polygon fill="none" stroke="black" points="998.769,-2104.58 945.769,-2078.58 998.769,-2052.58 1051.77,-2078.58 998.769,-2104.58"/>
<text text-anchor="middle" x="998.769" y="-2074.98" font-family="Times Roman,serif" font-size="14.00">bool_</text>
</g>
<!-- n22_2604720182&#45;&gt;n32_12883939255363387905 -->
<g id="edge82" class="edge"><title>n22_2604720182&#45;&gt;n32_12883939255363387905</title>
<path fill="none" stroke="black" d="M1051.9,-2078.58C1080.52,-2078.58 1116.74,-2078.58 1150.23,-2078.58"/>
<polygon fill="black" stroke="black" points="1150.52,-2082.08 1160.52,-2078.58 1150.52,-2075.08 1150.52,-2082.08"/>
<text text-anchor="middle" x="1106.37" y="-2064.98" font-family="Times Roman,serif" font-size="14.00">instantiation</text>
</g>
<!-- n22_2604720182&#45;&gt;n8_1773484321 -->
<g id="edge84" class="edge"><title>n22_2604720182&#45;&gt;n8_1773484321</title>
<path fill="none" stroke="red" d="M963.34,-2069.84C918.815,-2058.87 842.629,-2040.09 796.308,-2028.67"/>
<polygon fill="red" stroke="red" points="796.884,-2025.21 786.337,-2026.22 795.209,-2032.01 796.884,-2025.21"/>
<text text-anchor="middle" x="876.797" y="-2034.42" font-family="Times Roman,serif" font-size="14.00">2</text>
</g>
<!-- n22_3175660132 -->
<g id="node23" class="node"><title>n22_3175660132</title>
<polygon fill="none" stroke="black" points="1489.74,-2044.96 1436.74,-2018.96 1489.74,-1992.96 1542.74,-2018.96 1489.74,-2044.96"/>
<text text-anchor="middle" x="1489.74" y="-2015.36" font-family="Times Roman,serif" font-size="14.00">bool_</text>
</g>
<!-- n22_3175660132&#45;&gt;n8_1030972443 -->
<g id="edge88" class="edge"><title>n22_3175660132&#45;&gt;n8_1030972443</title>
<path fill="none" stroke="red" d="M1515.48,-2005.46C1554.73,-1984.85 1629.71,-1945.5 1674.33,-1922.08"/>
<polygon fill="red" stroke="red" points="1676.14,-1925.08 1683.37,-1917.34 1672.89,-1918.89 1676.14,-1925.08"/>
<text text-anchor="middle" x="1594.41" y="-1947.81" font-family="Times Roman,serif" font-size="14.00">2</text>
</g>
<!-- n22_3175660132&#45;&gt;n32_12883939255363387905 -->
<g id="edge86" class="edge"><title>n22_3175660132&#45;&gt;n32_12883939255363387905</title>
<path fill="none" stroke="black" d="M1454.31,-2027.69C1418.69,-2036.47 1362.81,-2050.25 1318.17,-2061.25"/>
<polygon fill="black" stroke="black" points="1317.12,-2057.91 1308.24,-2063.7 1318.79,-2064.7 1317.12,-2057.91"/>
<text text-anchor="middle" x="1384.15" y="-2055.13" font-family="Times Roman,serif" font-size="14.00">instantiation</text>
</g>
<!-- n22_30076986&#45;&gt;n1_40498944 -->
<g id="edge94" class="edge"><title>n22_30076986&#45;&gt;n1_40498944</title>
<path fill="none" stroke="red" d="M2227.9,-1052.79C2227.97,-1052.79 2228.04,-1052.79 2228.11,-1052.79"/>
<polygon fill="red" stroke="red" points="2218.32,-1056.29 2228.32,-1052.79 2218.31,-1049.29 2218.32,-1056.29"/>
<text text-anchor="middle" x="2228" y="-1039.19" font-family="Times Roman,serif" font-size="14.00">3</text>
</g>
<!-- n22_30076986&#45;&gt;n1_40498920 -->
<g id="edge92" class="edge"><title>n22_30076986&#45;&gt;n1_40498920</title>
<path fill="none" stroke="red" d="M2150.69,-1076.93C2130.76,-1157.81 2066.39,-1418.97 2045.15,-1505.13"/>
<polygon fill="red" stroke="red" points="2041.72,-1504.42 2042.73,-1514.97 2048.52,-1506.1 2041.72,-1504.42"/>
<text text-anchor="middle" x="2103.67" y="-1293.52" font-family="Times Roman,serif" font-size="14.00">2</text>
</g>
<!-- n22_30076986&#45;&gt;n22_2604720182 -->
<g id="edge96" class="edge"><title>n22_30076986&#45;&gt;n22_2604720182</title>
<path fill="none" stroke="blue" d="M2135.56,-1071.47C1994.18,-1196.72 1184.94,-1913.64 1025.9,-2054.54"/>
<polygon fill="blue" stroke="blue" points="1023.16,-2052.29 1017.99,-2061.55 1027.8,-2057.53 1023.16,-2052.29"/>
</g>
<!-- n32_5226358432096855147 -->
<g id="node27" class="node"><title>n32_5226358432096855147</title>
<polygon fill="none" stroke="black" points="2134.84,-1281.74 2140.28,-1281.84 2145.67,-1281.99 2150.98,-1282.19 2156.19,-1282.44 2161.28,-1282.74 2166.23,-1283.08 2171.02,-1283.47 2175.63,-1283.91 2180.04,-1284.39 2184.24,-1284.92 2188.22,-1285.48 2191.96,-1286.09 2195.45,-1286.73 2198.67,-1287.41 2201.63,-1288.13 2204.31,-1288.88 2206.7,-1289.66 2208.81,-1290.47 2210.63,-1291.3 2212.15,-1292.16 2213.39,-1293.04 2214.34,-1293.94 2215,-1294.85 2215.37,-1295.78 2215.48,-1296.73 2215.31,-1297.68 2214.88,-1298.64 2214.19,-1299.6 2213.27,-1300.56 2212.11,-1301.52 2210.72,-1302.48 2209.13,-1303.43 2207.33,-1304.37 2205.35,-1305.3 2203.19,-1306.22 2200.87,-1307.12 2198.39,-1308 2195.77,-1308.86 2193.03,-1309.69 2190.17,-1310.5 2187.2,-1311.28 2184.13,-1312.03 2180.99,-1312.74 2177.76,-1313.42 2174.47,-1314.07 2171.11,-1314.67 2167.71,-1315.24 2164.26,-1315.76 2160.77,-1316.25 2157.25,-1316.68 2153.7,-1317.08 2150.13,-1317.42 2146.54,-1317.72 2142.94,-1317.97 2139.32,-1318.17 2135.7,-1318.32 2132.07,-1318.42 2128.44,-1318.47 2124.8,-1318.47 2121.17,-1318.42 2117.54,-1318.32 2113.91,-1318.17 2110.3,-1317.97 2106.69,-1317.72 2103.1,-1317.42 2099.53,-1317.08 2095.98,-1316.68 2092.46,-1316.25 2088.98,-1315.76 2085.53,-1315.24 2082.12,-1314.67 2078.77,-1314.07 2075.48,-1313.42 2072.25,-1312.74 2069.1,-1312.03 2066.04,-1311.28 2063.07,-1310.5 2060.21,-1309.69 2057.46,-1308.86 2054.85,-1308 2052.37,-1307.12 2050.05,-1306.22 2047.89,-1305.3 2045.9,-1304.37 2044.11,-1303.43 2042.51,-1302.48 2041.13,-1301.52 2039.97,-1300.56 2039.04,-1299.6 2038.36,-1298.64 2037.93,-1297.68 2037.76,-1296.73 2037.86,-1295.78 2038.24,-1294.85 2038.9,-1293.94 2039.85,-1293.04 2041.08,-1292.16 2042.61,-1291.3 2044.43,-1290.47 2046.53,-1289.66 2048.93,-1288.88 2051.61,-1288.13 2054.56,-1287.41 2057.79,-1286.73 2061.28,-1286.09 2065.02,-1285.48 2068.99,-1284.92 2073.2,-1284.39 2077.61,-1283.91 2082.22,-1283.47 2087.01,-1283.08 2091.96,-1282.74 2097.05,-1282.44 2102.25,-1282.19 2107.56,-1281.99 2112.95,-1281.84 2118.4,-1281.74 2123.87,-1281.69 2129.36,-1281.69 2134.84,-1281.74"/>
<text text-anchor="middle" x="2126.62" y="-1296.48" font-family="Times Roman,serif" font-size="14.00">original.cxx:50</text>
</g>
<!-- n22_30076986&#45;&gt;n32_5226358432096855147 -->
<g id="edge90" class="edge"><title>n22_30076986&#45;&gt;n32_5226358432096855147</title>
<path fill="none" stroke="black" d="M2153.6,-1077.86C2147.99,-1124.09 2136.04,-1222.5 2130.11,-1271.35"/>
<polygon fill="black" stroke="black" points="2126.6,-1271.19 2128.87,-1281.54 2133.55,-1272.03 2126.6,-1271.19"/>
<text text-anchor="middle" x="2123.25" y="-1174.01" font-family="Times Roman,serif" font-size="14.00">instantiation</text>
</g>
<!-- n22_2956297009&#45;&gt;n1_40498920 -->
<g id="edge100" class="edge"><title>n22_2956297009&#45;&gt;n1_40498920</title>
<path fill="none" stroke="red" d="M1915.52,-1718.55C1944.72,-1681.71 1999.85,-1601.96 2025.2,-1559.98"/>
<polygon fill="red" stroke="red" points="2028.35,-1561.53 2030.41,-1551.14 2022.32,-1557.98 2028.35,-1561.53"/>
<text text-anchor="middle" x="1983.18" y="-1637.7" font-family="Times Roman,serif" font-size="14.00">2</text>
</g>
<!-- n22_2956297009&#45;&gt;n1_40498920 -->
<g id="edge102" class="edge"><title>n22_2956297009&#45;&gt;n1_40498920</title>
<path fill="none" stroke="red" d="M1907.14,-1715.58C1929.73,-1677.3 1983.01,-1599.73 2014.36,-1559.09"/>
<polygon fill="red" stroke="red" points="2017.28,-1561.03 2020.7,-1551 2011.78,-1556.71 2017.28,-1561.03"/>
<text text-anchor="middle" x="1953.71" y="-1622.45" font-family="Times Roman,serif" font-size="14.00">3</text>
</g>
<!-- n22_2956297009&#45;&gt;n22_3175660132 -->
<g id="edge104" class="edge"><title>n22_2956297009&#45;&gt;n22_3175660132</title>
<path fill="none" stroke="blue" d="M1871.93,-1755.16C1801.13,-1804.03 1598.47,-1943.92 1520.67,-1997.61"/>
<polygon fill="blue" stroke="blue" points="1518.49,-1994.87 1512.25,-2003.43 1522.46,-2000.63 1518.49,-1994.87"/>
</g>
<!-- n22_2956297009&#45;&gt;n32_5226358432096855147 -->
<g id="edge98" class="edge"><title>n22_2956297009&#45;&gt;n32_5226358432096855147</title>
<path fill="none" stroke="black" d="M1908.33,-1715.99C1946.73,-1642.82 2070.04,-1407.88 2112.27,-1327.41"/>
<polygon fill="black" stroke="black" points="2115.46,-1328.87 2117.01,-1318.39 2109.26,-1325.62 2115.46,-1328.87"/>
<text text-anchor="middle" x="2030.46" y="-1522.99" font-family="Times Roman,serif" font-size="14.00">instantiation</text>
</g>
</g>
</svg>
