<?xml version="1.0" encoding="UTF-8" standalone="no"?>
<!DOCTYPE svg PUBLIC "-//W3C//DTD SVG 1.1//EN"
 "http://www.w3.org/Graphics/SVG/1.1/DTD/svg11.dtd">
<!-- Generated by graphviz version 2.26.3 (20100126.1600)
 -->
<!-- Title: _anonymous_0 Pages: 1 -->
<svg width="1145pt" height="837pt"
 viewBox="0.00 0.00 1145.00 837.00" xmlns="http://www.w3.org/2000/svg" xmlns:xlink="http://www.w3.org/1999/xlink">
<g id="graph1" class="graph" transform="scale(1 1) rotate(0) translate(4 833)">
<title>_anonymous_0</title>
<polygon fill="white" stroke="white" points="-4,5 -4,-833 1142,-833 1142,5 -4,5"/>
<!-- n22_1077592855 -->
<g id="node1" class="node"><title>n22_1077592855</title>
<polygon fill="none" stroke="black" points="76.1299,-333.322 1.12988,-307.322 76.1299,-281.322 151.13,-307.322 76.1299,-333.322"/>
<text text-anchor="middle" x="76.1299" y="-303.722" font-family="Times Roman,serif" font-size="14.00">lazy_if_c</text>
</g>
<!-- n32_12465215423231841903 -->
<g id="node3" class="node"><title>n32_12465215423231841903</title>
<polygon fill="none" stroke="black" points="101.588,-29.9498 107.032,-30.0505 112.42,-30.2012 117.729,-30.4014 122.939,-30.6507 128.028,-30.9484 132.976,-31.2935 137.764,-31.6853 142.374,-32.1226 146.788,-32.6041 150.992,-33.1287 154.969,-33.6949 158.707,-34.301 162.195,-34.9455 165.421,-35.6266 168.376,-36.3423 171.055,-37.0909 173.45,-37.8701 175.558,-38.6779 177.375,-39.512 178.902,-40.3702 180.137,-41.2501 181.083,-42.1493 181.743,-43.0654 182.121,-43.9957 182.223,-44.9378 182.055,-45.8892 181.625,-46.847 180.942,-47.8089 180.015,-48.7721 178.854,-49.7339 177.471,-50.6918 175.875,-51.6431 174.08,-52.5853 172.096,-53.5156 169.937,-54.4317 167.613,-55.3309 165.137,-56.2108 162.521,-57.069 159.776,-57.9031 156.914,-58.7109 153.946,-59.4901 150.882,-60.2386 147.733,-60.9544 144.507,-61.6355 141.213,-62.28 137.86,-62.8861 134.456,-63.4523 131.007,-63.9768 127.519,-64.4584 123.999,-64.8957 120.452,-65.2875 116.881,-65.6326 113.292,-65.9303 109.688,-66.1796 106.073,-66.3798 102.448,-66.5305 98.8176,-66.6312 95.1835,-66.6816 91.5483,-66.6816 87.9142,-66.6312 84.2837,-66.5305 80.6592,-66.3798 77.0435,-66.1796 73.4395,-65.9303 69.8505,-65.6326 66.2802,-65.2875 62.7326,-64.8957 59.2125,-64.4584 55.725,-63.9768 52.2758,-63.4523 48.8713,-62.8861 45.5185,-62.28 42.225,-61.6355 38.999,-60.9544 35.8494,-60.2386 32.7856,-59.4901 29.8175,-58.7109 26.9557,-57.9031 24.2111,-57.069 21.595,-56.2108 19.1191,-55.3309 16.7953,-54.4317 14.6355,-53.5156 12.6519,-52.5853 10.8565,-51.6431 9.26123,-50.6918 7.87762,-49.7339 6.71695,-48.7721 5.78997,-47.8089 5.10683,-46.847 4.67699,-45.8892 4.50907,-44.9378 4.61077,-43.9957 4.98878,-43.0654 5.64864,-42.1493 6.59472,-41.2501 7.83008,-40.3702 9.35643,-39.512 11.1741,-38.6779 13.2818,-37.8701 15.677,-37.0909 18.3553,-36.3423 21.3112,-35.6266 24.5372,-34.9455 28.0245,-34.301 31.7627,-33.6949 35.7401,-33.1287 39.9434,-32.6041 44.3579,-32.1226 48.9677,-31.6853 53.7558,-31.2935 58.7039,-30.9484 63.7928,-30.6507 69.0024,-30.4014 74.3118,-30.2012 79.6994,-30.0505 85.1434,-29.9498 90.6213,-29.8994 96.1105,-29.8994 101.588,-29.9498"/>
<text text-anchor="middle" x="93.3659" y="-44.6905" font-family="Times Roman,serif" font-size="14.00">original.cxx:12</text>
</g>
<!-- n22_1077592855&#45;&gt;n32_12465215423231841903 -->
<g id="edge2" class="edge"><title>n22_1077592855&#45;&gt;n32_12465215423231841903</title>
<path fill="none" stroke="black" d="M77.8456,-281.538C81.0822,-232.896 88.0672,-127.921 91.4512,-77.0662"/>
<polygon fill="black" stroke="black" points="94.9632,-76.9998 92.135,-66.7895 87.9787,-76.535 94.9632,-76.9998"/>
<text text-anchor="middle" x="66.9852" y="-169.639" font-family="Times Roman,serif" font-size="14.00">instantiation</text>
</g>
<!-- n8_1773484321 -->
<g id="node7" class="node"><title>n8_1773484321</title>
<ellipse fill="none" stroke="black" cx="75.7935" cy="-529.017" rx="29.9071" ry="30.4056"/>
<text text-anchor="middle" x="75.7935" y="-525.417" font-family="Times Roman,serif" font-size="14.00">0x0</text>
</g>
<!-- n22_1077592855&#45;&gt;n8_1773484321 -->
<g id="edge4" class="edge"><title>n22_1077592855&#45;&gt;n8_1773484321</title>
<path fill="none" stroke="red" d="M76.09,-333.624C76.0319,-371.931 75.9234,-443.404 75.855,-488.473"/>
<polygon fill="red" stroke="red" points="72.3551,-488.491 75.8398,-498.497 79.3551,-488.502 72.3551,-488.491"/>
<text text-anchor="middle" x="81.9653" y="-412.22" font-family="Times Roman,serif" font-size="14.00">2</text>
</g>
<!-- n22_1741378925 -->
<g id="node17" class="node"><title>n22_1741378925</title>
<polygon fill="none" stroke="black" points="309.69,-267.602 239.69,-241.602 309.69,-215.602 379.69,-241.602 309.69,-267.602"/>
<text text-anchor="middle" x="309.69" y="-238.002" font-family="Times Roman,serif" font-size="14.00">identity</text>
</g>
<!-- n22_1077592855&#45;&gt;n22_1741378925 -->
<g id="edge8" class="edge"><title>n22_1077592855&#45;&gt;n22_1741378925</title>
<path fill="none" stroke="red" d="M117.617,-295.648C157.422,-284.448 217.572,-267.522 259.934,-255.603"/>
<polygon fill="red" stroke="red" points="261.082,-258.916 269.76,-252.838 259.186,-252.177 261.082,-258.916"/>
<text text-anchor="middle" x="195.752" y="-280.625" font-family="Times Roman,serif" font-size="14.00">4</text>
</g>
<!-- n22_2871787445 -->
<g id="node18" class="node"><title>n22_2871787445</title>
<polygon fill="none" stroke="black" points="488.973,-274.445 418.973,-248.445 488.973,-222.445 558.973,-248.445 488.973,-274.445"/>
<text text-anchor="middle" x="488.973" y="-244.845" font-family="Times Roman,serif" font-size="14.00">identity</text>
</g>
<!-- n22_1077592855&#45;&gt;n22_2871787445 -->
<g id="edge6" class="edge"><title>n22_1077592855&#45;&gt;n22_2871787445</title>
<path fill="none" stroke="red" d="M129.679,-299.685C206.464,-288.734 347.457,-268.627 428.103,-257.126"/>
<polygon fill="red" stroke="red" points="428.704,-260.575 438.11,-255.699 427.716,-253.646 428.704,-260.575"/>
<text text-anchor="middle" x="284.881" y="-284.094" font-family="Times Roman,serif" font-size="14.00">3</text>
</g>
<!-- n22_1772220736 -->
<g id="node2" class="node"><title>n22_1772220736</title>
<polygon fill="none" stroke="black" points="364.073,-53.1323 289.073,-27.1323 364.073,-1.1323 439.073,-27.1323 364.073,-53.1323"/>
<text text-anchor="middle" x="364.073" y="-23.5323" font-family="Times Roman,serif" font-size="14.00">lazy_if_c</text>
</g>
<!-- n22_1772220736&#45;&gt;n32_12465215423231841903 -->
<g id="edge10" class="edge"><title>n22_1772220736&#45;&gt;n32_12465215423231841903</title>
<path fill="none" stroke="black" d="M302.646,-31.9334C269.636,-34.5134 228.164,-37.7548 190.864,-40.6702"/>
<polygon fill="black" stroke="black" points="190.161,-37.2143 180.464,-41.483 190.707,-44.193 190.161,-37.2143"/>
<text text-anchor="middle" x="241.61" y="-22.1039" font-family="Times Roman,serif" font-size="14.00">instantiation</text>
</g>
<!-- n8_1030972443 -->
<g id="node4" class="node"><title>n8_1030972443</title>
<ellipse fill="none" stroke="black" cx="804.401" cy="-430.133" rx="29.9071" ry="30.4056"/>
<text text-anchor="middle" x="804.401" y="-426.533" font-family="Times Roman,serif" font-size="14.00">0x1</text>
</g>
<!-- n22_1772220736&#45;&gt;n8_1030972443 -->
<g id="edge12" class="edge"><title>n22_1772220736&#45;&gt;n8_1030972443</title>
<path fill="none" stroke="red" d="M384.721,-46.0293C455.795,-111.079 690.56,-325.943 774.354,-402.633"/>
<polygon fill="red" stroke="red" points="772.241,-405.444 781.981,-409.614 776.967,-400.28 772.241,-405.444"/>
<text text-anchor="middle" x="576.461" y="-232.323" font-family="Times Roman,serif" font-size="14.00">2</text>
</g>
<!-- n22_1772220736&#45;&gt;n22_1741378925 -->
<g id="edge16" class="edge"><title>n22_1772220736&#45;&gt;n22_1741378925</title>
<path fill="none" stroke="red" d="M357.941,-51.3178C348.22,-89.6541 329.247,-164.478 318.21,-208.003"/>
<polygon fill="red" stroke="red" points="314.783,-207.279 315.718,-217.832 321.568,-208.999 314.783,-207.279"/>
<text text-anchor="middle" x="328.847" y="-128.905" font-family="Times Roman,serif" font-size="14.00">4</text>
</g>
<!-- n22_1772220736&#45;&gt;n22_2871787445 -->
<g id="edge14" class="edge"><title>n22_1772220736&#45;&gt;n22_2871787445</title>
<path fill="none" stroke="red" d="M376.506,-49.1617C398.961,-88.951 446.316,-172.86 471.828,-218.066"/>
<polygon fill="red" stroke="red" points="468.812,-219.842 476.775,-226.831 474.908,-216.402 468.812,-219.842"/>
<text text-anchor="middle" x="434.577" y="-130.284" font-family="Times Roman,serif" font-size="14.00">3</text>
</g>
<!-- n1_40498944 -->
<g id="node5" class="node"><title>n1_40498944</title>
<polygon fill="none" stroke="black" points="803.32,-823.267 741.32,-823.267 741.32,-787.267 803.32,-787.267 803.32,-823.267"/>
<text text-anchor="middle" x="772.32" y="-801.667" font-family="Times Roman,serif" font-size="14.00">double</text>
</g>
<!-- n32_12883939255363387905 -->
<g id="node6" class="node"><title>n32_12883939255363387905</title>
<polygon fill="none" stroke="black" points="380.928,-790.859 386.372,-790.96 391.76,-791.11 397.069,-791.31 402.279,-791.56 407.368,-791.857 412.316,-792.203 417.104,-792.594 421.714,-793.032 426.128,-793.513 430.331,-794.038 434.309,-794.604 438.047,-795.21 441.534,-795.855 444.76,-796.536 447.716,-797.251 450.394,-798 452.79,-798.779 454.897,-799.587 456.715,-800.421 458.241,-801.279 459.477,-802.159 460.423,-803.058 461.083,-803.974 461.461,-804.905 461.562,-805.847 461.394,-806.798 460.965,-807.756 460.281,-808.718 459.354,-809.681 458.194,-810.643 456.81,-811.601 455.215,-812.552 453.419,-813.494 451.436,-814.425 449.276,-815.341 446.952,-816.24 444.476,-817.12 441.86,-817.978 439.116,-818.812 436.254,-819.62 433.286,-820.399 430.222,-821.148 427.072,-821.863 423.846,-822.545 420.553,-823.189 417.2,-823.795 413.796,-824.361 410.346,-824.886 406.859,-825.367 403.339,-825.805 399.791,-826.196 396.221,-826.542 392.632,-826.839 389.028,-827.089 385.412,-827.289 381.788,-827.44 378.157,-827.54 374.523,-827.591 370.888,-827.591 367.254,-827.54 363.623,-827.44 359.999,-827.289 356.383,-827.089 352.779,-826.839 349.19,-826.542 345.62,-826.196 342.072,-825.805 338.552,-825.367 335.065,-824.886 331.615,-824.361 328.211,-823.795 324.858,-823.189 321.565,-822.545 318.339,-821.863 315.189,-821.148 312.125,-820.399 309.157,-819.62 306.295,-818.812 303.551,-817.978 300.935,-817.12 298.459,-816.24 296.135,-815.341 293.975,-814.425 291.991,-813.494 290.196,-812.552 288.601,-811.601 287.217,-810.643 286.057,-809.681 285.13,-808.718 284.446,-807.756 284.017,-806.798 283.849,-805.847 283.95,-804.905 284.328,-803.974 284.988,-803.058 285.934,-802.159 287.17,-801.279 288.696,-800.421 290.514,-799.587 292.621,-798.779 295.017,-798 297.695,-797.251 300.651,-796.536 303.877,-795.855 307.364,-795.21 311.102,-794.604 315.08,-794.038 319.283,-793.513 323.697,-793.032 328.307,-792.594 333.095,-792.203 338.043,-791.857 343.132,-791.56 348.342,-791.31 353.651,-791.11 359.039,-790.96 364.483,-790.859 369.961,-790.808 375.45,-790.808 380.928,-790.859"/>
<text text-anchor="middle" x="372.705" y="-805.6" font-family="Times Roman,serif" font-size="14.00">original.cxx:42</text>
</g>
<!-- n22_1682610999 -->
<g id="node8" class="node"><title>n22_1682610999</title>
<polygon fill="none" stroke="black" points="321.787,-444.713 260.787,-418.713 321.787,-392.713 382.787,-418.713 321.787,-444.713"/>
<text text-anchor="middle" x="321.787" y="-415.113" font-family="Times Roman,serif" font-size="14.00">lazy_if</text>
</g>
<!-- n22_1682610999&#45;&gt;n22_1077592855 -->
<g id="edge26" class="edge"><title>n22_1682610999&#45;&gt;n22_1077592855</title>
<path fill="none" stroke="blue" d="M292.155,-405.276C248.757,-385.598 167.702,-348.844 118.163,-326.381"/>
<polygon fill="blue" stroke="blue" points="119.548,-323.166 108.995,-322.224 116.658,-329.542 119.548,-323.166"/>
</g>
<!-- n32_3683794977457051237 -->
<g id="node16" class="node"><title>n32_3683794977457051237</title>
<polygon fill="none" stroke="black" points="787.862,-10.4286 793.306,-10.5293 798.693,-10.68 804.003,-10.8803 809.212,-11.1295 814.301,-11.4272 819.249,-11.7723 824.037,-12.1641 828.647,-12.6014 833.062,-13.083 837.265,-13.6075 841.242,-14.1737 844.981,-14.7798 848.468,-15.4243 851.694,-16.1054 854.65,-16.8212 857.328,-17.5697 859.723,-18.3489 861.831,-19.1567 863.649,-19.9908 865.175,-20.849 866.41,-21.7289 867.356,-22.6281 868.016,-23.5442 868.394,-24.4745 868.496,-25.4167 868.328,-26.368 867.898,-27.3259 867.215,-28.2877 866.288,-29.2509 865.127,-30.2128 863.744,-31.1707 862.149,-32.122 860.353,-33.0641 858.37,-33.9945 856.21,-34.9105 853.886,-35.8097 851.41,-36.6896 848.794,-37.5478 846.049,-38.3819 843.188,-39.1897 840.219,-39.9689 837.156,-40.7175 834.006,-41.4332 830.78,-42.1143 827.487,-42.7588 824.134,-43.3649 820.729,-43.9311 817.28,-44.4557 813.793,-44.9372 810.272,-45.3745 806.725,-45.7663 803.155,-46.1114 799.566,-46.4091 795.962,-46.6584 792.346,-46.8586 788.721,-47.0093 785.091,-47.11 781.457,-47.1604 777.822,-47.1604 774.187,-47.11 770.557,-47.0093 766.932,-46.8586 763.317,-46.6584 759.713,-46.4091 756.124,-46.1114 752.553,-45.7663 749.006,-45.3745 745.486,-44.9372 741.998,-44.4557 738.549,-43.9311 735.145,-43.3649 731.792,-42.7588 728.498,-42.1143 725.272,-41.4332 722.123,-40.7175 719.059,-39.9689 716.091,-39.1897 713.229,-38.3819 710.484,-37.5478 707.868,-36.6896 705.392,-35.8097 703.068,-34.9105 700.909,-33.9945 698.925,-33.0641 697.13,-32.122 695.534,-31.1707 694.151,-30.2128 692.99,-29.2509 692.063,-28.2877 691.38,-27.3259 690.95,-26.368 690.782,-25.4167 690.884,-24.4745 691.262,-23.5442 691.922,-22.6281 692.868,-21.7289 694.103,-20.849 695.63,-19.9908 697.447,-19.1567 699.555,-18.3489 701.95,-17.5697 704.629,-16.8212 707.584,-16.1054 710.81,-15.4243 714.298,-14.7798 718.036,-14.1737 722.013,-13.6075 726.217,-13.083 730.631,-12.6014 735.241,-12.1641 740.029,-11.7723 744.977,-11.4272 750.066,-11.1295 755.276,-10.8803 760.585,-10.68 765.973,-10.5293 771.417,-10.4286 776.895,-10.3782 782.384,-10.3782 787.862,-10.4286"/>
<text text-anchor="middle" x="779.639" y="-25.1693" font-family="Times Roman,serif" font-size="14.00">original.cxx:22</text>
</g>
<!-- n22_1682610999&#45;&gt;n32_3683794977457051237 -->
<g id="edge18" class="edge"><title>n22_1682610999&#45;&gt;n32_3683794977457051237</title>
<path fill="none" stroke="black" d="M342.35,-401.2C415.929,-338.534 666.248,-125.342 751.18,-53.007"/>
<polygon fill="black" stroke="black" points="753.528,-55.6048 758.872,-46.4563 748.989,-50.2757 753.528,-55.6048"/>
<text text-anchor="middle" x="538.718" y="-206.137" font-family="Times Roman,serif" font-size="14.00">instantiation</text>
</g>
<!-- n22_1682610999&#45;&gt;n22_1741378925 -->
<g id="edge24" class="edge"><title>n22_1682610999&#45;&gt;n22_1741378925</title>
<path fill="none" stroke="red" d="M320.054,-393.337C317.976,-362.912 314.48,-311.724 312.13,-277.316"/>
<polygon fill="red" stroke="red" points="315.613,-276.956 311.44,-267.218 308.63,-277.433 315.613,-276.956"/>
<text text-anchor="middle" x="321.758" y="-326.841" font-family="Times Roman,serif" font-size="14.00">4</text>
</g>
<!-- n22_1682610999&#45;&gt;n22_2871787445 -->
<g id="edge22" class="edge"><title>n22_1682610999&#45;&gt;n22_2871787445</title>
<path fill="none" stroke="red" d="M339.997,-400.167C369.659,-369.958 428.523,-310.009 462.708,-275.194"/>
<polygon fill="red" stroke="red" points="465.509,-277.337 470.017,-267.75 460.514,-272.433 465.509,-277.337"/>
<text text-anchor="middle" x="396.983" y="-323.383" font-family="Times Roman,serif" font-size="14.00">3</text>
</g>
<!-- n22_30076986 -->
<g id="node25" class="node"><title>n22_30076986</title>
<polygon fill="none" stroke="black" points="577.093,-820.787 506.093,-794.787 577.093,-768.787 648.093,-794.787 577.093,-820.787"/>
<text text-anchor="middle" x="577.093" y="-791.187" font-family="Times Roman,serif" font-size="14.00">is_same</text>
</g>
<!-- n22_1682610999&#45;&gt;n22_30076986 -->
<g id="edge20" class="edge"><title>n22_1682610999&#45;&gt;n22_30076986</title>
<path fill="none" stroke="red" d="M335.513,-438.932C377.912,-501.387 506.942,-691.453 556.972,-765.148"/>
<polygon fill="red" stroke="red" points="554.158,-767.234 562.67,-773.541 559.949,-763.302 554.158,-767.234"/>
<text text-anchor="middle" x="457.032" y="-597.549" font-family="Times Roman,serif" font-size="14.00">2</text>
</g>
<!-- n22_3059588303 -->
<g id="node9" class="node"><title>n22_3059588303</title>
<polygon fill="none" stroke="black" points="655.161,-246.784 594.161,-220.784 655.161,-194.784 716.161,-220.784 655.161,-246.784"/>
<text text-anchor="middle" x="655.161" y="-217.184" font-family="Times Roman,serif" font-size="14.00">lazy_if</text>
</g>
<!-- n22_3059588303&#45;&gt;n22_1772220736 -->
<g id="edge36" class="edge"><title>n22_3059588303&#45;&gt;n22_1772220736</title>
<path fill="none" stroke="blue" d="M631.34,-204.937C579.832,-170.67 457.936,-89.5759 398.228,-49.8542"/>
<polygon fill="blue" stroke="blue" points="400.15,-46.9292 389.885,-44.3043 396.273,-52.7574 400.15,-46.9292"/>
</g>
<!-- n22_3059588303&#45;&gt;n32_3683794977457051237 -->
<g id="edge28" class="edge"><title>n22_3059588303&#45;&gt;n32_3683794977457051237</title>
<path fill="none" stroke="black" d="M668.483,-200.235C691.127,-165.304 737.111,-94.3712 762.256,-55.5831"/>
<polygon fill="black" stroke="black" points="765.377,-57.2042 767.88,-46.9092 759.503,-53.3964 765.377,-57.2042"/>
<text text-anchor="middle" x="701.12" y="-109.067" font-family="Times Roman,serif" font-size="14.00">instantiation</text>
</g>
<!-- n22_3059588303&#45;&gt;n22_1741378925 -->
<g id="edge34" class="edge"><title>n22_3059588303&#45;&gt;n22_1741378925</title>
<path fill="none" stroke="red" d="M601.56,-224.014C542.104,-227.597 445.93,-233.392 380.357,-237.344"/>
<polygon fill="red" stroke="red" points="379.877,-233.866 370.106,-237.961 380.298,-240.854 379.877,-233.866"/>
<text text-anchor="middle" x="485.807" y="-237.389" font-family="Times Roman,serif" font-size="14.00">4</text>
</g>
<!-- n22_3059588303&#45;&gt;n22_2871787445 -->
<g id="edge32" class="edge"><title>n22_3059588303&#45;&gt;n22_2871787445</title>
<path fill="none" stroke="red" d="M611.062,-228.124C591.56,-231.37 568.351,-235.233 547.432,-238.715"/>
<polygon fill="red" stroke="red" points="546.662,-235.295 537.373,-240.389 547.812,-242.2 546.662,-235.295"/>
<text text-anchor="middle" x="575.169" y="-240.665" font-family="Times Roman,serif" font-size="14.00">3</text>
</g>
<!-- n22_2956297009 -->
<g id="node26" class="node"><title>n22_2956297009</title>
<polygon fill="none" stroke="black" points="1031.66,-444.981 960.661,-418.981 1031.66,-392.981 1102.66,-418.981 1031.66,-444.981"/>
<text text-anchor="middle" x="1031.66" y="-415.381" font-family="Times Roman,serif" font-size="14.00">is_same</text>
</g>
<!-- n22_3059588303&#45;&gt;n22_2956297009 -->
<g id="edge30" class="edge"><title>n22_3059588303&#45;&gt;n22_2956297009</title>
<path fill="none" stroke="red" d="M682.541,-235.197C748.588,-269.966 916.821,-358.527 993.062,-398.662"/>
<polygon fill="red" stroke="red" points="991.845,-401.976 1002.32,-403.538 995.106,-395.782 991.845,-401.976"/>
<text text-anchor="middle" x="837.4" y="-325.75" font-family="Times Roman,serif" font-size="14.00">2</text>
</g>
<!-- n22_1213819723 -->
<g id="node10" class="node"><title>n22_1213819723</title>
<polygon fill="none" stroke="black" points="498.168,-448.824 459.168,-422.824 498.168,-396.824 537.168,-422.824 498.168,-448.824"/>
<text text-anchor="middle" x="498.168" y="-419.224" font-family="Times Roman,serif" font-size="14.00">if_c</text>
</g>
<!-- n22_1213819723&#45;&gt;n8_1773484321 -->
<g id="edge40" class="edge"><title>n22_1213819723&#45;&gt;n8_1773484321</title>
<path fill="none" stroke="red" d="M469.799,-429.957C396.215,-448.457 199.104,-498.014 114.855,-519.196"/>
<polygon fill="red" stroke="red" points="114.001,-515.802 105.156,-521.635 115.708,-522.591 114.001,-515.802"/>
<text text-anchor="middle" x="289.426" y="-482.209" font-family="Times Roman,serif" font-size="14.00">2</text>
</g>
<!-- n32_11407624269635001793 -->
<g id="node13" class="node"><title>n32_11407624269635001793</title>
<polygon fill="none" stroke="black" points="578.056,-7.19984 583.5,-7.30052 588.888,-7.45119 594.197,-7.65144 599.407,-7.90073 604.496,-8.19837 609.444,-8.54354 614.232,-8.9353 618.842,-9.37257 623.256,-9.85416 627.459,-10.3787 631.437,-10.9449 635.175,-11.551 638.662,-12.1955 641.888,-12.8766 644.844,-13.5924 647.522,-14.3409 649.918,-15.1201 652.025,-15.9279 653.843,-16.762 655.369,-17.6202 656.605,-18.5001 657.551,-19.3993 658.211,-20.3154 658.589,-21.2457 658.69,-22.1878 658.522,-23.1392 658.093,-24.0971 657.409,-25.0589 656.482,-26.0221 655.322,-26.9839 653.938,-27.9418 652.343,-28.8932 650.548,-29.8353 648.564,-30.7656 646.404,-31.6817 644.08,-32.5809 641.604,-33.4608 638.988,-34.319 636.244,-35.1531 633.382,-35.9609 630.414,-36.7401 627.35,-37.4887 624.2,-38.2044 620.974,-38.8855 617.681,-39.53 614.328,-40.1361 610.924,-40.7023 607.474,-41.2269 603.987,-41.7084 600.467,-42.1457 596.919,-42.5375 593.349,-42.8826 589.76,-43.1803 586.156,-43.4296 582.54,-43.6298 578.916,-43.7805 575.285,-43.8812 571.651,-43.9316 568.016,-43.9316 564.382,-43.8812 560.751,-43.7805 557.127,-43.6298 553.511,-43.4296 549.907,-43.1803 546.318,-42.8826 542.748,-42.5375 539.2,-42.1457 535.68,-41.7084 532.193,-41.2269 528.743,-40.7023 525.339,-40.1361 521.986,-39.53 518.693,-38.8855 515.467,-38.2044 512.317,-37.4887 509.253,-36.7401 506.285,-35.9609 503.423,-35.1531 500.679,-34.319 498.063,-33.4608 495.587,-32.5809 493.263,-31.6817 491.103,-30.7656 489.12,-29.8353 487.324,-28.8932 485.729,-27.9418 484.345,-26.9839 483.185,-26.0221 482.258,-25.0589 481.574,-24.0971 481.145,-23.1392 480.977,-22.1878 481.078,-21.2457 481.456,-20.3154 482.116,-19.3993 483.062,-18.5001 484.298,-17.6202 485.824,-16.762 487.642,-15.9279 489.749,-15.1201 492.145,-14.3409 494.823,-13.5924 497.779,-12.8766 501.005,-12.1955 504.492,-11.551 508.23,-10.9449 512.208,-10.3787 516.411,-9.85416 520.825,-9.37257 525.435,-8.9353 530.223,-8.54354 535.172,-8.19837 540.26,-7.90073 545.47,-7.65144 550.779,-7.45119 556.167,-7.30052 561.611,-7.19984 567.089,-7.14943 572.578,-7.14943 578.056,-7.19984"/>
<text text-anchor="middle" x="569.834" y="-21.9405" font-family="Times Roman,serif" font-size="14.00">original.cxx:25</text>
</g>
<!-- n22_1213819723&#45;&gt;n32_11407624269635001793 -->
<g id="edge38" class="edge"><title>n22_1213819723&#45;&gt;n32_11407624269635001793</title>
<path fill="none" stroke="black" d="M502.384,-399.456C514.766,-330.811 551.011,-129.885 564.604,-54.5314"/>
<polygon fill="black" stroke="black" points="568.109,-54.818 566.44,-44.3555 561.22,-53.5753 568.109,-54.818"/>
<text text-anchor="middle" x="515.411" y="-215.311" font-family="Times Roman,serif" font-size="14.00">instantiation</text>
</g>
<!-- n1_40498728 -->
<g id="node21" class="node"><title>n1_40498728</title>
<polygon fill="none" stroke="black" points="862.833,-271.771 808.833,-271.771 808.833,-235.771 862.833,-235.771 862.833,-271.771"/>
<text text-anchor="middle" x="835.833" y="-250.171" font-family="Times Roman,serif" font-size="14.00">int</text>
</g>
<!-- n22_1213819723&#45;&gt;n1_40498728 -->
<g id="edge42" class="edge"><title>n22_1213819723&#45;&gt;n1_40498728</title>
<path fill="none" stroke="red" d="M520.585,-411.601C577.701,-383.006 729.122,-307.196 799.245,-272.089"/>
<polygon fill="red" stroke="red" points="801.207,-275.021 808.582,-267.415 798.073,-268.762 801.207,-275.021"/>
<text text-anchor="middle" x="659.5" y="-325.95" font-family="Times Roman,serif" font-size="14.00">3</text>
</g>
<!-- n1_40498704 -->
<g id="node24" class="node"><title>n1_40498704</title>
<polygon fill="none" stroke="black" points="673.734,-400.17 619.734,-400.17 619.734,-364.17 673.734,-364.17 673.734,-400.17"/>
<text text-anchor="middle" x="646.734" y="-378.57" font-family="Times Roman,serif" font-size="14.00">short</text>
</g>
<!-- n22_1213819723&#45;&gt;n1_40498704 -->
<g id="edge44" class="edge"><title>n22_1213819723&#45;&gt;n1_40498704</title>
<path fill="none" stroke="red" d="M526.112,-415.178C549.784,-408.7 583.907,-399.362 609.824,-392.271"/>
<polygon fill="red" stroke="red" points="610.945,-395.592 619.667,-389.577 609.098,-388.841 610.945,-395.592"/>
<text text-anchor="middle" x="575.004" y="-408.746" font-family="Times Roman,serif" font-size="14.00">4</text>
</g>
<!-- n22_3039830998 -->
<g id="node11" class="node"><title>n22_3039830998</title>
<polygon fill="none" stroke="black" points="1048.35,-56.7144 1009.35,-30.7144 1048.35,-4.71437 1087.35,-30.7144 1048.35,-56.7144"/>
<text text-anchor="middle" x="1048.35" y="-27.1144" font-family="Times Roman,serif" font-size="14.00">if_c</text>
</g>
<!-- n22_3039830998&#45;&gt;n8_1030972443 -->
<g id="edge48" class="edge"><title>n22_3039830998&#45;&gt;n8_1030972443</title>
<path fill="none" stroke="red" d="M1036.91,-49.4435C998.769,-111.891 875.546,-313.647 825.661,-395.325"/>
<polygon fill="red" stroke="red" points="822.455,-393.86 820.229,-404.218 828.429,-397.508 822.455,-393.86"/>
<text text-anchor="middle" x="920.574" y="-218.222" font-family="Times Roman,serif" font-size="14.00">2</text>
</g>
<!-- n22_3039830998&#45;&gt;n32_11407624269635001793 -->
<g id="edge46" class="edge"><title>n22_3039830998&#45;&gt;n32_11407624269635001793</title>
<path fill="none" stroke="black" d="M1009.59,-30.2954C935.448,-29.4937 771.52,-27.7212 666.097,-26.5813"/>
<polygon fill="black" stroke="black" points="666.119,-23.0815 656.082,-26.4731 666.043,-30.0811 666.119,-23.0815"/>
<text text-anchor="middle" x="832.772" y="-34.7835" font-family="Times Roman,serif" font-size="14.00">instantiation</text>
</g>
<!-- n22_3039830998&#45;&gt;n1_40498728 -->
<g id="edge50" class="edge"><title>n22_3039830998&#45;&gt;n1_40498728</title>
<path fill="none" stroke="red" d="M1033.06,-46.756C996.628,-84.9999 904.403,-181.8 860.195,-228.201"/>
<polygon fill="red" stroke="red" points="857.389,-226.072 853.025,-235.727 862.457,-230.901 857.389,-226.072"/>
<text text-anchor="middle" x="950.933" y="-144.758" font-family="Times Roman,serif" font-size="14.00">3</text>
</g>
<!-- n22_3039830998&#45;&gt;n1_40498704 -->
<g id="edge52" class="edge"><title>n22_3039830998&#45;&gt;n1_40498704</title>
<path fill="none" stroke="red" d="M1031.35,-45.5915C969.136,-100.033 753.438,-288.792 675.289,-357.182"/>
<polygon fill="red" stroke="red" points="672.956,-354.572 667.735,-363.792 677.566,-359.84 672.956,-354.572"/>
<text text-anchor="middle" x="842.655" y="-192.993" font-family="Times Roman,serif" font-size="14.00">4</text>
</g>
<!-- n32_9929354688704599018 -->
<g id="node12" class="node"><title>n32_9929354688704599018</title>
<polygon fill="none" stroke="black" points="496.158,-572.074 501.602,-572.174 506.99,-572.325 512.299,-572.525 517.509,-572.775 522.597,-573.072 527.546,-573.417 532.334,-573.809 536.943,-574.246 541.358,-574.728 545.561,-575.253 549.539,-575.819 553.277,-576.425 556.764,-577.069 559.99,-577.75 562.946,-578.466 565.624,-579.215 568.02,-579.994 570.127,-580.802 571.945,-581.636 573.471,-582.494 574.707,-583.374 575.653,-584.273 576.313,-585.189 576.691,-586.119 576.792,-587.062 576.624,-588.013 576.195,-588.971 575.511,-589.933 574.584,-590.896 573.424,-591.858 572.04,-592.816 570.445,-593.767 568.649,-594.709 566.666,-595.639 564.506,-596.555 562.182,-597.455 559.706,-598.335 557.09,-599.193 554.346,-600.027 551.484,-600.835 548.516,-601.614 545.452,-602.362 542.302,-603.078 539.076,-603.759 535.783,-604.404 532.43,-605.01 529.026,-605.576 525.576,-606.101 522.089,-606.582 518.569,-607.019 515.021,-607.411 511.451,-607.756 507.862,-608.054 504.258,-608.303 500.642,-608.504 497.018,-608.654 493.387,-608.755 489.753,-608.805 486.118,-608.805 482.484,-608.755 478.853,-608.654 475.229,-608.504 471.613,-608.303 468.009,-608.054 464.42,-607.756 460.85,-607.411 457.302,-607.019 453.782,-606.582 450.295,-606.101 446.845,-605.576 443.441,-605.01 440.088,-604.404 436.795,-603.759 433.569,-603.078 430.419,-602.362 427.355,-601.614 424.387,-600.835 421.525,-600.027 418.781,-599.193 416.165,-598.335 413.689,-597.455 411.365,-596.555 409.205,-595.639 407.221,-594.709 405.426,-593.767 403.831,-592.816 402.447,-591.858 401.286,-590.896 400.359,-589.933 399.676,-588.971 399.247,-588.013 399.079,-587.062 399.18,-586.119 399.558,-585.189 400.218,-584.273 401.164,-583.374 402.4,-582.494 403.926,-581.636 405.744,-580.802 407.851,-579.994 410.246,-579.215 412.925,-578.466 415.881,-577.75 419.107,-577.069 422.594,-576.425 426.332,-575.819 430.31,-575.253 434.513,-574.728 438.927,-574.246 443.537,-573.809 448.325,-573.417 453.273,-573.072 458.362,-572.775 463.572,-572.525 468.881,-572.325 474.269,-572.174 479.713,-572.074 485.191,-572.023 490.68,-572.023 496.158,-572.074"/>
<text text-anchor="middle" x="487.935" y="-586.814" font-family="Times Roman,serif" font-size="14.00">original.cxx:35</text>
</g>
<!-- n1_40498920 -->
<g id="node14" class="node"><title>n1_40498920</title>
<polygon fill="none" stroke="black" points="1113.3,-599.48 1059.3,-599.48 1059.3,-563.48 1113.3,-563.48 1113.3,-599.48"/>
<text text-anchor="middle" x="1086.3" y="-577.88" font-family="Times Roman,serif" font-size="14.00">float</text>
</g>
<!-- n32_17546584348293785403 -->
<g id="node15" class="node"><title>n32_17546584348293785403</title>
<polygon fill="none" stroke="black" points="317.622,-578.192 323.066,-578.293 328.453,-578.443 333.763,-578.644 338.972,-578.893 344.061,-579.191 349.009,-579.536 353.797,-579.927 358.407,-580.365 362.822,-580.846 367.025,-581.371 371.002,-581.937 374.741,-582.543 378.228,-583.188 381.454,-583.869 384.41,-584.585 387.088,-585.333 389.483,-586.112 391.591,-586.92 393.409,-587.754 394.935,-588.612 396.17,-589.492 397.116,-590.391 397.776,-591.308 398.154,-592.238 398.256,-593.18 398.088,-594.131 397.658,-595.089 396.975,-596.051 396.048,-597.014 394.887,-597.976 393.504,-598.934 391.909,-599.885 390.113,-600.827 388.13,-601.758 385.97,-602.674 383.646,-603.573 381.17,-604.453 378.554,-605.311 375.809,-606.145 372.948,-606.953 369.979,-607.732 366.916,-608.481 363.766,-609.197 360.54,-609.878 357.247,-610.522 353.894,-611.128 350.489,-611.694 347.04,-612.219 343.553,-612.701 340.032,-613.138 336.485,-613.53 332.915,-613.875 329.326,-614.172 325.722,-614.422 322.106,-614.622 318.481,-614.773 314.851,-614.873 311.217,-614.924 307.582,-614.924 303.947,-614.873 300.317,-614.773 296.692,-614.622 293.077,-614.422 289.473,-614.172 285.884,-613.875 282.313,-613.53 278.766,-613.138 275.246,-612.701 271.758,-612.219 268.309,-611.694 264.905,-611.128 261.552,-610.522 258.258,-609.878 255.032,-609.197 251.883,-608.481 248.819,-607.732 245.851,-606.953 242.989,-606.145 240.244,-605.311 237.628,-604.453 235.152,-603.573 232.828,-602.674 230.669,-601.758 228.685,-600.827 226.89,-599.885 225.294,-598.934 223.911,-597.976 222.75,-597.014 221.823,-596.051 221.14,-595.089 220.71,-594.131 220.542,-593.18 220.644,-592.238 221.022,-591.308 221.682,-590.391 222.628,-589.492 223.863,-588.612 225.39,-587.754 227.207,-586.92 229.315,-586.112 231.71,-585.333 234.389,-584.585 237.344,-583.869 240.57,-583.188 244.058,-582.543 247.796,-581.937 251.773,-581.371 255.977,-580.846 260.391,-580.365 265.001,-579.927 269.789,-579.536 274.737,-579.191 279.826,-578.893 285.036,-578.644 290.345,-578.443 295.733,-578.293 301.177,-578.192 306.655,-578.142 312.144,-578.142 317.622,-578.192"/>
<text text-anchor="middle" x="309.399" y="-592.933" font-family="Times Roman,serif" font-size="14.00">original.cxx:38</text>
</g>
<!-- n22_1741378925&#45;&gt;n32_17546584348293785403 -->
<g id="edge54" class="edge"><title>n22_1741378925&#45;&gt;n32_17546584348293785403</title>
<path fill="none" stroke="black" d="M309.669,-267.701C309.616,-332.455 309.478,-500.123 309.423,-567.687"/>
<polygon fill="black" stroke="black" points="305.923,-568.002 309.414,-578.005 312.923,-568.008 305.923,-568.002"/>
<text text-anchor="middle" x="327.542" y="-419.206" font-family="Times Roman,serif" font-size="14.00">instantiation</text>
</g>
<!-- n22_1741378925&#45;&gt;n1_40498704 -->
<g id="edge56" class="edge"><title>n22_1741378925&#45;&gt;n1_40498704</title>
<path fill="none" stroke="red" d="M342.93,-255.465C406.275,-281.884 543.842,-339.258 609.892,-366.805"/>
<polygon fill="red" stroke="red" points="608.902,-370.184 619.478,-370.803 611.596,-363.723 608.902,-370.184"/>
<text text-anchor="middle" x="485.323" y="-299.583" font-family="Times Roman,serif" font-size="14.00">2</text>
</g>
<!-- n22_2871787445&#45;&gt;n32_17546584348293785403 -->
<g id="edge58" class="edge"><title>n22_2871787445&#45;&gt;n32_17546584348293785403</title>
<path fill="none" stroke="black" d="M477.603,-270.483C446.226,-331.306 358.452,-501.449 323.765,-568.686"/>
<polygon fill="black" stroke="black" points="320.52,-567.342 319.046,-577.834 326.741,-570.551 320.52,-567.342"/>
<text text-anchor="middle" x="416.385" y="-429.442" font-family="Times Roman,serif" font-size="14.00">instantiation</text>
</g>
<!-- n22_2871787445&#45;&gt;n1_40498728 -->
<g id="edge60" class="edge"><title>n22_2871787445&#45;&gt;n1_40498728</title>
<path fill="none" stroke="red" d="M556.262,-249.478C628.409,-250.586 740.373,-252.305 798.287,-253.194"/>
<polygon fill="red" stroke="red" points="798.398,-256.696 808.45,-253.35 798.505,-249.697 798.398,-256.696"/>
<text text-anchor="middle" x="682.871" y="-257.822" font-family="Times Roman,serif" font-size="14.00">2</text>
</g>
<!-- n22_2695967745 -->
<g id="node19" class="node"><title>n22_2695967745</title>
<polygon fill="none" stroke="black" points="650.367,-591.629 618.367,-565.629 650.367,-539.629 682.367,-565.629 650.367,-591.629"/>
<text text-anchor="middle" x="650.367" y="-562.029" font-family="Times Roman,serif" font-size="14.00">if_</text>
</g>
<!-- n22_2695967745&#45;&gt;n22_1213819723 -->
<g id="edge70" class="edge"><title>n22_2695967745&#45;&gt;n22_1213819723</title>
<path fill="none" stroke="blue" d="M635.497,-551.677C609.156,-526.961 554.083,-475.288 522.263,-445.432"/>
<polygon fill="blue" stroke="blue" points="524.394,-442.632 514.706,-438.341 519.604,-447.736 524.394,-442.632"/>
</g>
<!-- n22_2695967745&#45;&gt;n32_9929354688704599018 -->
<g id="edge62" class="edge"><title>n22_2695967745&#45;&gt;n32_9929354688704599018</title>
<path fill="none" stroke="black" d="M623.18,-569.778C609.464,-571.871 591.984,-574.538 574.182,-577.254"/>
<polygon fill="black" stroke="black" points="573.638,-573.797 564.28,-578.765 574.694,-580.717 573.638,-573.797"/>
<text text-anchor="middle" x="594.491" y="-582.708" font-family="Times Roman,serif" font-size="14.00">instantiation</text>
</g>
<!-- n22_2695967745&#45;&gt;n1_40498728 -->
<g id="edge66" class="edge"><title>n22_2695967745&#45;&gt;n1_40498728</title>
<path fill="none" stroke="red" d="M660.87,-547.969C691.775,-496.004 782.55,-343.367 819.702,-280.896"/>
<polygon fill="red" stroke="red" points="822.881,-282.398 824.984,-272.014 816.864,-278.82 822.881,-282.398"/>
<text text-anchor="middle" x="734.884" y="-401.465" font-family="Times Roman,serif" font-size="14.00">3</text>
</g>
<!-- n22_2695967745&#45;&gt;n1_40498704 -->
<g id="edge68" class="edge"><title>n22_2695967745&#45;&gt;n1_40498704</title>
<path fill="none" stroke="red" d="M649.854,-539.733C649.177,-505.54 647.989,-445.552 647.291,-410.284"/>
<polygon fill="red" stroke="red" points="650.788,-410.117 647.091,-400.188 643.79,-410.256 650.788,-410.117"/>
<text text-anchor="middle" x="642.471" y="-466.262" font-family="Times Roman,serif" font-size="14.00">4</text>
</g>
<!-- n22_2695967745&#45;&gt;n22_30076986 -->
<g id="edge64" class="edge"><title>n22_2695967745&#45;&gt;n22_30076986</title>
<path fill="none" stroke="red" d="M643.736,-586.37C631.007,-626.176 603.058,-713.587 587.707,-761.594"/>
<polygon fill="red" stroke="red" points="584.345,-760.618 584.633,-771.209 591.012,-762.75 584.345,-760.618"/>
<text text-anchor="middle" x="622.117" y="-677.4" font-family="Times Roman,serif" font-size="14.00">2</text>
</g>
<!-- n22_1378728391 -->
<g id="node20" class="node"><title>n22_1378728391</title>
<polygon fill="none" stroke="black" points="1087.13,-281.233 1055.13,-255.233 1087.13,-229.233 1119.13,-255.233 1087.13,-281.233"/>
<text text-anchor="middle" x="1087.13" y="-251.633" font-family="Times Roman,serif" font-size="14.00">if_</text>
</g>
<!-- n22_1378728391&#45;&gt;n22_3039830998 -->
<g id="edge80" class="edge"><title>n22_1378728391&#45;&gt;n22_3039830998</title>
<path fill="none" stroke="blue" d="M1083.13,-232.052C1076.23,-192.137 1062.09,-110.293 1054.13,-64.1921"/>
<polygon fill="blue" stroke="blue" points="1057.54,-63.3648 1052.39,-54.1065 1050.64,-64.5563 1057.54,-63.3648"/>
</g>
<!-- n22_1378728391&#45;&gt;n32_9929354688704599018 -->
<g id="edge72" class="edge"><title>n22_1378728391&#45;&gt;n32_9929354688704599018</title>
<path fill="none" stroke="black" d="M1067.87,-266.006C983.618,-313.137 646.414,-501.764 528.718,-567.601"/>
<polygon fill="black" stroke="black" points="526.667,-564.738 519.649,-572.674 530.085,-570.847 526.667,-564.738"/>
<text text-anchor="middle" x="801.48" y="-430.897" font-family="Times Roman,serif" font-size="14.00">instantiation</text>
</g>
<!-- n22_1378728391&#45;&gt;n1_40498728 -->
<g id="edge76" class="edge"><title>n22_1378728391&#45;&gt;n1_40498728</title>
<path fill="none" stroke="red" d="M1055.3,-255.048C1008.92,-254.778 922.892,-254.278 873.441,-253.99"/>
<polygon fill="red" stroke="red" points="873.197,-250.488 863.177,-253.93 873.156,-257.488 873.197,-250.488"/>
<text text-anchor="middle" x="959.24" y="-240.889" font-family="Times Roman,serif" font-size="14.00">3</text>
</g>
<!-- n22_1378728391&#45;&gt;n1_40498704 -->
<g id="edge78" class="edge"><title>n22_1378728391&#45;&gt;n1_40498704</title>
<path fill="none" stroke="red" d="M1063.45,-262.058C990.929,-282.962 771.464,-346.219 683.642,-371.532"/>
<polygon fill="red" stroke="red" points="682.486,-368.223 673.847,-374.355 684.425,-374.949 682.486,-368.223"/>
<text text-anchor="middle" x="865.301" y="-304.707" font-family="Times Roman,serif" font-size="14.00">4</text>
</g>
<!-- n22_1378728391&#45;&gt;n22_2956297009 -->
<g id="edge74" class="edge"><title>n22_1378728391&#45;&gt;n22_2956297009</title>
<path fill="none" stroke="red" d="M1080.22,-275.641C1070.85,-303.301 1054.01,-353.017 1042.83,-386.01"/>
<polygon fill="red" stroke="red" points="1039.45,-385.075 1039.56,-395.67 1046.08,-387.321 1039.45,-385.075"/>
<text text-anchor="middle" x="1067.81" y="-334.28" font-family="Times Roman,serif" font-size="14.00">2</text>
</g>
<!-- n22_2604720182 -->
<g id="node22" class="node"><title>n22_2604720182</title>
<polygon fill="none" stroke="black" points="95.8266,-812.295 42.8266,-786.295 95.8266,-760.295 148.827,-786.295 95.8266,-812.295"/>
<text text-anchor="middle" x="95.8266" y="-782.695" font-family="Times Roman,serif" font-size="14.00">bool_</text>
</g>
<!-- n22_2604720182&#45;&gt;n32_12883939255363387905 -->
<g id="edge82" class="edge"><title>n22_2604720182&#45;&gt;n32_12883939255363387905</title>
<path fill="none" stroke="black" d="M141.237,-790.052C177.608,-793.06 229.923,-797.388 275.619,-801.168"/>
<polygon fill="black" stroke="black" points="275.61,-804.679 285.864,-802.016 276.187,-797.703 275.61,-804.679"/>
<text text-anchor="middle" x="213.179" y="-803.403" font-family="Times Roman,serif" font-size="14.00">instantiation</text>
</g>
<!-- n22_2604720182&#45;&gt;n8_1773484321 -->
<g id="edge84" class="edge"><title>n22_2604720182&#45;&gt;n8_1773484321</title>
<path fill="none" stroke="red" d="M93.8693,-761.158C90.408,-716.706 83.1777,-623.849 78.9862,-570.02"/>
<polygon fill="red" stroke="red" points="82.4563,-569.498 78.1905,-559.8 75.4774,-570.042 82.4563,-569.498"/>
<text text-anchor="middle" x="80.0199" y="-656.751" font-family="Times Roman,serif" font-size="14.00">2</text>
</g>
<!-- n22_3175660132 -->
<g id="node23" class="node"><title>n22_3175660132</title>
<polygon fill="none" stroke="black" points="832.638,-624.905 779.638,-598.905 832.638,-572.905 885.638,-598.905 832.638,-624.905"/>
<text text-anchor="middle" x="832.638" y="-595.305" font-family="Times Roman,serif" font-size="14.00">bool_</text>
</g>
<!-- n22_3175660132&#45;&gt;n8_1030972443 -->
<g id="edge88" class="edge"><title>n22_3175660132&#45;&gt;n8_1030972443</title>
<path fill="none" stroke="red" d="M828.592,-574.724C824.038,-547.501 816.565,-502.835 811.128,-470.341"/>
<polygon fill="red" stroke="red" points="814.543,-469.542 809.441,-460.256 807.639,-470.697 814.543,-469.542"/>
<text text-anchor="middle" x="826.018" y="-512.899" font-family="Times Roman,serif" font-size="14.00">2</text>
</g>
<!-- n22_3175660132&#45;&gt;n32_12883939255363387905 -->
<g id="edge86" class="edge"><title>n22_3175660132&#45;&gt;n32_12883939255363387905</title>
<path fill="none" stroke="black" d="M804.903,-611.586C728.593,-646.477 514.874,-744.196 419.586,-787.764"/>
<polygon fill="black" stroke="black" points="418.109,-784.591 410.47,-791.932 421.02,-790.957 418.109,-784.591"/>
<text text-anchor="middle" x="601.5" y="-683.244" font-family="Times Roman,serif" font-size="14.00">instantiation</text>
</g>
<!-- n22_30076986&#45;&gt;n1_40498944 -->
<g id="edge94" class="edge"><title>n22_30076986&#45;&gt;n1_40498944</title>
<path fill="none" stroke="red" d="M639.133,-798.118C669.195,-799.732 704.473,-801.625 731.167,-803.058"/>
<polygon fill="red" stroke="red" points="731.138,-806.562 741.311,-803.603 731.513,-799.572 731.138,-806.562"/>
<text text-anchor="middle" x="690.134" y="-787.256" font-family="Times Roman,serif" font-size="14.00">3</text>
</g>
<!-- n22_30076986&#45;&gt;n1_40498920 -->
<g id="edge92" class="edge"><title>n22_30076986&#45;&gt;n1_40498920</title>
<path fill="none" stroke="red" d="M610.504,-780.792C701.753,-742.567 954.7,-636.608 1049.65,-596.832"/>
<polygon fill="red" stroke="red" points="1051.26,-599.955 1059.13,-592.863 1048.55,-593.499 1051.26,-599.955"/>
<text text-anchor="middle" x="830.773" y="-673.245" font-family="Times Roman,serif" font-size="14.00">2</text>
</g>
<!-- n22_30076986&#45;&gt;n22_2604720182 -->
<g id="edge96" class="edge"><title>n22_30076986&#45;&gt;n22_2604720182</title>
<path fill="none" stroke="blue" d="M509.16,-793.589C415.352,-791.933 247.536,-788.972 157.283,-787.379"/>
<polygon fill="blue" stroke="blue" points="157.263,-783.879 147.202,-787.202 157.139,-790.878 157.263,-783.879"/>
</g>
<!-- n32_5226358432096855147 -->
<g id="node27" class="node"><title>n32_5226358432096855147</title>
<polygon fill="none" stroke="black" points="1054.75,-785.75 1060.19,-785.85 1065.58,-786.001 1070.89,-786.201 1076.1,-786.451 1081.19,-786.748 1086.13,-787.093 1090.92,-787.485 1095.53,-787.923 1099.95,-788.404 1104.15,-788.929 1108.13,-789.495 1111.87,-790.101 1115.35,-790.745 1118.58,-791.427 1121.53,-792.142 1124.21,-792.891 1126.61,-793.67 1128.72,-794.478 1130.53,-795.312 1132.06,-796.17 1133.3,-797.05 1134.24,-797.949 1134.9,-798.865 1135.28,-799.796 1135.38,-800.738 1135.21,-801.689 1134.78,-802.647 1134.1,-803.609 1133.17,-804.572 1132.01,-805.534 1130.63,-806.492 1129.03,-807.443 1127.24,-808.385 1125.25,-809.316 1123.09,-810.232 1120.77,-811.131 1118.29,-812.011 1115.68,-812.869 1112.93,-813.703 1110.07,-814.511 1107.1,-815.29 1104.04,-816.039 1100.89,-816.754 1097.66,-817.435 1094.37,-818.08 1091.02,-818.686 1087.61,-819.252 1084.16,-819.777 1080.68,-820.258 1077.16,-820.696 1073.61,-821.087 1070.04,-821.433 1066.45,-821.73 1062.85,-821.98 1059.23,-822.18 1055.61,-822.33 1051.98,-822.431 1048.34,-822.482 1044.71,-822.482 1041.07,-822.431 1037.44,-822.33 1033.82,-822.18 1030.2,-821.98 1026.6,-821.73 1023.01,-821.433 1019.44,-821.087 1015.89,-820.696 1012.37,-820.258 1008.88,-819.777 1005.43,-819.252 1002.03,-818.686 998.676,-818.08 995.383,-817.435 992.157,-816.754 989.007,-816.039 985.943,-815.29 982.975,-814.511 980.114,-813.703 977.369,-812.869 974.753,-812.011 972.277,-811.131 969.953,-810.232 967.793,-809.316 965.81,-808.385 964.014,-807.443 962.419,-806.492 961.036,-805.534 959.875,-804.572 958.948,-803.609 958.265,-802.647 957.835,-801.689 957.667,-800.738 957.769,-799.796 958.147,-798.865 958.807,-797.949 959.753,-797.05 960.988,-796.17 962.514,-795.312 964.332,-794.478 966.44,-793.67 968.835,-792.891 971.513,-792.142 974.469,-791.427 977.695,-790.745 981.182,-790.101 984.921,-789.495 988.898,-788.929 993.101,-788.404 997.516,-787.923 1002.13,-787.485 1006.91,-787.093 1011.86,-786.748 1016.95,-786.451 1022.16,-786.201 1027.47,-786.001 1032.86,-785.85 1038.3,-785.75 1043.78,-785.699 1049.27,-785.699 1054.75,-785.75"/>
<text text-anchor="middle" x="1046.52" y="-800.49" font-family="Times Roman,serif" font-size="14.00">original.cxx:50</text>
</g>
<!-- n22_30076986&#45;&gt;n32_5226358432096855147 -->
<g id="edge90" class="edge"><title>n22_30076986&#45;&gt;n32_5226358432096855147</title>
<path fill="none" stroke="black" d="M644.601,-796.125C724.078,-797.7 856.757,-800.33 947.785,-802.134"/>
<polygon fill="black" stroke="black" points="947.774,-805.634 957.841,-802.333 947.913,-798.635 947.774,-805.634"/>
<text text-anchor="middle" x="801.451" y="-805.634" font-family="Times Roman,serif" font-size="14.00">instantiation</text>
</g>
<!-- n22_2956297009&#45;&gt;n1_40498920 -->
<g id="edge100" class="edge"><title>n22_2956297009&#45;&gt;n1_40498920</title>
<path fill="none" stroke="red" d="M1034.84,-443.825C1042.4,-473.546 1058.91,-523.108 1071.43,-553.962"/>
<polygon fill="red" stroke="red" points="1068.24,-555.407 1075.34,-563.273 1074.69,-552.698 1068.24,-555.407"/>
<text text-anchor="middle" x="1045.16" y="-502.483" font-family="Times Roman,serif" font-size="14.00">2</text>
</g>
<!-- n22_2956297009&#45;&gt;n1_40498920 -->
<g id="edge102" class="edge"><title>n22_2956297009&#45;&gt;n1_40498920</title>
<path fill="none" stroke="red" d="M1044.13,-440.701C1056.41,-469.746 1073.81,-521.237 1082.24,-553.255"/>
<polygon fill="red" stroke="red" points="1078.93,-554.444 1084.74,-563.307 1085.73,-552.758 1078.93,-554.444"/>
<text text-anchor="middle" x="1074.41" y="-495.555" font-family="Times Roman,serif" font-size="14.00">3</text>
</g>
<!-- n22_2956297009&#45;&gt;n22_3175660132 -->
<g id="edge104" class="edge"><title>n22_2956297009&#45;&gt;n22_3175660132</title>
<path fill="none" stroke="blue" d="M1011.11,-437.558C974.706,-470.47 898.948,-538.958 858.847,-575.211"/>
<polygon fill="blue" stroke="blue" points="856.395,-572.709 851.324,-582.012 861.089,-577.902 856.395,-572.709"/>
</g>
<!-- n22_2956297009&#45;&gt;n32_5226358432096855147 -->
<g id="edge98" class="edge"><title>n22_2956297009&#45;&gt;n32_5226358432096855147</title>
<path fill="none" stroke="black" d="M1032.66,-444.847C1035.33,-513.984 1042.61,-702.721 1045.41,-775.207"/>
<polygon fill="black" stroke="black" points="1041.92,-775.562 1045.8,-785.419 1048.91,-775.292 1041.92,-775.562"/>
<text text-anchor="middle" x="1021.24" y="-611.635" font-family="Times Roman,serif" font-size="14.00">instantiation</text>
</g>
</g>
</svg>
