<?xml version="1.0" encoding="UTF-8" standalone="no"?>
<!DOCTYPE svg PUBLIC "-//W3C//DTD SVG 1.1//EN"
 "http://www.w3.org/Graphics/SVG/1.1/DTD/svg11.dtd">
<!-- Generated by graphviz version 2.26.3 (20100126.1600)
 -->
<!-- Title: _anonymous_0 Pages: 1 -->
<svg width="1005pt" height="980pt"
 viewBox="0.00 0.00 1004.63 979.67" xmlns="http://www.w3.org/2000/svg" xmlns:xlink="http://www.w3.org/1999/xlink">
<g id="graph1" class="graph" transform="scale(1 1) rotate(0) translate(4 975.674)">
<title>_anonymous_0</title>
<polygon fill="white" stroke="white" points="-4,5 -4,-975.674 1001.63,-975.674 1001.63,5 -4,5"/>
<!-- n22_1077592855 -->
<g id="node1" class="node"><title>n22_1077592855</title>
<polygon fill="none" stroke="black" points="729.389,-482.419 654.389,-456.419 729.389,-430.419 804.389,-456.419 729.389,-482.419"/>
<text text-anchor="middle" x="729.389" y="-452.819" font-family="Times Roman,serif" font-size="14.00">lazy_if_c</text>
</g>
<!-- n32_12465215423231841903 -->
<g id="node3" class="node"><title>n32_12465215423231841903</title>
<polygon fill="none" stroke="black" points="590.768,-455.013 596.212,-455.114 601.6,-455.264 606.909,-455.465 612.119,-455.714 617.208,-456.012 622.156,-456.357 626.944,-456.749 631.554,-457.186 635.968,-457.667 640.172,-458.192 644.149,-458.758 647.887,-459.364 651.375,-460.009 654.601,-460.69 657.556,-461.406 660.235,-462.154 662.63,-462.933 664.738,-463.741 666.555,-464.575 668.082,-465.433 669.317,-466.313 670.263,-467.213 670.923,-468.129 671.301,-469.059 671.403,-470.001 671.235,-470.952 670.805,-471.91 670.122,-472.872 669.195,-473.835 668.034,-474.797 666.651,-475.755 665.055,-476.706 663.26,-477.649 661.276,-478.579 659.117,-479.495 656.793,-480.394 654.317,-481.274 651.701,-482.132 648.956,-482.966 646.094,-483.774 643.126,-484.553 640.062,-485.302 636.913,-486.018 633.687,-486.699 630.393,-487.343 627.04,-487.949 623.636,-488.516 620.187,-489.04 616.699,-489.522 613.179,-489.959 609.632,-490.351 606.061,-490.696 602.472,-490.994 598.868,-491.243 595.253,-491.443 591.628,-491.594 587.998,-491.694 584.363,-491.745 580.728,-491.745 577.094,-491.694 573.464,-491.594 569.839,-491.443 566.223,-491.243 562.619,-490.994 559.03,-490.696 555.46,-490.351 551.913,-489.959 548.392,-489.522 544.905,-489.04 541.456,-488.516 538.051,-487.949 534.698,-487.343 531.405,-486.699 528.179,-486.018 525.029,-485.302 521.966,-484.553 518.997,-483.774 516.136,-482.966 513.391,-482.132 510.775,-481.274 508.299,-480.394 505.975,-479.495 503.815,-478.579 501.832,-477.649 500.036,-476.706 498.441,-475.755 497.058,-474.797 495.897,-473.835 494.97,-472.872 494.287,-471.91 493.857,-470.952 493.689,-470.001 493.791,-469.059 494.169,-468.129 494.829,-467.213 495.775,-466.313 497.01,-465.433 498.536,-464.575 500.354,-463.741 502.462,-462.933 504.857,-462.154 507.535,-461.406 510.491,-460.69 513.717,-460.009 517.204,-459.364 520.943,-458.758 524.92,-458.192 529.123,-457.667 533.538,-457.186 538.148,-456.749 542.936,-456.357 547.884,-456.012 552.973,-455.714 558.182,-455.465 563.492,-455.264 568.879,-455.114 574.323,-455.013 579.801,-454.963 585.29,-454.963 590.768,-455.013"/>
<text text-anchor="middle" x="582.546" y="-469.754" font-family="Times Roman,serif" font-size="14.00">original.cxx:12</text>
</g>
<!-- n22_1077592855&#45;&gt;n32_12465215423231841903 -->
<g id="edge2" class="edge"><title>n22_1077592855&#45;&gt;n32_12465215423231841903</title>
<path fill="none" stroke="black" d="M673.036,-462.918C672.874,-462.937 672.712,-462.955 672.55,-462.974"/>
<polygon fill="black" stroke="black" points="674.728,-459.199 665.195,-463.822 675.53,-466.153 674.728,-459.199"/>
<text text-anchor="middle" x="672.611" y="-469.367" font-family="Times Roman,serif" font-size="14.00">instantiation</text>
</g>
<!-- n8_1773484321 -->
<g id="node7" class="node"><title>n8_1773484321</title>
<ellipse fill="none" stroke="black" cx="900.893" cy="-599.848" rx="29.9071" ry="30.4056"/>
<text text-anchor="middle" x="900.893" y="-596.248" font-family="Times Roman,serif" font-size="14.00">0x0</text>
</g>
<!-- n22_1077592855&#45;&gt;n8_1773484321 -->
<g id="edge4" class="edge"><title>n22_1077592855&#45;&gt;n8_1773484321</title>
<path fill="none" stroke="red" d="M751.459,-474.876C781.527,-500.022 835.526,-545.182 869.718,-573.776"/>
<polygon fill="red" stroke="red" points="867.62,-576.585 877.537,-580.315 872.111,-571.215 867.62,-576.585"/>
<text text-anchor="middle" x="807.602" y="-532.082" font-family="Times Roman,serif" font-size="14.00">2</text>
</g>
<!-- n22_1741378925 -->
<g id="node17" class="node"><title>n22_1741378925</title>
<polygon fill="none" stroke="black" points="674.996,-670.918 604.996,-644.918 674.996,-618.918 744.996,-644.918 674.996,-670.918"/>
<text text-anchor="middle" x="674.996" y="-641.318" font-family="Times Roman,serif" font-size="14.00">identity</text>
</g>
<!-- n22_1077592855&#45;&gt;n22_1741378925 -->
<g id="edge8" class="edge"><title>n22_1077592855&#45;&gt;n22_1741378925</title>
<path fill="none" stroke="red" d="M722.5,-480.292C712.937,-513.435 695.589,-573.553 684.713,-611.244"/>
<polygon fill="red" stroke="red" points="681.239,-610.66 681.829,-621.239 687.964,-612.601 681.239,-610.66"/>
<text text-anchor="middle" x="710.158" y="-549.19" font-family="Times Roman,serif" font-size="14.00">4</text>
</g>
<!-- n22_2871787445 -->
<g id="node18" class="node"><title>n22_2871787445</title>
<polygon fill="none" stroke="black" points="352.481,-754.249 282.481,-728.249 352.481,-702.249 422.481,-728.249 352.481,-754.249"/>
<text text-anchor="middle" x="352.481" y="-724.649" font-family="Times Roman,serif" font-size="14.00">identity</text>
</g>
<!-- n22_1077592855&#45;&gt;n22_2871787445 -->
<g id="edge6" class="edge"><title>n22_1077592855&#45;&gt;n22_2871787445</title>
<path fill="none" stroke="red" d="M704.95,-474.045C639.27,-521.414 458.919,-651.485 384.868,-704.892"/>
<polygon fill="red" stroke="red" points="382.442,-702.326 376.379,-711.014 386.537,-708.004 382.442,-702.326"/>
<text text-anchor="middle" x="534.714" y="-579.894" font-family="Times Roman,serif" font-size="14.00">3</text>
</g>
<!-- n22_1772220736 -->
<g id="node2" class="node"><title>n22_1772220736</title>
<polygon fill="none" stroke="black" points="457.666,-600.323 382.666,-574.323 457.666,-548.323 532.666,-574.323 457.666,-600.323"/>
<text text-anchor="middle" x="457.666" y="-570.723" font-family="Times Roman,serif" font-size="14.00">lazy_if_c</text>
</g>
<!-- n22_1772220736&#45;&gt;n32_12465215423231841903 -->
<g id="edge10" class="edge"><title>n22_1772220736&#45;&gt;n32_12465215423231841903</title>
<path fill="none" stroke="black" d="M480.28,-556.038C500.563,-539.639 530.467,-515.461 552.704,-497.481"/>
<polygon fill="black" stroke="black" points="554.943,-500.173 560.518,-491.164 550.542,-494.729 554.943,-500.173"/>
<text text-anchor="middle" x="531.263" y="-534.112" font-family="Times Roman,serif" font-size="14.00">instantiation</text>
</g>
<!-- n8_1030972443 -->
<g id="node4" class="node"><title>n8_1030972443</title>
<ellipse fill="none" stroke="black" cx="435.686" cy="-451.66" rx="29.9071" ry="30.4056"/>
<text text-anchor="middle" x="435.686" y="-448.06" font-family="Times Roman,serif" font-size="14.00">0x1</text>
</g>
<!-- n22_1772220736&#45;&gt;n8_1030972443 -->
<g id="edge12" class="edge"><title>n22_1772220736&#45;&gt;n8_1030972443</title>
<path fill="none" stroke="red" d="M453.271,-549.795C450.297,-533.202 446.302,-510.904 442.871,-491.757"/>
<polygon fill="red" stroke="red" points="446.294,-491.016 441.085,-481.79 439.404,-492.25 446.294,-491.016"/>
<text text-anchor="middle" x="454.14" y="-510.984" font-family="Times Roman,serif" font-size="14.00">2</text>
</g>
<!-- n22_1772220736&#45;&gt;n22_1741378925 -->
<g id="edge16" class="edge"><title>n22_1772220736&#45;&gt;n22_1741378925</title>
<path fill="none" stroke="red" d="M496.52,-586.944C533.325,-598.9 588.661,-616.874 627.947,-629.635"/>
<polygon fill="red" stroke="red" points="626.976,-633 637.568,-632.761 629.139,-626.342 626.976,-633"/>
<text text-anchor="middle" x="570.326" y="-596.344" font-family="Times Roman,serif" font-size="14.00">4</text>
</g>
<!-- n22_1772220736&#45;&gt;n22_2871787445 -->
<g id="edge14" class="edge"><title>n22_1772220736&#45;&gt;n22_2871787445</title>
<path fill="none" stroke="red" d="M443.261,-595.403C424.928,-622.231 393.163,-668.716 372.487,-698.973"/>
<polygon fill="red" stroke="red" points="369.465,-697.193 366.712,-707.424 375.244,-701.142 369.465,-697.193"/>
<text text-anchor="middle" x="412.842" y="-653.026" font-family="Times Roman,serif" font-size="14.00">3</text>
</g>
<!-- n1_40498944 -->
<g id="node5" class="node"><title>n1_40498944</title>
<polygon fill="none" stroke="black" points="658.341,-950.288 596.341,-950.288 596.341,-914.288 658.341,-914.288 658.341,-950.288"/>
<text text-anchor="middle" x="627.341" y="-928.688" font-family="Times Roman,serif" font-size="14.00">double</text>
</g>
<!-- n32_12883939255363387905 -->
<g id="node6" class="node"><title>n32_12883939255363387905</title>
<polygon fill="none" stroke="black" points="499.926,-202.497 505.369,-202.598 510.757,-202.748 516.067,-202.948 521.276,-203.198 526.365,-203.495 531.313,-203.841 536.101,-204.232 540.711,-204.67 545.126,-205.151 549.329,-205.676 553.306,-206.242 557.044,-206.848 560.532,-207.493 563.758,-208.174 566.714,-208.889 569.392,-209.638 571.787,-210.417 573.895,-211.225 575.712,-212.059 577.239,-212.917 578.474,-213.797 579.42,-214.696 580.08,-215.612 580.458,-216.543 580.56,-217.485 580.392,-218.436 579.962,-219.394 579.279,-220.356 578.352,-221.319 577.191,-222.281 575.808,-223.239 574.212,-224.19 572.417,-225.132 570.433,-226.063 568.274,-226.979 565.95,-227.878 563.474,-228.758 560.858,-229.616 558.113,-230.45 555.251,-231.258 552.283,-232.037 549.22,-232.786 546.07,-233.501 542.844,-234.183 539.55,-234.827 536.198,-235.433 532.793,-235.999 529.344,-236.524 525.856,-237.005 522.336,-237.443 518.789,-237.835 515.218,-238.18 511.629,-238.477 508.025,-238.727 504.41,-238.927 500.785,-239.078 497.155,-239.178 493.521,-239.229 489.885,-239.229 486.251,-239.178 482.621,-239.078 478.996,-238.927 475.381,-238.727 471.777,-238.477 468.188,-238.18 464.617,-237.835 461.07,-237.443 457.55,-237.005 454.062,-236.524 450.613,-235.999 447.208,-235.433 443.856,-234.827 440.562,-234.183 437.336,-233.501 434.187,-232.786 431.123,-232.037 428.155,-231.258 425.293,-230.45 422.548,-229.616 419.932,-228.758 417.456,-227.878 415.132,-226.979 412.973,-226.063 410.989,-225.132 409.194,-224.19 407.598,-223.239 406.215,-222.281 405.054,-221.319 404.127,-220.356 403.444,-219.394 403.014,-218.436 402.846,-217.485 402.948,-216.543 403.326,-215.612 403.986,-214.696 404.932,-213.797 406.167,-212.917 407.694,-212.059 409.511,-211.225 411.619,-210.417 414.014,-209.638 416.692,-208.889 419.648,-208.174 422.874,-207.493 426.362,-206.848 430.1,-206.242 434.077,-205.676 438.28,-205.151 442.695,-204.67 447.305,-204.232 452.093,-203.841 457.041,-203.495 462.13,-203.198 467.339,-202.948 472.649,-202.748 478.037,-202.598 483.481,-202.497 488.958,-202.446 494.448,-202.446 499.926,-202.497"/>
<text text-anchor="middle" x="491.703" y="-217.238" font-family="Times Roman,serif" font-size="14.00">original.cxx:42</text>
</g>
<!-- n22_1682610999 -->
<g id="node8" class="node"><title>n22_1682610999</title>
<polygon fill="none" stroke="black" points="531.752,-749.128 470.752,-723.128 531.752,-697.128 592.752,-723.128 531.752,-749.128"/>
<text text-anchor="middle" x="531.752" y="-719.528" font-family="Times Roman,serif" font-size="14.00">lazy_if</text>
</g>
<!-- n22_1682610999&#45;&gt;n22_1077592855 -->
<g id="edge26" class="edge"><title>n22_1682610999&#45;&gt;n22_1077592855</title>
<path fill="none" stroke="blue" d="M546.607,-703.081C581.203,-656.394 667.275,-540.241 707.73,-485.647"/>
<polygon fill="blue" stroke="blue" points="710.675,-487.552 713.816,-477.434 705.051,-483.385 710.675,-487.552"/>
</g>
<!-- n32_3683794977457051237 -->
<g id="node16" class="node"><title>n32_3683794977457051237</title>
<polygon fill="none" stroke="black" points="98.2225,-883.074 103.666,-883.175 109.054,-883.325 114.364,-883.525 119.573,-883.775 124.662,-884.072 129.61,-884.418 134.398,-884.809 139.008,-885.247 143.423,-885.728 147.626,-886.253 151.603,-886.819 155.341,-887.425 158.829,-888.07 162.055,-888.751 165.011,-889.466 167.689,-890.215 170.084,-890.994 172.192,-891.802 174.009,-892.636 175.536,-893.494 176.771,-894.374 177.717,-895.273 178.377,-896.189 178.755,-897.12 178.857,-898.062 178.689,-899.013 178.259,-899.971 177.576,-900.933 176.649,-901.896 175.488,-902.858 174.105,-903.816 172.509,-904.767 170.714,-905.709 168.73,-906.64 166.571,-907.556 164.247,-908.455 161.771,-909.335 159.155,-910.193 156.41,-911.027 153.548,-911.835 150.58,-912.614 147.517,-913.363 144.367,-914.078 141.141,-914.76 137.847,-915.404 134.495,-916.01 131.09,-916.576 127.641,-917.101 124.153,-917.582 120.633,-918.02 117.086,-918.411 113.515,-918.757 109.926,-919.054 106.322,-919.304 102.707,-919.504 99.0822,-919.655 95.4517,-919.755 91.8176,-919.806 88.1824,-919.806 84.5483,-919.755 80.9178,-919.655 77.2933,-919.504 73.6776,-919.304 70.0736,-919.054 66.4846,-918.757 62.9143,-918.411 59.3667,-918.02 55.8466,-917.582 52.3591,-917.101 48.9099,-916.576 45.5054,-916.01 42.1526,-915.404 38.8591,-914.76 35.6331,-914.078 32.4835,-913.363 29.4197,-912.614 26.4516,-911.835 23.5898,-911.027 20.8452,-910.193 18.2291,-909.335 15.7532,-908.455 13.4293,-907.556 11.2696,-906.64 9.286,-905.709 7.49062,-904.767 5.89532,-903.816 4.51171,-902.858 3.35103,-901.896 2.42405,-900.933 1.74092,-899.971 1.31108,-899.013 1.14316,-898.062 1.24486,-897.12 1.62287,-896.189 2.28273,-895.273 3.22881,-894.374 4.46417,-893.494 5.99052,-892.636 7.80815,-891.802 9.91588,-890.994 12.311,-890.215 14.9894,-889.466 17.9453,-888.751 21.1713,-888.07 24.6586,-887.425 28.3968,-886.819 32.3742,-886.253 36.5774,-885.728 40.992,-885.247 45.6018,-884.809 50.3899,-884.418 55.338,-884.072 60.4269,-883.775 65.6365,-883.525 70.9458,-883.325 76.3335,-883.175 81.7775,-883.074 87.2554,-883.023 92.7446,-883.023 98.2225,-883.074"/>
<text text-anchor="middle" x="90" y="-897.815" font-family="Times Roman,serif" font-size="14.00">original.cxx:22</text>
</g>
<!-- n22_1682610999&#45;&gt;n32_3683794977457051237 -->
<g id="edge18" class="edge"><title>n22_1682610999&#45;&gt;n32_3683794977457051237</title>
<path fill="none" stroke="black" d="M500.336,-735.807C425.042,-766.195 233.701,-843.418 141.378,-880.679"/>
<polygon fill="black" stroke="black" points="139.921,-877.493 131.958,-884.481 142.541,-883.984 139.921,-877.493"/>
<text text-anchor="middle" x="311.347" y="-792.463" font-family="Times Roman,serif" font-size="14.00">instantiation</text>
</g>
<!-- n22_1682610999&#45;&gt;n22_1741378925 -->
<g id="edge24" class="edge"><title>n22_1682610999&#45;&gt;n22_1741378925</title>
<path fill="none" stroke="red" d="M558.695,-708.417C580.829,-696.333 612.441,-679.073 637.122,-665.597"/>
<polygon fill="red" stroke="red" points="639.108,-668.501 646.208,-660.637 635.753,-662.357 639.108,-668.501"/>
<text text-anchor="middle" x="597.446" y="-670.93" font-family="Times Roman,serif" font-size="14.00">4</text>
</g>
<!-- n22_1682610999&#45;&gt;n22_2871787445 -->
<g id="edge22" class="edge"><title>n22_1682610999&#45;&gt;n22_2871787445</title>
<path fill="none" stroke="red" d="M474.537,-724.762C459.658,-725.188 443.403,-725.652 427.748,-726.099"/>
<polygon fill="red" stroke="red" points="427.463,-722.606 417.568,-726.39 427.663,-729.603 427.463,-722.606"/>
<text text-anchor="middle" x="446.251" y="-711.971" font-family="Times Roman,serif" font-size="14.00">3</text>
</g>
<!-- n22_30076986 -->
<g id="node25" class="node"><title>n22_30076986</title>
<polygon fill="none" stroke="black" points="377.526,-970.674 306.526,-944.674 377.526,-918.674 448.526,-944.674 377.526,-970.674"/>
<text text-anchor="middle" x="377.526" y="-941.074" font-family="Times Roman,serif" font-size="14.00">is_same</text>
</g>
<!-- n22_1682610999&#45;&gt;n22_30076986 -->
<g id="edge20" class="edge"><title>n22_1682610999&#45;&gt;n22_30076986</title>
<path fill="none" stroke="red" d="M517.793,-743.179C490.417,-782.505 429.585,-869.89 397.783,-915.574"/>
<polygon fill="red" stroke="red" points="394.854,-913.657 392.013,-923.863 400.599,-917.656 394.854,-913.657"/>
<text text-anchor="middle" x="462.939" y="-835.869" font-family="Times Roman,serif" font-size="14.00">2</text>
</g>
<!-- n22_3059588303 -->
<g id="node9" class="node"><title>n22_3059588303</title>
<polygon fill="none" stroke="black" points="242.582,-659.664 181.582,-633.664 242.582,-607.664 303.582,-633.664 242.582,-659.664"/>
<text text-anchor="middle" x="242.582" y="-630.064" font-family="Times Roman,serif" font-size="14.00">lazy_if</text>
</g>
<!-- n22_3059588303&#45;&gt;n22_1772220736 -->
<g id="edge36" class="edge"><title>n22_3059588303&#45;&gt;n22_1772220736</title>
<path fill="none" stroke="blue" d="M280.046,-623.328C314.849,-613.726 366.994,-599.339 405.793,-588.635"/>
<polygon fill="blue" stroke="blue" points="407.143,-591.893 415.852,-585.859 405.282,-585.145 407.143,-591.893"/>
</g>
<!-- n22_3059588303&#45;&gt;n32_3683794977457051237 -->
<g id="edge28" class="edge"><title>n22_3059588303&#45;&gt;n32_3683794977457051237</title>
<path fill="none" stroke="black" d="M230.609,-654.674C203.238,-702.705 136.103,-820.512 105.571,-874.09"/>
<polygon fill="black" stroke="black" points="102.394,-872.596 100.484,-883.018 108.476,-876.062 102.394,-872.596"/>
<text text-anchor="middle" x="148.614" y="-755.127" font-family="Times Roman,serif" font-size="14.00">instantiation</text>
</g>
<!-- n22_3059588303&#45;&gt;n22_1741378925 -->
<g id="edge34" class="edge"><title>n22_3059588303&#45;&gt;n22_1741378925</title>
<path fill="none" stroke="red" d="M300.45,-635.17C377.519,-637.176 514.007,-640.728 599.213,-642.946"/>
<polygon fill="red" stroke="red" points="599.255,-646.448 609.342,-643.21 599.437,-639.451 599.255,-646.448"/>
<text text-anchor="middle" x="455.075" y="-645.595" font-family="Times Roman,serif" font-size="14.00">4</text>
</g>
<!-- n22_3059588303&#45;&gt;n22_2871787445 -->
<g id="edge32" class="edge"><title>n22_3059588303&#45;&gt;n22_2871787445</title>
<path fill="none" stroke="red" d="M262.995,-651.233C279.942,-665.818 304.258,-686.746 323.266,-703.106"/>
<polygon fill="red" stroke="red" points="321.189,-705.935 331.051,-709.805 325.755,-700.629 321.189,-705.935"/>
<text text-anchor="middle" x="289.829" y="-684.752" font-family="Times Roman,serif" font-size="14.00">3</text>
</g>
<!-- n22_2956297009 -->
<g id="node26" class="node"><title>n22_2956297009</title>
<polygon fill="none" stroke="black" points="676.954,-291.73 605.954,-265.73 676.954,-239.73 747.954,-265.73 676.954,-291.73"/>
<text text-anchor="middle" x="676.954" y="-262.13" font-family="Times Roman,serif" font-size="14.00">is_same</text>
</g>
<!-- n22_3059588303&#45;&gt;n22_2956297009 -->
<g id="edge30" class="edge"><title>n22_3059588303&#45;&gt;n22_2956297009</title>
<path fill="none" stroke="red" d="M263.24,-616.165C333.81,-556.389 565.488,-360.147 647.698,-290.511"/>
<polygon fill="red" stroke="red" points="650.034,-293.12 655.402,-283.986 645.509,-287.778 650.034,-293.12"/>
<text text-anchor="middle" x="452.23" y="-438.552" font-family="Times Roman,serif" font-size="14.00">2</text>
</g>
<!-- n22_1213819723 -->
<g id="node10" class="node"><title>n22_1213819723</title>
<polygon fill="none" stroke="black" points="44.356,-618.108 5.35598,-592.108 44.356,-566.108 83.356,-592.108 44.356,-618.108"/>
<text text-anchor="middle" x="44.356" y="-588.508" font-family="Times Roman,serif" font-size="14.00">if_c</text>
</g>
<!-- n22_1213819723&#45;&gt;n8_1773484321 -->
<g id="edge40" class="edge"><title>n22_1213819723&#45;&gt;n8_1773484321</title>
<path fill="none" stroke="red" d="M83.104,-592.458C225.124,-593.741 716.371,-598.181 860.713,-599.485"/>
<polygon fill="red" stroke="red" points="860.855,-602.986 870.886,-599.577 860.919,-595.987 860.855,-602.986"/>
<text text-anchor="middle" x="477.078" y="-582.418" font-family="Times Roman,serif" font-size="14.00">2</text>
</g>
<!-- n32_11407624269635001793 -->
<g id="node13" class="node"><title>n32_11407624269635001793</title>
<polygon fill="none" stroke="black" points="320.204,-471.191 325.648,-471.291 331.035,-471.442 336.345,-471.642 341.554,-471.891 346.643,-472.189 351.591,-472.534 356.379,-472.926 360.989,-473.363 365.404,-473.845 369.607,-474.369 373.584,-474.936 377.323,-475.542 380.81,-476.186 384.036,-476.867 386.992,-477.583 389.67,-478.332 392.065,-479.111 394.173,-479.919 395.991,-480.753 397.517,-481.611 398.752,-482.491 399.699,-483.39 400.358,-484.306 400.736,-485.236 400.838,-486.179 400.67,-487.13 400.24,-488.088 399.557,-489.05 398.63,-490.013 397.47,-490.975 396.086,-491.933 394.491,-492.884 392.695,-493.826 390.712,-494.756 388.552,-495.672 386.228,-496.572 383.752,-497.452 381.136,-498.31 378.392,-499.144 375.53,-499.952 372.562,-500.731 369.498,-501.479 366.348,-502.195 363.122,-502.876 359.829,-503.521 356.476,-504.127 353.071,-504.693 349.622,-505.218 346.135,-505.699 342.615,-506.136 339.067,-506.528 335.497,-506.873 331.908,-507.171 328.304,-507.42 324.688,-507.621 321.064,-507.771 317.433,-507.872 313.799,-507.922 310.164,-507.922 306.53,-507.872 302.899,-507.771 299.275,-507.621 295.659,-507.42 292.055,-507.171 288.466,-506.873 284.896,-506.528 281.348,-506.136 277.828,-505.699 274.34,-505.218 270.891,-504.693 267.487,-504.127 264.134,-503.521 260.84,-502.876 257.614,-502.195 254.465,-501.479 251.401,-500.731 248.433,-499.952 245.571,-499.144 242.826,-498.31 240.21,-497.452 237.734,-496.572 235.411,-495.672 233.251,-494.756 231.267,-493.826 229.472,-492.884 227.877,-491.933 226.493,-490.975 225.332,-490.013 224.405,-489.05 223.722,-488.088 223.292,-487.13 223.124,-486.179 223.226,-485.236 223.604,-484.306 224.264,-483.39 225.21,-482.491 226.445,-481.611 227.972,-480.753 229.789,-479.919 231.897,-479.111 234.292,-478.332 236.971,-477.583 239.927,-476.867 243.153,-476.186 246.64,-475.542 250.378,-474.936 254.355,-474.369 258.559,-473.845 262.973,-473.363 267.583,-472.926 272.371,-472.534 277.319,-472.189 282.408,-471.891 287.618,-471.642 292.927,-471.442 298.315,-471.291 303.759,-471.191 309.237,-471.14 314.726,-471.14 320.204,-471.191"/>
<text text-anchor="middle" x="311.981" y="-485.931" font-family="Times Roman,serif" font-size="14.00">original.cxx:25</text>
</g>
<!-- n22_1213819723&#45;&gt;n32_11407624269635001793 -->
<g id="edge38" class="edge"><title>n22_1213819723&#45;&gt;n32_11407624269635001793</title>
<path fill="none" stroke="black" d="M69.5335,-582.458C113.446,-565.627 204.803,-530.611 261.982,-508.695"/>
<polygon fill="black" stroke="black" points="263.462,-511.876 271.547,-505.029 260.957,-505.34 263.462,-511.876"/>
<text text-anchor="middle" x="165.378" y="-526.206" font-family="Times Roman,serif" font-size="14.00">instantiation</text>
</g>
<!-- n1_40498728 -->
<g id="node21" class="node"><title>n1_40498728</title>
<polygon fill="none" stroke="black" points="222.847,-432.936 168.847,-432.936 168.847,-396.936 222.847,-396.936 222.847,-432.936"/>
<text text-anchor="middle" x="195.847" y="-411.336" font-family="Times Roman,serif" font-size="14.00">int</text>
</g>
<!-- n22_1213819723&#45;&gt;n1_40498728 -->
<g id="edge42" class="edge"><title>n22_1213819723&#45;&gt;n1_40498728</title>
<path fill="none" stroke="red" d="M58.6079,-575.44C85.1084,-544.447 142.134,-477.754 173.698,-440.84"/>
<polygon fill="red" stroke="red" points="176.56,-442.879 180.398,-433.004 171.239,-438.33 176.56,-442.879"/>
<text text-anchor="middle" x="127.558" y="-507.558" font-family="Times Roman,serif" font-size="14.00">3</text>
</g>
<!-- n1_40498704 -->
<g id="node24" class="node"><title>n1_40498704</title>
<polygon fill="none" stroke="black" points="297.962,-251.376 243.962,-251.376 243.962,-215.376 297.962,-215.376 297.962,-251.376"/>
<text text-anchor="middle" x="270.962" y="-229.776" font-family="Times Roman,serif" font-size="14.00">short</text>
</g>
<!-- n22_1213819723&#45;&gt;n1_40498704 -->
<g id="edge44" class="edge"><title>n22_1213819723&#45;&gt;n1_40498704</title>
<path fill="none" stroke="red" d="M56.2203,-573.326C93.7834,-513.861 210.198,-329.57 254.034,-260.174"/>
<polygon fill="red" stroke="red" points="257.105,-261.867 259.486,-251.543 251.186,-258.129 257.105,-261.867"/>
<text text-anchor="middle" x="165.841" y="-413.854" font-family="Times Roman,serif" font-size="14.00">4</text>
</g>
<!-- n22_3039830998 -->
<g id="node11" class="node"><title>n22_3039830998</title>
<polygon fill="none" stroke="black" points="374.526,-364.26 335.526,-338.26 374.526,-312.26 413.526,-338.26 374.526,-364.26"/>
<text text-anchor="middle" x="374.526" y="-334.66" font-family="Times Roman,serif" font-size="14.00">if_c</text>
</g>
<!-- n22_3039830998&#45;&gt;n8_1030972443 -->
<g id="edge48" class="edge"><title>n22_3039830998&#45;&gt;n8_1030972443</title>
<path fill="none" stroke="red" d="M384.901,-357.497C393.492,-373.426 405.934,-396.495 416.352,-415.812"/>
<polygon fill="red" stroke="red" points="413.299,-417.525 421.127,-424.665 419.46,-414.202 413.299,-417.525"/>
<text text-anchor="middle" x="395.047" y="-391.542" font-family="Times Roman,serif" font-size="14.00">2</text>
</g>
<!-- n22_3039830998&#45;&gt;n32_11407624269635001793 -->
<g id="edge46" class="edge"><title>n22_3039830998&#45;&gt;n32_11407624269635001793</title>
<path fill="none" stroke="black" d="M366.091,-358.661C355.126,-385.18 335.927,-431.616 323.592,-461.448"/>
<polygon fill="black" stroke="black" points="320.281,-460.297 319.695,-470.876 326.75,-462.972 320.281,-460.297"/>
<text text-anchor="middle" x="324.821" y="-404.342" font-family="Times Roman,serif" font-size="14.00">instantiation</text>
</g>
<!-- n22_3039830998&#45;&gt;n1_40498728 -->
<g id="edge50" class="edge"><title>n22_3039830998&#45;&gt;n1_40498728</title>
<path fill="none" stroke="red" d="M350.799,-348.442C320.515,-361.437 267.816,-384.052 232.389,-399.255"/>
<polygon fill="red" stroke="red" points="230.698,-396.172 222.888,-403.332 233.458,-402.604 230.698,-396.172"/>
<text text-anchor="middle" x="290.991" y="-382.223" font-family="Times Roman,serif" font-size="14.00">3</text>
</g>
<!-- n22_3039830998&#45;&gt;n1_40498704 -->
<g id="edge52" class="edge"><title>n22_3039830998&#45;&gt;n1_40498704</title>
<path fill="none" stroke="red" d="M358.797,-322.33C342.138,-305.46 315.598,-278.581 296.047,-258.781"/>
<polygon fill="red" stroke="red" points="298.448,-256.231 288.931,-251.574 293.467,-261.149 298.448,-256.231"/>
<text text-anchor="middle" x="315.783" y="-290.27" font-family="Times Roman,serif" font-size="14.00">4</text>
</g>
<!-- n32_9929354688704599018 -->
<g id="node12" class="node"><title>n32_9929354688704599018</title>
<polygon fill="none" stroke="black" points="99.7677,-21.0669 105.212,-21.1676 110.599,-21.3183 115.909,-21.5185 121.118,-21.7678 126.207,-22.0655 131.155,-22.4106 135.943,-22.8024 140.553,-23.2397 144.968,-23.7213 149.171,-24.2458 153.148,-24.812 156.887,-25.4181 160.374,-26.0626 163.6,-26.7437 166.556,-27.4595 169.234,-28.208 171.629,-28.9872 173.737,-29.795 175.555,-30.6291 177.081,-31.4873 178.316,-32.3672 179.262,-33.2664 179.922,-34.1825 180.3,-35.1128 180.402,-36.055 180.234,-37.0063 179.804,-37.9642 179.121,-38.926 178.194,-39.8892 177.034,-40.8511 175.65,-41.809 174.055,-42.7603 172.259,-43.7024 170.276,-44.6327 168.116,-45.5488 165.792,-46.448 163.316,-47.3279 160.7,-48.1861 157.955,-49.0202 155.094,-49.828 152.126,-50.6072 149.062,-51.3558 145.912,-52.0715 142.686,-52.7526 139.393,-53.3971 136.04,-54.0032 132.635,-54.5694 129.186,-55.094 125.699,-55.5755 122.178,-56.0128 118.631,-56.4046 115.061,-56.7497 111.472,-57.0474 107.868,-57.2967 104.252,-57.4969 100.627,-57.6476 96.9969,-57.7483 93.3629,-57.7987 89.7276,-57.7987 86.0935,-57.7483 82.463,-57.6476 78.8385,-57.4969 75.2228,-57.2967 71.6188,-57.0474 68.0298,-56.7497 64.4595,-56.4046 60.9119,-56.0128 57.3918,-55.5755 53.9043,-55.094 50.4551,-54.5694 47.0506,-54.0032 43.6979,-53.3971 40.4043,-52.7526 37.1784,-52.0715 34.0287,-51.3558 30.9649,-50.6072 27.9968,-49.828 25.135,-49.0202 22.3904,-48.1861 19.7743,-47.3279 17.2984,-46.448 14.9746,-45.5488 12.8148,-44.6327 10.8312,-43.7024 9.03584,-42.7603 7.44054,-41.809 6.05693,-40.8511 4.89626,-39.8892 3.96928,-38.926 3.28614,-37.9642 2.8563,-37.0063 2.68838,-36.055 2.79008,-35.1128 3.16809,-34.1825 3.82795,-33.2664 4.77403,-32.3672 6.00939,-31.4873 7.53574,-30.6291 9.35337,-29.795 11.4611,-28.9872 13.8563,-28.208 16.5346,-27.4595 19.4905,-26.7437 22.7165,-26.0626 26.2038,-25.4181 29.942,-24.812 33.9194,-24.2458 38.1227,-23.7213 42.5372,-23.2397 47.147,-22.8024 51.9351,-22.4106 56.8832,-22.0655 61.9721,-21.7678 67.1817,-21.5185 72.4911,-21.3183 77.8787,-21.1676 83.3227,-21.0669 88.8006,-21.0165 94.2898,-21.0165 99.7677,-21.0669"/>
<text text-anchor="middle" x="91.5452" y="-35.8076" font-family="Times Roman,serif" font-size="14.00">original.cxx:35</text>
</g>
<!-- n1_40498920 -->
<g id="node14" class="node"><title>n1_40498920</title>
<polygon fill="none" stroke="black" points="894.649,-71.3109 840.649,-71.3109 840.649,-35.3109 894.649,-35.3109 894.649,-71.3109"/>
<text text-anchor="middle" x="867.649" y="-49.7109" font-family="Times Roman,serif" font-size="14.00">float</text>
</g>
<!-- n32_17546584348293785403 -->
<g id="node15" class="node"><title>n32_17546584348293785403</title>
<polygon fill="none" stroke="black" points="888.664,-876.855 894.108,-876.956 899.495,-877.107 904.805,-877.307 910.014,-877.556 915.103,-877.854 920.051,-878.199 924.839,-878.591 929.449,-879.028 933.864,-879.51 938.067,-880.034 942.044,-880.6 945.782,-881.206 949.27,-881.851 952.496,-882.532 955.452,-883.248 958.13,-883.996 960.525,-884.776 962.633,-885.583 964.451,-886.417 965.977,-887.276 967.212,-888.156 968.158,-889.055 968.818,-889.971 969.196,-890.901 969.298,-891.843 969.13,-892.795 968.7,-893.752 968.017,-894.714 967.09,-895.678 965.929,-896.639 964.546,-897.597 962.95,-898.549 961.155,-899.491 959.171,-900.421 957.012,-901.337 954.688,-902.236 952.212,-903.116 949.596,-903.974 946.851,-904.809 943.989,-905.616 941.021,-906.396 937.958,-907.144 934.808,-907.86 931.582,-908.541 928.288,-909.185 924.936,-909.792 921.531,-910.358 918.082,-910.882 914.594,-911.364 911.074,-911.801 907.527,-912.193 903.956,-912.538 900.367,-912.836 896.763,-913.085 893.148,-913.285 889.523,-913.436 885.893,-913.537 882.259,-913.587 878.623,-913.587 874.989,-913.537 871.359,-913.436 867.734,-913.285 864.119,-913.085 860.515,-912.836 856.926,-912.538 853.355,-912.193 849.808,-911.801 846.288,-911.364 842.8,-910.882 839.351,-910.358 835.946,-909.792 832.594,-909.185 829.3,-908.541 826.074,-907.86 822.925,-907.144 819.861,-906.396 816.893,-905.616 814.031,-904.809 811.286,-903.974 808.67,-903.116 806.194,-902.236 803.87,-901.337 801.711,-900.421 799.727,-899.491 797.932,-898.549 796.336,-897.597 794.953,-896.639 793.792,-895.678 792.865,-894.714 792.182,-893.752 791.752,-892.795 791.584,-891.843 791.686,-890.901 792.064,-889.971 792.724,-889.055 793.67,-888.156 794.905,-887.276 796.432,-886.417 798.249,-885.583 800.357,-884.776 802.752,-883.996 805.43,-883.248 808.386,-882.532 811.612,-881.851 815.1,-881.206 818.838,-880.6 822.815,-880.034 827.018,-879.51 831.433,-879.028 836.043,-878.591 840.831,-878.199 845.779,-877.854 850.868,-877.556 856.078,-877.307 861.387,-877.107 866.775,-876.956 872.219,-876.855 877.696,-876.805 883.186,-876.805 888.664,-876.855"/>
<text text-anchor="middle" x="880.441" y="-891.596" font-family="Times Roman,serif" font-size="14.00">original.cxx:38</text>
</g>
<!-- n22_1741378925&#45;&gt;n32_17546584348293785403 -->
<g id="edge54" class="edge"><title>n22_1741378925&#45;&gt;n32_17546584348293785403</title>
<path fill="none" stroke="black" d="M691.461,-664.977C728.351,-709.917 817.621,-818.668 858.876,-868.925"/>
<polygon fill="black" stroke="black" points="856.252,-871.245 865.302,-876.754 861.663,-866.803 856.252,-871.245"/>
<text text-anchor="middle" x="793.423" y="-755.315" font-family="Times Roman,serif" font-size="14.00">instantiation</text>
</g>
<!-- n22_1741378925&#45;&gt;n1_40498704 -->
<g id="edge56" class="edge"><title>n22_1741378925&#45;&gt;n1_40498704</title>
<path fill="none" stroke="red" d="M656.051,-625.621C590.136,-558.482 370.791,-335.06 296.112,-258.993"/>
<polygon fill="red" stroke="red" points="298.445,-256.374 288.942,-251.69 293.45,-261.278 298.445,-256.374"/>
<text text-anchor="middle" x="464.365" y="-441.922" font-family="Times Roman,serif" font-size="14.00">2</text>
</g>
<!-- n22_2871787445&#45;&gt;n32_17546584348293785403 -->
<g id="edge58" class="edge"><title>n22_2871787445&#45;&gt;n32_17546584348293785403</title>
<path fill="none" stroke="black" d="M390.451,-740.256C480.993,-768.886 710.199,-841.364 819.997,-876.083"/>
<polygon fill="black" stroke="black" points="819.015,-879.443 829.605,-879.121 821.125,-872.769 819.015,-879.443"/>
<text text-anchor="middle" x="606.079" y="-820.104" font-family="Times Roman,serif" font-size="14.00">instantiation</text>
</g>
<!-- n22_2871787445&#45;&gt;n1_40498728 -->
<g id="edge60" class="edge"><title>n22_2871787445&#45;&gt;n1_40498728</title>
<path fill="none" stroke="red" d="M341.467,-706.218C313.507,-650.29 239.845,-502.944 209.357,-441.958"/>
<polygon fill="red" stroke="red" points="212.45,-440.319 204.848,-432.939 206.189,-443.449 212.45,-440.319"/>
<text text-anchor="middle" x="281.043" y="-561.75" font-family="Times Roman,serif" font-size="14.00">2</text>
</g>
<!-- n22_2695967745 -->
<g id="node19" class="node"><title>n22_2695967745</title>
<polygon fill="none" stroke="black" points="39.2646,-331.578 7.26464,-305.578 39.2646,-279.578 71.2646,-305.578 39.2646,-331.578"/>
<text text-anchor="middle" x="39.2646" y="-301.978" font-family="Times Roman,serif" font-size="14.00">if_</text>
</g>
<!-- n22_2695967745&#45;&gt;n22_1213819723 -->
<g id="edge70" class="edge"><title>n22_2695967745&#45;&gt;n22_1213819723</title>
<path fill="none" stroke="blue" d="M39.7209,-331.258C40.6309,-382.466 42.673,-497.394 43.7162,-556.103"/>
<polygon fill="blue" stroke="blue" points="40.2217,-556.446 43.8989,-566.383 47.2206,-556.322 40.2217,-556.446"/>
</g>
<!-- n22_2695967745&#45;&gt;n32_9929354688704599018 -->
<g id="edge62" class="edge"><title>n22_2695967745&#45;&gt;n32_9929354688704599018</title>
<path fill="none" stroke="black" d="M43.722,-282.885C53.2168,-234.545 75.4225,-121.491 85.8925,-68.1869"/>
<polygon fill="black" stroke="black" points="89.3882,-68.5485 87.8813,-58.0614 82.5195,-67.1993 89.3882,-68.5485"/>
<text text-anchor="middle" x="46.7624" y="-164.073" font-family="Times Roman,serif" font-size="14.00">instantiation</text>
</g>
<!-- n22_2695967745&#45;&gt;n1_40498728 -->
<g id="edge66" class="edge"><title>n22_2695967745&#45;&gt;n1_40498728</title>
<path fill="none" stroke="red" d="M56.62,-317.699C81.8373,-335.311 129.128,-368.339 161.536,-390.973"/>
<polygon fill="red" stroke="red" points="159.639,-393.917 169.841,-396.773 163.647,-388.178 159.639,-393.917"/>
<text text-anchor="middle" x="119.1" y="-344.545" font-family="Times Roman,serif" font-size="14.00">3</text>
</g>
<!-- n22_2695967745&#45;&gt;n1_40498704 -->
<g id="edge68" class="edge"><title>n22_2695967745&#45;&gt;n1_40498704</title>
<path fill="none" stroke="red" d="M62.7561,-298.258C103.141,-285.673 186.019,-259.846 234.139,-244.851"/>
<polygon fill="red" stroke="red" points="235.346,-248.141 243.852,-241.824 233.263,-241.458 235.346,-248.141"/>
<text text-anchor="middle" x="150.383" y="-256.416" font-family="Times Roman,serif" font-size="14.00">4</text>
</g>
<!-- n22_2695967745&#45;&gt;n22_30076986 -->
<g id="edge64" class="edge"><title>n22_2695967745&#45;&gt;n22_30076986</title>
<path fill="none" stroke="red" d="M49.0233,-324.016C96.2778,-413.296 301.483,-801.002 361.179,-913.79"/>
<polygon fill="red" stroke="red" points="358.091,-915.436 365.862,-922.637 364.277,-912.162 358.091,-915.436"/>
<text text-anchor="middle" x="215.45" y="-615.74" font-family="Times Roman,serif" font-size="14.00">2</text>
</g>
<!-- n22_1378728391 -->
<g id="node20" class="node"><title>n22_1378728391</title>
<polygon fill="none" stroke="black" points="364.687,-56.9199 332.687,-30.9199 364.687,-4.91988 396.687,-30.9199 364.687,-56.9199"/>
<text text-anchor="middle" x="364.687" y="-27.3199" font-family="Times Roman,serif" font-size="14.00">if_</text>
</g>
<!-- n22_1378728391&#45;&gt;n22_3039830998 -->
<g id="edge80" class="edge"><title>n22_1378728391&#45;&gt;n22_3039830998</title>
<path fill="none" stroke="blue" d="M365.5,-56.3323C367.246,-110.849 371.354,-239.179 373.369,-302.141"/>
<polygon fill="blue" stroke="blue" points="369.879,-302.502 373.697,-312.385 376.875,-302.278 369.879,-302.502"/>
</g>
<!-- n22_1378728391&#45;&gt;n32_9929354688704599018 -->
<g id="edge72" class="edge"><title>n22_1378728391&#45;&gt;n32_9929354688704599018</title>
<path fill="none" stroke="black" d="M333.62,-31.8853C298.882,-32.9647 240.86,-34.7677 190.329,-36.338"/>
<polygon fill="black" stroke="black" points="190.218,-32.8396 180.332,-36.6486 190.436,-39.8362 190.218,-32.8396"/>
<text text-anchor="middle" x="257.174" y="-20.6608" font-family="Times Roman,serif" font-size="14.00">instantiation</text>
</g>
<!-- n22_1378728391&#45;&gt;n1_40498728 -->
<g id="edge76" class="edge"><title>n22_1378728391&#45;&gt;n1_40498728</title>
<path fill="none" stroke="red" d="M356.198,-50.2265C328.48,-113.27 240.545,-313.273 208.061,-387.156"/>
<polygon fill="red" stroke="red" points="204.678,-386.154 203.857,-396.717 211.086,-388.972 204.678,-386.154"/>
<text text-anchor="middle" x="288.111" y="-222.683" font-family="Times Roman,serif" font-size="14.00">3</text>
</g>
<!-- n22_1378728391&#45;&gt;n1_40498704 -->
<g id="edge78" class="edge"><title>n22_1378728391&#45;&gt;n1_40498704</title>
<path fill="none" stroke="red" d="M355.869,-49.9664C339.206,-85.9624 303.033,-164.1 283.719,-205.82"/>
<polygon fill="red" stroke="red" points="280.442,-204.567 279.418,-215.112 286.795,-207.507 280.442,-204.567"/>
<text text-anchor="middle" x="325.61" y="-133.011" font-family="Times Roman,serif" font-size="14.00">4</text>
</g>
<!-- n22_1378728391&#45;&gt;n22_2956297009 -->
<g id="edge74" class="edge"><title>n22_1378728391&#45;&gt;n22_2956297009</title>
<path fill="none" stroke="red" d="M381.476,-43.5443C431.426,-81.1045 579.681,-192.586 645.206,-241.857"/>
<polygon fill="red" stroke="red" points="643.419,-244.893 653.515,-248.105 647.626,-239.298 643.419,-244.893"/>
<text text-anchor="middle" x="511.476" y="-151.21" font-family="Times Roman,serif" font-size="14.00">2</text>
</g>
<!-- n22_2604720182 -->
<g id="node22" class="node"><title>n22_2604720182</title>
<polygon fill="none" stroke="black" points="595.034,-53 542.034,-27 595.034,-1 648.034,-27 595.034,-53"/>
<text text-anchor="middle" x="595.034" y="-23.4" font-family="Times Roman,serif" font-size="14.00">bool_</text>
</g>
<!-- n22_2604720182&#45;&gt;n32_12883939255363387905 -->
<g id="edge82" class="edge"><title>n22_2604720182&#45;&gt;n32_12883939255363387905</title>
<path fill="none" stroke="black" d="M583.976,-47.744C565.305,-82.7678 527.522,-153.645 506.559,-192.969"/>
<polygon fill="black" stroke="black" points="503.229,-191.775 501.614,-202.246 509.407,-195.068 503.229,-191.775"/>
<text text-anchor="middle" x="560.749" y="-130.481" font-family="Times Roman,serif" font-size="14.00">instantiation</text>
</g>
<!-- n22_2604720182&#45;&gt;n8_1773484321 -->
<g id="edge84" class="edge"><title>n22_2604720182&#45;&gt;n8_1773484321</title>
<path fill="none" stroke="red" d="M606.101,-47.7264C651.473,-132.705 823.594,-455.073 881.643,-563.794"/>
<polygon fill="red" stroke="red" points="878.625,-565.572 886.422,-572.745 884.8,-562.275 878.625,-565.572"/>
<text text-anchor="middle" x="754.338" y="-302.779" font-family="Times Roman,serif" font-size="14.00">2</text>
</g>
<!-- n22_3175660132 -->
<g id="node23" class="node"><title>n22_3175660132</title>
<polygon fill="none" stroke="black" points="525.322,-383.896 472.322,-357.896 525.322,-331.896 578.322,-357.896 525.322,-383.896"/>
<text text-anchor="middle" x="525.322" y="-354.296" font-family="Times Roman,serif" font-size="14.00">bool_</text>
</g>
<!-- n22_3175660132&#45;&gt;n8_1030972443 -->
<g id="edge88" class="edge"><title>n22_3175660132&#45;&gt;n8_1030972443</title>
<path fill="none" stroke="red" d="M508.04,-375.975C495.563,-389.026 478.438,-406.94 463.98,-422.063"/>
<polygon fill="red" stroke="red" points="461.082,-420.03 456.702,-429.677 466.142,-424.867 461.082,-420.03"/>
<text text-anchor="middle" x="490.431" y="-406.163" font-family="Times Roman,serif" font-size="14.00">2</text>
</g>
<!-- n22_3175660132&#45;&gt;n32_12883939255363387905 -->
<g id="edge86" class="edge"><title>n22_3175660132&#45;&gt;n32_12883939255363387905</title>
<path fill="none" stroke="black" d="M519.619,-334.646C513.824,-311.018 504.839,-274.391 498.636,-249.101"/>
<polygon fill="black" stroke="black" points="502.027,-248.236 496.246,-239.358 495.229,-249.903 502.027,-248.236"/>
<text text-anchor="middle" x="488.963" y="-287.524" font-family="Times Roman,serif" font-size="14.00">instantiation</text>
</g>
<!-- n22_30076986&#45;&gt;n1_40498944 -->
<g id="edge94" class="edge"><title>n22_30076986&#45;&gt;n1_40498944</title>
<path fill="none" stroke="red" d="M440.242,-941.564C485.883,-939.302 546.396,-936.301 586.075,-934.334"/>
<polygon fill="red" stroke="red" points="586.373,-937.824 596.187,-933.833 586.026,-930.832 586.373,-937.824"/>
<text text-anchor="middle" x="518.413" y="-944.089" font-family="Times Roman,serif" font-size="14.00">3</text>
</g>
<!-- n22_30076986&#45;&gt;n1_40498920 -->
<g id="edge92" class="edge"><title>n22_30076986&#45;&gt;n1_40498920</title>
<path fill="none" stroke="red" d="M389.641,-922.64C456.437,-801.162 779.399,-213.807 852.79,-80.3332"/>
<polygon fill="red" stroke="red" points="855.885,-81.9692 857.636,-71.5201 849.751,-78.5964 855.885,-81.9692"/>
<text text-anchor="middle" x="631.637" y="-497.484" font-family="Times Roman,serif" font-size="14.00">2</text>
</g>
<!-- n22_30076986&#45;&gt;n22_2604720182 -->
<g id="edge96" class="edge"><title>n22_30076986&#45;&gt;n22_2604720182</title>
<path fill="none" stroke="blue" d="M383.232,-920.6C413.211,-794.117 552.443,-206.695 587.171,-60.1764"/>
<polygon fill="blue" stroke="blue" points="590.587,-60.939 589.488,-50.4014 583.776,-59.3246 590.587,-60.939"/>
</g>
<!-- n32_5226358432096855147 -->
<g id="node27" class="node"><title>n32_5226358432096855147</title>
<polygon fill="none" stroke="black" points="914.855,-313.325 920.299,-313.426 925.687,-313.576 930.996,-313.777 936.206,-314.026 941.295,-314.323 946.243,-314.669 951.031,-315.06 955.641,-315.498 960.055,-315.979 964.258,-316.504 968.236,-317.07 971.974,-317.676 975.461,-318.321 978.687,-319.002 981.643,-319.717 984.322,-320.466 986.717,-321.245 988.824,-322.053 990.642,-322.887 992.168,-323.745 993.404,-324.625 994.35,-325.524 995.01,-326.44 995.388,-327.371 995.489,-328.313 995.322,-329.264 994.892,-330.222 994.209,-331.184 993.282,-332.147 992.121,-333.109 990.737,-334.067 989.142,-335.018 987.347,-335.96 985.363,-336.891 983.203,-337.807 980.879,-338.706 978.404,-339.586 975.787,-340.444 973.043,-341.278 970.181,-342.086 967.213,-342.865 964.149,-343.614 960.999,-344.33 957.773,-345.011 954.48,-345.655 951.127,-346.261 947.723,-346.827 944.274,-347.352 940.786,-347.834 937.266,-348.271 933.718,-348.663 930.148,-349.008 926.559,-349.305 922.955,-349.555 919.339,-349.755 915.715,-349.906 912.084,-350.006 908.45,-350.057 904.815,-350.057 901.181,-350.006 897.55,-349.906 893.926,-349.755 890.31,-349.555 886.706,-349.305 883.117,-349.008 879.547,-348.663 875.999,-348.271 872.479,-347.834 868.992,-347.352 865.542,-346.827 862.138,-346.261 858.785,-345.655 855.492,-345.011 852.266,-344.33 849.116,-343.614 846.052,-342.865 843.084,-342.086 840.222,-341.278 837.478,-340.444 834.862,-339.586 832.386,-338.706 830.062,-337.807 827.902,-336.891 825.919,-335.96 824.123,-335.018 822.528,-334.067 821.144,-333.109 819.984,-332.147 819.057,-331.184 818.374,-330.222 817.944,-329.264 817.776,-328.313 817.877,-327.371 818.255,-326.44 818.915,-325.524 819.861,-324.625 821.097,-323.745 822.623,-322.887 824.441,-322.053 826.548,-321.245 828.944,-320.466 831.622,-319.717 834.578,-319.002 837.804,-318.321 841.291,-317.676 845.029,-317.07 849.007,-316.504 853.21,-315.979 857.625,-315.498 862.234,-315.06 867.022,-314.669 871.971,-314.323 877.059,-314.026 882.269,-313.777 887.578,-313.576 892.966,-313.426 898.41,-313.325 903.888,-313.275 909.377,-313.275 914.855,-313.325"/>
<text text-anchor="middle" x="906.633" y="-328.066" font-family="Times Roman,serif" font-size="14.00">original.cxx:50</text>
</g>
<!-- n22_30076986&#45;&gt;n32_5226358432096855147 -->
<g id="edge90" class="edge"><title>n22_30076986&#45;&gt;n32_5226358432096855147</title>
<path fill="none" stroke="black" d="M394.829,-924.627C473.382,-833.618 796.394,-459.385 884.401,-357.423"/>
<polygon fill="black" stroke="black" points="887.14,-359.606 891.024,-349.749 881.841,-355.032 887.14,-359.606"/>
<text text-anchor="middle" x="627.915" y="-620.601" font-family="Times Roman,serif" font-size="14.00">instantiation</text>
</g>
<!-- n22_2956297009&#45;&gt;n1_40498920 -->
<g id="edge100" class="edge"><title>n22_2956297009&#45;&gt;n1_40498920</title>
<path fill="none" stroke="red" d="M699.093,-247.421C737.472,-209.591 815.202,-123.086 850.127,-79.4214"/>
<polygon fill="red" stroke="red" points="852.896,-81.5622 856.324,-71.5373 847.392,-77.2363 852.896,-81.5622"/>
<text text-anchor="middle" x="787.588" y="-164.905" font-family="Times Roman,serif" font-size="14.00">2</text>
</g>
<!-- n22_2956297009&#45;&gt;n1_40498920 -->
<g id="edge102" class="edge"><title>n22_2956297009&#45;&gt;n1_40498920</title>
<path fill="none" stroke="red" d="M690.557,-244.57C721.387,-205.183 796.521,-121.104 838.402,-78.7249"/>
<polygon fill="red" stroke="red" points="840.971,-81.1059 845.569,-71.5611 836.022,-76.1549 840.971,-81.1059"/>
<text text-anchor="middle" x="758.232" y="-145.578" font-family="Times Roman,serif" font-size="14.00">3</text>
</g>
<!-- n22_2956297009&#45;&gt;n22_3175660132 -->
<g id="edge104" class="edge"><title>n22_2956297009&#45;&gt;n22_3175660132</title>
<path fill="none" stroke="blue" d="M650.194,-281.995C624.529,-297.596 585.719,-321.185 558.187,-337.92"/>
<polygon fill="blue" stroke="blue" points="556.045,-335.126 549.317,-343.311 559.681,-341.108 556.045,-335.126"/>
</g>
<!-- n22_2956297009&#45;&gt;n32_5226358432096855147 -->
<g id="edge98" class="edge"><title>n22_2956297009&#45;&gt;n32_5226358432096855147</title>
<path fill="none" stroke="black" d="M716.961,-277.215C751.513,-287.134 802.072,-301.649 842.303,-313.198"/>
<polygon fill="black" stroke="black" points="841.451,-316.595 852.029,-315.99 843.383,-309.867 841.451,-316.595"/>
<text text-anchor="middle" x="787.22" y="-279.924" font-family="Times Roman,serif" font-size="14.00">instantiation</text>
</g>
</g>
</svg>
