<?xml version="1.0" encoding="UTF-8" standalone="no"?>
<!DOCTYPE svg PUBLIC "-//W3C//DTD SVG 1.1//EN"
 "http://www.w3.org/Graphics/SVG/1.1/DTD/svg11.dtd">
<!-- Generated by graphviz version 2.26.3 (20100126.1600)
 -->
<!-- Title: _anonymous_0 Pages: 1 -->
<svg width="1681pt" height="554pt"
 viewBox="0.00 0.00 1681.00 554.00" xmlns="http://www.w3.org/2000/svg" xmlns:xlink="http://www.w3.org/1999/xlink">
<g id="graph1" class="graph" transform="scale(1 1) rotate(0) translate(4 550)">
<title>_anonymous_0</title>
<polygon fill="white" stroke="white" points="-4,5 -4,-550 1678,-550 1678,5 -4,5"/>
<!-- n22_1077592855 -->
<g id="node1" class="node"><title>n22_1077592855</title>
<polygon fill="none" stroke="black" points="75,-158 1.42109e-14,-132 75,-106 150,-132 75,-158"/>
<text text-anchor="middle" x="75" y="-128.4" font-family="Times Roman,serif" font-size="14.00">lazy_if_c</text>
</g>
<!-- n32_12465215423231841903 -->
<g id="node3" class="node"><title>n32_12465215423231841903</title>
<polygon fill="none" stroke="black" points="130.223,-302.659 135.666,-302.76 141.054,-302.911 146.364,-303.111 151.573,-303.36 156.662,-303.658 161.61,-304.003 166.398,-304.395 171.008,-304.832 175.423,-305.314 179.626,-305.838 183.603,-306.404 187.341,-307.011 190.829,-307.655 194.055,-308.336 197.011,-309.052 199.689,-309.8 202.084,-310.58 204.192,-311.387 206.009,-312.222 207.536,-313.08 208.771,-313.96 209.717,-314.859 210.377,-315.775 210.755,-316.705 210.857,-317.647 210.689,-318.599 210.259,-319.557 209.576,-320.518 208.649,-321.482 207.488,-322.443 206.105,-323.401 204.509,-324.353 202.714,-325.295 200.73,-326.225 198.571,-327.141 196.247,-328.04 193.771,-328.92 191.155,-329.778 188.41,-330.613 185.548,-331.42 182.58,-332.2 179.517,-332.948 176.367,-333.664 173.141,-334.345 169.847,-334.989 166.495,-335.596 163.09,-336.162 159.641,-336.686 156.153,-337.168 152.633,-337.605 149.086,-337.997 145.515,-338.342 141.926,-338.64 138.322,-338.889 134.707,-339.089 131.082,-339.24 127.452,-339.341 123.818,-339.391 120.182,-339.391 116.548,-339.341 112.918,-339.24 109.293,-339.089 105.678,-338.889 102.074,-338.64 98.4846,-338.342 94.9143,-337.997 91.3667,-337.605 87.8466,-337.168 84.3591,-336.686 80.9099,-336.162 77.5054,-335.596 74.1526,-334.989 70.8591,-334.345 67.6331,-333.664 64.4835,-332.948 61.4197,-332.2 58.4516,-331.42 55.5898,-330.613 52.8452,-329.778 50.2291,-328.92 47.7532,-328.04 45.4293,-327.141 43.2696,-326.225 41.286,-325.295 39.4906,-324.353 37.8953,-323.401 36.5117,-322.443 35.351,-321.482 34.4241,-320.518 33.7409,-319.557 33.3111,-318.599 33.1432,-317.647 33.2449,-316.705 33.6229,-315.775 34.2827,-314.859 35.2288,-313.96 36.4642,-313.08 37.9905,-312.222 39.8081,-311.387 41.9159,-310.58 44.311,-309.8 46.9894,-309.052 49.9453,-308.336 53.1713,-307.655 56.6586,-307.011 60.3968,-306.404 64.3742,-305.838 68.5774,-305.314 72.992,-304.832 77.6018,-304.395 82.3899,-304.003 87.338,-303.658 92.4269,-303.36 97.6365,-303.111 102.946,-302.911 108.334,-302.76 113.777,-302.659 119.255,-302.609 124.745,-302.609 130.223,-302.659"/>
<text text-anchor="middle" x="122" y="-317.4" font-family="Times Roman,serif" font-size="14.00">original.cxx:12</text>
</g>
<!-- n22_1077592855&#45;&gt;n32_12465215423231841903 -->
<g id="edge2" class="edge"><title>n22_1077592855&#45;&gt;n32_12465215423231841903</title>
<path fill="none" stroke="black" d="M58.4118,-152.742C53.7869,-159.725 49.3796,-167.828 47,-176 42.2781,-192.215 41.9175,-197.894 47,-214 56.8238,-245.131 79.3006,-275.072 97.1019,-295.325"/>
<polygon fill="black" stroke="black" points="94.6041,-297.781 103.903,-302.858 99.7998,-293.09 94.6041,-297.781"/>
<text text-anchor="middle" x="91" y="-191.4" font-family="Times Roman,serif" font-size="14.00">instantiation</text>
</g>
<!-- n8_1773484321 -->
<g id="node7" class="node"><title>n8_1773484321</title>
<ellipse fill="none" stroke="black" cx="485" cy="-515" rx="29.9071" ry="30.4056"/>
<text text-anchor="middle" x="485" y="-511.4" font-family="Times Roman,serif" font-size="14.00">0x0</text>
</g>
<!-- n22_1077592855&#45;&gt;n8_1773484321 -->
<g id="edge4" class="edge"><title>n22_1077592855&#45;&gt;n8_1773484321</title>
<path fill="none" stroke="red" d="M55.98,-151.64C50.0111,-158.801 43.9551,-167.29 40,-176 9.56799,-243.016 -6.8866,-270.382 17,-340 40.024,-407.104 53.4583,-430.706 115,-466 170.521,-497.841 360.686,-509.719 444.627,-513.483"/>
<polygon fill="red" stroke="red" points="444.654,-516.987 454.796,-513.922 444.956,-509.994 444.654,-516.987"/>
<text text-anchor="middle" x="22" y="-317.4" font-family="Times Roman,serif" font-size="14.00">2</text>
</g>
<!-- n22_1741378925 -->
<g id="node17" class="node"><title>n22_1741378925</title>
<polygon fill="none" stroke="black" points="648,-284 578,-258 648,-232 718,-258 648,-284"/>
<text text-anchor="middle" x="648" y="-254.4" font-family="Times Roman,serif" font-size="14.00">identity</text>
</g>
<!-- n22_1077592855&#45;&gt;n22_1741378925 -->
<g id="edge8" class="edge"><title>n22_1077592855&#45;&gt;n22_1741378925</title>
<path fill="none" stroke="red" d="M108.826,-146.311C128.518,-154.748 153.768,-165.748 176,-176 211.018,-192.149 216.724,-204.124 254,-214 373.685,-245.71 409.442,-214.407 532,-232 553.496,-235.086 576.919,-240.027 597.052,-244.778"/>
<polygon fill="red" stroke="red" points="596.409,-248.223 606.95,-247.159 598.047,-241.417 596.409,-248.223"/>
<text text-anchor="middle" x="259" y="-191.4" font-family="Times Roman,serif" font-size="14.00">4</text>
</g>
<!-- n22_2871787445 -->
<g id="node18" class="node"><title>n22_2871787445</title>
<polygon fill="none" stroke="black" points="255,-284 185,-258 255,-232 325,-258 255,-284"/>
<text text-anchor="middle" x="255" y="-254.4" font-family="Times Roman,serif" font-size="14.00">identity</text>
</g>
<!-- n22_1077592855&#45;&gt;n22_2871787445 -->
<g id="edge6" class="edge"><title>n22_1077592855&#45;&gt;n22_2871787445</title>
<path fill="none" stroke="red" d="M103.773,-148.084C115.573,-155.572 128.821,-165.212 139,-176 152.549,-190.358 147.345,-200.773 162,-214 175.067,-225.794 191.855,-235.027 207.563,-241.925"/>
<polygon fill="red" stroke="red" points="206.584,-245.308 217.161,-245.919 209.273,-238.845 206.584,-245.308"/>
<text text-anchor="middle" x="167" y="-191.4" font-family="Times Roman,serif" font-size="14.00">3</text>
</g>
<!-- n22_1772220736 -->
<g id="node2" class="node"><title>n22_1772220736</title>
<polygon fill="none" stroke="black" points="589,-158 514,-132 589,-106 664,-132 589,-158"/>
<text text-anchor="middle" x="589" y="-128.4" font-family="Times Roman,serif" font-size="14.00">lazy_if_c</text>
</g>
<!-- n22_1772220736&#45;&gt;n32_12465215423231841903 -->
<g id="edge10" class="edge"><title>n22_1772220736&#45;&gt;n32_12465215423231841903</title>
<path fill="none" stroke="black" d="M569.043,-151.616C562.215,-158.907 554.835,-167.484 549,-176 538.327,-191.576 545.474,-203.178 530,-214 472.082,-254.505 433.102,-196.48 372,-232 347.253,-246.386 358.309,-268.886 334,-284 332.554,-284.899 263.976,-296.778 205.21,-306.837"/>
<polygon fill="black" stroke="black" points="204.392,-303.426 195.125,-308.562 205.572,-310.326 204.392,-303.426"/>
<text text-anchor="middle" x="593" y="-191.4" font-family="Times Roman,serif" font-size="14.00">instantiation</text>
</g>
<!-- n8_1030972443 -->
<g id="node4" class="node"><title>n8_1030972443</title>
<ellipse fill="none" stroke="black" cx="983" cy="-515" rx="29.9071" ry="30.4056"/>
<text text-anchor="middle" x="983" y="-511.4" font-family="Times Roman,serif" font-size="14.00">0x1</text>
</g>
<!-- n22_1772220736&#45;&gt;n8_1030972443 -->
<g id="edge12" class="edge"><title>n22_1772220736&#45;&gt;n8_1030972443</title>
<path fill="none" stroke="red" d="M627.568,-144.844C640.684,-149.13 655.451,-153.864 669,-158 696.852,-166.502 713.49,-153.519 732,-176 778.499,-232.474 718.575,-272.181 746,-340 759.717,-373.922 821.903,-445.19 852,-466 879.805,-485.225 916.109,-498.031 943.446,-505.715"/>
<polygon fill="red" stroke="red" points="942.881,-509.187 953.447,-508.411 944.703,-502.429 942.881,-509.187"/>
<text text-anchor="middle" x="751" y="-317.4" font-family="Times Roman,serif" font-size="14.00">2</text>
</g>
<!-- n22_1772220736&#45;&gt;n22_1741378925 -->
<g id="edge16" class="edge"><title>n22_1772220736&#45;&gt;n22_1741378925</title>
<path fill="none" stroke="red" d="M616.257,-148.558C625.715,-155.762 635.355,-165.073 641,-176 648.353,-190.233 650.608,-207.729 650.82,-222.899"/>
<polygon fill="red" stroke="red" points="647.319,-222.912 650.678,-232.961 654.319,-223.011 647.319,-222.912"/>
<text text-anchor="middle" x="655" y="-191.4" font-family="Times Roman,serif" font-size="14.00">4</text>
</g>
<!-- n22_1772220736&#45;&gt;n22_2871787445 -->
<g id="edge14" class="edge"><title>n22_1772220736&#45;&gt;n22_2871787445</title>
<path fill="none" stroke="red" d="M558.274,-147.5C545.456,-154.949 531.02,-164.719 520,-176 506.205,-190.122 513.621,-203.347 497,-214 467.248,-233.069 373.585,-224.744 339,-232 326.386,-234.647 312.955,-238.375 300.619,-242.185"/>
<polygon fill="red" stroke="red" points="299.47,-238.877 290.996,-245.238 301.587,-245.55 299.47,-238.877"/>
<text text-anchor="middle" x="525" y="-191.4" font-family="Times Roman,serif" font-size="14.00">3</text>
</g>
<!-- n1_40498944 -->
<g id="node5" class="node"><title>n1_40498944</title>
<polygon fill="none" stroke="black" points="376,-402 314,-402 314,-366 376,-366 376,-402"/>
<text text-anchor="middle" x="345" y="-380.4" font-family="Times Roman,serif" font-size="14.00">double</text>
</g>
<!-- n32_12883939255363387905 -->
<g id="node6" class="node"><title>n32_12883939255363387905</title>
<polygon fill="none" stroke="black" points="742.223,-496.659 747.666,-496.76 753.054,-496.911 758.364,-497.111 763.573,-497.36 768.662,-497.658 773.61,-498.003 778.398,-498.395 783.008,-498.832 787.423,-499.314 791.626,-499.838 795.603,-500.404 799.341,-501.011 802.829,-501.655 806.055,-502.336 809.011,-503.052 811.689,-503.8 814.084,-504.58 816.192,-505.387 818.009,-506.222 819.536,-507.08 820.771,-507.96 821.717,-508.859 822.377,-509.775 822.755,-510.705 822.857,-511.647 822.689,-512.599 822.259,-513.557 821.576,-514.518 820.649,-515.482 819.488,-516.443 818.105,-517.401 816.509,-518.353 814.714,-519.295 812.73,-520.225 810.571,-521.141 808.247,-522.04 805.771,-522.92 803.155,-523.778 800.41,-524.613 797.548,-525.42 794.58,-526.2 791.517,-526.948 788.367,-527.664 785.141,-528.345 781.847,-528.989 778.495,-529.596 775.09,-530.162 771.641,-530.686 768.153,-531.168 764.633,-531.605 761.086,-531.997 757.515,-532.342 753.926,-532.64 750.322,-532.889 746.707,-533.089 743.082,-533.24 739.452,-533.341 735.818,-533.391 732.182,-533.391 728.548,-533.341 724.918,-533.24 721.293,-533.089 717.678,-532.889 714.074,-532.64 710.485,-532.342 706.914,-531.997 703.367,-531.605 699.847,-531.168 696.359,-530.686 692.91,-530.162 689.505,-529.596 686.153,-528.989 682.859,-528.345 679.633,-527.664 676.483,-526.948 673.42,-526.2 670.452,-525.42 667.59,-524.613 664.845,-523.778 662.229,-522.92 659.753,-522.04 657.429,-521.141 655.27,-520.225 653.286,-519.295 651.491,-518.353 649.895,-517.401 648.512,-516.443 647.351,-515.482 646.424,-514.518 645.741,-513.557 645.311,-512.599 645.143,-511.647 645.245,-510.705 645.623,-509.775 646.283,-508.859 647.229,-507.96 648.464,-507.08 649.991,-506.222 651.808,-505.387 653.916,-504.58 656.311,-503.8 658.989,-503.052 661.945,-502.336 665.171,-501.655 668.659,-501.011 672.397,-500.404 676.374,-499.838 680.577,-499.314 684.992,-498.832 689.602,-498.395 694.39,-498.003 699.338,-497.658 704.427,-497.36 709.636,-497.111 714.946,-496.911 720.334,-496.76 725.777,-496.659 731.255,-496.609 736.745,-496.609 742.223,-496.659"/>
<text text-anchor="middle" x="734" y="-511.4" font-family="Times Roman,serif" font-size="14.00">original.cxx:42</text>
</g>
<!-- n22_1682610999 -->
<g id="node8" class="node"><title>n22_1682610999</title>
<polygon fill="none" stroke="black" points="209,-52 148,-26 209,-3.55271e-15 270,-26 209,-52"/>
<text text-anchor="middle" x="209" y="-22.4" font-family="Times Roman,serif" font-size="14.00">lazy_if</text>
</g>
<!-- n22_1682610999&#45;&gt;n22_1077592855 -->
<g id="edge26" class="edge"><title>n22_1682610999&#45;&gt;n22_1077592855</title>
<path fill="none" stroke="blue" d="M187.471,-43.0307C165.536,-60.3819 131.291,-87.4714 106.348,-107.203"/>
<polygon fill="blue" stroke="blue" points="103.948,-104.638 98.2764,-113.587 108.291,-110.128 103.948,-104.638"/>
</g>
<!-- n32_3683794977457051237 -->
<g id="node16" class="node"><title>n32_3683794977457051237</title>
<polygon fill="none" stroke="black" points="390.223,-176.659 395.666,-176.76 401.054,-176.911 406.364,-177.111 411.573,-177.36 416.662,-177.658 421.61,-178.003 426.398,-178.395 431.008,-178.832 435.423,-179.314 439.626,-179.838 443.603,-180.404 447.341,-181.011 450.829,-181.655 454.055,-182.336 457.011,-183.052 459.689,-183.8 462.084,-184.58 464.192,-185.387 466.009,-186.222 467.536,-187.08 468.771,-187.96 469.717,-188.859 470.377,-189.775 470.755,-190.705 470.857,-191.647 470.689,-192.599 470.259,-193.557 469.576,-194.518 468.649,-195.482 467.488,-196.443 466.105,-197.401 464.509,-198.353 462.714,-199.295 460.73,-200.225 458.571,-201.141 456.247,-202.04 453.771,-202.92 451.155,-203.778 448.41,-204.613 445.548,-205.42 442.58,-206.2 439.517,-206.948 436.367,-207.664 433.141,-208.345 429.847,-208.989 426.495,-209.596 423.09,-210.162 419.641,-210.686 416.153,-211.168 412.633,-211.605 409.086,-211.997 405.515,-212.342 401.926,-212.64 398.322,-212.889 394.707,-213.089 391.082,-213.24 387.452,-213.341 383.818,-213.391 380.182,-213.391 376.548,-213.341 372.918,-213.24 369.293,-213.089 365.678,-212.889 362.074,-212.64 358.485,-212.342 354.914,-211.997 351.367,-211.605 347.847,-211.168 344.359,-210.686 340.91,-210.162 337.505,-209.596 334.153,-208.989 330.859,-208.345 327.633,-207.664 324.483,-206.948 321.42,-206.2 318.452,-205.42 315.59,-204.613 312.845,-203.778 310.229,-202.92 307.753,-202.04 305.429,-201.141 303.27,-200.225 301.286,-199.295 299.491,-198.353 297.895,-197.401 296.512,-196.443 295.351,-195.482 294.424,-194.518 293.741,-193.557 293.311,-192.599 293.143,-191.647 293.245,-190.705 293.623,-189.775 294.283,-188.859 295.229,-187.96 296.464,-187.08 297.991,-186.222 299.808,-185.387 301.916,-184.58 304.311,-183.8 306.989,-183.052 309.945,-182.336 313.171,-181.655 316.659,-181.011 320.397,-180.404 324.374,-179.838 328.577,-179.314 332.992,-178.832 337.602,-178.395 342.39,-178.003 347.338,-177.658 352.427,-177.36 357.636,-177.111 362.946,-176.911 368.334,-176.76 373.777,-176.659 379.255,-176.609 384.745,-176.609 390.223,-176.659"/>
<text text-anchor="middle" x="382" y="-191.4" font-family="Times Roman,serif" font-size="14.00">original.cxx:22</text>
</g>
<!-- n22_1682610999&#45;&gt;n32_3683794977457051237 -->
<g id="edge18" class="edge"><title>n22_1682610999&#45;&gt;n32_3683794977457051237</title>
<path fill="none" stroke="black" d="M236.234,-40.7136C249.513,-48.5298 265.314,-58.8232 278,-70 312.021,-99.9752 344.291,-141.542 363.615,-168.356"/>
<polygon fill="black" stroke="black" points="360.769,-170.393 369.42,-176.51 366.471,-166.334 360.769,-170.393"/>
<text text-anchor="middle" x="341" y="-75.4" font-family="Times Roman,serif" font-size="14.00">instantiation</text>
</g>
<!-- n22_1682610999&#45;&gt;n22_1741378925 -->
<g id="edge24" class="edge"><title>n22_1682610999&#45;&gt;n22_1741378925</title>
<path fill="none" stroke="red" d="M218.132,-48.3138C238.153,-97.0026 284.714,-208.854 292,-214 335.685,-244.855 479.099,-224.13 532,-232 553.393,-235.182 576.709,-240.116 596.79,-244.834"/>
<polygon fill="red" stroke="red" points="596.126,-248.274 606.666,-247.198 597.755,-241.466 596.126,-248.274"/>
<text text-anchor="middle" x="269" y="-128.4" font-family="Times Roman,serif" font-size="14.00">4</text>
</g>
<!-- n22_1682610999&#45;&gt;n22_2871787445 -->
<g id="edge22" class="edge"><title>n22_1682610999&#45;&gt;n22_2871787445</title>
<path fill="none" stroke="red" d="M202.009,-49.2566C192.235,-86.4008 178.567,-160.384 206,-214 209.93,-221.682 215.802,-228.658 222.128,-234.677"/>
<polygon fill="red" stroke="red" points="219.847,-237.332 229.675,-241.289 224.46,-232.067 219.847,-237.332"/>
<text text-anchor="middle" x="197" y="-128.4" font-family="Times Roman,serif" font-size="14.00">3</text>
</g>
<!-- n22_30076986 -->
<g id="node25" class="node"><title>n22_30076986</title>
<polygon fill="none" stroke="black" points="452,-284 381,-258 452,-232 523,-258 452,-284"/>
<text text-anchor="middle" x="452" y="-254.4" font-family="Times Roman,serif" font-size="14.00">is_same</text>
</g>
<!-- n22_1682610999&#45;&gt;n22_30076986 -->
<g id="edge20" class="edge"><title>n22_1682610999&#45;&gt;n22_30076986</title>
<path fill="none" stroke="red" d="M210.721,-51.3323C214.256,-99.9154 222.942,-202.422 234,-214 249.596,-230.328 311.86,-227.57 334,-232 355.116,-236.225 378.272,-241.243 398.436,-245.737"/>
<polygon fill="red" stroke="red" points="397.852,-249.193 408.375,-247.965 399.382,-242.363 397.852,-249.193"/>
<text text-anchor="middle" x="226" y="-128.4" font-family="Times Roman,serif" font-size="14.00">2</text>
</g>
<!-- n22_3059588303 -->
<g id="node9" class="node"><title>n22_3059588303</title>
<polygon fill="none" stroke="black" points="666,-52 605,-26 666,-3.55271e-15 727,-26 666,-52"/>
<text text-anchor="middle" x="666" y="-22.4" font-family="Times Roman,serif" font-size="14.00">lazy_if</text>
</g>
<!-- n22_3059588303&#45;&gt;n22_1772220736 -->
<g id="edge36" class="edge"><title>n22_3059588303&#45;&gt;n22_1772220736</title>
<path fill="none" stroke="blue" d="M651.517,-45.9378C639.911,-61.9147 623.457,-84.5655 610.342,-102.62"/>
<polygon fill="blue" stroke="blue" points="607.254,-100.916 604.208,-111.064 612.917,-105.03 607.254,-100.916"/>
</g>
<!-- n22_3059588303&#45;&gt;n32_3683794977457051237 -->
<g id="edge28" class="edge"><title>n22_3059588303&#45;&gt;n32_3683794977457051237</title>
<path fill="none" stroke="black" d="M610.972,-28.5984C545.082,-32.8583 440.072,-43.6695 412,-70 385.875,-94.5043 380.716,-137.415 380.502,-166.021"/>
<polygon fill="black" stroke="black" points="377.005,-166.26 380.63,-176.216 384.005,-166.173 377.005,-166.26"/>
<text text-anchor="middle" x="456" y="-75.4" font-family="Times Roman,serif" font-size="14.00">instantiation</text>
</g>
<!-- n22_3059588303&#45;&gt;n22_1741378925 -->
<g id="edge34" class="edge"><title>n22_3059588303&#45;&gt;n22_1741378925</title>
<path fill="none" stroke="red" d="M668.771,-51.1846C670.361,-66.9192 672.197,-87.6141 673,-106 675.101,-154.121 676.106,-167.38 664,-214 663.045,-217.678 661.905,-221.48 660.68,-225.238"/>
<polygon fill="red" stroke="red" points="657.275,-224.373 657.305,-234.968 663.889,-226.667 657.275,-224.373"/>
<text text-anchor="middle" x="679" y="-128.4" font-family="Times Roman,serif" font-size="14.00">4</text>
</g>
<!-- n22_3059588303&#45;&gt;n22_2871787445 -->
<g id="edge32" class="edge"><title>n22_3059588303&#45;&gt;n22_2871787445</title>
<path fill="none" stroke="red" d="M624.173,-34.3713C584.806,-44.4865 527.22,-65.4582 495,-106 464.466,-144.421 508.124,-180.781 472,-214 448.587,-235.531 360.971,-224.752 330,-232 319.628,-234.427 308.682,-237.759 298.454,-241.228"/>
<polygon fill="red" stroke="red" points="297.191,-237.962 288.91,-244.571 299.505,-244.569 297.191,-237.962"/>
<text text-anchor="middle" x="500" y="-128.4" font-family="Times Roman,serif" font-size="14.00">3</text>
</g>
<!-- n22_2956297009 -->
<g id="node26" class="node"><title>n22_2956297009</title>
<polygon fill="none" stroke="black" points="924,-284 853,-258 924,-232 995,-258 924,-284"/>
<text text-anchor="middle" x="924" y="-254.4" font-family="Times Roman,serif" font-size="14.00">is_same</text>
</g>
<!-- n22_3059588303&#45;&gt;n22_2956297009 -->
<g id="edge30" class="edge"><title>n22_3059588303&#45;&gt;n22_2956297009</title>
<path fill="none" stroke="red" d="M685.816,-43.8194C731.271,-84.6936 843.161,-185.307 895.783,-232.627"/>
<polygon fill="red" stroke="red" points="893.626,-235.394 903.402,-239.478 898.306,-230.188 893.626,-235.394"/>
<text text-anchor="middle" x="817" y="-128.4" font-family="Times Roman,serif" font-size="14.00">2</text>
</g>
<!-- n22_1213819723 -->
<g id="node10" class="node"><title>n22_1213819723</title>
<polygon fill="none" stroke="black" points="1098,-284 1059,-258 1098,-232 1137,-258 1098,-284"/>
<text text-anchor="middle" x="1098" y="-254.4" font-family="Times Roman,serif" font-size="14.00">if_c</text>
</g>
<!-- n22_1213819723&#45;&gt;n8_1773484321 -->
<g id="edge40" class="edge"><title>n22_1213819723&#45;&gt;n8_1773484321</title>
<path fill="none" stroke="red" d="M1077.01,-270.513C1069.74,-274.817 1061.53,-279.647 1054,-284 1010.24,-309.304 1000.48,-317.941 955,-340 935.989,-349.22 927.472,-344.767 911,-358 889.086,-375.604 897.171,-392.721 875,-410 857.029,-424.005 845.176,-414.261 827,-428 810.265,-440.65 817.176,-455.524 799,-466 767.427,-484.198 671.999,-478.33 636,-484 597.761,-490.023 554.526,-499.137 524.149,-505.926"/>
<polygon fill="red" stroke="red" points="523.351,-502.518 514.366,-508.131 524.891,-509.346 523.351,-502.518"/>
<text text-anchor="middle" x="916" y="-380.4" font-family="Times Roman,serif" font-size="14.00">2</text>
</g>
<!-- n32_11407624269635001793 -->
<g id="node13" class="node"><title>n32_11407624269635001793</title>
<polygon fill="none" stroke="black" points="1546.22,-428.659 1551.67,-428.76 1557.05,-428.911 1562.36,-429.111 1567.57,-429.36 1572.66,-429.658 1577.61,-430.003 1582.4,-430.395 1587.01,-430.832 1591.42,-431.314 1595.63,-431.838 1599.6,-432.404 1603.34,-433.011 1606.83,-433.655 1610.05,-434.336 1613.01,-435.052 1615.69,-435.8 1618.08,-436.58 1620.19,-437.387 1622.01,-438.222 1623.54,-439.08 1624.77,-439.96 1625.72,-440.859 1626.38,-441.775 1626.76,-442.705 1626.86,-443.647 1626.69,-444.599 1626.26,-445.557 1625.58,-446.518 1624.65,-447.482 1623.49,-448.443 1622.1,-449.401 1620.51,-450.353 1618.71,-451.295 1616.73,-452.225 1614.57,-453.141 1612.25,-454.04 1609.77,-454.92 1607.15,-455.778 1604.41,-456.613 1601.55,-457.42 1598.58,-458.2 1595.52,-458.948 1592.37,-459.664 1589.14,-460.345 1585.85,-460.989 1582.49,-461.596 1579.09,-462.162 1575.64,-462.686 1572.15,-463.168 1568.63,-463.605 1565.09,-463.997 1561.52,-464.342 1557.93,-464.64 1554.32,-464.889 1550.71,-465.089 1547.08,-465.24 1543.45,-465.341 1539.82,-465.391 1536.18,-465.391 1532.55,-465.341 1528.92,-465.24 1525.29,-465.089 1521.68,-464.889 1518.07,-464.64 1514.48,-464.342 1510.91,-463.997 1507.37,-463.605 1503.85,-463.168 1500.36,-462.686 1496.91,-462.162 1493.51,-461.596 1490.15,-460.989 1486.86,-460.345 1483.63,-459.664 1480.48,-458.948 1477.42,-458.2 1474.45,-457.42 1471.59,-456.613 1468.85,-455.778 1466.23,-454.92 1463.75,-454.04 1461.43,-453.141 1459.27,-452.225 1457.29,-451.295 1455.49,-450.353 1453.9,-449.401 1452.51,-448.443 1451.35,-447.482 1450.42,-446.518 1449.74,-445.557 1449.31,-444.599 1449.14,-443.647 1449.24,-442.705 1449.62,-441.775 1450.28,-440.859 1451.23,-439.96 1452.46,-439.08 1453.99,-438.222 1455.81,-437.387 1457.92,-436.58 1460.31,-435.8 1462.99,-435.052 1465.95,-434.336 1469.17,-433.655 1472.66,-433.011 1476.4,-432.404 1480.37,-431.838 1484.58,-431.314 1488.99,-430.832 1493.6,-430.395 1498.39,-430.003 1503.34,-429.658 1508.43,-429.36 1513.64,-429.111 1518.95,-428.911 1524.33,-428.76 1529.78,-428.659 1535.26,-428.609 1540.74,-428.609 1546.22,-428.659"/>
<text text-anchor="middle" x="1538" y="-443.4" font-family="Times Roman,serif" font-size="14.00">original.cxx:25</text>
</g>
<!-- n22_1213819723&#45;&gt;n32_11407624269635001793 -->
<g id="edge38" class="edge"><title>n22_1213819723&#45;&gt;n32_11407624269635001793</title>
<path fill="none" stroke="black" d="M1091.19,-279.515C1087.01,-296.864 1084.13,-321.357 1094,-340 1097.24,-346.114 1190.51,-407.611 1197,-410 1240.03,-425.829 1354.68,-436.003 1439.21,-441.597"/>
<polygon fill="black" stroke="black" points="1439.16,-445.101 1449.37,-442.257 1439.61,-438.116 1439.16,-445.101"/>
<text text-anchor="middle" x="1138" y="-317.4" font-family="Times Roman,serif" font-size="14.00">instantiation</text>
</g>
<!-- n1_40498728 -->
<g id="node21" class="node"><title>n1_40498728</title>
<polygon fill="none" stroke="black" points="1108,-402 1054,-402 1054,-366 1108,-366 1108,-402"/>
<text text-anchor="middle" x="1081" y="-380.4" font-family="Times Roman,serif" font-size="14.00">int</text>
</g>
<!-- n22_1213819723&#45;&gt;n1_40498728 -->
<g id="edge42" class="edge"><title>n22_1213819723&#45;&gt;n1_40498728</title>
<path fill="none" stroke="red" d="M1082.33,-273.657C1075.61,-281.473 1068.5,-291.492 1065,-302 1059.11,-319.663 1063.15,-340.228 1068.64,-356.345"/>
<polygon fill="red" stroke="red" points="1065.38,-357.611 1072.17,-365.74 1071.93,-355.148 1065.38,-357.611"/>
<text text-anchor="middle" x="1070" y="-317.4" font-family="Times Roman,serif" font-size="14.00">3</text>
</g>
<!-- n1_40498704 -->
<g id="node24" class="node"><title>n1_40498704</title>
<polygon fill="none" stroke="black" points="1260,-402 1206,-402 1206,-366 1260,-366 1260,-402"/>
<text text-anchor="middle" x="1233" y="-380.4" font-family="Times Roman,serif" font-size="14.00">short</text>
</g>
<!-- n22_1213819723&#45;&gt;n1_40498704 -->
<g id="edge44" class="edge"><title>n22_1213819723&#45;&gt;n1_40498704</title>
<path fill="none" stroke="red" d="M1124.32,-266.496C1143.22,-273.627 1168.37,-285.343 1186,-302 1188.32,-304.189 1205.13,-333.927 1218,-356.967"/>
<polygon fill="red" stroke="red" points="1214.94,-358.676 1222.87,-365.708 1221.06,-355.269 1214.94,-358.676"/>
<text text-anchor="middle" x="1213" y="-317.4" font-family="Times Roman,serif" font-size="14.00">4</text>
</g>
<!-- n22_3039830998 -->
<g id="node11" class="node"><title>n22_3039830998</title>
<polygon fill="none" stroke="black" points="1508,-284 1469,-258 1508,-232 1547,-258 1508,-284"/>
<text text-anchor="middle" x="1508" y="-254.4" font-family="Times Roman,serif" font-size="14.00">if_c</text>
</g>
<!-- n22_3039830998&#45;&gt;n8_1030972443 -->
<g id="edge48" class="edge"><title>n22_3039830998&#45;&gt;n8_1030972443</title>
<path fill="none" stroke="red" d="M1540.26,-262.51C1564.86,-267.712 1597.57,-278.763 1616,-302 1661.64,-359.525 1685.94,-412.17 1636,-466 1615.09,-488.54 1163.08,-507.981 1023.61,-513.461"/>
<polygon fill="red" stroke="red" points="1023.22,-509.973 1013.36,-513.86 1023.49,-516.968 1023.22,-509.973"/>
<text text-anchor="middle" x="1668" y="-380.4" font-family="Times Roman,serif" font-size="14.00">2</text>
</g>
<!-- n22_3039830998&#45;&gt;n32_11407624269635001793 -->
<g id="edge46" class="edge"><title>n22_3039830998&#45;&gt;n32_11407624269635001793</title>
<path fill="none" stroke="black" d="M1513.57,-280.76C1515.12,-287.567 1516.74,-295.064 1518,-302 1525.34,-342.301 1531.37,-389.343 1534.83,-418.655"/>
<polygon fill="black" stroke="black" points="1531.35,-419.077 1535.98,-428.607 1538.3,-418.271 1531.35,-419.077"/>
<text text-anchor="middle" x="1568" y="-317.4" font-family="Times Roman,serif" font-size="14.00">instantiation</text>
</g>
<!-- n22_3039830998&#45;&gt;n1_40498728 -->
<g id="edge50" class="edge"><title>n22_3039830998&#45;&gt;n1_40498728</title>
<path fill="none" stroke="red" d="M1493.89,-275.162C1487.55,-283.139 1480.14,-292.863 1474,-302 1463.12,-318.201 1468.55,-329.663 1452,-340 1403.82,-370.09 1253.21,-349.765 1197,-358 1170.44,-361.892 1140.92,-368.541 1118.31,-374.141"/>
<polygon fill="red" stroke="red" points="1117.28,-370.79 1108.44,-376.627 1118.99,-377.578 1117.28,-370.79"/>
<text text-anchor="middle" x="1479" y="-317.4" font-family="Times Roman,serif" font-size="14.00">3</text>
</g>
<!-- n22_3039830998&#45;&gt;n1_40498704 -->
<g id="edge52" class="edge"><title>n22_3039830998&#45;&gt;n1_40498704</title>
<path fill="none" stroke="red" d="M1507.64,-283.923C1505.95,-302.23 1500.57,-325.919 1485,-340 1454.01,-368.016 1332.49,-378.617 1270.22,-382.269"/>
<polygon fill="red" stroke="red" points="1269.83,-378.785 1260.04,-382.835 1270.22,-385.775 1269.83,-378.785"/>
<text text-anchor="middle" x="1509" y="-317.4" font-family="Times Roman,serif" font-size="14.00">4</text>
</g>
<!-- n32_9929354688704599018 -->
<g id="node12" class="node"><title>n32_9929354688704599018</title>
<polygon fill="none" stroke="black" points="1345.22,-302.659 1350.67,-302.76 1356.05,-302.911 1361.36,-303.111 1366.57,-303.36 1371.66,-303.658 1376.61,-304.003 1381.4,-304.395 1386.01,-304.832 1390.42,-305.314 1394.63,-305.838 1398.6,-306.404 1402.34,-307.011 1405.83,-307.655 1409.05,-308.336 1412.01,-309.052 1414.69,-309.8 1417.08,-310.58 1419.19,-311.387 1421.01,-312.222 1422.54,-313.08 1423.77,-313.96 1424.72,-314.859 1425.38,-315.775 1425.76,-316.705 1425.86,-317.647 1425.69,-318.599 1425.26,-319.557 1424.58,-320.518 1423.65,-321.482 1422.49,-322.443 1421.1,-323.401 1419.51,-324.353 1417.71,-325.295 1415.73,-326.225 1413.57,-327.141 1411.25,-328.04 1408.77,-328.92 1406.15,-329.778 1403.41,-330.613 1400.55,-331.42 1397.58,-332.2 1394.52,-332.948 1391.37,-333.664 1388.14,-334.345 1384.85,-334.989 1381.49,-335.596 1378.09,-336.162 1374.64,-336.686 1371.15,-337.168 1367.63,-337.605 1364.09,-337.997 1360.52,-338.342 1356.93,-338.64 1353.32,-338.889 1349.71,-339.089 1346.08,-339.24 1342.45,-339.341 1338.82,-339.391 1335.18,-339.391 1331.55,-339.341 1327.92,-339.24 1324.29,-339.089 1320.68,-338.889 1317.07,-338.64 1313.48,-338.342 1309.91,-337.997 1306.37,-337.605 1302.85,-337.168 1299.36,-336.686 1295.91,-336.162 1292.51,-335.596 1289.15,-334.989 1285.86,-334.345 1282.63,-333.664 1279.48,-332.948 1276.42,-332.2 1273.45,-331.42 1270.59,-330.613 1267.85,-329.778 1265.23,-328.92 1262.75,-328.04 1260.43,-327.141 1258.27,-326.225 1256.29,-325.295 1254.49,-324.353 1252.9,-323.401 1251.51,-322.443 1250.35,-321.482 1249.42,-320.518 1248.74,-319.557 1248.31,-318.599 1248.14,-317.647 1248.24,-316.705 1248.62,-315.775 1249.28,-314.859 1250.23,-313.96 1251.46,-313.08 1252.99,-312.222 1254.81,-311.387 1256.92,-310.58 1259.31,-309.8 1261.99,-309.052 1264.95,-308.336 1268.17,-307.655 1271.66,-307.011 1275.4,-306.404 1279.37,-305.838 1283.58,-305.314 1287.99,-304.832 1292.6,-304.395 1297.39,-304.003 1302.34,-303.658 1307.43,-303.36 1312.64,-303.111 1317.95,-302.911 1323.33,-302.76 1328.78,-302.659 1334.26,-302.609 1339.74,-302.609 1345.22,-302.659"/>
<text text-anchor="middle" x="1337" y="-317.4" font-family="Times Roman,serif" font-size="14.00">original.cxx:35</text>
</g>
<!-- n1_40498920 -->
<g id="node14" class="node"><title>n1_40498920</title>
<polygon fill="none" stroke="black" points="866,-402 812,-402 812,-366 866,-366 866,-402"/>
<text text-anchor="middle" x="839" y="-380.4" font-family="Times Roman,serif" font-size="14.00">float</text>
</g>
<!-- n32_17546584348293785403 -->
<g id="node15" class="node"><title>n32_17546584348293785403</title>
<polygon fill="none" stroke="black" points="221.223,-428.659 226.666,-428.76 232.054,-428.911 237.364,-429.111 242.573,-429.36 247.662,-429.658 252.61,-430.003 257.398,-430.395 262.008,-430.832 266.423,-431.314 270.626,-431.838 274.603,-432.404 278.341,-433.011 281.829,-433.655 285.055,-434.336 288.011,-435.052 290.689,-435.8 293.084,-436.58 295.192,-437.387 297.009,-438.222 298.536,-439.08 299.771,-439.96 300.717,-440.859 301.377,-441.775 301.755,-442.705 301.857,-443.647 301.689,-444.599 301.259,-445.557 300.576,-446.518 299.649,-447.482 298.488,-448.443 297.105,-449.401 295.509,-450.353 293.714,-451.295 291.73,-452.225 289.571,-453.141 287.247,-454.04 284.771,-454.92 282.155,-455.778 279.41,-456.613 276.548,-457.42 273.58,-458.2 270.517,-458.948 267.367,-459.664 264.141,-460.345 260.847,-460.989 257.495,-461.596 254.09,-462.162 250.641,-462.686 247.153,-463.168 243.633,-463.605 240.086,-463.997 236.515,-464.342 232.926,-464.64 229.322,-464.889 225.707,-465.089 222.082,-465.24 218.452,-465.341 214.818,-465.391 211.182,-465.391 207.548,-465.341 203.918,-465.24 200.293,-465.089 196.678,-464.889 193.074,-464.64 189.485,-464.342 185.914,-463.997 182.367,-463.605 178.847,-463.168 175.359,-462.686 171.91,-462.162 168.505,-461.596 165.153,-460.989 161.859,-460.345 158.633,-459.664 155.483,-458.948 152.42,-458.2 149.452,-457.42 146.59,-456.613 143.845,-455.778 141.229,-454.92 138.753,-454.04 136.429,-453.141 134.27,-452.225 132.286,-451.295 130.491,-450.353 128.895,-449.401 127.512,-448.443 126.351,-447.482 125.424,-446.518 124.741,-445.557 124.311,-444.599 124.143,-443.647 124.245,-442.705 124.623,-441.775 125.283,-440.859 126.229,-439.96 127.464,-439.08 128.991,-438.222 130.808,-437.387 132.916,-436.58 135.311,-435.8 137.989,-435.052 140.945,-434.336 144.171,-433.655 147.659,-433.011 151.397,-432.404 155.374,-431.838 159.577,-431.314 163.992,-430.832 168.602,-430.395 173.39,-430.003 178.338,-429.658 183.427,-429.36 188.636,-429.111 193.946,-428.911 199.334,-428.76 204.777,-428.659 210.255,-428.609 215.745,-428.609 221.223,-428.659"/>
<text text-anchor="middle" x="213" y="-443.4" font-family="Times Roman,serif" font-size="14.00">original.cxx:38</text>
</g>
<!-- n22_1741378925&#45;&gt;n32_17546584348293785403 -->
<g id="edge54" class="edge"><title>n22_1741378925&#45;&gt;n32_17546584348293785403</title>
<path fill="none" stroke="black" d="M624.814,-275.689C616.012,-283.162 606.348,-292.362 599,-302 587.552,-317.016 595.47,-329.173 580,-340 522.458,-380.273 483.708,-322.68 423,-358 398.258,-372.395 409.009,-394.414 385,-410 370.601,-419.347 335.687,-427.619 301.049,-433.959"/>
<polygon fill="black" stroke="black" points="300.052,-430.581 290.82,-435.778 301.278,-437.473 300.052,-430.581"/>
<text text-anchor="middle" x="643" y="-317.4" font-family="Times Roman,serif" font-size="14.00">instantiation</text>
</g>
<!-- n22_1741378925&#45;&gt;n1_40498704 -->
<g id="edge56" class="edge"><title>n22_1741378925&#45;&gt;n1_40498704</title>
<path fill="none" stroke="red" d="M702.758,-263.756C759.051,-270.572 842.037,-283.398 868,-302 883.864,-313.366 873.492,-329.591 890,-340 932.804,-366.989 1066.96,-350.447 1117,-358 1143.55,-362.007 1173.06,-368.655 1195.68,-374.225"/>
<polygon fill="red" stroke="red" points="1195,-377.663 1205.55,-376.695 1196.7,-370.872 1195,-377.663"/>
<text text-anchor="middle" x="895" y="-317.4" font-family="Times Roman,serif" font-size="14.00">2</text>
</g>
<!-- n22_2871787445&#45;&gt;n32_17546584348293785403 -->
<g id="edge58" class="edge"><title>n22_2871787445&#45;&gt;n32_17546584348293785403</title>
<path fill="none" stroke="black" d="M249.595,-282.322C241.852,-317.166 227.628,-381.174 219.379,-418.295"/>
<polygon fill="black" stroke="black" points="215.876,-417.926 217.123,-428.447 222.709,-419.445 215.876,-417.926"/>
<text text-anchor="middle" x="290" y="-317.4" font-family="Times Roman,serif" font-size="14.00">instantiation</text>
</g>
<!-- n22_2871787445&#45;&gt;n1_40498728 -->
<g id="edge60" class="edge"><title>n22_2871787445&#45;&gt;n1_40498728</title>
<path fill="none" stroke="red" d="M296.126,-268.854C318.42,-274.302 346.545,-280.477 372,-284 407.166,-288.867 660.577,-283.704 691,-302 707.918,-312.174 697.072,-329.843 714,-340 777.166,-377.9 975.55,-333.44 1045,-358 1047.13,-358.752 1049.24,-359.671 1051.31,-360.71"/>
<polygon fill="red" stroke="red" points="1049.66,-363.804 1060.05,-365.881 1053.23,-357.779 1049.66,-363.804"/>
<text text-anchor="middle" x="719" y="-317.4" font-family="Times Roman,serif" font-size="14.00">2</text>
</g>
<!-- n22_2695967745 -->
<g id="node19" class="node"><title>n22_2695967745</title>
<polygon fill="none" stroke="black" points="1054,-158 1022,-132 1054,-106 1086,-132 1054,-158"/>
<text text-anchor="middle" x="1054" y="-128.4" font-family="Times Roman,serif" font-size="14.00">if_</text>
</g>
<!-- n22_2695967745&#45;&gt;n22_1213819723 -->
<g id="edge70" class="edge"><title>n22_2695967745&#45;&gt;n22_1213819723</title>
<path fill="none" stroke="blue" d="M1061.17,-152.525C1068.21,-172.692 1079.05,-203.729 1087.15,-226.921"/>
<polygon fill="blue" stroke="blue" points="1083.94,-228.354 1090.54,-236.641 1090.55,-226.047 1083.94,-228.354"/>
</g>
<!-- n22_2695967745&#45;&gt;n32_9929354688704599018 -->
<g id="edge62" class="edge"><title>n22_2695967745&#45;&gt;n32_9929354688704599018</title>
<path fill="none" stroke="black" d="M1080.76,-136.39C1122.67,-143.682 1201.38,-159.162 1224,-176 1239.84,-187.788 1235.5,-197.953 1247,-214 1267.81,-243.043 1294.45,-274.062 1313.33,-295.183"/>
<polygon fill="black" stroke="black" points="1310.86,-297.678 1320.15,-302.769 1316.06,-292.995 1310.86,-297.678"/>
<text text-anchor="middle" x="1291" y="-191.4" font-family="Times Roman,serif" font-size="14.00">instantiation</text>
</g>
<!-- n22_2695967745&#45;&gt;n1_40498728 -->
<g id="edge66" class="edge"><title>n22_2695967745&#45;&gt;n1_40498728</title>
<path fill="none" stroke="red" d="M1048.64,-153.754C1042.1,-183.357 1032.78,-237.922 1040,-284 1044.07,-309.967 1055.96,-337.457 1065.9,-357.029"/>
<polygon fill="red" stroke="red" points="1062.83,-358.725 1070.57,-365.96 1069.04,-355.477 1062.83,-358.725"/>
<text text-anchor="middle" x="1045" y="-254.4" font-family="Times Roman,serif" font-size="14.00">3</text>
</g>
<!-- n22_2695967745&#45;&gt;n1_40498704 -->
<g id="edge68" class="edge"><title>n22_2695967745&#45;&gt;n1_40498704</title>
<path fill="none" stroke="red" d="M1080.63,-136.621C1118.05,-143.67 1183.4,-158.186 1199,-176 1243.31,-226.612 1241.51,-311.801 1236.98,-355.803"/>
<polygon fill="red" stroke="red" points="1233.5,-355.47 1235.83,-365.805 1240.45,-356.271 1233.5,-355.47"/>
<text text-anchor="middle" x="1242" y="-254.4" font-family="Times Roman,serif" font-size="14.00">4</text>
</g>
<!-- n22_2695967745&#45;&gt;n22_30076986 -->
<g id="edge64" class="edge"><title>n22_2695967745&#45;&gt;n22_30076986</title>
<path fill="none" stroke="red" d="M1028.48,-137.549C966.261,-151.042 801.73,-186.475 664,-214 621.86,-222.421 611.091,-223.338 569,-232 548.252,-236.27 525.504,-241.255 505.627,-245.712"/>
<polygon fill="red" stroke="red" points="504.809,-242.308 495.822,-247.919 506.347,-249.137 504.809,-242.308"/>
<text text-anchor="middle" x="850" y="-191.4" font-family="Times Roman,serif" font-size="14.00">2</text>
</g>
<!-- n22_1378728391 -->
<g id="node20" class="node"><title>n22_1378728391</title>
<polygon fill="none" stroke="black" points="1478,-158 1446,-132 1478,-106 1510,-132 1478,-158"/>
<text text-anchor="middle" x="1478" y="-128.4" font-family="Times Roman,serif" font-size="14.00">if_</text>
</g>
<!-- n22_1378728391&#45;&gt;n22_3039830998 -->
<g id="edge80" class="edge"><title>n22_1378728391&#45;&gt;n22_3039830998</title>
<path fill="none" stroke="blue" d="M1483.23,-153.948C1487.94,-173.758 1494.94,-203.161 1500.3,-225.662"/>
<polygon fill="blue" stroke="blue" points="1496.91,-226.538 1502.63,-235.456 1503.72,-224.917 1496.91,-226.538"/>
</g>
<!-- n22_1378728391&#45;&gt;n32_9929354688704599018 -->
<g id="edge72" class="edge"><title>n22_1378728391&#45;&gt;n32_9929354688704599018</title>
<path fill="none" stroke="black" d="M1453.24,-137.899C1421.82,-145.897 1370.23,-160.922 1358,-176 1331.36,-208.832 1330.46,-260.154 1333.11,-292.117"/>
<polygon fill="black" stroke="black" points="1329.63,-292.556 1334.11,-302.159 1336.6,-291.861 1329.63,-292.556"/>
<text text-anchor="middle" x="1402" y="-191.4" font-family="Times Roman,serif" font-size="14.00">instantiation</text>
</g>
<!-- n22_1378728391&#45;&gt;n1_40498728 -->
<g id="edge76" class="edge"><title>n22_1378728391&#45;&gt;n1_40498728</title>
<path fill="none" stroke="red" d="M1471.71,-152.968C1465.77,-173.131 1456.77,-204.516 1450,-232 1438.27,-279.653 1463.91,-307.657 1427,-340 1407.72,-356.894 1222.35,-354.187 1197,-358 1170.45,-361.993 1140.93,-368.641 1118.32,-374.215"/>
<polygon fill="red" stroke="red" points="1117.3,-370.862 1108.45,-376.687 1119,-377.653 1117.3,-370.862"/>
<text text-anchor="middle" x="1455" y="-254.4" font-family="Times Roman,serif" font-size="14.00">3</text>
</g>
<!-- n22_1378728391&#45;&gt;n1_40498704 -->
<g id="edge78" class="edge"><title>n22_1378728391&#45;&gt;n1_40498704</title>
<path fill="none" stroke="red" d="M1495.99,-143.388C1545.53,-176.083 1676.42,-272.238 1616,-340 1593.21,-365.558 1362.1,-378.372 1270.3,-382.484"/>
<polygon fill="red" stroke="red" points="1269.91,-378.998 1260.07,-382.932 1270.22,-385.991 1269.91,-378.998"/>
<text text-anchor="middle" x="1634" y="-254.4" font-family="Times Roman,serif" font-size="14.00">4</text>
</g>
<!-- n22_1378728391&#45;&gt;n22_2956297009 -->
<g id="edge74" class="edge"><title>n22_1378728391&#45;&gt;n22_2956297009</title>
<path fill="none" stroke="red" d="M1450.46,-135.65C1402.25,-142.249 1299.55,-157.236 1214,-176 1121.74,-196.234 1099.73,-205.739 1009,-232 997.072,-235.453 984.244,-239.304 972.261,-242.961"/>
<polygon fill="red" stroke="red" points="970.966,-239.698 962.432,-245.976 973.019,-246.39 970.966,-239.698"/>
<text text-anchor="middle" x="1219" y="-191.4" font-family="Times Roman,serif" font-size="14.00">2</text>
</g>
<!-- n22_2604720182 -->
<g id="node22" class="node"><title>n22_2604720182</title>
<polygon fill="none" stroke="black" points="485,-410 432,-384 485,-358 538,-384 485,-410"/>
<text text-anchor="middle" x="485" y="-380.4" font-family="Times Roman,serif" font-size="14.00">bool_</text>
</g>
<!-- n22_2604720182&#45;&gt;n32_12883939255363387905 -->
<g id="edge82" class="edge"><title>n22_2604720182&#45;&gt;n32_12883939255363387905</title>
<path fill="none" stroke="black" d="M491.912,-406.993C498.788,-428.38 509.636,-458.099 519,-466 538.167,-482.174 594.027,-494.627 644.004,-502.931"/>
<polygon fill="black" stroke="black" points="643.477,-506.391 653.908,-504.536 644.597,-499.481 643.477,-506.391"/>
<text text-anchor="middle" x="563" y="-443.4" font-family="Times Roman,serif" font-size="14.00">instantiation</text>
</g>
<!-- n22_2604720182&#45;&gt;n8_1773484321 -->
<g id="edge84" class="edge"><title>n22_2604720182&#45;&gt;n8_1773484321</title>
<path fill="none" stroke="red" d="M485,-410.195C485,-428.463 485,-453.204 485,-474.06"/>
<polygon fill="red" stroke="red" points="481.5,-474.249 485,-484.249 488.5,-474.249 481.5,-474.249"/>
<text text-anchor="middle" x="490" y="-443.4" font-family="Times Roman,serif" font-size="14.00">2</text>
</g>
<!-- n22_3175660132 -->
<g id="node23" class="node"><title>n22_3175660132</title>
<polygon fill="none" stroke="black" points="983,-410 930,-384 983,-358 1036,-384 983,-410"/>
<text text-anchor="middle" x="983" y="-380.4" font-family="Times Roman,serif" font-size="14.00">bool_</text>
</g>
<!-- n22_3175660132&#45;&gt;n8_1030972443 -->
<g id="edge88" class="edge"><title>n22_3175660132&#45;&gt;n8_1030972443</title>
<path fill="none" stroke="red" d="M983,-410.195C983,-428.463 983,-453.204 983,-474.06"/>
<polygon fill="red" stroke="red" points="979.5,-474.249 983,-484.249 986.5,-474.249 979.5,-474.249"/>
<text text-anchor="middle" x="988" y="-443.4" font-family="Times Roman,serif" font-size="14.00">2</text>
</g>
<!-- n22_3175660132&#45;&gt;n32_12883939255363387905 -->
<g id="edge86" class="edge"><title>n22_3175660132&#45;&gt;n32_12883939255363387905</title>
<path fill="none" stroke="black" d="M955.304,-396.457C936.872,-404.939 912.235,-416.648 891,-428 861.827,-443.597 855.865,-449.84 827,-466 810.893,-475.017 792.996,-484.559 777.237,-492.802"/>
<polygon fill="black" stroke="black" points="775.487,-489.767 768.236,-497.492 778.721,-495.975 775.487,-489.767"/>
<text text-anchor="middle" x="935" y="-443.4" font-family="Times Roman,serif" font-size="14.00">instantiation</text>
</g>
<!-- n22_30076986&#45;&gt;n1_40498944 -->
<g id="edge94" class="edge"><title>n22_30076986&#45;&gt;n1_40498944</title>
<path fill="none" stroke="red" d="M435.046,-277.965C416.701,-299.567 387.377,-334.098 367.206,-357.851"/>
<polygon fill="red" stroke="red" points="364.291,-355.877 360.485,-365.765 369.626,-360.408 364.291,-355.877"/>
<text text-anchor="middle" x="419" y="-317.4" font-family="Times Roman,serif" font-size="14.00">3</text>
</g>
<!-- n22_30076986&#45;&gt;n1_40498920 -->
<g id="edge92" class="edge"><title>n22_30076986&#45;&gt;n1_40498920</title>
<path fill="none" stroke="red" d="M490.655,-269.922C509.223,-277.052 530.884,-287.574 547,-302 561.709,-315.167 553.411,-329.297 570,-340 598.211,-358.201 686.896,-352.411 720,-358 747.609,-362.662 778.492,-369.456 801.877,-374.931"/>
<polygon fill="red" stroke="red" points="801.194,-378.366 811.731,-377.263 802.806,-371.554 801.194,-378.366"/>
<text text-anchor="middle" x="575" y="-317.4" font-family="Times Roman,serif" font-size="14.00">2</text>
</g>
<!-- n22_30076986&#45;&gt;n22_2604720182 -->
<g id="edge96" class="edge"><title>n22_30076986&#45;&gt;n22_2604720182</title>
<path fill="none" stroke="blue" d="M442.029,-280.393C435.977,-297.354 430.844,-320.913 439,-340 442.496,-348.181 448.341,-355.567 454.713,-361.85"/>
<polygon fill="blue" stroke="blue" points="452.552,-364.613 462.326,-368.7 457.234,-359.41 452.552,-364.613"/>
</g>
<!-- n32_5226358432096855147 -->
<g id="node27" class="node"><title>n32_5226358432096855147</title>
<polygon fill="none" stroke="black" points="713.223,-428.659 718.666,-428.76 724.054,-428.911 729.364,-429.111 734.573,-429.36 739.662,-429.658 744.61,-430.003 749.398,-430.395 754.008,-430.832 758.423,-431.314 762.626,-431.838 766.603,-432.404 770.341,-433.011 773.829,-433.655 777.055,-434.336 780.011,-435.052 782.689,-435.8 785.084,-436.58 787.192,-437.387 789.009,-438.222 790.536,-439.08 791.771,-439.96 792.717,-440.859 793.377,-441.775 793.755,-442.705 793.857,-443.647 793.689,-444.599 793.259,-445.557 792.576,-446.518 791.649,-447.482 790.488,-448.443 789.105,-449.401 787.509,-450.353 785.714,-451.295 783.73,-452.225 781.571,-453.141 779.247,-454.04 776.771,-454.92 774.155,-455.778 771.41,-456.613 768.548,-457.42 765.58,-458.2 762.517,-458.948 759.367,-459.664 756.141,-460.345 752.847,-460.989 749.495,-461.596 746.09,-462.162 742.641,-462.686 739.153,-463.168 735.633,-463.605 732.086,-463.997 728.515,-464.342 724.926,-464.64 721.322,-464.889 717.707,-465.089 714.082,-465.24 710.452,-465.341 706.818,-465.391 703.182,-465.391 699.548,-465.341 695.918,-465.24 692.293,-465.089 688.678,-464.889 685.074,-464.64 681.485,-464.342 677.914,-463.997 674.367,-463.605 670.847,-463.168 667.359,-462.686 663.91,-462.162 660.505,-461.596 657.153,-460.989 653.859,-460.345 650.633,-459.664 647.483,-458.948 644.42,-458.2 641.452,-457.42 638.59,-456.613 635.845,-455.778 633.229,-454.92 630.753,-454.04 628.429,-453.141 626.27,-452.225 624.286,-451.295 622.491,-450.353 620.895,-449.401 619.512,-448.443 618.351,-447.482 617.424,-446.518 616.741,-445.557 616.311,-444.599 616.143,-443.647 616.245,-442.705 616.623,-441.775 617.283,-440.859 618.229,-439.96 619.464,-439.08 620.991,-438.222 622.808,-437.387 624.916,-436.58 627.311,-435.8 629.989,-435.052 632.945,-434.336 636.171,-433.655 639.659,-433.011 643.397,-432.404 647.374,-431.838 651.577,-431.314 655.992,-430.832 660.602,-430.395 665.39,-430.003 670.338,-429.658 675.427,-429.36 680.636,-429.111 685.946,-428.911 691.334,-428.76 696.777,-428.659 702.255,-428.609 707.745,-428.609 713.223,-428.659"/>
<text text-anchor="middle" x="705" y="-443.4" font-family="Times Roman,serif" font-size="14.00">original.cxx:50</text>
</g>
<!-- n22_30076986&#45;&gt;n32_5226358432096855147 -->
<g id="edge90" class="edge"><title>n22_30076986&#45;&gt;n32_5226358432096855147</title>
<path fill="none" stroke="black" d="M445.635,-282.023C442.401,-300.075 441.581,-324.296 455,-340 482.066,-371.676 507.906,-343.592 547,-358 592.17,-374.647 639.748,-403.159 670.743,-423.424"/>
<polygon fill="black" stroke="black" points="669.148,-426.565 679.419,-429.164 673.01,-420.727 669.148,-426.565"/>
<text text-anchor="middle" x="499" y="-317.4" font-family="Times Roman,serif" font-size="14.00">instantiation</text>
</g>
<!-- n22_2956297009&#45;&gt;n1_40498920 -->
<g id="edge100" class="edge"><title>n22_2956297009&#45;&gt;n1_40498920</title>
<path fill="none" stroke="red" d="M934.464,-280.275C941.129,-298.065 946.411,-322.781 934,-340 919.208,-360.523 902.851,-347.146 880,-358 878.173,-358.868 876.328,-359.802 874.484,-360.781"/>
<polygon fill="red" stroke="red" points="872.331,-357.98 865.371,-365.968 875.793,-364.063 872.331,-357.98"/>
<text text-anchor="middle" x="946" y="-317.4" font-family="Times Roman,serif" font-size="14.00">2</text>
</g>
<!-- n22_2956297009&#45;&gt;n1_40498920 -->
<g id="edge102" class="edge"><title>n22_2956297009&#45;&gt;n1_40498920</title>
<path fill="none" stroke="red" d="M921.394,-283.198C918.597,-300.466 912.833,-323.196 901,-340 897.056,-345.601 886.116,-353.894 874.503,-361.776"/>
<polygon fill="red" stroke="red" points="872.421,-358.956 866.018,-367.397 876.287,-364.792 872.421,-358.956"/>
<text text-anchor="middle" x="922" y="-317.4" font-family="Times Roman,serif" font-size="14.00">3</text>
</g>
<!-- n22_2956297009&#45;&gt;n22_3175660132 -->
<g id="edge104" class="edge"><title>n22_2956297009&#45;&gt;n22_3175660132</title>
<path fill="none" stroke="blue" d="M946.464,-276.138C954.082,-283.409 961.937,-292.353 967,-302 974.448,-316.192 978.447,-333.41 980.588,-348.397"/>
<polygon fill="blue" stroke="blue" points="977.116,-348.845 981.792,-358.353 984.065,-348.005 977.116,-348.845"/>
</g>
<!-- n22_2956297009&#45;&gt;n32_5226358432096855147 -->
<g id="edge98" class="edge"><title>n22_2956297009&#45;&gt;n32_5226358432096855147</title>
<path fill="none" stroke="black" d="M878.269,-267.37C840.812,-275.797 791.553,-288.841 776,-302 775.384,-302.521 738.914,-377.326 718.492,-419.272"/>
<polygon fill="black" stroke="black" points="715.266,-417.902 714.036,-428.426 721.56,-420.966 715.266,-417.902"/>
<text text-anchor="middle" x="820" y="-317.4" font-family="Times Roman,serif" font-size="14.00">instantiation</text>
</g>
</g>
</svg>
