<?xml version="1.0" encoding="UTF-8" standalone="no"?>
<!DOCTYPE svg PUBLIC "-//W3C//DTD SVG 1.1//EN"
 "http://www.w3.org/Graphics/SVG/1.1/DTD/svg11.dtd">
<!-- Generated by graphviz version 2.26.3 (20100126.1600)
 -->
<!-- Title: _anonymous_0 Pages: 1 -->
<svg width="1110pt" height="573pt"
 viewBox="0.00 0.00 1110.41 573.41" xmlns="http://www.w3.org/2000/svg" xmlns:xlink="http://www.w3.org/1999/xlink">
<g id="graph1" class="graph" transform="scale(1 1) rotate(0) translate(4 569.412)">
<title>_anonymous_0</title>
<polygon fill="white" stroke="white" points="-4,5 -4,-569.412 1107.41,-569.412 1107.41,5 -4,5"/>
<!-- n22_1077592855 -->
<g id="node1" class="node"><title>n22_1077592855</title>
<polygon fill="none" stroke="black" points="832.437,-556.39 757.437,-530.39 832.437,-504.39 907.437,-530.39 832.437,-556.39"/>
<text text-anchor="middle" x="832.437" y="-526.79" font-family="Times Roman,serif" font-size="14.00">lazy_if_c</text>
</g>
<!-- n32_12465215423231841903 -->
<g id="node3" class="node"><title>n32_12465215423231841903</title>
<polygon fill="none" stroke="black" points="1020.63,-480.629 1026.08,-480.73 1031.46,-480.88 1036.77,-481.081 1041.98,-481.33 1047.07,-481.627 1052.02,-481.973 1056.81,-482.364 1061.42,-482.802 1065.83,-483.283 1070.04,-483.808 1074.01,-484.374 1077.75,-484.98 1081.24,-485.625 1084.46,-486.306 1087.42,-487.021 1090.1,-487.77 1092.49,-488.549 1094.6,-489.357 1096.42,-490.191 1097.95,-491.049 1099.18,-491.929 1100.13,-492.828 1100.79,-493.744 1101.16,-494.675 1101.27,-495.617 1101.1,-496.568 1100.67,-497.526 1099.99,-498.488 1099.06,-499.451 1097.9,-500.413 1096.51,-501.371 1094.92,-502.322 1093.12,-503.264 1091.14,-504.195 1088.98,-505.111 1086.66,-506.01 1084.18,-506.89 1081.56,-507.748 1078.82,-508.582 1075.96,-509.39 1072.99,-510.169 1069.93,-510.918 1066.78,-511.634 1063.55,-512.315 1060.26,-512.959 1056.9,-513.565 1053.5,-514.131 1050.05,-514.656 1046.56,-515.138 1043.04,-515.575 1039.5,-515.967 1035.93,-516.312 1032.34,-516.609 1028.73,-516.859 1025.12,-517.059 1021.49,-517.21 1017.86,-517.31 1014.23,-517.361 1010.59,-517.361 1006.96,-517.31 1003.33,-517.21 999.703,-517.059 996.087,-516.859 992.483,-516.609 988.894,-516.312 985.324,-515.967 981.776,-515.575 978.256,-515.138 974.769,-514.656 971.32,-514.131 967.915,-513.565 964.562,-512.959 961.269,-512.315 958.043,-511.634 954.893,-510.918 951.829,-510.169 948.861,-509.39 945.999,-508.582 943.255,-507.748 940.639,-506.89 938.163,-506.01 935.839,-505.111 933.679,-504.195 931.696,-503.264 929.9,-502.322 928.305,-501.371 926.921,-500.413 925.761,-499.451 924.834,-498.488 924.151,-497.526 923.721,-496.568 923.553,-495.617 923.655,-494.675 924.033,-493.744 924.692,-492.828 925.638,-491.929 926.874,-491.049 928.4,-490.191 930.218,-489.357 932.326,-488.549 934.721,-487.77 937.399,-487.021 940.355,-486.306 943.581,-485.625 947.068,-484.98 950.806,-484.374 954.784,-483.808 958.987,-483.283 963.402,-482.802 968.011,-482.364 972.8,-481.973 977.748,-481.627 982.837,-481.33 988.046,-481.081 993.356,-480.88 998.743,-480.73 1004.19,-480.629 1009.67,-480.579 1015.15,-480.579 1020.63,-480.629"/>
<text text-anchor="middle" x="1012.41" y="-495.37" font-family="Times Roman,serif" font-size="14.00">original.cxx:12</text>
</g>
<!-- n22_1077592855&#45;&gt;n32_12465215423231841903 -->
<g id="edge2" class="edge"><title>n22_1077592855&#45;&gt;n32_12465215423231841903</title>
<path fill="none" stroke="black" d="M882.569,-521.637C900.46,-518.514 920.985,-514.931 940.355,-511.549"/>
<polygon fill="black" stroke="black" points="941.11,-514.97 950.359,-509.802 939.906,-508.075 941.11,-514.97"/>
<text text-anchor="middle" x="914.43" y="-500.126" font-family="Times Roman,serif" font-size="14.00">instantiation</text>
</g>
<!-- n8_1773484321 -->
<g id="node7" class="node"><title>n8_1773484321</title>
<ellipse fill="none" stroke="black" cx="537.236" cy="-394.459" rx="29.9071" ry="30.4056"/>
<text text-anchor="middle" x="537.236" y="-390.859" font-family="Times Roman,serif" font-size="14.00">0x0</text>
</g>
<!-- n22_1077592855&#45;&gt;n8_1773484321 -->
<g id="edge4" class="edge"><title>n22_1077592855&#45;&gt;n8_1773484321</title>
<path fill="none" stroke="red" d="M800.001,-515.454C744.669,-489.975 632.382,-438.27 574.14,-411.452"/>
<polygon fill="red" stroke="red" points="575.482,-408.216 564.935,-407.213 572.554,-414.575 575.482,-408.216"/>
<text text-anchor="middle" x="678.712" y="-467.846" font-family="Times Roman,serif" font-size="14.00">2</text>
</g>
<!-- n22_1741378925 -->
<g id="node17" class="node"><title>n22_1741378925</title>
<polygon fill="none" stroke="black" points="816.311,-383.92 746.311,-357.92 816.311,-331.92 886.311,-357.92 816.311,-383.92"/>
<text text-anchor="middle" x="816.311" y="-354.32" font-family="Times Roman,serif" font-size="14.00">identity</text>
</g>
<!-- n22_1077592855&#45;&gt;n22_1741378925 -->
<g id="edge8" class="edge"><title>n22_1077592855&#45;&gt;n22_1741378925</title>
<path fill="none" stroke="red" d="M830.057,-504.941C827.298,-475.433 822.733,-426.604 819.627,-393.385"/>
<polygon fill="red" stroke="red" points="823.089,-392.823 818.674,-383.192 816.12,-393.475 823.089,-392.823"/>
<text text-anchor="middle" x="830.356" y="-440.365" font-family="Times Roman,serif" font-size="14.00">4</text>
</g>
<!-- n22_2871787445 -->
<g id="node18" class="node"><title>n22_2871787445</title>
<polygon fill="none" stroke="black" points="839.697,-226.184 769.697,-200.184 839.697,-174.184 909.697,-200.184 839.697,-226.184"/>
<text text-anchor="middle" x="839.697" y="-196.584" font-family="Times Roman,serif" font-size="14.00">identity</text>
</g>
<!-- n22_1077592855&#45;&gt;n22_2871787445 -->
<g id="edge6" class="edge"><title>n22_1077592855&#45;&gt;n22_2871787445</title>
<path fill="none" stroke="red" d="M844.523,-508.396C861.254,-475.84 889.444,-412.442 889.511,-354.72 889.562,-310.208 870.597,-261.81 856.055,-231.256"/>
<polygon fill="red" stroke="red" points="859.06,-229.434 851.519,-221.991 852.773,-232.511 859.06,-229.434"/>
<text text-anchor="middle" x="895.023" y="-364.393" font-family="Times Roman,serif" font-size="14.00">3</text>
</g>
<!-- n22_1772220736 -->
<g id="node2" class="node"><title>n22_1772220736</title>
<polygon fill="none" stroke="black" points="1012,-309.713 937,-283.713 1012,-257.713 1087,-283.713 1012,-309.713"/>
<text text-anchor="middle" x="1012" y="-280.113" font-family="Times Roman,serif" font-size="14.00">lazy_if_c</text>
</g>
<!-- n22_1772220736&#45;&gt;n32_12465215423231841903 -->
<g id="edge10" class="edge"><title>n22_1772220736&#45;&gt;n32_12465215423231841903</title>
<path fill="none" stroke="black" d="M1012.05,-310.108C1012.13,-350.798 1012.28,-428.524 1012.36,-470.458"/>
<polygon fill="black" stroke="black" points="1008.86,-470.554 1012.37,-480.547 1015.86,-470.541 1008.86,-470.554"/>
<text text-anchor="middle" x="1030.21" y="-391.447" font-family="Times Roman,serif" font-size="14.00">instantiation</text>
</g>
<!-- n8_1030972443 -->
<g id="node4" class="node"><title>n8_1030972443</title>
<ellipse fill="none" stroke="black" cx="569.907" cy="-211.224" rx="29.9071" ry="30.4056"/>
<text text-anchor="middle" x="569.907" y="-207.624" font-family="Times Roman,serif" font-size="14.00">0x1</text>
</g>
<!-- n22_1772220736&#45;&gt;n8_1030972443 -->
<g id="edge12" class="edge"><title>n22_1772220736&#45;&gt;n8_1030972443</title>
<path fill="none" stroke="red" d="M960.854,-275.327C871.887,-260.739 690.456,-230.99 609.937,-217.787"/>
<polygon fill="red" stroke="red" points="610.154,-214.276 599.72,-216.112 609.021,-221.184 610.154,-214.276"/>
<text text-anchor="middle" x="779.278" y="-252.118" font-family="Times Roman,serif" font-size="14.00">2</text>
</g>
<!-- n22_1772220736&#45;&gt;n22_1741378925 -->
<g id="edge16" class="edge"><title>n22_1772220736&#45;&gt;n22_1741378925</title>
<path fill="none" stroke="red" d="M976.107,-297.324C943.531,-309.677 895.389,-327.933 860.465,-341.176"/>
<polygon fill="red" stroke="red" points="859.099,-337.951 850.99,-344.77 861.581,-344.497 859.099,-337.951"/>
<text text-anchor="middle" x="917.884" y="-327.32" font-family="Times Roman,serif" font-size="14.00">4</text>
</g>
<!-- n22_1772220736&#45;&gt;n22_2871787445 -->
<g id="edge14" class="edge"><title>n22_1772220736&#45;&gt;n22_2871787445</title>
<path fill="none" stroke="red" d="M980.397,-268.393C951.958,-254.606 910.048,-234.289 879.366,-219.415"/>
<polygon fill="red" stroke="red" points="880.757,-216.199 870.232,-214.986 877.703,-222.498 880.757,-216.199"/>
<text text-anchor="middle" x="930.273" y="-228.07" font-family="Times Roman,serif" font-size="14.00">3</text>
</g>
<!-- n1_40498944 -->
<g id="node5" class="node"><title>n1_40498944</title>
<polygon fill="none" stroke="black" points="110.311,-519.748 48.3107,-519.748 48.3107,-483.748 110.311,-483.748 110.311,-519.748"/>
<text text-anchor="middle" x="79.3107" y="-498.148" font-family="Times Roman,serif" font-size="14.00">double</text>
</g>
<!-- n32_12883939255363387905 -->
<g id="node6" class="node"><title>n32_12883939255363387905</title>
<polygon fill="none" stroke="black" points="282.176,-514.633 287.62,-514.733 293.008,-514.884 298.317,-515.084 303.527,-515.334 308.616,-515.631 313.564,-515.977 318.352,-516.368 322.962,-516.806 327.376,-517.287 331.58,-517.812 335.557,-518.378 339.295,-518.984 342.783,-519.628 346.009,-520.31 348.964,-521.025 351.643,-521.774 354.038,-522.553 356.146,-523.361 357.963,-524.195 359.49,-525.053 360.725,-525.933 361.671,-526.832 362.331,-527.748 362.709,-528.679 362.811,-529.621 362.643,-530.572 362.213,-531.53 361.53,-532.492 360.603,-533.455 359.442,-534.417 358.059,-535.375 356.463,-536.326 354.668,-537.268 352.684,-538.199 350.525,-539.115 348.201,-540.014 345.725,-540.894 343.109,-541.752 340.364,-542.586 337.502,-543.394 334.534,-544.173 331.47,-544.922 328.321,-545.637 325.095,-546.318 321.801,-546.963 318.448,-547.569 315.044,-548.135 311.595,-548.66 308.107,-549.141 304.587,-549.579 301.04,-549.97 297.469,-550.316 293.88,-550.613 290.276,-550.863 286.661,-551.063 283.036,-551.213 279.406,-551.314 275.772,-551.365 272.136,-551.365 268.502,-551.314 264.872,-551.213 261.247,-551.063 257.631,-550.863 254.027,-550.613 250.438,-550.316 246.868,-549.97 243.321,-549.579 239.8,-549.141 236.313,-548.66 232.864,-548.135 229.459,-547.569 226.107,-546.963 222.813,-546.318 219.587,-545.637 216.437,-544.922 213.374,-544.173 210.405,-543.394 207.544,-542.586 204.799,-541.752 202.183,-540.894 199.707,-540.014 197.383,-539.115 195.223,-538.199 193.24,-537.268 191.444,-536.326 189.849,-535.375 188.466,-534.417 187.305,-533.455 186.378,-532.492 185.695,-531.53 185.265,-530.572 185.097,-529.621 185.199,-528.679 185.577,-527.748 186.237,-526.832 187.183,-525.933 188.418,-525.053 189.944,-524.195 191.762,-523.361 193.87,-522.553 196.265,-521.774 198.943,-521.025 201.899,-520.31 205.125,-519.628 208.612,-518.984 212.351,-518.378 216.328,-517.812 220.531,-517.287 224.946,-516.806 229.556,-516.368 234.344,-515.977 239.292,-515.631 244.381,-515.334 249.59,-515.084 254.9,-514.884 260.287,-514.733 265.731,-514.633 271.209,-514.582 276.698,-514.582 282.176,-514.633"/>
<text text-anchor="middle" x="273.954" y="-529.373" font-family="Times Roman,serif" font-size="14.00">original.cxx:42</text>
</g>
<!-- n22_1682610999 -->
<g id="node8" class="node"><title>n22_1682610999</title>
<polygon fill="none" stroke="black" points="568.991,-564.17 507.991,-538.17 568.991,-512.17 629.991,-538.17 568.991,-564.17"/>
<text text-anchor="middle" x="568.991" y="-534.57" font-family="Times Roman,serif" font-size="14.00">lazy_if</text>
</g>
<!-- n22_1682610999&#45;&gt;n22_1077592855 -->
<g id="edge26" class="edge"><title>n22_1682610999&#45;&gt;n22_1077592855</title>
<path fill="none" stroke="blue" d="M630.067,-538.244C649.509,-538.264 671.103,-538.284 690.891,-538.294 691.127,-538.294 699.151,-538.138 699.387,-538.126 718.487,-537.193 739.121,-536.056 758.309,-534.944"/>
<polygon fill="blue" stroke="blue" points="758.718,-538.426 768.497,-534.348 758.31,-531.438 758.718,-538.426"/>
</g>
<!-- n32_3683794977457051237 -->
<g id="node16" class="node"><title>n32_3683794977457051237</title>
<polygon fill="none" stroke="black" points="701.246,-498.378 706.69,-498.478 712.078,-498.629 717.387,-498.829 722.597,-499.078 727.685,-499.376 732.634,-499.721 737.422,-500.113 742.032,-500.55 746.446,-501.032 750.649,-501.556 754.627,-502.123 758.365,-502.729 761.852,-503.373 765.078,-504.054 768.034,-504.77 770.712,-505.519 773.108,-506.298 775.215,-507.106 777.033,-507.94 778.559,-508.798 779.795,-509.678 780.741,-510.577 781.401,-511.493 781.779,-512.423 781.88,-513.366 781.712,-514.317 781.283,-515.275 780.599,-516.237 779.672,-517.2 778.512,-518.162 777.128,-519.12 775.533,-520.071 773.737,-521.013 771.754,-521.943 769.594,-522.859 767.27,-523.759 764.794,-524.638 762.178,-525.497 759.434,-526.331 756.572,-527.139 753.604,-527.918 750.54,-528.666 747.39,-529.382 744.164,-530.063 740.871,-530.708 737.518,-531.314 734.114,-531.88 730.664,-532.405 727.177,-532.886 723.657,-533.323 720.109,-533.715 716.539,-534.06 712.95,-534.358 709.346,-534.607 705.73,-534.808 702.106,-534.958 698.475,-535.059 694.841,-535.109 691.206,-535.109 687.572,-535.059 683.941,-534.958 680.317,-534.808 676.701,-534.607 673.097,-534.358 669.508,-534.06 665.938,-533.715 662.39,-533.323 658.87,-532.886 655.383,-532.405 651.933,-531.88 648.529,-531.314 645.176,-530.708 641.883,-530.063 638.657,-529.382 635.507,-528.666 632.443,-527.918 629.475,-527.139 626.613,-526.331 623.869,-525.497 621.253,-524.638 618.777,-523.759 616.453,-522.859 614.293,-521.943 612.309,-521.013 610.514,-520.071 608.919,-519.12 607.535,-518.162 606.374,-517.2 605.448,-516.237 604.764,-515.275 604.335,-514.317 604.167,-513.366 604.268,-512.423 604.646,-511.493 605.306,-510.577 606.252,-509.678 607.488,-508.798 609.014,-507.94 610.832,-507.106 612.939,-506.298 615.335,-505.519 618.013,-504.77 620.969,-504.054 624.195,-503.373 627.682,-502.729 631.42,-502.123 635.398,-501.556 639.601,-501.032 644.015,-500.55 648.625,-500.113 653.413,-499.721 658.361,-499.376 663.45,-499.078 668.66,-498.829 673.969,-498.629 679.357,-498.478 684.801,-498.378 690.279,-498.327 695.768,-498.327 701.246,-498.378"/>
<text text-anchor="middle" x="693.023" y="-513.118" font-family="Times Roman,serif" font-size="14.00">original.cxx:22</text>
</g>
<!-- n22_1682610999&#45;&gt;n32_3683794977457051237 -->
<g id="edge18" class="edge"><title>n22_1682610999&#45;&gt;n32_3683794977457051237</title>
<path fill="none" stroke="black" d="M612.72,-530.607C615.375,-530.147 618.078,-529.68 620.809,-529.208"/>
<polygon fill="black" stroke="black" points="621.52,-532.637 630.777,-527.484 620.327,-525.739 621.52,-532.637"/>
<text text-anchor="middle" x="618.681" y="-513.63" font-family="Times Roman,serif" font-size="14.00">instantiation</text>
</g>
<!-- n22_1682610999&#45;&gt;n22_1741378925 -->
<g id="edge24" class="edge"><title>n22_1682610999&#45;&gt;n22_1741378925</title>
<path fill="none" stroke="red" d="M589.131,-520.403C593.992,-516.354 599.245,-512.168 604.301,-508.503 667.434,-462.739 741.881,-410.184 783.639,-380.832"/>
<polygon fill="red" stroke="red" points="785.867,-383.544 792.038,-374.932 781.843,-377.817 785.867,-383.544"/>
<text text-anchor="middle" x="598.299" y="-495.904" font-family="Times Roman,serif" font-size="14.00">4</text>
</g>
<!-- n22_1682610999&#45;&gt;n22_2871787445 -->
<g id="edge22" class="edge"><title>n22_1682610999&#45;&gt;n22_2871787445</title>
<path fill="none" stroke="red" d="M584.96,-518.942C613.505,-484.506 675.06,-409.94 725.956,-346.172 758.244,-305.718 794.937,-258.366 817.705,-228.819"/>
<polygon fill="red" stroke="red" points="820.695,-230.671 824.022,-220.613 815.149,-226.401 820.695,-230.671"/>
<text text-anchor="middle" x="714.146" y="-373.276" font-family="Times Roman,serif" font-size="14.00">3</text>
</g>
<!-- n22_30076986 -->
<g id="node25" class="node"><title>n22_30076986</title>
<polygon fill="none" stroke="black" points="352.942,-288.896 281.942,-262.896 352.942,-236.896 423.942,-262.896 352.942,-288.896"/>
<text text-anchor="middle" x="352.942" y="-259.296" font-family="Times Roman,serif" font-size="14.00">is_same</text>
</g>
<!-- n22_1682610999&#45;&gt;n22_30076986 -->
<g id="edge20" class="edge"><title>n22_1682610999&#45;&gt;n22_30076986</title>
<path fill="none" stroke="red" d="M553.453,-518.373C515.721,-470.297 419.14,-347.241 375.25,-291.319"/>
<polygon fill="red" stroke="red" points="377.849,-288.962 368.922,-283.257 372.343,-293.284 377.849,-288.962"/>
<text text-anchor="middle" x="469.222" y="-391.259" font-family="Times Roman,serif" font-size="14.00">2</text>
</g>
<!-- n22_3059588303 -->
<g id="node9" class="node"><title>n22_3059588303</title>
<polygon fill="none" stroke="black" points="661.756,-375.372 600.756,-349.372 661.756,-323.372 722.756,-349.372 661.756,-375.372"/>
<text text-anchor="middle" x="661.756" y="-345.772" font-family="Times Roman,serif" font-size="14.00">lazy_if</text>
</g>
<!-- n22_3059588303&#45;&gt;n22_1772220736 -->
<g id="edge36" class="edge"><title>n22_3059588303&#45;&gt;n22_1772220736</title>
<path fill="none" stroke="blue" d="M704.352,-341.387C766.646,-329.709 882.815,-307.931 953.206,-294.735"/>
<polygon fill="blue" stroke="blue" points="954.063,-298.136 963.247,-292.853 952.773,-291.255 954.063,-298.136"/>
</g>
<!-- n22_3059588303&#45;&gt;n32_3683794977457051237 -->
<g id="edge28" class="edge"><title>n22_3059588303&#45;&gt;n32_3683794977457051237</title>
<path fill="none" stroke="black" d="M666.302,-373.706C671.963,-404.003 681.62,-455.685 687.643,-487.923"/>
<polygon fill="black" stroke="black" points="684.259,-488.864 689.536,-498.051 691.139,-487.579 684.259,-488.864"/>
<text text-anchor="middle" x="696.927" y="-429.321" font-family="Times Roman,serif" font-size="14.00">instantiation</text>
</g>
<!-- n22_3059588303&#45;&gt;n22_1741378925 -->
<g id="edge34" class="edge"><title>n22_3059588303&#45;&gt;n22_1741378925</title>
<path fill="none" stroke="red" d="M715.812,-352.362C725.244,-352.883 735.186,-353.433 744.998,-353.976"/>
<polygon fill="red" stroke="red" points="744.972,-357.48 755.15,-354.538 745.359,-350.491 744.972,-357.48"/>
<text text-anchor="middle" x="735.32" y="-359.841" font-family="Times Roman,serif" font-size="14.00">4</text>
</g>
<!-- n22_3059588303&#45;&gt;n22_2871787445 -->
<g id="edge32" class="edge"><title>n22_3059588303&#45;&gt;n22_2871787445</title>
<path fill="none" stroke="red" d="M682.516,-331.966C714.052,-305.526 774.161,-255.13 810.215,-224.902"/>
<polygon fill="red" stroke="red" points="812.546,-227.515 817.96,-218.408 808.048,-222.151 812.546,-227.515"/>
<text text-anchor="middle" x="743.181" y="-263.636" font-family="Times Roman,serif" font-size="14.00">3</text>
</g>
<!-- n22_2956297009 -->
<g id="node26" class="node"><title>n22_2956297009</title>
<polygon fill="none" stroke="black" points="476.263,-316.291 405.263,-290.291 476.263,-264.291 547.263,-290.291 476.263,-316.291"/>
<text text-anchor="middle" x="476.263" y="-286.691" font-family="Times Roman,serif" font-size="14.00">is_same</text>
</g>
<!-- n22_3059588303&#45;&gt;n22_2956297009 -->
<g id="edge30" class="edge"><title>n22_3059588303&#45;&gt;n22_2956297009</title>
<path fill="none" stroke="red" d="M626.429,-338.12C597.375,-328.866 555.925,-315.664 523.932,-305.474"/>
<polygon fill="red" stroke="red" points="524.921,-302.116 514.331,-302.416 522.797,-308.786 524.921,-302.116"/>
<text text-anchor="middle" x="573.369" y="-306.665" font-family="Times Roman,serif" font-size="14.00">2</text>
</g>
<!-- n22_1213819723 -->
<g id="node10" class="node"><title>n22_1213819723</title>
<polygon fill="none" stroke="black" points="489.116,-53 450.116,-27 489.116,-1 528.116,-27 489.116,-53"/>
<text text-anchor="middle" x="489.116" y="-23.4" font-family="Times Roman,serif" font-size="14.00">if_c</text>
</g>
<!-- n22_1213819723&#45;&gt;n8_1773484321 -->
<g id="edge40" class="edge"><title>n22_1213819723&#45;&gt;n8_1773484321</title>
<path fill="none" stroke="red" d="M495.362,-48.9856C510.459,-102.735 547.883,-239.84 550.463,-287.091 551.683,-309.448 548.898,-334.267 545.574,-354.407"/>
<polygon fill="red" stroke="red" points="542.089,-354.019 543.805,-364.474 548.983,-355.231 542.089,-354.019"/>
<text text-anchor="middle" x="542.389" y="-198.44" font-family="Times Roman,serif" font-size="14.00">2</text>
</g>
<!-- n32_11407624269635001793 -->
<g id="node13" class="node"><title>n32_11407624269635001793</title>
<polygon fill="none" stroke="black" points="643.613,-24.3264 649.056,-24.427 654.444,-24.5777 659.754,-24.778 664.963,-25.0273 670.052,-25.3249 675,-25.6701 679.788,-26.0618 684.398,-26.4991 688.813,-26.9807 693.016,-27.5053 696.993,-28.0714 700.731,-28.6776 704.219,-29.322 707.445,-30.0031 710.401,-30.7189 713.079,-31.4674 715.474,-32.2466 717.582,-33.0544 719.399,-33.8886 720.926,-34.7468 722.161,-35.6267 723.107,-36.5259 723.767,-37.4419 724.145,-38.3722 724.247,-39.3144 724.079,-40.2657 723.649,-41.2236 722.966,-42.1854 722.039,-43.1486 720.878,-44.1105 719.495,-45.0684 717.899,-46.0197 716.104,-46.9618 714.12,-47.8922 711.961,-48.8082 709.637,-49.7074 707.161,-50.5873 704.545,-51.4455 701.8,-52.2796 698.938,-53.0874 695.97,-53.8667 692.907,-54.6152 689.757,-55.331 686.531,-56.012 683.237,-56.6565 679.885,-57.2627 676.48,-57.8288 673.031,-58.3534 669.543,-58.835 666.023,-59.2722 662.476,-59.664 658.905,-60.0092 655.316,-60.3068 651.712,-60.5561 648.097,-60.7564 644.472,-60.907 640.842,-61.0077 637.208,-61.0581 633.572,-61.0581 629.938,-61.0077 626.308,-60.907 622.683,-60.7564 619.068,-60.5561 615.464,-60.3068 611.875,-60.0092 608.304,-59.664 604.757,-59.2722 601.237,-58.835 597.749,-58.3534 594.3,-57.8288 590.895,-57.2627 587.543,-56.6565 584.249,-56.012 581.023,-55.331 577.874,-54.6152 574.81,-53.8667 571.842,-53.0874 568.98,-52.2796 566.235,-51.4455 563.619,-50.5873 561.143,-49.7074 558.819,-48.8082 556.66,-47.8922 554.676,-46.9618 552.881,-46.0197 551.285,-45.0684 549.902,-44.1105 548.741,-43.1486 547.814,-42.1854 547.131,-41.2236 546.701,-40.2657 546.533,-39.3144 546.635,-38.3722 547.013,-37.4419 547.673,-36.5259 548.619,-35.6267 549.854,-34.7468 551.381,-33.8886 553.198,-33.0544 555.306,-32.2466 557.701,-31.4674 560.379,-30.7189 563.335,-30.0031 566.561,-29.322 570.049,-28.6776 573.787,-28.0714 577.764,-27.5053 581.967,-26.9807 586.382,-26.4991 590.992,-26.0618 595.78,-25.6701 600.728,-25.3249 605.817,-25.0273 611.026,-24.778 616.336,-24.5777 621.724,-24.427 627.168,-24.3264 632.645,-24.276 638.135,-24.276 643.613,-24.3264"/>
<text text-anchor="middle" x="635.39" y="-39.067" font-family="Times Roman,serif" font-size="14.00">original.cxx:25</text>
</g>
<!-- n22_1213819723&#45;&gt;n32_11407624269635001793 -->
<g id="edge38" class="edge"><title>n22_1213819723&#45;&gt;n32_11407624269635001793</title>
<path fill="none" stroke="black" d="M523.042,-30.6337C528.746,-31.2447 534.903,-31.9041 541.293,-32.5885"/>
<polygon fill="black" stroke="black" points="541.178,-36.0962 551.494,-33.6812 541.924,-29.136 541.178,-36.0962"/>
<text text-anchor="middle" x="536.135" y="-39.5432" font-family="Times Roman,serif" font-size="14.00">instantiation</text>
</g>
<!-- n1_40498728 -->
<g id="node21" class="node"><title>n1_40498728</title>
<polygon fill="none" stroke="black" points="723.099,-219.176 669.099,-219.176 669.099,-183.176 723.099,-183.176 723.099,-219.176"/>
<text text-anchor="middle" x="696.099" y="-197.576" font-family="Times Roman,serif" font-size="14.00">int</text>
</g>
<!-- n22_1213819723&#45;&gt;n1_40498728 -->
<g id="edge42" class="edge"><title>n22_1213819723&#45;&gt;n1_40498728</title>
<path fill="none" stroke="red" d="M506.407,-41.5506C541.805,-71.3379 622.874,-139.557 666.694,-176.432"/>
<polygon fill="red" stroke="red" points="664.519,-179.176 674.424,-182.936 669.026,-173.82 664.519,-179.176"/>
<text text-anchor="middle" x="597.478" y="-100.696" font-family="Times Roman,serif" font-size="14.00">3</text>
</g>
<!-- n1_40498704 -->
<g id="node24" class="node"><title>n1_40498704</title>
<polygon fill="none" stroke="black" points="462.429,-173.438 408.429,-173.438 408.429,-137.438 462.429,-137.438 462.429,-173.438"/>
<text text-anchor="middle" x="435.429" y="-151.838" font-family="Times Roman,serif" font-size="14.00">short</text>
</g>
<!-- n22_1213819723&#45;&gt;n1_40498704 -->
<g id="edge44" class="edge"><title>n22_1213819723&#45;&gt;n1_40498704</title>
<path fill="none" stroke="red" d="M480.609,-47.3514C471.514,-69.1106 457.039,-103.74 446.931,-127.92"/>
<polygon fill="red" stroke="red" points="443.655,-126.682 443.028,-137.259 450.114,-129.382 443.655,-126.682"/>
<text text-anchor="middle" x="453.748" y="-85.8746" font-family="Times Roman,serif" font-size="14.00">4</text>
</g>
<!-- n22_3039830998 -->
<g id="node11" class="node"><title>n22_3039830998</title>
<polygon fill="none" stroke="black" points="797.655,-60.5133 758.655,-34.5133 797.655,-8.51332 836.655,-34.5133 797.655,-60.5133"/>
<text text-anchor="middle" x="797.655" y="-30.9133" font-family="Times Roman,serif" font-size="14.00">if_c</text>
</g>
<!-- n22_3039830998&#45;&gt;n8_1030972443 -->
<g id="edge48" class="edge"><title>n22_3039830998&#45;&gt;n8_1030972443</title>
<path fill="none" stroke="red" d="M779.403,-48.6756C740.787,-78.6374 650.398,-148.77 601.937,-186.371"/>
<polygon fill="red" stroke="red" points="599.721,-183.661 593.966,-192.556 604.012,-189.191 599.721,-183.661"/>
<text text-anchor="middle" x="679.892" y="-107.855" font-family="Times Roman,serif" font-size="14.00">2</text>
</g>
<!-- n22_3039830998&#45;&gt;n32_11407624269635001793 -->
<g id="edge46" class="edge"><title>n22_3039830998&#45;&gt;n32_11407624269635001793</title>
<path fill="none" stroke="black" d="M761.24,-36.3432C752.987,-36.7579 743.837,-37.2177 734.344,-37.6947"/>
<polygon fill="black" stroke="black" points="734.163,-34.1993 724.351,-38.1968 734.514,-41.1904 734.163,-34.1993"/>
<text text-anchor="middle" x="742.694" y="-23.6751" font-family="Times Roman,serif" font-size="14.00">instantiation</text>
</g>
<!-- n22_3039830998&#45;&gt;n1_40498728 -->
<g id="edge50" class="edge"><title>n22_3039830998&#45;&gt;n1_40498728</title>
<path fill="none" stroke="red" d="M786.203,-53.3077C768.232,-82.7992 733.329,-140.078 712.635,-174.039"/>
<polygon fill="red" stroke="red" points="709.415,-172.597 707.2,-182.958 715.393,-176.239 709.415,-172.597"/>
<text text-anchor="middle" x="754.78" y="-119.404" font-family="Times Roman,serif" font-size="14.00">3</text>
</g>
<!-- n22_3039830998&#45;&gt;n1_40498704 -->
<g id="edge52" class="edge"><title>n22_3039830998&#45;&gt;n1_40498704</title>
<path fill="none" stroke="red" d="M771.605,-43.2099C708.239,-64.364 545.88,-118.565 472.465,-143.074"/>
<polygon fill="red" stroke="red" points="471.092,-139.842 462.715,-146.329 473.309,-146.482 471.092,-139.842"/>
<text text-anchor="middle" x="620.008" y="-101.22" font-family="Times Roman,serif" font-size="14.00">4</text>
</g>
<!-- n32_9929354688704599018 -->
<g id="node12" class="node"><title>n32_9929354688704599018</title>
<polygon fill="none" stroke="black" points="98.2225,-36.9381 103.666,-37.0388 109.054,-37.1895 114.364,-37.3898 119.573,-37.639 124.662,-37.9367 129.61,-38.2819 134.398,-38.6736 139.008,-39.1109 143.423,-39.5925 147.626,-40.1171 151.603,-40.6832 155.341,-41.2893 158.829,-41.9338 162.055,-42.6149 165.011,-43.3307 167.689,-44.0792 170.084,-44.8584 172.192,-45.6662 174.009,-46.5003 175.536,-47.3585 176.771,-48.2384 177.717,-49.1376 178.377,-50.0537 178.755,-50.984 178.857,-51.9262 178.689,-52.8775 178.259,-53.8354 177.576,-54.7972 176.649,-55.7604 175.488,-56.7223 174.105,-57.6802 172.509,-58.6315 170.714,-59.5736 168.73,-60.504 166.571,-61.42 164.247,-62.3192 161.771,-63.1991 159.155,-64.0573 156.41,-64.8914 153.548,-65.6992 150.58,-66.4784 147.517,-67.227 144.367,-67.9427 141.141,-68.6238 137.847,-69.2683 134.495,-69.8744 131.09,-70.4406 127.641,-70.9652 124.153,-71.4468 120.633,-71.884 117.086,-72.2758 113.515,-72.621 109.926,-72.9186 106.322,-73.1679 102.707,-73.3681 99.0822,-73.5188 95.4517,-73.6195 91.8176,-73.6699 88.1824,-73.6699 84.5483,-73.6195 80.9178,-73.5188 77.2933,-73.3681 73.6776,-73.1679 70.0736,-72.9186 66.4846,-72.621 62.9143,-72.2758 59.3667,-71.884 55.8466,-71.4468 52.3591,-70.9652 48.9099,-70.4406 45.5054,-69.8744 42.1526,-69.2683 38.8591,-68.6238 35.6331,-67.9427 32.4835,-67.227 29.4197,-66.4784 26.4516,-65.6992 23.5898,-64.8914 20.8452,-64.0573 18.2291,-63.1991 15.7532,-62.3192 13.4293,-61.42 11.2696,-60.504 9.286,-59.5736 7.49062,-58.6315 5.89532,-57.6802 4.51171,-56.7223 3.35103,-55.7604 2.42405,-54.7972 1.74092,-53.8354 1.31108,-52.8775 1.14316,-51.9262 1.24486,-50.984 1.62287,-50.0537 2.28273,-49.1376 3.22881,-48.2384 4.46417,-47.3585 5.99052,-46.5003 7.80815,-45.6662 9.91588,-44.8584 12.311,-44.0792 14.9894,-43.3307 17.9453,-42.6149 21.1713,-41.9338 24.6586,-41.2893 28.3968,-40.6832 32.3742,-40.1171 36.5774,-39.5925 40.992,-39.1109 45.6018,-38.6736 50.3899,-38.2819 55.338,-37.9367 60.4269,-37.639 65.6365,-37.3898 70.9458,-37.1895 76.3335,-37.0388 81.7775,-36.9381 87.2554,-36.8877 92.7446,-36.8877 98.2225,-36.9381"/>
<text text-anchor="middle" x="90" y="-51.6788" font-family="Times Roman,serif" font-size="14.00">original.cxx:35</text>
</g>
<!-- n1_40498920 -->
<g id="node14" class="node"><title>n1_40498920</title>
<polygon fill="none" stroke="black" points="97.4202,-291.781 43.4202,-291.781 43.4202,-255.781 97.4202,-255.781 97.4202,-291.781"/>
<text text-anchor="middle" x="70.4202" y="-270.181" font-family="Times Roman,serif" font-size="14.00">float</text>
</g>
<!-- n32_17546584348293785403 -->
<g id="node15" class="node"><title>n32_17546584348293785403</title>
<polygon fill="none" stroke="black" points="1013.32,-44.6759 1018.76,-44.7766 1024.15,-44.9273 1029.46,-45.1275 1034.67,-45.3768 1039.76,-45.6745 1044.7,-46.0196 1049.49,-46.4114 1054.1,-46.8487 1058.52,-47.3302 1062.72,-47.8548 1066.7,-48.421 1070.44,-49.0271 1073.92,-49.6716 1077.15,-50.3527 1080.1,-51.0685 1082.78,-51.817 1085.18,-52.5962 1087.29,-53.404 1089.1,-54.2381 1090.63,-55.0963 1091.87,-55.9762 1092.81,-56.8754 1093.47,-57.7915 1093.85,-58.7218 1093.95,-59.6639 1093.78,-60.6153 1093.35,-61.5732 1092.67,-62.535 1091.74,-63.4982 1090.58,-64.46 1089.2,-65.4179 1087.6,-66.3693 1085.81,-67.3114 1083.82,-68.2417 1081.66,-69.1578 1079.34,-70.057 1076.87,-70.9369 1074.25,-71.7951 1071.5,-72.6292 1068.64,-73.437 1065.67,-74.2162 1062.61,-74.9647 1059.46,-75.6805 1056.24,-76.3616 1052.94,-77.0061 1049.59,-77.6122 1046.18,-78.1784 1042.74,-78.7029 1039.25,-79.1845 1035.73,-79.6218 1032.18,-80.0136 1028.61,-80.3587 1025.02,-80.6564 1021.42,-80.9057 1017.8,-81.1059 1014.18,-81.2566 1010.55,-81.3573 1006.91,-81.4077 1003.28,-81.4077 999.643,-81.3573 996.012,-81.2566 992.388,-81.1059 988.772,-80.9057 985.168,-80.6564 981.579,-80.3587 978.009,-80.0136 974.461,-79.6218 970.941,-79.1845 967.453,-78.7029 964.004,-78.1784 960.6,-77.6122 957.247,-77.0061 953.953,-76.3616 950.727,-75.6805 947.578,-74.9647 944.514,-74.2162 941.546,-73.437 938.684,-72.6292 935.939,-71.7951 933.323,-70.9369 930.847,-70.057 928.524,-69.1578 926.364,-68.2417 924.38,-67.3114 922.585,-66.3693 920.99,-65.4179 919.606,-64.46 918.445,-63.4982 917.518,-62.535 916.835,-61.5732 916.405,-60.6153 916.237,-59.6639 916.339,-58.7218 916.717,-57.7915 917.377,-56.8754 918.323,-55.9762 919.558,-55.0963 921.085,-54.2381 922.902,-53.404 925.01,-52.5962 927.405,-51.817 930.084,-51.0685 933.04,-50.3527 936.266,-49.6716 939.753,-49.0271 943.491,-48.421 947.468,-47.8548 951.672,-47.3302 956.086,-46.8487 960.696,-46.4114 965.484,-46.0196 970.432,-45.6745 975.521,-45.3768 980.731,-45.1275 986.04,-44.9273 991.428,-44.7766 996.872,-44.6759 1002.35,-44.6255 1007.84,-44.6255 1013.32,-44.6759"/>
<text text-anchor="middle" x="1005.09" y="-59.4166" font-family="Times Roman,serif" font-size="14.00">original.cxx:38</text>
</g>
<!-- n22_1741378925&#45;&gt;n32_17546584348293785403 -->
<g id="edge54" class="edge"><title>n22_1741378925&#45;&gt;n32_17546584348293785403</title>
<path fill="none" stroke="black" d="M829.887,-336.711C863.512,-284.185 950.621,-148.111 987.831,-89.9842"/>
<polygon fill="black" stroke="black" points="990.915,-91.6584 993.359,-81.3492 985.019,-87.8844 990.915,-91.6584"/>
<text text-anchor="middle" x="928.465" y="-216.677" font-family="Times Roman,serif" font-size="14.00">instantiation</text>
</g>
<!-- n22_1741378925&#45;&gt;n1_40498704 -->
<g id="edge56" class="edge"><title>n22_1741378925&#45;&gt;n1_40498704</title>
<path fill="none" stroke="red" d="M782.252,-344.506C730.276,-323.528 628.652,-280.51 547.562,-233.922 519.187,-217.619 488.889,-196.144 466.95,-179.779"/>
<polygon fill="red" stroke="red" points="468.774,-176.771 458.679,-173.556 464.566,-182.365 468.774,-176.771"/>
<text text-anchor="middle" x="609.702" y="-276.091" font-family="Times Roman,serif" font-size="14.00">2</text>
</g>
<!-- n22_2871787445&#45;&gt;n32_17546584348293785403 -->
<g id="edge58" class="edge"><title>n22_2871787445&#45;&gt;n32_17546584348293785403</title>
<path fill="none" stroke="black" d="M861.66,-181.969C891.067,-157.582 943.306,-114.259 975.97,-87.1701"/>
<polygon fill="black" stroke="black" points="978.363,-89.7321 983.827,-80.6543 973.895,-84.3439 978.363,-89.7321"/>
<text text-anchor="middle" x="934.967" y="-141.527" font-family="Times Roman,serif" font-size="14.00">instantiation</text>
</g>
<!-- n22_2871787445&#45;&gt;n1_40498728 -->
<g id="edge60" class="edge"><title>n22_2871787445&#45;&gt;n1_40498728</title>
<path fill="none" stroke="red" d="M770.842,-200.66C757.947,-200.749 744.924,-200.839 733.442,-200.918"/>
<polygon fill="red" stroke="red" points="733.355,-197.418 723.379,-200.988 733.403,-204.418 733.355,-197.418"/>
<text text-anchor="middle" x="747.503" y="-187.221" font-family="Times Roman,serif" font-size="14.00">2</text>
</g>
<!-- n22_2695967745 -->
<g id="node19" class="node"><title>n22_2695967745</title>
<polygon fill="none" stroke="black" points="245.446,-207.255 213.446,-181.255 245.446,-155.255 277.446,-181.255 245.446,-207.255"/>
<text text-anchor="middle" x="245.446" y="-177.655" font-family="Times Roman,serif" font-size="14.00">if_</text>
</g>
<!-- n22_2695967745&#45;&gt;n22_1213819723 -->
<g id="edge70" class="edge"><title>n22_2695967745&#45;&gt;n22_1213819723</title>
<path fill="none" stroke="blue" d="M263.761,-169.661C305.839,-143.023 409.677,-77.2885 460.359,-45.2044"/>
<polygon fill="blue" stroke="blue" points="462.311,-48.111 468.888,-39.8049 458.567,-42.1965 462.311,-48.111"/>
</g>
<!-- n22_2695967745&#45;&gt;n32_9929354688704599018 -->
<g id="edge62" class="edge"><title>n22_2695967745&#45;&gt;n32_9929354688704599018</title>
<path fill="none" stroke="black" d="M229.396,-168.248C203.509,-147.269 152.148,-105.644 119.518,-79.2004"/>
<polygon fill="black" stroke="black" points="121.625,-76.4033 111.652,-72.8263 117.218,-81.8417 121.625,-76.4033"/>
<text text-anchor="middle" x="158.824" y="-131.18" font-family="Times Roman,serif" font-size="14.00">instantiation</text>
</g>
<!-- n22_2695967745&#45;&gt;n1_40498728 -->
<g id="edge66" class="edge"><title>n22_2695967745&#45;&gt;n1_40498728</title>
<path fill="none" stroke="red" d="M276.388,-180.343C346.062,-178.405 513.56,-174.424 569.907,-179.124 600.1,-181.642 633.894,-187.725 658.907,-192.866"/>
<polygon fill="red" stroke="red" points="658.207,-196.295 668.713,-194.925 659.645,-189.444 658.207,-196.295"/>
<text text-anchor="middle" x="472.581" y="-163.328" font-family="Times Roman,serif" font-size="14.00">3</text>
</g>
<!-- n22_2695967745&#45;&gt;n1_40498704 -->
<g id="edge68" class="edge"><title>n22_2695967745&#45;&gt;n1_40498704</title>
<path fill="none" stroke="red" d="M273.071,-177.501C306.042,-173.02 361.321,-165.509 398.08,-160.513"/>
<polygon fill="red" stroke="red" points="398.948,-163.928 408.386,-159.113 398.005,-156.992 398.948,-163.928"/>
<text text-anchor="middle" x="342.031" y="-174.666" font-family="Times Roman,serif" font-size="14.00">4</text>
</g>
<!-- n22_2695967745&#45;&gt;n22_30076986 -->
<g id="edge64" class="edge"><title>n22_2695967745&#45;&gt;n22_30076986</title>
<path fill="none" stroke="red" d="M262.242,-194.011C278.053,-206.019 302.131,-224.306 321.507,-239.022"/>
<polygon fill="red" stroke="red" points="319.404,-241.82 329.484,-245.081 323.638,-236.245 319.404,-241.82"/>
<text text-anchor="middle" x="302.941" y="-207.005" font-family="Times Roman,serif" font-size="14.00">2</text>
</g>
<!-- n22_1378728391 -->
<g id="node20" class="node"><title>n22_1378728391</title>
<polygon fill="none" stroke="black" points="311.972,-56.4667 279.972,-30.4667 311.972,-4.46671 343.972,-30.4667 311.972,-56.4667"/>
<text text-anchor="middle" x="311.972" y="-26.8667" font-family="Times Roman,serif" font-size="14.00">if_</text>
</g>
<!-- n22_1378728391&#45;&gt;n22_3039830998 -->
<g id="edge80" class="edge"><title>n22_1378728391&#45;&gt;n22_3039830998</title>
<path fill="none" stroke="blue" d="M336.298,-36.7537C395.555,-51.1182 551.875,-83.2892 679.482,-58.9366 705.715,-53.9303 735.124,-47.8539 758.042,-43.0144"/>
<polygon fill="blue" stroke="blue" points="759.024,-46.3841 768.08,-40.8862 757.572,-39.5363 759.024,-46.3841"/>
</g>
<!-- n22_1378728391&#45;&gt;n32_9929354688704599018 -->
<g id="edge72" class="edge"><title>n22_1378728391&#45;&gt;n32_9929354688704599018</title>
<path fill="none" stroke="black" d="M283.407,-33.6597C257.934,-36.507 219.191,-40.8378 183.053,-44.8773"/>
<polygon fill="black" stroke="black" points="182.492,-41.4181 172.943,-46.0075 183.27,-48.3748 182.492,-41.4181"/>
<text text-anchor="middle" x="229.156" y="-47.2357" font-family="Times Roman,serif" font-size="14.00">instantiation</text>
</g>
<!-- n22_1378728391&#45;&gt;n1_40498728 -->
<g id="edge76" class="edge"><title>n22_1378728391&#45;&gt;n1_40498728</title>
<path fill="none" stroke="red" d="M332.897,-39.766C395.204,-67.456 580.094,-149.623 659.354,-184.846"/>
<polygon fill="red" stroke="red" points="658.366,-188.237 668.926,-189.1 661.209,-181.841 658.366,-188.237"/>
<text text-anchor="middle" x="505.02" y="-100.881" font-family="Times Roman,serif" font-size="14.00">3</text>
</g>
<!-- n22_1378728391&#45;&gt;n1_40498704 -->
<g id="edge78" class="edge"><title>n22_1378728391&#45;&gt;n1_40498704</title>
<path fill="none" stroke="red" d="M326.619,-45.2933C347.314,-66.2427 385.393,-104.789 410.565,-130.269"/>
<polygon fill="red" stroke="red" points="408.095,-132.75 417.613,-137.404 413.075,-127.83 408.095,-132.75"/>
<text text-anchor="middle" x="364.293" y="-94.9275" font-family="Times Roman,serif" font-size="14.00">4</text>
</g>
<!-- n22_1378728391&#45;&gt;n22_2956297009 -->
<g id="edge74" class="edge"><title>n22_1378728391&#45;&gt;n22_2956297009</title>
<path fill="none" stroke="red" d="M323.006,-47.918C350.608,-91.5691 422.892,-205.886 457.4,-260.46"/>
<polygon fill="red" stroke="red" points="454.495,-262.415 462.798,-268.997 460.412,-258.674 454.495,-262.415"/>
<text text-anchor="middle" x="384.768" y="-159.646" font-family="Times Roman,serif" font-size="14.00">2</text>
</g>
<!-- n22_2604720182 -->
<g id="node22" class="node"><title>n22_2604720182</title>
<polygon fill="none" stroke="black" points="387.095,-425.378 334.095,-399.378 387.095,-373.378 440.095,-399.378 387.095,-425.378"/>
<text text-anchor="middle" x="387.095" y="-395.778" font-family="Times Roman,serif" font-size="14.00">bool_</text>
</g>
<!-- n22_2604720182&#45;&gt;n32_12883939255363387905 -->
<g id="edge82" class="edge"><title>n22_2604720182&#45;&gt;n32_12883939255363387905</title>
<path fill="none" stroke="black" d="M371.363,-417.953C351.774,-441.085 318.195,-480.734 296.035,-506.901"/>
<polygon fill="black" stroke="black" points="293.344,-504.662 289.552,-514.555 298.686,-509.186 293.344,-504.662"/>
<text text-anchor="middle" x="345.508" y="-475.594" font-family="Times Roman,serif" font-size="14.00">instantiation</text>
</g>
<!-- n22_2604720182&#45;&gt;n8_1773484321 -->
<g id="edge84" class="edge"><title>n22_2604720182&#45;&gt;n8_1773484321</title>
<path fill="none" stroke="red" d="M437.09,-397.74C456.577,-397.101 478.611,-396.379 497.039,-395.776"/>
<polygon fill="red" stroke="red" points="497.266,-399.27 507.146,-395.445 497.037,-392.274 497.266,-399.27"/>
<text text-anchor="middle" x="472.253" y="-382.988" font-family="Times Roman,serif" font-size="14.00">2</text>
</g>
<!-- n22_3175660132 -->
<g id="node23" class="node"><title>n22_3175660132</title>
<polygon fill="none" stroke="black" points="433.004,-564.412 380.004,-538.412 433.004,-512.412 486.004,-538.412 433.004,-564.412"/>
<text text-anchor="middle" x="433.004" y="-534.812" font-family="Times Roman,serif" font-size="14.00">bool_</text>
</g>
<!-- n22_3175660132&#45;&gt;n8_1030972443 -->
<g id="edge88" class="edge"><title>n22_3175660132&#45;&gt;n8_1030972443</title>
<path fill="none" stroke="red" d="M443.523,-517.24C469.144,-465.47 533.893,-333.337 550.463,-287.091 554.577,-275.607 558.196,-262.854 561.161,-251.132"/>
<polygon fill="red" stroke="red" points="564.626,-251.698 563.595,-241.154 557.825,-250.04 564.626,-251.698"/>
<text text-anchor="middle" x="517.098" y="-381.012" font-family="Times Roman,serif" font-size="14.00">2</text>
</g>
<!-- n22_3175660132&#45;&gt;n32_12883939255363387905 -->
<g id="edge86" class="edge"><title>n22_3175660132&#45;&gt;n32_12883939255363387905</title>
<path fill="none" stroke="black" d="M383.116,-536.706C378.12,-536.535 372.941,-536.358 367.677,-536.178"/>
<polygon fill="black" stroke="black" points="367.587,-532.673 357.473,-535.829 367.347,-539.669 367.587,-532.673"/>
<text text-anchor="middle" x="370.138" y="-522.662" font-family="Times Roman,serif" font-size="14.00">instantiation</text>
</g>
<!-- n22_30076986&#45;&gt;n1_40498944 -->
<g id="edge94" class="edge"><title>n22_30076986&#45;&gt;n1_40498944</title>
<path fill="none" stroke="red" d="M352.415,-289.114C350.531,-311.326 344.265,-342.464 324.831,-361.169 263.199,-420.492 171.792,-464.162 119.647,-486.021"/>
<polygon fill="red" stroke="red" points="118.29,-482.794 110.384,-489.847 120.963,-489.264 118.29,-482.794"/>
<text text-anchor="middle" x="331.833" y="-365.567" font-family="Times Roman,serif" font-size="14.00">3</text>
</g>
<!-- n22_30076986&#45;&gt;n1_40498920 -->
<g id="edge92" class="edge"><title>n22_30076986&#45;&gt;n1_40498920</title>
<path fill="none" stroke="red" d="M288.48,-265.38C232.577,-267.534 153.619,-270.576 107.647,-272.347"/>
<polygon fill="red" stroke="red" points="107.388,-268.854 97.5306,-272.736 107.658,-275.849 107.388,-268.854"/>
<text text-anchor="middle" x="193.198" y="-255.451" font-family="Times Roman,serif" font-size="14.00">2</text>
</g>
<!-- n22_30076986&#45;&gt;n22_2604720182 -->
<g id="edge96" class="edge"><title>n22_30076986&#45;&gt;n22_2604720182</title>
<path fill="none" stroke="blue" d="M358.969,-286.982C364.465,-308.945 372.637,-341.602 378.758,-366.062"/>
<polygon fill="blue" stroke="blue" points="375.419,-367.137 381.242,-375.988 382.21,-365.438 375.419,-367.137"/>
</g>
<!-- n32_5226358432096855147 -->
<g id="node27" class="node"><title>n32_5226358432096855147</title>
<polygon fill="none" stroke="black" points="243.205,-342.329 248.649,-342.43 254.037,-342.58 259.346,-342.781 264.556,-343.03 269.645,-343.328 274.593,-343.673 279.381,-344.064 283.991,-344.502 288.405,-344.983 292.608,-345.508 296.586,-346.074 300.324,-346.68 303.811,-347.325 307.037,-348.006 309.993,-348.722 312.672,-349.47 315.067,-350.249 317.174,-351.057 318.992,-351.891 320.518,-352.749 321.754,-353.629 322.7,-354.528 323.36,-355.445 323.738,-356.375 323.839,-357.317 323.671,-358.268 323.242,-359.226 322.559,-360.188 321.632,-361.151 320.471,-362.113 319.087,-363.071 317.492,-364.022 315.697,-364.964 313.713,-365.895 311.553,-366.811 309.229,-367.71 306.753,-368.59 304.137,-369.448 301.393,-370.282 298.531,-371.09 295.563,-371.869 292.499,-372.618 289.349,-373.334 286.123,-374.015 282.83,-374.659 279.477,-375.265 276.073,-375.831 272.623,-376.356 269.136,-376.838 265.616,-377.275 262.068,-377.667 258.498,-378.012 254.909,-378.309 251.305,-378.559 247.689,-378.759 244.065,-378.91 240.434,-379.01 236.8,-379.061 233.165,-379.061 229.531,-379.01 225.9,-378.91 222.276,-378.759 218.66,-378.559 215.056,-378.309 211.467,-378.012 207.897,-377.667 204.349,-377.275 200.829,-376.838 197.342,-376.356 193.892,-375.831 190.488,-375.265 187.135,-374.659 183.842,-374.015 180.616,-373.334 177.466,-372.618 174.402,-371.869 171.434,-371.09 168.572,-370.282 165.828,-369.448 163.212,-368.59 160.736,-367.71 158.412,-366.811 156.252,-365.895 154.269,-364.964 152.473,-364.022 150.878,-363.071 149.494,-362.113 148.334,-361.151 147.407,-360.188 146.723,-359.226 146.294,-358.268 146.126,-357.317 146.227,-356.375 146.605,-355.445 147.265,-354.528 148.211,-353.629 149.447,-352.749 150.973,-351.891 152.791,-351.057 154.898,-350.249 157.294,-349.47 159.972,-348.722 162.928,-348.006 166.154,-347.325 169.641,-346.68 173.379,-346.074 177.357,-345.508 181.56,-344.983 185.975,-344.502 190.584,-344.064 195.372,-343.673 200.321,-343.328 205.409,-343.03 210.619,-342.781 215.928,-342.58 221.316,-342.43 226.76,-342.329 232.238,-342.279 237.727,-342.279 243.205,-342.329"/>
<text text-anchor="middle" x="234.983" y="-357.07" font-family="Times Roman,serif" font-size="14.00">original.cxx:50</text>
</g>
<!-- n22_30076986&#45;&gt;n32_5226358432096855147 -->
<g id="edge90" class="edge"><title>n22_30076986&#45;&gt;n32_5226358432096855147</title>
<path fill="none" stroke="black" d="M331.031,-281.058C312.327,-296.561 285.258,-318.998 264.62,-336.104"/>
<polygon fill="black" stroke="black" points="262.242,-333.529 256.776,-342.606 266.709,-338.919 262.242,-333.529"/>
<text text-anchor="middle" x="305.886" y="-322.246" font-family="Times Roman,serif" font-size="14.00">instantiation</text>
</g>
<!-- n22_2956297009&#45;&gt;n1_40498920 -->
<g id="edge100" class="edge"><title>n22_2956297009&#45;&gt;n1_40498920</title>
<path fill="none" stroke="red" d="M410.486,-292.217C392.835,-292.478 373.761,-292.528 356.142,-292.096 266.93,-289.911 162.324,-281.783 107.791,-277.122"/>
<polygon fill="red" stroke="red" points="107.836,-273.613 97.5715,-276.239 107.233,-280.587 107.836,-273.613"/>
<text text-anchor="middle" x="356.144" y="-298.496" font-family="Times Roman,serif" font-size="14.00">2</text>
</g>
<!-- n22_2956297009&#45;&gt;n1_40498920 -->
<g id="edge102" class="edge"><title>n22_2956297009&#45;&gt;n1_40498920</title>
<path fill="none" stroke="red" d="M410.486,-292.217C392.835,-292.478 373.761,-292.528 356.142,-292.096 266.93,-289.911 162.324,-281.783 107.791,-277.122"/>
<polygon fill="red" stroke="red" points="107.836,-273.613 97.5715,-276.239 107.233,-280.587 107.836,-273.613"/>
<text text-anchor="middle" x="356.144" y="-298.496" font-family="Times Roman,serif" font-size="14.00">3</text>
</g>
<!-- n22_2956297009&#45;&gt;n22_3175660132 -->
<g id="edge104" class="edge"><title>n22_2956297009&#45;&gt;n22_3175660132</title>
<path fill="none" stroke="blue" d="M471.957,-314.989C464.196,-359.505 447.847,-453.279 438.998,-504.035"/>
<polygon fill="blue" stroke="blue" points="435.498,-503.727 437.229,-514.18 442.394,-504.93 435.498,-503.727"/>
</g>
<!-- n22_2956297009&#45;&gt;n32_5226358432096855147 -->
<g id="edge98" class="edge"><title>n22_2956297009&#45;&gt;n32_5226358432096855147</title>
<path fill="none" stroke="black" d="M436.69,-301.834C399.278,-312.746 342.507,-329.306 298.714,-342.08"/>
<polygon fill="black" stroke="black" points="297.635,-338.749 289.015,-344.909 299.595,-345.469 297.635,-338.749"/>
<text text-anchor="middle" x="366.658" y="-333.828" font-family="Times Roman,serif" font-size="14.00">instantiation</text>
</g>
</g>
</svg>
