<?xml version="1.0" encoding="UTF-8" standalone="no"?>
<!DOCTYPE svg PUBLIC "-//W3C//DTD SVG 1.1//EN"
 "http://www.w3.org/Graphics/SVG/1.1/DTD/svg11.dtd">
<!-- Generated by graphviz version 2.26.3 (20100126.1600)
 -->
<!-- Title: _anonymous_0 Pages: 1 -->
<svg width="1156pt" height="693pt"
 viewBox="0.00 0.00 1156.24 692.96" xmlns="http://www.w3.org/2000/svg" xmlns:xlink="http://www.w3.org/1999/xlink">
<g id="graph1" class="graph" transform="scale(1 1) rotate(0) translate(4 688.96)">
<title>_anonymous_0</title>
<polygon fill="white" stroke="white" points="-4,5 -4,-688.96 1153.24,-688.96 1153.24,5 -4,5"/>
<!-- n22_1077592855 -->
<g id="node1" class="node"><title>n22_1077592855</title>
<polygon fill="none" stroke="black" points="504.841,-56.1724 429.841,-30.1724 504.841,-4.17242 579.841,-30.1724 504.841,-56.1724"/>
<text text-anchor="middle" x="504.841" y="-26.5724" font-family="Times Roman,serif" font-size="14.00">lazy_if_c</text>
</g>
<!-- n32_12465215423231841903 -->
<g id="node3" class="node"><title>n32_12465215423231841903</title>
<polygon fill="none" stroke="black" points="662.168,-1.15933 667.612,-1.26001 673,-1.41068 678.309,-1.61094 683.519,-1.86023 688.607,-2.15786 693.556,-2.50303 698.344,-2.89479 702.953,-3.33207 707.368,-3.81365 711.571,-4.33824 715.549,-4.90437 719.287,-5.51052 722.774,-6.15501 726,-6.83608 728.956,-7.55186 731.634,-8.30038 734.03,-9.07961 736.137,-9.88739 737.955,-10.7215 739.481,-11.5797 740.717,-12.4596 741.663,-13.3588 742.323,-14.2749 742.701,-15.2052 742.802,-16.1473 742.634,-17.0987 742.205,-18.0566 741.521,-19.0184 740.594,-19.9816 739.434,-20.9434 738.05,-21.9013 736.455,-22.8527 734.659,-23.7948 732.676,-24.7251 730.516,-25.6412 728.192,-26.5404 725.716,-27.4203 723.1,-28.2785 720.356,-29.1126 717.494,-29.9204 714.526,-30.6996 711.462,-31.4481 708.312,-32.1639 705.086,-32.845 701.793,-33.4895 698.44,-34.0956 695.036,-34.6618 691.586,-35.1863 688.099,-35.6679 684.579,-36.1052 681.031,-36.497 677.461,-36.8421 673.872,-37.1398 670.268,-37.3891 666.652,-37.5893 663.028,-37.74 659.397,-37.8407 655.763,-37.8911 652.128,-37.8911 648.494,-37.8407 644.863,-37.74 641.239,-37.5893 637.623,-37.3891 634.019,-37.1398 630.43,-36.8421 626.86,-36.497 623.312,-36.1052 619.792,-35.6679 616.305,-35.1863 612.855,-34.6618 609.451,-34.0956 606.098,-33.4895 602.805,-32.845 599.579,-32.1639 596.429,-31.4481 593.365,-30.6996 590.397,-29.9204 587.535,-29.1126 584.791,-28.2785 582.175,-27.4203 579.699,-26.5404 577.375,-25.6412 575.215,-24.7251 573.231,-23.7948 571.436,-22.8527 569.841,-21.9013 568.457,-20.9434 567.296,-19.9816 566.369,-19.0184 565.686,-18.0566 565.257,-17.0987 565.089,-16.1473 565.19,-15.2052 565.568,-14.2749 566.228,-13.3588 567.174,-12.4596 568.41,-11.5797 569.936,-10.7215 571.754,-9.88739 573.861,-9.07961 576.256,-8.30038 578.935,-7.55186 581.891,-6.83608 585.117,-6.15501 588.604,-5.51052 592.342,-4.90437 596.32,-4.33824 600.523,-3.81365 604.937,-3.33207 609.547,-2.89479 614.335,-2.50303 619.283,-2.15786 624.372,-1.86023 629.582,-1.61094 634.891,-1.41068 640.279,-1.26001 645.723,-1.15933 651.201,-1.10892 656.69,-1.10892 662.168,-1.15933"/>
<text text-anchor="middle" x="653.945" y="-15.9" font-family="Times Roman,serif" font-size="14.00">original.cxx:12</text>
</g>
<!-- n22_1077592855&#45;&gt;n32_12465215423231841903 -->
<g id="edge2" class="edge"><title>n22_1077592855&#45;&gt;n32_12465215423231841903</title>
<path fill="none" stroke="black" d="M567.211,-25.7082C567.3,-25.7018 567.39,-25.6953 567.48,-25.6889"/>
<polygon fill="black" stroke="black" points="566.161,-29.2924 575.886,-25.0872 565.662,-22.3102 566.161,-29.2924"/>
<text text-anchor="middle" x="567.446" y="-12.0913" font-family="Times Roman,serif" font-size="14.00">instantiation</text>
</g>
<!-- n8_1773484321 -->
<g id="node7" class="node"><title>n8_1773484321</title>
<ellipse fill="none" stroke="black" cx="295.549" cy="-243.576" rx="29.9071" ry="30.4056"/>
<text text-anchor="middle" x="295.549" y="-239.976" font-family="Times Roman,serif" font-size="14.00">0x0</text>
</g>
<!-- n22_1077592855&#45;&gt;n8_1773484321 -->
<g id="edge4" class="edge"><title>n22_1077592855&#45;&gt;n8_1773484321</title>
<path fill="none" stroke="red" d="M485.526,-49.8664C448.506,-87.6147 367.398,-170.316 324.106,-214.459"/>
<polygon fill="red" stroke="red" points="321.491,-212.126 316.988,-221.717 326.489,-217.028 321.491,-212.126"/>
<text text-anchor="middle" x="409.121" y="-139.331" font-family="Times Roman,serif" font-size="14.00">2</text>
</g>
<!-- n22_1741378925 -->
<g id="node17" class="node"><title>n22_1741378925</title>
<polygon fill="none" stroke="black" points="822.457,-61.1806 752.457,-35.1806 822.457,-9.18064 892.457,-35.1806 822.457,-61.1806"/>
<text text-anchor="middle" x="822.457" y="-31.5806" font-family="Times Roman,serif" font-size="14.00">identity</text>
</g>
<!-- n22_1077592855&#45;&gt;n22_1741378925 -->
<g id="edge8" class="edge"><title>n22_1077592855&#45;&gt;n22_1741378925</title>
<path fill="none" stroke="red" d="M576.913,-31.3089C627.103,-32.1003 693.965,-33.1546 745.244,-33.9631"/>
<polygon fill="red" stroke="red" points="745.228,-37.4632 755.282,-34.1214 745.339,-30.4641 745.228,-37.4632"/>
<text text-anchor="middle" x="665.838" y="-39.111" font-family="Times Roman,serif" font-size="14.00">4</text>
</g>
<!-- n22_2871787445 -->
<g id="node18" class="node"><title>n22_2871787445</title>
<polygon fill="none" stroke="black" points="674.923,-211.698 604.923,-185.698 674.923,-159.698 744.923,-185.698 674.923,-211.698"/>
<text text-anchor="middle" x="674.923" y="-182.098" font-family="Times Roman,serif" font-size="14.00">identity</text>
</g>
<!-- n22_1077592855&#45;&gt;n22_2871787445 -->
<g id="edge6" class="edge"><title>n22_1077592855&#45;&gt;n22_2871787445</title>
<path fill="none" stroke="red" d="M525.696,-49.243C556.163,-77.1025 612.908,-128.991 646.964,-160.132"/>
<polygon fill="red" stroke="red" points="644.95,-163.033 654.692,-167.199 649.674,-157.868 644.95,-163.033"/>
<text text-anchor="middle" x="597.205" y="-96.6305" font-family="Times Roman,serif" font-size="14.00">3</text>
</g>
<!-- n22_1772220736 -->
<g id="node2" class="node"><title>n22_1772220736</title>
<polygon fill="none" stroke="black" points="704.819,-351.166 629.819,-325.166 704.819,-299.166 779.819,-325.166 704.819,-351.166"/>
<text text-anchor="middle" x="704.819" y="-321.566" font-family="Times Roman,serif" font-size="14.00">lazy_if_c</text>
</g>
<!-- n22_1772220736&#45;&gt;n32_12465215423231841903 -->
<g id="edge10" class="edge"><title>n22_1772220736&#45;&gt;n32_12465215423231841903</title>
<path fill="none" stroke="black" d="M700.699,-300.411C691.368,-244.349 668.665,-107.939 658.732,-48.2576"/>
<polygon fill="black" stroke="black" points="662.126,-47.3329 657.032,-38.0432 655.221,-48.4822 662.126,-47.3329"/>
<text text-anchor="middle" x="697.899" y="-162.83" font-family="Times Roman,serif" font-size="14.00">instantiation</text>
</g>
<!-- n8_1030972443 -->
<g id="node4" class="node"><title>n8_1030972443</title>
<ellipse fill="none" stroke="black" cx="577.238" cy="-373.514" rx="29.9071" ry="30.4056"/>
<text text-anchor="middle" x="577.238" y="-369.914" font-family="Times Roman,serif" font-size="14.00">0x1</text>
</g>
<!-- n22_1772220736&#45;&gt;n8_1030972443 -->
<g id="edge12" class="edge"><title>n22_1772220736&#45;&gt;n8_1030972443</title>
<path fill="none" stroke="red" d="M668.941,-338.762C652.183,-345.113 632.224,-352.676 615.212,-359.123"/>
<polygon fill="red" stroke="red" points="613.693,-355.956 605.582,-362.772 616.174,-362.502 613.693,-355.956"/>
<text text-anchor="middle" x="641.424" y="-357.106" font-family="Times Roman,serif" font-size="14.00">2</text>
</g>
<!-- n22_1772220736&#45;&gt;n22_1741378925 -->
<g id="edge16" class="edge"><title>n22_1772220736&#45;&gt;n22_1741378925</title>
<path fill="none" stroke="red" d="M714.247,-301.925C735.121,-250.47 785.282,-126.819 809.26,-67.7129"/>
<polygon fill="red" stroke="red" points="812.632,-68.7116 813.148,-58.1293 806.145,-66.0801 812.632,-68.7116"/>
<text text-anchor="middle" x="755.782" y="-173.219" font-family="Times Roman,serif" font-size="14.00">4</text>
</g>
<!-- n22_1772220736&#45;&gt;n22_2871787445 -->
<g id="edge14" class="edge"><title>n22_1772220736&#45;&gt;n22_2871787445</title>
<path fill="none" stroke="red" d="M699.612,-300.872C694.818,-278.511 687.658,-245.108 682.281,-220.025"/>
<polygon fill="red" stroke="red" points="685.69,-219.226 680.171,-210.181 678.845,-220.693 685.69,-219.226"/>
<text text-anchor="middle" x="696.871" y="-250.831" font-family="Times Roman,serif" font-size="14.00">3</text>
</g>
<!-- n1_40498944 -->
<g id="node5" class="node"><title>n1_40498944</title>
<polygon fill="none" stroke="black" points="1080.75,-625.451 1018.75,-625.451 1018.75,-589.451 1080.75,-589.451 1080.75,-625.451"/>
<text text-anchor="middle" x="1049.75" y="-603.851" font-family="Times Roman,serif" font-size="14.00">double</text>
</g>
<!-- n32_12883939255363387905 -->
<g id="node6" class="node"><title>n32_12883939255363387905</title>
<polygon fill="none" stroke="black" points="321.158,-626.597 326.602,-626.698 331.99,-626.849 337.299,-627.049 342.509,-627.298 347.598,-627.596 352.546,-627.941 357.334,-628.333 361.944,-628.77 366.358,-629.252 370.561,-629.776 374.539,-630.342 378.277,-630.948 381.764,-631.593 384.99,-632.274 387.946,-632.99 390.625,-633.738 393.02,-634.517 395.128,-635.325 396.945,-636.159 398.472,-637.018 399.707,-637.897 400.653,-638.797 401.313,-639.713 401.691,-640.643 401.793,-641.585 401.625,-642.537 401.195,-643.494 400.512,-644.456 399.585,-645.419 398.424,-646.381 397.04,-647.339 395.445,-648.291 393.65,-649.233 391.666,-650.163 389.506,-651.079 387.183,-651.978 384.707,-652.858 382.091,-653.716 379.346,-654.55 376.484,-655.358 373.516,-656.137 370.452,-656.886 367.303,-657.602 364.077,-658.283 360.783,-658.927 357.43,-659.533 354.026,-660.1 350.577,-660.624 347.089,-661.106 343.569,-661.543 340.021,-661.935 336.451,-662.28 332.862,-662.578 329.258,-662.827 325.642,-663.027 322.018,-663.178 318.387,-663.279 314.753,-663.329 311.118,-663.329 307.484,-663.279 303.853,-663.178 300.229,-663.027 296.613,-662.827 293.009,-662.578 289.42,-662.28 285.85,-661.935 282.302,-661.543 278.782,-661.106 275.295,-660.624 271.846,-660.1 268.441,-659.533 265.088,-658.927 261.795,-658.283 258.569,-657.602 255.419,-656.886 252.355,-656.137 249.387,-655.358 246.525,-654.55 243.781,-653.716 241.165,-652.858 238.689,-651.978 236.365,-651.079 234.205,-650.163 232.222,-649.233 230.426,-648.291 228.831,-647.339 227.447,-646.381 226.287,-645.419 225.36,-644.456 224.677,-643.494 224.247,-642.537 224.079,-641.585 224.181,-640.643 224.559,-639.713 225.218,-638.797 226.164,-637.897 227.4,-637.018 228.926,-636.159 230.744,-635.325 232.852,-634.517 235.247,-633.738 237.925,-632.99 240.881,-632.274 244.107,-631.593 247.594,-630.948 251.333,-630.342 255.31,-629.776 259.513,-629.252 263.928,-628.77 268.537,-628.333 273.326,-627.941 278.274,-627.596 283.363,-627.298 288.572,-627.049 293.882,-626.849 299.269,-626.698 304.713,-626.597 310.191,-626.547 315.68,-626.547 321.158,-626.597"/>
<text text-anchor="middle" x="312.936" y="-641.338" font-family="Times Roman,serif" font-size="14.00">original.cxx:42</text>
</g>
<!-- n22_1682610999 -->
<g id="node8" class="node"><title>n22_1682610999</title>
<polygon fill="none" stroke="black" points="844.796,-265.653 783.796,-239.653 844.796,-213.653 905.796,-239.653 844.796,-265.653"/>
<text text-anchor="middle" x="844.796" y="-236.053" font-family="Times Roman,serif" font-size="14.00">lazy_if</text>
</g>
<!-- n22_1682610999&#45;&gt;n22_1077592855 -->
<g id="edge26" class="edge"><title>n22_1682610999&#45;&gt;n22_1077592855</title>
<path fill="none" stroke="blue" d="M819.798,-224.25C760.365,-187.627 610.418,-95.2294 541.061,-52.4911"/>
<polygon fill="blue" stroke="blue" points="542.571,-49.3107 532.222,-47.0444 538.899,-55.2702 542.571,-49.3107"/>
</g>
<!-- n32_3683794977457051237 -->
<g id="node16" class="node"><title>n32_3683794977457051237</title>
<polygon fill="none" stroke="black" points="1066.46,-315.856 1071.91,-315.957 1077.3,-316.107 1082.61,-316.308 1087.82,-316.557 1092.9,-316.855 1097.85,-317.2 1102.64,-317.591 1107.25,-318.029 1111.66,-318.51 1115.87,-319.035 1119.85,-319.601 1123.58,-320.207 1127.07,-320.852 1130.3,-321.533 1133.25,-322.249 1135.93,-322.997 1138.33,-323.776 1140.43,-324.584 1142.25,-325.418 1143.78,-326.276 1145.01,-327.156 1145.96,-328.056 1146.62,-328.972 1147,-329.902 1147.1,-330.844 1146.93,-331.795 1146.5,-332.753 1145.82,-333.715 1144.89,-334.678 1143.73,-335.64 1142.35,-336.598 1140.75,-337.549 1138.96,-338.491 1136.97,-339.422 1134.81,-340.338 1132.49,-341.237 1130.01,-342.117 1127.4,-342.975 1124.65,-343.809 1121.79,-344.617 1118.82,-345.396 1115.76,-346.145 1112.61,-346.861 1109.38,-347.542 1106.09,-348.186 1102.74,-348.792 1099.33,-349.358 1095.88,-349.883 1092.4,-350.365 1088.88,-350.802 1085.33,-351.194 1081.76,-351.539 1078.17,-351.836 1074.56,-352.086 1070.95,-352.286 1067.32,-352.437 1063.69,-352.537 1060.06,-352.588 1056.42,-352.588 1052.79,-352.537 1049.16,-352.437 1045.54,-352.286 1041.92,-352.086 1038.32,-351.836 1034.73,-351.539 1031.16,-351.194 1027.61,-350.802 1024.09,-350.365 1020.6,-349.883 1017.15,-349.358 1013.75,-348.792 1010.39,-348.186 1007.1,-347.542 1003.88,-346.861 1000.73,-346.145 997.662,-345.396 994.694,-344.617 991.832,-343.809 989.087,-342.975 986.471,-342.117 983.995,-341.237 981.671,-340.338 979.512,-339.422 977.528,-338.491 975.733,-337.549 974.137,-336.598 972.754,-335.64 971.593,-334.678 970.666,-333.715 969.983,-332.753 969.553,-331.795 969.385,-330.844 969.487,-329.902 969.865,-328.972 970.525,-328.056 971.471,-327.156 972.706,-326.276 974.233,-325.418 976.05,-324.584 978.158,-323.776 980.553,-322.997 983.231,-322.249 986.187,-321.533 989.413,-320.852 992.901,-320.207 996.639,-319.601 1000.62,-319.035 1004.82,-318.51 1009.23,-318.029 1013.84,-317.591 1018.63,-317.2 1023.58,-316.855 1028.67,-316.557 1033.88,-316.308 1039.19,-316.107 1044.58,-315.957 1050.02,-315.856 1055.5,-315.806 1060.99,-315.806 1066.46,-315.856"/>
<text text-anchor="middle" x="1058.24" y="-330.597" font-family="Times Roman,serif" font-size="14.00">original.cxx:22</text>
</g>
<!-- n22_1682610999&#45;&gt;n32_3683794977457051237 -->
<g id="edge18" class="edge"><title>n22_1682610999&#45;&gt;n32_3683794977457051237</title>
<path fill="none" stroke="black" d="M874.925,-252.999C910.107,-268.582 968.759,-294.561 1010.23,-312.932"/>
<polygon fill="black" stroke="black" points="1009.03,-316.228 1019.59,-317.078 1011.87,-309.828 1009.03,-316.228"/>
<text text-anchor="middle" x="953.626" y="-266.6" font-family="Times Roman,serif" font-size="14.00">instantiation</text>
</g>
<!-- n22_1682610999&#45;&gt;n22_1741378925 -->
<g id="edge24" class="edge"><title>n22_1682610999&#45;&gt;n22_1741378925</title>
<path fill="none" stroke="red" d="M842.057,-214.581C838.113,-178.48 830.816,-111.689 826.324,-70.5741"/>
<polygon fill="red" stroke="red" points="829.784,-70.0188 825.219,-60.4581 822.826,-70.7791 829.784,-70.0188"/>
<text text-anchor="middle" x="839.653" y="-134.055" font-family="Times Roman,serif" font-size="14.00">4</text>
</g>
<!-- n22_1682610999&#45;&gt;n22_2871787445 -->
<g id="edge22" class="edge"><title>n22_1682610999&#45;&gt;n22_2871787445</title>
<path fill="none" stroke="red" d="M809.598,-228.474C784.412,-220.474 750.215,-209.613 722.585,-200.837"/>
<polygon fill="red" stroke="red" points="723.321,-197.398 712.731,-197.707 721.202,-204.07 723.321,-197.398"/>
<text text-anchor="middle" x="757.96" y="-219.425" font-family="Times Roman,serif" font-size="14.00">3</text>
</g>
<!-- n22_30076986 -->
<g id="node25" class="node"><title>n22_30076986</title>
<polygon fill="none" stroke="black" points="707.554,-496.986 636.554,-470.986 707.554,-444.986 778.554,-470.986 707.554,-496.986"/>
<text text-anchor="middle" x="707.554" y="-467.386" font-family="Times Roman,serif" font-size="14.00">is_same</text>
</g>
<!-- n22_1682610999&#45;&gt;n22_30076986 -->
<g id="edge20" class="edge"><title>n22_1682610999&#45;&gt;n22_30076986</title>
<path fill="none" stroke="red" d="M832.375,-260.591C807.951,-301.758 753.605,-393.364 725.365,-440.964"/>
<polygon fill="red" stroke="red" points="722.337,-439.208 720.245,-449.594 728.358,-442.779 722.337,-439.208"/>
<text text-anchor="middle" x="784.279" y="-356.545" font-family="Times Roman,serif" font-size="14.00">2</text>
</g>
<!-- n22_3059588303 -->
<g id="node9" class="node"><title>n22_3059588303</title>
<polygon fill="none" stroke="black" points="857.298,-454.144 796.298,-428.144 857.298,-402.144 918.298,-428.144 857.298,-454.144"/>
<text text-anchor="middle" x="857.298" y="-424.544" font-family="Times Roman,serif" font-size="14.00">lazy_if</text>
</g>
<!-- n22_3059588303&#45;&gt;n22_1772220736 -->
<g id="edge36" class="edge"><title>n22_3059588303&#45;&gt;n22_1772220736</title>
<path fill="none" stroke="blue" d="M833.473,-412.054C808.12,-394.931 767.779,-367.686 739.032,-348.272"/>
<polygon fill="blue" stroke="blue" points="740.759,-345.214 730.513,-342.518 736.841,-351.015 740.759,-345.214"/>
</g>
<!-- n22_3059588303&#45;&gt;n32_3683794977457051237 -->
<g id="edge28" class="edge"><title>n22_3059588303&#45;&gt;n32_3683794977457051237</title>
<path fill="none" stroke="black" d="M886.517,-414.483C920.033,-398.814 975.343,-372.955 1014.11,-354.829"/>
<polygon fill="black" stroke="black" points="1016.01,-357.804 1023.59,-350.398 1013.05,-351.462 1016.01,-357.804"/>
<text text-anchor="middle" x="962.326" y="-393.713" font-family="Times Roman,serif" font-size="14.00">instantiation</text>
</g>
<!-- n22_3059588303&#45;&gt;n22_1741378925 -->
<g id="edge34" class="edge"><title>n22_3059588303&#45;&gt;n22_1741378925</title>
<path fill="none" stroke="red" d="M855.066,-402.965C849.062,-335.257 832.559,-149.122 825.609,-70.7273"/>
<polygon fill="red" stroke="red" points="829.063,-70.0559 824.693,-60.4041 822.09,-70.6741 829.063,-70.0559"/>
<text text-anchor="middle" x="833.884" y="-228.136" font-family="Times Roman,serif" font-size="14.00">4</text>
</g>
<!-- n22_3059588303&#45;&gt;n22_2871787445 -->
<g id="edge32" class="edge"><title>n22_3059588303&#45;&gt;n22_2871787445</title>
<path fill="none" stroke="red" d="M842.374,-408.304C810.126,-365.434 733.841,-264.022 696.403,-214.253"/>
<polygon fill="red" stroke="red" points="699.12,-212.043 690.311,-206.155 693.526,-216.251 699.12,-212.043"/>
<text text-anchor="middle" x="758.446" y="-309.767" font-family="Times Roman,serif" font-size="14.00">3</text>
</g>
<!-- n22_2956297009 -->
<g id="node26" class="node"><title>n22_2956297009</title>
<polygon fill="none" stroke="black" points="573.748,-525.913 502.748,-499.913 573.748,-473.913 644.748,-499.913 573.748,-525.913"/>
<text text-anchor="middle" x="573.748" y="-496.313" font-family="Times Roman,serif" font-size="14.00">is_same</text>
</g>
<!-- n22_3059588303&#45;&gt;n22_2956297009 -->
<g id="edge30" class="edge"><title>n22_3059588303&#45;&gt;n22_2956297009</title>
<path fill="none" stroke="red" d="M818.762,-437.898C768.87,-450.526 681.722,-472.584 625.932,-486.704"/>
<polygon fill="red" stroke="red" points="624.731,-483.398 615.895,-489.245 626.449,-490.184 624.731,-483.398"/>
<text text-anchor="middle" x="719.168" y="-470.012" font-family="Times Roman,serif" font-size="14.00">2</text>
</g>
<!-- n22_1213819723 -->
<g id="node10" class="node"><title>n22_1213819723</title>
<polygon fill="none" stroke="black" points="327.143,-56.8262 288.143,-30.8262 327.143,-4.82616 366.143,-30.8262 327.143,-56.8262"/>
<text text-anchor="middle" x="327.143" y="-27.2262" font-family="Times Roman,serif" font-size="14.00">if_c</text>
</g>
<!-- n22_1213819723&#45;&gt;n8_1773484321 -->
<g id="edge40" class="edge"><title>n22_1213819723&#45;&gt;n8_1773484321</title>
<path fill="none" stroke="red" d="M323.58,-54.8178C318.231,-90.8346 308.062,-159.317 301.554,-203.142"/>
<polygon fill="red" stroke="red" points="298.071,-202.772 300.064,-213.178 304.995,-203.8 298.071,-202.772"/>
<text text-anchor="middle" x="318.772" y="-131.732" font-family="Times Roman,serif" font-size="14.00">2</text>
</g>
<!-- n32_11407624269635001793 -->
<g id="node13" class="node"><title>n32_11407624269635001793</title>
<polygon fill="none" stroke="black" points="104.229,-48.8227 109.673,-48.9234 115.061,-49.0741 120.37,-49.2743 125.58,-49.5236 130.669,-49.8212 135.617,-50.1664 140.405,-50.5582 145.015,-50.9954 149.429,-51.477 153.633,-52.0016 157.61,-52.5677 161.348,-53.1739 164.836,-53.8184 168.062,-54.4994 171.018,-55.2152 173.696,-55.9638 176.091,-56.743 178.199,-57.5508 180.016,-58.3849 181.543,-59.2431 182.778,-60.123 183.724,-61.0222 184.384,-61.9382 184.762,-62.8686 184.864,-63.8107 184.696,-64.762 184.266,-65.7199 183.583,-66.6818 182.656,-67.645 181.495,-68.6068 180.112,-69.5647 178.516,-70.516 176.721,-71.4582 174.737,-72.3885 172.578,-73.3045 170.254,-74.2037 167.778,-75.0836 165.162,-75.9418 162.417,-76.776 159.555,-77.5838 156.587,-78.363 153.523,-79.1115 150.374,-79.8273 147.148,-80.5084 143.854,-81.1529 140.502,-81.759 137.097,-82.3251 133.648,-82.8497 130.16,-83.3313 126.64,-83.7686 123.093,-84.1603 119.522,-84.5055 115.933,-84.8031 112.329,-85.0524 108.714,-85.2527 105.089,-85.4034 101.459,-85.504 97.8246,-85.5545 94.1893,-85.5545 90.5552,-85.504 86.9247,-85.4034 83.3002,-85.2527 79.6845,-85.0524 76.0805,-84.8031 72.4915,-84.5055 68.9212,-84.1603 65.3737,-83.7686 61.8535,-83.3313 58.366,-82.8497 54.9168,-82.3251 51.5124,-81.759 48.1596,-81.1529 44.8661,-80.5084 41.6401,-79.8273 38.4904,-79.1115 35.4266,-78.363 32.4585,-77.5838 29.5967,-76.776 26.8521,-75.9418 24.236,-75.0836 21.7601,-74.2037 19.4363,-73.3045 17.2765,-72.3885 15.2929,-71.4582 13.4976,-70.516 11.9023,-69.5647 10.5187,-68.6068 9.35798,-67.645 8.431,-66.6818 7.74786,-65.7199 7.31802,-64.762 7.1501,-63.8107 7.2518,-62.8686 7.62981,-61.9382 8.28968,-61.0222 9.23575,-60.123 10.4711,-59.2431 11.9975,-58.3849 13.8151,-57.5508 15.9228,-56.743 18.318,-55.9638 20.9964,-55.2152 23.9522,-54.4994 27.1782,-53.8184 30.6655,-53.1739 34.4038,-52.5677 38.3811,-52.0016 42.5844,-51.477 46.9989,-50.9954 51.6088,-50.5582 56.3968,-50.1664 61.3449,-49.8212 66.4338,-49.5236 71.6434,-49.2743 76.9528,-49.0741 82.3405,-48.9234 87.7844,-48.8227 93.2623,-48.7723 98.7516,-48.7723 104.229,-48.8227"/>
<text text-anchor="middle" x="96.0069" y="-63.5634" font-family="Times Roman,serif" font-size="14.00">original.cxx:25</text>
</g>
<!-- n22_1213819723&#45;&gt;n32_11407624269635001793 -->
<g id="edge38" class="edge"><title>n22_1213819723&#45;&gt;n32_11407624269635001793</title>
<path fill="none" stroke="black" d="M295.489,-35.8025C266.196,-40.4076 221.299,-47.466 181.511,-53.7211"/>
<polygon fill="black" stroke="black" points="180.853,-50.2815 171.518,-55.2921 181.94,-57.1965 180.853,-50.2815"/>
<text text-anchor="middle" x="234.514" y="-53.9457" font-family="Times Roman,serif" font-size="14.00">instantiation</text>
</g>
<!-- n1_40498728 -->
<g id="node21" class="node"><title>n1_40498728</title>
<polygon fill="none" stroke="black" points="472.304,-207.979 418.304,-207.979 418.304,-171.979 472.304,-171.979 472.304,-207.979"/>
<text text-anchor="middle" x="445.304" y="-186.379" font-family="Times Roman,serif" font-size="14.00">int</text>
</g>
<!-- n22_1213819723&#45;&gt;n1_40498728 -->
<g id="edge42" class="edge"><title>n22_1213819723&#45;&gt;n1_40498728</title>
<path fill="none" stroke="red" d="M340.239,-48.4664C360.979,-76.4006 401.503,-130.983 425.712,-163.59"/>
<polygon fill="red" stroke="red" points="423.014,-165.828 431.785,-171.77 428.634,-161.655 423.014,-165.828"/>
<text text-anchor="middle" x="377.927" y="-112.403" font-family="Times Roman,serif" font-size="14.00">3</text>
</g>
<!-- n1_40498704 -->
<g id="node24" class="node"><title>n1_40498704</title>
<polygon fill="none" stroke="black" points="587.868,-260.116 533.868,-260.116 533.868,-224.116 587.868,-224.116 587.868,-260.116"/>
<text text-anchor="middle" x="560.868" y="-238.516" font-family="Times Roman,serif" font-size="14.00">short</text>
</g>
<!-- n22_1213819723&#45;&gt;n1_40498704 -->
<g id="edge44" class="edge"><title>n22_1213819723&#45;&gt;n1_40498704</title>
<path fill="none" stroke="red" d="M343.952,-46.0216C383.711,-81.9643 483.87,-172.509 532.923,-216.853"/>
<polygon fill="red" stroke="red" points="530.856,-219.702 540.621,-223.812 535.55,-214.51 530.856,-219.702"/>
<text text-anchor="middle" x="449.163" y="-123.206" font-family="Times Roman,serif" font-size="14.00">4</text>
</g>
<!-- n22_3039830998 -->
<g id="node11" class="node"><title>n22_3039830998</title>
<polygon fill="none" stroke="black" points="84.9712,-358.366 45.9712,-332.366 84.9712,-306.366 123.971,-332.366 84.9712,-358.366"/>
<text text-anchor="middle" x="84.9712" y="-328.766" font-family="Times Roman,serif" font-size="14.00">if_c</text>
</g>
<!-- n22_3039830998&#45;&gt;n8_1030972443 -->
<g id="edge48" class="edge"><title>n22_3039830998&#45;&gt;n8_1030972443</title>
<path fill="none" stroke="red" d="M119.979,-335.292C208.9,-342.725 443.068,-362.299 537.207,-370.168"/>
<polygon fill="red" stroke="red" points="536.932,-373.657 547.189,-371.002 537.515,-366.681 536.932,-373.657"/>
<text text-anchor="middle" x="333.794" y="-359.565" font-family="Times Roman,serif" font-size="14.00">2</text>
</g>
<!-- n22_3039830998&#45;&gt;n32_11407624269635001793 -->
<g id="edge46" class="edge"><title>n22_3039830998&#45;&gt;n32_11407624269635001793</title>
<path fill="none" stroke="black" d="M86.0293,-306.937C88.0944,-257.313 92.6483,-147.875 94.8156,-95.7925"/>
<polygon fill="black" stroke="black" points="98.3212,-95.7284 95.2401,-85.5915 91.3273,-95.4373 98.3212,-95.7284"/>
<text text-anchor="middle" x="108.638" y="-192.581" font-family="Times Roman,serif" font-size="14.00">instantiation</text>
</g>
<!-- n22_3039830998&#45;&gt;n1_40498728 -->
<g id="edge50" class="edge"><title>n22_3039830998&#45;&gt;n1_40498728</title>
<path fill="none" stroke="red" d="M109.738,-322.579C171.976,-297.985 335.178,-233.495 408.594,-204.485"/>
<polygon fill="red" stroke="red" points="409.908,-207.729 417.922,-200.799 407.336,-201.219 409.908,-207.729"/>
<text text-anchor="middle" x="259.781" y="-248.108" font-family="Times Roman,serif" font-size="14.00">3</text>
</g>
<!-- n22_3039830998&#45;&gt;n1_40498704 -->
<g id="edge52" class="edge"><title>n22_3039830998&#45;&gt;n1_40498704</title>
<path fill="none" stroke="red" d="M115.465,-326.583C199.219,-310.7 432.607,-266.439 523.74,-249.156"/>
<polygon fill="red" stroke="red" points="524.454,-252.584 533.627,-247.282 523.15,-245.706 524.454,-252.584"/>
<text text-anchor="middle" x="322.827" y="-273.279" font-family="Times Roman,serif" font-size="14.00">4</text>
</g>
<!-- n32_9929354688704599018 -->
<g id="node12" class="node"><title>n32_9929354688704599018</title>
<polygon fill="none" stroke="black" points="98.2225,-586.561 103.666,-586.661 109.054,-586.812 114.364,-587.012 119.573,-587.261 124.662,-587.559 129.61,-587.904 134.398,-588.296 139.008,-588.733 143.423,-589.215 147.626,-589.739 151.603,-590.306 155.341,-590.912 158.829,-591.556 162.055,-592.237 165.011,-592.953 167.689,-593.702 170.084,-594.481 172.192,-595.289 174.009,-596.123 175.536,-596.981 176.771,-597.861 177.717,-598.76 178.377,-599.676 178.755,-600.606 178.857,-601.549 178.689,-602.5 178.259,-603.458 177.576,-604.42 176.649,-605.383 175.488,-606.345 174.105,-607.303 172.509,-608.254 170.714,-609.196 168.73,-610.126 166.571,-611.042 164.247,-611.942 161.771,-612.821 159.155,-613.68 156.41,-614.514 153.548,-615.322 150.58,-616.101 147.517,-616.849 144.367,-617.565 141.141,-618.246 137.847,-618.891 134.495,-619.497 131.09,-620.063 127.641,-620.588 124.153,-621.069 120.633,-621.506 117.086,-621.898 113.515,-622.243 109.926,-622.541 106.322,-622.79 102.707,-622.991 99.0822,-623.141 95.4517,-623.242 91.8176,-623.292 88.1824,-623.292 84.5483,-623.242 80.9178,-623.141 77.2933,-622.991 73.6776,-622.79 70.0736,-622.541 66.4846,-622.243 62.9143,-621.898 59.3667,-621.506 55.8466,-621.069 52.3591,-620.588 48.9099,-620.063 45.5054,-619.497 42.1526,-618.891 38.8591,-618.246 35.6331,-617.565 32.4835,-616.849 29.4197,-616.101 26.4516,-615.322 23.5898,-614.514 20.8452,-613.68 18.2291,-612.821 15.7532,-611.942 13.4293,-611.042 11.2696,-610.126 9.286,-609.196 7.49062,-608.254 5.89532,-607.303 4.51171,-606.345 3.35103,-605.383 2.42405,-604.42 1.74092,-603.458 1.31108,-602.5 1.14316,-601.549 1.24486,-600.606 1.62287,-599.676 2.28273,-598.76 3.22881,-597.861 4.46417,-596.981 5.99052,-596.123 7.80815,-595.289 9.91588,-594.481 12.311,-593.702 14.9894,-592.953 17.9453,-592.237 21.1713,-591.556 24.6586,-590.912 28.3968,-590.306 32.3742,-589.739 36.5774,-589.215 40.992,-588.733 45.6018,-588.296 50.3899,-587.904 55.338,-587.559 60.4269,-587.261 65.6365,-587.012 70.9458,-586.812 76.3335,-586.661 81.7775,-586.561 87.2554,-586.51 92.7446,-586.51 98.2225,-586.561"/>
<text text-anchor="middle" x="90" y="-601.301" font-family="Times Roman,serif" font-size="14.00">original.cxx:35</text>
</g>
<!-- n1_40498920 -->
<g id="node14" class="node"><title>n1_40498920</title>
<polygon fill="none" stroke="black" points="850.966,-661.469 796.966,-661.469 796.966,-625.469 850.966,-625.469 850.966,-661.469"/>
<text text-anchor="middle" x="823.966" y="-639.869" font-family="Times Roman,serif" font-size="14.00">float</text>
</g>
<!-- n32_17546584348293785403 -->
<g id="node15" class="node"><title>n32_17546584348293785403</title>
<polygon fill="none" stroke="black" points="1056.02,-49.1652 1061.46,-49.2659 1066.85,-49.4166 1072.16,-49.6168 1077.37,-49.8661 1082.46,-50.1638 1087.41,-50.5089 1092.2,-50.9007 1096.81,-51.338 1101.22,-51.8196 1105.42,-52.3441 1109.4,-52.9103 1113.14,-53.5164 1116.63,-54.1609 1119.85,-54.842 1122.81,-55.5578 1125.49,-56.3063 1127.88,-57.0855 1129.99,-57.8933 1131.81,-58.7274 1133.33,-59.5856 1134.57,-60.4655 1135.51,-61.3647 1136.17,-62.2808 1136.55,-63.2111 1136.65,-64.1533 1136.49,-65.1046 1136.06,-66.0625 1135.37,-67.0243 1134.45,-67.9875 1133.29,-68.9494 1131.9,-69.9073 1130.31,-70.8586 1128.51,-71.8007 1126.53,-72.731 1124.37,-73.6471 1122.04,-74.5463 1119.57,-75.4262 1116.95,-76.2844 1114.21,-77.1185 1111.35,-77.9263 1108.38,-78.7055 1105.31,-79.4541 1102.16,-80.1698 1098.94,-80.8509 1095.64,-81.4954 1092.29,-82.1015 1088.89,-82.6677 1085.44,-83.1923 1081.95,-83.6738 1078.43,-84.1111 1074.88,-84.5029 1071.31,-84.848 1067.72,-85.1457 1064.12,-85.395 1060.5,-85.5952 1056.88,-85.7459 1053.25,-85.8466 1049.61,-85.897 1045.98,-85.897 1042.35,-85.8466 1038.72,-85.7459 1035.09,-85.5952 1031.47,-85.395 1027.87,-85.1457 1024.28,-84.848 1020.71,-84.5029 1017.16,-84.1111 1013.64,-83.6738 1010.16,-83.1923 1006.71,-82.6677 1003.3,-82.1015 999.95,-81.4954 996.656,-80.8509 993.43,-80.1698 990.281,-79.4541 987.217,-78.7055 984.249,-77.9263 981.387,-77.1185 978.642,-76.2844 976.026,-75.4262 973.55,-74.5463 971.227,-73.6471 969.067,-72.731 967.083,-71.8007 965.288,-70.8586 963.693,-69.9073 962.309,-68.9494 961.148,-67.9875 960.221,-67.0243 959.538,-66.0625 959.108,-65.1046 958.94,-64.1533 959.042,-63.2111 959.42,-62.2808 960.08,-61.3647 961.026,-60.4655 962.261,-59.5856 963.788,-58.7274 965.605,-57.8933 967.713,-57.0855 970.108,-56.3063 972.787,-55.5578 975.743,-54.842 978.969,-54.1609 982.456,-53.5164 986.194,-52.9103 990.171,-52.3441 994.375,-51.8196 998.789,-51.338 1003.4,-50.9007 1008.19,-50.5089 1013.14,-50.1638 1018.22,-49.8661 1023.43,-49.6168 1028.74,-49.4166 1034.13,-49.2659 1039.57,-49.1652 1045.05,-49.1148 1050.54,-49.1148 1056.02,-49.1652"/>
<text text-anchor="middle" x="1047.8" y="-63.9059" font-family="Times Roman,serif" font-size="14.00">original.cxx:38</text>
</g>
<!-- n22_1741378925&#45;&gt;n32_17546584348293785403 -->
<g id="edge54" class="edge"><title>n22_1741378925&#45;&gt;n32_17546584348293785403</title>
<path fill="none" stroke="black" d="M873.028,-42.4351C898.564,-46.0983 930.29,-50.6494 959.675,-54.8647"/>
<polygon fill="black" stroke="black" points="959.561,-58.3841 969.957,-56.3397 960.555,-51.4551 959.561,-58.3841"/>
<text text-anchor="middle" x="920.176" y="-57.742" font-family="Times Roman,serif" font-size="14.00">instantiation</text>
</g>
<!-- n22_1741378925&#45;&gt;n1_40498704 -->
<g id="edge56" class="edge"><title>n22_1741378925&#45;&gt;n1_40498704</title>
<path fill="none" stroke="red" d="M799.7,-53.1828C752.74,-90.3315 645.048,-175.523 591.816,-217.633"/>
<polygon fill="red" stroke="red" points="589.43,-215.059 583.758,-224.008 593.773,-220.548 589.43,-215.059"/>
<text text-anchor="middle" x="698.634" y="-144.071" font-family="Times Roman,serif" font-size="14.00">2</text>
</g>
<!-- n22_2871787445&#45;&gt;n32_17546584348293785403 -->
<g id="edge58" class="edge"><title>n22_2871787445&#45;&gt;n32_17546584348293785403</title>
<path fill="none" stroke="black" d="M712.728,-173.715C778.732,-152.793 915.264,-109.516 992.111,-85.1571"/>
<polygon fill="black" stroke="black" points="993.614,-88.3523 1002.09,-81.9942 991.499,-81.6795 993.614,-88.3523"/>
<text text-anchor="middle" x="861.503" y="-138.225" font-family="Times Roman,serif" font-size="14.00">instantiation</text>
</g>
<!-- n22_2871787445&#45;&gt;n1_40498728 -->
<g id="edge60" class="edge"><title>n22_2871787445&#45;&gt;n1_40498728</title>
<path fill="none" stroke="red" d="M608.199,-186.942C567.456,-187.702 516.851,-188.645 482.953,-189.277"/>
<polygon fill="red" stroke="red" points="482.501,-185.785 472.568,-189.47 482.631,-192.783 482.501,-185.785"/>
<text text-anchor="middle" x="540.437" y="-174.605" font-family="Times Roman,serif" font-size="14.00">2</text>
</g>
<!-- n22_2695967745 -->
<g id="node19" class="node"><title>n22_2695967745</title>
<polygon fill="none" stroke="black" points="441.721,-364.754 409.721,-338.754 441.721,-312.754 473.721,-338.754 441.721,-364.754"/>
<text text-anchor="middle" x="441.721" y="-335.154" font-family="Times Roman,serif" font-size="14.00">if_</text>
</g>
<!-- n22_2695967745&#45;&gt;n22_1213819723 -->
<g id="edge70" class="edge"><title>n22_2695967745&#45;&gt;n22_1213819723</title>
<path fill="none" stroke="blue" d="M434.203,-318.55C414.631,-265.951 362,-124.504 338.613,-61.6527"/>
<polygon fill="blue" stroke="blue" points="341.757,-60.0671 334.99,-51.9155 335.197,-62.5083 341.757,-60.0671"/>
</g>
<!-- n22_2695967745&#45;&gt;n32_9929354688704599018 -->
<g id="edge62" class="edge"><title>n22_2695967745&#45;&gt;n32_9929354688704599018</title>
<path fill="none" stroke="black" d="M424.757,-351.591C369.638,-393.299 194.972,-525.469 122.255,-580.494"/>
<polygon fill="black" stroke="black" points="119.77,-577.985 113.907,-586.811 123.994,-583.567 119.77,-577.985"/>
<text text-anchor="middle" x="258.253" y="-450.66" font-family="Times Roman,serif" font-size="14.00">instantiation</text>
</g>
<!-- n22_2695967745&#45;&gt;n1_40498728 -->
<g id="edge66" class="edge"><title>n22_2695967745&#45;&gt;n1_40498728</title>
<path fill="none" stroke="red" d="M442.337,-313.179C442.973,-286.775 443.962,-245.681 444.622,-218.307"/>
<polygon fill="red" stroke="red" points="448.123,-218.28 444.865,-208.198 441.125,-218.111 448.123,-218.28"/>
<text text-anchor="middle" x="437.605" y="-256.93" font-family="Times Roman,serif" font-size="14.00">3</text>
</g>
<!-- n22_2695967745&#45;&gt;n1_40498704 -->
<g id="edge68" class="edge"><title>n22_2695967745&#45;&gt;n1_40498704</title>
<path fill="none" stroke="red" d="M457.789,-325.721C476.427,-310.605 507.554,-285.358 530.736,-266.555"/>
<polygon fill="red" stroke="red" points="533.009,-269.218 538.571,-260.2 528.6,-263.781 533.009,-269.218"/>
<text text-anchor="middle" x="505.073" y="-297.447" font-family="Times Roman,serif" font-size="14.00">4</text>
</g>
<!-- n22_2695967745&#45;&gt;n22_30076986 -->
<g id="edge64" class="edge"><title>n22_2695967745&#45;&gt;n22_30076986</title>
<path fill="none" stroke="red" d="M461.701,-348.693C505.509,-370.484 610.678,-422.798 668.251,-451.436"/>
<polygon fill="red" stroke="red" points="666.893,-454.669 677.405,-455.989 670.01,-448.402 666.893,-454.669"/>
<text text-anchor="middle" x="574.43" y="-388.68" font-family="Times Roman,serif" font-size="14.00">2</text>
</g>
<!-- n22_1378728391 -->
<g id="node20" class="node"><title>n22_1378728391</title>
<polygon fill="none" stroke="black" points="287.958,-456.092 255.958,-430.092 287.958,-404.092 319.958,-430.092 287.958,-456.092"/>
<text text-anchor="middle" x="287.958" y="-426.492" font-family="Times Roman,serif" font-size="14.00">if_</text>
</g>
<!-- n22_1378728391&#45;&gt;n22_3039830998 -->
<g id="edge80" class="edge"><title>n22_1378728391&#45;&gt;n22_3039830998</title>
<path fill="none" stroke="blue" d="M267.753,-420.365C232.419,-403.354 159.152,-368.08 116.896,-347.736"/>
<polygon fill="blue" stroke="blue" points="118.399,-344.575 107.871,-343.391 115.363,-350.882 118.399,-344.575"/>
</g>
<!-- n22_1378728391&#45;&gt;n32_9929354688704599018 -->
<g id="edge72" class="edge"><title>n22_1378728391&#45;&gt;n32_9929354688704599018</title>
<path fill="none" stroke="black" d="M272.424,-443.809C239.201,-473.148 160.822,-542.361 118.422,-579.803"/>
<polygon fill="black" stroke="black" points="115.873,-577.384 110.694,-586.627 120.507,-582.631 115.873,-577.384"/>
<text text-anchor="middle" x="179.357" y="-497.797" font-family="Times Roman,serif" font-size="14.00">instantiation</text>
</g>
<!-- n22_1378728391&#45;&gt;n1_40498728 -->
<g id="edge76" class="edge"><title>n22_1378728391&#45;&gt;n1_40498728</title>
<path fill="none" stroke="red" d="M299.274,-412.824C326.405,-371.421 395.315,-266.263 427.823,-216.655"/>
<polygon fill="red" stroke="red" points="430.897,-218.349 433.451,-208.066 425.043,-214.512 430.897,-218.349"/>
<text text-anchor="middle" x="374.455" y="-311.703" font-family="Times Roman,serif" font-size="14.00">3</text>
</g>
<!-- n22_1378728391&#45;&gt;n1_40498704 -->
<g id="edge78" class="edge"><title>n22_1378728391&#45;&gt;n1_40498704</title>
<path fill="none" stroke="red" d="M305.445,-418.048C349.848,-387.463 467.592,-306.363 526.414,-265.847"/>
<polygon fill="red" stroke="red" points="528.4,-268.729 534.65,-260.174 524.429,-262.964 528.4,-268.729"/>
<text text-anchor="middle" x="425.972" y="-344.562" font-family="Times Roman,serif" font-size="14.00">4</text>
</g>
<!-- n22_1378728391&#45;&gt;n22_2956297009 -->
<g id="edge74" class="edge"><title>n22_1378728391&#45;&gt;n22_2956297009</title>
<path fill="none" stroke="red" d="M312.82,-436.166C359.066,-447.465 459.225,-471.934 521.12,-487.055"/>
<polygon fill="red" stroke="red" points="520.541,-490.517 531.086,-489.49 522.202,-483.717 520.541,-490.517"/>
<text text-anchor="middle" x="423.988" y="-449.237" font-family="Times Roman,serif" font-size="14.00">2</text>
</g>
<!-- n22_2604720182 -->
<g id="node22" class="node"><title>n22_2604720182</title>
<polygon fill="none" stroke="black" points="438.767,-506.835 385.767,-480.835 438.767,-454.835 491.767,-480.835 438.767,-506.835"/>
<text text-anchor="middle" x="438.767" y="-477.235" font-family="Times Roman,serif" font-size="14.00">bool_</text>
</g>
<!-- n22_2604720182&#45;&gt;n32_12883939255363387905 -->
<g id="edge82" class="edge"><title>n22_2604720182&#45;&gt;n32_12883939255363387905</title>
<path fill="none" stroke="black" d="M424.087,-499.981C401.71,-529.163 358.99,-584.876 333.524,-618.088"/>
<polygon fill="black" stroke="black" points="330.444,-616.352 327.137,-626.417 335.999,-620.611 330.444,-616.352"/>
<text text-anchor="middle" x="391.663" y="-571.532" font-family="Times Roman,serif" font-size="14.00">instantiation</text>
</g>
<!-- n22_2604720182&#45;&gt;n8_1773484321 -->
<g id="edge84" class="edge"><title>n22_2604720182&#45;&gt;n8_1773484321</title>
<path fill="none" stroke="red" d="M426.557,-460.606C402.116,-420.118 346.931,-328.696 316.563,-278.389"/>
<polygon fill="red" stroke="red" points="319.538,-276.544 311.374,-269.792 313.545,-280.162 319.538,-276.544"/>
<text text-anchor="middle" x="360.933" y="-366.546" font-family="Times Roman,serif" font-size="14.00">2</text>
</g>
<!-- n22_3175660132 -->
<g id="node23" class="node"><title>n22_3175660132</title>
<polygon fill="none" stroke="black" points="488.805,-683.96 435.805,-657.96 488.805,-631.96 541.805,-657.96 488.805,-683.96"/>
<text text-anchor="middle" x="488.805" y="-654.36" font-family="Times Roman,serif" font-size="14.00">bool_</text>
</g>
<!-- n22_3175660132&#45;&gt;n8_1030972443 -->
<g id="edge88" class="edge"><title>n22_3175660132&#45;&gt;n8_1030972443</title>
<path fill="none" stroke="red" d="M495.892,-635.163C510.964,-586.685 546.347,-472.875 565.092,-412.584"/>
<polygon fill="red" stroke="red" points="568.544,-413.269 568.17,-402.681 561.859,-411.191 568.544,-413.269"/>
<text text-anchor="middle" x="540.031" y="-517.322" font-family="Times Roman,serif" font-size="14.00">2</text>
</g>
<!-- n22_3175660132&#45;&gt;n32_12883939255363387905 -->
<g id="edge86" class="edge"><title>n22_3175660132&#45;&gt;n32_12883939255363387905</title>
<path fill="none" stroke="black" d="M442.597,-654.538C429.615,-653.577 415.053,-652.499 400.505,-651.422"/>
<polygon fill="black" stroke="black" points="400.686,-647.926 390.454,-650.677 400.169,-654.906 400.686,-647.926"/>
<text text-anchor="middle" x="416.457" y="-638.003" font-family="Times Roman,serif" font-size="14.00">instantiation</text>
</g>
<!-- n22_30076986&#45;&gt;n1_40498944 -->
<g id="edge94" class="edge"><title>n22_30076986&#45;&gt;n1_40498944</title>
<path fill="none" stroke="red" d="M741.616,-484.57C804.939,-509.823 940.532,-563.896 1008.76,-591.104"/>
<polygon fill="red" stroke="red" points="1007.73,-594.463 1018.32,-594.916 1010.33,-587.961 1007.73,-594.463"/>
<text text-anchor="middle" x="883.84" y="-526.092" font-family="Times Roman,serif" font-size="14.00">3</text>
</g>
<!-- n22_30076986&#45;&gt;n1_40498920 -->
<g id="edge92" class="edge"><title>n22_30076986&#45;&gt;n1_40498920</title>
<path fill="none" stroke="red" d="M721.828,-492.136C743.007,-523.515 782.738,-582.382 805.91,-616.716"/>
<polygon fill="red" stroke="red" points="803.205,-618.965 811.701,-625.296 809.008,-615.049 803.205,-618.965"/>
<text text-anchor="middle" x="774.751" y="-550.096" font-family="Times Roman,serif" font-size="14.00">2</text>
</g>
<!-- n22_30076986&#45;&gt;n22_2604720182 -->
<g id="edge96" class="edge"><title>n22_30076986&#45;&gt;n22_2604720182</title>
<path fill="none" stroke="blue" d="M642.831,-473.358C598.825,-474.97 541.044,-477.087 498.203,-478.657"/>
<polygon fill="blue" stroke="blue" points="498.068,-475.16 488.203,-479.024 498.324,-482.155 498.068,-475.16"/>
</g>
<!-- n32_5226358432096855147 -->
<g id="node27" class="node"><title>n32_5226358432096855147</title>
<polygon fill="none" stroke="black" points="660.103,-637.221 665.547,-637.322 670.935,-637.473 676.244,-637.673 681.454,-637.922 686.543,-638.22 691.491,-638.565 696.279,-638.957 700.889,-639.394 705.303,-639.876 709.506,-640.4 713.484,-640.966 717.222,-641.572 720.709,-642.217 723.935,-642.898 726.891,-643.614 729.57,-644.362 731.965,-645.142 734.072,-645.949 735.89,-646.783 737.416,-647.642 738.652,-648.522 739.598,-649.421 740.258,-650.337 740.636,-651.267 740.737,-652.209 740.57,-653.161 740.14,-654.118 739.457,-655.08 738.53,-656.043 737.369,-657.005 735.985,-657.963 734.39,-658.915 732.595,-659.857 730.611,-660.787 728.451,-661.703 726.127,-662.602 723.652,-663.482 721.035,-664.34 718.291,-665.175 715.429,-665.982 712.461,-666.762 709.397,-667.51 706.248,-668.226 703.022,-668.907 699.728,-669.551 696.375,-670.158 692.971,-670.724 689.522,-671.248 686.034,-671.73 682.514,-672.167 678.966,-672.559 675.396,-672.904 671.807,-673.202 668.203,-673.451 664.587,-673.651 660.963,-673.802 657.332,-673.903 653.698,-673.953 650.063,-673.953 646.429,-673.903 642.798,-673.802 639.174,-673.651 635.558,-673.451 631.954,-673.202 628.365,-672.904 624.795,-672.559 621.247,-672.167 617.727,-671.73 614.24,-671.248 610.791,-670.724 607.386,-670.158 604.033,-669.551 600.74,-668.907 597.514,-668.226 594.364,-667.51 591.3,-666.762 588.332,-665.982 585.47,-665.175 582.726,-664.34 580.11,-663.482 577.634,-662.602 575.31,-661.703 573.15,-660.787 571.167,-659.857 569.371,-658.915 567.776,-657.963 566.392,-657.005 565.232,-656.043 564.305,-655.08 563.622,-654.118 563.192,-653.161 563.024,-652.209 563.126,-651.267 563.504,-650.337 564.163,-649.421 565.109,-648.522 566.345,-647.642 567.871,-646.783 569.689,-645.949 571.797,-645.142 574.192,-644.362 576.87,-643.614 579.826,-642.898 583.052,-642.217 586.539,-641.572 590.277,-640.966 594.255,-640.4 598.458,-639.876 602.873,-639.394 607.482,-638.957 612.271,-638.565 617.219,-638.22 622.308,-637.922 627.517,-637.673 632.826,-637.473 638.214,-637.322 643.658,-637.221 649.136,-637.171 654.625,-637.171 660.103,-637.221"/>
<text text-anchor="middle" x="651.881" y="-651.962" font-family="Times Roman,serif" font-size="14.00">original.cxx:50</text>
</g>
<!-- n22_30076986&#45;&gt;n32_5226358432096855147 -->
<g id="edge90" class="edge"><title>n22_30076986&#45;&gt;n32_5226358432096855147</title>
<path fill="none" stroke="black" d="M700.39,-494.738C690.152,-528.679 671.369,-590.952 660.422,-627.245"/>
<polygon fill="black" stroke="black" points="656.962,-626.596 657.425,-637.181 663.664,-628.617 656.962,-626.596"/>
<text text-anchor="middle" x="697.95" y="-567.218" font-family="Times Roman,serif" font-size="14.00">instantiation</text>
</g>
<!-- n22_2956297009&#45;&gt;n1_40498920 -->
<g id="edge100" class="edge"><title>n22_2956297009&#45;&gt;n1_40498920</title>
<path fill="none" stroke="red" d="M596.543,-517.883C640.105,-546.504 735.342,-601.355 787.718,-628.2"/>
<polygon fill="red" stroke="red" points="786.164,-631.336 796.668,-632.721 789.32,-625.088 786.164,-631.336"/>
<text text-anchor="middle" x="690.127" y="-583.733" font-family="Times Roman,serif" font-size="14.00">2</text>
</g>
<!-- n22_2956297009&#45;&gt;n1_40498920 -->
<g id="edge102" class="edge"><title>n22_2956297009&#45;&gt;n1_40498920</title>
<path fill="none" stroke="red" d="M607.243,-513.776C655.751,-538.432 744.836,-589.48 792.299,-619.76"/>
<polygon fill="red" stroke="red" points="790.637,-622.854 800.936,-625.344 794.438,-616.975 790.637,-622.854"/>
<text text-anchor="middle" x="710.381" y="-554.054" font-family="Times Roman,serif" font-size="14.00">3</text>
</g>
<!-- n22_2956297009&#45;&gt;n22_3175660132 -->
<g id="edge104" class="edge"><title>n22_2956297009&#45;&gt;n22_3175660132</title>
<path fill="none" stroke="blue" d="M561.937,-521.888C547.064,-549.56 521.452,-597.216 504.825,-628.152"/>
<polygon fill="blue" stroke="blue" points="501.626,-626.71 499.975,-637.176 507.792,-630.024 501.626,-626.71"/>
</g>
<!-- n22_2956297009&#45;&gt;n32_5226358432096855147 -->
<g id="edge98" class="edge"><title>n22_2956297009&#45;&gt;n32_5226358432096855147</title>
<path fill="none" stroke="black" d="M584.777,-521.883C598.745,-549.71 622.821,-597.671 638.018,-627.945"/>
<polygon fill="black" stroke="black" points="635.001,-629.738 642.616,-637.105 641.257,-626.598 635.001,-629.738"/>
<text text-anchor="middle" x="595.657" y="-584.815" font-family="Times Roman,serif" font-size="14.00">instantiation</text>
</g>
</g>
</svg>
