<?xml version="1.0" encoding="UTF-8" standalone="no"?>
<!DOCTYPE svg PUBLIC "-//W3C//DTD SVG 1.1//EN"
 "http://www.w3.org/Graphics/SVG/1.1/DTD/svg11.dtd">
<!-- Generated by graphviz version 2.26.3 (20100126.1600)
 -->
<!-- Title: _anonymous_0 Pages: 1 -->
<svg width="2290pt" height="342pt"
 viewBox="0.00 0.00 2290.00 342.00" xmlns="http://www.w3.org/2000/svg" xmlns:xlink="http://www.w3.org/1999/xlink">
<g id="graph1" class="graph" transform="scale(1 1) rotate(0) translate(4 338)">
<title>_anonymous_0</title>
<polygon fill="white" stroke="white" points="-4,5 -4,-338 2287,-338 2287,5 -4,5"/>
<!-- n133640000 -->
<g id="node1" class="node"><title>n133640000</title>
<ellipse fill="none" stroke="black" cx="253" cy="-167" rx="31.8198" ry="18.3848"/>
<text text-anchor="middle" x="253" y="-163.4" font-family="Times Roman,serif" font-size="14.00">void</text>
</g>
<!-- n133640024 -->
<g id="node2" class="node"><title>n133640024</title>
<ellipse fill="none" stroke="black" cx="748" cy="-241" rx="38.1838" ry="18.3848"/>
<text text-anchor="middle" x="748" y="-237.4" font-family="Times Roman,serif" font-size="14.00">_Bool</text>
</g>
<!-- n133640312 -->
<g id="node3" class="node"><title>n133640312</title>
<ellipse fill="none" stroke="black" cx="167" cy="-167" rx="33.234" ry="18.3848"/>
<text text-anchor="middle" x="167" y="-163.4" font-family="Times Roman,serif" font-size="14.00">float</text>
</g>
<!-- n135272360 -->
<g id="node4" class="node"><title>n135272360</title>
<ellipse fill="none" stroke="black" cx="607" cy="-241" rx="84.8528" ry="18.3848"/>
<text text-anchor="middle" x="607" y="-237.4" font-family="Times Roman,serif" font-size="14.00">struct mpl_::na</text>
</g>
<!-- n138717064 -->
<g id="node5" class="node"><title>n138717064</title>
<ellipse fill="none" stroke="black" cx="58" cy="-167" rx="58.1882" ry="18.3848"/>
<text text-anchor="middle" x="58" y="-163.4" font-family="Times Roman,serif" font-size="14.00">struct foo</text>
</g>
<!-- n138717472 -->
<g id="node6" class="node"><title>n138717472</title>
<ellipse fill="none" stroke="black" cx="562" cy="-167" rx="46.8775" ry="18.3848"/>
<text text-anchor="middle" x="562" y="-163.4" font-family="Times Roman,serif" font-size="14.00">float **</text>
</g>
<!-- n622843263 -->
<g id="node7" class="node"><title>n622843263</title>
<ellipse fill="none" stroke="black" cx="465" cy="-241" rx="36.977" ry="18.3848"/>
<text text-anchor="middle" x="465" y="-237.4" font-family="Times Roman,serif" font-size="14.00">bool_</text>
</g>
<!-- n81030972443 -->
<g id="node33" class="node"><title>n81030972443</title>
<ellipse fill="none" stroke="black" cx="433" cy="-315" rx="29.9071" ry="18.3848"/>
<text text-anchor="middle" x="433" y="-311.4" font-family="Times Roman,serif" font-size="14.00">0x1</text>
</g>
<!-- n622843263&#45;&gt;n81030972443 -->
<g id="edge2" class="edge"><title>n622843263&#45;&gt;n81030972443</title>
<path fill="none" stroke="black" d="M457.09,-259.292C453.409,-267.805 448.952,-278.112 444.878,-287.533"/>
<polygon fill="black" stroke="black" points="441.576,-286.35 440.819,-296.918 448.001,-289.129 441.576,-286.35"/>
</g>
<!-- n629538063 -->
<g id="node8" class="node"><title>n629538063</title>
<ellipse fill="none" stroke="black" cx="970" cy="-19" rx="29.9071" ry="18.3848"/>
<text text-anchor="middle" x="970" y="-15.4" font-family="Times Roman,serif" font-size="14.00">int_</text>
</g>
<!-- n84069829297 -->
<g id="node43" class="node"><title>n84069829297</title>
<ellipse fill="none" stroke="black" cx="970" cy="-93" rx="29.9071" ry="18.3848"/>
<text text-anchor="middle" x="970" y="-89.4" font-family="Times Roman,serif" font-size="14.00">0x2</text>
</g>
<!-- n629538063&#45;&gt;n84069829297 -->
<g id="edge4" class="edge"><title>n629538063&#45;&gt;n84069829297</title>
<path fill="none" stroke="black" d="M970,-37.6733C970,-45.7361 970,-55.3523 970,-64.2885"/>
<polygon fill="black" stroke="black" points="966.5,-64.3326 970,-74.3326 973.5,-64.3327 966.5,-64.3326"/>
</g>
<!-- n655538352 -->
<g id="node9" class="node"><title>n655538352</title>
<ellipse fill="none" stroke="black" cx="1096" cy="-19" rx="77.9889" ry="18.3848"/>
<text text-anchor="middle" x="1096" y="-15.4" font-family="Times Roman,serif" font-size="14.00">weighted_tag</text>
</g>
<!-- n82966151721 -->
<g id="node41" class="node"><title>n82966151721</title>
<ellipse fill="none" stroke="black" cx="1096" cy="-93" rx="29.9071" ry="18.3848"/>
<text text-anchor="middle" x="1096" y="-89.4" font-family="Times Roman,serif" font-size="14.00">0x5</text>
</g>
<!-- n655538352&#45;&gt;n82966151721 -->
<g id="edge6" class="edge"><title>n655538352&#45;&gt;n82966151721</title>
<path fill="none" stroke="black" d="M1096,-37.6733C1096,-45.7361 1096,-55.3523 1096,-64.2885"/>
<polygon fill="black" stroke="black" points="1092.5,-64.3326 1096,-74.3326 1099.5,-64.3327 1092.5,-64.3326"/>
</g>
<!-- n6116947944 -->
<g id="node10" class="node"><title>n6116947944</title>
<ellipse fill="none" stroke="black" cx="816" cy="-167" rx="96.8736" ry="18.3848"/>
<text text-anchor="middle" x="816" y="-163.4" font-family="Times Roman,serif" font-size="14.00">integral_constant</text>
</g>
<!-- n6116947944&#45;&gt;n133640024 -->
<g id="edge8" class="edge"><title>n6116947944&#45;&gt;n133640024</title>
<path fill="none" stroke="black" d="M799.191,-185.292C790.541,-194.705 779.876,-206.311 770.524,-216.488"/>
<polygon fill="black" stroke="black" points="767.872,-214.201 763.683,-223.933 773.027,-218.938 767.872,-214.201"/>
</g>
<!-- n62976192893 -->
<g id="node24" class="node"><title>n62976192893</title>
<ellipse fill="none" stroke="black" cx="879" cy="-241" rx="36.977" ry="18.3848"/>
<text text-anchor="middle" x="879" y="-237.4" font-family="Times Roman,serif" font-size="14.00">bool_</text>
</g>
<!-- n6116947944&#45;&gt;n62976192893 -->
<g id="edge12" class="edge"><title>n6116947944&#45;&gt;n62976192893</title>
<path fill="none" stroke="black" d="M831.573,-185.292C839.508,-194.613 849.274,-206.084 857.877,-216.189"/>
<polygon fill="black" stroke="black" points="855.322,-218.587 864.47,-223.933 860.652,-214.05 855.322,-218.587"/>
</g>
<!-- n81773484321 -->
<g id="node36" class="node"><title>n81773484321</title>
<ellipse fill="none" stroke="black" cx="846" cy="-315" rx="29.9071" ry="18.3848"/>
<text text-anchor="middle" x="846" y="-311.4" font-family="Times Roman,serif" font-size="14.00">0x0</text>
</g>
<!-- n6116947944&#45;&gt;n81773484321 -->
<g id="edge10" class="edge"><title>n6116947944&#45;&gt;n81773484321</title>
<path fill="none" stroke="black" d="M819.108,-185.582C822.322,-204.394 827.617,-234.296 833,-260 834.816,-268.671 836.968,-278.067 838.993,-286.598"/>
<polygon fill="black" stroke="black" points="835.626,-287.565 841.37,-296.468 842.432,-285.927 835.626,-287.565"/>
</g>
<!-- n6432534630 -->
<g id="node11" class="node"><title>n6432534630</title>
<ellipse fill="none" stroke="black" cx="664" cy="-167" rx="36.7696" ry="18.3848"/>
<text text-anchor="middle" x="664" y="-163.4" font-family="Times Roman,serif" font-size="14.00">is_na</text>
</g>
<!-- n6432534630&#45;&gt;n135272360 -->
<g id="edge14" class="edge"><title>n6432534630&#45;&gt;n135272360</title>
<path fill="none" stroke="black" d="M650.492,-184.537C643.599,-193.486 635.07,-204.558 627.397,-214.52"/>
<polygon fill="black" stroke="black" points="624.536,-212.498 621.207,-222.556 630.082,-216.77 624.536,-212.498"/>
</g>
<!-- n6432534630&#45;&gt;n622843263 -->
<g id="edge16" class="edge"><title>n6432534630&#45;&gt;n622843263</title>
<path fill="none" stroke="black" d="M635.398,-179.132C629.662,-181.475 623.659,-183.864 618,-186 571.846,-203.425 559.281,-204.917 513,-222 509.889,-223.148 506.675,-224.362 503.452,-225.597"/>
<polygon fill="black" stroke="black" points="501.906,-222.443 493.852,-229.327 504.441,-228.968 501.906,-222.443"/>
</g>
<!-- n6453227487 -->
<g id="node12" class="node"><title>n6453227487</title>
<ellipse fill="none" stroke="black" cx="69" cy="-93" rx="31.1127" ry="18.3848"/>
<text text-anchor="middle" x="69" y="-89.4" font-family="Times Roman,serif" font-size="14.00">test</text>
</g>
<!-- n6453227487&#45;&gt;n133640000 -->
<g id="edge20" class="edge"><title>n6453227487&#45;&gt;n133640000</title>
<path fill="none" stroke="black" d="M95.1646,-102.98C123.368,-113.807 169.526,-131.729 209,-148 212,-149.237 215.107,-150.538 218.219,-151.854"/>
<polygon fill="black" stroke="black" points="216.897,-155.095 227.468,-155.804 219.646,-148.658 216.897,-155.095"/>
</g>
<!-- n6453227487&#45;&gt;n138717064 -->
<g id="edge18" class="edge"><title>n6453227487&#45;&gt;n138717064</title>
<path fill="none" stroke="black" d="M66.2242,-111.673C65.0257,-119.736 63.5963,-129.352 62.2679,-138.289"/>
<polygon fill="black" stroke="black" points="58.7833,-137.927 60.7749,-148.333 65.7073,-138.956 58.7833,-137.927"/>
</g>
<!-- n6596730468 -->
<g id="node13" class="node"><title>n6596730468</title>
<ellipse fill="none" stroke="black" cx="1270" cy="-19" rx="77.9889" ry="18.3848"/>
<text text-anchor="middle" x="1270" y="-15.4" font-family="Times Roman,serif" font-size="14.00">weighted_tag</text>
</g>
<!-- n82221953453 -->
<g id="node37" class="node"><title>n82221953453</title>
<ellipse fill="none" stroke="black" cx="1270" cy="-93" rx="29.9071" ry="18.3848"/>
<text text-anchor="middle" x="1270" y="-89.4" font-family="Times Roman,serif" font-size="14.00">0x6</text>
</g>
<!-- n6596730468&#45;&gt;n82221953453 -->
<g id="edge22" class="edge"><title>n6596730468&#45;&gt;n82221953453</title>
<path fill="none" stroke="black" d="M1270,-37.6733C1270,-45.7361 1270,-55.3523 1270,-64.2885"/>
<polygon fill="black" stroke="black" points="1266.5,-64.3326 1270,-74.3326 1273.5,-64.3327 1266.5,-64.3326"/>
</g>
<!-- n6900858745 -->
<g id="node14" class="node"><title>n6900858745</title>
<ellipse fill="none" stroke="black" cx="839" cy="-93" rx="82.939" ry="18.3848"/>
<text text-anchor="middle" x="839" y="-89.4" font-family="Times Roman,serif" font-size="14.00">template_arity</text>
</g>
<!-- n6900858745&#45;&gt;n6432534630 -->
<g id="edge24" class="edge"><title>n6900858745&#45;&gt;n6432534630</title>
<path fill="none" stroke="black" d="M800.162,-109.423C770.85,-121.818 730.855,-138.73 701.8,-151.016"/>
<polygon fill="black" stroke="black" points="700.244,-147.874 692.397,-154.992 702.97,-154.321 700.244,-147.874"/>
</g>
<!-- n61563345135 -->
<g id="node18" class="node"><title>n61563345135</title>
<ellipse fill="none" stroke="black" cx="966" cy="-167" rx="29.9071" ry="18.3848"/>
<text text-anchor="middle" x="966" y="-163.4" font-family="Times Roman,serif" font-size="14.00">int_</text>
</g>
<!-- n6900858745&#45;&gt;n61563345135 -->
<g id="edge26" class="edge"><title>n6900858745&#45;&gt;n61563345135</title>
<path fill="none" stroke="black" d="M868.776,-110.35C888.739,-121.982 914.968,-137.265 935.151,-149.025"/>
<polygon fill="black" stroke="black" points="933.552,-152.144 943.954,-154.154 937.076,-146.096 933.552,-152.144"/>
</g>
<!-- n6946786497 -->
<g id="node15" class="node"><title>n6946786497</title>
<ellipse fill="none" stroke="black" cx="412" cy="-93" rx="82.0244" ry="18.3848"/>
<text text-anchor="middle" x="412" y="-89.4" font-family="Times Roman,serif" font-size="14.00">enable_if_type</text>
</g>
<!-- n6946786497&#45;&gt;n133640000 -->
<g id="edge30" class="edge"><title>n6946786497&#45;&gt;n133640000</title>
<path fill="none" stroke="black" d="M375.92,-109.792C349.318,-122.173 313.358,-138.909 287.209,-151.079"/>
<polygon fill="black" stroke="black" points="285.644,-147.947 278.054,-155.34 288.597,-154.293 285.644,-147.947"/>
</g>
<!-- n6946786497&#45;&gt;n138717472 -->
<g id="edge28" class="edge"><title>n6946786497&#45;&gt;n138717472</title>
<path fill="none" stroke="black" d="M446.413,-109.977C469.321,-121.278 499.457,-136.145 523.214,-147.866"/>
<polygon fill="black" stroke="black" points="521.789,-151.065 532.306,-152.351 524.886,-144.788 521.789,-151.065"/>
</g>
<!-- n61010260815 -->
<g id="node16" class="node"><title>n61010260815</title>
<ellipse fill="none" stroke="black" cx="1396" cy="-19" rx="29.9071" ry="18.3848"/>
<text text-anchor="middle" x="1396" y="-15.4" font-family="Times Roman,serif" font-size="14.00">int_</text>
</g>
<!-- n82270295475 -->
<g id="node38" class="node"><title>n82270295475</title>
<ellipse fill="none" stroke="black" cx="1396" cy="-93" rx="29.9071" ry="18.3848"/>
<text text-anchor="middle" x="1396" y="-89.4" font-family="Times Roman,serif" font-size="14.00">0x1</text>
</g>
<!-- n61010260815&#45;&gt;n82270295475 -->
<g id="edge32" class="edge"><title>n61010260815&#45;&gt;n82270295475</title>
<path fill="none" stroke="black" d="M1396,-37.6733C1396,-45.7361 1396,-55.3523 1396,-64.2885"/>
<polygon fill="black" stroke="black" points="1392.5,-64.3326 1396,-74.3326 1399.5,-64.3327 1392.5,-64.3326"/>
</g>
<!-- n61201462551 -->
<g id="node17" class="node"><title>n61201462551</title>
<ellipse fill="none" stroke="black" cx="1522" cy="-19" rx="77.9889" ry="18.3848"/>
<text text-anchor="middle" x="1522" y="-15.4" font-family="Times Roman,serif" font-size="14.00">weighted_tag</text>
</g>
<!-- n83885814627 -->
<g id="node42" class="node"><title>n83885814627</title>
<ellipse fill="none" stroke="black" cx="1522" cy="-93" rx="29.9071" ry="18.3848"/>
<text text-anchor="middle" x="1522" y="-89.4" font-family="Times Roman,serif" font-size="14.00">0x2</text>
</g>
<!-- n61201462551&#45;&gt;n83885814627 -->
<g id="edge34" class="edge"><title>n61201462551&#45;&gt;n83885814627</title>
<path fill="none" stroke="black" d="M1522,-37.6733C1522,-45.7361 1522,-55.3523 1522,-64.2885"/>
<polygon fill="black" stroke="black" points="1518.5,-64.3326 1522,-74.3326 1525.5,-64.3327 1518.5,-64.3326"/>
</g>
<!-- n82628043642 -->
<g id="node39" class="node"><title>n82628043642</title>
<ellipse fill="none" stroke="black" cx="968" cy="-241" rx="33.9411" ry="18.3848"/>
<text text-anchor="middle" x="968" y="-237.4" font-family="Times Roman,serif" font-size="14.00">0x&#45;1</text>
</g>
<!-- n61563345135&#45;&gt;n82628043642 -->
<g id="edge36" class="edge"><title>n61563345135&#45;&gt;n82628043642</title>
<path fill="none" stroke="black" d="M966.505,-185.673C966.723,-193.736 966.982,-203.352 967.224,-212.289"/>
<polygon fill="black" stroke="black" points="963.726,-212.431 967.495,-222.333 970.724,-212.242 963.726,-212.431"/>
</g>
<!-- n62113698805 -->
<g id="node19" class="node"><title>n62113698805</title>
<ellipse fill="none" stroke="black" cx="1696" cy="-19" rx="77.9889" ry="18.3848"/>
<text text-anchor="middle" x="1696" y="-15.4" font-family="Times Roman,serif" font-size="14.00">weighted_tag</text>
</g>
<!-- n82889331972 -->
<g id="node40" class="node"><title>n82889331972</title>
<ellipse fill="none" stroke="black" cx="1696" cy="-93" rx="29.9071" ry="18.3848"/>
<text text-anchor="middle" x="1696" y="-89.4" font-family="Times Roman,serif" font-size="14.00">0x4</text>
</g>
<!-- n62113698805&#45;&gt;n82889331972 -->
<g id="edge38" class="edge"><title>n62113698805&#45;&gt;n82889331972</title>
<path fill="none" stroke="black" d="M1696,-37.6733C1696,-45.7361 1696,-55.3523 1696,-64.2885"/>
<polygon fill="black" stroke="black" points="1692.5,-64.3326 1696,-74.3326 1699.5,-64.3327 1692.5,-64.3326"/>
</g>
<!-- n62277826388 -->
<g id="node20" class="node"><title>n62277826388</title>
<ellipse fill="none" stroke="black" cx="262" cy="-19" rx="89.8026" ry="18.3848"/>
<text text-anchor="middle" x="262" y="-15.4" font-family="Times Roman,serif" font-size="14.00">assert_arg_pred</text>
</g>
<!-- n62374526640 -->
<g id="node21" class="node"><title>n62374526640</title>
<ellipse fill="none" stroke="black" cx="262" cy="-93" rx="50.2046" ry="18.3848"/>
<text text-anchor="middle" x="262" y="-89.4" font-family="Times Roman,serif" font-size="14.00">is_same</text>
</g>
<!-- n62277826388&#45;&gt;n62374526640 -->
<g id="edge40" class="edge"><title>n62277826388&#45;&gt;n62374526640</title>
<path fill="none" stroke="black" d="M262,-37.6733C262,-45.7361 262,-55.3523 262,-64.2885"/>
<polygon fill="black" stroke="black" points="258.5,-64.3326 262,-74.3326 265.5,-64.3327 258.5,-64.3326"/>
</g>
<!-- n62374526640&#45;&gt;n133640000 -->
<g id="edge42" class="edge"><title>n62374526640&#45;&gt;n133640000</title>
<path fill="none" stroke="black" d="M253.86,-111.292C252.079,-119.413 250.665,-129.166 249.9,-138.226"/>
<polygon fill="black" stroke="black" points="246.395,-138.22 249.317,-148.404 253.383,-138.621 246.395,-138.22"/>
</g>
<!-- n62374526640&#45;&gt;n133640000 -->
<g id="edge44" class="edge"><title>n62374526640&#45;&gt;n133640000</title>
<path fill="none" stroke="black" d="M265.681,-111.673C265.46,-119.948 264.46,-129.859 262.976,-138.992"/>
<polygon fill="black" stroke="black" points="259.532,-138.368 261.11,-148.844 266.41,-139.67 259.532,-138.368"/>
</g>
<!-- n63568718279 -->
<g id="node26" class="node"><title>n63568718279</title>
<ellipse fill="none" stroke="black" cx="400" cy="-167" rx="96.8736" ry="18.3848"/>
<text text-anchor="middle" x="400" y="-163.4" font-family="Times Roman,serif" font-size="14.00">integral_constant</text>
</g>
<!-- n62374526640&#45;&gt;n63568718279 -->
<g id="edge46" class="edge"><title>n62374526640&#45;&gt;n63568718279</title>
<path fill="none" stroke="black" d="M290.594,-108.333C310.074,-118.779 336.189,-132.782 358.018,-144.488"/>
<polygon fill="black" stroke="black" points="356.613,-147.706 367.08,-149.347 359.921,-141.537 356.613,-147.706"/>
</g>
<!-- n62915683746 -->
<g id="node22" class="node"><title>n62915683746</title>
<ellipse fill="none" stroke="black" cx="1822" cy="-19" rx="29.9071" ry="18.3848"/>
<text text-anchor="middle" x="1822" y="-15.4" font-family="Times Roman,serif" font-size="14.00">int_</text>
</g>
<!-- n8176765527 -->
<g id="node31" class="node"><title>n8176765527</title>
<ellipse fill="none" stroke="black" cx="1822" cy="-93" rx="29.9071" ry="18.3848"/>
<text text-anchor="middle" x="1822" y="-89.4" font-family="Times Roman,serif" font-size="14.00">0x0</text>
</g>
<!-- n62915683746&#45;&gt;n8176765527 -->
<g id="edge48" class="edge"><title>n62915683746&#45;&gt;n8176765527</title>
<path fill="none" stroke="black" d="M1822,-37.6733C1822,-45.7361 1822,-55.3523 1822,-64.2885"/>
<polygon fill="black" stroke="black" points="1818.5,-64.3326 1822,-74.3326 1825.5,-64.3327 1818.5,-64.3326"/>
</g>
<!-- n62915825519 -->
<g id="node23" class="node"><title>n62915825519</title>
<ellipse fill="none" stroke="black" cx="562" cy="-19" rx="89.8026" ry="18.3848"/>
<text text-anchor="middle" x="562" y="-15.4" font-family="Times Roman,serif" font-size="14.00">assert_arg_pred</text>
</g>
<!-- n63459789520 -->
<g id="node25" class="node"><title>n63459789520</title>
<ellipse fill="none" stroke="black" cx="562" cy="-93" rx="50.2046" ry="18.3848"/>
<text text-anchor="middle" x="562" y="-89.4" font-family="Times Roman,serif" font-size="14.00">is_same</text>
</g>
<!-- n62915825519&#45;&gt;n63459789520 -->
<g id="edge50" class="edge"><title>n62915825519&#45;&gt;n63459789520</title>
<path fill="none" stroke="black" d="M562,-37.6733C562,-45.7361 562,-55.3523 562,-64.2885"/>
<polygon fill="black" stroke="black" points="558.5,-64.3326 562,-74.3326 565.5,-64.3327 558.5,-64.3326"/>
</g>
<!-- n62976192893&#45;&gt;n81773484321 -->
<g id="edge52" class="edge"><title>n62976192893&#45;&gt;n81773484321</title>
<path fill="none" stroke="black" d="M870.843,-259.292C867.046,-267.805 862.45,-278.112 858.249,-287.533"/>
<polygon fill="black" stroke="black" points="854.94,-286.36 854.063,-296.918 861.333,-289.211 854.94,-286.36"/>
</g>
<!-- n63459789520&#45;&gt;n138717472 -->
<g id="edge54" class="edge"><title>n63459789520&#45;&gt;n138717472</title>
<path fill="none" stroke="black" d="M556.048,-111.673C555.277,-119.798 555.065,-129.499 555.411,-138.493"/>
<polygon fill="black" stroke="black" points="551.926,-138.84 556.073,-148.589 558.911,-138.381 551.926,-138.84"/>
</g>
<!-- n63459789520&#45;&gt;n138717472 -->
<g id="edge56" class="edge"><title>n63459789520&#45;&gt;n138717472</title>
<path fill="none" stroke="black" d="M567.952,-111.673C568.723,-119.798 568.935,-129.499 568.589,-138.493"/>
<polygon fill="black" stroke="black" points="565.089,-138.381 567.927,-148.589 572.074,-138.84 565.089,-138.381"/>
</g>
<!-- n63459789520&#45;&gt;n63568718279 -->
<g id="edge58" class="edge"><title>n63459789520&#45;&gt;n63568718279</title>
<path fill="none" stroke="black" d="M530.38,-107.444C506.576,-118.317 473.57,-133.394 446.724,-145.657"/>
<polygon fill="black" stroke="black" points="445.152,-142.527 437.51,-149.866 448.061,-148.894 445.152,-142.527"/>
</g>
<!-- n63568718279&#45;&gt;n133640024 -->
<g id="edge60" class="edge"><title>n63568718279&#45;&gt;n133640024</title>
<path fill="none" stroke="black" d="M470.78,-179.751C557.997,-195.488 695.444,-220.388 701,-222 703.948,-222.855 706.965,-223.83 709.977,-224.877"/>
<polygon fill="black" stroke="black" points="708.901,-228.21 719.494,-228.401 711.332,-221.646 708.901,-228.21"/>
</g>
<!-- n63568718279&#45;&gt;n622843263 -->
<g id="edge64" class="edge"><title>n63568718279&#45;&gt;n622843263</title>
<path fill="none" stroke="black" d="M416.067,-185.292C424.255,-194.613 434.33,-206.084 443.206,-216.189"/>
<polygon fill="black" stroke="black" points="440.78,-218.73 450.009,-223.933 446.039,-214.11 440.78,-218.73"/>
</g>
<!-- n63568718279&#45;&gt;n81030972443 -->
<g id="edge62" class="edge"><title>n63568718279&#45;&gt;n81030972443</title>
<path fill="none" stroke="black" d="M403.526,-185.584C407.159,-204.397 413.107,-234.3 419,-260 421.004,-268.74 423.352,-278.215 425.547,-286.8"/>
<polygon fill="black" stroke="black" points="422.22,-287.916 428.114,-296.72 428.997,-286.162 422.22,-287.916"/>
</g>
<!-- n63591584438 -->
<g id="node27" class="node"><title>n63591584438</title>
<ellipse fill="none" stroke="black" cx="1948" cy="-19" rx="77.9889" ry="18.3848"/>
<text text-anchor="middle" x="1948" y="-15.4" font-family="Times Roman,serif" font-size="14.00">weighted_tag</text>
</g>
<!-- n81072357793 -->
<g id="node34" class="node"><title>n81072357793</title>
<ellipse fill="none" stroke="black" cx="1948" cy="-93" rx="29.9071" ry="18.3848"/>
<text text-anchor="middle" x="1948" y="-89.4" font-family="Times Roman,serif" font-size="14.00">0x1</text>
</g>
<!-- n63591584438&#45;&gt;n81072357793 -->
<g id="edge66" class="edge"><title>n63591584438&#45;&gt;n81072357793</title>
<path fill="none" stroke="black" d="M1948,-37.6733C1948,-45.7361 1948,-55.3523 1948,-64.2885"/>
<polygon fill="black" stroke="black" points="1944.5,-64.3326 1948,-74.3326 1951.5,-64.3327 1944.5,-64.3326"/>
</g>
<!-- n63655504754 -->
<g id="node28" class="node"><title>n63655504754</title>
<ellipse fill="none" stroke="black" cx="163" cy="-93" rx="31.1127" ry="18.3848"/>
<text text-anchor="middle" x="163" y="-89.4" font-family="Times Roman,serif" font-size="14.00">test</text>
</g>
<!-- n63655504754&#45;&gt;n133640000 -->
<g id="edge70" class="edge"><title>n63655504754&#45;&gt;n133640000</title>
<path fill="none" stroke="black" d="M181.213,-107.975C194.301,-118.736 212.142,-133.406 226.764,-145.428"/>
<polygon fill="black" stroke="black" points="224.558,-148.146 234.505,-151.793 229.004,-142.739 224.558,-148.146"/>
</g>
<!-- n63655504754&#45;&gt;n133640312 -->
<g id="edge68" class="edge"><title>n63655504754&#45;&gt;n133640312</title>
<path fill="none" stroke="black" d="M164.009,-111.673C164.445,-119.736 164.965,-129.352 165.448,-138.289"/>
<polygon fill="black" stroke="black" points="161.956,-138.536 165.991,-148.333 168.946,-138.158 161.956,-138.536"/>
</g>
<!-- n63877865724 -->
<g id="node29" class="node"><title>n63877865724</title>
<ellipse fill="none" stroke="black" cx="2122" cy="-19" rx="77.9889" ry="18.3848"/>
<text text-anchor="middle" x="2122" y="-15.4" font-family="Times Roman,serif" font-size="14.00">weighted_tag</text>
</g>
<!-- n8835241951 -->
<g id="node32" class="node"><title>n8835241951</title>
<ellipse fill="none" stroke="black" cx="2122" cy="-93" rx="29.9071" ry="18.3848"/>
<text text-anchor="middle" x="2122" y="-89.4" font-family="Times Roman,serif" font-size="14.00">0x3</text>
</g>
<!-- n63877865724&#45;&gt;n8835241951 -->
<g id="edge72" class="edge"><title>n63877865724&#45;&gt;n8835241951</title>
<path fill="none" stroke="black" d="M2122,-37.6733C2122,-45.7361 2122,-55.3523 2122,-64.2885"/>
<polygon fill="black" stroke="black" points="2118.5,-64.3326 2122,-74.3326 2125.5,-64.3327 2118.5,-64.3326"/>
</g>
<!-- n64173650272 -->
<g id="node30" class="node"><title>n64173650272</title>
<ellipse fill="none" stroke="black" cx="2248" cy="-19" rx="29.9071" ry="18.3848"/>
<text text-anchor="middle" x="2248" y="-15.4" font-family="Times Roman,serif" font-size="14.00">int_</text>
</g>
<!-- n81303797509 -->
<g id="node35" class="node"><title>n81303797509</title>
<ellipse fill="none" stroke="black" cx="2248" cy="-93" rx="33.9411" ry="18.3848"/>
<text text-anchor="middle" x="2248" y="-89.4" font-family="Times Roman,serif" font-size="14.00">0x&#45;2</text>
</g>
<!-- n64173650272&#45;&gt;n81303797509 -->
<g id="edge74" class="edge"><title>n64173650272&#45;&gt;n81303797509</title>
<path fill="none" stroke="black" d="M2248,-37.6733C2248,-45.7361 2248,-55.3523 2248,-64.2885"/>
<polygon fill="black" stroke="black" points="2244.5,-64.3326 2248,-74.3326 2251.5,-64.3327 2244.5,-64.3326"/>
</g>
</g>
</svg>
