<?xml version="1.0" encoding="UTF-8" standalone="no"?>
<!DOCTYPE svg PUBLIC "-//W3C//DTD SVG 1.1//EN"
 "http://www.w3.org/Graphics/SVG/1.1/DTD/svg11.dtd">
<!-- Generated by graphviz version 2.26.3 (20100126.1600)
 -->
<!-- Title: _anonymous_0 Pages: 1 -->
<svg width="2306pt" height="342pt"
 viewBox="0.00 0.00 2306.17 342.00" xmlns="http://www.w3.org/2000/svg" xmlns:xlink="http://www.w3.org/1999/xlink">
<g id="graph1" class="graph" transform="scale(1 1) rotate(0) translate(4 338)">
<title>_anonymous_0</title>
<polygon fill="white" stroke="white" points="-4,5 -4,-338 2303.17,-338 2303.17,5 -4,5"/>
<!-- n128053016 -->
<g id="node1" class="node"><title>n128053016</title>
<ellipse fill="none" stroke="black" cx="250.17" cy="-241" rx="38.1838" ry="18.3848"/>
<text text-anchor="middle" x="250.17" y="-237.4" font-family="Times Roman,serif" font-size="14.00">_Bool</text>
</g>
<!-- n128053040 -->
<g id="node2" class="node"><title>n128053040</title>
<ellipse fill="none" stroke="black" cx="1254.17" cy="-167" rx="33.234" ry="18.3848"/>
<text text-anchor="middle" x="1254.17" y="-163.4" font-family="Times Roman,serif" font-size="14.00">char</text>
</g>
<!-- n128053088 -->
<g id="node3" class="node"><title>n128053088</title>
<ellipse fill="none" stroke="black" cx="1342.17" cy="-167" rx="36.977" ry="18.3848"/>
<text text-anchor="middle" x="1342.17" y="-163.4" font-family="Times Roman,serif" font-size="14.00">short</text>
</g>
<!-- n128053112 -->
<g id="node4" class="node"><title>n128053112</title>
<ellipse fill="none" stroke="black" cx="1176.17" cy="-167" rx="27" ry="18.3848"/>
<text text-anchor="middle" x="1176.17" y="-163.4" font-family="Times Roman,serif" font-size="14.00">int</text>
</g>
<!-- n128053304 -->
<g id="node5" class="node"><title>n128053304</title>
<ellipse fill="none" stroke="black" cx="1680.17" cy="-167" rx="33.234" ry="18.3848"/>
<text text-anchor="middle" x="1680.17" y="-163.4" font-family="Times Roman,serif" font-size="14.00">float</text>
</g>
<!-- n128053328 -->
<g id="node6" class="node"><title>n128053328</title>
<ellipse fill="none" stroke="black" cx="1775.17" cy="-167" rx="43.8406" ry="18.3848"/>
<text text-anchor="middle" x="1775.17" y="-163.4" font-family="Times Roman,serif" font-size="14.00">double</text>
</g>
<!-- n129863512 -->
<g id="node7" class="node"><title>n129863512</title>
<ellipse fill="none" stroke="black" cx="1513.17" cy="-167" rx="115.966" ry="18.3848"/>
<text text-anchor="middle" x="1513.17" y="-163.4" font-family="Times Roman,serif" font-size="14.00">struct nt2::meta::na_</text>
</g>
<!-- n134048344 -->
<g id="node8" class="node"><title>n134048344</title>
<ellipse fill="none" stroke="black" cx="999.17" cy="-167" rx="132.229" ry="18.3848"/>
<text text-anchor="middle" x="999.17" y="-163.4" font-family="Times Roman,serif" font-size="14.00">struct mpl_::bool_&lt;0&gt; &amp;</text>
</g>
<!-- n134068160 -->
<g id="node9" class="node"><title>n134068160</title>
<ellipse fill="none" stroke="black" cx="1890.17" cy="-93" rx="130.108" ry="18.3848"/>
<text text-anchor="middle" x="1890.17" y="-89.4" font-family="Times Roman,serif" font-size="14.00">struct mpl_::bool_&lt;0&gt; *</text>
</g>
<!-- n134095896 -->
<g id="node10" class="node"><title>n134095896</title>
<ellipse fill="none" stroke="black" cx="641.17" cy="-167" rx="132.229" ry="18.3848"/>
<text text-anchor="middle" x="641.17" y="-163.4" font-family="Times Roman,serif" font-size="14.00">struct mpl_::bool_&lt;1&gt; &amp;</text>
</g>
<!-- n134107680 -->
<g id="node11" class="node"><title>n134107680</title>
<ellipse fill="none" stroke="black" cx="2168.17" cy="-93" rx="130.108" ry="18.3848"/>
<text text-anchor="middle" x="2168.17" y="-89.4" font-family="Times Roman,serif" font-size="14.00">struct mpl_::bool_&lt;1&gt; *</text>
</g>
<!-- n6103232122 -->
<g id="node12" class="node"><title>n6103232122</title>
<ellipse fill="none" stroke="black" cx="1513.17" cy="-93" rx="27" ry="18.3848"/>
<text text-anchor="middle" x="1513.17" y="-89.4" font-family="Times Roman,serif" font-size="14.00">set</text>
</g>
<!-- n6103232122&#45;&gt;n128053304 -->
<g id="edge4" class="edge"><title>n6103232122&#45;&gt;n128053304</title>
<path fill="none" stroke="black" d="M1536.24,-103.066C1561.35,-114.041 1602.66,-132.157 1638.17,-148 1640.47,-149.027 1642.84,-150.089 1645.23,-151.162"/>
<polygon fill="black" stroke="black" points="1643.87,-154.386 1654.42,-155.302 1646.74,-148.004 1643.87,-154.386"/>
</g>
<!-- n6103232122&#45;&gt;n128053328 -->
<g id="edge2" class="edge"><title>n6103232122&#45;&gt;n128053328</title>
<path fill="none" stroke="black" d="M1538.79,-98.9813C1578.4,-108.4 1656.77,-127.714 1722.17,-148 1725.54,-149.045 1729.01,-150.173 1732.49,-151.34"/>
<polygon fill="black" stroke="black" points="1731.65,-154.75 1742.24,-154.695 1733.92,-148.131 1731.65,-154.75"/>
</g>
<!-- n6103232122&#45;&gt;n129863512 -->
<g id="edge6" class="edge"><title>n6103232122&#45;&gt;n129863512</title>
<path fill="none" stroke="black" d="M1492.5,-105.22C1486.87,-114.364 1485,-127.245 1486.87,-138.881"/>
<polygon fill="black" stroke="black" points="1483.52,-139.904 1489.49,-148.66 1490.29,-138.096 1483.52,-139.904"/>
</g>
<!-- n6103232122&#45;&gt;n129863512 -->
<g id="edge8" class="edge"><title>n6103232122&#45;&gt;n129863512</title>
<path fill="none" stroke="black" d="M1501.65,-109.792C1499.8,-118.247 1499.25,-128.733 1499.98,-138.409"/>
<polygon fill="black" stroke="black" points="1496.53,-138.991 1501.29,-148.456 1503.47,-138.089 1496.53,-138.991"/>
</g>
<!-- n6103232122&#45;&gt;n129863512 -->
<g id="edge10" class="edge"><title>n6103232122&#45;&gt;n129863512</title>
<path fill="none" stroke="black" d="M1513.17,-111.673C1513.17,-119.736 1513.17,-129.352 1513.17,-138.289"/>
<polygon fill="black" stroke="black" points="1509.67,-138.333 1513.17,-148.333 1516.67,-138.333 1509.67,-138.333"/>
</g>
<!-- n6103232122&#45;&gt;n129863512 -->
<g id="edge12" class="edge"><title>n6103232122&#45;&gt;n129863512</title>
<path fill="none" stroke="black" d="M1524.69,-109.792C1526.54,-118.247 1527.09,-128.733 1526.36,-138.409"/>
<polygon fill="black" stroke="black" points="1522.87,-138.089 1525.05,-148.456 1529.81,-138.991 1522.87,-138.089"/>
</g>
<!-- n6103232122&#45;&gt;n129863512 -->
<g id="edge14" class="edge"><title>n6103232122&#45;&gt;n129863512</title>
<path fill="none" stroke="black" d="M1533.84,-105.22C1539.47,-114.364 1541.34,-127.245 1539.47,-138.881"/>
<polygon fill="black" stroke="black" points="1536.05,-138.096 1536.85,-148.66 1542.82,-139.904 1536.05,-138.096"/>
</g>
<!-- n6303261585 -->
<g id="node13" class="node"><title>n6303261585</title>
<ellipse fill="none" stroke="black" cx="907.17" cy="-241" rx="39.8075" ry="18.3848"/>
<text text-anchor="middle" x="907.17" y="-237.4" font-family="Times Roman,serif" font-size="14.00">ice_or</text>
</g>
<!-- n81773484321 -->
<g id="node33" class="node"><title>n81773484321</title>
<ellipse fill="none" stroke="black" cx="907.17" cy="-315" rx="29.9071" ry="18.3848"/>
<text text-anchor="middle" x="907.17" y="-311.4" font-family="Times Roman,serif" font-size="14.00">0x0</text>
</g>
<!-- n6303261585&#45;&gt;n81773484321 -->
<g id="edge22" class="edge"><title>n6303261585&#45;&gt;n81773484321</title>
<path fill="none" stroke="black" d="M876.481,-252.889C864.567,-265.458 863.504,-285.345 873.292,-299.219"/>
<polygon fill="black" stroke="black" points="870.88,-301.761 880.309,-306.592 875.951,-296.936 870.88,-301.761"/>
</g>
<!-- n6303261585&#45;&gt;n81773484321 -->
<g id="edge24" class="edge"><title>n6303261585&#45;&gt;n81773484321</title>
<path fill="none" stroke="black" d="M918.926,-258.913C920.667,-267.583 921.104,-278.178 920.239,-287.816"/>
<polygon fill="black" stroke="black" points="916.768,-287.361 918.788,-297.761 923.695,-288.371 916.768,-287.361"/>
</g>
<!-- n6303261585&#45;&gt;n81773484321 -->
<g id="edge26" class="edge"><title>n6303261585&#45;&gt;n81773484321</title>
<path fill="none" stroke="black" d="M929.714,-256.693C934.623,-267.063 935.476,-280.818 932.273,-292.365"/>
<polygon fill="black" stroke="black" points="928.96,-291.221 928.415,-301.802 935.439,-293.87 928.96,-291.221"/>
</g>
<!-- n6303261585&#45;&gt;n81773484321 -->
<g id="edge28" class="edge"><title>n6303261585&#45;&gt;n81773484321</title>
<path fill="none" stroke="black" d="M937.859,-252.889C949.773,-265.458 950.836,-285.345 941.048,-299.219"/>
<polygon fill="black" stroke="black" points="938.389,-296.936 934.031,-306.592 943.46,-301.761 938.389,-296.936"/>
</g>
<!-- n6303261585&#45;&gt;n81773484321 -->
<g id="edge16" class="edge"><title>n6303261585&#45;&gt;n81773484321</title>
<path fill="none" stroke="black" d="M884.626,-256.693C879.717,-267.063 878.864,-280.818 882.067,-292.365"/>
<polygon fill="black" stroke="black" points="878.901,-293.87 885.925,-301.802 885.38,-291.221 878.901,-293.87"/>
</g>
<!-- n6303261585&#45;&gt;n81773484321 -->
<g id="edge18" class="edge"><title>n6303261585&#45;&gt;n81773484321</title>
<path fill="none" stroke="black" d="M895.414,-258.913C893.673,-267.583 893.236,-278.178 894.101,-287.816"/>
<polygon fill="black" stroke="black" points="890.645,-288.371 895.552,-297.761 897.572,-287.361 890.645,-288.371"/>
</g>
<!-- n6303261585&#45;&gt;n81773484321 -->
<g id="edge20" class="edge"><title>n6303261585&#45;&gt;n81773484321</title>
<path fill="none" stroke="black" d="M907.17,-259.673C907.17,-267.736 907.17,-277.352 907.17,-286.289"/>
<polygon fill="black" stroke="black" points="903.67,-286.333 907.17,-296.333 910.67,-286.333 903.67,-286.333"/>
</g>
<!-- n6571320449 -->
<g id="node14" class="node"><title>n6571320449</title>
<ellipse fill="none" stroke="black" cx="1890.17" cy="-19" rx="120.208" ry="18.3848"/>
<text text-anchor="middle" x="1890.17" y="-15.4" font-family="Times Roman,serif" font-size="14.00">is_function_ptr_helper</text>
</g>
<!-- n6571320449&#45;&gt;n134068160 -->
<g id="edge30" class="edge"><title>n6571320449&#45;&gt;n134068160</title>
<path fill="none" stroke="black" d="M1890.17,-37.6733C1890.17,-45.7361 1890.17,-55.3523 1890.17,-64.2885"/>
<polygon fill="black" stroke="black" points="1886.67,-64.3326 1890.17,-74.3326 1893.67,-64.3327 1886.67,-64.3326"/>
</g>
<!-- n6623406223 -->
<g id="node15" class="node"><title>n6623406223</title>
<ellipse fill="none" stroke="black" cx="618.17" cy="-19" rx="55.1543" ry="18.3848"/>
<text text-anchor="middle" x="618.17" y="-15.4" font-family="Times Roman,serif" font-size="14.00">enable_if</text>
</g>
<!-- n6623406223&#45;&gt;n134095896 -->
<g id="edge34" class="edge"><title>n6623406223&#45;&gt;n134095896</title>
<path fill="none" stroke="black" d="M621.083,-37.7443C625.023,-63.099 632.088,-108.561 636.702,-138.25"/>
<polygon fill="black" stroke="black" points="633.286,-139.064 638.281,-148.408 640.203,-137.989 633.286,-139.064"/>
</g>
<!-- n6639961014 -->
<g id="node16" class="node"><title>n6639961014</title>
<ellipse fill="none" stroke="black" cx="711.17" cy="-93" rx="65.0538" ry="18.3848"/>
<text text-anchor="middle" x="711.17" y="-89.4" font-family="Times Roman,serif" font-size="14.00">enable_if_c</text>
</g>
<!-- n6623406223&#45;&gt;n6639961014 -->
<g id="edge36" class="edge"><title>n6623406223&#45;&gt;n6639961014</title>
<path fill="none" stroke="black" d="M639.74,-36.1631C652.004,-45.9218 667.553,-58.2943 681.011,-69.0023"/>
<polygon fill="black" stroke="black" points="679.067,-71.9285 689.071,-75.4161 683.425,-66.4509 679.067,-71.9285"/>
</g>
<!-- n61139921832 -->
<g id="node20" class="node"><title>n61139921832</title>
<ellipse fill="none" stroke="black" cx="346.17" cy="-93" rx="63.8479" ry="18.3848"/>
<text text-anchor="middle" x="346.17" y="-89.4" font-family="Times Roman,serif" font-size="14.00">is_function</text>
</g>
<!-- n6623406223&#45;&gt;n61139921832 -->
<g id="edge32" class="edge"><title>n6623406223&#45;&gt;n61139921832</title>
<path fill="none" stroke="black" d="M575.371,-30.6439C528.805,-43.3124 454.153,-63.6223 402.771,-77.6013"/>
<polygon fill="black" stroke="black" points="401.55,-74.306 392.82,-80.3085 403.388,-81.0605 401.55,-74.306"/>
</g>
<!-- n6639961014&#45;&gt;n134095896 -->
<g id="edge40" class="edge"><title>n6639961014&#45;&gt;n134095896</title>
<path fill="none" stroke="black" d="M694.225,-110.913C685.648,-119.98 675.08,-131.153 665.638,-141.133"/>
<polygon fill="black" stroke="black" points="663.019,-138.809 658.69,-148.479 668.105,-143.619 663.019,-138.809"/>
</g>
<!-- n6639961014&#45;&gt;n81773484321 -->
<g id="edge38" class="edge"><title>n6639961014&#45;&gt;n81773484321</title>
<path fill="none" stroke="black" d="M737.914,-109.876C752.209,-119.787 769.435,-133.245 782.17,-148 819.486,-191.236 809.313,-215.547 845.17,-260 855.202,-272.437 868.197,-284.433 879.696,-294.03"/>
<polygon fill="black" stroke="black" points="877.773,-296.978 887.742,-300.567 882.187,-291.545 877.773,-296.978"/>
</g>
<!-- n6723705992 -->
<g id="node17" class="node"><title>n6723705992</title>
<ellipse fill="none" stroke="black" cx="1441.17" cy="-93" rx="27" ry="18.3848"/>
<text text-anchor="middle" x="1441.17" y="-89.4" font-family="Times Roman,serif" font-size="14.00">set</text>
</g>
<!-- n6723705992&#45;&gt;n128053040 -->
<g id="edge42" class="edge"><title>n6723705992&#45;&gt;n128053040</title>
<path fill="none" stroke="black" d="M1417.13,-101.599C1388.22,-112.059 1338.31,-130.494 1296.17,-148 1293.84,-148.967 1291.45,-149.984 1289.05,-151.023"/>
<polygon fill="black" stroke="black" points="1287.56,-147.853 1279.82,-155.089 1290.39,-154.258 1287.56,-147.853"/>
</g>
<!-- n6723705992&#45;&gt;n128053088 -->
<g id="edge44" class="edge"><title>n6723705992&#45;&gt;n128053088</title>
<path fill="none" stroke="black" d="M1422.55,-106.919C1408.05,-117.757 1387.66,-132.995 1371.05,-145.413"/>
<polygon fill="black" stroke="black" points="1368.67,-142.82 1362.76,-151.611 1372.86,-148.427 1368.67,-142.82"/>
</g>
<!-- n6723705992&#45;&gt;n128053112 -->
<g id="edge46" class="edge"><title>n6723705992&#45;&gt;n128053112</title>
<path fill="none" stroke="black" d="M1414.78,-97.1264C1371.5,-104.38 1283.14,-121.234 1212.17,-148 1210.29,-148.711 1208.37,-149.499 1206.47,-150.338"/>
<polygon fill="black" stroke="black" points="1204.58,-147.359 1197.08,-154.841 1207.61,-153.67 1204.58,-147.359"/>
</g>
<!-- n6723705992&#45;&gt;n129863512 -->
<g id="edge48" class="edge"><title>n6723705992&#45;&gt;n129863512</title>
<path fill="none" stroke="black" d="M1441.48,-111.673C1447.96,-121.086 1458.75,-132.616 1470.39,-142.71"/>
<polygon fill="black" stroke="black" points="1468.18,-145.428 1478.12,-149.098 1472.64,-140.031 1468.18,-145.428"/>
</g>
<!-- n6723705992&#45;&gt;n129863512 -->
<g id="edge50" class="edge"><title>n6723705992&#45;&gt;n129863512</title>
<path fill="none" stroke="black" d="M1452.07,-110.163C1460.19,-119.53 1471.43,-131.304 1482.12,-141.703"/>
<polygon fill="black" stroke="black" points="1479.73,-144.264 1489.38,-148.637 1484.56,-139.2 1479.73,-144.264"/>
</g>
<!-- n6723705992&#45;&gt;n129863512 -->
<g id="edge52" class="edge"><title>n6723705992&#45;&gt;n129863512</title>
<path fill="none" stroke="black" d="M1459.74,-106.573C1470.37,-116.133 1483.49,-129.238 1494.17,-140.801"/>
<polygon fill="black" stroke="black" points="1491.81,-143.412 1501.1,-148.497 1497.01,-138.725 1491.81,-143.412"/>
</g>
<!-- n6723705992&#45;&gt;n129863512 -->
<g id="edge54" class="edge"><title>n6723705992&#45;&gt;n129863512</title>
<path fill="none" stroke="black" d="M1464.78,-102.674C1479.35,-112.123 1495.56,-126.942 1506.46,-139.977"/>
<polygon fill="black" stroke="black" points="1503.91,-142.409 1512.78,-148.21 1509.47,-138.146 1503.91,-142.409"/>
</g>
<!-- n6861831109 -->
<g id="node18" class="node"><title>n6861831109</title>
<ellipse fill="none" stroke="black" cx="877.17" cy="-19" rx="55.1543" ry="18.3848"/>
<text text-anchor="middle" x="877.17" y="-15.4" font-family="Times Roman,serif" font-size="14.00">enable_if</text>
</g>
<!-- n6861831109&#45;&gt;n134048344 -->
<g id="edge58" class="edge"><title>n6861831109&#45;&gt;n134048344</title>
<path fill="none" stroke="black" d="M904.937,-35.2514C919.984,-45.0628 938.114,-58.6267 951.17,-74 967.671,-93.4301 980.502,-119.495 988.73,-139.087"/>
<polygon fill="black" stroke="black" points="985.504,-140.445 992.501,-148.4 991.992,-137.817 985.504,-140.445"/>
</g>
<!-- n61123382021 -->
<g id="node19" class="node"><title>n61123382021</title>
<ellipse fill="none" stroke="black" cx="877.17" cy="-93" rx="65.0538" ry="18.3848"/>
<text text-anchor="middle" x="877.17" y="-89.4" font-family="Times Roman,serif" font-size="14.00">enable_if_c</text>
</g>
<!-- n6861831109&#45;&gt;n61123382021 -->
<g id="edge60" class="edge"><title>n6861831109&#45;&gt;n61123382021</title>
<path fill="none" stroke="black" d="M877.17,-37.6733C877.17,-45.7361 877.17,-55.3523 877.17,-64.2885"/>
<polygon fill="black" stroke="black" points="873.67,-64.3326 877.17,-74.3326 880.67,-64.3327 873.67,-64.3326"/>
</g>
<!-- n61398621375 -->
<g id="node22" class="node"><title>n61398621375</title>
<ellipse fill="none" stroke="black" cx="492.17" cy="-93" rx="63.8479" ry="18.3848"/>
<text text-anchor="middle" x="492.17" y="-89.4" font-family="Times Roman,serif" font-size="14.00">is_function</text>
</g>
<!-- n6861831109&#45;&gt;n61398621375 -->
<g id="edge56" class="edge"><title>n6861831109&#45;&gt;n61398621375</title>
<path fill="none" stroke="black" d="M829.188,-28.2225C760.125,-41.4969 632.578,-66.0125 555.744,-80.7805"/>
<polygon fill="black" stroke="black" points="554.872,-77.3841 545.712,-82.7088 556.193,-84.2583 554.872,-77.3841"/>
</g>
<!-- n61123382021&#45;&gt;n134048344 -->
<g id="edge64" class="edge"><title>n61123382021&#45;&gt;n134048344</title>
<path fill="none" stroke="black" d="M904.854,-109.792C921.287,-119.759 942.374,-132.55 960.44,-143.508"/>
<polygon fill="black" stroke="black" points="958.667,-146.526 969.032,-148.72 962.297,-140.541 958.667,-146.526"/>
</g>
<!-- n61123382021&#45;&gt;n81773484321 -->
<g id="edge62" class="edge"><title>n61123382021&#45;&gt;n81773484321</title>
<path fill="none" stroke="black" d="M869.078,-111.433C864.913,-121.927 860.277,-135.447 858.17,-148 849.93,-197.091 840.454,-213.482 858.17,-260 862.935,-272.511 871.997,-283.987 881.045,-293.183"/>
<polygon fill="black" stroke="black" points="878.896,-295.971 888.547,-300.343 883.729,-290.907 878.896,-295.971"/>
</g>
<!-- n62437168971 -->
<g id="node28" class="node"><title>n62437168971</title>
<ellipse fill="none" stroke="black" cx="356.17" cy="-167" rx="96.8736" ry="18.3848"/>
<text text-anchor="middle" x="356.17" y="-163.4" font-family="Times Roman,serif" font-size="14.00">integral_constant</text>
</g>
<!-- n61139921832&#45;&gt;n62437168971 -->
<g id="edge68" class="edge"><title>n61139921832&#45;&gt;n62437168971</title>
<path fill="none" stroke="black" d="M348.693,-111.673C349.783,-119.736 351.082,-129.352 352.29,-138.289"/>
<polygon fill="black" stroke="black" points="348.84,-138.891 353.647,-148.333 355.777,-137.954 348.84,-138.891"/>
</g>
<!-- n63394182147 -->
<g id="node30" class="node"><title>n63394182147</title>
<ellipse fill="none" stroke="black" cx="204.17" cy="-167" rx="36.977" ry="18.3848"/>
<text text-anchor="middle" x="204.17" y="-163.4" font-family="Times Roman,serif" font-size="14.00">bool_</text>
</g>
<!-- n61139921832&#45;&gt;n63394182147 -->
<g id="edge66" class="edge"><title>n61139921832&#45;&gt;n63394182147</title>
<path fill="none" stroke="black" d="M315.007,-109.24C292.62,-120.906 262.42,-136.645 239.197,-148.746"/>
<polygon fill="black" stroke="black" points="237.285,-145.796 230.034,-153.521 240.52,-152.004 237.285,-145.796"/>
</g>
<!-- n61224140283 -->
<g id="node21" class="node"><title>n61224140283</title>
<ellipse fill="none" stroke="black" cx="63.17" cy="-167" rx="48.0833" ry="18.3848"/>
<text text-anchor="middle" x="63.17" y="-163.4" font-family="Times Roman,serif" font-size="14.00">ice_and</text>
</g>
<!-- n81030972443 -->
<g id="node32" class="node"><title>n81030972443</title>
<ellipse fill="none" stroke="black" cx="63.17" cy="-241" rx="29.9071" ry="18.3848"/>
<text text-anchor="middle" x="63.17" y="-237.4" font-family="Times Roman,serif" font-size="14.00">0x1</text>
</g>
<!-- n61224140283&#45;&gt;n81030972443 -->
<g id="edge70" class="edge"><title>n61224140283&#45;&gt;n81030972443</title>
<path fill="none" stroke="black" d="M30.7013,-180.919C20.5265,-193.47 20.0195,-211.921 29.1803,-225.059"/>
<polygon fill="black" stroke="black" points="26.7332,-227.566 36.1335,-232.454 31.8327,-222.771 26.7332,-227.566"/>
</g>
<!-- n61224140283&#45;&gt;n81030972443 -->
<g id="edge72" class="edge"><title>n61224140283&#45;&gt;n81030972443</title>
<path fill="none" stroke="black" d="M40.2899,-183.423C35.728,-193.594 34.9546,-206.808 37.9697,-218.01"/>
<polygon fill="black" stroke="black" points="34.838,-219.605 41.8037,-227.588 41.3367,-217.004 34.838,-219.605"/>
</g>
<!-- n61224140283&#45;&gt;n81030972443 -->
<g id="edge74" class="edge"><title>n61224140283&#45;&gt;n81030972443</title>
<path fill="none" stroke="black" d="M51.3385,-185.292C49.6636,-193.875 49.2497,-204.28 50.0967,-213.764"/>
<polygon fill="black" stroke="black" points="46.6741,-214.547 51.5889,-223.933 53.6,-213.531 46.6741,-214.547"/>
</g>
<!-- n61224140283&#45;&gt;n81030972443 -->
<g id="edge76" class="edge"><title>n61224140283&#45;&gt;n81030972443</title>
<path fill="none" stroke="black" d="M63.17,-185.673C63.17,-193.736 63.17,-203.352 63.17,-212.289"/>
<polygon fill="black" stroke="black" points="59.6701,-212.333 63.17,-222.333 66.6701,-212.333 59.6701,-212.333"/>
</g>
<!-- n61224140283&#45;&gt;n81030972443 -->
<g id="edge78" class="edge"><title>n61224140283&#45;&gt;n81030972443</title>
<path fill="none" stroke="black" d="M75.0014,-185.292C76.6764,-193.875 77.0903,-204.28 76.2433,-213.764"/>
<polygon fill="black" stroke="black" points="72.74,-213.531 74.7511,-223.933 79.6659,-214.547 72.74,-213.531"/>
</g>
<!-- n61224140283&#45;&gt;n81030972443 -->
<g id="edge80" class="edge"><title>n61224140283&#45;&gt;n81030972443</title>
<path fill="none" stroke="black" d="M86.0501,-183.423C90.612,-193.594 91.3854,-206.808 88.3703,-218.01"/>
<polygon fill="black" stroke="black" points="85.0033,-217.004 84.5363,-227.588 91.502,-219.605 85.0033,-217.004"/>
</g>
<!-- n61224140283&#45;&gt;n81030972443 -->
<g id="edge82" class="edge"><title>n61224140283&#45;&gt;n81030972443</title>
<path fill="none" stroke="black" d="M95.6387,-180.919C105.813,-193.47 106.321,-211.921 97.1597,-225.059"/>
<polygon fill="black" stroke="black" points="94.5073,-222.771 90.2065,-232.454 99.6068,-227.566 94.5073,-222.771"/>
</g>
<!-- n61954352232 -->
<g id="node26" class="node"><title>n61954352232</title>
<ellipse fill="none" stroke="black" cx="481.17" cy="-241" rx="36.977" ry="18.3848"/>
<text text-anchor="middle" x="481.17" y="-237.4" font-family="Times Roman,serif" font-size="14.00">bool_</text>
</g>
<!-- n61398621375&#45;&gt;n61954352232 -->
<g id="edge84" class="edge"><title>n61398621375&#45;&gt;n61954352232</title>
<path fill="none" stroke="black" d="M490.777,-111.744C488.892,-137.099 485.513,-182.561 483.307,-212.25"/>
<polygon fill="black" stroke="black" points="479.803,-212.176 482.552,-222.408 486.784,-212.695 479.803,-212.176"/>
</g>
<!-- n61398621375&#45;&gt;n62437168971 -->
<g id="edge86" class="edge"><title>n61398621375&#45;&gt;n62437168971</title>
<path fill="none" stroke="black" d="M461.987,-109.423C443.037,-119.734 418.34,-133.172 397.573,-144.472"/>
<polygon fill="black" stroke="black" points="395.754,-141.477 388.643,-149.331 399.099,-147.626 395.754,-141.477"/>
</g>
<!-- n61734400687 -->
<g id="node23" class="node"><title>n61734400687</title>
<ellipse fill="none" stroke="black" cx="2168.17" cy="-19" rx="120.208" ry="18.3848"/>
<text text-anchor="middle" x="2168.17" y="-15.4" font-family="Times Roman,serif" font-size="14.00">is_function_ptr_helper</text>
</g>
<!-- n61734400687&#45;&gt;n134107680 -->
<g id="edge88" class="edge"><title>n61734400687&#45;&gt;n134107680</title>
<path fill="none" stroke="black" d="M2168.17,-37.6733C2168.17,-45.7361 2168.17,-55.3523 2168.17,-64.2885"/>
<polygon fill="black" stroke="black" points="2164.67,-64.3326 2168.17,-74.3326 2171.67,-64.3327 2164.67,-64.3326"/>
</g>
<!-- n61740457723 -->
<g id="node24" class="node"><title>n61740457723</title>
<ellipse fill="none" stroke="black" cx="139.17" cy="-93" rx="96.8736" ry="18.3848"/>
<text text-anchor="middle" x="139.17" y="-89.4" font-family="Times Roman,serif" font-size="14.00">integral_constant</text>
</g>
<!-- n61740457723&#45;&gt;n128053016 -->
<g id="edge90" class="edge"><title>n61740457723&#45;&gt;n128053016</title>
<path fill="none" stroke="black" d="M138.711,-111.858C139.137,-131.987 142.538,-163.953 158.17,-186 170.876,-203.921 191.428,-217.01 209.888,-225.912"/>
<polygon fill="black" stroke="black" points="208.465,-229.11 219.017,-230.069 211.366,-222.739 208.465,-229.11"/>
</g>
<!-- n61740457723&#45;&gt;n63394182147 -->
<g id="edge94" class="edge"><title>n61740457723&#45;&gt;n63394182147</title>
<path fill="none" stroke="black" d="M155.237,-111.292C163.425,-120.613 173.5,-132.084 182.376,-142.189"/>
<polygon fill="black" stroke="black" points="179.95,-144.73 189.179,-149.933 185.209,-140.11 179.95,-144.73"/>
</g>
<!-- n61740457723&#45;&gt;n81030972443 -->
<g id="edge92" class="edge"><title>n61740457723&#45;&gt;n81030972443</title>
<path fill="none" stroke="black" d="M68.0657,-105.762C44.3271,-113.778 20.3357,-126.813 6.17,-148 -3.21704,-162.04 -0.432141,-170.455 6.17,-186 12.053,-199.852 23.3228,-211.912 34.2986,-221.18"/>
<polygon fill="black" stroke="black" points="32.15,-223.943 42.1576,-227.422 36.5034,-218.462 32.15,-223.943"/>
</g>
<!-- n61850415702 -->
<g id="node25" class="node"><title>n61850415702</title>
<ellipse fill="none" stroke="black" cx="1507.17" cy="-19" rx="50.9117" ry="18.3848"/>
<text text-anchor="middle" x="1507.17" y="-15.4" font-family="Times Roman,serif" font-size="14.00">has_key</text>
</g>
<!-- n61850415702&#45;&gt;n128053328 -->
<g id="edge98" class="edge"><title>n61850415702&#45;&gt;n128053328</title>
<path fill="none" stroke="black" d="M1535.34,-34.5589C1584.38,-61.6395 1685.33,-117.389 1739.3,-147.189"/>
<polygon fill="black" stroke="black" points="1737.72,-150.319 1748.17,-152.09 1741.11,-144.192 1737.72,-150.319"/>
</g>
<!-- n61850415702&#45;&gt;n6723705992 -->
<g id="edge96" class="edge"><title>n61850415702&#45;&gt;n6723705992</title>
<path fill="none" stroke="black" d="M1491.19,-36.9133C1482.5,-46.6619 1471.63,-58.8447 1462.25,-69.3631"/>
<polygon fill="black" stroke="black" points="1459.47,-67.2217 1455.43,-77.0143 1464.7,-71.881 1459.47,-67.2217"/>
</g>
<!-- n61954352232&#45;&gt;n81773484321 -->
<g id="edge100" class="edge"><title>n61954352232&#45;&gt;n81773484321</title>
<path fill="none" stroke="black" d="M516.394,-247.119C595.346,-260.833 785.986,-293.949 868.277,-308.244"/>
<polygon fill="black" stroke="black" points="867.772,-311.709 878.224,-309.972 868.97,-304.812 867.772,-311.709"/>
</g>
<!-- n62399971381 -->
<g id="node27" class="node"><title>n62399971381</title>
<ellipse fill="none" stroke="black" cx="1185.17" cy="-19" rx="50.9117" ry="18.3848"/>
<text text-anchor="middle" x="1185.17" y="-15.4" font-family="Times Roman,serif" font-size="14.00">has_key</text>
</g>
<!-- n62399971381&#45;&gt;n128053112 -->
<g id="edge104" class="edge"><title>n62399971381&#45;&gt;n128053112</title>
<path fill="none" stroke="black" d="M1184.03,-37.7443C1182.49,-63.099 1179.72,-108.561 1177.92,-138.25"/>
<polygon fill="black" stroke="black" points="1174.41,-138.214 1177.3,-148.408 1181.4,-138.639 1174.41,-138.214"/>
</g>
<!-- n62399971381&#45;&gt;n6723705992 -->
<g id="edge102" class="edge"><title>n62399971381&#45;&gt;n6723705992</title>
<path fill="none" stroke="black" d="M1225.17,-30.5625C1274.95,-44.9533 1359.16,-69.2948 1406.39,-82.9457"/>
<polygon fill="black" stroke="black" points="1405.58,-86.3552 1416.16,-85.7698 1407.52,-79.6305 1405.58,-86.3552"/>
</g>
<!-- n62437168971&#45;&gt;n128053016 -->
<g id="edge106" class="edge"><title>n62437168971&#45;&gt;n128053016</title>
<path fill="none" stroke="black" d="M330.51,-184.913C315.415,-195.452 296.244,-208.835 280.415,-219.885"/>
<polygon fill="black" stroke="black" points="278.209,-217.157 272.013,-225.751 282.216,-222.897 278.209,-217.157"/>
</g>
<!-- n62437168971&#45;&gt;n61954352232 -->
<g id="edge110" class="edge"><title>n62437168971&#45;&gt;n61954352232</title>
<path fill="none" stroke="black" d="M386.111,-184.725C404.816,-195.799 428.92,-210.068 448.175,-221.467"/>
<polygon fill="black" stroke="black" points="446.53,-224.56 456.918,-226.643 450.096,-218.537 446.53,-224.56"/>
</g>
<!-- n62437168971&#45;&gt;n81773484321 -->
<g id="edge108" class="edge"><title>n62437168971&#45;&gt;n81773484321</title>
<path fill="none" stroke="black" d="M366.176,-185.682C378.998,-207.573 403.416,-243.009 435.17,-260 509.64,-299.846 766.929,-311.137 866.953,-314.061"/>
<polygon fill="black" stroke="black" points="866.872,-317.56 876.966,-314.341 867.068,-310.562 866.872,-317.56"/>
</g>
<!-- n62814512681 -->
<g id="node29" class="node"><title>n62814512681</title>
<ellipse fill="none" stroke="black" cx="1634.17" cy="-19" rx="50.9117" ry="18.3848"/>
<text text-anchor="middle" x="1634.17" y="-15.4" font-family="Times Roman,serif" font-size="14.00">has_key</text>
</g>
<!-- n62814512681&#45;&gt;n128053328 -->
<g id="edge114" class="edge"><title>n62814512681&#45;&gt;n128053328</title>
<path fill="none" stroke="black" d="M1650.9,-36.5587C1675.81,-62.7061 1722.77,-112 1751.29,-141.934"/>
<polygon fill="black" stroke="black" points="1749.03,-144.638 1758.46,-149.464 1754.1,-139.81 1749.03,-144.638"/>
</g>
<!-- n62814512681&#45;&gt;n6103232122 -->
<g id="edge112" class="edge"><title>n62814512681&#45;&gt;n6103232122</title>
<path fill="none" stroke="black" d="M1607.91,-35.0569C1588.51,-46.9265 1562.09,-63.0838 1542.08,-75.3214"/>
<polygon fill="black" stroke="black" points="1540.09,-72.4355 1533.38,-80.6388 1543.74,-78.4073 1540.09,-72.4355"/>
</g>
<!-- n63394182147&#45;&gt;n81030972443 -->
<g id="edge116" class="edge"><title>n63394182147&#45;&gt;n81030972443</title>
<path fill="none" stroke="black" d="M178.636,-180.401C155.273,-192.662 120.603,-210.858 95.3528,-224.11"/>
<polygon fill="black" stroke="black" points="93.4078,-221.178 86.1797,-228.924 96.6608,-227.376 93.4078,-221.178"/>
</g>
<!-- n64133601993 -->
<g id="node31" class="node"><title>n64133601993</title>
<ellipse fill="none" stroke="black" cx="1317.17" cy="-19" rx="50.9117" ry="18.3848"/>
<text text-anchor="middle" x="1317.17" y="-15.4" font-family="Times Roman,serif" font-size="14.00">has_key</text>
</g>
<!-- n64133601993&#45;&gt;n128053112 -->
<g id="edge120" class="edge"><title>n64133601993&#45;&gt;n128053112</title>
<path fill="none" stroke="black" d="M1300.44,-36.5587C1275,-63.2684 1226.54,-114.131 1198.24,-143.837"/>
<polygon fill="black" stroke="black" points="1195.53,-141.608 1191.16,-151.262 1200.6,-146.436 1195.53,-141.608"/>
</g>
<!-- n64133601993&#45;&gt;n6103232122 -->
<g id="edge118" class="edge"><title>n64133601993&#45;&gt;n6103232122</title>
<path fill="none" stroke="black" d="M1356.94,-30.787C1389.71,-40.9458 1437.14,-56.6787 1477.17,-74 1479.02,-74.7998 1480.9,-75.657 1482.79,-76.5489"/>
<polygon fill="black" stroke="black" points="1481.6,-79.8688 1492.12,-81.1927 1484.72,-73.6025 1481.6,-79.8688"/>
</g>
</g>
</svg>
