<?xml version="1.0" encoding="UTF-8" standalone="no"?>
<!DOCTYPE svg PUBLIC "-//W3C//DTD SVG 1.1//EN"
 "http://www.w3.org/Graphics/SVG/1.1/DTD/svg11.dtd">
<!-- Generated by graphviz version 2.26.3 (20100126.1600)
 -->
<!-- Title: _anonymous_0 Pages: 1 -->
<svg width="796pt" height="194pt"
 viewBox="0.00 0.00 796.00 194.00" xmlns="http://www.w3.org/2000/svg" xmlns:xlink="http://www.w3.org/1999/xlink">
<g id="graph1" class="graph" transform="scale(1 1) rotate(0) translate(4 190)">
<title>_anonymous_0</title>
<polygon fill="white" stroke="white" points="-4,5 -4,-190 793,-190 793,5 -4,5"/>
<!-- n142536448 -->
<g id="node1" class="node"><title>n142536448</title>
<ellipse fill="none" stroke="black" cx="554" cy="-93" rx="31.8198" ry="18.3848"/>
<text text-anchor="middle" x="554" y="-89.4" font-family="Times Roman,serif" font-size="14.00">void</text>
</g>
<!-- n142536568 -->
<g id="node2" class="node"><title>n142536568</title>
<ellipse fill="none" stroke="black" cx="27" cy="-167" rx="27" ry="18.3848"/>
<text text-anchor="middle" x="27" y="-163.4" font-family="Times Roman,serif" font-size="14.00">int</text>
</g>
<!-- n142536760 -->
<g id="node3" class="node"><title>n142536760</title>
<ellipse fill="none" stroke="black" cx="105" cy="-167" rx="33.234" ry="18.3848"/>
<text text-anchor="middle" x="105" y="-163.4" font-family="Times Roman,serif" font-size="14.00">float</text>
</g>
<!-- n144346760 -->
<g id="node4" class="node"><title>n144346760</title>
<ellipse fill="none" stroke="black" cx="272" cy="-167" rx="115.966" ry="18.3848"/>
<text text-anchor="middle" x="272" y="-163.4" font-family="Times Roman,serif" font-size="14.00">struct nt2::meta::na_</text>
</g>
<!-- n147821072 -->
<g id="node5" class="node"><title>n147821072</title>
<ellipse fill="none" stroke="black" cx="464" cy="-167" rx="57.9828" ry="18.3848"/>
<text text-anchor="middle" x="464" y="-163.4" font-family="Times Roman,serif" font-size="14.00">double **</text>
</g>
<!-- n147822848 -->
<g id="node6" class="node"><title>n147822848</title>
<ellipse fill="none" stroke="black" cx="650" cy="-93" rx="45.9619" ry="18.3848"/>
<text text-anchor="middle" x="650" y="-89.4" font-family="Times Roman,serif" font-size="14.00">long **</text>
</g>
<!-- n61160444353 -->
<g id="node7" class="node"><title>n61160444353</title>
<ellipse fill="none" stroke="black" cx="467" cy="-19" rx="39.0967" ry="18.3848"/>
<text text-anchor="middle" x="467" y="-15.4" font-family="Times Roman,serif" font-size="14.00">is_set</text>
</g>
<!-- n61160444353&#45;&gt;n142536448 -->
<g id="edge4" class="edge"><title>n61160444353&#45;&gt;n142536448</title>
<path fill="none" stroke="black" d="M486.308,-35.423C498.579,-45.8604 514.616,-59.5011 528,-70.8855"/>
<polygon fill="black" stroke="black" points="526.049,-73.8204 535.934,-77.6335 530.584,-68.4884 526.049,-73.8204"/>
</g>
<!-- n62466068535 -->
<g id="node9" class="node"><title>n62466068535</title>
<ellipse fill="none" stroke="black" cx="272" cy="-93" rx="27" ry="18.3848"/>
<text text-anchor="middle" x="272" y="-89.4" font-family="Times Roman,serif" font-size="14.00">set</text>
</g>
<!-- n61160444353&#45;&gt;n62466068535 -->
<g id="edge2" class="edge"><title>n61160444353&#45;&gt;n62466068535</title>
<path fill="none" stroke="black" d="M436.531,-30.5625C400.989,-44.0502 342.415,-66.2786 305.587,-80.2543"/>
<polygon fill="black" stroke="black" points="303.921,-77.1428 295.813,-83.9632 306.405,-83.6874 303.921,-77.1428"/>
</g>
<!-- n62695858800 -->
<g id="node11" class="node"><title>n62695858800</title>
<ellipse fill="none" stroke="black" cx="467" cy="-93" rx="36.977" ry="18.3848"/>
<text text-anchor="middle" x="467" y="-89.4" font-family="Times Roman,serif" font-size="14.00">bool_</text>
</g>
<!-- n61160444353&#45;&gt;n62695858800 -->
<g id="edge6" class="edge"><title>n61160444353&#45;&gt;n62695858800</title>
<path fill="none" stroke="black" d="M467,-37.6733C467,-45.7361 467,-55.3523 467,-64.2885"/>
<polygon fill="black" stroke="black" points="463.5,-64.3326 467,-74.3326 470.5,-64.3327 463.5,-64.3326"/>
</g>
<!-- n62377987928 -->
<g id="node8" class="node"><title>n62377987928</title>
<ellipse fill="none" stroke="black" cx="751" cy="-93" rx="36.977" ry="18.3848"/>
<text text-anchor="middle" x="751" y="-89.4" font-family="Times Roman,serif" font-size="14.00">bool_</text>
</g>
<!-- n81773484321 -->
<g id="node13" class="node"><title>n81773484321</title>
<ellipse fill="none" stroke="black" cx="751" cy="-167" rx="29.9071" ry="18.3848"/>
<text text-anchor="middle" x="751" y="-163.4" font-family="Times Roman,serif" font-size="14.00">0x0</text>
</g>
<!-- n62377987928&#45;&gt;n81773484321 -->
<g id="edge8" class="edge"><title>n62377987928&#45;&gt;n81773484321</title>
<path fill="none" stroke="black" d="M751,-111.673C751,-119.736 751,-129.352 751,-138.289"/>
<polygon fill="black" stroke="black" points="747.5,-138.333 751,-148.333 754.5,-138.333 747.5,-138.333"/>
</g>
<!-- n62466068535&#45;&gt;n142536568 -->
<g id="edge10" class="edge"><title>n62466068535&#45;&gt;n142536568</title>
<path fill="none" stroke="black" d="M245.656,-97.9166C205.421,-105.871 126.629,-123.213 63,-148 61.1233,-148.731 59.2182,-149.535 57.3144,-150.386"/>
<polygon fill="black" stroke="black" points="55.4197,-147.415 47.9427,-154.921 58.4688,-153.716 55.4197,-147.415"/>
</g>
<!-- n62466068535&#45;&gt;n142536760 -->
<g id="edge12" class="edge"><title>n62466068535&#45;&gt;n142536760</title>
<path fill="none" stroke="black" d="M248.93,-103.066C223.822,-114.041 182.509,-132.157 147,-148 144.698,-149.027 142.326,-150.089 139.937,-151.162"/>
<polygon fill="black" stroke="black" points="138.427,-148.004 130.747,-155.302 141.302,-154.386 138.427,-148.004"/>
</g>
<!-- n62466068535&#45;&gt;n144346760 -->
<g id="edge22" class="edge"><title>n62466068535&#45;&gt;n144346760</title>
<path fill="none" stroke="black" d="M255.354,-107.975C252.056,-116.78 251.022,-128.203 252.25,-138.65"/>
<polygon fill="black" stroke="black" points="248.853,-139.512 254.233,-148.64 255.719,-138.149 248.853,-139.512"/>
</g>
<!-- n62466068535&#45;&gt;n144346760 -->
<g id="edge16" class="edge"><title>n62466068535&#45;&gt;n144346760</title>
<path fill="none" stroke="black" d="M266.084,-111.292C265.292,-119.413 265.064,-129.166 265.401,-138.226"/>
<polygon fill="black" stroke="black" points="261.92,-138.65 266.055,-148.404 268.906,-138.2 261.92,-138.65"/>
</g>
<!-- n62466068535&#45;&gt;n144346760 -->
<g id="edge18" class="edge"><title>n62466068535&#45;&gt;n144346760</title>
<path fill="none" stroke="black" d="M277.916,-111.292C278.708,-119.413 278.936,-129.166 278.599,-138.226"/>
<polygon fill="black" stroke="black" points="275.094,-138.2 277.945,-148.404 282.08,-138.65 275.094,-138.2"/>
</g>
<!-- n62466068535&#45;&gt;n144346760 -->
<g id="edge20" class="edge"><title>n62466068535&#45;&gt;n144346760</title>
<path fill="none" stroke="black" d="M288.646,-107.975C291.944,-116.78 292.978,-128.203 291.75,-138.65"/>
<polygon fill="black" stroke="black" points="288.281,-138.149 289.767,-148.64 295.147,-139.512 288.281,-138.149"/>
</g>
<!-- n62466068535&#45;&gt;n147821072 -->
<g id="edge14" class="edge"><title>n62466068535&#45;&gt;n147821072</title>
<path fill="none" stroke="black" d="M295.543,-102.074C325.729,-113.708 378.766,-134.15 417.282,-148.994"/>
<polygon fill="black" stroke="black" points="416.149,-152.308 426.739,-152.639 418.666,-145.777 416.149,-152.308"/>
</g>
<!-- n62669703775 -->
<g id="node10" class="node"><title>n62669703775</title>
<ellipse fill="none" stroke="black" cx="650" cy="-19" rx="39.0967" ry="18.3848"/>
<text text-anchor="middle" x="650" y="-15.4" font-family="Times Roman,serif" font-size="14.00">is_set</text>
</g>
<!-- n62669703775&#45;&gt;n142536448 -->
<g id="edge26" class="edge"><title>n62669703775&#45;&gt;n142536448</title>
<path fill="none" stroke="black" d="M629.169,-35.0569C615.211,-45.8167 596.681,-60.0998 581.512,-71.7925"/>
<polygon fill="black" stroke="black" points="579.265,-69.106 573.481,-77.9832 583.538,-74.6501 579.265,-69.106"/>
</g>
<!-- n62669703775&#45;&gt;n147822848 -->
<g id="edge24" class="edge"><title>n62669703775&#45;&gt;n147822848</title>
<path fill="none" stroke="black" d="M650,-37.6733C650,-45.7361 650,-55.3523 650,-64.2885"/>
<polygon fill="black" stroke="black" points="646.5,-64.3326 650,-74.3326 653.5,-64.3327 646.5,-64.3326"/>
</g>
<!-- n62669703775&#45;&gt;n62377987928 -->
<g id="edge28" class="edge"><title>n62669703775&#45;&gt;n62377987928</title>
<path fill="none" stroke="black" d="M671.42,-34.6935C685.979,-45.3609 705.431,-59.6127 721.459,-71.3558"/>
<polygon fill="black" stroke="black" points="719.823,-74.496 729.958,-77.5829 723.96,-68.8494 719.823,-74.496"/>
</g>
<!-- n81030972443 -->
<g id="node12" class="node"><title>n81030972443</title>
<ellipse fill="none" stroke="black" cx="570" cy="-167" rx="29.9071" ry="18.3848"/>
<text text-anchor="middle" x="570" y="-163.4" font-family="Times Roman,serif" font-size="14.00">0x1</text>
</g>
<!-- n62695858800&#45;&gt;n81030972443 -->
<g id="edge30" class="edge"><title>n62695858800&#45;&gt;n81030972443</title>
<path fill="none" stroke="black" d="M488.342,-108.333C503.897,-119.508 525.12,-134.756 542.03,-146.905"/>
<polygon fill="black" stroke="black" points="540.264,-149.946 550.428,-152.938 544.349,-144.261 540.264,-149.946"/>
</g>
</g>
</svg>
