<?xml version="1.0" encoding="UTF-8" standalone="no"?>
<!DOCTYPE svg PUBLIC "-//W3C//DTD SVG 1.1//EN"
 "http://www.w3.org/Graphics/SVG/1.1/DTD/svg11.dtd">
<!-- Generated by graphviz version 2.26.3 (20100126.1600)
 -->
<!-- Title: _anonymous_0 Pages: 1 -->
<svg width="2532pt" height="342pt"
 viewBox="0.00 0.00 2532.17 342.00" xmlns="http://www.w3.org/2000/svg" xmlns:xlink="http://www.w3.org/1999/xlink">
<g id="graph1" class="graph" transform="scale(1 1) rotate(0) translate(4 338)">
<title>_anonymous_0</title>
<polygon fill="white" stroke="white" points="-4,5 -4,-338 2529.17,-338 2529.17,5 -4,5"/>
<!-- n127258368 -->
<g id="node1" class="node"><title>n127258368</title>
<ellipse fill="none" stroke="black" cx="1238.17" cy="-241" rx="31.8198" ry="18.3848"/>
<text text-anchor="middle" x="1238.17" y="-237.4" font-family="Times Roman,serif" font-size="14.00">void</text>
</g>
<!-- n127258392 -->
<g id="node2" class="node"><title>n127258392</title>
<ellipse fill="none" stroke="black" cx="220.17" cy="-241" rx="38.1838" ry="18.3848"/>
<text text-anchor="middle" x="220.17" y="-237.4" font-family="Times Roman,serif" font-size="14.00">_Bool</text>
</g>
<!-- n127258416 -->
<g id="node3" class="node"><title>n127258416</title>
<ellipse fill="none" stroke="black" cx="1639.17" cy="-315" rx="33.234" ry="18.3848"/>
<text text-anchor="middle" x="1639.17" y="-311.4" font-family="Times Roman,serif" font-size="14.00">char</text>
</g>
<!-- n127258464 -->
<g id="node4" class="node"><title>n127258464</title>
<ellipse fill="none" stroke="black" cx="1727.17" cy="-315" rx="36.977" ry="18.3848"/>
<text text-anchor="middle" x="1727.17" y="-311.4" font-family="Times Roman,serif" font-size="14.00">short</text>
</g>
<!-- n127258488 -->
<g id="node5" class="node"><title>n127258488</title>
<ellipse fill="none" stroke="black" cx="1923.17" cy="-315" rx="27" ry="18.3848"/>
<text text-anchor="middle" x="1923.17" y="-311.4" font-family="Times Roman,serif" font-size="14.00">int</text>
</g>
<!-- n127258680 -->
<g id="node6" class="node"><title>n127258680</title>
<ellipse fill="none" stroke="black" cx="1305.17" cy="-315" rx="33.234" ry="18.3848"/>
<text text-anchor="middle" x="1305.17" y="-311.4" font-family="Times Roman,serif" font-size="14.00">float</text>
</g>
<!-- n127258704 -->
<g id="node7" class="node"><title>n127258704</title>
<ellipse fill="none" stroke="black" cx="1826.17" cy="-315" rx="43.8406" ry="18.3848"/>
<text text-anchor="middle" x="1826.17" y="-311.4" font-family="Times Roman,serif" font-size="14.00">double</text>
</g>
<!-- n129069000 -->
<g id="node8" class="node"><title>n129069000</title>
<ellipse fill="none" stroke="black" cx="1472.17" cy="-315" rx="115.966" ry="18.3848"/>
<text text-anchor="middle" x="1472.17" y="-311.4" font-family="Times Roman,serif" font-size="14.00">struct nt2::meta::na_</text>
</g>
<!-- n133295928 -->
<g id="node9" class="node"><title>n133295928</title>
<ellipse fill="none" stroke="black" cx="999.17" cy="-167" rx="132.229" ry="18.3848"/>
<text text-anchor="middle" x="999.17" y="-163.4" font-family="Times Roman,serif" font-size="14.00">struct mpl_::bool_&lt;0&gt; &amp;</text>
</g>
<!-- n133314528 -->
<g id="node10" class="node"><title>n133314528</title>
<ellipse fill="none" stroke="black" cx="2116.17" cy="-93" rx="130.108" ry="18.3848"/>
<text text-anchor="middle" x="2116.17" y="-89.4" font-family="Times Roman,serif" font-size="14.00">struct mpl_::bool_&lt;0&gt; *</text>
</g>
<!-- n133339976 -->
<g id="node11" class="node"><title>n133339976</title>
<ellipse fill="none" stroke="black" cx="641.17" cy="-167" rx="132.229" ry="18.3848"/>
<text text-anchor="middle" x="641.17" y="-163.4" font-family="Times Roman,serif" font-size="14.00">struct mpl_::bool_&lt;1&gt; &amp;</text>
</g>
<!-- n133354864 -->
<g id="node12" class="node"><title>n133354864</title>
<ellipse fill="none" stroke="black" cx="2394.17" cy="-93" rx="130.108" ry="18.3848"/>
<text text-anchor="middle" x="2394.17" y="-89.4" font-family="Times Roman,serif" font-size="14.00">struct mpl_::bool_&lt;1&gt; *</text>
</g>
<!-- n634450477 -->
<g id="node13" class="node"><title>n634450477</title>
<ellipse fill="none" stroke="black" cx="1570.17" cy="-93" rx="50.9117" ry="18.3848"/>
<text text-anchor="middle" x="1570.17" y="-89.4" font-family="Times Roman,serif" font-size="14.00">has_key</text>
</g>
<!-- n634450477&#45;&gt;n127258704 -->
<g id="edge4" class="edge"><title>n634450477&#45;&gt;n127258704</title>
<path fill="none" stroke="black" d="M1620.96,-95.3303C1694.53,-99.8909 1825.17,-112.842 1854.17,-148 1887.14,-187.969 1861.44,-252.061 1842.23,-288.114"/>
<polygon fill="black" stroke="black" points="1839.05,-286.625 1837.28,-297.07 1845.18,-290.01 1839.05,-286.625"/>
</g>
<!-- n63329270152 -->
<g id="node30" class="node"><title>n63329270152</title>
<ellipse fill="none" stroke="black" cx="1456.17" cy="-167" rx="28.9914" ry="18.3848"/>
<text text-anchor="middle" x="1456.17" y="-163.4" font-family="Times Roman,serif" font-size="14.00">join</text>
</g>
<!-- n634450477&#45;&gt;n63329270152 -->
<g id="edge2" class="edge"><title>n634450477&#45;&gt;n63329270152</title>
<path fill="none" stroke="black" d="M1545.15,-109.24C1527.47,-120.72 1503.71,-136.143 1485.19,-148.164"/>
<polygon fill="black" stroke="black" points="1483.05,-145.38 1476.57,-153.76 1486.86,-151.251 1483.05,-145.38"/>
</g>
<!-- n652291631 -->
<g id="node14" class="node"><title>n652291631</title>
<ellipse fill="none" stroke="black" cx="356.17" cy="-167" rx="96.8736" ry="18.3848"/>
<text text-anchor="middle" x="356.17" y="-163.4" font-family="Times Roman,serif" font-size="14.00">integral_constant</text>
</g>
<!-- n652291631&#45;&gt;n127258392 -->
<g id="edge6" class="edge"><title>n652291631&#45;&gt;n127258392</title>
<path fill="none" stroke="black" d="M323.94,-184.537C303.139,-195.855 276.096,-210.57 254.832,-222.14"/>
<polygon fill="black" stroke="black" points="252.922,-219.195 245.81,-227.049 256.267,-225.343 252.922,-219.195"/>
</g>
<!-- n62735206855 -->
<g id="node29" class="node"><title>n62735206855</title>
<ellipse fill="none" stroke="black" cx="481.17" cy="-241" rx="36.977" ry="18.3848"/>
<text text-anchor="middle" x="481.17" y="-237.4" font-family="Times Roman,serif" font-size="14.00">bool_</text>
</g>
<!-- n652291631&#45;&gt;n62735206855 -->
<g id="edge10" class="edge"><title>n652291631&#45;&gt;n62735206855</title>
<path fill="none" stroke="black" d="M386.111,-184.725C404.816,-195.799 428.92,-210.068 448.175,-221.467"/>
<polygon fill="black" stroke="black" points="446.53,-224.56 456.918,-226.643 450.096,-218.537 446.53,-224.56"/>
</g>
<!-- n81773484321 -->
<g id="node40" class="node"><title>n81773484321</title>
<ellipse fill="none" stroke="black" cx="654.17" cy="-315" rx="29.9071" ry="18.3848"/>
<text text-anchor="middle" x="654.17" y="-311.4" font-family="Times Roman,serif" font-size="14.00">0x0</text>
</g>
<!-- n652291631&#45;&gt;n81773484321 -->
<g id="edge8" class="edge"><title>n652291631&#45;&gt;n81773484321</title>
<path fill="none" stroke="black" d="M367.043,-185.75C380.369,-207.027 404.947,-241.205 435.17,-260 490.916,-294.666 567.438,-307.513 613.703,-312.254"/>
<polygon fill="black" stroke="black" points="613.655,-315.765 623.94,-313.22 614.313,-308.796 613.655,-315.765"/>
</g>
<!-- n6243538399 -->
<g id="node15" class="node"><title>n6243538399</title>
<ellipse fill="none" stroke="black" cx="492.17" cy="-93" rx="63.8479" ry="18.3848"/>
<text text-anchor="middle" x="492.17" y="-89.4" font-family="Times Roman,serif" font-size="14.00">is_function</text>
</g>
<!-- n6243538399&#45;&gt;n652291631 -->
<g id="edge14" class="edge"><title>n6243538399&#45;&gt;n652291631</title>
<path fill="none" stroke="black" d="M461.987,-109.423C443.037,-119.734 418.34,-133.172 397.573,-144.472"/>
<polygon fill="black" stroke="black" points="395.754,-141.477 388.643,-149.331 399.099,-147.626 395.754,-141.477"/>
</g>
<!-- n6243538399&#45;&gt;n62735206855 -->
<g id="edge12" class="edge"><title>n6243538399&#45;&gt;n62735206855</title>
<path fill="none" stroke="black" d="M490.777,-111.744C488.892,-137.099 485.513,-182.561 483.307,-212.25"/>
<polygon fill="black" stroke="black" points="479.803,-212.176 482.552,-222.408 486.784,-212.695 479.803,-212.176"/>
</g>
<!-- n6373620108 -->
<g id="node16" class="node"><title>n6373620108</title>
<ellipse fill="none" stroke="black" cx="204.17" cy="-167" rx="36.977" ry="18.3848"/>
<text text-anchor="middle" x="204.17" y="-163.4" font-family="Times Roman,serif" font-size="14.00">bool_</text>
</g>
<!-- n81030972443 -->
<g id="node39" class="node"><title>n81030972443</title>
<ellipse fill="none" stroke="black" cx="63.17" cy="-241" rx="29.9071" ry="18.3848"/>
<text text-anchor="middle" x="63.17" y="-237.4" font-family="Times Roman,serif" font-size="14.00">0x1</text>
</g>
<!-- n6373620108&#45;&gt;n81030972443 -->
<g id="edge16" class="edge"><title>n6373620108&#45;&gt;n81030972443</title>
<path fill="none" stroke="black" d="M178.636,-180.401C155.273,-192.662 120.603,-210.858 95.3528,-224.11"/>
<polygon fill="black" stroke="black" points="93.4078,-221.178 86.1797,-228.924 96.6608,-227.376 93.4078,-221.178"/>
</g>
<!-- n6443983928 -->
<g id="node17" class="node"><title>n6443983928</title>
<ellipse fill="none" stroke="black" cx="888.17" cy="-19" rx="55.1543" ry="18.3848"/>
<text text-anchor="middle" x="888.17" y="-15.4" font-family="Times Roman,serif" font-size="14.00">enable_if</text>
</g>
<!-- n6443983928&#45;&gt;n133295928 -->
<g id="edge20" class="edge"><title>n6443983928&#45;&gt;n133295928</title>
<path fill="none" stroke="black" d="M916.894,-35.0026C932.05,-44.6489 949.979,-58.1337 962.17,-74 976.888,-93.1551 986.532,-118.931 992.272,-138.488"/>
<polygon fill="black" stroke="black" points="988.962,-139.647 994.996,-148.355 995.709,-137.785 988.962,-139.647"/>
</g>
<!-- n6443983928&#45;&gt;n6243538399 -->
<g id="edge18" class="edge"><title>n6443983928&#45;&gt;n6243538399</title>
<path fill="none" stroke="black" d="M840.009,-27.9999C768.749,-41.316 635.133,-66.2846 555.859,-81.0986"/>
<polygon fill="black" stroke="black" points="555.181,-77.6645 545.994,-82.9419 556.467,-84.5454 555.181,-77.6645"/>
</g>
<!-- n6598541434 -->
<g id="node19" class="node"><title>n6598541434</title>
<ellipse fill="none" stroke="black" cx="888.17" cy="-93" rx="65.0538" ry="18.3848"/>
<text text-anchor="middle" x="888.17" y="-89.4" font-family="Times Roman,serif" font-size="14.00">enable_if_c</text>
</g>
<!-- n6443983928&#45;&gt;n6598541434 -->
<g id="edge22" class="edge"><title>n6443983928&#45;&gt;n6598541434</title>
<path fill="none" stroke="black" d="M888.17,-37.6733C888.17,-45.7361 888.17,-55.3523 888.17,-64.2885"/>
<polygon fill="black" stroke="black" points="884.67,-64.3326 888.17,-74.3326 891.67,-64.3327 884.67,-64.3326"/>
</g>
<!-- n6592941666 -->
<g id="node18" class="node"><title>n6592941666</title>
<ellipse fill="none" stroke="black" cx="1674.17" cy="-167" rx="50.9117" ry="18.3848"/>
<text text-anchor="middle" x="1674.17" y="-163.4" font-family="Times Roman,serif" font-size="14.00">has_key</text>
</g>
<!-- n6592941666&#45;&gt;n127258488 -->
<g id="edge26" class="edge"><title>n6592941666&#45;&gt;n127258488</title>
<path fill="none" stroke="black" d="M1700.82,-182.839C1747.84,-210.791 1845.19,-268.652 1893.97,-297.646"/>
<polygon fill="black" stroke="black" points="1892.39,-300.776 1902.77,-302.877 1895.97,-294.759 1892.39,-300.776"/>
</g>
<!-- n63812828960 -->
<g id="node33" class="node"><title>n63812828960</title>
<ellipse fill="none" stroke="black" cx="1472.17" cy="-241" rx="27" ry="18.3848"/>
<text text-anchor="middle" x="1472.17" y="-237.4" font-family="Times Roman,serif" font-size="14.00">set</text>
</g>
<!-- n6592941666&#45;&gt;n63812828960 -->
<g id="edge24" class="edge"><title>n6592941666&#45;&gt;n63812828960</title>
<path fill="none" stroke="black" d="M1635.77,-179.353C1590.58,-193.948 1520.15,-216.898 1508.17,-222 1506.32,-222.789 1504.43,-223.639 1502.54,-224.524"/>
<polygon fill="black" stroke="black" points="1500.61,-221.574 1493.21,-229.152 1503.72,-227.846 1500.61,-221.574"/>
</g>
<!-- n6598541434&#45;&gt;n133295928 -->
<g id="edge30" class="edge"><title>n6598541434&#45;&gt;n133295928</title>
<path fill="none" stroke="black" d="M913.915,-110.163C928.505,-119.89 946.99,-132.213 963.015,-142.897"/>
<polygon fill="black" stroke="black" points="961.363,-146.002 971.625,-148.637 965.246,-140.177 961.363,-146.002"/>
</g>
<!-- n6598541434&#45;&gt;n81773484321 -->
<g id="edge28" class="edge"><title>n6598541434&#45;&gt;n81773484321</title>
<path fill="none" stroke="black" d="M877.659,-111.396C857.969,-144.578 812.648,-215.157 759.17,-260 738.248,-277.543 710.809,-291.676 689.227,-301.22"/>
<polygon fill="black" stroke="black" points="687.578,-298.119 679.768,-305.279 690.338,-304.552 687.578,-298.119"/>
</g>
<!-- n6998756451 -->
<g id="node20" class="node"><title>n6998756451</title>
<ellipse fill="none" stroke="black" cx="618.17" cy="-19" rx="55.1543" ry="18.3848"/>
<text text-anchor="middle" x="618.17" y="-15.4" font-family="Times Roman,serif" font-size="14.00">enable_if</text>
</g>
<!-- n6998756451&#45;&gt;n133339976 -->
<g id="edge34" class="edge"><title>n6998756451&#45;&gt;n133339976</title>
<path fill="none" stroke="black" d="M621.083,-37.7443C625.023,-63.099 632.088,-108.561 636.702,-138.25"/>
<polygon fill="black" stroke="black" points="633.286,-139.064 638.281,-148.408 640.203,-137.989 633.286,-139.064"/>
</g>
<!-- n62466679743 -->
<g id="node28" class="node"><title>n62466679743</title>
<ellipse fill="none" stroke="black" cx="346.17" cy="-93" rx="63.8479" ry="18.3848"/>
<text text-anchor="middle" x="346.17" y="-89.4" font-family="Times Roman,serif" font-size="14.00">is_function</text>
</g>
<!-- n6998756451&#45;&gt;n62466679743 -->
<g id="edge32" class="edge"><title>n6998756451&#45;&gt;n62466679743</title>
<path fill="none" stroke="black" d="M575.371,-30.6439C528.805,-43.3124 454.153,-63.6223 402.771,-77.6013"/>
<polygon fill="black" stroke="black" points="401.55,-74.306 392.82,-80.3085 403.388,-81.0605 401.55,-74.306"/>
</g>
<!-- n63921165212 -->
<g id="node36" class="node"><title>n63921165212</title>
<ellipse fill="none" stroke="black" cx="711.17" cy="-93" rx="65.0538" ry="18.3848"/>
<text text-anchor="middle" x="711.17" y="-89.4" font-family="Times Roman,serif" font-size="14.00">enable_if_c</text>
</g>
<!-- n6998756451&#45;&gt;n63921165212 -->
<g id="edge36" class="edge"><title>n6998756451&#45;&gt;n63921165212</title>
<path fill="none" stroke="black" d="M639.74,-36.1631C652.004,-45.9218 667.553,-58.2943 681.011,-69.0023"/>
<polygon fill="black" stroke="black" points="679.067,-71.9285 689.071,-75.4161 683.425,-66.4509 679.067,-71.9285"/>
</g>
<!-- n61165520177 -->
<g id="node21" class="node"><title>n61165520177</title>
<ellipse fill="none" stroke="black" cx="2394.17" cy="-19" rx="120.208" ry="18.3848"/>
<text text-anchor="middle" x="2394.17" y="-15.4" font-family="Times Roman,serif" font-size="14.00">is_function_ptr_helper</text>
</g>
<!-- n61165520177&#45;&gt;n133354864 -->
<g id="edge38" class="edge"><title>n61165520177&#45;&gt;n133354864</title>
<path fill="none" stroke="black" d="M2394.17,-37.6733C2394.17,-45.7361 2394.17,-55.3523 2394.17,-64.2885"/>
<polygon fill="black" stroke="black" points="2390.67,-64.3326 2394.17,-74.3326 2397.67,-64.3327 2390.67,-64.3326"/>
</g>
<!-- n61599305106 -->
<g id="node22" class="node"><title>n61599305106</title>
<ellipse fill="none" stroke="black" cx="139.17" cy="-93" rx="96.8736" ry="18.3848"/>
<text text-anchor="middle" x="139.17" y="-89.4" font-family="Times Roman,serif" font-size="14.00">integral_constant</text>
</g>
<!-- n61599305106&#45;&gt;n127258392 -->
<g id="edge40" class="edge"><title>n61599305106&#45;&gt;n127258392</title>
<path fill="none" stroke="black" d="M139.556,-111.692C140.713,-131.393 144.745,-162.734 158.17,-186 165.751,-199.138 177.601,-210.781 188.919,-219.934"/>
<polygon fill="black" stroke="black" points="186.936,-222.825 196.998,-226.144 191.202,-217.275 186.936,-222.825"/>
</g>
<!-- n61599305106&#45;&gt;n6373620108 -->
<g id="edge44" class="edge"><title>n61599305106&#45;&gt;n6373620108</title>
<path fill="none" stroke="black" d="M155.237,-111.292C163.425,-120.613 173.5,-132.084 182.376,-142.189"/>
<polygon fill="black" stroke="black" points="179.95,-144.73 189.179,-149.933 185.209,-140.11 179.95,-144.73"/>
</g>
<!-- n61599305106&#45;&gt;n81030972443 -->
<g id="edge42" class="edge"><title>n61599305106&#45;&gt;n81030972443</title>
<path fill="none" stroke="black" d="M68.0657,-105.762C44.3271,-113.778 20.3357,-126.813 6.17,-148 -3.21704,-162.04 -0.432141,-170.455 6.17,-186 12.053,-199.852 23.3228,-211.912 34.2986,-221.18"/>
<polygon fill="black" stroke="black" points="32.15,-223.943 42.1576,-227.422 36.5034,-218.462 32.15,-223.943"/>
</g>
<!-- n61843119218 -->
<g id="node23" class="node"><title>n61843119218</title>
<ellipse fill="none" stroke="black" cx="1159.17" cy="-93" rx="39.0967" ry="18.3848"/>
<text text-anchor="middle" x="1159.17" y="-89.4" font-family="Times Roman,serif" font-size="14.00">is_set</text>
</g>
<!-- n61843119218&#45;&gt;n127258368 -->
<g id="edge48" class="edge"><title>n61843119218&#45;&gt;n127258368</title>
<path fill="none" stroke="black" d="M1159.63,-111.649C1160.85,-131.314 1164.94,-162.625 1178.17,-186 1185.73,-199.358 1197.68,-211.283 1208.93,-220.586"/>
<polygon fill="black" stroke="black" points="1206.91,-223.445 1216.93,-226.88 1211.23,-217.944 1206.91,-223.445"/>
</g>
<!-- n61843119218&#45;&gt;n6373620108 -->
<g id="edge50" class="edge"><title>n61843119218&#45;&gt;n6373620108</title>
<path fill="none" stroke="black" d="M1121.08,-97.1936C1081.43,-101.437 1017.51,-107.934 962.17,-112 804.171,-123.607 404.737,-113.256 250.17,-148 246.967,-148.72 243.701,-149.645 240.461,-150.698"/>
<polygon fill="black" stroke="black" points="239.117,-147.463 230.912,-154.165 241.506,-154.042 239.117,-147.463"/>
</g>
<!-- n61843119218&#45;&gt;n63329270152 -->
<g id="edge46" class="edge"><title>n61843119218&#45;&gt;n63329270152</title>
<path fill="none" stroke="black" d="M1196.87,-97.9314C1248.02,-105.311 1341.8,-121.291 1418.17,-148 1420.4,-148.781 1422.67,-149.664 1424.93,-150.612"/>
<polygon fill="black" stroke="black" points="1423.53,-153.816 1434.08,-154.774 1426.43,-147.445 1423.53,-153.816"/>
</g>
<!-- n61864777006 -->
<g id="node24" class="node"><title>n61864777006</title>
<ellipse fill="none" stroke="black" cx="1917.17" cy="-93" rx="50.9117" ry="18.3848"/>
<text text-anchor="middle" x="1917.17" y="-89.4" font-family="Times Roman,serif" font-size="14.00">has_key</text>
</g>
<!-- n61864777006&#45;&gt;n127258488 -->
<g id="edge54" class="edge"><title>n61864777006&#45;&gt;n127258488</title>
<path fill="none" stroke="black" d="M1956.5,-105.051C1976.98,-113.548 2000.18,-127.197 2012.17,-148 2042.07,-199.862 1984.31,-262.505 1948.54,-294.305"/>
<polygon fill="black" stroke="black" points="1946.11,-291.778 1940.85,-300.972 1950.69,-297.067 1946.11,-291.778"/>
</g>
<!-- n61864777006&#45;&gt;n63329270152 -->
<g id="edge52" class="edge"><title>n61864777006&#45;&gt;n63329270152</title>
<path fill="none" stroke="black" d="M1867.59,-97.3546C1771.44,-106.142 1563.05,-126.96 1494.17,-148 1491.91,-148.691 1489.62,-149.507 1487.34,-150.405"/>
<polygon fill="black" stroke="black" points="1485.89,-147.217 1478.16,-154.458 1488.72,-153.621 1485.89,-147.217"/>
</g>
<!-- n61884886984 -->
<g id="node25" class="node"><title>n61884886984</title>
<ellipse fill="none" stroke="black" cx="63.17" cy="-167" rx="48.0833" ry="18.3848"/>
<text text-anchor="middle" x="63.17" y="-163.4" font-family="Times Roman,serif" font-size="14.00">ice_and</text>
</g>
<!-- n61884886984&#45;&gt;n81030972443 -->
<g id="edge56" class="edge"><title>n61884886984&#45;&gt;n81030972443</title>
<path fill="none" stroke="black" d="M30.7013,-180.919C20.5265,-193.47 20.0195,-211.921 29.1803,-225.059"/>
<polygon fill="black" stroke="black" points="26.7332,-227.566 36.1335,-232.454 31.8327,-222.771 26.7332,-227.566"/>
</g>
<!-- n61884886984&#45;&gt;n81030972443 -->
<g id="edge58" class="edge"><title>n61884886984&#45;&gt;n81030972443</title>
<path fill="none" stroke="black" d="M40.2899,-183.423C35.728,-193.594 34.9546,-206.808 37.9697,-218.01"/>
<polygon fill="black" stroke="black" points="34.838,-219.605 41.8037,-227.588 41.3367,-217.004 34.838,-219.605"/>
</g>
<!-- n61884886984&#45;&gt;n81030972443 -->
<g id="edge60" class="edge"><title>n61884886984&#45;&gt;n81030972443</title>
<path fill="none" stroke="black" d="M51.3385,-185.292C49.6636,-193.875 49.2497,-204.28 50.0967,-213.764"/>
<polygon fill="black" stroke="black" points="46.6741,-214.547 51.5889,-223.933 53.6,-213.531 46.6741,-214.547"/>
</g>
<!-- n61884886984&#45;&gt;n81030972443 -->
<g id="edge62" class="edge"><title>n61884886984&#45;&gt;n81030972443</title>
<path fill="none" stroke="black" d="M63.17,-185.673C63.17,-193.736 63.17,-203.352 63.17,-212.289"/>
<polygon fill="black" stroke="black" points="59.6701,-212.333 63.17,-222.333 66.6701,-212.333 59.6701,-212.333"/>
</g>
<!-- n61884886984&#45;&gt;n81030972443 -->
<g id="edge64" class="edge"><title>n61884886984&#45;&gt;n81030972443</title>
<path fill="none" stroke="black" d="M75.0014,-185.292C76.6764,-193.875 77.0903,-204.28 76.2433,-213.764"/>
<polygon fill="black" stroke="black" points="72.74,-213.531 74.7511,-223.933 79.6659,-214.547 72.74,-213.531"/>
</g>
<!-- n61884886984&#45;&gt;n81030972443 -->
<g id="edge66" class="edge"><title>n61884886984&#45;&gt;n81030972443</title>
<path fill="none" stroke="black" d="M86.0501,-183.423C90.612,-193.594 91.3854,-206.808 88.3703,-218.01"/>
<polygon fill="black" stroke="black" points="85.0033,-217.004 84.5363,-227.588 91.502,-219.605 85.0033,-217.004"/>
</g>
<!-- n61884886984&#45;&gt;n81030972443 -->
<g id="edge68" class="edge"><title>n61884886984&#45;&gt;n81030972443</title>
<path fill="none" stroke="black" d="M95.6387,-180.919C105.813,-193.47 106.321,-211.921 97.1597,-225.059"/>
<polygon fill="black" stroke="black" points="94.5073,-222.771 90.2065,-232.454 99.6068,-227.566 94.5073,-222.771"/>
</g>
<!-- n61998740585 -->
<g id="node26" class="node"><title>n61998740585</title>
<ellipse fill="none" stroke="black" cx="1794.17" cy="-167" rx="50.9117" ry="18.3848"/>
<text text-anchor="middle" x="1794.17" y="-163.4" font-family="Times Roman,serif" font-size="14.00">has_key</text>
</g>
<!-- n61998740585&#45;&gt;n127258704 -->
<g id="edge72" class="edge"><title>n61998740585&#45;&gt;n127258704</title>
<path fill="none" stroke="black" d="M1798.16,-185.445C1803.64,-210.815 1813.57,-256.714 1820.01,-286.513"/>
<polygon fill="black" stroke="black" points="1816.6,-287.288 1822.13,-296.322 1823.44,-285.809 1816.6,-287.288"/>
</g>
<!-- n63970774580 -->
<g id="node37" class="node"><title>n63970774580</title>
<ellipse fill="none" stroke="black" cx="1544.17" cy="-241" rx="27" ry="18.3848"/>
<text text-anchor="middle" x="1544.17" y="-237.4" font-family="Times Roman,serif" font-size="14.00">set</text>
</g>
<!-- n61998740585&#45;&gt;n63970774580 -->
<g id="edge70" class="edge"><title>n61998740585&#45;&gt;n63970774580</title>
<path fill="none" stroke="black" d="M1755.8,-179.305C1748.62,-181.564 1741.18,-183.877 1734.17,-186 1680.4,-202.294 1617.75,-220.227 1579.53,-231.048"/>
<polygon fill="black" stroke="black" points="1578.1,-227.815 1569.43,-233.904 1580.01,-234.551 1578.1,-227.815"/>
</g>
<!-- n62392719260 -->
<g id="node27" class="node"><title>n62392719260</title>
<ellipse fill="none" stroke="black" cx="1358.17" cy="-167" rx="50.9117" ry="18.3848"/>
<text text-anchor="middle" x="1358.17" y="-163.4" font-family="Times Roman,serif" font-size="14.00">has_key</text>
</g>
<!-- n62392719260&#45;&gt;n127258368 -->
<g id="edge76" class="edge"><title>n62392719260&#45;&gt;n127258368</title>
<path fill="none" stroke="black" d="M1332.13,-183.057C1313.48,-194.558 1288.3,-210.084 1268.7,-222.17"/>
<polygon fill="black" stroke="black" points="1266.81,-219.226 1260.14,-227.454 1270.49,-225.184 1266.81,-219.226"/>
</g>
<!-- n62392719260&#45;&gt;n63970774580 -->
<g id="edge74" class="edge"><title>n62392719260&#45;&gt;n63970774580</title>
<path fill="none" stroke="black" d="M1396.33,-179.409C1426.99,-189.754 1470.92,-205.429 1508.17,-222 1510.01,-222.819 1511.89,-223.69 1513.77,-224.593"/>
<polygon fill="black" stroke="black" points="1512.58,-227.91 1523.08,-229.267 1515.71,-221.654 1512.58,-227.91"/>
</g>
<!-- n62466679743&#45;&gt;n652291631 -->
<g id="edge80" class="edge"><title>n62466679743&#45;&gt;n652291631</title>
<path fill="none" stroke="black" d="M348.693,-111.673C349.783,-119.736 351.082,-129.352 352.29,-138.289"/>
<polygon fill="black" stroke="black" points="348.84,-138.891 353.647,-148.333 355.777,-137.954 348.84,-138.891"/>
</g>
<!-- n62466679743&#45;&gt;n6373620108 -->
<g id="edge78" class="edge"><title>n62466679743&#45;&gt;n6373620108</title>
<path fill="none" stroke="black" d="M315.007,-109.24C292.62,-120.906 262.42,-136.645 239.197,-148.746"/>
<polygon fill="black" stroke="black" points="237.285,-145.796 230.034,-153.521 240.52,-152.004 237.285,-145.796"/>
</g>
<!-- n62735206855&#45;&gt;n81773484321 -->
<g id="edge82" class="edge"><title>n62735206855&#45;&gt;n81773484321</title>
<path fill="none" stroke="black" d="M509.35,-253.054C539.546,-265.97 587.489,-286.478 619.86,-300.324"/>
<polygon fill="black" stroke="black" points="618.798,-303.677 629.369,-304.391 621.551,-297.241 618.798,-303.677"/>
</g>
<!-- n63329270152&#45;&gt;n63812828960 -->
<g id="edge84" class="edge"><title>n63329270152&#45;&gt;n63812828960</title>
<path fill="none" stroke="black" d="M1460.21,-185.673C1461.98,-193.886 1464.11,-203.71 1466.07,-212.786"/>
<polygon fill="black" stroke="black" points="1462.65,-213.555 1468.19,-222.589 1469.5,-212.075 1462.65,-213.555"/>
</g>
<!-- n63329270152&#45;&gt;n63970774580 -->
<g id="edge86" class="edge"><title>n63329270152&#45;&gt;n63970774580</title>
<path fill="none" stroke="black" d="M1473.98,-181.975C1486.91,-192.849 1504.58,-207.712 1518.96,-219.803"/>
<polygon fill="black" stroke="black" points="1517.08,-222.794 1526.99,-226.551 1521.59,-217.436 1517.08,-222.794"/>
</g>
<!-- n63559556176 -->
<g id="node31" class="node"><title>n63559556176</title>
<ellipse fill="none" stroke="black" cx="1554.17" cy="-167" rx="50.9117" ry="18.3848"/>
<text text-anchor="middle" x="1554.17" y="-163.4" font-family="Times Roman,serif" font-size="14.00">has_key</text>
</g>
<!-- n63559556176&#45;&gt;n127258704 -->
<g id="edge90" class="edge"><title>n63559556176&#45;&gt;n127258704</title>
<path fill="none" stroke="black" d="M1582.51,-182.42C1632.29,-209.505 1735.33,-265.572 1790.11,-295.376"/>
<polygon fill="black" stroke="black" points="1788.65,-298.57 1799.11,-300.275 1792,-292.421 1788.65,-298.57"/>
</g>
<!-- n63559556176&#45;&gt;n63812828960 -->
<g id="edge88" class="edge"><title>n63559556176&#45;&gt;n63812828960</title>
<path fill="none" stroke="black" d="M1534.74,-184.537C1523.24,-194.915 1508.57,-208.148 1496.33,-219.195"/>
<polygon fill="black" stroke="black" points="1493.78,-216.788 1488.7,-226.086 1498.46,-221.985 1493.78,-216.788"/>
</g>
<!-- n63812427298 -->
<g id="node32" class="node"><title>n63812427298</title>
<ellipse fill="none" stroke="black" cx="654.17" cy="-241" rx="39.8075" ry="18.3848"/>
<text text-anchor="middle" x="654.17" y="-237.4" font-family="Times Roman,serif" font-size="14.00">ice_or</text>
</g>
<!-- n63812427298&#45;&gt;n81773484321 -->
<g id="edge92" class="edge"><title>n63812427298&#45;&gt;n81773484321</title>
<path fill="none" stroke="black" d="M623.481,-252.889C611.567,-265.458 610.504,-285.345 620.292,-299.219"/>
<polygon fill="black" stroke="black" points="617.88,-301.761 627.309,-306.592 622.951,-296.936 617.88,-301.761"/>
</g>
<!-- n63812427298&#45;&gt;n81773484321 -->
<g id="edge94" class="edge"><title>n63812427298&#45;&gt;n81773484321</title>
<path fill="none" stroke="black" d="M631.626,-256.693C626.717,-267.063 625.864,-280.818 629.067,-292.365"/>
<polygon fill="black" stroke="black" points="625.901,-293.87 632.925,-301.802 632.38,-291.221 625.901,-293.87"/>
</g>
<!-- n63812427298&#45;&gt;n81773484321 -->
<g id="edge96" class="edge"><title>n63812427298&#45;&gt;n81773484321</title>
<path fill="none" stroke="black" d="M642.414,-258.913C640.673,-267.583 640.236,-278.178 641.101,-287.816"/>
<polygon fill="black" stroke="black" points="637.645,-288.371 642.552,-297.761 644.572,-287.361 637.645,-288.371"/>
</g>
<!-- n63812427298&#45;&gt;n81773484321 -->
<g id="edge98" class="edge"><title>n63812427298&#45;&gt;n81773484321</title>
<path fill="none" stroke="black" d="M654.17,-259.673C654.17,-267.736 654.17,-277.352 654.17,-286.289"/>
<polygon fill="black" stroke="black" points="650.67,-286.333 654.17,-296.333 657.67,-286.333 650.67,-286.333"/>
</g>
<!-- n63812427298&#45;&gt;n81773484321 -->
<g id="edge100" class="edge"><title>n63812427298&#45;&gt;n81773484321</title>
<path fill="none" stroke="black" d="M665.926,-258.913C667.667,-267.583 668.104,-278.178 667.239,-287.816"/>
<polygon fill="black" stroke="black" points="663.768,-287.361 665.788,-297.761 670.695,-288.371 663.768,-287.361"/>
</g>
<!-- n63812427298&#45;&gt;n81773484321 -->
<g id="edge102" class="edge"><title>n63812427298&#45;&gt;n81773484321</title>
<path fill="none" stroke="black" d="M676.714,-256.693C681.623,-267.063 682.476,-280.818 679.273,-292.365"/>
<polygon fill="black" stroke="black" points="675.96,-291.221 675.415,-301.802 682.439,-293.87 675.96,-291.221"/>
</g>
<!-- n63812427298&#45;&gt;n81773484321 -->
<g id="edge104" class="edge"><title>n63812427298&#45;&gt;n81773484321</title>
<path fill="none" stroke="black" d="M684.859,-252.889C696.773,-265.458 697.836,-285.345 688.048,-299.219"/>
<polygon fill="black" stroke="black" points="685.389,-296.936 681.031,-306.592 690.46,-301.761 685.389,-296.936"/>
</g>
<!-- n63812828960&#45;&gt;n127258680 -->
<g id="edge108" class="edge"><title>n63812828960&#45;&gt;n127258680</title>
<path fill="none" stroke="black" d="M1449.1,-251.066C1423.99,-262.041 1382.68,-280.157 1347.17,-296 1344.87,-297.027 1342.5,-298.089 1340.11,-299.162"/>
<polygon fill="black" stroke="black" points="1338.6,-296.004 1330.92,-303.302 1341.47,-302.386 1338.6,-296.004"/>
</g>
<!-- n63812828960&#45;&gt;n127258704 -->
<g id="edge106" class="edge"><title>n63812828960&#45;&gt;n127258704</title>
<path fill="none" stroke="black" d="M1492.57,-253.342C1497.53,-255.895 1502.92,-258.317 1508.17,-260 1621.35,-296.296 1657.71,-267.791 1773.17,-296 1776.8,-296.887 1780.53,-297.934 1784.25,-299.072"/>
<polygon fill="black" stroke="black" points="1783.39,-302.474 1793.98,-302.252 1785.57,-295.82 1783.39,-302.474"/>
</g>
<!-- n63812828960&#45;&gt;n129069000 -->
<g id="edge110" class="edge"><title>n63812828960&#45;&gt;n129069000</title>
<path fill="none" stroke="black" d="M1451.5,-253.22C1445.87,-262.364 1444,-275.245 1445.87,-286.881"/>
<polygon fill="black" stroke="black" points="1442.52,-287.904 1448.49,-296.66 1449.29,-286.096 1442.52,-287.904"/>
</g>
<!-- n63812828960&#45;&gt;n129069000 -->
<g id="edge112" class="edge"><title>n63812828960&#45;&gt;n129069000</title>
<path fill="none" stroke="black" d="M1460.65,-257.792C1458.8,-266.247 1458.25,-276.733 1458.98,-286.409"/>
<polygon fill="black" stroke="black" points="1455.53,-286.991 1460.29,-296.456 1462.47,-286.089 1455.53,-286.991"/>
</g>
<!-- n63812828960&#45;&gt;n129069000 -->
<g id="edge114" class="edge"><title>n63812828960&#45;&gt;n129069000</title>
<path fill="none" stroke="black" d="M1472.17,-259.673C1472.17,-267.736 1472.17,-277.352 1472.17,-286.289"/>
<polygon fill="black" stroke="black" points="1468.67,-286.333 1472.17,-296.333 1475.67,-286.333 1468.67,-286.333"/>
</g>
<!-- n63812828960&#45;&gt;n129069000 -->
<g id="edge116" class="edge"><title>n63812828960&#45;&gt;n129069000</title>
<path fill="none" stroke="black" d="M1483.69,-257.792C1485.54,-266.247 1486.09,-276.733 1485.36,-286.409"/>
<polygon fill="black" stroke="black" points="1481.87,-286.089 1484.05,-296.456 1488.81,-286.991 1481.87,-286.089"/>
</g>
<!-- n63812828960&#45;&gt;n129069000 -->
<g id="edge118" class="edge"><title>n63812828960&#45;&gt;n129069000</title>
<path fill="none" stroke="black" d="M1492.84,-253.22C1498.47,-262.364 1500.34,-275.245 1498.47,-286.881"/>
<polygon fill="black" stroke="black" points="1495.05,-286.096 1495.85,-296.66 1501.82,-287.904 1495.05,-286.096"/>
</g>
<!-- n63860906785 -->
<g id="node34" class="node"><title>n63860906785</title>
<ellipse fill="none" stroke="black" cx="1238.17" cy="-167" rx="50.9117" ry="18.3848"/>
<text text-anchor="middle" x="1238.17" y="-163.4" font-family="Times Roman,serif" font-size="14.00">has_key</text>
</g>
<!-- n63860906785&#45;&gt;n127258368 -->
<g id="edge122" class="edge"><title>n63860906785&#45;&gt;n127258368</title>
<path fill="none" stroke="black" d="M1238.17,-185.673C1238.17,-193.736 1238.17,-203.352 1238.17,-212.289"/>
<polygon fill="black" stroke="black" points="1234.67,-212.333 1238.17,-222.333 1241.67,-212.333 1234.67,-212.333"/>
</g>
<!-- n63860906785&#45;&gt;n63812828960 -->
<g id="edge120" class="edge"><title>n63860906785&#45;&gt;n63812828960</title>
<path fill="none" stroke="black" d="M1276.9,-179.268C1283.98,-181.508 1291.29,-183.825 1298.17,-186 1346.56,-201.308 1402.52,-218.994 1437.63,-230.087"/>
<polygon fill="black" stroke="black" points="1436.8,-233.496 1447.39,-233.171 1438.91,-226.821 1436.8,-233.496"/>
</g>
<!-- n63897621413 -->
<g id="node35" class="node"><title>n63897621413</title>
<ellipse fill="none" stroke="black" cx="1952.17" cy="-167" rx="50.9117" ry="18.3848"/>
<text text-anchor="middle" x="1952.17" y="-163.4" font-family="Times Roman,serif" font-size="14.00">has_key</text>
</g>
<!-- n63897621413&#45;&gt;n127258488 -->
<g id="edge126" class="edge"><title>n63897621413&#45;&gt;n127258488</title>
<path fill="none" stroke="black" d="M1948.5,-185.744C1943.53,-211.099 1934.62,-256.561 1928.8,-286.25"/>
<polygon fill="black" stroke="black" points="1925.3,-285.921 1926.81,-296.408 1932.17,-287.268 1925.3,-285.921"/>
</g>
<!-- n63897621413&#45;&gt;n63970774580 -->
<g id="edge124" class="edge"><title>n63897621413&#45;&gt;n63970774580</title>
<path fill="none" stroke="black" d="M1907.31,-175.852C1890.64,-179.102 1871.55,-182.774 1854.17,-186 1755.51,-204.314 1638.94,-224.644 1580.88,-234.682"/>
<polygon fill="black" stroke="black" points="1579.99,-231.283 1570.74,-236.434 1581.18,-238.181 1579.99,-231.283"/>
</g>
<!-- n63921165212&#45;&gt;n133339976 -->
<g id="edge130" class="edge"><title>n63921165212&#45;&gt;n133339976</title>
<path fill="none" stroke="black" d="M694.225,-110.913C685.648,-119.98 675.08,-131.153 665.638,-141.133"/>
<polygon fill="black" stroke="black" points="663.019,-138.809 658.69,-148.479 668.105,-143.619 663.019,-138.809"/>
</g>
<!-- n63921165212&#45;&gt;n81773484321 -->
<g id="edge128" class="edge"><title>n63921165212&#45;&gt;n81773484321</title>
<path fill="none" stroke="black" d="M743.39,-109.082C758.086,-118.284 774.002,-131.34 782.17,-148 789.605,-163.164 788.603,-170.384 782.17,-186 762.343,-234.13 714.906,-273.804 683.683,-295.929"/>
<polygon fill="black" stroke="black" points="681.577,-293.13 675.343,-301.697 685.559,-298.888 681.577,-293.13"/>
</g>
<!-- n63970774580&#45;&gt;n127258416 -->
<g id="edge132" class="edge"><title>n63970774580&#45;&gt;n127258416</title>
<path fill="none" stroke="black" d="M1562.04,-254.919C1576.04,-265.829 1595.77,-281.196 1611.77,-293.657"/>
<polygon fill="black" stroke="black" points="1609.71,-296.486 1619.75,-299.87 1614.01,-290.964 1609.71,-296.486"/>
</g>
<!-- n63970774580&#45;&gt;n127258464 -->
<g id="edge134" class="edge"><title>n63970774580&#45;&gt;n127258464</title>
<path fill="none" stroke="black" d="M1567.96,-250.467C1595.31,-261.37 1641.53,-279.857 1681.17,-296 1683.71,-297.034 1686.32,-298.103 1688.96,-299.183"/>
<polygon fill="black" stroke="black" points="1687.9,-302.532 1698.48,-303.098 1690.56,-296.058 1687.9,-302.532"/>
</g>
<!-- n63970774580&#45;&gt;n127258488 -->
<g id="edge136" class="edge"><title>n63970774580&#45;&gt;n127258488</title>
<path fill="none" stroke="black" d="M1571.16,-243.173C1628.73,-248.298 1767.47,-263.252 1879.17,-296 1883.3,-297.211 1887.56,-298.709 1891.73,-300.329"/>
<polygon fill="black" stroke="black" points="1890.6,-303.65 1901.18,-304.249 1893.28,-297.184 1890.6,-303.65"/>
</g>
<!-- n63970774580&#45;&gt;n129069000 -->
<g id="edge138" class="edge"><title>n63970774580&#45;&gt;n129069000</title>
<path fill="none" stroke="black" d="M1520.56,-250.674C1505.99,-260.123 1489.78,-274.942 1478.88,-287.977"/>
<polygon fill="black" stroke="black" points="1475.87,-286.146 1472.56,-296.21 1481.43,-290.409 1475.87,-286.146"/>
</g>
<!-- n63970774580&#45;&gt;n129069000 -->
<g id="edge140" class="edge"><title>n63970774580&#45;&gt;n129069000</title>
<path fill="none" stroke="black" d="M1525.6,-254.573C1514.97,-264.133 1501.85,-277.238 1491.17,-288.801"/>
<polygon fill="black" stroke="black" points="1488.33,-286.725 1484.24,-296.497 1493.53,-291.412 1488.33,-286.725"/>
</g>
<!-- n63970774580&#45;&gt;n129069000 -->
<g id="edge142" class="edge"><title>n63970774580&#45;&gt;n129069000</title>
<path fill="none" stroke="black" d="M1533.27,-258.163C1525.15,-267.53 1513.91,-279.304 1503.22,-289.703"/>
<polygon fill="black" stroke="black" points="1500.78,-287.2 1495.96,-296.637 1505.61,-292.264 1500.78,-287.2"/>
</g>
<!-- n63970774580&#45;&gt;n129069000 -->
<g id="edge144" class="edge"><title>n63970774580&#45;&gt;n129069000</title>
<path fill="none" stroke="black" d="M1543.86,-259.673C1537.38,-269.086 1526.59,-280.616 1514.95,-290.71"/>
<polygon fill="black" stroke="black" points="1512.7,-288.031 1507.22,-297.098 1517.16,-293.428 1512.7,-288.031"/>
</g>
<!-- n64010072112 -->
<g id="node38" class="node"><title>n64010072112</title>
<ellipse fill="none" stroke="black" cx="2116.17" cy="-19" rx="120.208" ry="18.3848"/>
<text text-anchor="middle" x="2116.17" y="-15.4" font-family="Times Roman,serif" font-size="14.00">is_function_ptr_helper</text>
</g>
<!-- n64010072112&#45;&gt;n133314528 -->
<g id="edge146" class="edge"><title>n64010072112&#45;&gt;n133314528</title>
<path fill="none" stroke="black" d="M2116.17,-37.6733C2116.17,-45.7361 2116.17,-55.3523 2116.17,-64.2885"/>
<polygon fill="black" stroke="black" points="2112.67,-64.3326 2116.17,-74.3326 2119.67,-64.3327 2112.67,-64.3326"/>
</g>
</g>
</svg>
