<?xml version="1.0" encoding="UTF-8" standalone="no"?>
<!DOCTYPE svg PUBLIC "-//W3C//DTD SVG 1.1//EN"
 "http://www.w3.org/Graphics/SVG/1.1/DTD/svg11.dtd">
<!-- Generated by graphviz version 2.26.3 (20100126.1600)
 -->
<!-- Title: _anonymous_0 Pages: 1 -->
<svg width="2760pt" height="342pt"
 viewBox="0.00 0.00 2760.00 342.00" xmlns="http://www.w3.org/2000/svg" xmlns:xlink="http://www.w3.org/1999/xlink">
<g id="graph1" class="graph" transform="scale(1 1) rotate(0) translate(4 338)">
<title>_anonymous_0</title>
<polygon fill="white" stroke="white" points="-4,5 -4,-338 2757,-338 2757,5 -4,5"/>
<!-- n138510104 -->
<g id="node1" class="node"><title>n138510104</title>
<ellipse fill="none" stroke="black" cx="555" cy="-241" rx="38.1838" ry="18.3848"/>
<text text-anchor="middle" x="555" y="-237.4" font-family="Times Roman,serif" font-size="14.00">_Bool</text>
</g>
<!-- n138510392 -->
<g id="node2" class="node"><title>n138510392</title>
<ellipse fill="none" stroke="black" cx="626" cy="-167" rx="33.234" ry="18.3848"/>
<text text-anchor="middle" x="626" y="-163.4" font-family="Times Roman,serif" font-size="14.00">float</text>
</g>
<!-- n140142344 -->
<g id="node3" class="node"><title>n140142344</title>
<ellipse fill="none" stroke="black" cx="952" cy="-241" rx="84.8528" ry="18.3848"/>
<text text-anchor="middle" x="952" y="-237.4" font-family="Times Roman,serif" font-size="14.00">struct mpl_::na</text>
</g>
<!-- n143725304 -->
<g id="node4" class="node"><title>n143725304</title>
<ellipse fill="none" stroke="black" cx="1150" cy="-93" rx="41.2167" ry="18.3848"/>
<text text-anchor="middle" x="1150" y="-89.4" font-family="Times Roman,serif" font-size="14.00">float *</text>
</g>
<!-- n143763072 -->
<g id="node5" class="node"><title>n143763072</title>
<ellipse fill="none" stroke="black" cx="396" cy="-93" rx="43.8406" ry="18.3848"/>
<text text-anchor="middle" x="396" y="-89.4" font-family="Times Roman,serif" font-size="14.00">float &amp;</text>
</g>
<!-- n143797544 -->
<g id="node6" class="node"><title>n143797544</title>
<ellipse fill="none" stroke="black" cx="1320" cy="-93" rx="70.9184" ry="18.3848"/>
<text text-anchor="middle" x="1320" y="-89.4" font-family="Times Roman,serif" font-size="14.00">const float *</text>
</g>
<!-- n143813296 -->
<g id="node7" class="node"><title>n143813296</title>
<ellipse fill="none" stroke="black" cx="531" cy="-93" rx="73.0388" ry="18.3848"/>
<text text-anchor="middle" x="531" y="-89.4" font-family="Times Roman,serif" font-size="14.00">const float &amp;</text>
</g>
<!-- n69331391 -->
<g id="node8" class="node"><title>n69331391</title>
<ellipse fill="none" stroke="black" cx="1492" cy="-19" rx="77.9889" ry="18.3848"/>
<text text-anchor="middle" x="1492" y="-15.4" font-family="Times Roman,serif" font-size="14.00">weighted_tag</text>
</g>
<!-- n82966151721 -->
<g id="node44" class="node"><title>n82966151721</title>
<ellipse fill="none" stroke="black" cx="1492" cy="-93" rx="29.9071" ry="18.3848"/>
<text text-anchor="middle" x="1492" y="-89.4" font-family="Times Roman,serif" font-size="14.00">0x5</text>
</g>
<!-- n69331391&#45;&gt;n82966151721 -->
<g id="edge2" class="edge"><title>n69331391&#45;&gt;n82966151721</title>
<path fill="none" stroke="black" d="M1492,-37.6733C1492,-45.7361 1492,-55.3523 1492,-64.2885"/>
<polygon fill="black" stroke="black" points="1488.5,-64.3326 1492,-74.3326 1495.5,-64.3327 1488.5,-64.3326"/>
</g>
<!-- n632588726 -->
<g id="node9" class="node"><title>n632588726</title>
<ellipse fill="none" stroke="black" cx="1618" cy="-19" rx="29.9071" ry="18.3848"/>
<text text-anchor="middle" x="1618" y="-15.4" font-family="Times Roman,serif" font-size="14.00">int_</text>
</g>
<!-- n84069829297 -->
<g id="node46" class="node"><title>n84069829297</title>
<ellipse fill="none" stroke="black" cx="1618" cy="-93" rx="29.9071" ry="18.3848"/>
<text text-anchor="middle" x="1618" y="-89.4" font-family="Times Roman,serif" font-size="14.00">0x2</text>
</g>
<!-- n632588726&#45;&gt;n84069829297 -->
<g id="edge4" class="edge"><title>n632588726&#45;&gt;n84069829297</title>
<path fill="none" stroke="black" d="M1618,-37.6733C1618,-45.7361 1618,-55.3523 1618,-64.2885"/>
<polygon fill="black" stroke="black" points="1614.5,-64.3326 1618,-74.3326 1621.5,-64.3327 1614.5,-64.3326"/>
</g>
<!-- n6149689315 -->
<g id="node10" class="node"><title>n6149689315</title>
<ellipse fill="none" stroke="black" cx="952" cy="-167" rx="36.7696" ry="18.3848"/>
<text text-anchor="middle" x="952" y="-163.4" font-family="Times Roman,serif" font-size="14.00">is_na</text>
</g>
<!-- n6149689315&#45;&gt;n140142344 -->
<g id="edge6" class="edge"><title>n6149689315&#45;&gt;n140142344</title>
<path fill="none" stroke="black" d="M952,-185.673C952,-193.736 952,-203.352 952,-212.289"/>
<polygon fill="black" stroke="black" points="948.5,-212.333 952,-222.333 955.5,-212.333 948.5,-212.333"/>
</g>
<!-- n61123786778 -->
<g id="node16" class="node"><title>n61123786778</title>
<ellipse fill="none" stroke="black" cx="812" cy="-241" rx="36.977" ry="18.3848"/>
<text text-anchor="middle" x="812" y="-237.4" font-family="Times Roman,serif" font-size="14.00">bool_</text>
</g>
<!-- n6149689315&#45;&gt;n61123786778 -->
<g id="edge8" class="edge"><title>n6149689315&#45;&gt;n61123786778</title>
<path fill="none" stroke="black" d="M926.322,-180.573C903.923,-192.412 871.238,-209.688 846.548,-222.739"/>
<polygon fill="black" stroke="black" points="844.721,-219.746 837.515,-227.513 847.992,-225.935 844.721,-219.746"/>
</g>
<!-- n6629250058 -->
<g id="node11" class="node"><title>n6629250058</title>
<ellipse fill="none" stroke="black" cx="1744" cy="-19" rx="77.9889" ry="18.3848"/>
<text text-anchor="middle" x="1744" y="-15.4" font-family="Times Roman,serif" font-size="14.00">weighted_tag</text>
</g>
<!-- n83885814627 -->
<g id="node45" class="node"><title>n83885814627</title>
<ellipse fill="none" stroke="black" cx="1744" cy="-93" rx="29.9071" ry="18.3848"/>
<text text-anchor="middle" x="1744" y="-89.4" font-family="Times Roman,serif" font-size="14.00">0x2</text>
</g>
<!-- n6629250058&#45;&gt;n83885814627 -->
<g id="edge10" class="edge"><title>n6629250058&#45;&gt;n83885814627</title>
<path fill="none" stroke="black" d="M1744,-37.6733C1744,-45.7361 1744,-55.3523 1744,-64.2885"/>
<polygon fill="black" stroke="black" points="1740.5,-64.3326 1744,-74.3326 1747.5,-64.3327 1740.5,-64.3326"/>
</g>
<!-- n6691228768 -->
<g id="node12" class="node"><title>n6691228768</title>
<ellipse fill="none" stroke="black" cx="582" cy="-19" rx="33.234" ry="18.3848"/>
<text text-anchor="middle" x="582" y="-15.4" font-family="Times Roman,serif" font-size="14.00">strip</text>
</g>
<!-- n6691228768&#45;&gt;n143813296 -->
<g id="edge12" class="edge"><title>n6691228768&#45;&gt;n143813296</title>
<path fill="none" stroke="black" d="M569.914,-36.537C563.808,-45.3961 556.268,-56.3364 549.456,-66.2207"/>
<polygon fill="black" stroke="black" points="546.504,-64.3362 543.711,-74.5563 552.268,-68.3085 546.504,-64.3362"/>
</g>
<!-- n61930567958 -->
<g id="node22" class="node"><title>n61930567958</title>
<ellipse fill="none" stroke="black" cx="655" cy="-93" rx="33.234" ry="18.3848"/>
<text text-anchor="middle" x="655" y="-89.4" font-family="Times Roman,serif" font-size="14.00">strip</text>
</g>
<!-- n6691228768&#45;&gt;n61930567958 -->
<g id="edge14" class="edge"><title>n6691228768&#45;&gt;n61930567958</title>
<path fill="none" stroke="black" d="M598.201,-35.423C608.03,-45.3867 620.739,-58.2695 631.642,-69.322"/>
<polygon fill="black" stroke="black" points="629.33,-71.9619 638.844,-76.6229 634.313,-67.0459 629.33,-71.9619"/>
</g>
<!-- n6861622361 -->
<g id="node13" class="node"><title>n6861622361</title>
<ellipse fill="none" stroke="black" cx="1150" cy="-19" rx="75.8684" ry="18.3848"/>
<text text-anchor="middle" x="1150" y="-15.4" font-family="Times Roman,serif" font-size="14.00">cv_traits_imp</text>
</g>
<!-- n6861622361&#45;&gt;n143725304 -->
<g id="edge16" class="edge"><title>n6861622361&#45;&gt;n143725304</title>
<path fill="none" stroke="black" d="M1150,-37.6733C1150,-45.7361 1150,-55.3523 1150,-64.2885"/>
<polygon fill="black" stroke="black" points="1146.5,-64.3326 1150,-74.3326 1153.5,-64.3327 1146.5,-64.3326"/>
</g>
<!-- n6908613041 -->
<g id="node14" class="node"><title>n6908613041</title>
<ellipse fill="none" stroke="black" cx="1870" cy="-19" rx="29.9071" ry="18.3848"/>
<text text-anchor="middle" x="1870" y="-15.4" font-family="Times Roman,serif" font-size="14.00">int_</text>
</g>
<!-- n8176765527 -->
<g id="node34" class="node"><title>n8176765527</title>
<ellipse fill="none" stroke="black" cx="1870" cy="-93" rx="29.9071" ry="18.3848"/>
<text text-anchor="middle" x="1870" y="-89.4" font-family="Times Roman,serif" font-size="14.00">0x0</text>
</g>
<!-- n6908613041&#45;&gt;n8176765527 -->
<g id="edge18" class="edge"><title>n6908613041&#45;&gt;n8176765527</title>
<path fill="none" stroke="black" d="M1870,-37.6733C1870,-45.7361 1870,-55.3523 1870,-64.2885"/>
<polygon fill="black" stroke="black" points="1866.5,-64.3326 1870,-74.3326 1873.5,-64.3327 1866.5,-64.3326"/>
</g>
<!-- n61029503121 -->
<g id="node15" class="node"><title>n61029503121</title>
<ellipse fill="none" stroke="black" cx="1320" cy="-19" rx="75.8684" ry="18.3848"/>
<text text-anchor="middle" x="1320" y="-15.4" font-family="Times Roman,serif" font-size="14.00">cv_traits_imp</text>
</g>
<!-- n61029503121&#45;&gt;n143797544 -->
<g id="edge20" class="edge"><title>n61029503121&#45;&gt;n143797544</title>
<path fill="none" stroke="black" d="M1320,-37.6733C1320,-45.7361 1320,-55.3523 1320,-64.2885"/>
<polygon fill="black" stroke="black" points="1316.5,-64.3326 1320,-74.3326 1323.5,-64.3327 1316.5,-64.3326"/>
</g>
<!-- n81030972443 -->
<g id="node36" class="node"><title>n81030972443</title>
<ellipse fill="none" stroke="black" cx="779" cy="-315" rx="29.9071" ry="18.3848"/>
<text text-anchor="middle" x="779" y="-311.4" font-family="Times Roman,serif" font-size="14.00">0x1</text>
</g>
<!-- n61123786778&#45;&gt;n81030972443 -->
<g id="edge22" class="edge"><title>n61123786778&#45;&gt;n81030972443</title>
<path fill="none" stroke="black" d="M803.843,-259.292C800.046,-267.805 795.45,-278.112 791.249,-287.533"/>
<polygon fill="black" stroke="black" points="787.94,-286.36 787.063,-296.918 794.333,-289.211 787.94,-286.36"/>
</g>
<!-- n61128915127 -->
<g id="node17" class="node"><title>n61128915127</title>
<ellipse fill="none" stroke="black" cx="1948" cy="-19" rx="29.9071" ry="18.3848"/>
<text text-anchor="middle" x="1948" y="-15.4" font-family="Times Roman,serif" font-size="14.00">int_</text>
</g>
<!-- n82270295475 -->
<g id="node41" class="node"><title>n82270295475</title>
<ellipse fill="none" stroke="black" cx="1948" cy="-93" rx="29.9071" ry="18.3848"/>
<text text-anchor="middle" x="1948" y="-89.4" font-family="Times Roman,serif" font-size="14.00">0x1</text>
</g>
<!-- n61128915127&#45;&gt;n82270295475 -->
<g id="edge24" class="edge"><title>n61128915127&#45;&gt;n82270295475</title>
<path fill="none" stroke="black" d="M1948,-37.6733C1948,-45.7361 1948,-55.3523 1948,-64.2885"/>
<polygon fill="black" stroke="black" points="1944.5,-64.3326 1948,-74.3326 1951.5,-64.3327 1944.5,-64.3326"/>
</g>
<!-- n61144386084 -->
<g id="node18" class="node"><title>n61144386084</title>
<ellipse fill="none" stroke="black" cx="297" cy="-241" rx="36.977" ry="18.3848"/>
<text text-anchor="middle" x="297" y="-237.4" font-family="Times Roman,serif" font-size="14.00">bool_</text>
</g>
<!-- n81773484321 -->
<g id="node39" class="node"><title>n81773484321</title>
<ellipse fill="none" stroke="black" cx="297" cy="-315" rx="29.9071" ry="18.3848"/>
<text text-anchor="middle" x="297" y="-311.4" font-family="Times Roman,serif" font-size="14.00">0x0</text>
</g>
<!-- n61144386084&#45;&gt;n81773484321 -->
<g id="edge26" class="edge"><title>n61144386084&#45;&gt;n81773484321</title>
<path fill="none" stroke="black" d="M297,-259.673C297,-267.736 297,-277.352 297,-286.289"/>
<polygon fill="black" stroke="black" points="293.5,-286.333 297,-296.333 300.5,-286.333 293.5,-286.333"/>
</g>
<!-- n61318911634 -->
<g id="node19" class="node"><title>n61318911634</title>
<ellipse fill="none" stroke="black" cx="339" cy="-19" rx="33.234" ry="18.3848"/>
<text text-anchor="middle" x="339" y="-15.4" font-family="Times Roman,serif" font-size="14.00">strip</text>
</g>
<!-- n61318911634&#45;&gt;n143763072 -->
<g id="edge28" class="edge"><title>n61318911634&#45;&gt;n143763072</title>
<path fill="none" stroke="black" d="M352.22,-36.1631C359.26,-45.3027 368.066,-56.735 375.931,-66.9453"/>
<polygon fill="black" stroke="black" points="373.381,-69.371 382.256,-75.1574 378.927,-65.0993 373.381,-69.371"/>
</g>
<!-- n62734736580 -->
<g id="node26" class="node"><title>n62734736580</title>
<ellipse fill="none" stroke="black" cx="283" cy="-93" rx="33.234" ry="18.3848"/>
<text text-anchor="middle" x="283" y="-89.4" font-family="Times Roman,serif" font-size="14.00">strip</text>
</g>
<!-- n61318911634&#45;&gt;n62734736580 -->
<g id="edge30" class="edge"><title>n61318911634&#45;&gt;n62734736580</title>
<path fill="none" stroke="black" d="M326.012,-36.1631C318.873,-45.5962 309.886,-57.4717 301.976,-67.9252"/>
<polygon fill="black" stroke="black" points="299.161,-65.8438 295.918,-75.93 304.743,-70.068 299.161,-65.8438"/>
</g>
<!-- n61447238939 -->
<g id="node20" class="node"><title>n61447238939</title>
<ellipse fill="none" stroke="black" cx="1008" cy="-93" rx="82.939" ry="18.3848"/>
<text text-anchor="middle" x="1008" y="-89.4" font-family="Times Roman,serif" font-size="14.00">template_arity</text>
</g>
<!-- n61447238939&#45;&gt;n6149689315 -->
<g id="edge32" class="edge"><title>n61447238939&#45;&gt;n6149689315</title>
<path fill="none" stroke="black" d="M994.157,-111.292C987.224,-120.454 978.719,-131.693 971.169,-141.67"/>
<polygon fill="black" stroke="black" points="968.35,-139.595 965.106,-149.681 973.932,-143.819 968.35,-139.595"/>
</g>
<!-- n62673518828 -->
<g id="node25" class="node"><title>n62673518828</title>
<ellipse fill="none" stroke="black" cx="1063" cy="-167" rx="29.9071" ry="18.3848"/>
<text text-anchor="middle" x="1063" y="-163.4" font-family="Times Roman,serif" font-size="14.00">int_</text>
</g>
<!-- n61447238939&#45;&gt;n62673518828 -->
<g id="edge34" class="edge"><title>n61447238939&#45;&gt;n62673518828</title>
<path fill="none" stroke="black" d="M1021.6,-111.292C1028.45,-120.521 1036.88,-131.857 1044.34,-141.888"/>
<polygon fill="black" stroke="black" points="1041.54,-143.995 1050.31,-149.933 1047.16,-139.819 1041.54,-143.995"/>
</g>
<!-- n61463550565 -->
<g id="node21" class="node"><title>n61463550565</title>
<ellipse fill="none" stroke="black" cx="2074" cy="-19" rx="77.9889" ry="18.3848"/>
<text text-anchor="middle" x="2074" y="-15.4" font-family="Times Roman,serif" font-size="14.00">weighted_tag</text>
</g>
<!-- n82221953453 -->
<g id="node40" class="node"><title>n82221953453</title>
<ellipse fill="none" stroke="black" cx="2074" cy="-93" rx="29.9071" ry="18.3848"/>
<text text-anchor="middle" x="2074" y="-89.4" font-family="Times Roman,serif" font-size="14.00">0x6</text>
</g>
<!-- n61463550565&#45;&gt;n82221953453 -->
<g id="edge36" class="edge"><title>n61463550565&#45;&gt;n82221953453</title>
<path fill="none" stroke="black" d="M2074,-37.6733C2074,-45.7361 2074,-55.3523 2074,-64.2885"/>
<polygon fill="black" stroke="black" points="2070.5,-64.3326 2074,-74.3326 2077.5,-64.3327 2070.5,-64.3326"/>
</g>
<!-- n61930567958&#45;&gt;n138510392 -->
<g id="edge38" class="edge"><title>n61930567958&#45;&gt;n138510392</title>
<path fill="none" stroke="black" d="M647.831,-111.292C644.495,-119.805 640.456,-130.112 636.764,-139.533"/>
<polygon fill="black" stroke="black" points="633.476,-138.331 633.086,-148.918 639.994,-140.885 633.476,-138.331"/>
</g>
<!-- n61930567958&#45;&gt;n61930567958 -->
<g id="edge40" class="edge"><title>n61930567958&#45;&gt;n61930567958</title>
<path fill="none" stroke="black" d="M678.607,-79.9922C692.719,-77.1016 706,-81.4375 706,-93 706,-101.672 698.529,-106.279 688.841,-106.821"/>
<polygon fill="black" stroke="black" points="688.853,-103.311 678.607,-106.008 688.299,-110.289 688.853,-103.311"/>
</g>
<!-- n62016567551 -->
<g id="node23" class="node"><title>n62016567551</title>
<ellipse fill="none" stroke="black" cx="2248" cy="-19" rx="77.9889" ry="18.3848"/>
<text text-anchor="middle" x="2248" y="-15.4" font-family="Times Roman,serif" font-size="14.00">weighted_tag</text>
</g>
<!-- n81072357793 -->
<g id="node37" class="node"><title>n81072357793</title>
<ellipse fill="none" stroke="black" cx="2248" cy="-93" rx="29.9071" ry="18.3848"/>
<text text-anchor="middle" x="2248" y="-89.4" font-family="Times Roman,serif" font-size="14.00">0x1</text>
</g>
<!-- n62016567551&#45;&gt;n81072357793 -->
<g id="edge42" class="edge"><title>n62016567551&#45;&gt;n81072357793</title>
<path fill="none" stroke="black" d="M2248,-37.6733C2248,-45.7361 2248,-55.3523 2248,-64.2885"/>
<polygon fill="black" stroke="black" points="2244.5,-64.3326 2248,-74.3326 2251.5,-64.3327 2244.5,-64.3326"/>
</g>
<!-- n62419024378 -->
<g id="node24" class="node"><title>n62419024378</title>
<ellipse fill="none" stroke="black" cx="2374" cy="-19" rx="29.9071" ry="18.3848"/>
<text text-anchor="middle" x="2374" y="-15.4" font-family="Times Roman,serif" font-size="14.00">int_</text>
</g>
<!-- n81303797509 -->
<g id="node38" class="node"><title>n81303797509</title>
<ellipse fill="none" stroke="black" cx="2374" cy="-93" rx="33.9411" ry="18.3848"/>
<text text-anchor="middle" x="2374" y="-89.4" font-family="Times Roman,serif" font-size="14.00">0x&#45;2</text>
</g>
<!-- n62419024378&#45;&gt;n81303797509 -->
<g id="edge44" class="edge"><title>n62419024378&#45;&gt;n81303797509</title>
<path fill="none" stroke="black" d="M2374,-37.6733C2374,-45.7361 2374,-55.3523 2374,-64.2885"/>
<polygon fill="black" stroke="black" points="2370.5,-64.3326 2374,-74.3326 2377.5,-64.3327 2370.5,-64.3326"/>
</g>
<!-- n82628043642 -->
<g id="node42" class="node"><title>n82628043642</title>
<ellipse fill="none" stroke="black" cx="1089" cy="-241" rx="33.9411" ry="18.3848"/>
<text text-anchor="middle" x="1089" y="-237.4" font-family="Times Roman,serif" font-size="14.00">0x&#45;1</text>
</g>
<!-- n62673518828&#45;&gt;n82628043642 -->
<g id="edge46" class="edge"><title>n62673518828&#45;&gt;n82628043642</title>
<path fill="none" stroke="black" d="M1069.43,-185.292C1072.36,-193.653 1075.91,-203.743 1079.17,-213.026"/>
<polygon fill="black" stroke="black" points="1075.94,-214.387 1082.56,-222.662 1082.54,-212.067 1075.94,-214.387"/>
</g>
<!-- n62734736580&#45;&gt;n138510392 -->
<g id="edge48" class="edge"><title>n62734736580&#45;&gt;n138510392</title>
<path fill="none" stroke="black" d="M311.193,-102.662C321.169,-105.885 332.517,-109.331 343,-112 427.527,-133.522 528.115,-151.229 583.728,-160.342"/>
<polygon fill="black" stroke="black" points="583.472,-163.847 593.904,-161.996 584.595,-156.937 583.472,-163.847"/>
</g>
<!-- n62734736580&#45;&gt;n62734736580 -->
<g id="edge50" class="edge"><title>n62734736580&#45;&gt;n62734736580</title>
<path fill="none" stroke="black" d="M306.607,-79.9922C320.719,-77.1016 334,-81.4375 334,-93 334,-101.672 326.529,-106.279 316.841,-106.821"/>
<polygon fill="black" stroke="black" points="316.853,-103.311 306.607,-106.008 316.299,-110.289 316.853,-103.311"/>
</g>
<!-- n62788965992 -->
<g id="node27" class="node"><title>n62788965992</title>
<ellipse fill="none" stroke="black" cx="362" cy="-167" rx="96.8736" ry="18.3848"/>
<text text-anchor="middle" x="362" y="-163.4" font-family="Times Roman,serif" font-size="14.00">integral_constant</text>
</g>
<!-- n62788965992&#45;&gt;n138510104 -->
<g id="edge52" class="edge"><title>n62788965992&#45;&gt;n138510104</title>
<path fill="none" stroke="black" d="M405.313,-183.607C438.349,-196.274 483.479,-213.577 515.525,-225.865"/>
<polygon fill="black" stroke="black" points="514.432,-229.194 525.022,-229.506 516.938,-222.658 514.432,-229.194"/>
</g>
<!-- n62788965992&#45;&gt;n61144386084 -->
<g id="edge56" class="edge"><title>n62788965992&#45;&gt;n61144386084</title>
<path fill="none" stroke="black" d="M345.933,-185.292C337.745,-194.613 327.67,-206.084 318.794,-216.189"/>
<polygon fill="black" stroke="black" points="315.961,-214.11 311.991,-223.933 321.22,-218.73 315.961,-214.11"/>
</g>
<!-- n62788965992&#45;&gt;n81773484321 -->
<g id="edge54" class="edge"><title>n62788965992&#45;&gt;n81773484321</title>
<path fill="none" stroke="black" d="M360.884,-185.681C359.119,-205.096 354.589,-235.95 343,-260 337.483,-271.449 329.051,-282.513 320.905,-291.679"/>
<polygon fill="black" stroke="black" points="318.151,-289.502 313.902,-299.208 323.276,-294.27 318.151,-289.502"/>
</g>
<!-- n62935119910 -->
<g id="node28" class="node"><title>n62935119910</title>
<ellipse fill="none" stroke="black" cx="774" cy="-93" rx="50.2046" ry="18.3848"/>
<text text-anchor="middle" x="774" y="-89.4" font-family="Times Roman,serif" font-size="14.00">is_same</text>
</g>
<!-- n62935119910&#45;&gt;n138510392 -->
<g id="edge58" class="edge"><title>n62935119910&#45;&gt;n138510392</title>
<path fill="none" stroke="black" d="M740.751,-106.919C715.703,-118.65 681.755,-135.536 657.216,-148.42"/>
<polygon fill="black" stroke="black" points="655.504,-145.366 648.31,-153.144 658.784,-151.55 655.504,-145.366"/>
</g>
<!-- n62935119910&#45;&gt;n138510392 -->
<g id="edge60" class="edge"><title>n62935119910&#45;&gt;n138510392</title>
<path fill="none" stroke="black" d="M747.908,-108.875C724.117,-121.508 688.95,-139.082 662.42,-151.591"/>
<polygon fill="black" stroke="black" points="660.655,-148.552 653.073,-155.952 663.615,-154.896 660.655,-148.552"/>
</g>
<!-- n63291356810 -->
<g id="node31" class="node"><title>n63291356810</title>
<ellipse fill="none" stroke="black" cx="774" cy="-167" rx="96.8736" ry="18.3848"/>
<text text-anchor="middle" x="774" y="-163.4" font-family="Times Roman,serif" font-size="14.00">integral_constant</text>
</g>
<!-- n62935119910&#45;&gt;n63291356810 -->
<g id="edge62" class="edge"><title>n62935119910&#45;&gt;n63291356810</title>
<path fill="none" stroke="black" d="M774,-111.673C774,-119.736 774,-129.352 774,-138.289"/>
<polygon fill="black" stroke="black" points="770.5,-138.333 774,-148.333 777.5,-138.333 770.5,-138.333"/>
</g>
<!-- n62949718517 -->
<g id="node29" class="node"><title>n62949718517</title>
<ellipse fill="none" stroke="black" cx="2500" cy="-19" rx="77.9889" ry="18.3848"/>
<text text-anchor="middle" x="2500" y="-15.4" font-family="Times Roman,serif" font-size="14.00">weighted_tag</text>
</g>
<!-- n82889331972 -->
<g id="node43" class="node"><title>n82889331972</title>
<ellipse fill="none" stroke="black" cx="2500" cy="-93" rx="29.9071" ry="18.3848"/>
<text text-anchor="middle" x="2500" y="-89.4" font-family="Times Roman,serif" font-size="14.00">0x4</text>
</g>
<!-- n62949718517&#45;&gt;n82889331972 -->
<g id="edge64" class="edge"><title>n62949718517&#45;&gt;n82889331972</title>
<path fill="none" stroke="black" d="M2500,-37.6733C2500,-45.7361 2500,-55.3523 2500,-64.2885"/>
<polygon fill="black" stroke="black" points="2496.5,-64.3326 2500,-74.3326 2503.5,-64.3327 2496.5,-64.3326"/>
</g>
<!-- n63112808744 -->
<g id="node30" class="node"><title>n63112808744</title>
<ellipse fill="none" stroke="black" cx="2674" cy="-19" rx="77.9889" ry="18.3848"/>
<text text-anchor="middle" x="2674" y="-15.4" font-family="Times Roman,serif" font-size="14.00">weighted_tag</text>
</g>
<!-- n8835241951 -->
<g id="node35" class="node"><title>n8835241951</title>
<ellipse fill="none" stroke="black" cx="2674" cy="-93" rx="29.9071" ry="18.3848"/>
<text text-anchor="middle" x="2674" y="-89.4" font-family="Times Roman,serif" font-size="14.00">0x3</text>
</g>
<!-- n63112808744&#45;&gt;n8835241951 -->
<g id="edge66" class="edge"><title>n63112808744&#45;&gt;n8835241951</title>
<path fill="none" stroke="black" d="M2674,-37.6733C2674,-45.7361 2674,-55.3523 2674,-64.2885"/>
<polygon fill="black" stroke="black" points="2670.5,-64.3326 2674,-74.3326 2677.5,-64.3327 2670.5,-64.3326"/>
</g>
<!-- n63291356810&#45;&gt;n138510104 -->
<g id="edge68" class="edge"><title>n63291356810&#45;&gt;n138510104</title>
<path fill="none" stroke="black" d="M726.21,-183.148C687.441,-196.248 633.349,-214.526 596.405,-227.009"/>
<polygon fill="black" stroke="black" points="594.82,-223.85 586.467,-230.367 597.061,-230.482 594.82,-223.85"/>
</g>
<!-- n63291356810&#45;&gt;n61123786778 -->
<g id="edge72" class="edge"><title>n63291356810&#45;&gt;n61123786778</title>
<path fill="none" stroke="black" d="M783.589,-185.673C787.975,-194.215 793.257,-204.5 798.07,-213.874"/>
<polygon fill="black" stroke="black" points="794.995,-215.547 802.677,-222.844 801.222,-212.35 794.995,-215.547"/>
</g>
<!-- n63291356810&#45;&gt;n81030972443 -->
<g id="edge70" class="edge"><title>n63291356810&#45;&gt;n81030972443</title>
<path fill="none" stroke="black" d="M770.202,-185.561C766.873,-204.356 762.998,-234.246 766,-260 767.026,-268.799 768.945,-278.233 771,-286.76"/>
<polygon fill="black" stroke="black" points="767.65,-287.788 773.523,-296.606 774.431,-286.05 767.65,-287.788"/>
</g>
<!-- n63520065640 -->
<g id="node32" class="node"><title>n63520065640</title>
<ellipse fill="none" stroke="black" cx="774" cy="-19" rx="89.8026" ry="18.3848"/>
<text text-anchor="middle" x="774" y="-15.4" font-family="Times Roman,serif" font-size="14.00">assert_arg_pred</text>
</g>
<!-- n63520065640&#45;&gt;n62935119910 -->
<g id="edge74" class="edge"><title>n63520065640&#45;&gt;n62935119910</title>
<path fill="none" stroke="black" d="M774,-37.6733C774,-45.7361 774,-55.3523 774,-64.2885"/>
<polygon fill="black" stroke="black" points="770.5,-64.3326 774,-74.3326 777.5,-64.3327 770.5,-64.3326"/>
</g>
<!-- n64293228220 -->
<g id="node33" class="node"><title>n64293228220</title>
<ellipse fill="none" stroke="black" cx="116" cy="-93" rx="115.966" ry="18.3848"/>
<text text-anchor="middle" x="116" y="-89.4" font-family="Times Roman,serif" font-size="14.00">remove_const_helper</text>
</g>
<!-- n64293228220&#45;&gt;n138510392 -->
<g id="edge76" class="edge"><title>n64293228220&#45;&gt;n138510392</title>
<path fill="none" stroke="black" d="M199.696,-105.828C213.492,-107.912 227.645,-110.031 241,-112 365.37,-130.335 512.487,-151.094 583.473,-161.051"/>
<polygon fill="black" stroke="black" points="583.401,-164.575 593.79,-162.498 584.372,-157.643 583.401,-164.575"/>
</g>
<!-- n64293228220&#45;&gt;n81773484321 -->
<g id="edge78" class="edge"><title>n64293228220&#45;&gt;n81773484321</title>
<path fill="none" stroke="black" d="M130.882,-111.616C155.649,-142.55 206.958,-206.439 251,-260 259.194,-269.965 268.293,-280.876 276.221,-290.334"/>
<polygon fill="black" stroke="black" points="273.724,-292.802 282.834,-298.211 279.085,-288.301 273.724,-292.802"/>
</g>
</g>
</svg>
