<?xml version="1.0" encoding="UTF-8" standalone="no"?>
<!DOCTYPE svg PUBLIC "-//W3C//DTD SVG 1.1//EN"
 "http://www.w3.org/Graphics/SVG/1.1/DTD/svg11.dtd">
<!-- Generated by graphviz version 2.26.3 (20100126.1600)
 -->
<!-- Title: _anonymous_0 Pages: 1 -->
<svg width="968pt" height="342pt"
 viewBox="0.00 0.00 968.00 342.00" xmlns="http://www.w3.org/2000/svg" xmlns:xlink="http://www.w3.org/1999/xlink">
<g id="graph1" class="graph" transform="scale(1 1) rotate(0) translate(4 338)">
<title>_anonymous_0</title>
<polygon fill="white" stroke="white" points="-4,5 -4,-338 965,-338 965,5 -4,5"/>
<!-- n151244688 -->
<g id="node1" class="node"><title>n151244688</title>
<ellipse fill="none" stroke="black" cx="433" cy="-241" rx="36.977" ry="18.3848"/>
<text text-anchor="middle" x="433" y="-237.4" font-family="Times Roman,serif" font-size="14.00">short</text>
</g>
<!-- n151244712 -->
<g id="node2" class="node"><title>n151244712</title>
<ellipse fill="none" stroke="black" cx="549" cy="-241" rx="27" ry="18.3848"/>
<text text-anchor="middle" x="549" y="-237.4" font-family="Times Roman,serif" font-size="14.00">int</text>
</g>
<!-- n151244904 -->
<g id="node3" class="node"><title>n151244904</title>
<ellipse fill="none" stroke="black" cx="835" cy="-241" rx="33.234" ry="18.3848"/>
<text text-anchor="middle" x="835" y="-237.4" font-family="Times Roman,serif" font-size="14.00">float</text>
</g>
<!-- n151244928 -->
<g id="node4" class="node"><title>n151244928</title>
<ellipse fill="none" stroke="black" cx="136" cy="-241" rx="43.8406" ry="18.3848"/>
<text text-anchor="middle" x="136" y="-237.4" font-family="Times Roman,serif" font-size="14.00">double</text>
</g>
<!-- n6415077318 -->
<g id="node5" class="node"><title>n6415077318</title>
<ellipse fill="none" stroke="black" cx="350" cy="-19" rx="43.1335" ry="18.3848"/>
<text text-anchor="middle" x="350" y="-15.4" font-family="Times Roman,serif" font-size="14.00">lazy_if</text>
</g>
<!-- n6937140429 -->
<g id="node6" class="node"><title>n6937140429</title>
<ellipse fill="none" stroke="black" cx="130" cy="-167" rx="50.2046" ry="18.3848"/>
<text text-anchor="middle" x="130" y="-163.4" font-family="Times Roman,serif" font-size="14.00">is_same</text>
</g>
<!-- n6415077318&#45;&gt;n6937140429 -->
<g id="edge2" class="edge"><title>n6415077318&#45;&gt;n6937140429</title>
<path fill="none" stroke="black" d="M314.378,-29.5285C286.846,-38.6769 248.571,-53.6633 219,-74 191.811,-92.6985 166.378,-120.766 149.72,-141.174"/>
<polygon fill="black" stroke="black" points="146.87,-139.135 143.353,-149.129 152.335,-143.509 146.87,-139.135"/>
</g>
<!-- n62345674625 -->
<g id="node9" class="node"><title>n62345674625</title>
<ellipse fill="none" stroke="black" cx="549" cy="-167" rx="48.9975" ry="18.3848"/>
<text text-anchor="middle" x="549" y="-163.4" font-family="Times Roman,serif" font-size="14.00">identity</text>
</g>
<!-- n6415077318&#45;&gt;n62345674625 -->
<g id="edge4" class="edge"><title>n6415077318&#45;&gt;n62345674625</title>
<path fill="none" stroke="black" d="M380.154,-32.3452C401.413,-42.3986 430.068,-57.28 453,-74 480.643,-94.155 508.286,-121.94 526.761,-141.882"/>
<polygon fill="black" stroke="black" points="524.281,-144.356 533.613,-149.373 529.446,-139.631 524.281,-144.356"/>
</g>
<!-- n63235969880 -->
<g id="node12" class="node"><title>n63235969880</title>
<ellipse fill="none" stroke="black" cx="433" cy="-167" rx="48.9975" ry="18.3848"/>
<text text-anchor="middle" x="433" y="-163.4" font-family="Times Roman,serif" font-size="14.00">identity</text>
</g>
<!-- n6415077318&#45;&gt;n63235969880 -->
<g id="edge6" class="edge"><title>n6415077318&#45;&gt;n63235969880</title>
<path fill="none" stroke="black" d="M338.584,-37.0311C327.705,-56.7337 314.907,-88.6053 329,-112 340.828,-131.635 362.272,-144.625 382.629,-153.022"/>
<polygon fill="black" stroke="black" points="381.585,-156.37 392.176,-156.674 384.086,-149.832 381.585,-156.37"/>
</g>
<!-- n63397832369 -->
<g id="node14" class="node"><title>n63397832369</title>
<ellipse fill="none" stroke="black" cx="391" cy="-93" rx="53.033" ry="18.3848"/>
<text text-anchor="middle" x="391" y="-89.4" font-family="Times Roman,serif" font-size="14.00">lazy_if_c</text>
</g>
<!-- n6415077318&#45;&gt;n63397832369 -->
<g id="edge8" class="edge"><title>n6415077318&#45;&gt;n63397832369</title>
<path fill="none" stroke="black" d="M360.135,-37.2921C364.915,-45.9197 370.715,-56.3888 375.992,-65.912"/>
<polygon fill="black" stroke="black" points="372.932,-67.6109 380.84,-74.6618 379.055,-64.2184 372.932,-67.6109"/>
</g>
<!-- n6937140429&#45;&gt;n151244904 -->
<g id="edge10" class="edge"><title>n6937140429&#45;&gt;n151244904</title>
<path fill="none" stroke="black" d="M173.295,-176.473C190.011,-179.869 209.332,-183.477 227,-186 336.615,-201.651 672.323,-228.392 792.035,-237.695"/>
<polygon fill="black" stroke="black" points="792.031,-241.205 802.271,-238.488 792.572,-234.226 792.031,-241.205"/>
</g>
<!-- n6937140429&#45;&gt;n151244928 -->
<g id="edge12" class="edge"><title>n6937140429&#45;&gt;n151244928</title>
<path fill="none" stroke="black" d="M131.514,-185.673C132.168,-193.736 132.947,-203.352 133.672,-212.289"/>
<polygon fill="black" stroke="black" points="130.19,-212.648 134.486,-222.333 137.167,-212.082 130.19,-212.648"/>
</g>
<!-- n63665613321 -->
<g id="node15" class="node"><title>n63665613321</title>
<ellipse fill="none" stroke="black" cx="37" cy="-241" rx="36.977" ry="18.3848"/>
<text text-anchor="middle" x="37" y="-237.4" font-family="Times Roman,serif" font-size="14.00">bool_</text>
</g>
<!-- n6937140429&#45;&gt;n63665613321 -->
<g id="edge14" class="edge"><title>n6937140429&#45;&gt;n63665613321</title>
<path fill="none" stroke="black" d="M108.897,-183.792C95.8155,-194.201 78.8659,-207.687 64.7096,-218.951"/>
<polygon fill="black" stroke="black" points="62.3936,-216.321 56.7478,-225.287 66.7522,-221.799 62.3936,-216.321"/>
</g>
<!-- n61606759519 -->
<g id="node7" class="node"><title>n61606759519</title>
<ellipse fill="none" stroke="black" cx="255" cy="-93" rx="27" ry="18.3848"/>
<text text-anchor="middle" x="255" y="-89.4" font-family="Times Roman,serif" font-size="14.00">if_</text>
</g>
<!-- n61606759519&#45;&gt;n151244688 -->
<g id="edge20" class="edge"><title>n61606759519&#45;&gt;n151244688</title>
<path fill="none" stroke="black" d="M267.973,-109.421C284.018,-129.087 312.802,-162.332 342,-186 359.218,-199.958 380.304,-212.921 397.841,-222.753"/>
<polygon fill="black" stroke="black" points="396.2,-225.845 406.649,-227.598 399.573,-219.712 396.2,-225.845"/>
</g>
<!-- n61606759519&#45;&gt;n151244712 -->
<g id="edge18" class="edge"><title>n61606759519&#45;&gt;n151244712</title>
<path fill="none" stroke="black" d="M275.339,-105.401C292.157,-115.982 316.378,-131.987 336,-148 354.75,-163.301 354.234,-173.572 375,-186 387.125,-193.256 466.859,-217.111 514.078,-230.905"/>
<polygon fill="black" stroke="black" points="513.328,-234.332 523.908,-233.768 515.286,-227.611 513.328,-234.332"/>
</g>
<!-- n61606759519&#45;&gt;n6937140429 -->
<g id="edge16" class="edge"><title>n61606759519&#45;&gt;n6937140429</title>
<path fill="none" stroke="black" d="M234.359,-105.22C215.709,-116.26 187.857,-132.748 165.617,-145.915"/>
<polygon fill="black" stroke="black" points="163.604,-143.039 156.782,-151.145 167.17,-149.063 163.604,-143.039"/>
</g>
<!-- n62123461476 -->
<g id="node8" class="node"><title>n62123461476</title>
<ellipse fill="none" stroke="black" cx="263" cy="-167" rx="27.0758" ry="18.3848"/>
<text text-anchor="middle" x="263" y="-163.4" font-family="Times Roman,serif" font-size="14.00">if_c</text>
</g>
<!-- n61606759519&#45;&gt;n62123461476 -->
<g id="edge22" class="edge"><title>n61606759519&#45;&gt;n62123461476</title>
<path fill="none" stroke="black" d="M257.019,-111.673C257.89,-119.736 258.93,-129.352 259.896,-138.289"/>
<polygon fill="black" stroke="black" points="256.427,-138.767 260.982,-148.333 263.387,-138.014 256.427,-138.767"/>
</g>
<!-- n62123461476&#45;&gt;n151244688 -->
<g id="edge28" class="edge"><title>n62123461476&#45;&gt;n151244688</title>
<path fill="none" stroke="black" d="M285.5,-177.579C291.495,-180.356 297.979,-183.322 304,-186 334.476,-199.554 369.277,-214.353 395.046,-225.182"/>
<polygon fill="black" stroke="black" points="393.877,-228.487 404.453,-229.127 396.585,-222.031 393.877,-228.487"/>
</g>
<!-- n62123461476&#45;&gt;n151244712 -->
<g id="edge26" class="edge"><title>n62123461476&#45;&gt;n151244712</title>
<path fill="none" stroke="black" d="M288.636,-173.389C329.123,-183.511 410.327,-203.938 479,-222 490.375,-224.992 502.769,-228.33 513.923,-231.363"/>
<polygon fill="black" stroke="black" points="513.185,-234.79 523.753,-234.045 515.027,-228.036 513.185,-234.79"/>
</g>
<!-- n81773484321 -->
<g id="node20" class="node"><title>n81773484321</title>
<ellipse fill="none" stroke="black" cx="208" cy="-315" rx="29.9071" ry="18.3848"/>
<text text-anchor="middle" x="208" y="-311.4" font-family="Times Roman,serif" font-size="14.00">0x0</text>
</g>
<!-- n62123461476&#45;&gt;n81773484321 -->
<g id="edge24" class="edge"><title>n62123461476&#45;&gt;n81773484321</title>
<path fill="none" stroke="black" d="M256.256,-185.148C246.772,-210.668 229.414,-257.377 218.306,-287.267"/>
<polygon fill="black" stroke="black" points="215.002,-286.111 214.799,-296.704 221.564,-288.549 215.002,-286.111"/>
</g>
<!-- n62345674625&#45;&gt;n151244712 -->
<g id="edge30" class="edge"><title>n62345674625&#45;&gt;n151244712</title>
<path fill="none" stroke="black" d="M549,-185.673C549,-193.736 549,-203.352 549,-212.289"/>
<polygon fill="black" stroke="black" points="545.5,-212.333 549,-222.333 552.5,-212.333 545.5,-212.333"/>
</g>
<!-- n62584679217 -->
<g id="node10" class="node"><title>n62584679217</title>
<ellipse fill="none" stroke="black" cx="631" cy="-19" rx="43.1335" ry="18.3848"/>
<text text-anchor="middle" x="631" y="-15.4" font-family="Times Roman,serif" font-size="14.00">lazy_if</text>
</g>
<!-- n62584679217&#45;&gt;n62345674625 -->
<g id="edge34" class="edge"><title>n62584679217&#45;&gt;n62345674625</title>
<path fill="none" stroke="black" d="M642.718,-37.0102C653.903,-56.6944 667.126,-88.5501 653,-112 641.172,-131.635 619.728,-144.625 599.371,-153.022"/>
<polygon fill="black" stroke="black" points="597.914,-149.832 589.824,-156.674 600.415,-156.37 597.914,-149.832"/>
</g>
<!-- n63027842420 -->
<g id="node11" class="node"><title>n63027842420</title>
<ellipse fill="none" stroke="black" cx="591" cy="-93" rx="53.033" ry="18.3848"/>
<text text-anchor="middle" x="591" y="-89.4" font-family="Times Roman,serif" font-size="14.00">lazy_if_c</text>
</g>
<!-- n62584679217&#45;&gt;n63027842420 -->
<g id="edge38" class="edge"><title>n62584679217&#45;&gt;n63027842420</title>
<path fill="none" stroke="black" d="M621.112,-37.2921C616.497,-45.8307 610.906,-56.1731 605.802,-65.6172"/>
<polygon fill="black" stroke="black" points="602.589,-64.2004 600.913,-74.6618 608.747,-67.5291 602.589,-64.2004"/>
</g>
<!-- n62584679217&#45;&gt;n63235969880 -->
<g id="edge36" class="edge"><title>n62584679217&#45;&gt;n63235969880</title>
<path fill="none" stroke="black" d="M601.149,-32.3944C580.1,-42.471 551.725,-57.36 529,-74 501.398,-94.2111 473.748,-121.987 455.261,-141.912"/>
<polygon fill="black" stroke="black" points="452.579,-139.658 448.404,-149.396 457.74,-144.387 452.579,-139.658"/>
</g>
<!-- n64189187576 -->
<g id="node18" class="node"><title>n64189187576</title>
<ellipse fill="none" stroke="black" cx="852" cy="-167" rx="50.2046" ry="18.3848"/>
<text text-anchor="middle" x="852" y="-163.4" font-family="Times Roman,serif" font-size="14.00">is_same</text>
</g>
<!-- n62584679217&#45;&gt;n64189187576 -->
<g id="edge32" class="edge"><title>n62584679217&#45;&gt;n64189187576</title>
<path fill="none" stroke="black" d="M666.612,-29.3834C694.377,-38.4948 733.107,-53.5013 763,-74 790.214,-92.6617 815.644,-120.735 832.293,-141.155"/>
<polygon fill="black" stroke="black" points="829.679,-143.489 838.657,-149.114 835.146,-139.118 829.679,-143.489"/>
</g>
<!-- n63027842420&#45;&gt;n62345674625 -->
<g id="edge42" class="edge"><title>n63027842420&#45;&gt;n62345674625</title>
<path fill="none" stroke="black" d="M580.618,-111.292C575.721,-119.92 569.779,-130.389 564.374,-139.912"/>
<polygon fill="black" stroke="black" points="561.3,-138.237 559.408,-148.662 567.388,-141.693 561.3,-138.237"/>
</g>
<!-- n63027842420&#45;&gt;n63235969880 -->
<g id="edge44" class="edge"><title>n63027842420&#45;&gt;n63235969880</title>
<path fill="none" stroke="black" d="M559.026,-107.975C534.183,-119.611 499.583,-135.816 472.921,-148.303"/>
<polygon fill="black" stroke="black" points="471.422,-145.14 463.851,-152.551 474.391,-151.479 471.422,-145.14"/>
</g>
<!-- n81030972443 -->
<g id="node19" class="node"><title>n81030972443</title>
<ellipse fill="none" stroke="black" cx="774" cy="-315" rx="29.9071" ry="18.3848"/>
<text text-anchor="middle" x="774" y="-311.4" font-family="Times Roman,serif" font-size="14.00">0x1</text>
</g>
<!-- n63027842420&#45;&gt;n81030972443 -->
<g id="edge40" class="edge"><title>n63027842420&#45;&gt;n81030972443</title>
<path fill="none" stroke="black" d="M636.516,-102.523C679.604,-112.508 739.889,-129.323 755,-148 786.906,-187.436 784.241,-250.321 779.244,-286.623"/>
<polygon fill="black" stroke="black" points="775.778,-286.134 777.727,-296.548 782.698,-287.192 775.778,-286.134"/>
</g>
<!-- n63235969880&#45;&gt;n151244688 -->
<g id="edge46" class="edge"><title>n63235969880&#45;&gt;n151244688</title>
<path fill="none" stroke="black" d="M433,-185.673C433,-193.736 433,-203.352 433,-212.289"/>
<polygon fill="black" stroke="black" points="429.5,-212.333 433,-222.333 436.5,-212.333 429.5,-212.333"/>
</g>
<!-- n63277628874 -->
<g id="node13" class="node"><title>n63277628874</title>
<ellipse fill="none" stroke="black" cx="923" cy="-241" rx="36.977" ry="18.3848"/>
<text text-anchor="middle" x="923" y="-237.4" font-family="Times Roman,serif" font-size="14.00">bool_</text>
</g>
<!-- n63277628874&#45;&gt;n81030972443 -->
<g id="edge48" class="edge"><title>n63277628874&#45;&gt;n81030972443</title>
<path fill="none" stroke="black" d="M896.705,-254.059C871.594,-266.53 833.68,-285.36 806.648,-298.786"/>
<polygon fill="black" stroke="black" points="804.978,-295.707 797.579,-303.29 808.092,-301.976 804.978,-295.707"/>
</g>
<!-- n63397832369&#45;&gt;n62345674625 -->
<g id="edge52" class="edge"><title>n63397832369&#45;&gt;n62345674625</title>
<path fill="none" stroke="black" d="M422.974,-107.975C447.817,-119.611 482.417,-135.816 509.079,-148.303"/>
<polygon fill="black" stroke="black" points="507.609,-151.479 518.149,-152.551 510.578,-145.14 507.609,-151.479"/>
</g>
<!-- n63397832369&#45;&gt;n63235969880 -->
<g id="edge54" class="edge"><title>n63397832369&#45;&gt;n63235969880</title>
<path fill="none" stroke="black" d="M401.382,-111.292C406.279,-119.92 412.221,-130.389 417.626,-139.912"/>
<polygon fill="black" stroke="black" points="414.612,-141.693 422.592,-148.662 420.7,-138.237 414.612,-141.693"/>
</g>
<!-- n63397832369&#45;&gt;n81773484321 -->
<g id="edge50" class="edge"><title>n63397832369&#45;&gt;n81773484321</title>
<path fill="none" stroke="black" d="M345.484,-102.523C302.396,-112.508 242.111,-129.323 227,-148 195.094,-187.436 197.759,-250.321 202.756,-286.623"/>
<polygon fill="black" stroke="black" points="199.302,-287.192 204.273,-296.548 206.222,-286.134 199.302,-287.192"/>
</g>
<!-- n63665613321&#45;&gt;n81773484321 -->
<g id="edge56" class="edge"><title>n63665613321&#45;&gt;n81773484321</title>
<path fill="none" stroke="black" d="M65.2372,-253.22C95.068,-266.129 142.11,-286.486 173.968,-300.273"/>
<polygon fill="black" stroke="black" points="172.764,-303.565 183.332,-304.325 175.545,-297.141 172.764,-303.565"/>
</g>
<!-- n63722687905 -->
<g id="node16" class="node"><title>n63722687905</title>
<ellipse fill="none" stroke="black" cx="719" cy="-167" rx="27.0758" ry="18.3848"/>
<text text-anchor="middle" x="719" y="-163.4" font-family="Times Roman,serif" font-size="14.00">if_c</text>
</g>
<!-- n63722687905&#45;&gt;n151244688 -->
<g id="edge62" class="edge"><title>n63722687905&#45;&gt;n151244688</title>
<path fill="none" stroke="black" d="M693.619,-173.567C644.64,-186.24 536.594,-214.196 476.129,-229.841"/>
<polygon fill="black" stroke="black" points="474.938,-226.534 466.133,-232.427 476.691,-233.311 474.938,-226.534"/>
</g>
<!-- n63722687905&#45;&gt;n151244712 -->
<g id="edge60" class="edge"><title>n63722687905&#45;&gt;n151244712</title>
<path fill="none" stroke="black" d="M696.5,-177.579C690.505,-180.356 684.021,-183.322 678,-186 645.453,-200.476 607.973,-216.37 581.829,-227.333"/>
<polygon fill="black" stroke="black" points="580.272,-224.191 572.398,-231.28 582.974,-230.648 580.272,-224.191"/>
</g>
<!-- n63722687905&#45;&gt;n81030972443 -->
<g id="edge58" class="edge"><title>n63722687905&#45;&gt;n81030972443</title>
<path fill="none" stroke="black" d="M725.744,-185.148C735.228,-210.668 752.586,-257.377 763.694,-287.267"/>
<polygon fill="black" stroke="black" points="760.436,-288.549 767.201,-296.704 766.998,-286.111 760.436,-288.549"/>
</g>
<!-- n64029456710 -->
<g id="node17" class="node"><title>n64029456710</title>
<ellipse fill="none" stroke="black" cx="727" cy="-93" rx="27" ry="18.3848"/>
<text text-anchor="middle" x="727" y="-89.4" font-family="Times Roman,serif" font-size="14.00">if_</text>
</g>
<!-- n64029456710&#45;&gt;n151244688 -->
<g id="edge68" class="edge"><title>n64029456710&#45;&gt;n151244688</title>
<path fill="none" stroke="black" d="M705.428,-104.294C687.058,-114.441 660.467,-130.417 640,-148 623.033,-162.576 625.699,-173.724 607,-186 585.378,-200.195 520.553,-218.657 476.432,-230.168"/>
<polygon fill="black" stroke="black" points="475.335,-226.836 466.528,-232.726 477.086,-233.614 475.335,-226.836"/>
</g>
<!-- n64029456710&#45;&gt;n151244712 -->
<g id="edge66" class="edge"><title>n64029456710&#45;&gt;n151244712</title>
<path fill="none" stroke="black" d="M714.027,-109.421C697.982,-129.087 669.198,-162.332 640,-186 621.353,-201.115 598.171,-215.065 579.872,-225.134"/>
<polygon fill="black" stroke="black" points="578.197,-222.061 571.061,-229.892 581.523,-228.22 578.197,-222.061"/>
</g>
<!-- n64029456710&#45;&gt;n63722687905 -->
<g id="edge70" class="edge"><title>n64029456710&#45;&gt;n63722687905</title>
<path fill="none" stroke="black" d="M724.981,-111.673C724.11,-119.736 723.07,-129.352 722.104,-138.289"/>
<polygon fill="black" stroke="black" points="718.613,-138.014 721.018,-148.333 725.573,-138.767 718.613,-138.014"/>
</g>
<!-- n64029456710&#45;&gt;n64189187576 -->
<g id="edge64" class="edge"><title>n64029456710&#45;&gt;n64189187576</title>
<path fill="none" stroke="black" d="M747.641,-105.22C766.291,-116.26 794.143,-132.748 816.383,-145.915"/>
<polygon fill="black" stroke="black" points="814.83,-149.063 825.218,-151.145 818.396,-143.039 814.83,-149.063"/>
</g>
<!-- n64189187576&#45;&gt;n151244904 -->
<g id="edge72" class="edge"><title>n64189187576&#45;&gt;n151244904</title>
<path fill="none" stroke="black" d="M841.882,-185.292C839.195,-193.502 836.702,-203.379 834.954,-212.522"/>
<polygon fill="black" stroke="black" points="831.498,-211.969 833.327,-222.404 838.405,-213.106 831.498,-211.969"/>
</g>
<!-- n64189187576&#45;&gt;n151244904 -->
<g id="edge74" class="edge"><title>n64189187576&#45;&gt;n151244904</title>
<path fill="none" stroke="black" d="M853.663,-185.673C852.517,-194.163 850.367,-204.375 847.811,-213.702"/>
<polygon fill="black" stroke="black" points="844.437,-212.767 844.906,-223.352 851.14,-214.785 844.437,-212.767"/>
</g>
<!-- n64189187576&#45;&gt;n63277628874 -->
<g id="edge76" class="edge"><title>n64189187576&#45;&gt;n63277628874</title>
<path fill="none" stroke="black" d="M868.826,-184.537C878.065,-194.167 889.664,-206.256 899.756,-216.774"/>
<polygon fill="black" stroke="black" points="897.335,-219.306 906.783,-224.098 902.386,-214.459 897.335,-219.306"/>
</g>
</g>
</svg>
