<?xml version="1.0" encoding="UTF-8" standalone="no"?>
<!DOCTYPE svg PUBLIC "-//W3C//DTD SVG 1.1//EN"
 "http://www.w3.org/Graphics/SVG/1.1/DTD/svg11.dtd">
<!-- Generated by graphviz version 2.26.3 (20100126.1600)
 -->
<!-- Title: _anonymous_0 Pages: 1 -->
<svg width="1000pt" height="398pt"
 viewBox="0.00 0.00 1000.00 398.00" xmlns="http://www.w3.org/2000/svg" xmlns:xlink="http://www.w3.org/1999/xlink">
<g id="graph1" class="graph" transform="scale(1 1) rotate(0) translate(4 394)">
<title>_anonymous_0</title>
<polygon fill="white" stroke="white" points="-4,5 -4,-394 997,-394 997,5 -4,5"/>
<!-- n6_3609040937 -->
<g id="node1" class="node"><title>n6_3609040937</title>
<ellipse fill="none" stroke="black" cx="389" cy="-95" rx="53.033" ry="18.3848"/>
<text text-anchor="middle" x="389" y="-91.4" font-family="Times Roman,serif" font-size="14.00">lazy_if_c</text>
</g>
<!-- n8_1030972443 -->
<g id="node3" class="node"><title>n8_1030972443</title>
<ellipse fill="none" stroke="black" cx="186" cy="-371" rx="29.9071" ry="18.3848"/>
<text text-anchor="middle" x="186" y="-367.4" font-family="Times Roman,serif" font-size="14.00">0x1</text>
</g>
<!-- n6_3609040937&#45;&gt;n8_1030972443 -->
<g id="edge2" class="edge"><title>n6_3609040937&#45;&gt;n8_1030972443</title>
<path fill="none" stroke="red" d="M350.461,-107.767C307.877,-122.635 243.16,-147.743 227,-168 186.366,-218.937 182.716,-299.487 184.05,-342.197"/>
<polygon fill="red" stroke="red" points="180.564,-342.605 184.491,-352.446 187.558,-342.305 180.564,-342.605"/>
<text text-anchor="middle" x="202" y="-229.4" font-family="Times Roman,serif" font-size="14.00">1</text>
</g>
<!-- n6_96420659 -->
<g id="node11" class="node"><title>n6_96420659</title>
<ellipse fill="none" stroke="black" cx="427" cy="-187" rx="48.9975" ry="18.3848"/>
<text text-anchor="middle" x="427" y="-183.4" font-family="Times Roman,serif" font-size="14.00">identity</text>
</g>
<!-- n6_3609040937&#45;&gt;n6_96420659 -->
<g id="edge4" class="edge"><title>n6_3609040937&#45;&gt;n6_96420659</title>
<path fill="none" stroke="red" d="M396.69,-113.618C402.047,-126.586 409.289,-144.121 415.351,-158.797"/>
<polygon fill="red" stroke="red" points="412.269,-160.504 419.322,-168.41 418.739,-157.831 412.269,-160.504"/>
<text text-anchor="middle" x="416" y="-137.4" font-family="Times Roman,serif" font-size="14.00">2</text>
</g>
<!-- n6_1234672115 -->
<g id="node12" class="node"><title>n6_1234672115</title>
<ellipse fill="none" stroke="black" cx="543" cy="-187" rx="48.9975" ry="18.3848"/>
<text text-anchor="middle" x="543" y="-183.4" font-family="Times Roman,serif" font-size="14.00">identity</text>
</g>
<!-- n6_3609040937&#45;&gt;n6_1234672115 -->
<g id="edge6" class="edge"><title>n6_3609040937&#45;&gt;n6_1234672115</title>
<path fill="none" stroke="red" d="M414.261,-111.525C431.495,-122.661 454.929,-137.536 476,-150 485.447,-155.588 495.773,-161.422 505.427,-166.762"/>
<polygon fill="red" stroke="red" points="503.977,-169.958 514.427,-171.705 507.347,-163.823 503.977,-169.958"/>
<text text-anchor="middle" x="481" y="-137.4" font-family="Times Roman,serif" font-size="14.00">3</text>
</g>
<!-- n6_2909277879 -->
<g id="node2" class="node"><title>n6_2909277879</title>
<ellipse fill="none" stroke="black" cx="651" cy="-95" rx="53.033" ry="18.3848"/>
<text text-anchor="middle" x="651" y="-91.4" font-family="Times Roman,serif" font-size="14.00">lazy_if_c</text>
</g>
<!-- n8_1773484321 -->
<g id="node5" class="node"><title>n8_1773484321</title>
<ellipse fill="none" stroke="black" cx="784" cy="-371" rx="29.9071" ry="18.3848"/>
<text text-anchor="middle" x="784" y="-367.4" font-family="Times Roman,serif" font-size="14.00">0x0</text>
</g>
<!-- n6_2909277879&#45;&gt;n8_1773484321 -->
<g id="edge8" class="edge"><title>n6_2909277879&#45;&gt;n8_1773484321</title>
<path fill="none" stroke="red" d="M687.804,-108.338C713.99,-119.886 747.512,-139.301 765,-168 798.211,-222.501 794.065,-300.93 788.71,-342.546"/>
<polygon fill="red" stroke="red" points="785.231,-342.148 787.308,-352.537 792.164,-343.121 785.231,-342.148"/>
<text text-anchor="middle" x="794" y="-229.4" font-family="Times Roman,serif" font-size="14.00">1</text>
</g>
<!-- n6_2909277879&#45;&gt;n6_96420659 -->
<g id="edge10" class="edge"><title>n6_2909277879&#45;&gt;n6_96420659</title>
<path fill="none" stroke="red" d="M616.491,-109.173C577.015,-125.387 512.346,-151.947 469.722,-169.453"/>
<polygon fill="red" stroke="red" points="468.37,-166.225 460.45,-173.262 471.03,-172.7 468.37,-166.225"/>
<text text-anchor="middle" x="564" y="-137.4" font-family="Times Roman,serif" font-size="14.00">2</text>
</g>
<!-- n6_2909277879&#45;&gt;n6_1234672115 -->
<g id="edge12" class="edge"><title>n6_2909277879&#45;&gt;n6_1234672115</title>
<path fill="none" stroke="red" d="M628.758,-112.018C620.849,-118.198 611.941,-125.307 604,-132 592.243,-141.909 579.568,-153.228 568.834,-163.012"/>
<polygon fill="red" stroke="red" points="566.41,-160.486 561.402,-169.822 571.14,-165.647 566.41,-160.486"/>
<text text-anchor="middle" x="609" y="-137.4" font-family="Times Roman,serif" font-size="14.00">3</text>
</g>
<!-- n1_30659936 -->
<g id="node4" class="node"><title>n1_30659936</title>
<ellipse fill="none" stroke="black" cx="856" cy="-279" rx="43.8406" ry="18.3848"/>
<text text-anchor="middle" x="856" y="-275.4" font-family="Times Roman,serif" font-size="14.00">double</text>
</g>
<!-- n6_3265032836 -->
<g id="node6" class="node"><title>n6_3265032836</title>
<ellipse fill="none" stroke="black" cx="334" cy="-19" rx="43.1335" ry="18.3848"/>
<text text-anchor="middle" x="334" y="-15.4" font-family="Times Roman,serif" font-size="14.00">lazy_if</text>
</g>
<!-- n6_3265032836&#45;&gt;n6_3609040937 -->
<g id="edge20" class="edge"><title>n6_3265032836&#45;&gt;n6_3609040937</title>
<path fill="none" stroke="blue" d="M347.034,-37.0109C353.834,-46.4072 362.284,-58.083 369.815,-68.4897"/>
<polygon fill="blue" stroke="blue" points="367.171,-70.8057 375.869,-76.855 372.841,-66.7018 367.171,-70.8057"/>
</g>
<!-- n6_3265032836&#45;&gt;n6_96420659 -->
<g id="edge16" class="edge"><title>n6_3265032836&#45;&gt;n6_96420659</title>
<path fill="none" stroke="red" d="M324.128,-37.2433C314.77,-57.216 303.93,-89.6391 317,-114 319.167,-118.038 361.573,-145.532 393.087,-165.592"/>
<polygon fill="red" stroke="red" points="391.326,-168.62 401.643,-171.027 395.079,-162.711 391.326,-168.62"/>
<text text-anchor="middle" x="322" y="-91.4" font-family="Times Roman,serif" font-size="14.00">2</text>
</g>
<!-- n6_3265032836&#45;&gt;n6_1234672115 -->
<g id="edge18" class="edge"><title>n6_3265032836&#45;&gt;n6_1234672115</title>
<path fill="none" stroke="red" d="M376.208,-23.1209C413.773,-28.9159 467.905,-42.8046 502,-76 524.539,-97.9443 534.784,-133.35 539.378,-158.262"/>
<polygon fill="red" stroke="red" points="535.94,-158.929 541.02,-168.227 542.847,-157.791 535.94,-158.929"/>
<text text-anchor="middle" x="531" y="-91.4" font-family="Times Roman,serif" font-size="14.00">3</text>
</g>
<!-- n6_2648920026 -->
<g id="node19" class="node"><title>n6_2648920026</title>
<ellipse fill="none" stroke="black" cx="108" cy="-187" rx="50.2046" ry="18.3848"/>
<text text-anchor="middle" x="108" y="-183.4" font-family="Times Roman,serif" font-size="14.00">is_same</text>
</g>
<!-- n6_3265032836&#45;&gt;n6_2648920026 -->
<g id="edge14" class="edge"><title>n6_3265032836&#45;&gt;n6_2648920026</title>
<path fill="none" stroke="red" d="M296.187,-28.1312C265.821,-36.8112 223.243,-52.133 192,-76 162.029,-98.8954 137.382,-135.127 122.707,-159.927"/>
<polygon fill="red" stroke="red" points="119.542,-158.408 117.58,-168.82 125.607,-161.904 119.542,-158.408"/>
<text text-anchor="middle" x="197" y="-91.4" font-family="Times Roman,serif" font-size="14.00">1</text>
</g>
<!-- n6_2869246219 -->
<g id="node7" class="node"><title>n6_2869246219</title>
<ellipse fill="none" stroke="black" cx="596" cy="-19" rx="43.1335" ry="18.3848"/>
<text text-anchor="middle" x="596" y="-15.4" font-family="Times Roman,serif" font-size="14.00">lazy_if</text>
</g>
<!-- n6_2869246219&#45;&gt;n6_2909277879 -->
<g id="edge28" class="edge"><title>n6_2869246219&#45;&gt;n6_2909277879</title>
<path fill="none" stroke="blue" d="M609.034,-37.0109C615.834,-46.4072 624.284,-58.083 631.815,-68.4897"/>
<polygon fill="blue" stroke="blue" points="629.171,-70.8057 637.869,-76.855 634.841,-66.7018 629.171,-70.8057"/>
</g>
<!-- n6_2869246219&#45;&gt;n6_96420659 -->
<g id="edge24" class="edge"><title>n6_2869246219&#45;&gt;n6_96420659</title>
<path fill="none" stroke="red" d="M563.804,-31.6054C541.794,-41.356 512.933,-56.4832 492,-76 467.021,-99.2896 448.69,-134.366 437.978,-158.835"/>
<polygon fill="red" stroke="red" points="434.653,-157.712 433.987,-168.286 441.101,-160.435 434.653,-157.712"/>
<text text-anchor="middle" x="497" y="-91.4" font-family="Times Roman,serif" font-size="14.00">2</text>
</g>
<!-- n6_2869246219&#45;&gt;n6_1234672115 -->
<g id="edge26" class="edge"><title>n6_2869246219&#45;&gt;n6_1234672115</title>
<path fill="none" stroke="red" d="M590.126,-37.6208C580.869,-66.9638 562.824,-124.162 551.948,-158.638"/>
<polygon fill="red" stroke="red" points="548.491,-157.962 548.82,-168.552 555.166,-160.068 548.491,-157.962"/>
<text text-anchor="middle" x="582" y="-91.4" font-family="Times Roman,serif" font-size="14.00">3</text>
</g>
<!-- n6_3222445839 -->
<g id="node20" class="node"><title>n6_3222445839</title>
<ellipse fill="none" stroke="black" cx="862" cy="-187" rx="50.2046" ry="18.3848"/>
<text text-anchor="middle" x="862" y="-183.4" font-family="Times Roman,serif" font-size="14.00">is_same</text>
</g>
<!-- n6_2869246219&#45;&gt;n6_3222445839 -->
<g id="edge22" class="edge"><title>n6_2869246219&#45;&gt;n6_3222445839</title>
<path fill="none" stroke="red" d="M637.857,-23.5476C678.69,-29.7291 740.924,-43.9569 785,-76 814.605,-97.523 836.731,-134.056 849.494,-159.299"/>
<polygon fill="red" stroke="red" points="846.389,-160.917 853.923,-168.366 852.678,-157.845 846.389,-160.917"/>
<text text-anchor="middle" x="826" y="-91.4" font-family="Times Roman,serif" font-size="14.00">1</text>
</g>
<!-- n6_4208974442 -->
<g id="node8" class="node"><title>n6_4208974442</title>
<ellipse fill="none" stroke="black" cx="729" cy="-187" rx="27.0758" ry="18.3848"/>
<text text-anchor="middle" x="729" y="-183.4" font-family="Times Roman,serif" font-size="14.00">if_c</text>
</g>
<!-- n6_4208974442&#45;&gt;n8_1773484321 -->
<g id="edge30" class="edge"><title>n6_4208974442&#45;&gt;n8_1773484321</title>
<path fill="none" stroke="red" d="M733.531,-205.262C740.591,-233.212 754.975,-288.18 770,-334 770.974,-336.971 772.045,-340.056 773.147,-343.12"/>
<polygon fill="red" stroke="red" points="769.931,-344.516 776.693,-352.672 776.494,-342.079 769.931,-344.516"/>
<text text-anchor="middle" x="763" y="-275.4" font-family="Times Roman,serif" font-size="14.00">1</text>
</g>
<!-- n1_30659720 -->
<g id="node15" class="node"><title>n1_30659720</title>
<ellipse fill="none" stroke="black" cx="321" cy="-279" rx="27" ry="18.3848"/>
<text text-anchor="middle" x="321" y="-275.4" font-family="Times Roman,serif" font-size="14.00">int</text>
</g>
<!-- n6_4208974442&#45;&gt;n1_30659720 -->
<g id="edge32" class="edge"><title>n6_4208974442&#45;&gt;n1_30659720</title>
<path fill="none" stroke="red" d="M707.313,-198.529C682.216,-211.325 639.291,-231.544 600,-242 515.228,-264.559 412.141,-273.674 358.118,-277.107"/>
<polygon fill="red" stroke="red" points="357.758,-273.622 347.988,-277.72 358.181,-280.609 357.758,-273.622"/>
<text text-anchor="middle" x="655" y="-229.4" font-family="Times Roman,serif" font-size="14.00">2</text>
</g>
<!-- n1_30659696 -->
<g id="node18" class="node"><title>n1_30659696</title>
<ellipse fill="none" stroke="black" cx="616" cy="-279" rx="36.977" ry="18.3848"/>
<text text-anchor="middle" x="616" y="-275.4" font-family="Times Roman,serif" font-size="14.00">short</text>
</g>
<!-- n6_4208974442&#45;&gt;n1_30659696 -->
<g id="edge34" class="edge"><title>n6_4208974442&#45;&gt;n1_30659696</title>
<path fill="none" stroke="red" d="M719.054,-204.261C711.637,-216.009 700.635,-231.304 688,-242 678.195,-250.3 666.213,-257.39 654.858,-263.076"/>
<polygon fill="red" stroke="red" points="653.053,-260.058 645.529,-267.517 656.063,-266.378 653.053,-260.058"/>
<text text-anchor="middle" x="709" y="-229.4" font-family="Times Roman,serif" font-size="14.00">3</text>
</g>
<!-- n6_2017787506 -->
<g id="node9" class="node"><title>n6_2017787506</title>
<ellipse fill="none" stroke="black" cx="287" cy="-187" rx="27.0758" ry="18.3848"/>
<text text-anchor="middle" x="287" y="-183.4" font-family="Times Roman,serif" font-size="14.00">if_c</text>
</g>
<!-- n6_2017787506&#45;&gt;n8_1030972443 -->
<g id="edge36" class="edge"><title>n6_2017787506&#45;&gt;n8_1030972443</title>
<path fill="none" stroke="red" d="M277.316,-204.643C259.519,-237.065 221.521,-306.288 200.587,-344.426"/>
<polygon fill="red" stroke="red" points="197.399,-342.96 195.655,-353.411 203.535,-346.329 197.399,-342.96"/>
<text text-anchor="middle" x="251" y="-275.4" font-family="Times Roman,serif" font-size="14.00">1</text>
</g>
<!-- n6_2017787506&#45;&gt;n1_30659720 -->
<g id="edge38" class="edge"><title>n6_2017787506&#45;&gt;n1_30659720</title>
<path fill="none" stroke="red" d="M284.673,-205.455C284.009,-216.438 284.454,-230.44 289,-242 291.059,-247.236 294.196,-252.24 297.714,-256.781"/>
<polygon fill="red" stroke="red" points="295.12,-259.132 304.309,-264.406 300.414,-254.553 295.12,-259.132"/>
<text text-anchor="middle" x="294" y="-229.4" font-family="Times Roman,serif" font-size="14.00">2</text>
</g>
<!-- n6_2017787506&#45;&gt;n1_30659696 -->
<g id="edge40" class="edge"><title>n6_2017787506&#45;&gt;n1_30659696</title>
<path fill="none" stroke="red" d="M309.374,-197.466C331.49,-207.833 362.402,-222.395 365,-224 376.042,-230.823 376.108,-236.797 388,-242 419.732,-255.885 512.459,-267.879 569.413,-274.211"/>
<polygon fill="red" stroke="red" points="569.287,-277.718 579.608,-275.327 570.049,-270.76 569.287,-277.718"/>
<text text-anchor="middle" x="393" y="-229.4" font-family="Times Roman,serif" font-size="14.00">3</text>
</g>
<!-- n1_30659912 -->
<g id="node10" class="node"><title>n1_30659912</title>
<ellipse fill="none" stroke="black" cx="125" cy="-279" rx="33.234" ry="18.3848"/>
<text text-anchor="middle" x="125" y="-275.4" font-family="Times Roman,serif" font-size="14.00">float</text>
</g>
<!-- n6_96420659&#45;&gt;n1_30659720 -->
<g id="edge42" class="edge"><title>n6_96420659&#45;&gt;n1_30659720</title>
<path fill="none" stroke="red" d="M388.076,-198.367C359.93,-206.972 326.142,-218.26 322,-224 316.518,-231.596 315.091,-241.445 315.415,-250.706"/>
<polygon fill="red" stroke="red" points="311.942,-251.151 316.403,-260.761 318.908,-250.466 311.942,-251.151"/>
<text text-anchor="middle" x="327" y="-229.4" font-family="Times Roman,serif" font-size="14.00">1</text>
</g>
<!-- n6_1234672115&#45;&gt;n1_30659696 -->
<g id="edge44" class="edge"><title>n6_1234672115&#45;&gt;n1_30659696</title>
<path fill="none" stroke="red" d="M557.075,-204.739C568.052,-218.572 583.446,-237.974 595.748,-253.476"/>
<polygon fill="red" stroke="red" points="593.258,-255.97 602.216,-261.628 598.742,-251.619 593.258,-255.97"/>
<text text-anchor="middle" x="591" y="-229.4" font-family="Times Roman,serif" font-size="14.00">1</text>
</g>
<!-- n6_987323695 -->
<g id="node13" class="node"><title>n6_987323695</title>
<ellipse fill="none" stroke="black" cx="749" cy="-95" rx="27" ry="18.3848"/>
<text text-anchor="middle" x="749" y="-91.4" font-family="Times Roman,serif" font-size="14.00">if_</text>
</g>
<!-- n6_987323695&#45;&gt;n6_4208974442 -->
<g id="edge52" class="edge"><title>n6_987323695&#45;&gt;n6_4208974442</title>
<path fill="none" stroke="blue" d="M744.953,-113.618C742.161,-126.462 738.395,-143.784 735.223,-158.373"/>
<polygon fill="blue" stroke="blue" points="731.746,-157.895 733.041,-168.41 738.586,-159.382 731.746,-157.895"/>
</g>
<!-- n6_987323695&#45;&gt;n1_30659720 -->
<g id="edge48" class="edge"><title>n6_987323695&#45;&gt;n1_30659720</title>
<path fill="none" stroke="red" d="M728.471,-107.26C717.193,-114.201 703.081,-123.228 691,-132 649.095,-162.425 647.132,-182.474 601,-206 519.857,-247.38 413.198,-266.764 357.87,-274.552"/>
<polygon fill="red" stroke="red" points="357.271,-271.101 347.833,-275.916 358.214,-278.037 357.271,-271.101"/>
<text text-anchor="middle" x="655" y="-183.4" font-family="Times Roman,serif" font-size="14.00">2</text>
</g>
<!-- n6_987323695&#45;&gt;n1_30659696 -->
<g id="edge50" class="edge"><title>n6_987323695&#45;&gt;n1_30659696</title>
<path fill="none" stroke="red" d="M732.123,-109.646C717.27,-123.369 696.033,-145.143 683,-168 665.94,-197.919 679.061,-213.314 660,-242 656.303,-247.564 651.531,-252.749 646.499,-257.371"/>
<polygon fill="red" stroke="red" points="643.866,-255.014 638.494,-264.146 648.388,-260.357 643.866,-255.014"/>
<text text-anchor="middle" x="688" y="-183.4" font-family="Times Roman,serif" font-size="14.00">3</text>
</g>
<!-- n6_987323695&#45;&gt;n6_3222445839 -->
<g id="edge46" class="edge"><title>n6_987323695&#45;&gt;n6_3222445839</title>
<path fill="none" stroke="red" d="M765.599,-109.769C778.377,-121.014 796.574,-136.762 813,-150 818.82,-154.691 825.129,-159.588 831.221,-164.226"/>
<polygon fill="red" stroke="red" points="829.239,-167.115 839.329,-170.348 833.457,-161.529 829.239,-167.115"/>
<text text-anchor="middle" x="818" y="-137.4" font-family="Times Roman,serif" font-size="14.00">1</text>
</g>
<!-- n6_2615209664 -->
<g id="node14" class="node"><title>n6_2615209664</title>
<ellipse fill="none" stroke="black" cx="238" cy="-95" rx="27" ry="18.3848"/>
<text text-anchor="middle" x="238" y="-91.4" font-family="Times Roman,serif" font-size="14.00">if_</text>
</g>
<!-- n6_2615209664&#45;&gt;n6_2017787506 -->
<g id="edge60" class="edge"><title>n6_2615209664&#45;&gt;n6_2017787506</title>
<path fill="none" stroke="blue" d="M247.448,-112.739C254.633,-126.23 264.639,-145.016 272.789,-160.317"/>
<polygon fill="blue" stroke="blue" points="269.791,-162.135 277.581,-169.316 275.97,-158.844 269.791,-162.135"/>
</g>
<!-- n6_2615209664&#45;&gt;n1_30659720 -->
<g id="edge56" class="edge"><title>n6_2615209664&#45;&gt;n1_30659720</title>
<path fill="none" stroke="red" d="M234.265,-113.658C230.611,-136.541 227.372,-175.984 241,-206 251.554,-229.246 273.418,-248.369 291.626,-261.203"/>
<polygon fill="red" stroke="red" points="289.957,-264.299 300.204,-266.989 293.871,-258.496 289.957,-264.299"/>
<text text-anchor="middle" x="246" y="-183.4" font-family="Times Roman,serif" font-size="14.00">2</text>
</g>
<!-- n6_2615209664&#45;&gt;n1_30659696 -->
<g id="edge58" class="edge"><title>n6_2615209664&#45;&gt;n1_30659696</title>
<path fill="none" stroke="red" d="M255.716,-109.312C273.238,-123.675 300.603,-146.67 323,-168 339.847,-184.044 339.101,-193.947 359,-206 394.796,-227.681 507.826,-255.069 571.419,-269.345"/>
<polygon fill="red" stroke="red" points="571.036,-272.845 581.558,-271.604 572.558,-266.013 571.036,-272.845"/>
<text text-anchor="middle" x="364" y="-183.4" font-family="Times Roman,serif" font-size="14.00">3</text>
</g>
<!-- n6_2615209664&#45;&gt;n6_2648920026 -->
<g id="edge54" class="edge"><title>n6_2615209664&#45;&gt;n6_2648920026</title>
<path fill="none" stroke="red" d="M219.097,-108.378C198.309,-123.089 164.562,-146.972 139.709,-164.56"/>
<polygon fill="red" stroke="red" points="137.466,-161.86 131.325,-170.493 141.509,-167.574 137.466,-161.86"/>
<text text-anchor="middle" x="189" y="-137.4" font-family="Times Roman,serif" font-size="14.00">1</text>
</g>
<!-- n6_2641948979 -->
<g id="node16" class="node"><title>n6_2641948979</title>
<ellipse fill="none" stroke="black" cx="955" cy="-279" rx="36.977" ry="18.3848"/>
<text text-anchor="middle" x="955" y="-275.4" font-family="Times Roman,serif" font-size="14.00">bool_</text>
</g>
<!-- n6_2641948979&#45;&gt;n8_1773484321 -->
<g id="edge62" class="edge"><title>n6_2641948979&#45;&gt;n8_1773484321</title>
<path fill="none" stroke="red" d="M929.768,-292.575C899.582,-308.816 849.002,-336.028 816.07,-353.746"/>
<polygon fill="red" stroke="red" points="814.019,-350.875 806.871,-358.695 817.335,-357.04 814.019,-350.875"/>
<text text-anchor="middle" x="889" y="-321.4" font-family="Times Roman,serif" font-size="14.00">1</text>
</g>
<!-- n6_3998714854 -->
<g id="node17" class="node"><title>n6_3998714854</title>
<ellipse fill="none" stroke="black" cx="37" cy="-279" rx="36.977" ry="18.3848"/>
<text text-anchor="middle" x="37" y="-275.4" font-family="Times Roman,serif" font-size="14.00">bool_</text>
</g>
<!-- n6_3998714854&#45;&gt;n8_1030972443 -->
<g id="edge64" class="edge"><title>n6_3998714854&#45;&gt;n8_1030972443</title>
<path fill="none" stroke="red" d="M60.6095,-293.578C86.3772,-309.488 127.703,-335.005 155.811,-352.36"/>
<polygon fill="red" stroke="red" points="154.089,-355.41 164.436,-357.685 157.766,-349.454 154.089,-355.41"/>
<text text-anchor="middle" x="130" y="-321.4" font-family="Times Roman,serif" font-size="14.00">1</text>
</g>
<!-- n6_2648920026&#45;&gt;n1_30659912 -->
<g id="edge66" class="edge"><title>n6_2648920026&#45;&gt;n1_30659912</title>
<path fill="none" stroke="red" d="M111.44,-205.618C113.814,-218.462 117.014,-235.784 119.71,-250.373"/>
<polygon fill="red" stroke="red" points="116.306,-251.213 121.565,-260.41 123.19,-249.941 116.306,-251.213"/>
<text text-anchor="middle" x="124" y="-229.4" font-family="Times Roman,serif" font-size="14.00">1</text>
</g>
<!-- n6_2648920026&#45;&gt;n1_30659912 -->
<g id="edge68" class="edge"><title>n6_2648920026&#45;&gt;n1_30659912</title>
<path fill="none" stroke="red" d="M101.878,-205.639C99.2539,-216.436 97.5039,-230.186 101,-242 102.141,-245.854 103.823,-249.684 105.776,-253.337"/>
<polygon fill="red" stroke="red" points="102.844,-255.251 111.038,-261.967 108.82,-251.606 102.844,-255.251"/>
<text text-anchor="middle" x="106" y="-229.4" font-family="Times Roman,serif" font-size="14.00">2</text>
</g>
<!-- n6_2648920026&#45;&gt;n6_3998714854 -->
<g id="edge70" class="edge"><title>n6_2648920026&#45;&gt;n6_3998714854</title>
<path fill="none" stroke="blue" d="M93.9727,-205.176C83.3339,-218.962 68.5739,-238.087 56.743,-253.418"/>
<polygon fill="blue" stroke="blue" points="53.8552,-251.431 50.5164,-261.486 59.3969,-255.707 53.8552,-251.431"/>
</g>
<!-- n6_3222445839&#45;&gt;n1_30659936 -->
<g id="edge74" class="edge"><title>n6_3222445839&#45;&gt;n1_30659936</title>
<path fill="none" stroke="red" d="M860.786,-205.618C859.948,-218.462 858.818,-235.784 857.867,-250.373"/>
<polygon fill="red" stroke="red" points="854.371,-250.204 857.212,-260.41 861.356,-250.659 854.371,-250.204"/>
<text text-anchor="middle" x="864" y="-229.4" font-family="Times Roman,serif" font-size="14.00">2</text>
</g>
<!-- n6_3222445839&#45;&gt;n1_30659912 -->
<g id="edge72" class="edge"><title>n6_3222445839&#45;&gt;n1_30659912</title>
<path fill="none" stroke="red" d="M819.243,-196.808C802.425,-200.289 782.892,-203.868 765,-206 674.221,-216.817 439.407,-191.389 354,-224 342.198,-228.507 343.555,-236.894 332,-242 281.868,-264.154 263.892,-250.015 210,-260 195.404,-262.704 179.502,-266.129 165.443,-269.323"/>
<polygon fill="red" stroke="red" points="164.536,-265.94 155.577,-271.595 166.107,-272.762 164.536,-265.94"/>
<text text-anchor="middle" x="359" y="-229.4" font-family="Times Roman,serif" font-size="14.00">1</text>
</g>
<!-- n6_3222445839&#45;&gt;n6_2641948979 -->
<g id="edge76" class="edge"><title>n6_3222445839&#45;&gt;n6_2641948979</title>
<path fill="none" stroke="blue" d="M879.931,-204.739C894.356,-219.008 914.769,-239.201 930.668,-254.929"/>
<polygon fill="blue" stroke="blue" points="928.493,-257.702 938.064,-262.246 933.416,-252.725 928.493,-257.702"/>
</g>
</g>
</svg>
