<?xml version="1.0" encoding="UTF-8" standalone="no"?>
<!DOCTYPE svg PUBLIC "-//W3C//DTD SVG 1.1//EN"
 "http://www.w3.org/Graphics/SVG/1.1/DTD/svg11.dtd">
<!-- Generated by graphviz version 2.26.3 (20100126.1600)
 -->
<!-- Title: _anonymous_0 Pages: 1 -->
<svg width="2893pt" height="342pt"
 viewBox="0.00 0.00 2893.00 342.00" xmlns="http://www.w3.org/2000/svg" xmlns:xlink="http://www.w3.org/1999/xlink">
<g id="graph1" class="graph" transform="scale(1 1) rotate(0) translate(4 338)">
<title>_anonymous_0</title>
<polygon fill="white" stroke="white" points="-4,5 -4,-338 2890,-338 2890,5 -4,5"/>
<!-- n143367960 -->
<g id="node1" class="node"><title>n143367960</title>
<ellipse fill="none" stroke="black" cx="252" cy="-241" rx="38.1838" ry="18.3848"/>
<text text-anchor="middle" x="252" y="-237.4" font-family="Times Roman,serif" font-size="14.00">_Bool</text>
</g>
<!-- n149085640 -->
<g id="node2" class="node"><title>n149085640</title>
<ellipse fill="none" stroke="black" cx="1716" cy="-167" rx="55.1543" ry="18.3848"/>
<text text-anchor="middle" x="1716" y="-163.4" font-family="Times Roman,serif" font-size="14.00">struct _0</text>
</g>
<!-- n149086152 -->
<g id="node3" class="node"><title>n149086152</title>
<ellipse fill="none" stroke="black" cx="1972" cy="-167" rx="55.1543" ry="18.3848"/>
<text text-anchor="middle" x="1972" y="-163.4" font-family="Times Roman,serif" font-size="14.00">struct _1</text>
</g>
<!-- n149086664 -->
<g id="node4" class="node"><title>n149086664</title>
<ellipse fill="none" stroke="black" cx="2484" cy="-167" rx="55.1543" ry="18.3848"/>
<text text-anchor="middle" x="2484" y="-163.4" font-family="Times Roman,serif" font-size="14.00">struct _2</text>
</g>
<!-- n149087176 -->
<g id="node5" class="node"><title>n149087176</title>
<ellipse fill="none" stroke="black" cx="2100" cy="-167" rx="55.1543" ry="18.3848"/>
<text text-anchor="middle" x="2100" y="-163.4" font-family="Times Roman,serif" font-size="14.00">struct _3</text>
</g>
<!-- n149093288 -->
<g id="node6" class="node"><title>n149093288</title>
<ellipse fill="none" stroke="black" cx="2228" cy="-167" rx="55.1543" ry="18.3848"/>
<text text-anchor="middle" x="2228" y="-163.4" font-family="Times Roman,serif" font-size="14.00">struct _4</text>
</g>
<!-- n149093800 -->
<g id="node7" class="node"><title>n149093800</title>
<ellipse fill="none" stroke="black" cx="2356" cy="-167" rx="55.1543" ry="18.3848"/>
<text text-anchor="middle" x="2356" y="-163.4" font-family="Times Roman,serif" font-size="14.00">struct _5</text>
</g>
<!-- n149094312 -->
<g id="node8" class="node"><title>n149094312</title>
<ellipse fill="none" stroke="black" cx="1844" cy="-167" rx="55.1543" ry="18.3848"/>
<text text-anchor="middle" x="1844" y="-163.4" font-family="Times Roman,serif" font-size="14.00">struct _6</text>
</g>
<!-- n149094824 -->
<g id="node9" class="node"><title>n149094824</title>
<ellipse fill="none" stroke="black" cx="1670" cy="-241" rx="53.9477" ry="18.3848"/>
<text text-anchor="middle" x="1670" y="-237.4" font-family="Times Roman,serif" font-size="14.00">struct _a</text>
</g>
<!-- n149095336 -->
<g id="node10" class="node"><title>n149095336</title>
<ellipse fill="none" stroke="black" cx="1168" cy="-241" rx="53.9477" ry="18.3848"/>
<text text-anchor="middle" x="1168" y="-237.4" font-family="Times Roman,serif" font-size="14.00">struct _b</text>
</g>
<!-- n149095848 -->
<g id="node11" class="node"><title>n149095848</title>
<ellipse fill="none" stroke="black" cx="1293" cy="-241" rx="53.2379" ry="18.3848"/>
<text text-anchor="middle" x="1293" y="-237.4" font-family="Times Roman,serif" font-size="14.00">struct _c</text>
</g>
<!-- n149096360 -->
<g id="node12" class="node"><title>n149096360</title>
<ellipse fill="none" stroke="black" cx="1042" cy="-241" rx="53.9477" ry="18.3848"/>
<text text-anchor="middle" x="1042" y="-237.4" font-family="Times Roman,serif" font-size="14.00">struct _d</text>
</g>
<!-- n149096872 -->
<g id="node13" class="node"><title>n149096872</title>
<ellipse fill="none" stroke="black" cx="1418" cy="-241" rx="53.9477" ry="18.3848"/>
<text text-anchor="middle" x="1418" y="-237.4" font-family="Times Roman,serif" font-size="14.00">struct _e</text>
</g>
<!-- n149097384 -->
<g id="node14" class="node"><title>n149097384</title>
<ellipse fill="none" stroke="black" cx="1794" cy="-241" rx="51.8276" ry="18.3848"/>
<text text-anchor="middle" x="1794" y="-237.4" font-family="Times Roman,serif" font-size="14.00">struct _f</text>
</g>
<!-- n149097896 -->
<g id="node15" class="node"><title>n149097896</title>
<ellipse fill="none" stroke="black" cx="1544" cy="-241" rx="53.9477" ry="18.3848"/>
<text text-anchor="middle" x="1544" y="-237.4" font-family="Times Roman,serif" font-size="14.00">struct _g</text>
</g>
<!-- n149121896 -->
<g id="node16" class="node"><title>n149121896</title>
<ellipse fill="none" stroke="black" cx="664" cy="-167" rx="132.229" ry="18.3848"/>
<text text-anchor="middle" x="664" y="-163.4" font-family="Times Roman,serif" font-size="14.00">struct mpl_::bool_&lt;1&gt; &amp;</text>
</g>
<!-- n149138592 -->
<g id="node17" class="node"><title>n149138592</title>
<ellipse fill="none" stroke="black" cx="2477" cy="-93" rx="130.108" ry="18.3848"/>
<text text-anchor="middle" x="2477" y="-89.4" font-family="Times Roman,serif" font-size="14.00">struct mpl_::bool_&lt;1&gt; *</text>
</g>
<!-- n149179320 -->
<g id="node18" class="node"><title>n149179320</title>
<ellipse fill="none" stroke="black" cx="1120" cy="-167" rx="132.229" ry="18.3848"/>
<text text-anchor="middle" x="1120" y="-163.4" font-family="Times Roman,serif" font-size="14.00">struct mpl_::bool_&lt;0&gt; &amp;</text>
</g>
<!-- n149195296 -->
<g id="node19" class="node"><title>n149195296</title>
<ellipse fill="none" stroke="black" cx="2755" cy="-93" rx="130.108" ry="18.3848"/>
<text text-anchor="middle" x="2755" y="-89.4" font-family="Times Roman,serif" font-size="14.00">struct mpl_::bool_&lt;0&gt; *</text>
</g>
<!-- n6578873410 -->
<g id="node20" class="node"><title>n6578873410</title>
<ellipse fill="none" stroke="black" cx="162" cy="-93" rx="96.8736" ry="18.3848"/>
<text text-anchor="middle" x="162" y="-89.4" font-family="Times Roman,serif" font-size="14.00">integral_constant</text>
</g>
<!-- n6578873410&#45;&gt;n143367960 -->
<g id="edge2" class="edge"><title>n6578873410&#45;&gt;n143367960</title>
<path fill="none" stroke="black" d="M162.066,-111.509C162.94,-131.34 166.722,-163.054 181,-186 189.987,-200.443 204.21,-212.565 217.573,-221.721"/>
<polygon fill="black" stroke="black" points="215.874,-224.791 226.167,-227.304 219.688,-218.921 215.874,-224.791"/>
</g>
<!-- n6782738765 -->
<g id="node22" class="node"><title>n6782738765</title>
<ellipse fill="none" stroke="black" cx="227" cy="-167" rx="36.977" ry="18.3848"/>
<text text-anchor="middle" x="227" y="-163.4" font-family="Times Roman,serif" font-size="14.00">bool_</text>
</g>
<!-- n6578873410&#45;&gt;n6782738765 -->
<g id="edge6" class="edge"><title>n6578873410&#45;&gt;n6782738765</title>
<path fill="none" stroke="black" d="M178.067,-111.292C186.255,-120.613 196.33,-132.084 205.206,-142.189"/>
<polygon fill="black" stroke="black" points="202.78,-144.73 212.009,-149.933 208.039,-140.11 202.78,-144.73"/>
</g>
<!-- n81030972443 -->
<g id="node40" class="node"><title>n81030972443</title>
<ellipse fill="none" stroke="black" cx="48" cy="-241" rx="29.9071" ry="18.3848"/>
<text text-anchor="middle" x="48" y="-237.4" font-family="Times Roman,serif" font-size="14.00">0x1</text>
</g>
<!-- n6578873410&#45;&gt;n81030972443 -->
<g id="edge4" class="edge"><title>n6578873410&#45;&gt;n81030972443</title>
<path fill="none" stroke="black" d="M152.358,-111.733C141.932,-131.191 124.208,-162.079 105,-186 95.6004,-197.706 83.8516,-209.43 73.4667,-219.028"/>
<polygon fill="black" stroke="black" points="70.9193,-216.613 65.8527,-225.918 75.616,-221.804 70.9193,-216.613"/>
</g>
<!-- n6660663133 -->
<g id="node21" class="node"><title>n6660663133</title>
<ellipse fill="none" stroke="black" cx="641" cy="-19" rx="55.1543" ry="18.3848"/>
<text text-anchor="middle" x="641" y="-15.4" font-family="Times Roman,serif" font-size="14.00">enable_if</text>
</g>
<!-- n6660663133&#45;&gt;n149121896 -->
<g id="edge10" class="edge"><title>n6660663133&#45;&gt;n149121896</title>
<path fill="none" stroke="black" d="M643.913,-37.7443C647.853,-63.099 654.918,-108.561 659.532,-138.25"/>
<polygon fill="black" stroke="black" points="656.116,-139.064 661.111,-148.408 663.033,-137.989 656.116,-139.064"/>
</g>
<!-- n6829468482 -->
<g id="node25" class="node"><title>n6829468482</title>
<ellipse fill="none" stroke="black" cx="369" cy="-93" rx="63.8479" ry="18.3848"/>
<text text-anchor="middle" x="369" y="-89.4" font-family="Times Roman,serif" font-size="14.00">is_function</text>
</g>
<!-- n6660663133&#45;&gt;n6829468482 -->
<g id="edge8" class="edge"><title>n6660663133&#45;&gt;n6829468482</title>
<path fill="none" stroke="black" d="M598.201,-30.6439C551.635,-43.3124 476.983,-63.6223 425.601,-77.6013"/>
<polygon fill="black" stroke="black" points="424.38,-74.306 415.65,-80.3085 426.218,-81.0605 424.38,-74.306"/>
</g>
<!-- n61921057093 -->
<g id="node29" class="node"><title>n61921057093</title>
<ellipse fill="none" stroke="black" cx="734" cy="-93" rx="65.0538" ry="18.3848"/>
<text text-anchor="middle" x="734" y="-89.4" font-family="Times Roman,serif" font-size="14.00">enable_if_c</text>
</g>
<!-- n6660663133&#45;&gt;n61921057093 -->
<g id="edge12" class="edge"><title>n6660663133&#45;&gt;n61921057093</title>
<path fill="none" stroke="black" d="M662.57,-36.1631C674.834,-45.9218 690.383,-58.2943 703.841,-69.0023"/>
<polygon fill="black" stroke="black" points="701.897,-71.9285 711.901,-75.4161 706.255,-66.4509 701.897,-71.9285"/>
</g>
<!-- n6782738765&#45;&gt;n81030972443 -->
<g id="edge14" class="edge"><title>n6782738765&#45;&gt;n81030972443</title>
<path fill="none" stroke="black" d="M198.241,-178.889C166.669,-191.941 116.004,-212.886 82.3644,-226.793"/>
<polygon fill="black" stroke="black" points="80.839,-223.637 72.9348,-230.692 83.5134,-230.106 80.839,-223.637"/>
</g>
<!-- n6805480086 -->
<g id="node23" class="node"><title>n6805480086</title>
<ellipse fill="none" stroke="black" cx="504" cy="-241" rx="36.977" ry="18.3848"/>
<text text-anchor="middle" x="504" y="-237.4" font-family="Times Roman,serif" font-size="14.00">bool_</text>
</g>
<!-- n81773484321 -->
<g id="node41" class="node"><title>n81773484321</title>
<ellipse fill="none" stroke="black" cx="892" cy="-315" rx="29.9071" ry="18.3848"/>
<text text-anchor="middle" x="892" y="-311.4" font-family="Times Roman,serif" font-size="14.00">0x0</text>
</g>
<!-- n6805480086&#45;&gt;n81773484321 -->
<g id="edge16" class="edge"><title>n6805480086&#45;&gt;n81773484321</title>
<path fill="none" stroke="black" d="M538.774,-247.632C611.166,-261.439 777.603,-293.182 853.279,-307.615"/>
<polygon fill="black" stroke="black" points="852.857,-311.098 863.336,-309.533 854.168,-304.222 852.857,-311.098"/>
</g>
<!-- n6814055309 -->
<g id="node24" class="node"><title>n6814055309</title>
<ellipse fill="none" stroke="black" cx="2477" cy="-19" rx="120.208" ry="18.3848"/>
<text text-anchor="middle" x="2477" y="-15.4" font-family="Times Roman,serif" font-size="14.00">is_function_ptr_helper</text>
</g>
<!-- n6814055309&#45;&gt;n149138592 -->
<g id="edge18" class="edge"><title>n6814055309&#45;&gt;n149138592</title>
<path fill="none" stroke="black" d="M2477,-37.6733C2477,-45.7361 2477,-55.3523 2477,-64.2885"/>
<polygon fill="black" stroke="black" points="2473.5,-64.3326 2477,-74.3326 2480.5,-64.3327 2473.5,-64.3326"/>
</g>
<!-- n6829468482&#45;&gt;n6782738765 -->
<g id="edge20" class="edge"><title>n6829468482&#45;&gt;n6782738765</title>
<path fill="none" stroke="black" d="M337.837,-109.24C315.45,-120.906 285.25,-136.645 262.027,-148.746"/>
<polygon fill="black" stroke="black" points="260.115,-145.796 252.864,-153.521 263.35,-152.004 260.115,-145.796"/>
</g>
<!-- n63913296472 -->
<g id="node37" class="node"><title>n63913296472</title>
<ellipse fill="none" stroke="black" cx="379" cy="-167" rx="96.8736" ry="18.3848"/>
<text text-anchor="middle" x="379" y="-163.4" font-family="Times Roman,serif" font-size="14.00">integral_constant</text>
</g>
<!-- n6829468482&#45;&gt;n63913296472 -->
<g id="edge22" class="edge"><title>n6829468482&#45;&gt;n63913296472</title>
<path fill="none" stroke="black" d="M371.523,-111.673C372.613,-119.736 373.912,-129.352 375.12,-138.289"/>
<polygon fill="black" stroke="black" points="371.67,-138.891 376.477,-148.333 378.607,-137.954 371.67,-138.891"/>
</g>
<!-- n61016518059 -->
<g id="node26" class="node"><title>n61016518059</title>
<ellipse fill="none" stroke="black" cx="1714" cy="-93" rx="50.9117" ry="18.3848"/>
<text text-anchor="middle" x="1714" y="-89.4" font-family="Times Roman,serif" font-size="14.00">has_key</text>
</g>
<!-- n61016518059&#45;&gt;n149085640 -->
<g id="edge26" class="edge"><title>n61016518059&#45;&gt;n149085640</title>
<path fill="none" stroke="black" d="M1714.5,-111.673C1714.72,-119.736 1714.98,-129.352 1715.22,-138.289"/>
<polygon fill="black" stroke="black" points="1711.73,-138.431 1715.5,-148.333 1718.72,-138.242 1711.73,-138.431"/>
</g>
<!-- n62619113625 -->
<g id="node32" class="node"><title>n62619113625</title>
<ellipse fill="none" stroke="black" cx="1418" cy="-167" rx="27" ry="18.3848"/>
<text text-anchor="middle" x="1418" y="-163.4" font-family="Times Roman,serif" font-size="14.00">set</text>
</g>
<!-- n61016518059&#45;&gt;n62619113625 -->
<g id="edge24" class="edge"><title>n61016518059&#45;&gt;n62619113625</title>
<path fill="none" stroke="black" d="M1671.9,-103.524C1613.28,-118.181 1508.08,-144.479 1453.32,-158.171"/>
<polygon fill="black" stroke="black" points="1452.24,-154.833 1443.38,-160.654 1453.93,-161.624 1452.24,-154.833"/>
</g>
<!-- n61519374038 -->
<g id="node27" class="node"><title>n61519374038</title>
<ellipse fill="none" stroke="black" cx="2194" cy="-19" rx="50.9117" ry="18.3848"/>
<text text-anchor="middle" x="2194" y="-15.4" font-family="Times Roman,serif" font-size="14.00">has_key</text>
</g>
<!-- n61519374038&#45;&gt;n149086664 -->
<g id="edge30" class="edge"><title>n61519374038&#45;&gt;n149086664</title>
<path fill="none" stroke="black" d="M2216.54,-35.7253C2244.14,-55.6898 2292.82,-89.2291 2338,-112 2368.83,-127.54 2405.16,-141.241 2433.86,-151.081"/>
<polygon fill="black" stroke="black" points="2433.08,-154.512 2443.68,-154.397 2435.32,-147.88 2433.08,-154.512"/>
</g>
<!-- n63727685151 -->
<g id="node36" class="node"><title>n63727685151</title>
<ellipse fill="none" stroke="black" cx="2100" cy="-93" rx="27" ry="18.3848"/>
<text text-anchor="middle" x="2100" y="-89.4" font-family="Times Roman,serif" font-size="14.00">set</text>
</g>
<!-- n61519374038&#45;&gt;n63727685151 -->
<g id="edge28" class="edge"><title>n61519374038&#45;&gt;n63727685151</title>
<path fill="none" stroke="black" d="M2172.2,-36.1631C2158.42,-47.0132 2140.53,-61.0945 2126.01,-72.5266"/>
<polygon fill="black" stroke="black" points="2123.59,-69.9713 2117.9,-78.907 2127.92,-75.4714 2123.59,-69.9713"/>
</g>
<!-- n61735600528 -->
<g id="node28" class="node"><title>n61735600528</title>
<ellipse fill="none" stroke="black" cx="1337" cy="-93" rx="50.9117" ry="18.3848"/>
<text text-anchor="middle" x="1337" y="-89.4" font-family="Times Roman,serif" font-size="14.00">has_key</text>
</g>
<!-- n61735600528&#45;&gt;n149096360 -->
<g id="edge34" class="edge"><title>n61735600528&#45;&gt;n149096360</title>
<path fill="none" stroke="black" d="M1327,-111.476C1314.46,-132.824 1290.93,-167.394 1261,-186 1200.57,-223.569 1173.77,-203.717 1105,-222 1100.72,-223.137 1096.3,-224.365 1091.87,-225.63"/>
<polygon fill="black" stroke="black" points="1090.84,-222.284 1082.22,-228.439 1092.8,-229.005 1090.84,-222.284"/>
</g>
<!-- n61735600528&#45;&gt;n62619113625 -->
<g id="edge32" class="edge"><title>n61735600528&#45;&gt;n62619113625</title>
<path fill="none" stroke="black" d="M1356.2,-110.537C1367.56,-120.915 1382.04,-134.148 1394.13,-145.195"/>
<polygon fill="black" stroke="black" points="1391.93,-147.925 1401.68,-152.086 1396.65,-142.757 1391.93,-147.925"/>
</g>
<!-- n61921057093&#45;&gt;n149121896 -->
<g id="edge38" class="edge"><title>n61921057093&#45;&gt;n149121896</title>
<path fill="none" stroke="black" d="M717.055,-110.913C708.478,-119.98 697.91,-131.153 688.468,-141.133"/>
<polygon fill="black" stroke="black" points="685.849,-138.809 681.52,-148.479 690.935,-143.619 685.849,-138.809"/>
</g>
<!-- n61921057093&#45;&gt;n81773484321 -->
<g id="edge36" class="edge"><title>n61921057093&#45;&gt;n81773484321</title>
<path fill="none" stroke="black" d="M762.917,-109.701C777.314,-119.294 793.957,-132.511 805,-148 835.516,-190.8 816.543,-214.579 843,-260 849.738,-271.568 859.16,-282.873 867.943,-292.195"/>
<polygon fill="black" stroke="black" points="865.607,-294.812 875.098,-299.521 870.615,-289.921 865.607,-294.812"/>
</g>
<!-- n62441722660 -->
<g id="node30" class="node"><title>n62441722660</title>
<ellipse fill="none" stroke="black" cx="515" cy="-93" rx="63.8479" ry="18.3848"/>
<text text-anchor="middle" x="515" y="-89.4" font-family="Times Roman,serif" font-size="14.00">is_function</text>
</g>
<!-- n62441722660&#45;&gt;n6805480086 -->
<g id="edge40" class="edge"><title>n62441722660&#45;&gt;n6805480086</title>
<path fill="none" stroke="black" d="M513.607,-111.744C511.722,-137.099 508.343,-182.561 506.137,-212.25"/>
<polygon fill="black" stroke="black" points="502.633,-212.176 505.382,-222.408 509.614,-212.695 502.633,-212.176"/>
</g>
<!-- n62441722660&#45;&gt;n63913296472 -->
<g id="edge42" class="edge"><title>n62441722660&#45;&gt;n63913296472</title>
<path fill="none" stroke="black" d="M484.817,-109.423C465.867,-119.734 441.17,-133.172 420.403,-144.472"/>
<polygon fill="black" stroke="black" points="418.584,-141.477 411.473,-149.331 421.929,-147.626 418.584,-141.477"/>
</g>
<!-- n62577862729 -->
<g id="node31" class="node"><title>n62577862729</title>
<ellipse fill="none" stroke="black" cx="1806" cy="-19" rx="50.9117" ry="18.3848"/>
<text text-anchor="middle" x="1806" y="-15.4" font-family="Times Roman,serif" font-size="14.00">has_key</text>
</g>
<!-- n62577862729&#45;&gt;n149097384 -->
<g id="edge46" class="edge"><title>n62577862729&#45;&gt;n149097384</title>
<path fill="none" stroke="black" d="M1762.69,-28.9141C1722.53,-39.0755 1667.06,-55.9113 1654,-74 1624.86,-114.365 1623.86,-144.928 1652,-186 1657.68,-194.294 1706.74,-212.149 1745.63,-225.276"/>
<polygon fill="black" stroke="black" points="1744.67,-228.645 1755.26,-228.502 1746.89,-222.008 1744.67,-228.645"/>
</g>
<!-- n62577862729&#45;&gt;n63727685151 -->
<g id="edge44" class="edge"><title>n62577862729&#45;&gt;n63727685151</title>
<path fill="none" stroke="black" d="M1848.12,-29.6024C1906.3,-44.2447 2010.19,-70.3958 2064.59,-84.0862"/>
<polygon fill="black" stroke="black" points="2063.91,-87.5247 2074.46,-86.5715 2065.62,-80.7364 2063.91,-87.5247"/>
</g>
<!-- n62619113625&#45;&gt;n149094824 -->
<g id="edge48" class="edge"><title>n62619113625&#45;&gt;n149094824</title>
<path fill="none" stroke="black" d="M1443.09,-174.218C1479.31,-184.656 1548.35,-204.623 1607,-222 1611.07,-223.205 1615.28,-224.46 1619.51,-225.725"/>
<polygon fill="black" stroke="black" points="1618.77,-229.156 1629.35,-228.677 1620.78,-222.451 1618.77,-229.156"/>
</g>
<!-- n62619113625&#45;&gt;n149095336 -->
<g id="edge50" class="edge"><title>n62619113625&#45;&gt;n149095336</title>
<path fill="none" stroke="black" d="M1392.88,-174.329C1356.97,-184.82 1288.89,-204.757 1231,-222 1226.94,-223.211 1222.72,-224.47 1218.5,-225.738"/>
<polygon fill="black" stroke="black" points="1217.23,-222.465 1208.66,-228.694 1219.24,-229.169 1217.23,-222.465"/>
</g>
<!-- n62619113625&#45;&gt;n149095848 -->
<g id="edge52" class="edge"><title>n62619113625&#45;&gt;n149095848</title>
<path fill="none" stroke="black" d="M1397.36,-179.22C1378.83,-190.188 1351.22,-206.533 1329.05,-219.656"/>
<polygon fill="black" stroke="black" points="1327.06,-216.769 1320.24,-224.875 1330.63,-222.792 1327.06,-216.769"/>
</g>
<!-- n62619113625&#45;&gt;n149096360 -->
<g id="edge54" class="edge"><title>n62619113625&#45;&gt;n149096360</title>
<path fill="none" stroke="black" d="M1392.62,-173.386C1376.47,-177.323 1355.08,-182.308 1336,-186 1233.99,-205.74 1206.32,-198.944 1105,-222 1100.56,-223.011 1095.97,-224.169 1091.39,-225.402"/>
<polygon fill="black" stroke="black" points="1090.12,-222.124 1081.43,-228.197 1092.01,-228.863 1090.12,-222.124"/>
</g>
<!-- n62619113625&#45;&gt;n149096872 -->
<g id="edge56" class="edge"><title>n62619113625&#45;&gt;n149096872</title>
<path fill="none" stroke="black" d="M1418,-185.673C1418,-193.736 1418,-203.352 1418,-212.289"/>
<polygon fill="black" stroke="black" points="1414.5,-212.333 1418,-222.333 1421.5,-212.333 1414.5,-212.333"/>
</g>
<!-- n62619113625&#45;&gt;n149097384 -->
<g id="edge58" class="edge"><title>n62619113625&#45;&gt;n149097384</title>
<path fill="none" stroke="black" d="M1444.79,-170.487C1499.43,-177.86 1627.51,-196.475 1733,-222 1737.3,-223.041 1741.74,-224.218 1746.18,-225.465"/>
<polygon fill="black" stroke="black" points="1745.23,-228.836 1755.81,-228.278 1747.19,-222.116 1745.23,-228.836"/>
</g>
<!-- n62619113625&#45;&gt;n149097896 -->
<g id="edge60" class="edge"><title>n62619113625&#45;&gt;n149097896</title>
<path fill="none" stroke="black" d="M1438.52,-179.054C1457.16,-189.997 1485.07,-206.388 1507.5,-219.561"/>
<polygon fill="black" stroke="black" points="1506.02,-222.754 1516.42,-224.8 1509.57,-216.718 1506.02,-222.754"/>
</g>
<!-- n63012754580 -->
<g id="node33" class="node"><title>n63012754580</title>
<ellipse fill="none" stroke="black" cx="48" cy="-167" rx="48.0833" ry="18.3848"/>
<text text-anchor="middle" x="48" y="-163.4" font-family="Times Roman,serif" font-size="14.00">ice_and</text>
</g>
<!-- n63012754580&#45;&gt;n81030972443 -->
<g id="edge62" class="edge"><title>n63012754580&#45;&gt;n81030972443</title>
<path fill="none" stroke="black" d="M15.5313,-180.919C5.3565,-193.47 4.8495,-211.921 14.0103,-225.059"/>
<polygon fill="black" stroke="black" points="11.5632,-227.566 20.9635,-232.454 16.6627,-222.771 11.5632,-227.566"/>
</g>
<!-- n63012754580&#45;&gt;n81030972443 -->
<g id="edge64" class="edge"><title>n63012754580&#45;&gt;n81030972443</title>
<path fill="none" stroke="black" d="M25.1199,-183.423C20.558,-193.594 19.7846,-206.808 22.7997,-218.01"/>
<polygon fill="black" stroke="black" points="19.668,-219.605 26.6337,-227.588 26.1667,-217.004 19.668,-219.605"/>
</g>
<!-- n63012754580&#45;&gt;n81030972443 -->
<g id="edge66" class="edge"><title>n63012754580&#45;&gt;n81030972443</title>
<path fill="none" stroke="black" d="M36.1685,-185.292C34.4936,-193.875 34.0797,-204.28 34.9267,-213.764"/>
<polygon fill="black" stroke="black" points="31.5041,-214.547 36.4189,-223.933 38.43,-213.531 31.5041,-214.547"/>
</g>
<!-- n63012754580&#45;&gt;n81030972443 -->
<g id="edge68" class="edge"><title>n63012754580&#45;&gt;n81030972443</title>
<path fill="none" stroke="black" d="M48,-185.673C48,-193.736 48,-203.352 48,-212.289"/>
<polygon fill="black" stroke="black" points="44.5001,-212.333 48,-222.333 51.5001,-212.333 44.5001,-212.333"/>
</g>
<!-- n63012754580&#45;&gt;n81030972443 -->
<g id="edge70" class="edge"><title>n63012754580&#45;&gt;n81030972443</title>
<path fill="none" stroke="black" d="M59.8315,-185.292C61.5064,-193.875 61.9203,-204.28 61.0733,-213.764"/>
<polygon fill="black" stroke="black" points="57.57,-213.531 59.5811,-223.933 64.4959,-214.547 57.57,-213.531"/>
</g>
<!-- n63012754580&#45;&gt;n81030972443 -->
<g id="edge72" class="edge"><title>n63012754580&#45;&gt;n81030972443</title>
<path fill="none" stroke="black" d="M70.8801,-183.423C75.442,-193.594 76.2154,-206.808 73.2003,-218.01"/>
<polygon fill="black" stroke="black" points="69.8333,-217.004 69.3663,-227.588 76.332,-219.605 69.8333,-217.004"/>
</g>
<!-- n63012754580&#45;&gt;n81030972443 -->
<g id="edge74" class="edge"><title>n63012754580&#45;&gt;n81030972443</title>
<path fill="none" stroke="black" d="M80.4687,-180.919C90.6435,-193.47 91.1505,-211.921 81.9897,-225.059"/>
<polygon fill="black" stroke="black" points="79.3373,-222.771 75.0365,-232.454 84.4368,-227.566 79.3373,-222.771"/>
</g>
<!-- n63025142351 -->
<g id="node34" class="node"><title>n63025142351</title>
<ellipse fill="none" stroke="black" cx="892" cy="-241" rx="39.8075" ry="18.3848"/>
<text text-anchor="middle" x="892" y="-237.4" font-family="Times Roman,serif" font-size="14.00">ice_or</text>
</g>
<!-- n63025142351&#45;&gt;n81773484321 -->
<g id="edge76" class="edge"><title>n63025142351&#45;&gt;n81773484321</title>
<path fill="none" stroke="black" d="M861.311,-252.889C849.397,-265.458 848.334,-285.345 858.122,-299.219"/>
<polygon fill="black" stroke="black" points="855.71,-301.761 865.139,-306.592 860.781,-296.936 855.71,-301.761"/>
</g>
<!-- n63025142351&#45;&gt;n81773484321 -->
<g id="edge78" class="edge"><title>n63025142351&#45;&gt;n81773484321</title>
<path fill="none" stroke="black" d="M869.456,-256.693C864.547,-267.063 863.694,-280.818 866.897,-292.365"/>
<polygon fill="black" stroke="black" points="863.731,-293.87 870.755,-301.802 870.21,-291.221 863.731,-293.87"/>
</g>
<!-- n63025142351&#45;&gt;n81773484321 -->
<g id="edge80" class="edge"><title>n63025142351&#45;&gt;n81773484321</title>
<path fill="none" stroke="black" d="M880.244,-258.913C878.503,-267.583 878.066,-278.178 878.931,-287.816"/>
<polygon fill="black" stroke="black" points="875.475,-288.371 880.382,-297.761 882.402,-287.361 875.475,-288.371"/>
</g>
<!-- n63025142351&#45;&gt;n81773484321 -->
<g id="edge82" class="edge"><title>n63025142351&#45;&gt;n81773484321</title>
<path fill="none" stroke="black" d="M892,-259.673C892,-267.736 892,-277.352 892,-286.289"/>
<polygon fill="black" stroke="black" points="888.5,-286.333 892,-296.333 895.5,-286.333 888.5,-286.333"/>
</g>
<!-- n63025142351&#45;&gt;n81773484321 -->
<g id="edge84" class="edge"><title>n63025142351&#45;&gt;n81773484321</title>
<path fill="none" stroke="black" d="M903.756,-258.913C905.497,-267.583 905.934,-278.178 905.069,-287.816"/>
<polygon fill="black" stroke="black" points="901.598,-287.361 903.618,-297.761 908.525,-288.371 901.598,-287.361"/>
</g>
<!-- n63025142351&#45;&gt;n81773484321 -->
<g id="edge86" class="edge"><title>n63025142351&#45;&gt;n81773484321</title>
<path fill="none" stroke="black" d="M914.544,-256.693C919.453,-267.063 920.306,-280.818 917.103,-292.365"/>
<polygon fill="black" stroke="black" points="913.79,-291.221 913.245,-301.802 920.269,-293.87 913.79,-291.221"/>
</g>
<!-- n63025142351&#45;&gt;n81773484321 -->
<g id="edge88" class="edge"><title>n63025142351&#45;&gt;n81773484321</title>
<path fill="none" stroke="black" d="M922.689,-252.889C934.603,-265.458 935.666,-285.345 925.878,-299.219"/>
<polygon fill="black" stroke="black" points="923.219,-296.936 918.861,-306.592 928.29,-301.761 923.219,-296.936"/>
</g>
<!-- n63694002358 -->
<g id="node35" class="node"><title>n63694002358</title>
<ellipse fill="none" stroke="black" cx="977" cy="-19" rx="55.1543" ry="18.3848"/>
<text text-anchor="middle" x="977" y="-15.4" font-family="Times Roman,serif" font-size="14.00">enable_if</text>
</g>
<!-- n63694002358&#45;&gt;n149179320 -->
<g id="edge92" class="edge"><title>n63694002358&#45;&gt;n149179320</title>
<path fill="none" stroke="black" d="M1002.79,-35.3928C1017.73,-45.5411 1036.4,-59.3927 1051,-74 1071.09,-94.103 1090.03,-120.359 1102.96,-139.845"/>
<polygon fill="black" stroke="black" points="1100.07,-141.815 1108.47,-148.275 1105.93,-137.988 1100.07,-141.815"/>
</g>
<!-- n63694002358&#45;&gt;n62441722660 -->
<g id="edge90" class="edge"><title>n63694002358&#45;&gt;n62441722660</title>
<path fill="none" stroke="black" d="M927.119,-26.9896C843.373,-40.4035 674.515,-67.4499 581.031,-82.4236"/>
<polygon fill="black" stroke="black" points="580.441,-78.9735 571.12,-84.0111 581.548,-85.8854 580.441,-78.9735"/>
</g>
<!-- n64126820557 -->
<g id="node38" class="node"><title>n64126820557</title>
<ellipse fill="none" stroke="black" cx="977" cy="-93" rx="65.0538" ry="18.3848"/>
<text text-anchor="middle" x="977" y="-89.4" font-family="Times Roman,serif" font-size="14.00">enable_if_c</text>
</g>
<!-- n63694002358&#45;&gt;n64126820557 -->
<g id="edge94" class="edge"><title>n63694002358&#45;&gt;n64126820557</title>
<path fill="none" stroke="black" d="M977,-37.6733C977,-45.7361 977,-55.3523 977,-64.2885"/>
<polygon fill="black" stroke="black" points="973.5,-64.3326 977,-74.3326 980.5,-64.3327 973.5,-64.3326"/>
</g>
<!-- n63727685151&#45;&gt;n149085640 -->
<g id="edge96" class="edge"><title>n63727685151&#45;&gt;n149085640</title>
<path fill="none" stroke="black" d="M2073.24,-96.5073C2018.01,-103.983 1887.59,-122.876 1780,-148 1775.38,-149.08 1770.59,-150.301 1765.82,-151.59"/>
<polygon fill="black" stroke="black" points="1764.78,-148.246 1756.09,-154.308 1766.66,-154.988 1764.78,-148.246"/>
</g>
<!-- n63727685151&#45;&gt;n149086152 -->
<g id="edge98" class="edge"><title>n63727685151&#45;&gt;n149086152</title>
<path fill="none" stroke="black" d="M2079.15,-105.054C2060.14,-116.045 2031.62,-132.534 2008.78,-145.737"/>
<polygon fill="black" stroke="black" points="2006.93,-142.765 2000.02,-150.8 2010.43,-148.825 2006.93,-142.765"/>
</g>
<!-- n63727685151&#45;&gt;n149086664 -->
<g id="edge100" class="edge"><title>n63727685151&#45;&gt;n149086664</title>
<path fill="none" stroke="black" d="M2126.76,-96.5073C2181.99,-103.983 2312.41,-122.876 2420,-148 2424.62,-149.08 2429.41,-150.301 2434.18,-151.59"/>
<polygon fill="black" stroke="black" points="2433.34,-154.988 2443.91,-154.308 2435.22,-148.246 2433.34,-154.988"/>
</g>
<!-- n63727685151&#45;&gt;n149087176 -->
<g id="edge102" class="edge"><title>n63727685151&#45;&gt;n149087176</title>
<path fill="none" stroke="black" d="M2100,-111.673C2100,-119.736 2100,-129.352 2100,-138.289"/>
<polygon fill="black" stroke="black" points="2096.5,-138.333 2100,-148.333 2103.5,-138.333 2096.5,-138.333"/>
</g>
<!-- n63727685151&#45;&gt;n149093288 -->
<g id="edge104" class="edge"><title>n63727685151&#45;&gt;n149093288</title>
<path fill="none" stroke="black" d="M2120.85,-105.054C2139.86,-116.045 2168.38,-132.534 2191.22,-145.737"/>
<polygon fill="black" stroke="black" points="2189.57,-148.825 2199.98,-150.8 2193.07,-142.765 2189.57,-148.825"/>
</g>
<!-- n63727685151&#45;&gt;n149093800 -->
<g id="edge106" class="edge"><title>n63727685151&#45;&gt;n149093800</title>
<path fill="none" stroke="black" d="M2125.18,-100.13C2161.89,-110.544 2232.25,-130.573 2292,-148 2296.25,-149.238 2300.65,-150.529 2305.06,-151.83"/>
<polygon fill="black" stroke="black" points="2304.12,-155.201 2314.7,-154.677 2306.1,-148.488 2304.12,-155.201"/>
</g>
<!-- n63727685151&#45;&gt;n149094312 -->
<g id="edge108" class="edge"><title>n63727685151&#45;&gt;n149094312</title>
<path fill="none" stroke="black" d="M2074.82,-100.13C2038.11,-110.544 1967.75,-130.573 1908,-148 1903.75,-149.238 1899.35,-150.529 1894.94,-151.83"/>
<polygon fill="black" stroke="black" points="1893.9,-148.488 1885.3,-154.677 1895.88,-155.201 1893.9,-148.488"/>
</g>
<!-- n63913296472&#45;&gt;n143367960 -->
<g id="edge110" class="edge"><title>n63913296472&#45;&gt;n143367960</title>
<path fill="none" stroke="black" d="M348.58,-184.725C329.575,-195.799 305.086,-210.068 285.522,-221.467"/>
<polygon fill="black" stroke="black" points="283.518,-218.584 276.64,-226.643 287.042,-224.633 283.518,-218.584"/>
</g>
<!-- n63913296472&#45;&gt;n6805480086 -->
<g id="edge114" class="edge"><title>n63913296472&#45;&gt;n6805480086</title>
<path fill="none" stroke="black" d="M408.941,-184.725C427.646,-195.799 451.75,-210.068 471.005,-221.467"/>
<polygon fill="black" stroke="black" points="469.36,-224.56 479.748,-226.643 472.926,-218.537 469.36,-224.56"/>
</g>
<!-- n63913296472&#45;&gt;n81773484321 -->
<g id="edge112" class="edge"><title>n63913296472&#45;&gt;n81773484321</title>
<path fill="none" stroke="black" d="M389.035,-185.628C401.885,-207.466 426.332,-242.85 458,-260 525.591,-296.604 757.618,-309.708 851.796,-313.591"/>
<polygon fill="black" stroke="black" points="851.658,-317.088 861.79,-313.989 851.937,-310.093 851.658,-317.088"/>
</g>
<!-- n64126820557&#45;&gt;n149179320 -->
<g id="edge118" class="edge"><title>n64126820557&#45;&gt;n149179320</title>
<path fill="none" stroke="black" d="M1008.38,-109.24C1028.31,-119.551 1054.38,-133.044 1076.32,-144.395"/>
<polygon fill="black" stroke="black" points="1074.95,-147.626 1085.44,-149.114 1078.16,-141.409 1074.95,-147.626"/>
</g>
<!-- n64126820557&#45;&gt;n81773484321 -->
<g id="edge116" class="edge"><title>n64126820557&#45;&gt;n81773484321</title>
<path fill="none" stroke="black" d="M976.075,-111.567C973.832,-143.526 966.255,-210.288 941,-260 934.936,-271.936 925.638,-283.307 916.764,-292.58"/>
<polygon fill="black" stroke="black" points="914.094,-290.299 909.49,-299.842 919.04,-295.253 914.094,-290.299"/>
</g>
<!-- n64266252883 -->
<g id="node39" class="node"><title>n64266252883</title>
<ellipse fill="none" stroke="black" cx="2755" cy="-19" rx="120.208" ry="18.3848"/>
<text text-anchor="middle" x="2755" y="-15.4" font-family="Times Roman,serif" font-size="14.00">is_function_ptr_helper</text>
</g>
<!-- n64266252883&#45;&gt;n149195296 -->
<g id="edge120" class="edge"><title>n64266252883&#45;&gt;n149195296</title>
<path fill="none" stroke="black" d="M2755,-37.6733C2755,-45.7361 2755,-55.3523 2755,-64.2885"/>
<polygon fill="black" stroke="black" points="2751.5,-64.3326 2755,-74.3326 2758.5,-64.3327 2751.5,-64.3326"/>
</g>
</g>
</svg>
