<?xml version="1.0" encoding="UTF-8" standalone="no"?>
<!DOCTYPE svg PUBLIC "-//W3C//DTD SVG 1.1//EN"
 "http://www.w3.org/Graphics/SVG/1.1/DTD/svg11.dtd">
<!-- Generated by graphviz version 2.26.3 (20100126.1600)
 -->
<!-- Title: _anonymous_0 Pages: 1 -->
<svg width="2893pt" height="342pt"
 viewBox="0.00 0.00 2893.00 342.00" xmlns="http://www.w3.org/2000/svg" xmlns:xlink="http://www.w3.org/1999/xlink">
<g id="graph1" class="graph" transform="scale(1 1) rotate(0) translate(4 338)">
<title>_anonymous_0</title>
<polygon fill="white" stroke="white" points="-4,5 -4,-338 2890,-338 2890,5 -4,5"/>
<!-- n147115800 -->
<g id="node1" class="node"><title>n147115800</title>
<ellipse fill="none" stroke="black" cx="651" cy="-241" rx="38.1838" ry="18.3848"/>
<text text-anchor="middle" x="651" y="-237.4" font-family="Times Roman,serif" font-size="14.00">_Bool</text>
</g>
<!-- n152833480 -->
<g id="node2" class="node"><title>n152833480</title>
<ellipse fill="none" stroke="black" cx="1716" cy="-167" rx="55.1543" ry="18.3848"/>
<text text-anchor="middle" x="1716" y="-163.4" font-family="Times Roman,serif" font-size="14.00">struct _0</text>
</g>
<!-- n152833992 -->
<g id="node3" class="node"><title>n152833992</title>
<ellipse fill="none" stroke="black" cx="1972" cy="-167" rx="55.1543" ry="18.3848"/>
<text text-anchor="middle" x="1972" y="-163.4" font-family="Times Roman,serif" font-size="14.00">struct _1</text>
</g>
<!-- n152834504 -->
<g id="node4" class="node"><title>n152834504</title>
<ellipse fill="none" stroke="black" cx="2484" cy="-167" rx="55.1543" ry="18.3848"/>
<text text-anchor="middle" x="2484" y="-163.4" font-family="Times Roman,serif" font-size="14.00">struct _2</text>
</g>
<!-- n152835016 -->
<g id="node5" class="node"><title>n152835016</title>
<ellipse fill="none" stroke="black" cx="2100" cy="-167" rx="55.1543" ry="18.3848"/>
<text text-anchor="middle" x="2100" y="-163.4" font-family="Times Roman,serif" font-size="14.00">struct _3</text>
</g>
<!-- n152841128 -->
<g id="node6" class="node"><title>n152841128</title>
<ellipse fill="none" stroke="black" cx="2228" cy="-167" rx="55.1543" ry="18.3848"/>
<text text-anchor="middle" x="2228" y="-163.4" font-family="Times Roman,serif" font-size="14.00">struct _4</text>
</g>
<!-- n152841640 -->
<g id="node7" class="node"><title>n152841640</title>
<ellipse fill="none" stroke="black" cx="2356" cy="-167" rx="55.1543" ry="18.3848"/>
<text text-anchor="middle" x="2356" y="-163.4" font-family="Times Roman,serif" font-size="14.00">struct _5</text>
</g>
<!-- n152842152 -->
<g id="node8" class="node"><title>n152842152</title>
<ellipse fill="none" stroke="black" cx="1844" cy="-167" rx="55.1543" ry="18.3848"/>
<text text-anchor="middle" x="1844" y="-163.4" font-family="Times Roman,serif" font-size="14.00">struct _6</text>
</g>
<!-- n152842664 -->
<g id="node9" class="node"><title>n152842664</title>
<ellipse fill="none" stroke="black" cx="1670" cy="-241" rx="53.9477" ry="18.3848"/>
<text text-anchor="middle" x="1670" y="-237.4" font-family="Times Roman,serif" font-size="14.00">struct _a</text>
</g>
<!-- n152843176 -->
<g id="node10" class="node"><title>n152843176</title>
<ellipse fill="none" stroke="black" cx="1168" cy="-241" rx="53.9477" ry="18.3848"/>
<text text-anchor="middle" x="1168" y="-237.4" font-family="Times Roman,serif" font-size="14.00">struct _b</text>
</g>
<!-- n152843688 -->
<g id="node11" class="node"><title>n152843688</title>
<ellipse fill="none" stroke="black" cx="1293" cy="-241" rx="53.2379" ry="18.3848"/>
<text text-anchor="middle" x="1293" y="-237.4" font-family="Times Roman,serif" font-size="14.00">struct _c</text>
</g>
<!-- n152844200 -->
<g id="node12" class="node"><title>n152844200</title>
<ellipse fill="none" stroke="black" cx="1042" cy="-241" rx="53.9477" ry="18.3848"/>
<text text-anchor="middle" x="1042" y="-237.4" font-family="Times Roman,serif" font-size="14.00">struct _d</text>
</g>
<!-- n152844712 -->
<g id="node13" class="node"><title>n152844712</title>
<ellipse fill="none" stroke="black" cx="1418" cy="-241" rx="53.9477" ry="18.3848"/>
<text text-anchor="middle" x="1418" y="-237.4" font-family="Times Roman,serif" font-size="14.00">struct _e</text>
</g>
<!-- n152845224 -->
<g id="node14" class="node"><title>n152845224</title>
<ellipse fill="none" stroke="black" cx="1794" cy="-241" rx="51.8276" ry="18.3848"/>
<text text-anchor="middle" x="1794" y="-237.4" font-family="Times Roman,serif" font-size="14.00">struct _f</text>
</g>
<!-- n152845736 -->
<g id="node15" class="node"><title>n152845736</title>
<ellipse fill="none" stroke="black" cx="1544" cy="-241" rx="53.9477" ry="18.3848"/>
<text text-anchor="middle" x="1544" y="-237.4" font-family="Times Roman,serif" font-size="14.00">struct _g</text>
</g>
<!-- n152869736 -->
<g id="node16" class="node"><title>n152869736</title>
<ellipse fill="none" stroke="black" cx="132" cy="-167" rx="132.229" ry="18.3848"/>
<text text-anchor="middle" x="132" y="-163.4" font-family="Times Roman,serif" font-size="14.00">struct mpl_::bool_&lt;1&gt; &amp;</text>
</g>
<!-- n152886432 -->
<g id="node17" class="node"><title>n152886432</title>
<ellipse fill="none" stroke="black" cx="2477" cy="-93" rx="130.108" ry="18.3848"/>
<text text-anchor="middle" x="2477" y="-89.4" font-family="Times Roman,serif" font-size="14.00">struct mpl_::bool_&lt;1&gt; *</text>
</g>
<!-- n152927160 -->
<g id="node18" class="node"><title>n152927160</title>
<ellipse fill="none" stroke="black" cx="1022" cy="-167" rx="132.229" ry="18.3848"/>
<text text-anchor="middle" x="1022" y="-163.4" font-family="Times Roman,serif" font-size="14.00">struct mpl_::bool_&lt;0&gt; &amp;</text>
</g>
<!-- n152943136 -->
<g id="node19" class="node"><title>n152943136</title>
<ellipse fill="none" stroke="black" cx="2755" cy="-93" rx="130.108" ry="18.3848"/>
<text text-anchor="middle" x="2755" y="-89.4" font-family="Times Roman,serif" font-size="14.00">struct mpl_::bool_&lt;0&gt; *</text>
</g>
<!-- n670972402 -->
<g id="node20" class="node"><title>n670972402</title>
<ellipse fill="none" stroke="black" cx="1418" cy="-167" rx="27" ry="18.3848"/>
<text text-anchor="middle" x="1418" y="-163.4" font-family="Times Roman,serif" font-size="14.00">set</text>
</g>
<!-- n670972402&#45;&gt;n152842664 -->
<g id="edge2" class="edge"><title>n670972402&#45;&gt;n152842664</title>
<path fill="none" stroke="black" d="M1443.09,-174.218C1479.31,-184.656 1548.35,-204.623 1607,-222 1611.07,-223.205 1615.28,-224.46 1619.51,-225.725"/>
<polygon fill="black" stroke="black" points="1618.77,-229.156 1629.35,-228.677 1620.78,-222.451 1618.77,-229.156"/>
</g>
<!-- n670972402&#45;&gt;n152843176 -->
<g id="edge4" class="edge"><title>n670972402&#45;&gt;n152843176</title>
<path fill="none" stroke="black" d="M1392.88,-174.329C1356.97,-184.82 1288.89,-204.757 1231,-222 1226.94,-223.211 1222.72,-224.47 1218.5,-225.738"/>
<polygon fill="black" stroke="black" points="1217.23,-222.465 1208.66,-228.694 1219.24,-229.169 1217.23,-222.465"/>
</g>
<!-- n670972402&#45;&gt;n152843688 -->
<g id="edge6" class="edge"><title>n670972402&#45;&gt;n152843688</title>
<path fill="none" stroke="black" d="M1397.36,-179.22C1378.83,-190.188 1351.22,-206.533 1329.05,-219.656"/>
<polygon fill="black" stroke="black" points="1327.06,-216.769 1320.24,-224.875 1330.63,-222.792 1327.06,-216.769"/>
</g>
<!-- n670972402&#45;&gt;n152844200 -->
<g id="edge8" class="edge"><title>n670972402&#45;&gt;n152844200</title>
<path fill="none" stroke="black" d="M1391.4,-170.583C1337.14,-178.131 1209.94,-197.05 1105,-222 1100.57,-223.054 1095.98,-224.241 1091.41,-225.494"/>
<polygon fill="black" stroke="black" points="1090.13,-222.22 1081.46,-228.316 1092.04,-228.954 1090.13,-222.22"/>
</g>
<!-- n670972402&#45;&gt;n152844712 -->
<g id="edge10" class="edge"><title>n670972402&#45;&gt;n152844712</title>
<path fill="none" stroke="black" d="M1418,-185.673C1418,-193.736 1418,-203.352 1418,-212.289"/>
<polygon fill="black" stroke="black" points="1414.5,-212.333 1418,-222.333 1421.5,-212.333 1414.5,-212.333"/>
</g>
<!-- n670972402&#45;&gt;n152845224 -->
<g id="edge12" class="edge"><title>n670972402&#45;&gt;n152845224</title>
<path fill="none" stroke="black" d="M1444.79,-170.487C1499.43,-177.86 1627.51,-196.475 1733,-222 1737.3,-223.041 1741.74,-224.218 1746.18,-225.465"/>
<polygon fill="black" stroke="black" points="1745.23,-228.836 1755.81,-228.278 1747.19,-222.116 1745.23,-228.836"/>
</g>
<!-- n670972402&#45;&gt;n152845736 -->
<g id="edge14" class="edge"><title>n670972402&#45;&gt;n152845736</title>
<path fill="none" stroke="black" d="M1438.52,-179.054C1457.16,-189.997 1485.07,-206.388 1507.5,-219.561"/>
<polygon fill="black" stroke="black" points="1506.02,-222.754 1516.42,-224.8 1509.57,-216.718 1506.02,-222.754"/>
</g>
<!-- n680457851 -->
<g id="node21" class="node"><title>n680457851</title>
<ellipse fill="none" stroke="black" cx="2755" cy="-19" rx="120.208" ry="18.3848"/>
<text text-anchor="middle" x="2755" y="-15.4" font-family="Times Roman,serif" font-size="14.00">is_function_ptr_helper</text>
</g>
<!-- n680457851&#45;&gt;n152943136 -->
<g id="edge16" class="edge"><title>n680457851&#45;&gt;n152943136</title>
<path fill="none" stroke="black" d="M2755,-37.6733C2755,-45.7361 2755,-55.3523 2755,-64.2885"/>
<polygon fill="black" stroke="black" points="2751.5,-64.3326 2755,-74.3326 2758.5,-64.3327 2751.5,-64.3326"/>
</g>
<!-- n6751426152 -->
<g id="node22" class="node"><title>n6751426152</title>
<ellipse fill="none" stroke="black" cx="2477" cy="-19" rx="120.208" ry="18.3848"/>
<text text-anchor="middle" x="2477" y="-15.4" font-family="Times Roman,serif" font-size="14.00">is_function_ptr_helper</text>
</g>
<!-- n6751426152&#45;&gt;n152886432 -->
<g id="edge18" class="edge"><title>n6751426152&#45;&gt;n152886432</title>
<path fill="none" stroke="black" d="M2477,-37.6733C2477,-45.7361 2477,-55.3523 2477,-64.2885"/>
<polygon fill="black" stroke="black" points="2473.5,-64.3326 2477,-74.3326 2480.5,-64.3327 2473.5,-64.3326"/>
</g>
<!-- n61179582374 -->
<g id="node23" class="node"><title>n61179582374</title>
<ellipse fill="none" stroke="black" cx="225" cy="-19" rx="55.1543" ry="18.3848"/>
<text text-anchor="middle" x="225" y="-15.4" font-family="Times Roman,serif" font-size="14.00">enable_if</text>
</g>
<!-- n61179582374&#45;&gt;n152869736 -->
<g id="edge22" class="edge"><title>n61179582374&#45;&gt;n152869736</title>
<path fill="none" stroke="black" d="M194.39,-34.659C179.064,-44.0421 161.568,-57.3878 151,-74 138.76,-93.2401 134.201,-118.852 132.596,-138.327"/>
<polygon fill="black" stroke="black" points="129.094,-138.24 131.977,-148.435 136.081,-138.667 129.094,-138.24"/>
</g>
<!-- n62030002258 -->
<g id="node26" class="node"><title>n62030002258</title>
<ellipse fill="none" stroke="black" cx="518" cy="-93" rx="63.8479" ry="18.3848"/>
<text text-anchor="middle" x="518" y="-89.4" font-family="Times Roman,serif" font-size="14.00">is_function</text>
</g>
<!-- n61179582374&#45;&gt;n62030002258 -->
<g id="edge20" class="edge"><title>n61179582374&#45;&gt;n62030002258</title>
<path fill="none" stroke="black" d="M269.696,-30.0399C314.168,-41.0562 384.345,-58.525 445,-74 450.026,-75.2823 455.245,-76.6227 460.475,-77.9724"/>
<polygon fill="black" stroke="black" points="459.945,-81.4503 470.503,-80.5669 461.698,-74.6735 459.945,-81.4503"/>
</g>
<!-- n63267975098 -->
<g id="node28" class="node"><title>n63267975098</title>
<ellipse fill="none" stroke="black" cx="225" cy="-93" rx="65.0538" ry="18.3848"/>
<text text-anchor="middle" x="225" y="-89.4" font-family="Times Roman,serif" font-size="14.00">enable_if_c</text>
</g>
<!-- n61179582374&#45;&gt;n63267975098 -->
<g id="edge24" class="edge"><title>n61179582374&#45;&gt;n63267975098</title>
<path fill="none" stroke="black" d="M225,-37.6733C225,-45.7361 225,-55.3523 225,-64.2885"/>
<polygon fill="black" stroke="black" points="221.5,-64.3326 225,-74.3326 228.5,-64.3327 221.5,-64.3326"/>
</g>
<!-- n61229342682 -->
<g id="node24" class="node"><title>n61229342682</title>
<ellipse fill="none" stroke="black" cx="1714" cy="-93" rx="50.9117" ry="18.3848"/>
<text text-anchor="middle" x="1714" y="-89.4" font-family="Times Roman,serif" font-size="14.00">has_key</text>
</g>
<!-- n61229342682&#45;&gt;n152833480 -->
<g id="edge28" class="edge"><title>n61229342682&#45;&gt;n152833480</title>
<path fill="none" stroke="black" d="M1714.5,-111.673C1714.72,-119.736 1714.98,-129.352 1715.22,-138.289"/>
<polygon fill="black" stroke="black" points="1711.73,-138.431 1715.5,-148.333 1718.72,-138.242 1711.73,-138.431"/>
</g>
<!-- n61229342682&#45;&gt;n670972402 -->
<g id="edge26" class="edge"><title>n61229342682&#45;&gt;n670972402</title>
<path fill="none" stroke="black" d="M1671.9,-103.524C1613.28,-118.181 1508.08,-144.479 1453.32,-158.171"/>
<polygon fill="black" stroke="black" points="1452.24,-154.833 1443.38,-160.654 1453.93,-161.624 1452.24,-154.833"/>
</g>
<!-- n61298870507 -->
<g id="node25" class="node"><title>n61298870507</title>
<ellipse fill="none" stroke="black" cx="455" cy="-241" rx="36.977" ry="18.3848"/>
<text text-anchor="middle" x="455" y="-237.4" font-family="Times Roman,serif" font-size="14.00">bool_</text>
</g>
<!-- n81773484321 -->
<g id="node41" class="node"><title>n81773484321</title>
<ellipse fill="none" stroke="black" cx="930" cy="-315" rx="29.9071" ry="18.3848"/>
<text text-anchor="middle" x="930" y="-311.4" font-family="Times Roman,serif" font-size="14.00">0x0</text>
</g>
<!-- n61298870507&#45;&gt;n81773484321 -->
<g id="edge30" class="edge"><title>n61298870507&#45;&gt;n81773484321</title>
<path fill="none" stroke="black" d="M487.153,-250.248C499.806,-253.656 514.511,-257.332 528,-260 659.562,-286.026 817.78,-303.761 890.241,-311.142"/>
<polygon fill="black" stroke="black" points="889.996,-314.635 900.296,-312.156 890.698,-307.67 889.996,-314.635"/>
</g>
<!-- n63562106922 -->
<g id="node32" class="node"><title>n63562106922</title>
<ellipse fill="none" stroke="black" cx="607" cy="-167" rx="36.977" ry="18.3848"/>
<text text-anchor="middle" x="607" y="-163.4" font-family="Times Roman,serif" font-size="14.00">bool_</text>
</g>
<!-- n62030002258&#45;&gt;n63562106922 -->
<g id="edge32" class="edge"><title>n62030002258&#45;&gt;n63562106922</title>
<path fill="none" stroke="black" d="M539.092,-110.537C551.351,-120.73 566.925,-133.679 580.065,-144.604"/>
<polygon fill="black" stroke="black" points="577.953,-147.4 587.88,-151.102 582.428,-142.018 577.953,-147.4"/>
</g>
<!-- n63618825365 -->
<g id="node33" class="node"><title>n63618825365</title>
<ellipse fill="none" stroke="black" cx="455" cy="-167" rx="96.8736" ry="18.3848"/>
<text text-anchor="middle" x="455" y="-163.4" font-family="Times Roman,serif" font-size="14.00">integral_constant</text>
</g>
<!-- n62030002258&#45;&gt;n63618825365 -->
<g id="edge34" class="edge"><title>n62030002258&#45;&gt;n63618825365</title>
<path fill="none" stroke="black" d="M502.427,-111.292C494.855,-120.186 485.616,-131.038 477.311,-140.793"/>
<polygon fill="black" stroke="black" points="474.43,-138.779 470.612,-148.662 479.76,-143.316 474.43,-138.779"/>
</g>
<!-- n62837064249 -->
<g id="node27" class="node"><title>n62837064249</title>
<ellipse fill="none" stroke="black" cx="1806" cy="-19" rx="50.9117" ry="18.3848"/>
<text text-anchor="middle" x="1806" y="-15.4" font-family="Times Roman,serif" font-size="14.00">has_key</text>
</g>
<!-- n62837064249&#45;&gt;n152845224 -->
<g id="edge38" class="edge"><title>n62837064249&#45;&gt;n152845224</title>
<path fill="none" stroke="black" d="M1762.69,-28.9141C1722.53,-39.0755 1667.06,-55.9113 1654,-74 1624.86,-114.365 1623.86,-144.928 1652,-186 1657.68,-194.294 1706.74,-212.149 1745.63,-225.276"/>
<polygon fill="black" stroke="black" points="1744.67,-228.645 1755.26,-228.502 1746.89,-222.008 1744.67,-228.645"/>
</g>
<!-- n63507281393 -->
<g id="node31" class="node"><title>n63507281393</title>
<ellipse fill="none" stroke="black" cx="2100" cy="-93" rx="27" ry="18.3848"/>
<text text-anchor="middle" x="2100" y="-89.4" font-family="Times Roman,serif" font-size="14.00">set</text>
</g>
<!-- n62837064249&#45;&gt;n63507281393 -->
<g id="edge36" class="edge"><title>n62837064249&#45;&gt;n63507281393</title>
<path fill="none" stroke="black" d="M1848.12,-29.6024C1906.3,-44.2447 2010.19,-70.3958 2064.59,-84.0862"/>
<polygon fill="black" stroke="black" points="2063.91,-87.5247 2074.46,-86.5715 2065.62,-80.7364 2063.91,-87.5247"/>
</g>
<!-- n63267975098&#45;&gt;n152869736 -->
<g id="edge42" class="edge"><title>n63267975098&#45;&gt;n152869736</title>
<path fill="none" stroke="black" d="M202.96,-110.537C191.039,-120.023 176.12,-131.894 163.041,-142.3"/>
<polygon fill="black" stroke="black" points="160.825,-139.591 155.179,-148.556 165.184,-145.069 160.825,-139.591"/>
</g>
<!-- n63267975098&#45;&gt;n81773484321 -->
<g id="edge40" class="edge"><title>n63267975098&#45;&gt;n81773484321</title>
<path fill="none" stroke="black" d="M241.91,-110.946C279.47,-150.357 369.629,-242.366 409,-260 494.957,-298.498 782.819,-310.703 889.647,-313.96"/>
<polygon fill="black" stroke="black" points="889.604,-317.461 899.703,-314.257 889.811,-310.464 889.604,-317.461"/>
</g>
<!-- n63303912006 -->
<g id="node29" class="node"><title>n63303912006</title>
<ellipse fill="none" stroke="black" cx="372" cy="-93" rx="63.8479" ry="18.3848"/>
<text text-anchor="middle" x="372" y="-89.4" font-family="Times Roman,serif" font-size="14.00">is_function</text>
</g>
<!-- n63303912006&#45;&gt;n61298870507 -->
<g id="edge44" class="edge"><title>n63303912006&#45;&gt;n61298870507</title>
<path fill="none" stroke="black" d="M359.735,-111.369C348.257,-131.079 334.834,-162.69 349,-186 362.614,-208.401 388.637,-222.091 411.491,-230.21"/>
<polygon fill="black" stroke="black" points="410.453,-233.553 421.046,-233.358 412.643,-226.905 410.453,-233.553"/>
</g>
<!-- n63303912006&#45;&gt;n63618825365 -->
<g id="edge46" class="edge"><title>n63303912006&#45;&gt;n63618825365</title>
<path fill="none" stroke="black" d="M392.092,-110.913C402.539,-120.227 415.478,-131.764 426.9,-141.947"/>
<polygon fill="black" stroke="black" points="424.723,-144.695 434.516,-148.738 429.381,-139.47 424.723,-144.695"/>
</g>
<!-- n63374906040 -->
<g id="node30" class="node"><title>n63374906040</title>
<ellipse fill="none" stroke="black" cx="786" cy="-167" rx="48.0833" ry="18.3848"/>
<text text-anchor="middle" x="786" y="-163.4" font-family="Times Roman,serif" font-size="14.00">ice_and</text>
</g>
<!-- n81030972443 -->
<g id="node40" class="node"><title>n81030972443</title>
<ellipse fill="none" stroke="black" cx="786" cy="-241" rx="29.9071" ry="18.3848"/>
<text text-anchor="middle" x="786" y="-237.4" font-family="Times Roman,serif" font-size="14.00">0x1</text>
</g>
<!-- n63374906040&#45;&gt;n81030972443 -->
<g id="edge48" class="edge"><title>n63374906040&#45;&gt;n81030972443</title>
<path fill="none" stroke="black" d="M753.531,-180.919C743.357,-193.47 742.849,-211.921 752.01,-225.059"/>
<polygon fill="black" stroke="black" points="749.563,-227.566 758.963,-232.454 754.663,-222.771 749.563,-227.566"/>
</g>
<!-- n63374906040&#45;&gt;n81030972443 -->
<g id="edge50" class="edge"><title>n63374906040&#45;&gt;n81030972443</title>
<path fill="none" stroke="black" d="M763.12,-183.423C758.558,-193.594 757.785,-206.808 760.8,-218.01"/>
<polygon fill="black" stroke="black" points="757.668,-219.605 764.634,-227.588 764.167,-217.004 757.668,-219.605"/>
</g>
<!-- n63374906040&#45;&gt;n81030972443 -->
<g id="edge52" class="edge"><title>n63374906040&#45;&gt;n81030972443</title>
<path fill="none" stroke="black" d="M774.169,-185.292C772.494,-193.875 772.08,-204.28 772.927,-213.764"/>
<polygon fill="black" stroke="black" points="769.504,-214.547 774.419,-223.933 776.43,-213.531 769.504,-214.547"/>
</g>
<!-- n63374906040&#45;&gt;n81030972443 -->
<g id="edge54" class="edge"><title>n63374906040&#45;&gt;n81030972443</title>
<path fill="none" stroke="black" d="M786,-185.673C786,-193.736 786,-203.352 786,-212.289"/>
<polygon fill="black" stroke="black" points="782.5,-212.333 786,-222.333 789.5,-212.333 782.5,-212.333"/>
</g>
<!-- n63374906040&#45;&gt;n81030972443 -->
<g id="edge56" class="edge"><title>n63374906040&#45;&gt;n81030972443</title>
<path fill="none" stroke="black" d="M797.831,-185.292C799.506,-193.875 799.92,-204.28 799.073,-213.764"/>
<polygon fill="black" stroke="black" points="795.57,-213.531 797.581,-223.933 802.496,-214.547 795.57,-213.531"/>
</g>
<!-- n63374906040&#45;&gt;n81030972443 -->
<g id="edge58" class="edge"><title>n63374906040&#45;&gt;n81030972443</title>
<path fill="none" stroke="black" d="M808.88,-183.423C813.442,-193.594 814.215,-206.808 811.2,-218.01"/>
<polygon fill="black" stroke="black" points="807.833,-217.004 807.366,-227.588 814.332,-219.605 807.833,-217.004"/>
</g>
<!-- n63374906040&#45;&gt;n81030972443 -->
<g id="edge60" class="edge"><title>n63374906040&#45;&gt;n81030972443</title>
<path fill="none" stroke="black" d="M818.469,-180.919C828.643,-193.47 829.151,-211.921 819.99,-225.059"/>
<polygon fill="black" stroke="black" points="817.337,-222.771 813.037,-232.454 822.437,-227.566 817.337,-222.771"/>
</g>
<!-- n63507281393&#45;&gt;n152833480 -->
<g id="edge62" class="edge"><title>n63507281393&#45;&gt;n152833480</title>
<path fill="none" stroke="black" d="M2073.24,-96.5073C2018.01,-103.983 1887.59,-122.876 1780,-148 1775.38,-149.08 1770.59,-150.301 1765.82,-151.59"/>
<polygon fill="black" stroke="black" points="1764.78,-148.246 1756.09,-154.308 1766.66,-154.988 1764.78,-148.246"/>
</g>
<!-- n63507281393&#45;&gt;n152833992 -->
<g id="edge64" class="edge"><title>n63507281393&#45;&gt;n152833992</title>
<path fill="none" stroke="black" d="M2079.15,-105.054C2060.14,-116.045 2031.62,-132.534 2008.78,-145.737"/>
<polygon fill="black" stroke="black" points="2006.93,-142.765 2000.02,-150.8 2010.43,-148.825 2006.93,-142.765"/>
</g>
<!-- n63507281393&#45;&gt;n152834504 -->
<g id="edge66" class="edge"><title>n63507281393&#45;&gt;n152834504</title>
<path fill="none" stroke="black" d="M2126.76,-96.5073C2181.99,-103.983 2312.41,-122.876 2420,-148 2424.62,-149.08 2429.41,-150.301 2434.18,-151.59"/>
<polygon fill="black" stroke="black" points="2433.34,-154.988 2443.91,-154.308 2435.22,-148.246 2433.34,-154.988"/>
</g>
<!-- n63507281393&#45;&gt;n152835016 -->
<g id="edge68" class="edge"><title>n63507281393&#45;&gt;n152835016</title>
<path fill="none" stroke="black" d="M2100,-111.673C2100,-119.736 2100,-129.352 2100,-138.289"/>
<polygon fill="black" stroke="black" points="2096.5,-138.333 2100,-148.333 2103.5,-138.333 2096.5,-138.333"/>
</g>
<!-- n63507281393&#45;&gt;n152841128 -->
<g id="edge70" class="edge"><title>n63507281393&#45;&gt;n152841128</title>
<path fill="none" stroke="black" d="M2120.85,-105.054C2139.86,-116.045 2168.38,-132.534 2191.22,-145.737"/>
<polygon fill="black" stroke="black" points="2189.57,-148.825 2199.98,-150.8 2193.07,-142.765 2189.57,-148.825"/>
</g>
<!-- n63507281393&#45;&gt;n152841640 -->
<g id="edge72" class="edge"><title>n63507281393&#45;&gt;n152841640</title>
<path fill="none" stroke="black" d="M2125.18,-100.13C2161.89,-110.544 2232.25,-130.573 2292,-148 2296.25,-149.238 2300.65,-150.529 2305.06,-151.83"/>
<polygon fill="black" stroke="black" points="2304.12,-155.201 2314.7,-154.677 2306.1,-148.488 2304.12,-155.201"/>
</g>
<!-- n63507281393&#45;&gt;n152842152 -->
<g id="edge74" class="edge"><title>n63507281393&#45;&gt;n152842152</title>
<path fill="none" stroke="black" d="M2074.82,-100.13C2038.11,-110.544 1967.75,-130.573 1908,-148 1903.75,-149.238 1899.35,-150.529 1894.94,-151.83"/>
<polygon fill="black" stroke="black" points="1893.9,-148.488 1885.3,-154.677 1895.88,-155.201 1893.9,-148.488"/>
</g>
<!-- n63562106922&#45;&gt;n81030972443 -->
<g id="edge76" class="edge"><title>n63562106922&#45;&gt;n81030972443</title>
<path fill="none" stroke="black" d="M635.759,-178.889C667.331,-191.941 717.996,-212.886 751.636,-226.793"/>
<polygon fill="black" stroke="black" points="750.487,-230.106 761.065,-230.692 753.161,-223.637 750.487,-230.106"/>
</g>
<!-- n63618825365&#45;&gt;n147115800 -->
<g id="edge78" class="edge"><title>n63618825365&#45;&gt;n147115800</title>
<path fill="none" stroke="black" d="M498.986,-183.607C532.638,-196.312 578.647,-213.683 611.209,-225.977"/>
<polygon fill="black" stroke="black" points="610.262,-229.36 620.854,-229.618 612.735,-222.812 610.262,-229.36"/>
</g>
<!-- n63618825365&#45;&gt;n61298870507 -->
<g id="edge82" class="edge"><title>n63618825365&#45;&gt;n61298870507</title>
<path fill="none" stroke="black" d="M455,-185.673C455,-193.736 455,-203.352 455,-212.289"/>
<polygon fill="black" stroke="black" points="451.5,-212.333 455,-222.333 458.5,-212.333 451.5,-212.333"/>
</g>
<!-- n63618825365&#45;&gt;n81773484321 -->
<g id="edge80" class="edge"><title>n63618825365&#45;&gt;n81773484321</title>
<path fill="none" stroke="black" d="M477.738,-185.21C505.729,-206.636 555.531,-241.614 604,-260 702.164,-297.237 826.484,-309.341 889.465,-313.216"/>
<polygon fill="black" stroke="black" points="889.578,-316.729 899.763,-313.81 889.981,-309.74 889.578,-316.729"/>
</g>
<!-- n63793430081 -->
<g id="node34" class="node"><title>n63793430081</title>
<ellipse fill="none" stroke="black" cx="697" cy="-93" rx="96.8736" ry="18.3848"/>
<text text-anchor="middle" x="697" y="-89.4" font-family="Times Roman,serif" font-size="14.00">integral_constant</text>
</g>
<!-- n63793430081&#45;&gt;n147115800 -->
<g id="edge84" class="edge"><title>n63793430081&#45;&gt;n147115800</title>
<path fill="none" stroke="black" d="M691.174,-111.744C683.259,-137.21 669.039,-182.96 659.815,-212.64"/>
<polygon fill="black" stroke="black" points="656.404,-211.82 656.779,-222.408 663.089,-213.897 656.404,-211.82"/>
</g>
<!-- n63793430081&#45;&gt;n63562106922 -->
<g id="edge88" class="edge"><title>n63793430081&#45;&gt;n63562106922</title>
<path fill="none" stroke="black" d="M674.753,-111.292C662.424,-121.429 647.004,-134.108 633.99,-144.809"/>
<polygon fill="black" stroke="black" points="631.748,-142.12 626.247,-151.175 636.194,-147.527 631.748,-142.12"/>
</g>
<!-- n63793430081&#45;&gt;n81030972443 -->
<g id="edge86" class="edge"><title>n63793430081&#45;&gt;n81030972443</title>
<path fill="none" stroke="black" d="M700.68,-111.61C705.16,-131.243 714.044,-162.528 729,-186 737.009,-198.568 748.452,-210.352 758.986,-219.764"/>
<polygon fill="black" stroke="black" points="756.927,-222.609 766.793,-226.471 761.489,-217.3 756.927,-222.609"/>
</g>
<!-- n63838149840 -->
<g id="node35" class="node"><title>n63838149840</title>
<ellipse fill="none" stroke="black" cx="930" cy="-241" rx="39.8075" ry="18.3848"/>
<text text-anchor="middle" x="930" y="-237.4" font-family="Times Roman,serif" font-size="14.00">ice_or</text>
</g>
<!-- n63838149840&#45;&gt;n81773484321 -->
<g id="edge90" class="edge"><title>n63838149840&#45;&gt;n81773484321</title>
<path fill="none" stroke="black" d="M899.311,-252.889C887.397,-265.458 886.334,-285.345 896.122,-299.219"/>
<polygon fill="black" stroke="black" points="893.71,-301.761 903.139,-306.592 898.781,-296.936 893.71,-301.761"/>
</g>
<!-- n63838149840&#45;&gt;n81773484321 -->
<g id="edge92" class="edge"><title>n63838149840&#45;&gt;n81773484321</title>
<path fill="none" stroke="black" d="M907.456,-256.693C902.547,-267.063 901.694,-280.818 904.897,-292.365"/>
<polygon fill="black" stroke="black" points="901.731,-293.87 908.755,-301.802 908.21,-291.221 901.731,-293.87"/>
</g>
<!-- n63838149840&#45;&gt;n81773484321 -->
<g id="edge94" class="edge"><title>n63838149840&#45;&gt;n81773484321</title>
<path fill="none" stroke="black" d="M918.244,-258.913C916.503,-267.583 916.066,-278.178 916.931,-287.816"/>
<polygon fill="black" stroke="black" points="913.475,-288.371 918.382,-297.761 920.402,-287.361 913.475,-288.371"/>
</g>
<!-- n63838149840&#45;&gt;n81773484321 -->
<g id="edge96" class="edge"><title>n63838149840&#45;&gt;n81773484321</title>
<path fill="none" stroke="black" d="M930,-259.673C930,-267.736 930,-277.352 930,-286.289"/>
<polygon fill="black" stroke="black" points="926.5,-286.333 930,-296.333 933.5,-286.333 926.5,-286.333"/>
</g>
<!-- n63838149840&#45;&gt;n81773484321 -->
<g id="edge98" class="edge"><title>n63838149840&#45;&gt;n81773484321</title>
<path fill="none" stroke="black" d="M941.756,-258.913C943.497,-267.583 943.934,-278.178 943.069,-287.816"/>
<polygon fill="black" stroke="black" points="939.598,-287.361 941.618,-297.761 946.525,-288.371 939.598,-287.361"/>
</g>
<!-- n63838149840&#45;&gt;n81773484321 -->
<g id="edge100" class="edge"><title>n63838149840&#45;&gt;n81773484321</title>
<path fill="none" stroke="black" d="M952.544,-256.693C957.453,-267.063 958.306,-280.818 955.103,-292.365"/>
<polygon fill="black" stroke="black" points="951.79,-291.221 951.245,-301.802 958.269,-293.87 951.79,-291.221"/>
</g>
<!-- n63838149840&#45;&gt;n81773484321 -->
<g id="edge102" class="edge"><title>n63838149840&#45;&gt;n81773484321</title>
<path fill="none" stroke="black" d="M960.689,-252.889C972.603,-265.458 973.666,-285.345 963.878,-299.219"/>
<polygon fill="black" stroke="black" points="961.219,-296.936 956.861,-306.592 966.29,-301.761 961.219,-296.936"/>
</g>
<!-- n63919158997 -->
<g id="node36" class="node"><title>n63919158997</title>
<ellipse fill="none" stroke="black" cx="890" cy="-93" rx="65.0538" ry="18.3848"/>
<text text-anchor="middle" x="890" y="-89.4" font-family="Times Roman,serif" font-size="14.00">enable_if_c</text>
</g>
<!-- n63919158997&#45;&gt;n152927160 -->
<g id="edge106" class="edge"><title>n63919158997&#45;&gt;n152927160</title>
<path fill="none" stroke="black" d="M919.623,-109.607C937.684,-119.732 961.031,-132.82 980.867,-143.941"/>
<polygon fill="black" stroke="black" points="979.268,-147.057 989.703,-148.894 982.691,-140.951 979.268,-147.057"/>
</g>
<!-- n63919158997&#45;&gt;n81773484321 -->
<g id="edge104" class="edge"><title>n63919158997&#45;&gt;n81773484321</title>
<path fill="none" stroke="black" d="M884.25,-111.544C875.459,-143.188 861.624,-209.124 881,-260 885.765,-272.511 894.827,-283.987 903.875,-293.183"/>
<polygon fill="black" stroke="black" points="901.726,-295.971 911.377,-300.343 906.559,-290.907 901.726,-295.971"/>
</g>
<!-- n64030248061 -->
<g id="node37" class="node"><title>n64030248061</title>
<ellipse fill="none" stroke="black" cx="890" cy="-19" rx="55.1543" ry="18.3848"/>
<text text-anchor="middle" x="890" y="-15.4" font-family="Times Roman,serif" font-size="14.00">enable_if</text>
</g>
<!-- n64030248061&#45;&gt;n152927160 -->
<g id="edge110" class="edge"><title>n64030248061&#45;&gt;n152927160</title>
<path fill="none" stroke="black" d="M916.586,-35.2002C931.615,-45.1836 950.115,-58.9336 964,-74 982.175,-93.7204 997.917,-119.915 1008.4,-139.477"/>
<polygon fill="black" stroke="black" points="1005.37,-141.249 1013.11,-148.491 1011.58,-138.007 1005.37,-141.249"/>
</g>
<!-- n64030248061&#45;&gt;n63303912006 -->
<g id="edge108" class="edge"><title>n64030248061&#45;&gt;n63303912006</title>
<path fill="none" stroke="black" d="M836.216,-23.3442C752.196,-30.6471 584.925,-47.2641 445,-74 439.533,-75.0446 433.87,-76.266 428.225,-77.5767"/>
<polygon fill="black" stroke="black" points="427.032,-74.2642 418.133,-80.0136 428.675,-81.0687 427.032,-74.2642"/>
</g>
<!-- n64030248061&#45;&gt;n63919158997 -->
<g id="edge112" class="edge"><title>n64030248061&#45;&gt;n63919158997</title>
<path fill="none" stroke="black" d="M890,-37.6733C890,-45.7361 890,-55.3523 890,-64.2885"/>
<polygon fill="black" stroke="black" points="886.5,-64.3326 890,-74.3326 893.5,-64.3327 886.5,-64.3326"/>
</g>
<!-- n64109748335 -->
<g id="node38" class="node"><title>n64109748335</title>
<ellipse fill="none" stroke="black" cx="1288" cy="-93" rx="50.9117" ry="18.3848"/>
<text text-anchor="middle" x="1288" y="-89.4" font-family="Times Roman,serif" font-size="14.00">has_key</text>
</g>
<!-- n64109748335&#45;&gt;n152844200 -->
<g id="edge116" class="edge"><title>n64109748335&#45;&gt;n152844200</title>
<path fill="none" stroke="black" d="M1267.72,-110.226C1243.74,-130.07 1202.14,-162.905 1163,-186 1138.9,-200.224 1110.47,-213.316 1087.23,-223.156"/>
<polygon fill="black" stroke="black" points="1085.82,-219.95 1077.94,-227.032 1088.52,-226.41 1085.82,-219.95"/>
</g>
<!-- n64109748335&#45;&gt;n670972402 -->
<g id="edge114" class="edge"><title>n64109748335&#45;&gt;n670972402</title>
<path fill="none" stroke="black" d="M1315.57,-108.693C1336.83,-120.795 1366.19,-137.511 1388.03,-149.942"/>
<polygon fill="black" stroke="black" points="1386.47,-153.077 1396.89,-154.982 1389.93,-146.993 1386.47,-153.077"/>
</g>
<!-- n64292126477 -->
<g id="node39" class="node"><title>n64292126477</title>
<ellipse fill="none" stroke="black" cx="2194" cy="-19" rx="50.9117" ry="18.3848"/>
<text text-anchor="middle" x="2194" y="-15.4" font-family="Times Roman,serif" font-size="14.00">has_key</text>
</g>
<!-- n64292126477&#45;&gt;n152834504 -->
<g id="edge120" class="edge"><title>n64292126477&#45;&gt;n152834504</title>
<path fill="none" stroke="black" d="M2216.54,-35.7253C2244.14,-55.6898 2292.82,-89.2291 2338,-112 2368.83,-127.54 2405.16,-141.241 2433.86,-151.081"/>
<polygon fill="black" stroke="black" points="2433.08,-154.512 2443.68,-154.397 2435.32,-147.88 2433.08,-154.512"/>
</g>
<!-- n64292126477&#45;&gt;n63507281393 -->
<g id="edge118" class="edge"><title>n64292126477&#45;&gt;n63507281393</title>
<path fill="none" stroke="black" d="M2172.2,-36.1631C2158.42,-47.0132 2140.53,-61.0945 2126.01,-72.5266"/>
<polygon fill="black" stroke="black" points="2123.59,-69.9713 2117.9,-78.907 2127.92,-75.4714 2123.59,-69.9713"/>
</g>
</g>
</svg>
