<?xml version="1.0" encoding="UTF-8" standalone="no"?>
<!DOCTYPE svg PUBLIC "-//W3C//DTD SVG 1.1//EN"
 "http://www.w3.org/Graphics/SVG/1.1/DTD/svg11.dtd">
<!-- Generated by graphviz version 2.26.3 (20100126.1600)
 -->
<!-- Title: _anonymous_0 Pages: 1 -->
<svg width="2795pt" height="342pt"
 viewBox="0.00 0.00 2795.00 342.00" xmlns="http://www.w3.org/2000/svg" xmlns:xlink="http://www.w3.org/1999/xlink">
<g id="graph1" class="graph" transform="scale(1 1) rotate(0) translate(4 338)">
<title>_anonymous_0</title>
<polygon fill="white" stroke="white" points="-4,5 -4,-338 2792,-338 2792,5 -4,5"/>
<!-- n128569112 -->
<g id="node1" class="node"><title>n128569112</title>
<ellipse fill="none" stroke="black" cx="563" cy="-241" rx="38.1838" ry="18.3848"/>
<text text-anchor="middle" x="563" y="-237.4" font-family="Times Roman,serif" font-size="14.00">_Bool</text>
</g>
<!-- n134286792 -->
<g id="node2" class="node"><title>n134286792</title>
<ellipse fill="none" stroke="black" cx="1618" cy="-167" rx="55.1543" ry="18.3848"/>
<text text-anchor="middle" x="1618" y="-163.4" font-family="Times Roman,serif" font-size="14.00">struct _0</text>
</g>
<!-- n134287304 -->
<g id="node3" class="node"><title>n134287304</title>
<ellipse fill="none" stroke="black" cx="1874" cy="-167" rx="55.1543" ry="18.3848"/>
<text text-anchor="middle" x="1874" y="-163.4" font-family="Times Roman,serif" font-size="14.00">struct _1</text>
</g>
<!-- n134287816 -->
<g id="node4" class="node"><title>n134287816</title>
<ellipse fill="none" stroke="black" cx="2386" cy="-167" rx="55.1543" ry="18.3848"/>
<text text-anchor="middle" x="2386" y="-163.4" font-family="Times Roman,serif" font-size="14.00">struct _2</text>
</g>
<!-- n134288328 -->
<g id="node5" class="node"><title>n134288328</title>
<ellipse fill="none" stroke="black" cx="2002" cy="-167" rx="55.1543" ry="18.3848"/>
<text text-anchor="middle" x="2002" y="-163.4" font-family="Times Roman,serif" font-size="14.00">struct _3</text>
</g>
<!-- n134294440 -->
<g id="node6" class="node"><title>n134294440</title>
<ellipse fill="none" stroke="black" cx="2130" cy="-167" rx="55.1543" ry="18.3848"/>
<text text-anchor="middle" x="2130" y="-163.4" font-family="Times Roman,serif" font-size="14.00">struct _4</text>
</g>
<!-- n134294952 -->
<g id="node7" class="node"><title>n134294952</title>
<ellipse fill="none" stroke="black" cx="2258" cy="-167" rx="55.1543" ry="18.3848"/>
<text text-anchor="middle" x="2258" y="-163.4" font-family="Times Roman,serif" font-size="14.00">struct _5</text>
</g>
<!-- n134295464 -->
<g id="node8" class="node"><title>n134295464</title>
<ellipse fill="none" stroke="black" cx="1746" cy="-167" rx="55.1543" ry="18.3848"/>
<text text-anchor="middle" x="1746" y="-163.4" font-family="Times Roman,serif" font-size="14.00">struct _6</text>
</g>
<!-- n134295976 -->
<g id="node9" class="node"><title>n134295976</title>
<ellipse fill="none" stroke="black" cx="1572" cy="-241" rx="53.9477" ry="18.3848"/>
<text text-anchor="middle" x="1572" y="-237.4" font-family="Times Roman,serif" font-size="14.00">struct _a</text>
</g>
<!-- n134296488 -->
<g id="node10" class="node"><title>n134296488</title>
<ellipse fill="none" stroke="black" cx="1070" cy="-241" rx="53.9477" ry="18.3848"/>
<text text-anchor="middle" x="1070" y="-237.4" font-family="Times Roman,serif" font-size="14.00">struct _b</text>
</g>
<!-- n134297000 -->
<g id="node11" class="node"><title>n134297000</title>
<ellipse fill="none" stroke="black" cx="1195" cy="-241" rx="53.2379" ry="18.3848"/>
<text text-anchor="middle" x="1195" y="-237.4" font-family="Times Roman,serif" font-size="14.00">struct _c</text>
</g>
<!-- n134297512 -->
<g id="node12" class="node"><title>n134297512</title>
<ellipse fill="none" stroke="black" cx="944" cy="-241" rx="53.9477" ry="18.3848"/>
<text text-anchor="middle" x="944" y="-237.4" font-family="Times Roman,serif" font-size="14.00">struct _d</text>
</g>
<!-- n134298024 -->
<g id="node13" class="node"><title>n134298024</title>
<ellipse fill="none" stroke="black" cx="1320" cy="-241" rx="53.9477" ry="18.3848"/>
<text text-anchor="middle" x="1320" y="-237.4" font-family="Times Roman,serif" font-size="14.00">struct _e</text>
</g>
<!-- n134298536 -->
<g id="node14" class="node"><title>n134298536</title>
<ellipse fill="none" stroke="black" cx="1696" cy="-241" rx="51.8276" ry="18.3848"/>
<text text-anchor="middle" x="1696" y="-237.4" font-family="Times Roman,serif" font-size="14.00">struct _f</text>
</g>
<!-- n134299048 -->
<g id="node15" class="node"><title>n134299048</title>
<ellipse fill="none" stroke="black" cx="1446" cy="-241" rx="53.9477" ry="18.3848"/>
<text text-anchor="middle" x="1446" y="-237.4" font-family="Times Roman,serif" font-size="14.00">struct _g</text>
</g>
<!-- n134323048 -->
<g id="node16" class="node"><title>n134323048</title>
<ellipse fill="none" stroke="black" cx="132" cy="-167" rx="132.229" ry="18.3848"/>
<text text-anchor="middle" x="132" y="-163.4" font-family="Times Roman,serif" font-size="14.00">struct mpl_::bool_&lt;1&gt; &amp;</text>
</g>
<!-- n134339744 -->
<g id="node17" class="node"><title>n134339744</title>
<ellipse fill="none" stroke="black" cx="2379" cy="-93" rx="130.108" ry="18.3848"/>
<text text-anchor="middle" x="2379" y="-89.4" font-family="Times Roman,serif" font-size="14.00">struct mpl_::bool_&lt;1&gt; *</text>
</g>
<!-- n134380472 -->
<g id="node18" class="node"><title>n134380472</title>
<ellipse fill="none" stroke="black" cx="1022" cy="-167" rx="132.229" ry="18.3848"/>
<text text-anchor="middle" x="1022" y="-163.4" font-family="Times Roman,serif" font-size="14.00">struct mpl_::bool_&lt;0&gt; &amp;</text>
</g>
<!-- n134396448 -->
<g id="node19" class="node"><title>n134396448</title>
<ellipse fill="none" stroke="black" cx="2657" cy="-93" rx="130.108" ry="18.3848"/>
<text text-anchor="middle" x="2657" y="-89.4" font-family="Times Roman,serif" font-size="14.00">struct mpl_::bool_&lt;0&gt; *</text>
</g>
<!-- n673603687 -->
<g id="node20" class="node"><title>n673603687</title>
<ellipse fill="none" stroke="black" cx="1616" cy="-93" rx="50.9117" ry="18.3848"/>
<text text-anchor="middle" x="1616" y="-89.4" font-family="Times Roman,serif" font-size="14.00">has_key</text>
</g>
<!-- n673603687&#45;&gt;n134286792 -->
<g id="edge4" class="edge"><title>n673603687&#45;&gt;n134286792</title>
<path fill="none" stroke="black" d="M1616.5,-111.673C1616.72,-119.736 1616.98,-129.352 1617.22,-138.289"/>
<polygon fill="black" stroke="black" points="1613.73,-138.431 1617.5,-148.333 1620.72,-138.242 1613.73,-138.431"/>
</g>
<!-- n63107267618 -->
<g id="node33" class="node"><title>n63107267618</title>
<ellipse fill="none" stroke="black" cx="1320" cy="-167" rx="27" ry="18.3848"/>
<text text-anchor="middle" x="1320" y="-163.4" font-family="Times Roman,serif" font-size="14.00">set</text>
</g>
<!-- n673603687&#45;&gt;n63107267618 -->
<g id="edge2" class="edge"><title>n673603687&#45;&gt;n63107267618</title>
<path fill="none" stroke="black" d="M1573.9,-103.524C1515.28,-118.181 1410.08,-144.479 1355.32,-158.171"/>
<polygon fill="black" stroke="black" points="1354.24,-154.833 1345.38,-160.654 1355.93,-161.624 1354.24,-154.833"/>
</g>
<!-- n6279636039 -->
<g id="node21" class="node"><title>n6279636039</title>
<ellipse fill="none" stroke="black" cx="225" cy="-93" rx="65.0538" ry="18.3848"/>
<text text-anchor="middle" x="225" y="-89.4" font-family="Times Roman,serif" font-size="14.00">enable_if_c</text>
</g>
<!-- n6279636039&#45;&gt;n134323048 -->
<g id="edge8" class="edge"><title>n6279636039&#45;&gt;n134323048</title>
<path fill="none" stroke="black" d="M202.96,-110.537C191.039,-120.023 176.12,-131.894 163.041,-142.3"/>
<polygon fill="black" stroke="black" points="160.825,-139.591 155.179,-148.556 165.184,-145.069 160.825,-139.591"/>
</g>
<!-- n81773484321 -->
<g id="node41" class="node"><title>n81773484321</title>
<ellipse fill="none" stroke="black" cx="224" cy="-315" rx="29.9071" ry="18.3848"/>
<text text-anchor="middle" x="224" y="-311.4" font-family="Times Roman,serif" font-size="14.00">0x0</text>
</g>
<!-- n6279636039&#45;&gt;n81773484321 -->
<g id="edge6" class="edge"><title>n6279636039&#45;&gt;n81773484321</title>
<path fill="none" stroke="black" d="M246.224,-110.532C256.415,-120.353 267.571,-133.523 273,-148 290.478,-194.608 290.716,-213.482 273,-260 268.235,-272.511 259.173,-283.987 250.125,-293.183"/>
<polygon fill="black" stroke="black" points="247.441,-290.907 242.623,-300.343 252.274,-295.971 247.441,-290.907"/>
</g>
<!-- n6346421017 -->
<g id="node22" class="node"><title>n6346421017</title>
<ellipse fill="none" stroke="black" cx="890" cy="-19" rx="55.1543" ry="18.3848"/>
<text text-anchor="middle" x="890" y="-15.4" font-family="Times Roman,serif" font-size="14.00">enable_if</text>
</g>
<!-- n6346421017&#45;&gt;n134380472 -->
<g id="edge12" class="edge"><title>n6346421017&#45;&gt;n134380472</title>
<path fill="none" stroke="black" d="M916.586,-35.2002C931.615,-45.1836 950.115,-58.9336 964,-74 982.175,-93.7204 997.917,-119.915 1008.4,-139.477"/>
<polygon fill="black" stroke="black" points="1005.37,-141.249 1013.11,-148.491 1011.58,-138.007 1005.37,-141.249"/>
</g>
<!-- n61013312904 -->
<g id="node24" class="node"><title>n61013312904</title>
<ellipse fill="none" stroke="black" cx="890" cy="-93" rx="65.0538" ry="18.3848"/>
<text text-anchor="middle" x="890" y="-89.4" font-family="Times Roman,serif" font-size="14.00">enable_if_c</text>
</g>
<!-- n6346421017&#45;&gt;n61013312904 -->
<g id="edge14" class="edge"><title>n6346421017&#45;&gt;n61013312904</title>
<path fill="none" stroke="black" d="M890,-37.6733C890,-45.7361 890,-55.3523 890,-64.2885"/>
<polygon fill="black" stroke="black" points="886.5,-64.3326 890,-74.3326 893.5,-64.3327 886.5,-64.3326"/>
</g>
<!-- n64053670713 -->
<g id="node39" class="node"><title>n64053670713</title>
<ellipse fill="none" stroke="black" cx="372" cy="-93" rx="63.8479" ry="18.3848"/>
<text text-anchor="middle" x="372" y="-89.4" font-family="Times Roman,serif" font-size="14.00">is_function</text>
</g>
<!-- n6346421017&#45;&gt;n64053670713 -->
<g id="edge10" class="edge"><title>n6346421017&#45;&gt;n64053670713</title>
<path fill="none" stroke="black" d="M836.216,-23.3442C752.196,-30.6471 584.925,-47.2641 445,-74 439.533,-75.0446 433.87,-76.266 428.225,-77.5767"/>
<polygon fill="black" stroke="black" points="427.032,-74.2642 418.133,-80.0136 428.675,-81.0687 427.032,-74.2642"/>
</g>
<!-- n6926119162 -->
<g id="node23" class="node"><title>n6926119162</title>
<ellipse fill="none" stroke="black" cx="357" cy="-241" rx="36.977" ry="18.3848"/>
<text text-anchor="middle" x="357" y="-237.4" font-family="Times Roman,serif" font-size="14.00">bool_</text>
</g>
<!-- n6926119162&#45;&gt;n81773484321 -->
<g id="edge16" class="edge"><title>n6926119162&#45;&gt;n81773484321</title>
<path fill="none" stroke="black" d="M331.984,-254.919C310.328,-266.968 278.899,-284.455 255.526,-297.459"/>
<polygon fill="black" stroke="black" points="253.723,-294.457 246.686,-302.377 257.127,-300.574 253.723,-294.457"/>
</g>
<!-- n61013312904&#45;&gt;n134380472 -->
<g id="edge20" class="edge"><title>n61013312904&#45;&gt;n134380472</title>
<path fill="none" stroke="black" d="M919.623,-109.607C937.684,-119.732 961.031,-132.82 980.867,-143.941"/>
<polygon fill="black" stroke="black" points="979.268,-147.057 989.703,-148.894 982.691,-140.951 979.268,-147.057"/>
</g>
<!-- n61013312904&#45;&gt;n81773484321 -->
<g id="edge18" class="edge"><title>n61013312904&#45;&gt;n81773484321</title>
<path fill="none" stroke="black" d="M885.369,-111.679C875.161,-151.25 849.667,-241.425 825,-260 780.275,-293.679 391.276,-309.46 264.067,-313.752"/>
<polygon fill="black" stroke="black" points="263.852,-310.257 253.973,-314.087 264.084,-317.253 263.852,-310.257"/>
</g>
<!-- n61083369923 -->
<g id="node25" class="node"><title>n61083369923</title>
<ellipse fill="none" stroke="black" cx="2379" cy="-19" rx="120.208" ry="18.3848"/>
<text text-anchor="middle" x="2379" y="-15.4" font-family="Times Roman,serif" font-size="14.00">is_function_ptr_helper</text>
</g>
<!-- n61083369923&#45;&gt;n134339744 -->
<g id="edge22" class="edge"><title>n61083369923&#45;&gt;n134339744</title>
<path fill="none" stroke="black" d="M2379,-37.6733C2379,-45.7361 2379,-55.3523 2379,-64.2885"/>
<polygon fill="black" stroke="black" points="2375.5,-64.3326 2379,-74.3326 2382.5,-64.3327 2375.5,-64.3326"/>
</g>
<!-- n61229632245 -->
<g id="node26" class="node"><title>n61229632245</title>
<ellipse fill="none" stroke="black" cx="518" cy="-93" rx="63.8479" ry="18.3848"/>
<text text-anchor="middle" x="518" y="-89.4" font-family="Times Roman,serif" font-size="14.00">is_function</text>
</g>
<!-- n61665570189 -->
<g id="node27" class="node"><title>n61665570189</title>
<ellipse fill="none" stroke="black" cx="455" cy="-167" rx="96.8736" ry="18.3848"/>
<text text-anchor="middle" x="455" y="-163.4" font-family="Times Roman,serif" font-size="14.00">integral_constant</text>
</g>
<!-- n61229632245&#45;&gt;n61665570189 -->
<g id="edge26" class="edge"><title>n61229632245&#45;&gt;n61665570189</title>
<path fill="none" stroke="black" d="M502.427,-111.292C494.855,-120.186 485.616,-131.038 477.311,-140.793"/>
<polygon fill="black" stroke="black" points="474.43,-138.779 470.612,-148.662 479.76,-143.316 474.43,-138.779"/>
</g>
<!-- n62321697761 -->
<g id="node29" class="node"><title>n62321697761</title>
<ellipse fill="none" stroke="black" cx="607" cy="-167" rx="36.977" ry="18.3848"/>
<text text-anchor="middle" x="607" y="-163.4" font-family="Times Roman,serif" font-size="14.00">bool_</text>
</g>
<!-- n61229632245&#45;&gt;n62321697761 -->
<g id="edge24" class="edge"><title>n61229632245&#45;&gt;n62321697761</title>
<path fill="none" stroke="black" d="M539.092,-110.537C551.351,-120.73 566.925,-133.679 580.065,-144.604"/>
<polygon fill="black" stroke="black" points="577.953,-147.4 587.88,-151.102 582.428,-142.018 577.953,-147.4"/>
</g>
<!-- n61665570189&#45;&gt;n128569112 -->
<g id="edge28" class="edge"><title>n61665570189&#45;&gt;n128569112</title>
<path fill="none" stroke="black" d="M481.144,-184.913C496.524,-195.452 516.057,-208.835 532.184,-219.885"/>
<polygon fill="black" stroke="black" points="530.517,-222.986 540.745,-225.751 534.474,-217.212 530.517,-222.986"/>
</g>
<!-- n61665570189&#45;&gt;n6926119162 -->
<g id="edge32" class="edge"><title>n61665570189&#45;&gt;n6926119162</title>
<path fill="none" stroke="black" d="M431.027,-185.102C417.384,-195.404 400.204,-208.376 385.83,-219.231"/>
<polygon fill="black" stroke="black" points="383.61,-216.521 377.738,-225.34 387.828,-222.108 383.61,-216.521"/>
</g>
<!-- n61665570189&#45;&gt;n81773484321 -->
<g id="edge30" class="edge"><title>n61665570189&#45;&gt;n81773484321</title>
<path fill="none" stroke="black" d="M374.987,-177.482C296.823,-188.541 187.766,-206.482 175,-222 157.111,-243.745 178.584,-273.06 198.47,-292.921"/>
<polygon fill="black" stroke="black" points="196.277,-295.666 205.929,-300.035 201.108,-290.601 196.277,-295.666"/>
</g>
<!-- n62112335135 -->
<g id="node28" class="node"><title>n62112335135</title>
<ellipse fill="none" stroke="black" cx="225" cy="-19" rx="55.1543" ry="18.3848"/>
<text text-anchor="middle" x="225" y="-15.4" font-family="Times Roman,serif" font-size="14.00">enable_if</text>
</g>
<!-- n62112335135&#45;&gt;n134323048 -->
<g id="edge36" class="edge"><title>n62112335135&#45;&gt;n134323048</title>
<path fill="none" stroke="black" d="M194.39,-34.659C179.064,-44.0421 161.568,-57.3878 151,-74 138.76,-93.2401 134.201,-118.852 132.596,-138.327"/>
<polygon fill="black" stroke="black" points="129.094,-138.24 131.977,-148.435 136.081,-138.667 129.094,-138.24"/>
</g>
<!-- n62112335135&#45;&gt;n6279636039 -->
<g id="edge38" class="edge"><title>n62112335135&#45;&gt;n6279636039</title>
<path fill="none" stroke="black" d="M225,-37.6733C225,-45.7361 225,-55.3523 225,-64.2885"/>
<polygon fill="black" stroke="black" points="221.5,-64.3326 225,-74.3326 228.5,-64.3327 221.5,-64.3326"/>
</g>
<!-- n62112335135&#45;&gt;n61229632245 -->
<g id="edge34" class="edge"><title>n62112335135&#45;&gt;n61229632245</title>
<path fill="none" stroke="black" d="M269.696,-30.0399C314.168,-41.0562 384.345,-58.525 445,-74 450.026,-75.2823 455.245,-76.6227 460.475,-77.9724"/>
<polygon fill="black" stroke="black" points="459.945,-81.4503 470.503,-80.5669 461.698,-74.6735 459.945,-81.4503"/>
</g>
<!-- n81030972443 -->
<g id="node40" class="node"><title>n81030972443</title>
<ellipse fill="none" stroke="black" cx="786" cy="-241" rx="29.9071" ry="18.3848"/>
<text text-anchor="middle" x="786" y="-237.4" font-family="Times Roman,serif" font-size="14.00">0x1</text>
</g>
<!-- n62321697761&#45;&gt;n81030972443 -->
<g id="edge40" class="edge"><title>n62321697761&#45;&gt;n81030972443</title>
<path fill="none" stroke="black" d="M635.759,-178.889C667.331,-191.941 717.996,-212.886 751.636,-226.793"/>
<polygon fill="black" stroke="black" points="750.487,-230.106 761.065,-230.692 753.161,-223.637 750.487,-230.106"/>
</g>
<!-- n62485443383 -->
<g id="node30" class="node"><title>n62485443383</title>
<ellipse fill="none" stroke="black" cx="1239" cy="-93" rx="50.9117" ry="18.3848"/>
<text text-anchor="middle" x="1239" y="-89.4" font-family="Times Roman,serif" font-size="14.00">has_key</text>
</g>
<!-- n62485443383&#45;&gt;n134297512 -->
<g id="edge44" class="edge"><title>n62485443383&#45;&gt;n134297512</title>
<path fill="none" stroke="black" d="M1229,-111.476C1216.46,-132.824 1192.93,-167.394 1163,-186 1102.57,-223.569 1075.77,-203.717 1007,-222 1002.72,-223.137 998.299,-224.365 993.869,-225.63"/>
<polygon fill="black" stroke="black" points="992.841,-222.284 984.217,-228.439 994.797,-229.005 992.841,-222.284"/>
</g>
<!-- n62485443383&#45;&gt;n63107267618 -->
<g id="edge42" class="edge"><title>n62485443383&#45;&gt;n63107267618</title>
<path fill="none" stroke="black" d="M1258.2,-110.537C1269.56,-120.915 1284.04,-134.148 1296.13,-145.195"/>
<polygon fill="black" stroke="black" points="1293.93,-147.925 1303.68,-152.086 1298.65,-142.757 1293.93,-147.925"/>
</g>
<!-- n62727806885 -->
<g id="node31" class="node"><title>n62727806885</title>
<ellipse fill="none" stroke="black" cx="2002" cy="-93" rx="27" ry="18.3848"/>
<text text-anchor="middle" x="2002" y="-89.4" font-family="Times Roman,serif" font-size="14.00">set</text>
</g>
<!-- n62727806885&#45;&gt;n134286792 -->
<g id="edge46" class="edge"><title>n62727806885&#45;&gt;n134286792</title>
<path fill="none" stroke="black" d="M1975.24,-96.5073C1920.01,-103.983 1789.59,-122.876 1682,-148 1677.38,-149.08 1672.59,-150.301 1667.82,-151.59"/>
<polygon fill="black" stroke="black" points="1666.78,-148.246 1658.09,-154.308 1668.66,-154.988 1666.78,-148.246"/>
</g>
<!-- n62727806885&#45;&gt;n134287304 -->
<g id="edge48" class="edge"><title>n62727806885&#45;&gt;n134287304</title>
<path fill="none" stroke="black" d="M1981.15,-105.054C1962.14,-116.045 1933.62,-132.534 1910.78,-145.737"/>
<polygon fill="black" stroke="black" points="1908.93,-142.765 1902.02,-150.8 1912.43,-148.825 1908.93,-142.765"/>
</g>
<!-- n62727806885&#45;&gt;n134287816 -->
<g id="edge50" class="edge"><title>n62727806885&#45;&gt;n134287816</title>
<path fill="none" stroke="black" d="M2028.76,-96.5073C2083.99,-103.983 2214.41,-122.876 2322,-148 2326.62,-149.08 2331.41,-150.301 2336.18,-151.59"/>
<polygon fill="black" stroke="black" points="2335.34,-154.988 2345.91,-154.308 2337.22,-148.246 2335.34,-154.988"/>
</g>
<!-- n62727806885&#45;&gt;n134288328 -->
<g id="edge52" class="edge"><title>n62727806885&#45;&gt;n134288328</title>
<path fill="none" stroke="black" d="M2002,-111.673C2002,-119.736 2002,-129.352 2002,-138.289"/>
<polygon fill="black" stroke="black" points="1998.5,-138.333 2002,-148.333 2005.5,-138.333 1998.5,-138.333"/>
</g>
<!-- n62727806885&#45;&gt;n134294440 -->
<g id="edge54" class="edge"><title>n62727806885&#45;&gt;n134294440</title>
<path fill="none" stroke="black" d="M2022.85,-105.054C2041.86,-116.045 2070.38,-132.534 2093.22,-145.737"/>
<polygon fill="black" stroke="black" points="2091.57,-148.825 2101.98,-150.8 2095.07,-142.765 2091.57,-148.825"/>
</g>
<!-- n62727806885&#45;&gt;n134294952 -->
<g id="edge56" class="edge"><title>n62727806885&#45;&gt;n134294952</title>
<path fill="none" stroke="black" d="M2027.18,-100.13C2063.89,-110.544 2134.25,-130.573 2194,-148 2198.25,-149.238 2202.65,-150.529 2207.06,-151.83"/>
<polygon fill="black" stroke="black" points="2206.12,-155.201 2216.7,-154.677 2208.1,-148.488 2206.12,-155.201"/>
</g>
<!-- n62727806885&#45;&gt;n134295464 -->
<g id="edge58" class="edge"><title>n62727806885&#45;&gt;n134295464</title>
<path fill="none" stroke="black" d="M1976.82,-100.13C1940.11,-110.544 1869.75,-130.573 1810,-148 1805.75,-149.238 1801.35,-150.529 1796.94,-151.83"/>
<polygon fill="black" stroke="black" points="1795.9,-148.488 1787.3,-154.677 1797.88,-155.201 1795.9,-148.488"/>
</g>
<!-- n62889590763 -->
<g id="node32" class="node"><title>n62889590763</title>
<ellipse fill="none" stroke="black" cx="786" cy="-167" rx="48.0833" ry="18.3848"/>
<text text-anchor="middle" x="786" y="-163.4" font-family="Times Roman,serif" font-size="14.00">ice_and</text>
</g>
<!-- n62889590763&#45;&gt;n81030972443 -->
<g id="edge60" class="edge"><title>n62889590763&#45;&gt;n81030972443</title>
<path fill="none" stroke="black" d="M753.531,-180.919C743.357,-193.47 742.849,-211.921 752.01,-225.059"/>
<polygon fill="black" stroke="black" points="749.563,-227.566 758.963,-232.454 754.663,-222.771 749.563,-227.566"/>
</g>
<!-- n62889590763&#45;&gt;n81030972443 -->
<g id="edge62" class="edge"><title>n62889590763&#45;&gt;n81030972443</title>
<path fill="none" stroke="black" d="M763.12,-183.423C758.558,-193.594 757.785,-206.808 760.8,-218.01"/>
<polygon fill="black" stroke="black" points="757.668,-219.605 764.634,-227.588 764.167,-217.004 757.668,-219.605"/>
</g>
<!-- n62889590763&#45;&gt;n81030972443 -->
<g id="edge64" class="edge"><title>n62889590763&#45;&gt;n81030972443</title>
<path fill="none" stroke="black" d="M774.169,-185.292C772.494,-193.875 772.08,-204.28 772.927,-213.764"/>
<polygon fill="black" stroke="black" points="769.504,-214.547 774.419,-223.933 776.43,-213.531 769.504,-214.547"/>
</g>
<!-- n62889590763&#45;&gt;n81030972443 -->
<g id="edge66" class="edge"><title>n62889590763&#45;&gt;n81030972443</title>
<path fill="none" stroke="black" d="M786,-185.673C786,-193.736 786,-203.352 786,-212.289"/>
<polygon fill="black" stroke="black" points="782.5,-212.333 786,-222.333 789.5,-212.333 782.5,-212.333"/>
</g>
<!-- n62889590763&#45;&gt;n81030972443 -->
<g id="edge68" class="edge"><title>n62889590763&#45;&gt;n81030972443</title>
<path fill="none" stroke="black" d="M797.831,-185.292C799.506,-193.875 799.92,-204.28 799.073,-213.764"/>
<polygon fill="black" stroke="black" points="795.57,-213.531 797.581,-223.933 802.496,-214.547 795.57,-213.531"/>
</g>
<!-- n62889590763&#45;&gt;n81030972443 -->
<g id="edge70" class="edge"><title>n62889590763&#45;&gt;n81030972443</title>
<path fill="none" stroke="black" d="M808.88,-183.423C813.442,-193.594 814.215,-206.808 811.2,-218.01"/>
<polygon fill="black" stroke="black" points="807.833,-217.004 807.366,-227.588 814.332,-219.605 807.833,-217.004"/>
</g>
<!-- n62889590763&#45;&gt;n81030972443 -->
<g id="edge72" class="edge"><title>n62889590763&#45;&gt;n81030972443</title>
<path fill="none" stroke="black" d="M818.469,-180.919C828.643,-193.47 829.151,-211.921 819.99,-225.059"/>
<polygon fill="black" stroke="black" points="817.337,-222.771 813.037,-232.454 822.437,-227.566 817.337,-222.771"/>
</g>
<!-- n63107267618&#45;&gt;n134295976 -->
<g id="edge74" class="edge"><title>n63107267618&#45;&gt;n134295976</title>
<path fill="none" stroke="black" d="M1345.09,-174.218C1381.31,-184.656 1450.35,-204.623 1509,-222 1513.07,-223.205 1517.28,-224.46 1521.51,-225.725"/>
<polygon fill="black" stroke="black" points="1520.77,-229.156 1531.35,-228.677 1522.78,-222.451 1520.77,-229.156"/>
</g>
<!-- n63107267618&#45;&gt;n134296488 -->
<g id="edge76" class="edge"><title>n63107267618&#45;&gt;n134296488</title>
<path fill="none" stroke="black" d="M1294.88,-174.329C1258.97,-184.82 1190.89,-204.757 1133,-222 1128.94,-223.211 1124.72,-224.47 1120.5,-225.738"/>
<polygon fill="black" stroke="black" points="1119.23,-222.465 1110.66,-228.694 1121.24,-229.169 1119.23,-222.465"/>
</g>
<!-- n63107267618&#45;&gt;n134297000 -->
<g id="edge78" class="edge"><title>n63107267618&#45;&gt;n134297000</title>
<path fill="none" stroke="black" d="M1299.36,-179.22C1280.83,-190.188 1253.22,-206.533 1231.05,-219.656"/>
<polygon fill="black" stroke="black" points="1229.06,-216.769 1222.24,-224.875 1232.63,-222.792 1229.06,-216.769"/>
</g>
<!-- n63107267618&#45;&gt;n134297512 -->
<g id="edge80" class="edge"><title>n63107267618&#45;&gt;n134297512</title>
<path fill="none" stroke="black" d="M1294.62,-173.386C1278.47,-177.323 1257.08,-182.308 1238,-186 1135.99,-205.74 1108.32,-198.944 1007,-222 1002.56,-223.011 997.968,-224.169 993.388,-225.402"/>
<polygon fill="black" stroke="black" points="992.115,-222.124 983.433,-228.197 994.007,-228.863 992.115,-222.124"/>
</g>
<!-- n63107267618&#45;&gt;n134298024 -->
<g id="edge82" class="edge"><title>n63107267618&#45;&gt;n134298024</title>
<path fill="none" stroke="black" d="M1320,-185.673C1320,-193.736 1320,-203.352 1320,-212.289"/>
<polygon fill="black" stroke="black" points="1316.5,-212.333 1320,-222.333 1323.5,-212.333 1316.5,-212.333"/>
</g>
<!-- n63107267618&#45;&gt;n134298536 -->
<g id="edge84" class="edge"><title>n63107267618&#45;&gt;n134298536</title>
<path fill="none" stroke="black" d="M1346.79,-170.487C1401.43,-177.86 1529.51,-196.475 1635,-222 1639.3,-223.041 1643.74,-224.218 1648.18,-225.465"/>
<polygon fill="black" stroke="black" points="1647.23,-228.836 1657.81,-228.278 1649.19,-222.116 1647.23,-228.836"/>
</g>
<!-- n63107267618&#45;&gt;n134299048 -->
<g id="edge86" class="edge"><title>n63107267618&#45;&gt;n134299048</title>
<path fill="none" stroke="black" d="M1340.52,-179.054C1359.16,-189.997 1387.07,-206.388 1409.5,-219.561"/>
<polygon fill="black" stroke="black" points="1408.02,-222.754 1418.42,-224.8 1411.57,-216.718 1408.02,-222.754"/>
</g>
<!-- n63151828069 -->
<g id="node34" class="node"><title>n63151828069</title>
<ellipse fill="none" stroke="black" cx="224" cy="-241" rx="39.8075" ry="18.3848"/>
<text text-anchor="middle" x="224" y="-237.4" font-family="Times Roman,serif" font-size="14.00">ice_or</text>
</g>
<!-- n63151828069&#45;&gt;n81773484321 -->
<g id="edge88" class="edge"><title>n63151828069&#45;&gt;n81773484321</title>
<path fill="none" stroke="black" d="M193.311,-252.889C181.397,-265.458 180.334,-285.345 190.122,-299.219"/>
<polygon fill="black" stroke="black" points="187.71,-301.761 197.139,-306.592 192.781,-296.936 187.71,-301.761"/>
</g>
<!-- n63151828069&#45;&gt;n81773484321 -->
<g id="edge90" class="edge"><title>n63151828069&#45;&gt;n81773484321</title>
<path fill="none" stroke="black" d="M201.456,-256.693C196.547,-267.063 195.694,-280.818 198.897,-292.365"/>
<polygon fill="black" stroke="black" points="195.731,-293.87 202.755,-301.802 202.21,-291.221 195.731,-293.87"/>
</g>
<!-- n63151828069&#45;&gt;n81773484321 -->
<g id="edge92" class="edge"><title>n63151828069&#45;&gt;n81773484321</title>
<path fill="none" stroke="black" d="M212.244,-258.913C210.503,-267.583 210.066,-278.178 210.931,-287.816"/>
<polygon fill="black" stroke="black" points="207.475,-288.371 212.382,-297.761 214.402,-287.361 207.475,-288.371"/>
</g>
<!-- n63151828069&#45;&gt;n81773484321 -->
<g id="edge94" class="edge"><title>n63151828069&#45;&gt;n81773484321</title>
<path fill="none" stroke="black" d="M224,-259.673C224,-267.736 224,-277.352 224,-286.289"/>
<polygon fill="black" stroke="black" points="220.5,-286.333 224,-296.333 227.5,-286.333 220.5,-286.333"/>
</g>
<!-- n63151828069&#45;&gt;n81773484321 -->
<g id="edge96" class="edge"><title>n63151828069&#45;&gt;n81773484321</title>
<path fill="none" stroke="black" d="M235.756,-258.913C237.497,-267.583 237.934,-278.178 237.069,-287.816"/>
<polygon fill="black" stroke="black" points="233.598,-287.361 235.618,-297.761 240.525,-288.371 233.598,-287.361"/>
</g>
<!-- n63151828069&#45;&gt;n81773484321 -->
<g id="edge98" class="edge"><title>n63151828069&#45;&gt;n81773484321</title>
<path fill="none" stroke="black" d="M246.544,-256.693C251.453,-267.063 252.306,-280.818 249.103,-292.365"/>
<polygon fill="black" stroke="black" points="245.79,-291.221 245.245,-301.802 252.269,-293.87 245.79,-291.221"/>
</g>
<!-- n63151828069&#45;&gt;n81773484321 -->
<g id="edge100" class="edge"><title>n63151828069&#45;&gt;n81773484321</title>
<path fill="none" stroke="black" d="M254.689,-252.889C266.603,-265.458 267.666,-285.345 257.878,-299.219"/>
<polygon fill="black" stroke="black" points="255.219,-296.936 250.861,-306.592 260.29,-301.761 255.219,-296.936"/>
</g>
<!-- n63220720421 -->
<g id="node35" class="node"><title>n63220720421</title>
<ellipse fill="none" stroke="black" cx="2096" cy="-19" rx="50.9117" ry="18.3848"/>
<text text-anchor="middle" x="2096" y="-15.4" font-family="Times Roman,serif" font-size="14.00">has_key</text>
</g>
<!-- n63220720421&#45;&gt;n134287816 -->
<g id="edge104" class="edge"><title>n63220720421&#45;&gt;n134287816</title>
<path fill="none" stroke="black" d="M2118.54,-35.7253C2146.14,-55.6898 2194.82,-89.2291 2240,-112 2270.83,-127.54 2307.16,-141.241 2335.86,-151.081"/>
<polygon fill="black" stroke="black" points="2335.08,-154.512 2345.68,-154.397 2337.32,-147.88 2335.08,-154.512"/>
</g>
<!-- n63220720421&#45;&gt;n62727806885 -->
<g id="edge102" class="edge"><title>n63220720421&#45;&gt;n62727806885</title>
<path fill="none" stroke="black" d="M2074.2,-36.1631C2060.42,-47.0132 2042.53,-61.0945 2028.01,-72.5266"/>
<polygon fill="black" stroke="black" points="2025.59,-69.9713 2019.9,-78.907 2029.92,-75.4714 2025.59,-69.9713"/>
</g>
<!-- n63662246059 -->
<g id="node36" class="node"><title>n63662246059</title>
<ellipse fill="none" stroke="black" cx="2657" cy="-19" rx="120.208" ry="18.3848"/>
<text text-anchor="middle" x="2657" y="-15.4" font-family="Times Roman,serif" font-size="14.00">is_function_ptr_helper</text>
</g>
<!-- n63662246059&#45;&gt;n134396448 -->
<g id="edge106" class="edge"><title>n63662246059&#45;&gt;n134396448</title>
<path fill="none" stroke="black" d="M2657,-37.6733C2657,-45.7361 2657,-55.3523 2657,-64.2885"/>
<polygon fill="black" stroke="black" points="2653.5,-64.3326 2657,-74.3326 2660.5,-64.3327 2653.5,-64.3326"/>
</g>
<!-- n63801353991 -->
<g id="node37" class="node"><title>n63801353991</title>
<ellipse fill="none" stroke="black" cx="697" cy="-93" rx="96.8736" ry="18.3848"/>
<text text-anchor="middle" x="697" y="-89.4" font-family="Times Roman,serif" font-size="14.00">integral_constant</text>
</g>
<!-- n63801353991&#45;&gt;n128569112 -->
<g id="edge108" class="edge"><title>n63801353991&#45;&gt;n128569112</title>
<path fill="none" stroke="black" d="M691.741,-111.59C685.284,-131.782 672.699,-164.079 653,-186 638.748,-201.859 618.842,-214.669 601.374,-223.924"/>
<polygon fill="black" stroke="black" points="599.304,-221.049 591.971,-228.696 602.472,-227.291 599.304,-221.049"/>
</g>
<!-- n63801353991&#45;&gt;n62321697761 -->
<g id="edge112" class="edge"><title>n63801353991&#45;&gt;n62321697761</title>
<path fill="none" stroke="black" d="M674.753,-111.292C662.424,-121.429 647.004,-134.108 633.99,-144.809"/>
<polygon fill="black" stroke="black" points="631.748,-142.12 626.247,-151.175 636.194,-147.527 631.748,-142.12"/>
</g>
<!-- n63801353991&#45;&gt;n81030972443 -->
<g id="edge110" class="edge"><title>n63801353991&#45;&gt;n81030972443</title>
<path fill="none" stroke="black" d="M700.68,-111.61C705.16,-131.243 714.044,-162.528 729,-186 737.009,-198.568 748.452,-210.352 758.986,-219.764"/>
<polygon fill="black" stroke="black" points="756.927,-222.609 766.793,-226.471 761.489,-217.3 756.927,-222.609"/>
</g>
<!-- n63810946918 -->
<g id="node38" class="node"><title>n63810946918</title>
<ellipse fill="none" stroke="black" cx="1708" cy="-19" rx="50.9117" ry="18.3848"/>
<text text-anchor="middle" x="1708" y="-15.4" font-family="Times Roman,serif" font-size="14.00">has_key</text>
</g>
<!-- n63810946918&#45;&gt;n134298536 -->
<g id="edge116" class="edge"><title>n63810946918&#45;&gt;n134298536</title>
<path fill="none" stroke="black" d="M1664.69,-28.9141C1624.53,-39.0755 1569.06,-55.9113 1556,-74 1526.86,-114.365 1525.86,-144.928 1554,-186 1559.68,-194.294 1608.74,-212.149 1647.63,-225.276"/>
<polygon fill="black" stroke="black" points="1646.67,-228.645 1657.26,-228.502 1648.89,-222.008 1646.67,-228.645"/>
</g>
<!-- n63810946918&#45;&gt;n62727806885 -->
<g id="edge114" class="edge"><title>n63810946918&#45;&gt;n62727806885</title>
<path fill="none" stroke="black" d="M1750.12,-29.6024C1808.3,-44.2447 1912.19,-70.3958 1966.59,-84.0862"/>
<polygon fill="black" stroke="black" points="1965.91,-87.5247 1976.46,-86.5715 1967.62,-80.7364 1965.91,-87.5247"/>
</g>
<!-- n64053670713&#45;&gt;n6926119162 -->
<g id="edge118" class="edge"><title>n64053670713&#45;&gt;n6926119162</title>
<path fill="none" stroke="black" d="M361.975,-111.752C357,-122.12 351.525,-135.417 349,-148 344.716,-169.35 347.133,-193.911 350.397,-212.429"/>
<polygon fill="black" stroke="black" points="346.972,-213.151 352.317,-222.299 353.844,-211.815 346.972,-213.151"/>
</g>
<!-- n64053670713&#45;&gt;n61665570189 -->
<g id="edge120" class="edge"><title>n64053670713&#45;&gt;n61665570189</title>
<path fill="none" stroke="black" d="M392.092,-110.913C402.539,-120.227 415.478,-131.764 426.9,-141.947"/>
<polygon fill="black" stroke="black" points="424.723,-144.695 434.516,-148.738 429.381,-139.47 424.723,-144.695"/>
</g>
</g>
</svg>
