<?xml version="1.0" encoding="UTF-8" standalone="no"?>
<!DOCTYPE svg PUBLIC "-//W3C//DTD SVG 1.1//EN"
 "http://www.w3.org/Graphics/SVG/1.1/DTD/svg11.dtd">
<!-- Generated by graphviz version 2.26.3 (20100126.1600)
 -->
<!-- Title: _anonymous_0 Pages: 1 -->
<svg width="7984pt" height="342pt"
 viewBox="0.00 0.00 7984.00 342.00" xmlns="http://www.w3.org/2000/svg" xmlns:xlink="http://www.w3.org/1999/xlink">
<g id="graph1" class="graph" transform="scale(1 1) rotate(0) translate(4 338)">
<title>_anonymous_0</title>
<polygon fill="white" stroke="white" points="-4,5 -4,-338 7981,-338 7981,5 -4,5"/>
<!-- n142663560_1 -->
<g id="node1" class="node"><title>n142663560_1</title>
<ellipse fill="none" stroke="black" cx="932" cy="-241" rx="38.1838" ry="18.3848"/>
<text text-anchor="middle" x="932" y="-237.4" font-family="Times Roman,serif" font-size="14.00">_Bool</text>
</g>
<!-- n148381272_2 -->
<g id="node2" class="node"><title>n148381272_2</title>
<ellipse fill="none" stroke="black" cx="659" cy="-19" rx="55.1543" ry="18.3848"/>
<text text-anchor="middle" x="659" y="-15.4" font-family="Times Roman,serif" font-size="14.00">struct _0</text>
</g>
<!-- n148381784_3 -->
<g id="node3" class="node"><title>n148381784_3</title>
<ellipse fill="none" stroke="black" cx="787" cy="-19" rx="55.1543" ry="18.3848"/>
<text text-anchor="middle" x="787" y="-15.4" font-family="Times Roman,serif" font-size="14.00">struct _1</text>
</g>
<!-- n148382296_4 -->
<g id="node4" class="node"><title>n148382296_4</title>
<ellipse fill="none" stroke="black" cx="915" cy="-19" rx="55.1543" ry="18.3848"/>
<text text-anchor="middle" x="915" y="-15.4" font-family="Times Roman,serif" font-size="14.00">struct _2</text>
</g>
<!-- n148382808_5 -->
<g id="node5" class="node"><title>n148382808_5</title>
<ellipse fill="none" stroke="black" cx="1043" cy="-19" rx="55.1543" ry="18.3848"/>
<text text-anchor="middle" x="1043" y="-15.4" font-family="Times Roman,serif" font-size="14.00">struct _3</text>
</g>
<!-- n148388920_6 -->
<g id="node6" class="node"><title>n148388920_6</title>
<ellipse fill="none" stroke="black" cx="1171" cy="-19" rx="55.1543" ry="18.3848"/>
<text text-anchor="middle" x="1171" y="-15.4" font-family="Times Roman,serif" font-size="14.00">struct _4</text>
</g>
<!-- n148389432_7 -->
<g id="node7" class="node"><title>n148389432_7</title>
<ellipse fill="none" stroke="black" cx="1299" cy="-19" rx="55.1543" ry="18.3848"/>
<text text-anchor="middle" x="1299" y="-15.4" font-family="Times Roman,serif" font-size="14.00">struct _5</text>
</g>
<!-- n148389944_8 -->
<g id="node8" class="node"><title>n148389944_8</title>
<ellipse fill="none" stroke="black" cx="1427" cy="-19" rx="55.1543" ry="18.3848"/>
<text text-anchor="middle" x="1427" y="-15.4" font-family="Times Roman,serif" font-size="14.00">struct _6</text>
</g>
<!-- n148390456_9 -->
<g id="node9" class="node"><title>n148390456_9</title>
<ellipse fill="none" stroke="black" cx="1554" cy="-19" rx="53.9477" ry="18.3848"/>
<text text-anchor="middle" x="1554" y="-15.4" font-family="Times Roman,serif" font-size="14.00">struct _a</text>
</g>
<!-- n148390968_10 -->
<g id="node10" class="node"><title>n148390968_10</title>
<ellipse fill="none" stroke="black" cx="1680" cy="-19" rx="53.9477" ry="18.3848"/>
<text text-anchor="middle" x="1680" y="-15.4" font-family="Times Roman,serif" font-size="14.00">struct _b</text>
</g>
<!-- n148391480_11 -->
<g id="node11" class="node"><title>n148391480_11</title>
<ellipse fill="none" stroke="black" cx="1805" cy="-19" rx="53.2379" ry="18.3848"/>
<text text-anchor="middle" x="1805" y="-15.4" font-family="Times Roman,serif" font-size="14.00">struct _c</text>
</g>
<!-- n148391992_12 -->
<g id="node12" class="node"><title>n148391992_12</title>
<ellipse fill="none" stroke="black" cx="1930" cy="-19" rx="53.9477" ry="18.3848"/>
<text text-anchor="middle" x="1930" y="-15.4" font-family="Times Roman,serif" font-size="14.00">struct _d</text>
</g>
<!-- n148392504_13 -->
<g id="node13" class="node"><title>n148392504_13</title>
<ellipse fill="none" stroke="black" cx="2056" cy="-19" rx="53.9477" ry="18.3848"/>
<text text-anchor="middle" x="2056" y="-15.4" font-family="Times Roman,serif" font-size="14.00">struct _e</text>
</g>
<!-- n148393016_14 -->
<g id="node14" class="node"><title>n148393016_14</title>
<ellipse fill="none" stroke="black" cx="2180" cy="-19" rx="51.8276" ry="18.3848"/>
<text text-anchor="middle" x="2180" y="-15.4" font-family="Times Roman,serif" font-size="14.00">struct _f</text>
</g>
<!-- n148393528_15 -->
<g id="node15" class="node"><title>n148393528_15</title>
<ellipse fill="none" stroke="black" cx="2304" cy="-19" rx="53.9477" ry="18.3848"/>
<text text-anchor="middle" x="2304" y="-15.4" font-family="Times Roman,serif" font-size="14.00">struct _g</text>
</g>
<!-- n148417528_16 -->
<g id="node16" class="node"><title>n148417528_16</title>
<ellipse fill="none" stroke="black" cx="2508" cy="-19" rx="132.229" ry="18.3848"/>
<text text-anchor="middle" x="2508" y="-15.4" font-family="Times Roman,serif" font-size="14.00">struct mpl_::bool_&lt;1&gt; &amp;</text>
</g>
<!-- n148434224_17 -->
<g id="node17" class="node"><title>n148434224_17</title>
<ellipse fill="none" stroke="black" cx="2788" cy="-19" rx="130.108" ry="18.3848"/>
<text text-anchor="middle" x="2788" y="-15.4" font-family="Times Roman,serif" font-size="14.00">struct mpl_::bool_&lt;1&gt; *</text>
</g>
<!-- n148474952_18 -->
<g id="node18" class="node"><title>n148474952_18</title>
<ellipse fill="none" stroke="black" cx="3068" cy="-19" rx="132.229" ry="18.3848"/>
<text text-anchor="middle" x="3068" y="-15.4" font-family="Times Roman,serif" font-size="14.00">struct mpl_::bool_&lt;0&gt; &amp;</text>
</g>
<!-- n148490928_19 -->
<g id="node19" class="node"><title>n148490928_19</title>
<ellipse fill="none" stroke="black" cx="3348" cy="-19" rx="130.108" ry="18.3848"/>
<text text-anchor="middle" x="3348" y="-15.4" font-family="Times Roman,serif" font-size="14.00">struct mpl_::bool_&lt;0&gt; *</text>
</g>
<!-- n617482216_20 -->
<g id="node20" class="node"><title>n617482216_20</title>
<ellipse fill="none" stroke="black" cx="3536" cy="-19" rx="39.8075" ry="18.3848"/>
<text text-anchor="middle" x="3536" y="-15.4" font-family="Times Roman,serif" font-size="14.00">ice_or</text>
</g>
<!-- n617482216_1 -->
<g id="node21" class="node"><title>n617482216_1</title>
<ellipse fill="none" stroke="black" cx="423" cy="-241" rx="86.9741" ry="18.3848"/>
<text text-anchor="middle" x="423" y="-237.4" font-family="Times Roman,serif" font-size="14.00">n617482216_1</text>
</g>
<!-- n81773484321_1 -->
<g id="node23" class="node"><title>n81773484321_1</title>
<ellipse fill="none" stroke="black" cx="423" cy="-315" rx="99.201" ry="18.3848"/>
<text text-anchor="middle" x="423" y="-311.4" font-family="Times Roman,serif" font-size="14.00">n81773484321_1</text>
</g>
<!-- n617482216_1&#45;&gt;n81773484321_1 -->
<g id="edge2" class="edge"><title>n617482216_1&#45;&gt;n81773484321_1</title>
<path fill="none" stroke="black" d="M388.195,-258.163C382.467,-267.158 381.06,-278.373 383.974,-288.459"/>
<polygon fill="black" stroke="black" points="380.816,-289.972 388.092,-297.674 387.207,-287.116 380.816,-289.972"/>
</g>
<!-- n617482216_1&#45;&gt;n81773484321_1 -->
<g id="edge4" class="edge"><title>n617482216_1&#45;&gt;n81773484321_1</title>
<path fill="none" stroke="black" d="M399.487,-258.913C396.082,-267.395 395.17,-277.719 396.754,-287.186"/>
<polygon fill="black" stroke="black" points="393.425,-288.281 399.45,-296.995 400.174,-286.425 393.425,-288.281"/>
</g>
<!-- n617482216_1&#45;&gt;n81773484321_1 -->
<g id="edge6" class="edge"><title>n617482216_1&#45;&gt;n81773484321_1</title>
<path fill="none" stroke="black" d="M411.095,-259.673C409.555,-267.798 409.13,-277.499 409.821,-286.493"/>
<polygon fill="black" stroke="black" points="406.375,-287.129 411.145,-296.589 413.315,-286.219 406.375,-287.129"/>
</g>
<!-- n617482216_1&#45;&gt;n81773484321_1 -->
<g id="edge8" class="edge"><title>n617482216_1&#45;&gt;n81773484321_1</title>
<path fill="none" stroke="black" d="M423,-259.673C423,-267.736 423,-277.352 423,-286.289"/>
<polygon fill="black" stroke="black" points="419.5,-286.333 423,-296.333 426.5,-286.333 419.5,-286.333"/>
</g>
<!-- n617482216_1&#45;&gt;n81773484321_1 -->
<g id="edge10" class="edge"><title>n617482216_1&#45;&gt;n81773484321_1</title>
<path fill="none" stroke="black" d="M434.905,-259.673C436.445,-267.798 436.87,-277.499 436.179,-286.493"/>
<polygon fill="black" stroke="black" points="432.685,-286.219 434.855,-296.589 439.625,-287.129 432.685,-286.219"/>
</g>
<!-- n617482216_1&#45;&gt;n81773484321_1 -->
<g id="edge12" class="edge"><title>n617482216_1&#45;&gt;n81773484321_1</title>
<path fill="none" stroke="black" d="M446.513,-258.913C449.918,-267.395 450.83,-277.719 449.246,-287.186"/>
<polygon fill="black" stroke="black" points="445.826,-286.425 446.55,-296.995 452.575,-288.281 445.826,-286.425"/>
</g>
<!-- n617482216_1&#45;&gt;n81773484321_1 -->
<g id="edge14" class="edge"><title>n617482216_1&#45;&gt;n81773484321_1</title>
<path fill="none" stroke="black" d="M457.805,-258.163C463.533,-267.158 464.94,-278.373 462.026,-288.459"/>
<polygon fill="black" stroke="black" points="458.793,-287.116 457.908,-297.674 465.184,-289.972 458.793,-287.116"/>
</g>
<!-- n634732435_21 -->
<g id="node30" class="node"><title>n634732435_21</title>
<ellipse fill="none" stroke="black" cx="3658" cy="-19" rx="63.8479" ry="18.3848"/>
<text text-anchor="middle" x="3658" y="-15.4" font-family="Times Roman,serif" font-size="14.00">is_function</text>
</g>
<!-- n634732435_1 -->
<g id="node31" class="node"><title>n634732435_1</title>
<ellipse fill="none" stroke="black" cx="824" cy="-93" rx="86.9741" ry="18.3848"/>
<text text-anchor="middle" x="824" y="-89.4" font-family="Times Roman,serif" font-size="14.00">n634732435_1</text>
</g>
<!-- n64100867701_1 -->
<g id="node33" class="node"><title>n64100867701_1</title>
<ellipse fill="none" stroke="black" cx="958" cy="-167" rx="99.201" ry="18.3848"/>
<text text-anchor="middle" x="958" y="-163.4" font-family="Times Roman,serif" font-size="14.00">n64100867701_1</text>
</g>
<!-- n634732435_1&#45;&gt;n64100867701_1 -->
<g id="edge16" class="edge"><title>n634732435_1&#45;&gt;n64100867701_1</title>
<path fill="none" stroke="black" d="M855.417,-110.35C873.798,-120.5 897.211,-133.43 917.028,-144.374"/>
<polygon fill="black" stroke="black" points="915.403,-147.475 925.849,-149.245 918.787,-141.347 915.403,-147.475"/>
</g>
<!-- n64106335892_1 -->
<g id="node35" class="node"><title>n64106335892_1</title>
<ellipse fill="none" stroke="black" cx="742" cy="-167" rx="99.201" ry="18.3848"/>
<text text-anchor="middle" x="742" y="-163.4" font-family="Times Roman,serif" font-size="14.00">n64106335892_1</text>
</g>
<!-- n634732435_1&#45;&gt;n64106335892_1 -->
<g id="edge18" class="edge"><title>n634732435_1&#45;&gt;n64106335892_1</title>
<path fill="none" stroke="black" d="M803.73,-111.292C793.48,-120.542 780.884,-131.909 769.749,-141.958"/>
<polygon fill="black" stroke="black" points="767.4,-139.364 762.321,-148.662 772.09,-144.561 767.4,-139.364"/>
</g>
<!-- n81030972443_1 -->
<g id="node46" class="node"><title>n81030972443_1</title>
<ellipse fill="none" stroke="black" cx="1212" cy="-241" rx="99.201" ry="18.3848"/>
<text text-anchor="middle" x="1212" y="-237.4" font-family="Times Roman,serif" font-size="14.00">n81030972443_1</text>
</g>
<!-- n64100867701_1&#45;&gt;n81030972443_1 -->
<g id="edge110" class="edge"><title>n64100867701_1&#45;&gt;n81030972443_1</title>
<path fill="none" stroke="black" d="M1011.56,-182.603C1051.66,-194.287 1106.65,-210.308 1148.89,-222.614"/>
<polygon fill="black" stroke="black" points="1147.94,-225.981 1158.52,-225.418 1149.89,-219.261 1147.94,-225.981"/>
</g>
<!-- n64106335892_1&#45;&gt;n142663560_1 -->
<g id="edge112" class="edge"><title>n64106335892_1&#45;&gt;n142663560_1</title>
<path fill="none" stroke="black" d="M785.114,-183.792C817.321,-196.336 861.006,-213.35 892.349,-225.557"/>
<polygon fill="black" stroke="black" points="891.473,-228.972 902.061,-229.34 894.013,-222.449 891.473,-228.972"/>
</g>
<!-- n64106335892_1&#45;&gt;n81773484321_1 -->
<g id="edge114" class="edge"><title>n64106335892_1&#45;&gt;n81773484321_1</title>
<path fill="none" stroke="black" d="M743.818,-185.543C744.777,-206.626 742.773,-240.622 723,-260 695.493,-286.957 602.379,-301.037 527.1,-308.17"/>
<polygon fill="black" stroke="black" points="526.715,-304.691 517.076,-309.09 527.354,-311.662 526.715,-304.691"/>
</g>
<!-- n6478450579_1 -->
<g id="node49" class="node"><title>n6478450579_1</title>
<ellipse fill="none" stroke="black" cx="621" cy="-241" rx="92.839" ry="18.3848"/>
<text text-anchor="middle" x="621" y="-237.4" font-family="Times Roman,serif" font-size="14.00">n6478450579_1</text>
</g>
<!-- n64106335892_1&#45;&gt;n6478450579_1 -->
<g id="edge116" class="edge"><title>n64106335892_1&#45;&gt;n6478450579_1</title>
<path fill="none" stroke="black" d="M713.017,-184.725C696.823,-194.629 676.449,-207.089 658.991,-217.766"/>
<polygon fill="black" stroke="black" points="656.87,-214.96 650.165,-223.163 660.523,-220.932 656.87,-214.96"/>
</g>
<!-- n644551105_22 -->
<g id="node36" class="node"><title>n644551105_22</title>
<ellipse fill="none" stroke="black" cx="3791" cy="-19" rx="50.9117" ry="18.3848"/>
<text text-anchor="middle" x="3791" y="-15.4" font-family="Times Roman,serif" font-size="14.00">has_key</text>
</g>
<!-- n644551105_1 -->
<g id="node37" class="node"><title>n644551105_1</title>
<ellipse fill="none" stroke="black" cx="3947" cy="-19" rx="86.9741" ry="18.3848"/>
<text text-anchor="middle" x="3947" y="-15.4" font-family="Times Roman,serif" font-size="14.00">n644551105_1</text>
</g>
<!-- n6745127571_1 -->
<g id="node39" class="node"><title>n6745127571_1</title>
<ellipse fill="none" stroke="black" cx="4121" cy="-93" rx="92.839" ry="18.3848"/>
<text text-anchor="middle" x="4121" y="-89.4" font-family="Times Roman,serif" font-size="14.00">n6745127571_1</text>
</g>
<!-- n644551105_1&#45;&gt;n6745127571_1 -->
<g id="edge20" class="edge"><title>n644551105_1&#45;&gt;n6745127571_1</title>
<path fill="none" stroke="black" d="M3986.05,-35.607C4011.5,-46.4326 4044.92,-60.6454 4072.14,-72.2187"/>
<polygon fill="black" stroke="black" points="4070.91,-75.4995 4081.48,-76.1924 4073.65,-69.0578 4070.91,-75.4995"/>
</g>
<!-- n148391992_1 -->
<g id="node41" class="node"><title>n148391992_1</title>
<ellipse fill="none" stroke="black" cx="3545" cy="-167" rx="86.9741" ry="18.3848"/>
<text text-anchor="middle" x="3545" y="-163.4" font-family="Times Roman,serif" font-size="14.00">n148391992_1</text>
</g>
<!-- n644551105_1&#45;&gt;n148391992_1 -->
<g id="edge22" class="edge"><title>n644551105_1&#45;&gt;n148391992_1</title>
<path fill="none" stroke="black" d="M3903.21,-35.1203C3828.91,-62.4773 3678.39,-117.893 3598.16,-147.429"/>
<polygon fill="black" stroke="black" points="3596.91,-144.16 3588.73,-150.9 3599.33,-150.729 3596.91,-144.16"/>
</g>
<!-- n6745127571_1&#45;&gt;n148391992_1 -->
<g id="edge38" class="edge"><title>n6745127571_1&#45;&gt;n148391992_1</title>
<path fill="none" stroke="black" d="M4036.18,-100.615C3940.04,-109.735 3778.78,-126.508 3641,-148 3633.18,-149.219 3625.03,-150.624 3616.93,-152.106"/>
<polygon fill="black" stroke="black" points="3616.28,-148.666 3607.1,-153.944 3617.57,-155.547 3616.28,-148.666"/>
</g>
<!-- n148390456_1 -->
<g id="node53" class="node"><title>n148390456_1</title>
<ellipse fill="none" stroke="black" cx="3737" cy="-167" rx="86.9741" ry="18.3848"/>
<text text-anchor="middle" x="3737" y="-163.4" font-family="Times Roman,serif" font-size="14.00">n148390456_1</text>
</g>
<!-- n6745127571_1&#45;&gt;n148390456_1 -->
<g id="edge32" class="edge"><title>n6745127571_1&#45;&gt;n148390456_1</title>
<path fill="none" stroke="black" d="M4053.47,-105.763C3995.09,-116.83 3908.45,-133.329 3833,-148 3825.75,-149.409 3818.2,-150.888 3810.65,-152.371"/>
<polygon fill="black" stroke="black" points="3809.9,-148.952 3800.76,-154.318 3811.25,-155.82 3809.9,-148.952"/>
</g>
<!-- n148390968_1 -->
<g id="node55" class="node"><title>n148390968_1</title>
<ellipse fill="none" stroke="black" cx="3929" cy="-167" rx="86.9741" ry="18.3848"/>
<text text-anchor="middle" x="3929" y="-163.4" font-family="Times Roman,serif" font-size="14.00">n148390968_1</text>
</g>
<!-- n6745127571_1&#45;&gt;n148390968_1 -->
<g id="edge34" class="edge"><title>n6745127571_1&#45;&gt;n148390968_1</title>
<path fill="none" stroke="black" d="M4077.91,-109.607C4049.18,-120.681 4011.25,-135.299 3980.86,-147.011"/>
<polygon fill="black" stroke="black" points="3979.36,-143.841 3971.28,-150.703 3981.87,-150.373 3979.36,-143.841"/>
</g>
<!-- n148391480_1 -->
<g id="node57" class="node"><title>n148391480_1</title>
<ellipse fill="none" stroke="black" cx="4121" cy="-167" rx="86.9741" ry="18.3848"/>
<text text-anchor="middle" x="4121" y="-163.4" font-family="Times Roman,serif" font-size="14.00">n148391480_1</text>
</g>
<!-- n6745127571_1&#45;&gt;n148391480_1 -->
<g id="edge36" class="edge"><title>n6745127571_1&#45;&gt;n148391480_1</title>
<path fill="none" stroke="black" d="M4121,-111.673C4121,-119.736 4121,-129.352 4121,-138.289"/>
<polygon fill="black" stroke="black" points="4117.5,-138.333 4121,-148.333 4124.5,-138.333 4117.5,-138.333"/>
</g>
<!-- n148392504_1 -->
<g id="node60" class="node"><title>n148392504_1</title>
<ellipse fill="none" stroke="black" cx="4313" cy="-167" rx="86.9741" ry="18.3848"/>
<text text-anchor="middle" x="4313" y="-163.4" font-family="Times Roman,serif" font-size="14.00">n148392504_1</text>
</g>
<!-- n6745127571_1&#45;&gt;n148392504_1 -->
<g id="edge40" class="edge"><title>n6745127571_1&#45;&gt;n148392504_1</title>
<path fill="none" stroke="black" d="M4164.09,-109.607C4192.82,-120.681 4230.75,-135.299 4261.14,-147.011"/>
<polygon fill="black" stroke="black" points="4260.13,-150.373 4270.72,-150.703 4262.64,-143.841 4260.13,-150.373"/>
</g>
<!-- n148393016_1 -->
<g id="node62" class="node"><title>n148393016_1</title>
<ellipse fill="none" stroke="black" cx="4697" cy="-167" rx="86.9741" ry="18.3848"/>
<text text-anchor="middle" x="4697" y="-163.4" font-family="Times Roman,serif" font-size="14.00">n148393016_1</text>
</g>
<!-- n6745127571_1&#45;&gt;n148393016_1 -->
<g id="edge42" class="edge"><title>n6745127571_1&#45;&gt;n148393016_1</title>
<path fill="none" stroke="black" d="M4205.82,-100.615C4301.96,-109.735 4463.22,-126.508 4601,-148 4608.82,-149.219 4616.97,-150.624 4625.07,-152.106"/>
<polygon fill="black" stroke="black" points="4624.43,-155.547 4634.9,-153.944 4625.72,-148.666 4624.43,-155.547"/>
</g>
<!-- n148393528_1 -->
<g id="node64" class="node"><title>n148393528_1</title>
<ellipse fill="none" stroke="black" cx="4505" cy="-167" rx="86.9741" ry="18.3848"/>
<text text-anchor="middle" x="4505" y="-163.4" font-family="Times Roman,serif" font-size="14.00">n148393528_1</text>
</g>
<!-- n6745127571_1&#45;&gt;n148393528_1 -->
<g id="edge44" class="edge"><title>n6745127571_1&#45;&gt;n148393528_1</title>
<path fill="none" stroke="black" d="M4188.53,-105.763C4246.91,-116.83 4333.55,-133.329 4409,-148 4416.25,-149.409 4423.8,-150.888 4431.35,-152.371"/>
<polygon fill="black" stroke="black" points="4430.75,-155.82 4441.24,-154.318 4432.1,-148.952 4430.75,-155.82"/>
</g>
<!-- n6168646301_23 -->
<g id="node42" class="node"><title>n6168646301_23</title>
<ellipse fill="none" stroke="black" cx="4808" cy="-19" rx="96.8736" ry="18.3848"/>
<text text-anchor="middle" x="4808" y="-15.4" font-family="Times Roman,serif" font-size="14.00">integral_constant</text>
</g>
<!-- n6168646301_1 -->
<g id="node43" class="node"><title>n6168646301_1</title>
<ellipse fill="none" stroke="black" cx="1085" cy="-93" rx="92.839" ry="18.3848"/>
<text text-anchor="middle" x="1085" y="-89.4" font-family="Times Roman,serif" font-size="14.00">n6168646301_1</text>
</g>
<!-- n6168646301_1&#45;&gt;n142663560_1 -->
<g id="edge24" class="edge"><title>n6168646301_1&#45;&gt;n142663560_1</title>
<path fill="none" stroke="black" d="M1086.07,-111.588C1086.25,-132.079 1083.44,-164.927 1066,-186 1044.27,-212.253 1007.99,-226.124 978.662,-233.365"/>
<polygon fill="black" stroke="black" points="977.583,-230.021 968.613,-235.659 979.141,-236.846 977.583,-230.021"/>
</g>
<!-- n6168646301_1&#45;&gt;n64100867701_1 -->
<g id="edge28" class="edge"><title>n6168646301_1&#45;&gt;n64100867701_1</title>
<path fill="none" stroke="black" d="M1054.9,-110.537C1037.63,-120.601 1015.75,-133.35 997.153,-144.187"/>
<polygon fill="black" stroke="black" points="995.199,-141.274 988.321,-149.332 998.724,-147.322 995.199,-141.274"/>
</g>
<!-- n6168646301_1&#45;&gt;n81030972443_1 -->
<g id="edge26" class="edge"><title>n6168646301_1&#45;&gt;n81030972443_1</title>
<path fill="none" stroke="black" d="M1167.66,-101.504C1227.48,-109.564 1301.03,-124.074 1320,-148 1330.49,-161.233 1328.83,-171.601 1320,-186 1310.3,-201.818 1294.48,-213.264 1277.89,-221.473"/>
<polygon fill="black" stroke="black" points="1276.27,-218.366 1268.63,-225.709 1279.18,-224.732 1276.27,-218.366"/>
</g>
<!-- n6478450579_24 -->
<g id="node48" class="node"><title>n6478450579_24</title>
<ellipse fill="none" stroke="black" cx="5092" cy="-19" rx="36.977" ry="18.3848"/>
<text text-anchor="middle" x="5092" y="-15.4" font-family="Times Roman,serif" font-size="14.00">bool_</text>
</g>
<!-- n6478450579_1&#45;&gt;n81773484321_1 -->
<g id="edge30" class="edge"><title>n6478450579_1&#45;&gt;n81773484321_1</title>
<path fill="none" stroke="black" d="M577.057,-257.423C547.528,-268.459 508.416,-283.077 476.991,-294.821"/>
<polygon fill="black" stroke="black" points="475.646,-291.588 467.504,-298.367 478.097,-298.145 475.646,-291.588"/>
</g>
<!-- n6745127571_25 -->
<g id="node51" class="node"><title>n6745127571_25</title>
<ellipse fill="none" stroke="black" cx="5240" cy="-19" rx="27" ry="18.3848"/>
<text text-anchor="middle" x="5240" y="-15.4" font-family="Times Roman,serif" font-size="14.00">set</text>
</g>
<!-- n6834048271_26 -->
<g id="node65" class="node"><title>n6834048271_26</title>
<ellipse fill="none" stroke="black" cx="5373" cy="-19" rx="55.1543" ry="18.3848"/>
<text text-anchor="middle" x="5373" y="-15.4" font-family="Times Roman,serif" font-size="14.00">enable_if</text>
</g>
<!-- n6834048271_1 -->
<g id="node66" class="node"><title>n6834048271_1</title>
<ellipse fill="none" stroke="black" cx="493" cy="-19" rx="92.839" ry="18.3848"/>
<text text-anchor="middle" x="493" y="-15.4" font-family="Times Roman,serif" font-size="14.00">n6834048271_1</text>
</g>
<!-- n6834048271_1&#45;&gt;n634732435_1 -->
<g id="edge46" class="edge"><title>n6834048271_1&#45;&gt;n634732435_1</title>
<path fill="none" stroke="black" d="M554.87,-32.832C611.384,-45.4666 694.875,-64.1322 753.849,-77.3168"/>
<polygon fill="black" stroke="black" points="753.306,-80.7816 763.829,-79.5478 754.833,-73.9502 753.306,-80.7816"/>
</g>
<!-- n148417528_1 -->
<g id="node69" class="node"><title>n148417528_1</title>
<ellipse fill="none" stroke="black" cx="461" cy="-167" rx="86.9741" ry="18.3848"/>
<text text-anchor="middle" x="461" y="-163.4" font-family="Times Roman,serif" font-size="14.00">n148417528_1</text>
</g>
<!-- n6834048271_1&#45;&gt;n148417528_1 -->
<g id="edge48" class="edge"><title>n6834048271_1&#45;&gt;n148417528_1</title>
<path fill="none" stroke="black" d="M489.381,-37.5627C485.676,-56.3597 479.672,-86.2504 474,-112 472.094,-120.651 469.916,-130.042 467.894,-138.574"/>
<polygon fill="black" stroke="black" points="464.454,-137.908 465.534,-148.448 471.263,-139.535 464.454,-137.908"/>
</g>
<!-- n62503016136_1 -->
<g id="node71" class="node"><title>n62503016136_1</title>
<ellipse fill="none" stroke="black" cx="366" cy="-93" rx="99.201" ry="18.3848"/>
<text text-anchor="middle" x="366" y="-89.4" font-family="Times Roman,serif" font-size="14.00">n62503016136_1</text>
</g>
<!-- n6834048271_1&#45;&gt;n62503016136_1 -->
<g id="edge50" class="edge"><title>n6834048271_1&#45;&gt;n62503016136_1</title>
<path fill="none" stroke="black" d="M462.903,-36.537C445.631,-46.6009 423.75,-59.3504 405.153,-70.1867"/>
<polygon fill="black" stroke="black" points="403.199,-67.2738 396.321,-75.3325 406.724,-73.322 403.199,-67.2738"/>
</g>
<!-- n62503016136_1&#45;&gt;n81773484321_1 -->
<g id="edge78" class="edge"><title>n62503016136_1&#45;&gt;n81773484321_1</title>
<path fill="none" stroke="black" d="M353.426,-111.581C333.304,-143.85 298.858,-211.443 327,-260 335.535,-274.726 349.663,-285.847 364.489,-294.094"/>
<polygon fill="black" stroke="black" points="363.274,-297.405 373.767,-298.865 366.474,-291.179 363.274,-297.405"/>
</g>
<!-- n62503016136_1&#45;&gt;n148417528_1 -->
<g id="edge80" class="edge"><title>n62503016136_1&#45;&gt;n148417528_1</title>
<path fill="none" stroke="black" d="M389.483,-111.292C401.678,-120.791 416.738,-132.522 429.889,-142.766"/>
<polygon fill="black" stroke="black" points="427.747,-145.534 437.787,-148.918 432.049,-140.012 427.747,-145.534"/>
</g>
<!-- n61392218653_27 -->
<g id="node72" class="node"><title>n61392218653_27</title>
<ellipse fill="none" stroke="black" cx="5582" cy="-19" rx="120.208" ry="18.3848"/>
<text text-anchor="middle" x="5582" y="-15.4" font-family="Times Roman,serif" font-size="14.00">is_function_ptr_helper</text>
</g>
<!-- n61392218653_1 -->
<g id="node73" class="node"><title>n61392218653_1</title>
<ellipse fill="none" stroke="black" cx="5827" cy="-19" rx="99.201" ry="18.3848"/>
<text text-anchor="middle" x="5827" y="-15.4" font-family="Times Roman,serif" font-size="14.00">n61392218653_1</text>
</g>
<!-- n148434224_1 -->
<g id="node75" class="node"><title>n148434224_1</title>
<ellipse fill="none" stroke="black" cx="5827" cy="-93" rx="86.9741" ry="18.3848"/>
<text text-anchor="middle" x="5827" y="-89.4" font-family="Times Roman,serif" font-size="14.00">n148434224_1</text>
</g>
<!-- n61392218653_1&#45;&gt;n148434224_1 -->
<g id="edge52" class="edge"><title>n61392218653_1&#45;&gt;n148434224_1</title>
<path fill="none" stroke="black" d="M5827,-37.6733C5827,-45.7361 5827,-55.3523 5827,-64.2885"/>
<polygon fill="black" stroke="black" points="5823.5,-64.3326 5827,-74.3326 5830.5,-64.3327 5823.5,-64.3326"/>
</g>
<!-- n61686298726_28 -->
<g id="node76" class="node"><title>n61686298726_28</title>
<ellipse fill="none" stroke="black" cx="6008" cy="-19" rx="63.8479" ry="18.3848"/>
<text text-anchor="middle" x="6008" y="-15.4" font-family="Times Roman,serif" font-size="14.00">is_function</text>
</g>
<!-- n61686298726_1 -->
<g id="node77" class="node"><title>n61686298726_1</title>
<ellipse fill="none" stroke="black" cx="620" cy="-93" rx="99.201" ry="18.3848"/>
<text text-anchor="middle" x="620" y="-89.4" font-family="Times Roman,serif" font-size="14.00">n61686298726_1</text>
</g>
<!-- n61686298726_1&#45;&gt;n64106335892_1 -->
<g id="edge56" class="edge"><title>n61686298726_1&#45;&gt;n64106335892_1</title>
<path fill="none" stroke="black" d="M649.222,-110.725C665.55,-120.629 686.093,-133.089 703.695,-143.766"/>
<polygon fill="black" stroke="black" points="702.228,-146.97 712.594,-149.163 705.859,-140.985 702.228,-146.97"/>
</g>
<!-- n61686298726_1&#45;&gt;n6478450579_1 -->
<g id="edge54" class="edge"><title>n61686298726_1&#45;&gt;n6478450579_1</title>
<path fill="none" stroke="black" d="M620.127,-111.744C620.298,-137.099 620.605,-182.561 620.806,-212.25"/>
<polygon fill="black" stroke="black" points="617.307,-212.432 620.874,-222.408 624.307,-212.384 617.307,-212.432"/>
</g>
<!-- n61901602395_29 -->
<g id="node80" class="node"><title>n61901602395_29</title>
<ellipse fill="none" stroke="black" cx="6117" cy="-19" rx="27" ry="18.3848"/>
<text text-anchor="middle" x="6117" y="-15.4" font-family="Times Roman,serif" font-size="14.00">set</text>
</g>
<!-- n61901602395_1 -->
<g id="node81" class="node"><title>n61901602395_1</title>
<ellipse fill="none" stroke="black" cx="4901" cy="-167" rx="99.201" ry="18.3848"/>
<text text-anchor="middle" x="4901" y="-163.4" font-family="Times Roman,serif" font-size="14.00">n61901602395_1</text>
</g>
<!-- n148381272_1 -->
<g id="node83" class="node"><title>n148381272_1</title>
<ellipse fill="none" stroke="black" cx="5285" cy="-241" rx="86.9741" ry="18.3848"/>
<text text-anchor="middle" x="5285" y="-237.4" font-family="Times Roman,serif" font-size="14.00">n148381272_1</text>
</g>
<!-- n61901602395_1&#45;&gt;n148381272_1 -->
<g id="edge58" class="edge"><title>n61901602395_1&#45;&gt;n148381272_1</title>
<path fill="none" stroke="black" d="M4970.86,-180.206C5029.2,-191.267 5114.55,-207.523 5189,-222 5196.25,-223.409 5203.8,-224.888 5211.35,-226.371"/>
<polygon fill="black" stroke="black" points="5210.75,-229.82 5221.24,-228.318 5212.1,-222.952 5210.75,-229.82"/>
</g>
<!-- n148381784_1 -->
<g id="node85" class="node"><title>n148381784_1</title>
<ellipse fill="none" stroke="black" cx="4325" cy="-241" rx="86.9741" ry="18.3848"/>
<text text-anchor="middle" x="4325" y="-237.4" font-family="Times Roman,serif" font-size="14.00">n148381784_1</text>
</g>
<!-- n61901602395_1&#45;&gt;n148381784_1 -->
<g id="edge60" class="edge"><title>n61901602395_1&#45;&gt;n148381784_1</title>
<path fill="none" stroke="black" d="M4831.12,-180.111C4818.46,-182.253 4805.36,-184.318 4793,-186 4628.41,-208.407 4585.34,-197.846 4421,-222 4413.05,-223.168 4404.77,-224.553 4396.54,-226.034"/>
<polygon fill="black" stroke="black" points="4395.75,-222.62 4386.56,-227.881 4397.03,-229.503 4395.75,-222.62"/>
</g>
<!-- n148382296_1 -->
<g id="node87" class="node"><title>n148382296_1</title>
<ellipse fill="none" stroke="black" cx="5093" cy="-241" rx="86.9741" ry="18.3848"/>
<text text-anchor="middle" x="5093" y="-237.4" font-family="Times Roman,serif" font-size="14.00">n148382296_1</text>
</g>
<!-- n61901602395_1&#45;&gt;n148382296_1 -->
<g id="edge62" class="edge"><title>n61901602395_1&#45;&gt;n148382296_1</title>
<path fill="none" stroke="black" d="M4944.57,-183.792C4973.32,-194.874 5011.13,-209.444 5041.39,-221.107"/>
<polygon fill="black" stroke="black" points="5040.33,-224.453 5050.92,-224.783 5042.85,-217.921 5040.33,-224.453"/>
</g>
<!-- n148382808_1 -->
<g id="node89" class="node"><title>n148382808_1</title>
<ellipse fill="none" stroke="black" cx="4517" cy="-241" rx="86.9741" ry="18.3848"/>
<text text-anchor="middle" x="4517" y="-237.4" font-family="Times Roman,serif" font-size="14.00">n148382808_1</text>
</g>
<!-- n61901602395_1&#45;&gt;n148382808_1 -->
<g id="edge64" class="edge"><title>n61901602395_1&#45;&gt;n148382808_1</title>
<path fill="none" stroke="black" d="M4831.14,-180.206C4772.8,-191.267 4687.45,-207.523 4613,-222 4605.75,-223.409 4598.2,-224.888 4590.65,-226.371"/>
<polygon fill="black" stroke="black" points="4589.9,-222.952 4580.76,-228.318 4591.25,-229.82 4589.9,-222.952"/>
</g>
<!-- n148388920_1 -->
<g id="node91" class="node"><title>n148388920_1</title>
<ellipse fill="none" stroke="black" cx="4709" cy="-241" rx="86.9741" ry="18.3848"/>
<text text-anchor="middle" x="4709" y="-237.4" font-family="Times Roman,serif" font-size="14.00">n148388920_1</text>
</g>
<!-- n61901602395_1&#45;&gt;n148388920_1 -->
<g id="edge66" class="edge"><title>n61901602395_1&#45;&gt;n148388920_1</title>
<path fill="none" stroke="black" d="M4857.43,-183.792C4828.68,-194.874 4790.87,-209.444 4760.61,-221.107"/>
<polygon fill="black" stroke="black" points="4759.15,-217.921 4751.08,-224.783 4761.67,-224.453 4759.15,-217.921"/>
</g>
<!-- n148389432_1 -->
<g id="node93" class="node"><title>n148389432_1</title>
<ellipse fill="none" stroke="black" cx="4901" cy="-241" rx="86.9741" ry="18.3848"/>
<text text-anchor="middle" x="4901" y="-237.4" font-family="Times Roman,serif" font-size="14.00">n148389432_1</text>
</g>
<!-- n61901602395_1&#45;&gt;n148389432_1 -->
<g id="edge68" class="edge"><title>n61901602395_1&#45;&gt;n148389432_1</title>
<path fill="none" stroke="black" d="M4901,-185.673C4901,-193.736 4901,-203.352 4901,-212.289"/>
<polygon fill="black" stroke="black" points="4897.5,-212.333 4901,-222.333 4904.5,-212.333 4897.5,-212.333"/>
</g>
<!-- n148389944_1 -->
<g id="node95" class="node"><title>n148389944_1</title>
<ellipse fill="none" stroke="black" cx="4133" cy="-241" rx="86.9741" ry="18.3848"/>
<text text-anchor="middle" x="4133" y="-237.4" font-family="Times Roman,serif" font-size="14.00">n148389944_1</text>
</g>
<!-- n61901602395_1&#45;&gt;n148389944_1 -->
<g id="edge70" class="edge"><title>n61901602395_1&#45;&gt;n148389944_1</title>
<path fill="none" stroke="black" d="M4832.03,-180.302C4819.1,-182.464 4805.67,-184.486 4793,-186 4543.6,-215.805 4478.07,-189.547 4229,-222 4220.77,-223.073 4212.18,-224.429 4203.67,-225.92"/>
<polygon fill="black" stroke="black" points="4202.96,-222.492 4193.74,-227.725 4204.21,-229.379 4202.96,-222.492"/>
</g>
<!-- n61987932601_30 -->
<g id="node96" class="node"><title>n61987932601_30</title>
<ellipse fill="none" stroke="black" cx="6227" cy="-19" rx="65.0538" ry="18.3848"/>
<text text-anchor="middle" x="6227" y="-15.4" font-family="Times Roman,serif" font-size="14.00">enable_if_c</text>
</g>
<!-- n61987932601_1 -->
<g id="node97" class="node"><title>n61987932601_1</title>
<ellipse fill="none" stroke="black" cx="150" cy="-93" rx="99.201" ry="18.3848"/>
<text text-anchor="middle" x="150" y="-89.4" font-family="Times Roman,serif" font-size="14.00">n61987932601_1</text>
</g>
<!-- n61987932601_1&#45;&gt;n81773484321_1 -->
<g id="edge72" class="edge"><title>n61987932601_1&#45;&gt;n81773484321_1</title>
<path fill="none" stroke="black" d="M164.519,-111.526C191.155,-144.607 250.827,-214.613 313,-260 331.08,-273.199 352.801,-284.812 372.148,-293.924"/>
<polygon fill="black" stroke="black" points="370.881,-297.193 381.429,-298.192 373.806,-290.834 370.881,-297.193"/>
</g>
<!-- n148474952_1 -->
<g id="node100" class="node"><title>n148474952_1</title>
<ellipse fill="none" stroke="black" cx="87" cy="-167" rx="86.9741" ry="18.3848"/>
<text text-anchor="middle" x="87" y="-163.4" font-family="Times Roman,serif" font-size="14.00">n148474952_1</text>
</g>
<!-- n61987932601_1&#45;&gt;n148474952_1 -->
<g id="edge74" class="edge"><title>n61987932601_1&#45;&gt;n148474952_1</title>
<path fill="none" stroke="black" d="M134.427,-111.292C126.855,-120.186 117.616,-131.038 109.311,-140.793"/>
<polygon fill="black" stroke="black" points="106.43,-138.779 102.612,-148.662 111.76,-143.316 106.43,-138.779"/>
</g>
<!-- n62447420598_31 -->
<g id="node101" class="node"><title>n62447420598_31</title>
<ellipse fill="none" stroke="black" cx="6430" cy="-19" rx="120.208" ry="18.3848"/>
<text text-anchor="middle" x="6430" y="-15.4" font-family="Times Roman,serif" font-size="14.00">is_function_ptr_helper</text>
</g>
<!-- n62447420598_1 -->
<g id="node102" class="node"><title>n62447420598_1</title>
<ellipse fill="none" stroke="black" cx="6667" cy="-19" rx="99.201" ry="18.3848"/>
<text text-anchor="middle" x="6667" y="-15.4" font-family="Times Roman,serif" font-size="14.00">n62447420598_1</text>
</g>
<!-- n148490928_1 -->
<g id="node104" class="node"><title>n148490928_1</title>
<ellipse fill="none" stroke="black" cx="6667" cy="-93" rx="86.9741" ry="18.3848"/>
<text text-anchor="middle" x="6667" y="-89.4" font-family="Times Roman,serif" font-size="14.00">n148490928_1</text>
</g>
<!-- n62447420598_1&#45;&gt;n148490928_1 -->
<g id="edge76" class="edge"><title>n62447420598_1&#45;&gt;n148490928_1</title>
<path fill="none" stroke="black" d="M6667,-37.6733C6667,-45.7361 6667,-55.3523 6667,-64.2885"/>
<polygon fill="black" stroke="black" points="6663.5,-64.3326 6667,-74.3326 6670.5,-64.3327 6663.5,-64.3326"/>
</g>
<!-- n62503016136_32 -->
<g id="node105" class="node"><title>n62503016136_32</title>
<ellipse fill="none" stroke="black" cx="6849" cy="-19" rx="65.0538" ry="18.3848"/>
<text text-anchor="middle" x="6849" y="-15.4" font-family="Times Roman,serif" font-size="14.00">enable_if_c</text>
</g>
<!-- n62656867051_33 -->
<g id="node108" class="node"><title>n62656867051_33</title>
<ellipse fill="none" stroke="black" cx="6983" cy="-19" rx="50.9117" ry="18.3848"/>
<text text-anchor="middle" x="6983" y="-15.4" font-family="Times Roman,serif" font-size="14.00">has_key</text>
</g>
<!-- n62656867051_1 -->
<g id="node109" class="node"><title>n62656867051_1</title>
<ellipse fill="none" stroke="black" cx="4330" cy="-19" rx="99.201" ry="18.3848"/>
<text text-anchor="middle" x="4330" y="-15.4" font-family="Times Roman,serif" font-size="14.00">n62656867051_1</text>
</g>
<!-- n62656867051_1&#45;&gt;n6745127571_1 -->
<g id="edge82" class="edge"><title>n62656867051_1&#45;&gt;n6745127571_1</title>
<path fill="none" stroke="black" d="M4283.62,-35.423C4251.98,-46.6231 4209.93,-61.5115 4176.52,-73.3426"/>
<polygon fill="black" stroke="black" points="4175.15,-70.1134 4166.89,-76.7504 4177.49,-76.712 4175.15,-70.1134"/>
</g>
<!-- n62656867051_1&#45;&gt;n148381272_1 -->
<g id="edge84" class="edge"><title>n62656867051_1&#45;&gt;n148381272_1</title>
<path fill="none" stroke="black" d="M4426,-23.6471C4632.46,-33.9032 5102.63,-58.7713 5134,-74 5197.32,-104.74 5246.27,-174.858 5269.74,-213.75"/>
<polygon fill="black" stroke="black" points="5266.79,-215.635 5274.88,-222.466 5272.81,-212.075 5266.79,-215.635"/>
</g>
<!-- n62853145486_34 -->
<g id="node112" class="node"><title>n62853145486_34</title>
<ellipse fill="none" stroke="black" cx="7100" cy="-19" rx="48.0833" ry="18.3848"/>
<text text-anchor="middle" x="7100" y="-15.4" font-family="Times Roman,serif" font-size="14.00">ice_and</text>
</g>
<!-- n62853145486_1 -->
<g id="node113" class="node"><title>n62853145486_1</title>
<ellipse fill="none" stroke="black" cx="1212" cy="-167" rx="99.201" ry="18.3848"/>
<text text-anchor="middle" x="1212" y="-163.4" font-family="Times Roman,serif" font-size="14.00">n62853145486_1</text>
</g>
<!-- n62853145486_1&#45;&gt;n81030972443_1 -->
<g id="edge86" class="edge"><title>n62853145486_1&#45;&gt;n81030972443_1</title>
<path fill="none" stroke="black" d="M1176.96,-184.537C1171.48,-193.384 1170.13,-204.307 1172.89,-214.18"/>
<polygon fill="black" stroke="black" points="1169.8,-215.848 1177.04,-223.589 1176.21,-213.026 1169.8,-215.848"/>
</g>
<!-- n62853145486_1&#45;&gt;n81030972443_1 -->
<g id="edge88" class="edge"><title>n62853145486_1&#45;&gt;n81030972443_1</title>
<path fill="none" stroke="black" d="M1188.34,-185.292C1185.05,-193.716 1184.19,-203.895 1185.76,-213.235"/>
<polygon fill="black" stroke="black" points="1182.4,-214.201 1188.42,-222.918 1189.15,-212.348 1182.4,-214.201"/>
</g>
<!-- n62853145486_1&#45;&gt;n81030972443_1 -->
<g id="edge90" class="edge"><title>n62853145486_1&#45;&gt;n81030972443_1</title>
<path fill="none" stroke="black" d="M1200.1,-185.673C1198.55,-193.798 1198.13,-203.499 1198.82,-212.493"/>
<polygon fill="black" stroke="black" points="1195.37,-213.129 1200.15,-222.589 1202.32,-212.219 1195.37,-213.129"/>
</g>
<!-- n62853145486_1&#45;&gt;n81030972443_1 -->
<g id="edge92" class="edge"><title>n62853145486_1&#45;&gt;n81030972443_1</title>
<path fill="none" stroke="black" d="M1212,-185.673C1212,-193.736 1212,-203.352 1212,-212.289"/>
<polygon fill="black" stroke="black" points="1208.5,-212.333 1212,-222.333 1215.5,-212.333 1208.5,-212.333"/>
</g>
<!-- n62853145486_1&#45;&gt;n81030972443_1 -->
<g id="edge94" class="edge"><title>n62853145486_1&#45;&gt;n81030972443_1</title>
<path fill="none" stroke="black" d="M1223.9,-185.673C1225.45,-193.798 1225.87,-203.499 1225.18,-212.493"/>
<polygon fill="black" stroke="black" points="1221.68,-212.219 1223.85,-222.589 1228.63,-213.129 1221.68,-212.219"/>
</g>
<!-- n62853145486_1&#45;&gt;n81030972443_1 -->
<g id="edge96" class="edge"><title>n62853145486_1&#45;&gt;n81030972443_1</title>
<path fill="none" stroke="black" d="M1235.66,-185.292C1238.95,-193.716 1239.81,-203.895 1238.24,-213.235"/>
<polygon fill="black" stroke="black" points="1234.85,-212.348 1235.58,-222.918 1241.6,-214.201 1234.85,-212.348"/>
</g>
<!-- n62853145486_1&#45;&gt;n81030972443_1 -->
<g id="edge98" class="edge"><title>n62853145486_1&#45;&gt;n81030972443_1</title>
<path fill="none" stroke="black" d="M1247.04,-184.537C1252.52,-193.384 1253.87,-204.307 1251.11,-214.18"/>
<polygon fill="black" stroke="black" points="1247.79,-213.026 1246.96,-223.589 1254.2,-215.848 1247.79,-213.026"/>
</g>
<!-- n63118393892_35 -->
<g id="node121" class="node"><title>n63118393892_35</title>
<ellipse fill="none" stroke="black" cx="7217" cy="-19" rx="50.9117" ry="18.3848"/>
<text text-anchor="middle" x="7217" y="-15.4" font-family="Times Roman,serif" font-size="14.00">has_key</text>
</g>
<!-- n63118393892_1 -->
<g id="node122" class="node"><title>n63118393892_1</title>
<ellipse fill="none" stroke="black" cx="5026" cy="-93" rx="99.201" ry="18.3848"/>
<text text-anchor="middle" x="5026" y="-89.4" font-family="Times Roman,serif" font-size="14.00">n63118393892_1</text>
</g>
<!-- n63118393892_1&#45;&gt;n61901602395_1 -->
<g id="edge100" class="edge"><title>n63118393892_1&#45;&gt;n61901602395_1</title>
<path fill="none" stroke="black" d="M4996.06,-110.725C4979.18,-120.72 4957.9,-133.318 4939.75,-144.059"/>
<polygon fill="black" stroke="black" points="4937.95,-141.057 4931.13,-149.163 4941.52,-147.081 4937.95,-141.057"/>
</g>
<!-- n63118393892_1&#45;&gt;n148382296_1 -->
<g id="edge102" class="edge"><title>n63118393892_1&#45;&gt;n148382296_1</title>
<path fill="none" stroke="black" d="M5034.35,-111.445C5045.89,-136.925 5066.8,-183.115 5080.28,-212.903"/>
<polygon fill="black" stroke="black" points="5077.23,-214.656 5084.54,-222.322 5083.61,-211.769 5077.23,-214.656"/>
</g>
<!-- n63369034305_36 -->
<g id="node125" class="node"><title>n63369034305_36</title>
<ellipse fill="none" stroke="black" cx="7341" cy="-19" rx="55.1543" ry="18.3848"/>
<text text-anchor="middle" x="7341" y="-15.4" font-family="Times Roman,serif" font-size="14.00">enable_if</text>
</g>
<!-- n63369034305_1 -->
<g id="node126" class="node"><title>n63369034305_1</title>
<ellipse fill="none" stroke="black" cx="150" cy="-19" rx="99.201" ry="18.3848"/>
<text text-anchor="middle" x="150" y="-15.4" font-family="Times Roman,serif" font-size="14.00">n63369034305_1</text>
</g>
<!-- n63369034305_1&#45;&gt;n61686298726_1 -->
<g id="edge104" class="edge"><title>n63369034305_1&#45;&gt;n61686298726_1</title>
<path fill="none" stroke="black" d="M225.775,-30.9305C310.029,-44.196 445.836,-65.5785 534.008,-79.4608"/>
<polygon fill="black" stroke="black" points="533.561,-82.9335 543.984,-81.0315 534.65,-76.0187 533.561,-82.9335"/>
</g>
<!-- n63369034305_1&#45;&gt;n61987932601_1 -->
<g id="edge108" class="edge"><title>n63369034305_1&#45;&gt;n61987932601_1</title>
<path fill="none" stroke="black" d="M150,-37.6733C150,-45.7361 150,-55.3523 150,-64.2885"/>
<polygon fill="black" stroke="black" points="146.5,-64.3326 150,-74.3326 153.5,-64.3327 146.5,-64.3326"/>
</g>
<!-- n63369034305_1&#45;&gt;n148474952_1 -->
<g id="edge106" class="edge"><title>n63369034305_1&#45;&gt;n148474952_1</title>
<path fill="none" stroke="black" d="M93.369,-34.2914C73.5964,-42.6467 53.4908,-55.2532 42,-74 28.5714,-95.9083 44.2652,-122.421 60.6921,-141.524"/>
<polygon fill="black" stroke="black" points="58.1359,-143.915 67.4493,-148.966 63.3185,-139.21 58.1359,-143.915"/>
</g>
<!-- n64100867701_37 -->
<g id="node130" class="node"><title>n64100867701_37</title>
<ellipse fill="none" stroke="black" cx="7451" cy="-19" rx="36.977" ry="18.3848"/>
<text text-anchor="middle" x="7451" y="-15.4" font-family="Times Roman,serif" font-size="14.00">bool_</text>
</g>
<!-- n64106335892_38 -->
<g id="node132" class="node"><title>n64106335892_38</title>
<ellipse fill="none" stroke="black" cx="7603" cy="-19" rx="96.8736" ry="18.3848"/>
<text text-anchor="middle" x="7603" y="-15.4" font-family="Times Roman,serif" font-size="14.00">integral_constant</text>
</g>
<!-- n64173160337_39 -->
<g id="node136" class="node"><title>n64173160337_39</title>
<ellipse fill="none" stroke="black" cx="7769" cy="-19" rx="50.9117" ry="18.3848"/>
<text text-anchor="middle" x="7769" y="-15.4" font-family="Times Roman,serif" font-size="14.00">has_key</text>
</g>
<!-- n64173160337_1 -->
<g id="node137" class="node"><title>n64173160337_1</title>
<ellipse fill="none" stroke="black" cx="4720" cy="-93" rx="99.201" ry="18.3848"/>
<text text-anchor="middle" x="4720" y="-89.4" font-family="Times Roman,serif" font-size="14.00">n64173160337_1</text>
</g>
<!-- n64173160337_1&#45;&gt;n148393016_1 -->
<g id="edge120" class="edge"><title>n64173160337_1&#45;&gt;n148393016_1</title>
<path fill="none" stroke="black" d="M4714.2,-111.673C4711.66,-119.824 4708.64,-129.562 4705.83,-138.58"/>
<polygon fill="black" stroke="black" points="4702.43,-137.744 4702.8,-148.333 4709.11,-139.822 4702.43,-137.744"/>
</g>
<!-- n64173160337_1&#45;&gt;n61901602395_1 -->
<g id="edge118" class="edge"><title>n64173160337_1&#45;&gt;n61901602395_1</title>
<path fill="none" stroke="black" d="M4761.53,-109.977C4787.85,-120.741 4822.09,-134.74 4850.06,-146.174"/>
<polygon fill="black" stroke="black" points="4849.09,-149.557 4859.67,-150.102 4851.74,-143.078 4849.09,-149.557"/>
</g>
<!-- n81030972443_40 -->
<g id="node140" class="node"><title>n81030972443_40</title>
<ellipse fill="none" stroke="black" cx="7868" cy="-19" rx="29.9071" ry="18.3848"/>
<text text-anchor="middle" x="7868" y="-15.4" font-family="Times Roman,serif" font-size="14.00">0x1</text>
</g>
<!-- n81773484321_41 -->
<g id="node141" class="node"><title>n81773484321_41</title>
<ellipse fill="none" stroke="black" cx="7946" cy="-19" rx="29.9071" ry="18.3848"/>
<text text-anchor="middle" x="7946" y="-15.4" font-family="Times Roman,serif" font-size="14.00">0x0</text>
</g>
</g>
</svg>
