<?xml version="1.0" encoding="UTF-8" standalone="no"?>
<!DOCTYPE svg PUBLIC "-//W3C//DTD SVG 1.1//EN"
 "http://www.w3.org/Graphics/SVG/1.1/DTD/svg11.dtd">
<!-- Generated by graphviz version 2.26.3 (20100126.1600)
 -->
<!-- Title: _anonymous_0 Pages: 1 -->
<svg width="2329pt" height="342pt"
 viewBox="0.00 0.00 2329.00 342.00" xmlns="http://www.w3.org/2000/svg" xmlns:xlink="http://www.w3.org/1999/xlink">
<g id="graph1" class="graph" transform="scale(1 1) rotate(0) translate(4 338)">
<title>_anonymous_0</title>
<polygon fill="white" stroke="white" points="-4,5 -4,-338 2326,-338 2326,5 -4,5"/>
<!-- n131100440 -->
<g id="node1" class="node"><title>n131100440</title>
<ellipse fill="none" stroke="black" cx="707" cy="-241" rx="38.1838" ry="18.3848"/>
<text text-anchor="middle" x="707" y="-237.4" font-family="Times Roman,serif" font-size="14.00">_Bool</text>
</g>
<!-- n131100464 -->
<g id="node2" class="node"><title>n131100464</title>
<ellipse fill="none" stroke="black" cx="1277" cy="-167" rx="33.234" ry="18.3848"/>
<text text-anchor="middle" x="1277" y="-163.4" font-family="Times Roman,serif" font-size="14.00">char</text>
</g>
<!-- n131100512 -->
<g id="node3" class="node"><title>n131100512</title>
<ellipse fill="none" stroke="black" cx="1365" cy="-167" rx="36.977" ry="18.3848"/>
<text text-anchor="middle" x="1365" y="-163.4" font-family="Times Roman,serif" font-size="14.00">short</text>
</g>
<!-- n131100536 -->
<g id="node4" class="node"><title>n131100536</title>
<ellipse fill="none" stroke="black" cx="1199" cy="-167" rx="27" ry="18.3848"/>
<text text-anchor="middle" x="1199" y="-163.4" font-family="Times Roman,serif" font-size="14.00">int</text>
</g>
<!-- n131100728 -->
<g id="node5" class="node"><title>n131100728</title>
<ellipse fill="none" stroke="black" cx="1703" cy="-167" rx="33.234" ry="18.3848"/>
<text text-anchor="middle" x="1703" y="-163.4" font-family="Times Roman,serif" font-size="14.00">float</text>
</g>
<!-- n131100752 -->
<g id="node6" class="node"><title>n131100752</title>
<ellipse fill="none" stroke="black" cx="1798" cy="-167" rx="43.8406" ry="18.3848"/>
<text text-anchor="middle" x="1798" y="-163.4" font-family="Times Roman,serif" font-size="14.00">double</text>
</g>
<!-- n132910936 -->
<g id="node7" class="node"><title>n132910936</title>
<ellipse fill="none" stroke="black" cx="1536" cy="-167" rx="115.966" ry="18.3848"/>
<text text-anchor="middle" x="1536" y="-163.4" font-family="Times Roman,serif" font-size="14.00">struct nt2::meta::na_</text>
</g>
<!-- n137095912 -->
<g id="node8" class="node"><title>n137095912</title>
<ellipse fill="none" stroke="black" cx="132" cy="-167" rx="132.229" ry="18.3848"/>
<text text-anchor="middle" x="132" y="-163.4" font-family="Times Roman,serif" font-size="14.00">struct mpl_::bool_&lt;0&gt; &amp;</text>
</g>
<!-- n137115728 -->
<g id="node9" class="node"><title>n137115728</title>
<ellipse fill="none" stroke="black" cx="1913" cy="-93" rx="130.108" ry="18.3848"/>
<text text-anchor="middle" x="1913" y="-89.4" font-family="Times Roman,serif" font-size="14.00">struct mpl_::bool_&lt;0&gt; *</text>
</g>
<!-- n137143464 -->
<g id="node10" class="node"><title>n137143464</title>
<ellipse fill="none" stroke="black" cx="702" cy="-167" rx="132.229" ry="18.3848"/>
<text text-anchor="middle" x="702" y="-163.4" font-family="Times Roman,serif" font-size="14.00">struct mpl_::bool_&lt;1&gt; &amp;</text>
</g>
<!-- n137155248 -->
<g id="node11" class="node"><title>n137155248</title>
<ellipse fill="none" stroke="black" cx="2191" cy="-93" rx="130.108" ry="18.3848"/>
<text text-anchor="middle" x="2191" y="-89.4" font-family="Times Roman,serif" font-size="14.00">struct mpl_::bool_&lt;1&gt; *</text>
</g>
<!-- n6129461907 -->
<g id="node12" class="node"><title>n6129461907</title>
<ellipse fill="none" stroke="black" cx="1536" cy="-93" rx="27" ry="18.3848"/>
<text text-anchor="middle" x="1536" y="-89.4" font-family="Times Roman,serif" font-size="14.00">set</text>
</g>
<!-- n6129461907&#45;&gt;n131100728 -->
<g id="edge4" class="edge"><title>n6129461907&#45;&gt;n131100728</title>
<path fill="none" stroke="black" d="M1559.07,-103.066C1584.18,-114.041 1625.49,-132.157 1661,-148 1663.3,-149.027 1665.67,-150.089 1668.06,-151.162"/>
<polygon fill="black" stroke="black" points="1666.7,-154.386 1677.25,-155.302 1669.57,-148.004 1666.7,-154.386"/>
</g>
<!-- n6129461907&#45;&gt;n131100752 -->
<g id="edge2" class="edge"><title>n6129461907&#45;&gt;n131100752</title>
<path fill="none" stroke="black" d="M1561.62,-98.9813C1601.23,-108.4 1679.6,-127.714 1745,-148 1748.37,-149.045 1751.84,-150.173 1755.32,-151.34"/>
<polygon fill="black" stroke="black" points="1754.48,-154.75 1765.07,-154.695 1756.75,-148.131 1754.48,-154.75"/>
</g>
<!-- n6129461907&#45;&gt;n132910936 -->
<g id="edge6" class="edge"><title>n6129461907&#45;&gt;n132910936</title>
<path fill="none" stroke="black" d="M1515.33,-105.22C1509.7,-114.364 1507.83,-127.245 1509.7,-138.881"/>
<polygon fill="black" stroke="black" points="1506.35,-139.904 1512.32,-148.66 1513.12,-138.096 1506.35,-139.904"/>
</g>
<!-- n6129461907&#45;&gt;n132910936 -->
<g id="edge8" class="edge"><title>n6129461907&#45;&gt;n132910936</title>
<path fill="none" stroke="black" d="M1524.48,-109.792C1522.63,-118.247 1522.08,-128.733 1522.81,-138.409"/>
<polygon fill="black" stroke="black" points="1519.36,-138.991 1524.12,-148.456 1526.3,-138.089 1519.36,-138.991"/>
</g>
<!-- n6129461907&#45;&gt;n132910936 -->
<g id="edge10" class="edge"><title>n6129461907&#45;&gt;n132910936</title>
<path fill="none" stroke="black" d="M1536,-111.673C1536,-119.736 1536,-129.352 1536,-138.289"/>
<polygon fill="black" stroke="black" points="1532.5,-138.333 1536,-148.333 1539.5,-138.333 1532.5,-138.333"/>
</g>
<!-- n6129461907&#45;&gt;n132910936 -->
<g id="edge12" class="edge"><title>n6129461907&#45;&gt;n132910936</title>
<path fill="none" stroke="black" d="M1547.52,-109.792C1549.37,-118.247 1549.92,-128.733 1549.19,-138.409"/>
<polygon fill="black" stroke="black" points="1545.7,-138.089 1547.88,-148.456 1552.64,-138.991 1545.7,-138.089"/>
</g>
<!-- n6129461907&#45;&gt;n132910936 -->
<g id="edge14" class="edge"><title>n6129461907&#45;&gt;n132910936</title>
<path fill="none" stroke="black" d="M1556.67,-105.22C1562.3,-114.364 1564.17,-127.245 1562.3,-138.881"/>
<polygon fill="black" stroke="black" points="1558.88,-138.096 1559.68,-148.66 1565.65,-139.904 1558.88,-138.096"/>
</g>
<!-- n6651677817 -->
<g id="node13" class="node"><title>n6651677817</title>
<ellipse fill="none" stroke="black" cx="1068" cy="-167" rx="48.0833" ry="18.3848"/>
<text text-anchor="middle" x="1068" y="-163.4" font-family="Times Roman,serif" font-size="14.00">ice_and</text>
</g>
<!-- n81030972443 -->
<g id="node32" class="node"><title>n81030972443</title>
<ellipse fill="none" stroke="black" cx="1068" cy="-241" rx="29.9071" ry="18.3848"/>
<text text-anchor="middle" x="1068" y="-237.4" font-family="Times Roman,serif" font-size="14.00">0x1</text>
</g>
<!-- n6651677817&#45;&gt;n81030972443 -->
<g id="edge22" class="edge"><title>n6651677817&#45;&gt;n81030972443</title>
<path fill="none" stroke="black" d="M1035.53,-180.919C1025.36,-193.47 1024.85,-211.921 1034.01,-225.059"/>
<polygon fill="black" stroke="black" points="1031.56,-227.566 1040.96,-232.454 1036.66,-222.771 1031.56,-227.566"/>
</g>
<!-- n6651677817&#45;&gt;n81030972443 -->
<g id="edge24" class="edge"><title>n6651677817&#45;&gt;n81030972443</title>
<path fill="none" stroke="black" d="M1079.83,-185.292C1081.51,-193.875 1081.92,-204.28 1081.07,-213.764"/>
<polygon fill="black" stroke="black" points="1077.57,-213.531 1079.58,-223.933 1084.5,-214.547 1077.57,-213.531"/>
</g>
<!-- n6651677817&#45;&gt;n81030972443 -->
<g id="edge26" class="edge"><title>n6651677817&#45;&gt;n81030972443</title>
<path fill="none" stroke="black" d="M1090.88,-183.423C1095.44,-193.594 1096.22,-206.808 1093.2,-218.01"/>
<polygon fill="black" stroke="black" points="1089.83,-217.004 1089.37,-227.588 1096.33,-219.605 1089.83,-217.004"/>
</g>
<!-- n6651677817&#45;&gt;n81030972443 -->
<g id="edge28" class="edge"><title>n6651677817&#45;&gt;n81030972443</title>
<path fill="none" stroke="black" d="M1100.47,-180.919C1110.64,-193.47 1111.15,-211.921 1101.99,-225.059"/>
<polygon fill="black" stroke="black" points="1099.34,-222.771 1095.04,-232.454 1104.44,-227.566 1099.34,-222.771"/>
</g>
<!-- n6651677817&#45;&gt;n81030972443 -->
<g id="edge16" class="edge"><title>n6651677817&#45;&gt;n81030972443</title>
<path fill="none" stroke="black" d="M1045.12,-183.423C1040.56,-193.594 1039.78,-206.808 1042.8,-218.01"/>
<polygon fill="black" stroke="black" points="1039.67,-219.605 1046.63,-227.588 1046.17,-217.004 1039.67,-219.605"/>
</g>
<!-- n6651677817&#45;&gt;n81030972443 -->
<g id="edge18" class="edge"><title>n6651677817&#45;&gt;n81030972443</title>
<path fill="none" stroke="black" d="M1056.17,-185.292C1054.49,-193.875 1054.08,-204.28 1054.93,-213.764"/>
<polygon fill="black" stroke="black" points="1051.5,-214.547 1056.42,-223.933 1058.43,-213.531 1051.5,-214.547"/>
</g>
<!-- n6651677817&#45;&gt;n81030972443 -->
<g id="edge20" class="edge"><title>n6651677817&#45;&gt;n81030972443</title>
<path fill="none" stroke="black" d="M1068,-185.673C1068,-193.736 1068,-203.352 1068,-212.289"/>
<polygon fill="black" stroke="black" points="1064.5,-212.333 1068,-222.333 1071.5,-212.333 1064.5,-212.333"/>
</g>
<!-- n6904405321 -->
<g id="node14" class="node"><title>n6904405321</title>
<ellipse fill="none" stroke="black" cx="225" cy="-19" rx="55.1543" ry="18.3848"/>
<text text-anchor="middle" x="225" y="-15.4" font-family="Times Roman,serif" font-size="14.00">enable_if</text>
</g>
<!-- n6904405321&#45;&gt;n137095912 -->
<g id="edge32" class="edge"><title>n6904405321&#45;&gt;n137095912</title>
<path fill="none" stroke="black" d="M194.39,-34.659C179.064,-44.0421 161.568,-57.3878 151,-74 138.76,-93.2401 134.201,-118.852 132.596,-138.327"/>
<polygon fill="black" stroke="black" points="129.094,-138.24 131.977,-148.435 136.081,-138.667 129.094,-138.24"/>
</g>
<!-- n61083115859 -->
<g id="node17" class="node"><title>n61083115859</title>
<ellipse fill="none" stroke="black" cx="225" cy="-93" rx="65.0538" ry="18.3848"/>
<text text-anchor="middle" x="225" y="-89.4" font-family="Times Roman,serif" font-size="14.00">enable_if_c</text>
</g>
<!-- n6904405321&#45;&gt;n61083115859 -->
<g id="edge34" class="edge"><title>n6904405321&#45;&gt;n61083115859</title>
<path fill="none" stroke="black" d="M225,-37.6733C225,-45.7361 225,-55.3523 225,-64.2885"/>
<polygon fill="black" stroke="black" points="221.5,-64.3326 225,-74.3326 228.5,-64.3327 221.5,-64.3326"/>
</g>
<!-- n62724002304 -->
<g id="node26" class="node"><title>n62724002304</title>
<ellipse fill="none" stroke="black" cx="372" cy="-93" rx="63.8479" ry="18.3848"/>
<text text-anchor="middle" x="372" y="-89.4" font-family="Times Roman,serif" font-size="14.00">is_function</text>
</g>
<!-- n6904405321&#45;&gt;n62724002304 -->
<g id="edge30" class="edge"><title>n6904405321&#45;&gt;n62724002304</title>
<path fill="none" stroke="black" d="M255.816,-34.5128C277.593,-45.4753 307.02,-60.2889 330.809,-72.2645"/>
<polygon fill="black" stroke="black" points="329.448,-75.4976 339.954,-76.8679 332.595,-69.2452 329.448,-75.4976"/>
</g>
<!-- n61013443111 -->
<g id="node15" class="node"><title>n61013443111</title>
<ellipse fill="none" stroke="black" cx="677" cy="-19" rx="55.1543" ry="18.3848"/>
<text text-anchor="middle" x="677" y="-15.4" font-family="Times Roman,serif" font-size="14.00">enable_if</text>
</g>
<!-- n61013443111&#45;&gt;n137143464 -->
<g id="edge38" class="edge"><title>n61013443111&#45;&gt;n137143464</title>
<path fill="none" stroke="black" d="M645.036,-34.1919C629.623,-43.372 612.639,-56.6753 604,-74 596.464,-89.1141 595.467,-97.4255 604,-112 612.368,-126.291 625.96,-137.152 640.394,-145.286"/>
<polygon fill="black" stroke="black" points="638.964,-148.488 649.45,-150.005 642.198,-142.28 638.964,-148.488"/>
</g>
<!-- n61030575691 -->
<g id="node16" class="node"><title>n61030575691</title>
<ellipse fill="none" stroke="black" cx="677" cy="-93" rx="63.8479" ry="18.3848"/>
<text text-anchor="middle" x="677" y="-89.4" font-family="Times Roman,serif" font-size="14.00">is_function</text>
</g>
<!-- n61013443111&#45;&gt;n61030575691 -->
<g id="edge36" class="edge"><title>n61013443111&#45;&gt;n61030575691</title>
<path fill="none" stroke="black" d="M677,-37.6733C677,-45.7361 677,-55.3523 677,-64.2885"/>
<polygon fill="black" stroke="black" points="673.5,-64.3326 677,-74.3326 680.5,-64.3327 673.5,-64.3326"/>
</g>
<!-- n61162576659 -->
<g id="node18" class="node"><title>n61162576659</title>
<ellipse fill="none" stroke="black" cx="824" cy="-93" rx="65.0538" ry="18.3848"/>
<text text-anchor="middle" x="824" y="-89.4" font-family="Times Roman,serif" font-size="14.00">enable_if_c</text>
</g>
<!-- n61013443111&#45;&gt;n61162576659 -->
<g id="edge40" class="edge"><title>n61013443111&#45;&gt;n61162576659</title>
<path fill="none" stroke="black" d="M707.816,-34.5128C729.593,-45.4753 759.02,-60.2889 782.809,-72.2645"/>
<polygon fill="black" stroke="black" points="781.448,-75.4976 791.954,-76.8679 784.595,-69.2452 781.448,-75.4976"/>
</g>
<!-- n61475379414 -->
<g id="node21" class="node"><title>n61475379414</title>
<ellipse fill="none" stroke="black" cx="455" cy="-167" rx="96.8736" ry="18.3848"/>
<text text-anchor="middle" x="455" y="-163.4" font-family="Times Roman,serif" font-size="14.00">integral_constant</text>
</g>
<!-- n61030575691&#45;&gt;n61475379414 -->
<g id="edge44" class="edge"><title>n61030575691&#45;&gt;n61475379414</title>
<path fill="none" stroke="black" d="M634.983,-107.006C600.596,-118.468 551.576,-134.808 513.375,-147.542"/>
<polygon fill="black" stroke="black" points="511.791,-144.38 503.411,-150.863 514.005,-151.021 511.791,-144.38"/>
</g>
<!-- n62718947150 -->
<g id="node25" class="node"><title>n62718947150</title>
<ellipse fill="none" stroke="black" cx="965" cy="-167" rx="36.977" ry="18.3848"/>
<text text-anchor="middle" x="965" y="-163.4" font-family="Times Roman,serif" font-size="14.00">bool_</text>
</g>
<!-- n61030575691&#45;&gt;n62718947150 -->
<g id="edge42" class="edge"><title>n61030575691&#45;&gt;n62718947150</title>
<path fill="none" stroke="black" d="M724.899,-105.497C733.264,-107.671 741.884,-109.906 750,-112 809.577,-127.373 878.491,-144.97 921.908,-156.033"/>
<polygon fill="black" stroke="black" points="921.286,-159.486 931.84,-158.563 923.014,-152.703 921.286,-159.486"/>
</g>
<!-- n61083115859&#45;&gt;n137095912 -->
<g id="edge48" class="edge"><title>n61083115859&#45;&gt;n137095912</title>
<path fill="none" stroke="black" d="M202.96,-110.537C191.039,-120.023 176.12,-131.894 163.041,-142.3"/>
<polygon fill="black" stroke="black" points="160.825,-139.591 155.179,-148.556 165.184,-145.069 160.825,-139.591"/>
</g>
<!-- n81773484321 -->
<g id="node33" class="node"><title>n81773484321</title>
<ellipse fill="none" stroke="black" cx="523" cy="-315" rx="29.9071" ry="18.3848"/>
<text text-anchor="middle" x="523" y="-311.4" font-family="Times Roman,serif" font-size="14.00">0x0</text>
</g>
<!-- n61083115859&#45;&gt;n81773484321 -->
<g id="edge46" class="edge"><title>n61083115859&#45;&gt;n81773484321</title>
<path fill="none" stroke="black" d="M242.172,-111.245C251.67,-121.68 263.447,-135.204 273,-148 308.257,-195.229 297.151,-224.24 344,-260 385.159,-291.416 444.388,-305.03 483.272,-310.833"/>
<polygon fill="black" stroke="black" points="482.795,-314.3 493.181,-312.208 483.757,-307.366 482.795,-314.3"/>
</g>
<!-- n61162576659&#45;&gt;n137143464 -->
<g id="edge52" class="edge"><title>n61162576659&#45;&gt;n137143464</title>
<path fill="none" stroke="black" d="M796.316,-109.792C779.883,-119.759 758.796,-132.55 740.73,-143.508"/>
<polygon fill="black" stroke="black" points="738.873,-140.541 732.138,-148.72 742.503,-146.526 738.873,-140.541"/>
</g>
<!-- n61162576659&#45;&gt;n81773484321 -->
<g id="edge50" class="edge"><title>n61162576659&#45;&gt;n81773484321</title>
<path fill="none" stroke="black" d="M834.217,-111.275C843.585,-130.628 854.407,-161.681 843,-186 821.155,-232.574 800.011,-236.992 754,-260 691.611,-291.198 610.781,-305.182 563.141,-311.079"/>
<polygon fill="black" stroke="black" points="562.446,-307.636 552.924,-312.282 563.265,-314.588 562.446,-307.636"/>
</g>
<!-- n61177002146 -->
<g id="node19" class="node"><title>n61177002146</title>
<ellipse fill="none" stroke="black" cx="1340" cy="-19" rx="50.9117" ry="18.3848"/>
<text text-anchor="middle" x="1340" y="-15.4" font-family="Times Roman,serif" font-size="14.00">has_key</text>
</g>
<!-- n61177002146&#45;&gt;n131100536 -->
<g id="edge56" class="edge"><title>n61177002146&#45;&gt;n131100536</title>
<path fill="none" stroke="black" d="M1323.27,-36.5587C1297.83,-63.2684 1249.37,-114.131 1221.07,-143.837"/>
<polygon fill="black" stroke="black" points="1218.36,-141.608 1213.99,-151.262 1223.43,-146.436 1218.36,-141.608"/>
</g>
<!-- n61177002146&#45;&gt;n6129461907 -->
<g id="edge54" class="edge"><title>n61177002146&#45;&gt;n6129461907</title>
<path fill="none" stroke="black" d="M1379.77,-30.787C1412.54,-40.9458 1459.97,-56.6787 1500,-74 1501.85,-74.7998 1503.73,-75.657 1505.62,-76.5489"/>
<polygon fill="black" stroke="black" points="1504.43,-79.8688 1514.95,-81.1927 1507.55,-73.6025 1504.43,-79.8688"/>
</g>
<!-- n61418953898 -->
<g id="node20" class="node"><title>n61418953898</title>
<ellipse fill="none" stroke="black" cx="1657" cy="-19" rx="50.9117" ry="18.3848"/>
<text text-anchor="middle" x="1657" y="-15.4" font-family="Times Roman,serif" font-size="14.00">has_key</text>
</g>
<!-- n61418953898&#45;&gt;n131100752 -->
<g id="edge60" class="edge"><title>n61418953898&#45;&gt;n131100752</title>
<path fill="none" stroke="black" d="M1673.73,-36.5587C1698.64,-62.7061 1745.6,-112 1774.12,-141.934"/>
<polygon fill="black" stroke="black" points="1771.86,-144.638 1781.29,-149.464 1776.93,-139.81 1771.86,-144.638"/>
</g>
<!-- n61418953898&#45;&gt;n6129461907 -->
<g id="edge58" class="edge"><title>n61418953898&#45;&gt;n6129461907</title>
<path fill="none" stroke="black" d="M1630.74,-35.0569C1611.34,-46.9265 1584.92,-63.0838 1564.91,-75.3214"/>
<polygon fill="black" stroke="black" points="1562.92,-72.4355 1556.21,-80.6388 1566.57,-78.4073 1562.92,-72.4355"/>
</g>
<!-- n61475379414&#45;&gt;n131100440 -->
<g id="edge62" class="edge"><title>n61475379414&#45;&gt;n131100440</title>
<path fill="none" stroke="black" d="M508.135,-182.603C554.755,-196.293 621.653,-215.938 664.719,-228.584"/>
<polygon fill="black" stroke="black" points="663.747,-231.946 674.328,-231.406 665.719,-225.23 663.747,-231.946"/>
</g>
<!-- n62762027104 -->
<g id="node27" class="node"><title>n62762027104</title>
<ellipse fill="none" stroke="black" cx="390" cy="-241" rx="36.977" ry="18.3848"/>
<text text-anchor="middle" x="390" y="-237.4" font-family="Times Roman,serif" font-size="14.00">bool_</text>
</g>
<!-- n61475379414&#45;&gt;n62762027104 -->
<g id="edge66" class="edge"><title>n61475379414&#45;&gt;n62762027104</title>
<path fill="none" stroke="black" d="M438.933,-185.292C430.745,-194.613 420.67,-206.084 411.794,-216.189"/>
<polygon fill="black" stroke="black" points="408.961,-214.11 404.991,-223.933 414.22,-218.73 408.961,-214.11"/>
</g>
<!-- n61475379414&#45;&gt;n81773484321 -->
<g id="edge64" class="edge"><title>n61475379414&#45;&gt;n81773484321</title>
<path fill="none" stroke="black" d="M455.965,-185.755C457.606,-205.231 462.037,-236.134 474,-260 479.999,-271.968 489.286,-283.346 498.168,-292.614"/>
<polygon fill="black" stroke="black" points="495.898,-295.293 505.453,-299.87 500.838,-290.333 495.898,-295.293"/>
</g>
<!-- n62193598465 -->
<g id="node22" class="node"><title>n62193598465</title>
<ellipse fill="none" stroke="black" cx="1208" cy="-19" rx="50.9117" ry="18.3848"/>
<text text-anchor="middle" x="1208" y="-15.4" font-family="Times Roman,serif" font-size="14.00">has_key</text>
</g>
<!-- n62193598465&#45;&gt;n131100536 -->
<g id="edge70" class="edge"><title>n62193598465&#45;&gt;n131100536</title>
<path fill="none" stroke="black" d="M1206.86,-37.7443C1205.32,-63.099 1202.55,-108.561 1200.75,-138.25"/>
<polygon fill="black" stroke="black" points="1197.24,-138.214 1200.13,-148.408 1204.23,-138.639 1197.24,-138.214"/>
</g>
<!-- n62420355208 -->
<g id="node23" class="node"><title>n62420355208</title>
<ellipse fill="none" stroke="black" cx="1464" cy="-93" rx="27" ry="18.3848"/>
<text text-anchor="middle" x="1464" y="-89.4" font-family="Times Roman,serif" font-size="14.00">set</text>
</g>
<!-- n62193598465&#45;&gt;n62420355208 -->
<g id="edge68" class="edge"><title>n62193598465&#45;&gt;n62420355208</title>
<path fill="none" stroke="black" d="M1248,-30.5625C1297.78,-44.9533 1381.99,-69.2948 1429.22,-82.9457"/>
<polygon fill="black" stroke="black" points="1428.41,-86.3552 1438.99,-85.7698 1430.35,-79.6305 1428.41,-86.3552"/>
</g>
<!-- n62420355208&#45;&gt;n131100464 -->
<g id="edge72" class="edge"><title>n62420355208&#45;&gt;n131100464</title>
<path fill="none" stroke="black" d="M1439.96,-101.599C1411.05,-112.059 1361.14,-130.494 1319,-148 1316.67,-148.967 1314.28,-149.984 1311.88,-151.023"/>
<polygon fill="black" stroke="black" points="1310.39,-147.853 1302.65,-155.089 1313.22,-154.258 1310.39,-147.853"/>
</g>
<!-- n62420355208&#45;&gt;n131100512 -->
<g id="edge74" class="edge"><title>n62420355208&#45;&gt;n131100512</title>
<path fill="none" stroke="black" d="M1445.38,-106.919C1430.88,-117.757 1410.49,-132.995 1393.88,-145.413"/>
<polygon fill="black" stroke="black" points="1391.5,-142.82 1385.59,-151.611 1395.69,-148.427 1391.5,-142.82"/>
</g>
<!-- n62420355208&#45;&gt;n131100536 -->
<g id="edge76" class="edge"><title>n62420355208&#45;&gt;n131100536</title>
<path fill="none" stroke="black" d="M1437.61,-97.1264C1394.33,-104.38 1305.97,-121.234 1235,-148 1233.12,-148.711 1231.2,-149.499 1229.3,-150.338"/>
<polygon fill="black" stroke="black" points="1227.41,-147.359 1219.91,-154.841 1230.44,-153.67 1227.41,-147.359"/>
</g>
<!-- n62420355208&#45;&gt;n132910936 -->
<g id="edge78" class="edge"><title>n62420355208&#45;&gt;n132910936</title>
<path fill="none" stroke="black" d="M1464.31,-111.673C1470.79,-121.086 1481.58,-132.616 1493.22,-142.71"/>
<polygon fill="black" stroke="black" points="1491.01,-145.428 1500.95,-149.098 1495.47,-140.031 1491.01,-145.428"/>
</g>
<!-- n62420355208&#45;&gt;n132910936 -->
<g id="edge80" class="edge"><title>n62420355208&#45;&gt;n132910936</title>
<path fill="none" stroke="black" d="M1474.9,-110.163C1483.02,-119.53 1494.26,-131.304 1504.95,-141.703"/>
<polygon fill="black" stroke="black" points="1502.56,-144.264 1512.21,-148.637 1507.39,-139.2 1502.56,-144.264"/>
</g>
<!-- n62420355208&#45;&gt;n132910936 -->
<g id="edge82" class="edge"><title>n62420355208&#45;&gt;n132910936</title>
<path fill="none" stroke="black" d="M1482.57,-106.573C1493.2,-116.133 1506.32,-129.238 1517,-140.801"/>
<polygon fill="black" stroke="black" points="1514.64,-143.412 1523.93,-148.497 1519.84,-138.725 1514.64,-143.412"/>
</g>
<!-- n62420355208&#45;&gt;n132910936 -->
<g id="edge84" class="edge"><title>n62420355208&#45;&gt;n132910936</title>
<path fill="none" stroke="black" d="M1487.61,-102.674C1502.18,-112.123 1518.39,-126.942 1529.29,-139.977"/>
<polygon fill="black" stroke="black" points="1526.74,-142.409 1535.61,-148.21 1532.3,-138.146 1526.74,-142.409"/>
</g>
<!-- n62460539238 -->
<g id="node24" class="node"><title>n62460539238</title>
<ellipse fill="none" stroke="black" cx="1530" cy="-19" rx="50.9117" ry="18.3848"/>
<text text-anchor="middle" x="1530" y="-15.4" font-family="Times Roman,serif" font-size="14.00">has_key</text>
</g>
<!-- n62460539238&#45;&gt;n131100752 -->
<g id="edge88" class="edge"><title>n62460539238&#45;&gt;n131100752</title>
<path fill="none" stroke="black" d="M1558.17,-34.5589C1607.21,-61.6395 1708.16,-117.389 1762.13,-147.189"/>
<polygon fill="black" stroke="black" points="1760.55,-150.319 1771,-152.09 1763.94,-144.192 1760.55,-150.319"/>
</g>
<!-- n62460539238&#45;&gt;n62420355208 -->
<g id="edge86" class="edge"><title>n62460539238&#45;&gt;n62420355208</title>
<path fill="none" stroke="black" d="M1514.02,-36.9133C1505.33,-46.6619 1494.46,-58.8447 1485.08,-69.3631"/>
<polygon fill="black" stroke="black" points="1482.3,-67.2217 1478.26,-77.0143 1487.53,-71.881 1482.3,-67.2217"/>
</g>
<!-- n62718947150&#45;&gt;n81030972443 -->
<g id="edge90" class="edge"><title>n62718947150&#45;&gt;n81030972443</title>
<path fill="none" stroke="black" d="M986.342,-182.333C1001.9,-193.508 1023.12,-208.756 1040.03,-220.905"/>
<polygon fill="black" stroke="black" points="1038.26,-223.946 1048.43,-226.938 1042.35,-218.261 1038.26,-223.946"/>
</g>
<!-- n62724002304&#45;&gt;n61475379414 -->
<g id="edge94" class="edge"><title>n62724002304&#45;&gt;n61475379414</title>
<path fill="none" stroke="black" d="M392.092,-110.913C402.539,-120.227 415.478,-131.764 426.9,-141.947"/>
<polygon fill="black" stroke="black" points="424.723,-144.695 434.516,-148.738 429.381,-139.47 424.723,-144.695"/>
</g>
<!-- n62724002304&#45;&gt;n62762027104 -->
<g id="edge92" class="edge"><title>n62724002304&#45;&gt;n62762027104</title>
<path fill="none" stroke="black" d="M361.366,-111.416C351.84,-130.353 340.569,-160.584 349,-186 352.675,-197.078 359.544,-207.734 366.624,-216.669"/>
<polygon fill="black" stroke="black" points="363.979,-218.961 373.1,-224.352 369.332,-214.45 363.979,-218.961"/>
</g>
<!-- n62762027104&#45;&gt;n81773484321 -->
<g id="edge96" class="edge"><title>n62762027104&#45;&gt;n81773484321</title>
<path fill="none" stroke="black" d="M415.016,-254.919C436.672,-266.968 468.101,-284.455 491.474,-297.459"/>
<polygon fill="black" stroke="black" points="489.873,-300.574 500.314,-302.377 493.277,-294.457 489.873,-300.574"/>
</g>
<!-- n63258183466 -->
<g id="node28" class="node"><title>n63258183466</title>
<ellipse fill="none" stroke="black" cx="1004" cy="-93" rx="96.8736" ry="18.3848"/>
<text text-anchor="middle" x="1004" y="-89.4" font-family="Times Roman,serif" font-size="14.00">integral_constant</text>
</g>
<!-- n63258183466&#45;&gt;n131100440 -->
<g id="edge98" class="edge"><title>n63258183466&#45;&gt;n131100440</title>
<path fill="none" stroke="black" d="M975.864,-110.865C944.233,-130.564 891.01,-162.568 843,-186 811.607,-201.322 774.815,-216.013 747.42,-226.352"/>
<polygon fill="black" stroke="black" points="745.92,-223.176 737.779,-229.957 748.372,-229.732 745.92,-223.176"/>
</g>
<!-- n63258183466&#45;&gt;n62718947150 -->
<g id="edge102" class="edge"><title>n63258183466&#45;&gt;n62718947150</title>
<path fill="none" stroke="black" d="M994.159,-111.673C989.623,-120.279 984.155,-130.655 979.185,-140.085"/>
<polygon fill="black" stroke="black" points="976.001,-138.62 974.435,-149.098 982.193,-141.884 976.001,-138.62"/>
</g>
<!-- n63258183466&#45;&gt;n81030972443 -->
<g id="edge100" class="edge"><title>n63258183466&#45;&gt;n81030972443</title>
<path fill="none" stroke="black" d="M1067.89,-106.922C1089.82,-115.086 1112.07,-127.92 1125,-148 1134.14,-162.2 1131.6,-170.455 1125,-186 1119.12,-199.852 1107.85,-211.912 1096.87,-221.18"/>
<polygon fill="black" stroke="black" points="1094.67,-218.462 1089.01,-227.422 1099.02,-223.943 1094.67,-218.462"/>
</g>
<!-- n63342879897 -->
<g id="node29" class="node"><title>n63342879897</title>
<ellipse fill="none" stroke="black" cx="2191" cy="-19" rx="120.208" ry="18.3848"/>
<text text-anchor="middle" x="2191" y="-15.4" font-family="Times Roman,serif" font-size="14.00">is_function_ptr_helper</text>
</g>
<!-- n63342879897&#45;&gt;n137155248 -->
<g id="edge104" class="edge"><title>n63342879897&#45;&gt;n137155248</title>
<path fill="none" stroke="black" d="M2191,-37.6733C2191,-45.7361 2191,-55.3523 2191,-64.2885"/>
<polygon fill="black" stroke="black" points="2187.5,-64.3326 2191,-74.3326 2194.5,-64.3327 2187.5,-64.3326"/>
</g>
<!-- n63773406905 -->
<g id="node30" class="node"><title>n63773406905</title>
<ellipse fill="none" stroke="black" cx="1913" cy="-19" rx="120.208" ry="18.3848"/>
<text text-anchor="middle" x="1913" y="-15.4" font-family="Times Roman,serif" font-size="14.00">is_function_ptr_helper</text>
</g>
<!-- n63773406905&#45;&gt;n137115728 -->
<g id="edge106" class="edge"><title>n63773406905&#45;&gt;n137115728</title>
<path fill="none" stroke="black" d="M1913,-37.6733C1913,-45.7361 1913,-55.3523 1913,-64.2885"/>
<polygon fill="black" stroke="black" points="1909.5,-64.3326 1913,-74.3326 1916.5,-64.3327 1909.5,-64.3326"/>
</g>
<!-- n64045814841 -->
<g id="node31" class="node"><title>n64045814841</title>
<ellipse fill="none" stroke="black" cx="523" cy="-241" rx="39.8075" ry="18.3848"/>
<text text-anchor="middle" x="523" y="-237.4" font-family="Times Roman,serif" font-size="14.00">ice_or</text>
</g>
<!-- n64045814841&#45;&gt;n81773484321 -->
<g id="edge108" class="edge"><title>n64045814841&#45;&gt;n81773484321</title>
<path fill="none" stroke="black" d="M492.311,-252.889C480.397,-265.458 479.334,-285.345 489.122,-299.219"/>
<polygon fill="black" stroke="black" points="486.71,-301.761 496.139,-306.592 491.781,-296.936 486.71,-301.761"/>
</g>
<!-- n64045814841&#45;&gt;n81773484321 -->
<g id="edge110" class="edge"><title>n64045814841&#45;&gt;n81773484321</title>
<path fill="none" stroke="black" d="M500.456,-256.693C495.547,-267.063 494.694,-280.818 497.897,-292.365"/>
<polygon fill="black" stroke="black" points="494.731,-293.87 501.755,-301.802 501.21,-291.221 494.731,-293.87"/>
</g>
<!-- n64045814841&#45;&gt;n81773484321 -->
<g id="edge112" class="edge"><title>n64045814841&#45;&gt;n81773484321</title>
<path fill="none" stroke="black" d="M511.244,-258.913C509.503,-267.583 509.066,-278.178 509.931,-287.816"/>
<polygon fill="black" stroke="black" points="506.475,-288.371 511.382,-297.761 513.402,-287.361 506.475,-288.371"/>
</g>
<!-- n64045814841&#45;&gt;n81773484321 -->
<g id="edge114" class="edge"><title>n64045814841&#45;&gt;n81773484321</title>
<path fill="none" stroke="black" d="M523,-259.673C523,-267.736 523,-277.352 523,-286.289"/>
<polygon fill="black" stroke="black" points="519.5,-286.333 523,-296.333 526.5,-286.333 519.5,-286.333"/>
</g>
<!-- n64045814841&#45;&gt;n81773484321 -->
<g id="edge116" class="edge"><title>n64045814841&#45;&gt;n81773484321</title>
<path fill="none" stroke="black" d="M534.756,-258.913C536.497,-267.583 536.934,-278.178 536.069,-287.816"/>
<polygon fill="black" stroke="black" points="532.598,-287.361 534.618,-297.761 539.525,-288.371 532.598,-287.361"/>
</g>
<!-- n64045814841&#45;&gt;n81773484321 -->
<g id="edge118" class="edge"><title>n64045814841&#45;&gt;n81773484321</title>
<path fill="none" stroke="black" d="M545.544,-256.693C550.453,-267.063 551.306,-280.818 548.103,-292.365"/>
<polygon fill="black" stroke="black" points="544.79,-291.221 544.245,-301.802 551.269,-293.87 544.79,-291.221"/>
</g>
<!-- n64045814841&#45;&gt;n81773484321 -->
<g id="edge120" class="edge"><title>n64045814841&#45;&gt;n81773484321</title>
<path fill="none" stroke="black" d="M553.689,-252.889C565.603,-265.458 566.666,-285.345 556.878,-299.219"/>
<polygon fill="black" stroke="black" points="554.219,-296.936 549.861,-306.592 559.29,-301.761 554.219,-296.936"/>
</g>
</g>
</svg>
