<?xml version="1.0" encoding="UTF-8" standalone="no"?>
<!DOCTYPE svg PUBLIC "-//W3C//DTD SVG 1.1//EN"
 "http://www.w3.org/Graphics/SVG/1.1/DTD/svg11.dtd">
<!-- Generated by graphviz version 2.26.3 (20100126.1600)
 -->
<!-- Title: _anonymous_0 Pages: 1 -->
<svg width="3129pt" height="342pt"
 viewBox="0.00 0.00 3129.00 342.00" xmlns="http://www.w3.org/2000/svg" xmlns:xlink="http://www.w3.org/1999/xlink">
<g id="graph1" class="graph" transform="scale(1 1) rotate(0) translate(4 338)">
<title>_anonymous_0</title>
<polygon fill="white" stroke="white" points="-4,5 -4,-338 3126,-338 3126,5 -4,5"/>
<!-- n127217544 -->
<g id="node1" class="node"><title>n127217544</title>
<ellipse fill="none" stroke="black" cx="833" cy="-241" rx="38.1838" ry="18.3848"/>
<text text-anchor="middle" x="833" y="-237.4" font-family="Times Roman,serif" font-size="14.00">_Bool</text>
</g>
<!-- n132935256 -->
<g id="node2" class="node"><title>n132935256</title>
<ellipse fill="none" stroke="black" cx="1952" cy="-167" rx="55.1543" ry="18.3848"/>
<text text-anchor="middle" x="1952" y="-163.4" font-family="Times Roman,serif" font-size="14.00">struct _0</text>
</g>
<!-- n132935768 -->
<g id="node3" class="node"><title>n132935768</title>
<ellipse fill="none" stroke="black" cx="2208" cy="-167" rx="55.1543" ry="18.3848"/>
<text text-anchor="middle" x="2208" y="-163.4" font-family="Times Roman,serif" font-size="14.00">struct _1</text>
</g>
<!-- n132936280 -->
<g id="node4" class="node"><title>n132936280</title>
<ellipse fill="none" stroke="black" cx="2720" cy="-167" rx="55.1543" ry="18.3848"/>
<text text-anchor="middle" x="2720" y="-163.4" font-family="Times Roman,serif" font-size="14.00">struct _2</text>
</g>
<!-- n132936792 -->
<g id="node5" class="node"><title>n132936792</title>
<ellipse fill="none" stroke="black" cx="2336" cy="-167" rx="55.1543" ry="18.3848"/>
<text text-anchor="middle" x="2336" y="-163.4" font-family="Times Roman,serif" font-size="14.00">struct _3</text>
</g>
<!-- n132942904 -->
<g id="node6" class="node"><title>n132942904</title>
<ellipse fill="none" stroke="black" cx="2464" cy="-167" rx="55.1543" ry="18.3848"/>
<text text-anchor="middle" x="2464" y="-163.4" font-family="Times Roman,serif" font-size="14.00">struct _4</text>
</g>
<!-- n132943416 -->
<g id="node7" class="node"><title>n132943416</title>
<ellipse fill="none" stroke="black" cx="2592" cy="-167" rx="55.1543" ry="18.3848"/>
<text text-anchor="middle" x="2592" y="-163.4" font-family="Times Roman,serif" font-size="14.00">struct _5</text>
</g>
<!-- n132943928 -->
<g id="node8" class="node"><title>n132943928</title>
<ellipse fill="none" stroke="black" cx="2080" cy="-167" rx="55.1543" ry="18.3848"/>
<text text-anchor="middle" x="2080" y="-163.4" font-family="Times Roman,serif" font-size="14.00">struct _6</text>
</g>
<!-- n132944440 -->
<g id="node9" class="node"><title>n132944440</title>
<ellipse fill="none" stroke="black" cx="1906" cy="-241" rx="53.9477" ry="18.3848"/>
<text text-anchor="middle" x="1906" y="-237.4" font-family="Times Roman,serif" font-size="14.00">struct _a</text>
</g>
<!-- n132944952 -->
<g id="node10" class="node"><title>n132944952</title>
<ellipse fill="none" stroke="black" cx="1404" cy="-241" rx="53.9477" ry="18.3848"/>
<text text-anchor="middle" x="1404" y="-237.4" font-family="Times Roman,serif" font-size="14.00">struct _b</text>
</g>
<!-- n132945464 -->
<g id="node11" class="node"><title>n132945464</title>
<ellipse fill="none" stroke="black" cx="1529" cy="-241" rx="53.2379" ry="18.3848"/>
<text text-anchor="middle" x="1529" y="-237.4" font-family="Times Roman,serif" font-size="14.00">struct _c</text>
</g>
<!-- n132945976 -->
<g id="node12" class="node"><title>n132945976</title>
<ellipse fill="none" stroke="black" cx="1278" cy="-241" rx="53.9477" ry="18.3848"/>
<text text-anchor="middle" x="1278" y="-237.4" font-family="Times Roman,serif" font-size="14.00">struct _d</text>
</g>
<!-- n132946488 -->
<g id="node13" class="node"><title>n132946488</title>
<ellipse fill="none" stroke="black" cx="1654" cy="-241" rx="53.9477" ry="18.3848"/>
<text text-anchor="middle" x="1654" y="-237.4" font-family="Times Roman,serif" font-size="14.00">struct _e</text>
</g>
<!-- n132947000 -->
<g id="node14" class="node"><title>n132947000</title>
<ellipse fill="none" stroke="black" cx="2030" cy="-241" rx="51.8276" ry="18.3848"/>
<text text-anchor="middle" x="2030" y="-237.4" font-family="Times Roman,serif" font-size="14.00">struct _f</text>
</g>
<!-- n132947512 -->
<g id="node15" class="node"><title>n132947512</title>
<ellipse fill="none" stroke="black" cx="1780" cy="-241" rx="53.9477" ry="18.3848"/>
<text text-anchor="middle" x="1780" y="-237.4" font-family="Times Roman,serif" font-size="14.00">struct _g</text>
</g>
<!-- n132971512 -->
<g id="node16" class="node"><title>n132971512</title>
<ellipse fill="none" stroke="black" cx="800" cy="-167" rx="132.229" ry="18.3848"/>
<text text-anchor="middle" x="800" y="-163.4" font-family="Times Roman,serif" font-size="14.00">struct mpl_::bool_&lt;1&gt; &amp;</text>
</g>
<!-- n132988208 -->
<g id="node17" class="node"><title>n132988208</title>
<ellipse fill="none" stroke="black" cx="2713" cy="-93" rx="130.108" ry="18.3848"/>
<text text-anchor="middle" x="2713" y="-89.4" font-family="Times Roman,serif" font-size="14.00">struct mpl_::bool_&lt;1&gt; *</text>
</g>
<!-- n133028936 -->
<g id="node18" class="node"><title>n133028936</title>
<ellipse fill="none" stroke="black" cx="132" cy="-167" rx="132.229" ry="18.3848"/>
<text text-anchor="middle" x="132" y="-163.4" font-family="Times Roman,serif" font-size="14.00">struct mpl_::bool_&lt;0&gt; &amp;</text>
</g>
<!-- n133044912 -->
<g id="node19" class="node"><title>n133044912</title>
<ellipse fill="none" stroke="black" cx="2991" cy="-93" rx="130.108" ry="18.3848"/>
<text text-anchor="middle" x="2991" y="-89.4" font-family="Times Roman,serif" font-size="14.00">struct mpl_::bool_&lt;0&gt; *</text>
</g>
<!-- n648943158 -->
<g id="node20" class="node"><title>n648943158</title>
<ellipse fill="none" stroke="black" cx="2430" cy="-19" rx="50.9117" ry="18.3848"/>
<text text-anchor="middle" x="2430" y="-15.4" font-family="Times Roman,serif" font-size="14.00">has_key</text>
</g>
<!-- n648943158&#45;&gt;n132936280 -->
<g id="edge4" class="edge"><title>n648943158&#45;&gt;n132936280</title>
<path fill="none" stroke="black" d="M2452.54,-35.7253C2480.14,-55.6898 2528.82,-89.2291 2574,-112 2604.83,-127.54 2641.16,-141.241 2669.86,-151.081"/>
<polygon fill="black" stroke="black" points="2669.08,-154.512 2679.68,-154.397 2671.32,-147.88 2669.08,-154.512"/>
</g>
<!-- n62830950621 -->
<g id="node33" class="node"><title>n62830950621</title>
<ellipse fill="none" stroke="black" cx="2336" cy="-93" rx="27" ry="18.3848"/>
<text text-anchor="middle" x="2336" y="-89.4" font-family="Times Roman,serif" font-size="14.00">set</text>
</g>
<!-- n648943158&#45;&gt;n62830950621 -->
<g id="edge2" class="edge"><title>n648943158&#45;&gt;n62830950621</title>
<path fill="none" stroke="black" d="M2408.2,-36.1631C2394.42,-47.0132 2376.53,-61.0945 2362.01,-72.5266"/>
<polygon fill="black" stroke="black" points="2359.59,-69.9713 2353.9,-78.907 2363.92,-75.4714 2359.59,-69.9713"/>
</g>
<!-- n6280279382 -->
<g id="node21" class="node"><title>n6280279382</title>
<ellipse fill="none" stroke="black" cx="883" cy="-93" rx="63.8479" ry="18.3848"/>
<text text-anchor="middle" x="883" y="-89.4" font-family="Times Roman,serif" font-size="14.00">is_function</text>
</g>
<!-- n62151100714 -->
<g id="node28" class="node"><title>n62151100714</title>
<ellipse fill="none" stroke="black" cx="553" cy="-167" rx="96.8736" ry="18.3848"/>
<text text-anchor="middle" x="553" y="-163.4" font-family="Times Roman,serif" font-size="14.00">integral_constant</text>
</g>
<!-- n6280279382&#45;&gt;n62151100714 -->
<g id="edge8" class="edge"><title>n6280279382&#45;&gt;n62151100714</title>
<path fill="none" stroke="black" d="M832.161,-104.4C776.986,-116.773 688.408,-136.636 625.848,-150.664"/>
<polygon fill="black" stroke="black" points="625.031,-147.26 616.04,-152.864 626.563,-154.091 625.031,-147.26"/>
</g>
<!-- n62680404250 -->
<g id="node32" class="node"><title>n62680404250</title>
<ellipse fill="none" stroke="black" cx="987" cy="-167" rx="36.977" ry="18.3848"/>
<text text-anchor="middle" x="987" y="-163.4" font-family="Times Roman,serif" font-size="14.00">bool_</text>
</g>
<!-- n6280279382&#45;&gt;n62680404250 -->
<g id="edge6" class="edge"><title>n6280279382&#45;&gt;n62680404250</title>
<path fill="none" stroke="black" d="M907.121,-110.163C922.006,-120.754 941.218,-134.425 957.07,-145.704"/>
<polygon fill="black" stroke="black" points="955.306,-148.744 965.483,-151.69 959.364,-143.04 955.306,-148.744"/>
</g>
<!-- n6422553728 -->
<g id="node22" class="node"><title>n6422553728</title>
<ellipse fill="none" stroke="black" cx="1497" cy="-93" rx="50.9117" ry="18.3848"/>
<text text-anchor="middle" x="1497" y="-89.4" font-family="Times Roman,serif" font-size="14.00">has_key</text>
</g>
<!-- n6422553728&#45;&gt;n132945976 -->
<g id="edge12" class="edge"><title>n6422553728&#45;&gt;n132945976</title>
<path fill="none" stroke="black" d="M1472.73,-109.404C1433.37,-136.004 1355.55,-188.588 1311.14,-218.607"/>
<polygon fill="black" stroke="black" points="1309.04,-215.796 1302.72,-224.296 1312.96,-221.596 1309.04,-215.796"/>
</g>
<!-- n63455941071 -->
<g id="node38" class="node"><title>n63455941071</title>
<ellipse fill="none" stroke="black" cx="1654" cy="-167" rx="27" ry="18.3848"/>
<text text-anchor="middle" x="1654" y="-163.4" font-family="Times Roman,serif" font-size="14.00">set</text>
</g>
<!-- n6422553728&#45;&gt;n63455941071 -->
<g id="edge10" class="edge"><title>n6422553728&#45;&gt;n63455941071</title>
<path fill="none" stroke="black" d="M1528.39,-107.797C1555.61,-120.625 1594.81,-139.103 1622.16,-151.993"/>
<polygon fill="black" stroke="black" points="1620.76,-155.203 1631.3,-156.3 1623.75,-148.871 1620.76,-155.203"/>
</g>
<!-- n61310464312 -->
<g id="node23" class="node"><title>n61310464312</title>
<ellipse fill="none" stroke="black" cx="1128" cy="-167" rx="48.0833" ry="18.3848"/>
<text text-anchor="middle" x="1128" y="-163.4" font-family="Times Roman,serif" font-size="14.00">ice_and</text>
</g>
<!-- n81030972443 -->
<g id="node40" class="node"><title>n81030972443</title>
<ellipse fill="none" stroke="black" cx="1128" cy="-241" rx="29.9071" ry="18.3848"/>
<text text-anchor="middle" x="1128" y="-237.4" font-family="Times Roman,serif" font-size="14.00">0x1</text>
</g>
<!-- n61310464312&#45;&gt;n81030972443 -->
<g id="edge22" class="edge"><title>n61310464312&#45;&gt;n81030972443</title>
<path fill="none" stroke="black" d="M1095.53,-180.919C1085.36,-193.47 1084.85,-211.921 1094.01,-225.059"/>
<polygon fill="black" stroke="black" points="1091.56,-227.566 1100.96,-232.454 1096.66,-222.771 1091.56,-227.566"/>
</g>
<!-- n61310464312&#45;&gt;n81030972443 -->
<g id="edge24" class="edge"><title>n61310464312&#45;&gt;n81030972443</title>
<path fill="none" stroke="black" d="M1150.88,-183.423C1155.44,-193.594 1156.22,-206.808 1153.2,-218.01"/>
<polygon fill="black" stroke="black" points="1149.83,-217.004 1149.37,-227.588 1156.33,-219.605 1149.83,-217.004"/>
</g>
<!-- n61310464312&#45;&gt;n81030972443 -->
<g id="edge26" class="edge"><title>n61310464312&#45;&gt;n81030972443</title>
<path fill="none" stroke="black" d="M1160.47,-180.919C1170.64,-193.47 1171.15,-211.921 1161.99,-225.059"/>
<polygon fill="black" stroke="black" points="1159.34,-222.771 1155.04,-232.454 1164.44,-227.566 1159.34,-222.771"/>
</g>
<!-- n61310464312&#45;&gt;n81030972443 -->
<g id="edge14" class="edge"><title>n61310464312&#45;&gt;n81030972443</title>
<path fill="none" stroke="black" d="M1105.12,-183.423C1100.56,-193.594 1099.78,-206.808 1102.8,-218.01"/>
<polygon fill="black" stroke="black" points="1099.67,-219.605 1106.63,-227.588 1106.17,-217.004 1099.67,-219.605"/>
</g>
<!-- n61310464312&#45;&gt;n81030972443 -->
<g id="edge16" class="edge"><title>n61310464312&#45;&gt;n81030972443</title>
<path fill="none" stroke="black" d="M1116.17,-185.292C1114.49,-193.875 1114.08,-204.28 1114.93,-213.764"/>
<polygon fill="black" stroke="black" points="1111.5,-214.547 1116.42,-223.933 1118.43,-213.531 1111.5,-214.547"/>
</g>
<!-- n61310464312&#45;&gt;n81030972443 -->
<g id="edge18" class="edge"><title>n61310464312&#45;&gt;n81030972443</title>
<path fill="none" stroke="black" d="M1128,-185.673C1128,-193.736 1128,-203.352 1128,-212.289"/>
<polygon fill="black" stroke="black" points="1124.5,-212.333 1128,-222.333 1131.5,-212.333 1124.5,-212.333"/>
</g>
<!-- n61310464312&#45;&gt;n81030972443 -->
<g id="edge20" class="edge"><title>n61310464312&#45;&gt;n81030972443</title>
<path fill="none" stroke="black" d="M1139.83,-185.292C1141.51,-193.875 1141.92,-204.28 1141.07,-213.764"/>
<polygon fill="black" stroke="black" points="1137.57,-213.531 1139.58,-223.933 1144.5,-214.547 1137.57,-213.531"/>
</g>
<!-- n61401920576 -->
<g id="node24" class="node"><title>n61401920576</title>
<ellipse fill="none" stroke="black" cx="239" cy="-93" rx="65.0538" ry="18.3848"/>
<text text-anchor="middle" x="239" y="-89.4" font-family="Times Roman,serif" font-size="14.00">enable_if_c</text>
</g>
<!-- n61401920576&#45;&gt;n133028936 -->
<g id="edge30" class="edge"><title>n61401920576&#45;&gt;n133028936</title>
<path fill="none" stroke="black" d="M214.183,-110.163C200.119,-119.89 182.3,-132.213 166.852,-142.897"/>
<polygon fill="black" stroke="black" points="164.786,-140.07 158.553,-148.637 168.768,-145.827 164.786,-140.07"/>
</g>
<!-- n81773484321 -->
<g id="node41" class="node"><title>n81773484321</title>
<ellipse fill="none" stroke="black" cx="360" cy="-315" rx="29.9071" ry="18.3848"/>
<text text-anchor="middle" x="360" y="-311.4" font-family="Times Roman,serif" font-size="14.00">0x0</text>
</g>
<!-- n61401920576&#45;&gt;n81773484321 -->
<g id="edge28" class="edge"><title>n61401920576&#45;&gt;n81773484321</title>
<path fill="none" stroke="black" d="M251.734,-111.246C258.64,-121.681 266.97,-135.205 273,-148 295.408,-195.549 284.543,-214.579 311,-260 317.738,-271.568 327.16,-282.873 335.943,-292.195"/>
<polygon fill="black" stroke="black" points="333.607,-294.812 343.098,-299.521 338.615,-289.921 333.607,-294.812"/>
</g>
<!-- n61532655761 -->
<g id="node25" class="node"><title>n61532655761</title>
<ellipse fill="none" stroke="black" cx="360" cy="-241" rx="39.8075" ry="18.3848"/>
<text text-anchor="middle" x="360" y="-237.4" font-family="Times Roman,serif" font-size="14.00">ice_or</text>
</g>
<!-- n61532655761&#45;&gt;n81773484321 -->
<g id="edge32" class="edge"><title>n61532655761&#45;&gt;n81773484321</title>
<path fill="none" stroke="black" d="M329.311,-252.889C317.397,-265.458 316.334,-285.345 326.122,-299.219"/>
<polygon fill="black" stroke="black" points="323.71,-301.761 333.139,-306.592 328.781,-296.936 323.71,-301.761"/>
</g>
<!-- n61532655761&#45;&gt;n81773484321 -->
<g id="edge34" class="edge"><title>n61532655761&#45;&gt;n81773484321</title>
<path fill="none" stroke="black" d="M337.456,-256.693C332.547,-267.063 331.694,-280.818 334.897,-292.365"/>
<polygon fill="black" stroke="black" points="331.731,-293.87 338.755,-301.802 338.21,-291.221 331.731,-293.87"/>
</g>
<!-- n61532655761&#45;&gt;n81773484321 -->
<g id="edge36" class="edge"><title>n61532655761&#45;&gt;n81773484321</title>
<path fill="none" stroke="black" d="M348.244,-258.913C346.503,-267.583 346.066,-278.178 346.931,-287.816"/>
<polygon fill="black" stroke="black" points="343.475,-288.371 348.382,-297.761 350.402,-287.361 343.475,-288.371"/>
</g>
<!-- n61532655761&#45;&gt;n81773484321 -->
<g id="edge38" class="edge"><title>n61532655761&#45;&gt;n81773484321</title>
<path fill="none" stroke="black" d="M360,-259.673C360,-267.736 360,-277.352 360,-286.289"/>
<polygon fill="black" stroke="black" points="356.5,-286.333 360,-296.333 363.5,-286.333 356.5,-286.333"/>
</g>
<!-- n61532655761&#45;&gt;n81773484321 -->
<g id="edge40" class="edge"><title>n61532655761&#45;&gt;n81773484321</title>
<path fill="none" stroke="black" d="M371.756,-258.913C373.497,-267.583 373.934,-278.178 373.069,-287.816"/>
<polygon fill="black" stroke="black" points="369.598,-287.361 371.618,-297.761 376.525,-288.371 369.598,-287.361"/>
</g>
<!-- n61532655761&#45;&gt;n81773484321 -->
<g id="edge42" class="edge"><title>n61532655761&#45;&gt;n81773484321</title>
<path fill="none" stroke="black" d="M382.544,-256.693C387.453,-267.063 388.306,-280.818 385.103,-292.365"/>
<polygon fill="black" stroke="black" points="381.79,-291.221 381.245,-301.802 388.269,-293.87 381.79,-291.221"/>
</g>
<!-- n61532655761&#45;&gt;n81773484321 -->
<g id="edge44" class="edge"><title>n61532655761&#45;&gt;n81773484321</title>
<path fill="none" stroke="black" d="M390.689,-252.889C402.603,-265.458 403.666,-285.345 393.878,-299.219"/>
<polygon fill="black" stroke="black" points="391.219,-296.936 386.861,-306.592 396.29,-301.761 391.219,-296.936"/>
</g>
<!-- n61619765199 -->
<g id="node26" class="node"><title>n61619765199</title>
<ellipse fill="none" stroke="black" cx="698" cy="-93" rx="65.0538" ry="18.3848"/>
<text text-anchor="middle" x="698" y="-89.4" font-family="Times Roman,serif" font-size="14.00">enable_if_c</text>
</g>
<!-- n61619765199&#45;&gt;n132971512 -->
<g id="edge48" class="edge"><title>n61619765199&#45;&gt;n132971512</title>
<path fill="none" stroke="black" d="M721.914,-110.35C735.205,-119.992 751.952,-132.141 766.525,-142.714"/>
<polygon fill="black" stroke="black" points="764.663,-145.687 774.812,-148.726 768.773,-140.021 764.663,-145.687"/>
</g>
<!-- n61619765199&#45;&gt;n81773484321 -->
<g id="edge46" class="edge"><title>n61619765199&#45;&gt;n81773484321</title>
<path fill="none" stroke="black" d="M636.978,-99.4612C571.943,-107.518 474.598,-123.316 447,-148 407.82,-183.042 435.457,-214.579 409,-260 402.262,-271.568 392.84,-282.873 384.057,-292.195"/>
<polygon fill="black" stroke="black" points="381.385,-289.921 376.902,-299.521 386.393,-294.812 381.385,-289.921"/>
</g>
<!-- n62029914388 -->
<g id="node27" class="node"><title>n62029914388</title>
<ellipse fill="none" stroke="black" cx="1950" cy="-93" rx="50.9117" ry="18.3848"/>
<text text-anchor="middle" x="1950" y="-89.4" font-family="Times Roman,serif" font-size="14.00">has_key</text>
</g>
<!-- n62029914388&#45;&gt;n132935256 -->
<g id="edge52" class="edge"><title>n62029914388&#45;&gt;n132935256</title>
<path fill="none" stroke="black" d="M1950.5,-111.673C1950.72,-119.736 1950.98,-129.352 1951.22,-138.289"/>
<polygon fill="black" stroke="black" points="1947.73,-138.431 1951.5,-148.333 1954.72,-138.242 1947.73,-138.431"/>
</g>
<!-- n62029914388&#45;&gt;n63455941071 -->
<g id="edge50" class="edge"><title>n62029914388&#45;&gt;n63455941071</title>
<path fill="none" stroke="black" d="M1907.9,-103.524C1849.28,-118.181 1744.08,-144.479 1689.32,-158.171"/>
<polygon fill="black" stroke="black" points="1688.24,-154.833 1679.38,-160.654 1689.93,-161.624 1688.24,-154.833"/>
</g>
<!-- n62151100714&#45;&gt;n127217544 -->
<g id="edge54" class="edge"><title>n62151100714&#45;&gt;n127217544</title>
<path fill="none" stroke="black" d="M610,-182.064C663.143,-196.109 741.26,-216.754 789.534,-229.513"/>
<polygon fill="black" stroke="black" points="788.8,-232.939 799.362,-232.11 790.589,-226.171 788.8,-232.939"/>
</g>
<!-- n64151904311 -->
<g id="node39" class="node"><title>n64151904311</title>
<ellipse fill="none" stroke="black" cx="493" cy="-241" rx="36.977" ry="18.3848"/>
<text text-anchor="middle" x="493" y="-237.4" font-family="Times Roman,serif" font-size="14.00">bool_</text>
</g>
<!-- n62151100714&#45;&gt;n64151904311 -->
<g id="edge58" class="edge"><title>n62151100714&#45;&gt;n64151904311</title>
<path fill="none" stroke="black" d="M538.169,-185.292C530.74,-194.454 521.628,-205.693 513.538,-215.67"/>
<polygon fill="black" stroke="black" points="510.622,-213.709 507.042,-223.681 516.059,-218.118 510.622,-213.709"/>
</g>
<!-- n62151100714&#45;&gt;n81773484321 -->
<g id="edge56" class="edge"><title>n62151100714&#45;&gt;n81773484321</title>
<path fill="none" stroke="black" d="M555.584,-185.787C557.324,-206.457 556.689,-239.464 539,-260 520.716,-281.227 445.915,-298.802 398.986,-308.02"/>
<polygon fill="black" stroke="black" points="398.299,-304.588 389.14,-309.913 399.621,-311.462 398.299,-304.588"/>
</g>
<!-- n62178474651 -->
<g id="node29" class="node"><title>n62178474651</title>
<ellipse fill="none" stroke="black" cx="2713" cy="-19" rx="120.208" ry="18.3848"/>
<text text-anchor="middle" x="2713" y="-15.4" font-family="Times Roman,serif" font-size="14.00">is_function_ptr_helper</text>
</g>
<!-- n62178474651&#45;&gt;n132988208 -->
<g id="edge60" class="edge"><title>n62178474651&#45;&gt;n132988208</title>
<path fill="none" stroke="black" d="M2713,-37.6733C2713,-45.7361 2713,-55.3523 2713,-64.2885"/>
<polygon fill="black" stroke="black" points="2709.5,-64.3326 2713,-74.3326 2716.5,-64.3327 2709.5,-64.3326"/>
</g>
<!-- n62379729312 -->
<g id="node30" class="node"><title>n62379729312</title>
<ellipse fill="none" stroke="black" cx="2042" cy="-19" rx="50.9117" ry="18.3848"/>
<text text-anchor="middle" x="2042" y="-15.4" font-family="Times Roman,serif" font-size="14.00">has_key</text>
</g>
<!-- n62379729312&#45;&gt;n132947000 -->
<g id="edge64" class="edge"><title>n62379729312&#45;&gt;n132947000</title>
<path fill="none" stroke="black" d="M1998.69,-28.9141C1958.53,-39.0755 1903.06,-55.9113 1890,-74 1860.86,-114.365 1859.86,-144.928 1888,-186 1893.68,-194.294 1942.74,-212.149 1981.63,-225.276"/>
<polygon fill="black" stroke="black" points="1980.67,-228.645 1991.26,-228.502 1982.89,-222.008 1980.67,-228.645"/>
</g>
<!-- n62379729312&#45;&gt;n62830950621 -->
<g id="edge62" class="edge"><title>n62379729312&#45;&gt;n62830950621</title>
<path fill="none" stroke="black" d="M2084.12,-29.6024C2142.3,-44.2447 2246.19,-70.3958 2300.59,-84.0862"/>
<polygon fill="black" stroke="black" points="2299.91,-87.5247 2310.46,-86.5715 2301.62,-80.7364 2299.91,-87.5247"/>
</g>
<!-- n62410445800 -->
<g id="node31" class="node"><title>n62410445800</title>
<ellipse fill="none" stroke="black" cx="2991" cy="-19" rx="120.208" ry="18.3848"/>
<text text-anchor="middle" x="2991" y="-15.4" font-family="Times Roman,serif" font-size="14.00">is_function_ptr_helper</text>
</g>
<!-- n62410445800&#45;&gt;n133044912 -->
<g id="edge66" class="edge"><title>n62410445800&#45;&gt;n133044912</title>
<path fill="none" stroke="black" d="M2991,-37.6733C2991,-45.7361 2991,-55.3523 2991,-64.2885"/>
<polygon fill="black" stroke="black" points="2987.5,-64.3326 2991,-74.3326 2994.5,-64.3327 2987.5,-64.3326"/>
</g>
<!-- n62680404250&#45;&gt;n81030972443 -->
<g id="edge68" class="edge"><title>n62680404250&#45;&gt;n81030972443</title>
<path fill="none" stroke="black" d="M1012.53,-180.401C1035.9,-192.662 1070.57,-210.858 1095.82,-224.11"/>
<polygon fill="black" stroke="black" points="1094.51,-227.376 1104.99,-228.924 1097.76,-221.178 1094.51,-227.376"/>
</g>
<!-- n62830950621&#45;&gt;n132935256 -->
<g id="edge70" class="edge"><title>n62830950621&#45;&gt;n132935256</title>
<path fill="none" stroke="black" d="M2309.24,-96.5073C2254.01,-103.983 2123.59,-122.876 2016,-148 2011.38,-149.08 2006.59,-150.301 2001.82,-151.59"/>
<polygon fill="black" stroke="black" points="2000.78,-148.246 1992.09,-154.308 2002.66,-154.988 2000.78,-148.246"/>
</g>
<!-- n62830950621&#45;&gt;n132935768 -->
<g id="edge72" class="edge"><title>n62830950621&#45;&gt;n132935768</title>
<path fill="none" stroke="black" d="M2315.15,-105.054C2296.14,-116.045 2267.62,-132.534 2244.78,-145.737"/>
<polygon fill="black" stroke="black" points="2242.93,-142.765 2236.02,-150.8 2246.43,-148.825 2242.93,-142.765"/>
</g>
<!-- n62830950621&#45;&gt;n132936280 -->
<g id="edge74" class="edge"><title>n62830950621&#45;&gt;n132936280</title>
<path fill="none" stroke="black" d="M2362.76,-96.5073C2417.99,-103.983 2548.41,-122.876 2656,-148 2660.62,-149.08 2665.41,-150.301 2670.18,-151.59"/>
<polygon fill="black" stroke="black" points="2669.34,-154.988 2679.91,-154.308 2671.22,-148.246 2669.34,-154.988"/>
</g>
<!-- n62830950621&#45;&gt;n132936792 -->
<g id="edge76" class="edge"><title>n62830950621&#45;&gt;n132936792</title>
<path fill="none" stroke="black" d="M2336,-111.673C2336,-119.736 2336,-129.352 2336,-138.289"/>
<polygon fill="black" stroke="black" points="2332.5,-138.333 2336,-148.333 2339.5,-138.333 2332.5,-138.333"/>
</g>
<!-- n62830950621&#45;&gt;n132942904 -->
<g id="edge78" class="edge"><title>n62830950621&#45;&gt;n132942904</title>
<path fill="none" stroke="black" d="M2356.85,-105.054C2375.86,-116.045 2404.38,-132.534 2427.22,-145.737"/>
<polygon fill="black" stroke="black" points="2425.57,-148.825 2435.98,-150.8 2429.07,-142.765 2425.57,-148.825"/>
</g>
<!-- n62830950621&#45;&gt;n132943416 -->
<g id="edge80" class="edge"><title>n62830950621&#45;&gt;n132943416</title>
<path fill="none" stroke="black" d="M2361.18,-100.13C2397.89,-110.544 2468.25,-130.573 2528,-148 2532.25,-149.238 2536.65,-150.529 2541.06,-151.83"/>
<polygon fill="black" stroke="black" points="2540.12,-155.201 2550.7,-154.677 2542.1,-148.488 2540.12,-155.201"/>
</g>
<!-- n62830950621&#45;&gt;n132943928 -->
<g id="edge82" class="edge"><title>n62830950621&#45;&gt;n132943928</title>
<path fill="none" stroke="black" d="M2310.82,-100.13C2274.11,-110.544 2203.75,-130.573 2144,-148 2139.75,-149.238 2135.35,-150.529 2130.94,-151.83"/>
<polygon fill="black" stroke="black" points="2129.9,-148.488 2121.3,-154.677 2131.88,-155.201 2129.9,-148.488"/>
</g>
<!-- n62894750117 -->
<g id="node34" class="node"><title>n62894750117</title>
<ellipse fill="none" stroke="black" cx="390" cy="-93" rx="63.8479" ry="18.3848"/>
<text text-anchor="middle" x="390" y="-89.4" font-family="Times Roman,serif" font-size="14.00">is_function</text>
</g>
<!-- n62894750117&#45;&gt;n62151100714 -->
<g id="edge86" class="edge"><title>n62894750117&#45;&gt;n62151100714</title>
<path fill="none" stroke="black" d="M424.568,-108.693C448.289,-119.462 480.055,-133.884 506.06,-145.69"/>
<polygon fill="black" stroke="black" points="504.803,-148.963 515.355,-149.91 507.696,-142.589 504.803,-148.963"/>
</g>
<!-- n62894750117&#45;&gt;n64151904311 -->
<g id="edge84" class="edge"><title>n62894750117&#45;&gt;n64151904311</title>
<path fill="none" stroke="black" d="M400.17,-111.332C411.026,-130.464 429.095,-161.089 447,-186 454.305,-196.163 462.967,-206.828 470.795,-216.031"/>
<polygon fill="black" stroke="black" points="468.222,-218.407 477.403,-223.694 473.523,-213.835 468.222,-218.407"/>
</g>
<!-- n62951371739 -->
<g id="node35" class="node"><title>n62951371739</title>
<ellipse fill="none" stroke="black" cx="1062" cy="-93" rx="96.8736" ry="18.3848"/>
<text text-anchor="middle" x="1062" y="-89.4" font-family="Times Roman,serif" font-size="14.00">integral_constant</text>
</g>
<!-- n62951371739&#45;&gt;n127217544 -->
<g id="edge88" class="edge"><title>n62951371739&#45;&gt;n127217544</title>
<path fill="none" stroke="black" d="M1061.29,-111.788C1059.46,-132.775 1053.31,-166.37 1033,-186 1011.15,-207.118 931.205,-224.293 879.247,-233.548"/>
<polygon fill="black" stroke="black" points="878.503,-230.124 869.254,-235.292 879.706,-237.02 878.503,-230.124"/>
</g>
<!-- n62951371739&#45;&gt;n62680404250 -->
<g id="edge92" class="edge"><title>n62951371739&#45;&gt;n62680404250</title>
<path fill="none" stroke="black" d="M1043.46,-111.292C1033.69,-120.935 1021.58,-132.88 1011.09,-143.232"/>
<polygon fill="black" stroke="black" points="1008.45,-140.918 1003.79,-150.433 1013.37,-145.901 1008.45,-140.918"/>
</g>
<!-- n62951371739&#45;&gt;n81030972443 -->
<g id="edge90" class="edge"><title>n62951371739&#45;&gt;n81030972443</title>
<path fill="none" stroke="black" d="M1127.24,-106.79C1149.42,-114.931 1171.89,-127.783 1185,-148 1194.19,-162.172 1191.6,-170.455 1185,-186 1179.12,-199.852 1167.85,-211.912 1156.87,-221.18"/>
<polygon fill="black" stroke="black" points="1154.67,-218.462 1149.01,-227.422 1159.02,-223.943 1154.67,-218.462"/>
</g>
<!-- n63212670909 -->
<g id="node36" class="node"><title>n63212670909</title>
<ellipse fill="none" stroke="black" cx="791" cy="-19" rx="55.1543" ry="18.3848"/>
<text text-anchor="middle" x="791" y="-15.4" font-family="Times Roman,serif" font-size="14.00">enable_if</text>
</g>
<!-- n63212670909&#45;&gt;n132971512 -->
<g id="edge96" class="edge"><title>n63212670909&#45;&gt;n132971512</title>
<path fill="none" stroke="black" d="M792.14,-37.7443C793.682,-63.099 796.446,-108.561 798.252,-138.25"/>
<polygon fill="black" stroke="black" points="794.769,-138.639 798.869,-148.408 801.756,-138.214 794.769,-138.639"/>
</g>
<!-- n63212670909&#45;&gt;n6280279382 -->
<g id="edge94" class="edge"><title>n63212670909&#45;&gt;n6280279382</title>
<path fill="none" stroke="black" d="M812.338,-36.1631C824.47,-45.9218 839.852,-58.2943 853.165,-69.0023"/>
<polygon fill="black" stroke="black" points="851.153,-71.8758 861.139,-75.4161 855.54,-66.4212 851.153,-71.8758"/>
</g>
<!-- n63212670909&#45;&gt;n61619765199 -->
<g id="edge98" class="edge"><title>n63212670909&#45;&gt;n61619765199</title>
<path fill="none" stroke="black" d="M769.43,-36.1631C757.166,-45.9218 741.617,-58.2943 728.159,-69.0023"/>
<polygon fill="black" stroke="black" points="725.745,-66.4509 720.099,-75.4161 730.103,-71.9285 725.745,-66.4509"/>
</g>
<!-- n63386838895 -->
<g id="node37" class="node"><title>n63386838895</title>
<ellipse fill="none" stroke="black" cx="239" cy="-19" rx="55.1543" ry="18.3848"/>
<text text-anchor="middle" x="239" y="-15.4" font-family="Times Roman,serif" font-size="14.00">enable_if</text>
</g>
<!-- n63386838895&#45;&gt;n133028936 -->
<g id="edge102" class="edge"><title>n63386838895&#45;&gt;n133028936</title>
<path fill="none" stroke="black" d="M210.04,-34.8244C194.811,-44.4167 176.89,-57.9069 165,-74 150.848,-93.1554 142.334,-118.931 137.509,-138.488"/>
<polygon fill="black" stroke="black" points="134.07,-137.827 135.254,-148.356 140.894,-139.387 134.07,-137.827"/>
</g>
<!-- n63386838895&#45;&gt;n61401920576 -->
<g id="edge104" class="edge"><title>n63386838895&#45;&gt;n61401920576</title>
<path fill="none" stroke="black" d="M239,-37.6733C239,-45.7361 239,-55.3523 239,-64.2885"/>
<polygon fill="black" stroke="black" points="235.5,-64.3326 239,-74.3326 242.5,-64.3327 235.5,-64.3326"/>
</g>
<!-- n63386838895&#45;&gt;n62894750117 -->
<g id="edge100" class="edge"><title>n63386838895&#45;&gt;n62894750117</title>
<path fill="none" stroke="black" d="M270.287,-34.3328C292.884,-45.4067 323.639,-60.4786 348.318,-72.5728"/>
<polygon fill="black" stroke="black" points="346.929,-75.7899 357.449,-77.0477 350.009,-69.5041 346.929,-75.7899"/>
</g>
<!-- n63455941071&#45;&gt;n132944440 -->
<g id="edge106" class="edge"><title>n63455941071&#45;&gt;n132944440</title>
<path fill="none" stroke="black" d="M1679.09,-174.218C1715.31,-184.656 1784.35,-204.623 1843,-222 1847.07,-223.205 1851.28,-224.46 1855.51,-225.725"/>
<polygon fill="black" stroke="black" points="1854.77,-229.156 1865.35,-228.677 1856.78,-222.451 1854.77,-229.156"/>
</g>
<!-- n63455941071&#45;&gt;n132944952 -->
<g id="edge108" class="edge"><title>n63455941071&#45;&gt;n132944952</title>
<path fill="none" stroke="black" d="M1628.88,-174.329C1592.97,-184.82 1524.89,-204.757 1467,-222 1462.94,-223.211 1458.72,-224.47 1454.5,-225.738"/>
<polygon fill="black" stroke="black" points="1453.23,-222.465 1444.66,-228.694 1455.24,-229.169 1453.23,-222.465"/>
</g>
<!-- n63455941071&#45;&gt;n132945464 -->
<g id="edge110" class="edge"><title>n63455941071&#45;&gt;n132945464</title>
<path fill="none" stroke="black" d="M1633.36,-179.22C1614.83,-190.188 1587.22,-206.533 1565.05,-219.656"/>
<polygon fill="black" stroke="black" points="1563.06,-216.769 1556.24,-224.875 1566.63,-222.792 1563.06,-216.769"/>
</g>
<!-- n63455941071&#45;&gt;n132945976 -->
<g id="edge112" class="edge"><title>n63455941071&#45;&gt;n132945976</title>
<path fill="none" stroke="black" d="M1627.4,-170.583C1573.14,-178.131 1445.94,-197.05 1341,-222 1336.57,-223.054 1331.98,-224.241 1327.41,-225.494"/>
<polygon fill="black" stroke="black" points="1326.13,-222.22 1317.46,-228.316 1328.04,-228.954 1326.13,-222.22"/>
</g>
<!-- n63455941071&#45;&gt;n132946488 -->
<g id="edge114" class="edge"><title>n63455941071&#45;&gt;n132946488</title>
<path fill="none" stroke="black" d="M1654,-185.673C1654,-193.736 1654,-203.352 1654,-212.289"/>
<polygon fill="black" stroke="black" points="1650.5,-212.333 1654,-222.333 1657.5,-212.333 1650.5,-212.333"/>
</g>
<!-- n63455941071&#45;&gt;n132947000 -->
<g id="edge116" class="edge"><title>n63455941071&#45;&gt;n132947000</title>
<path fill="none" stroke="black" d="M1680.79,-170.487C1735.43,-177.86 1863.51,-196.475 1969,-222 1973.3,-223.041 1977.74,-224.218 1982.18,-225.465"/>
<polygon fill="black" stroke="black" points="1981.23,-228.836 1991.81,-228.278 1983.19,-222.116 1981.23,-228.836"/>
</g>
<!-- n63455941071&#45;&gt;n132947512 -->
<g id="edge118" class="edge"><title>n63455941071&#45;&gt;n132947512</title>
<path fill="none" stroke="black" d="M1674.52,-179.054C1693.16,-189.997 1721.07,-206.388 1743.5,-219.561"/>
<polygon fill="black" stroke="black" points="1742.02,-222.754 1752.42,-224.8 1745.57,-216.718 1742.02,-222.754"/>
</g>
<!-- n64151904311&#45;&gt;n81773484321 -->
<g id="edge120" class="edge"><title>n64151904311&#45;&gt;n81773484321</title>
<path fill="none" stroke="black" d="M467.984,-254.919C446.328,-266.968 414.899,-284.455 391.526,-297.459"/>
<polygon fill="black" stroke="black" points="389.723,-294.457 382.686,-302.377 393.127,-300.574 389.723,-294.457"/>
</g>
</g>
</svg>
